<svg xmlns="http://www.w3.org/2000/svg" width="100" height="86" viewBox="0 0 100 86">
  <g id="Group_2746" data-name="Group 2746" transform="translate(-515 -832)">
    <path id="bg" d="M27.5,95.29l-25-43,25-43h50l25,43-25,43Z" transform="translate(512.5 822.71)" fill="#fff"/>
    <g id="Group_838" data-name="Group 838" transform="translate(547.113 849.099)">
      <path id="Path_5797" data-name="Path 5797" d="M154.87-509.153a53.462,53.462,0,0,0-16.224-2.659,52.71,52.71,0,0,0-16.233,2.656,2.45,2.45,0,0,0-1.662,2.323v30.693c0,.923.455,2.022,2.623,2.022H127.7l-5.87,6.446a.818.818,0,0,0,.054,1.155.816.816,0,0,0,.55.213.818.818,0,0,0,.6-.267l1.5-1.648h27.895a.808.808,0,0,0,.27-.055l1.55,1.7a.818.818,0,0,0,.6.267.814.814,0,0,0,.55-.213.817.817,0,0,0,.054-1.155l-5.87-6.446h4.326c2.168,0,2.622-1.1,2.622-2.022v-30.687A2.45,2.45,0,0,0,154.87-509.153Zm-28.843,39.3,1.3-1.429h22.635l1.3,1.429Zm21.716-3.867.731.8H128.817l.73-.8a.792.792,0,0,0,.184-.4h17.827A.8.8,0,0,0,147.743-473.72Zm7.163-2.419c0,.19,0,.387-.987.387H123.373c-.988,0-.988-.2-.988-.387v-30.693a.816.816,0,0,1,.552-.775,51.008,51.008,0,0,1,15.709-2.57,51.73,51.73,0,0,1,15.705,2.574.816.816,0,0,1,.555.776Z" transform="translate(-120.75 518.067)" fill="#9f7cb4"/>
      <path id="Path_5798" data-name="Path 5798" d="M129.282-488.133h23.644a1.431,1.431,0,0,0,1.429-1.429v-9.588a1.431,1.431,0,0,0-1.429-1.429H129.282a1.431,1.431,0,0,0-1.429,1.429v9.588A1.43,1.43,0,0,0,129.282-488.133Zm.206-10.811H152.72v9.176H129.488Z" transform="translate(-123.208 514.18)" fill="#9f7cb4"/>
      <path id="Path_5799" data-name="Path 5799" d="M130.191-471.843a2.938,2.938,0,0,0-2.934,2.934,2.938,2.938,0,0,0,2.934,2.934,2.938,2.938,0,0,0,2.934-2.934A2.938,2.938,0,0,0,130.191-471.843Zm0,4.233a1.3,1.3,0,0,1-1.3-1.3,1.3,1.3,0,0,1,1.3-1.3,1.3,1.3,0,0,1,1.3,1.3A1.3,1.3,0,0,1,130.191-467.61Z" transform="translate(-123.002 504.235)" fill="#9f7cb4"/>
      <path id="Path_5800" data-name="Path 5800" d="M162.662-471.843a2.938,2.938,0,0,0-2.934,2.934,2.938,2.938,0,0,0,2.934,2.934,2.938,2.938,0,0,0,2.934-2.934A2.938,2.938,0,0,0,162.662-471.843Zm0,4.233a1.3,1.3,0,0,1-1.3-1.3,1.3,1.3,0,0,1,1.3-1.3,1.3,1.3,0,0,1,1.3,1.3A1.3,1.3,0,0,1,162.662-467.61Z" transform="translate(-134.24 504.235)" fill="#9f7cb4"/>
      <path id="Path_5801" data-name="Path 5801" d="M135.482-519.743h3.155a.719.719,0,0,0-.015.076v2.425a.817.817,0,0,0,.817.817.818.818,0,0,0,.817-.817v-2.425a.716.716,0,0,0-.016-.076h6.311a.716.716,0,0,0-.016.076v2.425a.818.818,0,0,0,.817.817.817.817,0,0,0,.817-.817v-2.425a.719.719,0,0,0-.015-.076h3.283a.817.817,0,0,0,.817-.817.817.817,0,0,0-.817-.817H135.482a.818.818,0,0,0-.817.817A.817.817,0,0,0,135.482-519.743Z" transform="translate(-125.566 521.378)" fill="#9f7cb4"/>
    </g>
  </g>
</svg>
