<svg xmlns="http://www.w3.org/2000/svg" width="100" height="86" viewBox="0 0 100 86">
  <g id="icon-group" transform="translate(-1265 -832)">
    <path id="bg" d="M27.5,95.29l-25-43,25-43h50l25,43-25,43Z" transform="translate(1262.5 822.71)" fill="#fff"/>
    <g id="Group_189558" data-name="Group 189558" transform="translate(1290.714 850.571)">
      <path id="Path_232768" data-name="Path 232768" d="M305.647,48.205a.617.617,0,0,1-.616-.616V44.41h-5.455a3.655,3.655,0,0,1-3.652-3.651v-.9h-.9a1.376,1.376,0,0,1-1.375-1.375V36.205a1.376,1.376,0,0,1,1.375-1.375h1.061l-.174-.229a3.546,3.546,0,0,1-.413-3.669l.1-.218-.314.024c-.059,0-.119.01-.176.01a3.652,3.652,0,0,1-3.539-2.744l-.224-.873-16.31,4.189a.375.375,0,0,1-.077.01c-.139.04-.216.065-.29.084a2.226,2.226,0,0,1-.547.069c-1.22,0-2.546-1.011-3.834-2.924a26.465,26.465,0,0,1-3.34-7.944,30.012,30.012,0,0,1-.952-6.306l0-.1-.1-.03a4.384,4.384,0,0,1-2.967-3.109l-.377-1.47a.619.619,0,0,1,.444-.75l14.1-3.622-.6-2.344a.618.618,0,0,1,.443-.751L282.817.625a.621.621,0,0,1,.751.444l.6,2.343,11.9-3.056a11.239,11.239,0,0,1,13.686,8.091l.566,2.206a.619.619,0,0,1-.444.749l-2.344.6.979,3.814a6.688,6.688,0,0,1-4.814,8.141l-.873.224.224.873a3.65,3.65,0,0,1-2.009,4.218l-.216.1.189.144a3.617,3.617,0,0,1,.947,4.754,2.544,2.544,0,0,1-.175.242l-.244.319h1.069a1.376,1.376,0,0,1,1.374,1.375v2.419h1.661a.9.9,0,0,0,.9-.9V27.1a.617.617,0,0,1,.616-.616H310.2a.617.617,0,0,1,.616.616V47.589a.617.617,0,0,1-.616.616Zm.616-1.231h3.321V44.412h-3.321Zm-9.107-6.214a2.422,2.422,0,0,0,2.42,2.419h10.009V27.715h-1.8V37.725a2.136,2.136,0,0,1-2.134,2.134h-8.491Zm-2.277-2.134h7.877V36.063h-7.876Zm3.942-8.635a2.511,2.511,0,0,0-.606.077,2.4,2.4,0,1,0,.606-.077M268.293,14.246a4.417,4.417,0,0,1-.918.134l-.144.006.006.144a29,29,0,0,0,.9,5.782,25.171,25.171,0,0,0,3.167,7.561c1.018,1.512,2.045,2.379,2.817,2.379a.926.926,0,0,0,.234-.029c.784-.2,1.361-1.521,1.541-3.53a25.151,25.151,0,0,0-.869-8.151,29.168,29.168,0,0,0-1.949-5.406l-.051-.1-1.791.459.08.159a26.781,26.781,0,0,1,1.964,5.34,22.033,22.033,0,0,1,.793,7.825.621.621,0,0,1-.459.527.678.678,0,0,1-.154.019.617.617,0,0,1-.5-.259,22.058,22.058,0,0,1-3.077-7.239,26.513,26.513,0,0,1-.862-5.623l-.006-.178Zm5.949-1.528.074.156a30.8,30.8,0,0,1,1.908,5.359,26.456,26.456,0,0,1,.9,8.569,9.668,9.668,0,0,1-.555,2.617l-.1.259,5.974-1.534c1.63-.419,2.307-5.321.674-11.683a29.121,29.121,0,0,0-1.954-5.4l-.051-.1Zm18.292,14.109.224.873A2.421,2.421,0,0,0,295.7,29.44l4.411-1.132a2.423,2.423,0,0,0,1.742-2.945l-.224-.874Zm-8.013-16.646a3.154,3.154,0,0,0-.791.1l-1.406.361.074.156a30.859,30.859,0,0,1,1.91,5.358c1.132,4.411,1.26,8.8.326,11.191l-.1.261,17.424-4.476.006-.006,1.427-.361a5.463,5.463,0,0,0,3.926-6.641l-.98-3.814-.8.206a.6.6,0,0,1-.151.019.616.616,0,0,1-.156-1.212l3.746-.961-.413-1.61a10,10,0,0,0-12.184-7.2L263.893,9.892l.224.874a3.181,3.181,0,0,0,3.869,2.288l15.437-3.965a4.413,4.413,0,0,1,5.371,3.175,3.171,3.171,0,0,0,3.869,2.287L297.9,13.2a.584.584,0,0,1,.154-.019.616.616,0,0,1,.154,1.212l-5.242,1.346a4.392,4.392,0,0,1-3.343-.476,4.382,4.382,0,0,1-2.028-2.7,3.177,3.177,0,0,0-3.078-2.388m-14.229,4.784a26.4,26.4,0,0,0,.784,4.591,26.3,26.3,0,0,0,1.528,4.409l.272-.07a26.533,26.533,0,0,0-.788-4.6,26.461,26.461,0,0,0-1.525-4.4ZM277.84,3.176l.449,1.746,4.686-1.2-.448-1.748Z" transform="translate(-262.526 -0.001)" fill="#9dc249"/>
      <path id="Path_232780" data-name="Path 232780" d="M316.273,18.443a.616.616,0,0,1-.152-1.212l1.518-.39a.643.643,0,0,1,.152-.019.616.616,0,0,1,.154,1.212l-1.518.39a.616.616,0,0,1-.154.019" transform="translate(-277.707 -4.807)" fill="#9dc249"/>
    </g>
  </g>
</svg>
