<svg xmlns="http://www.w3.org/2000/svg" width="100" height="85.705" viewBox="0 0 100 85.705">
  <g id="icon-group" transform="translate(-705 -832)">
    <path id="bg" d="M27.5,95,2.5,52.143,27.5,9.29h50l25,42.853L77.5,95Z" transform="translate(702.5 822.71)" fill="#fff"/>
    <g id="Group_189559" data-name="Group 189559" transform="translate(730.714 852.856)">
      <path id="Path_232769" data-name="Path 232769" d="M58.188,68.113a.683.683,0,1,1,.679-.683.681.681,0,0,1-.679.683" transform="translate(-16.431 -59.304)" fill="#fba322"/>
      <path id="Path_232770" data-name="Path 232770" d="M24.507,101.6c-17.19,0-23.5-7.426-23.756-7.742a3.152,3.152,0,0,1,4.784-4.1,6.448,6.448,0,0,0,.565.51l.145.116.074-.17A22.264,22.264,0,0,1,9.856,84.59.945.945,0,0,0,9.927,83.4a8.356,8.356,0,0,1-.574-.88l-.1-.173-.133.147a5.341,5.341,0,0,1-3.941,1.746c-.126,0-.252,0-.379-.013C1.325,84.231.25,82.535.07,82.2a.686.686,0,0,1,.356-.938,4.031,4.031,0,0,0,2.459-2.187,4.665,4.665,0,0,0-.349-3.494A7.375,7.375,0,0,1,3,69.392a4.724,4.724,0,0,1,4-2.25c.082,0,.164,0,.247.007.117-.006.218-.009.319-.009a5.151,5.151,0,0,1,4.887,3.545l.045.134.134-.043a6.543,6.543,0,0,1,2.015-.319H25.5a.966.966,0,0,0,.955-.836C27.031,65.647,29.274,56.4,37.649,56.4a8.744,8.744,0,0,1,3.236.738l.054.023.054-.021a11.082,11.082,0,0,1,3.992-.74.7.7,0,0,1,.735.683,5.644,5.644,0,0,1-1.4,3.308l-.071.081.056.091c1.167,1.915,3.881,6.537,3.881,8.1,0,3.982-2.156,4.819-3.964,4.819a4.031,4.031,0,0,1-2.848-1.267,4.18,4.18,0,0,0-1.841-1.1l-.219-.063.039.225c.4,2.295.89,6.622-.3,9.829a1,1,0,0,0,.189,1.059,23.649,23.649,0,0,1,4.722,6.955l.068.152.14-.091a3.116,3.116,0,0,1,4.049.563,3.153,3.153,0,0,1,.051,4.115c-.265.316-6.694,7.741-23.76,7.741M3.142,90.02a1.791,1.791,0,0,0-1.613,1.044,1.813,1.813,0,0,0,.255,1.913c.249.3,6.277,7.256,22.723,7.256,16.383,0,22.474-6.96,22.726-7.257a1.8,1.8,0,0,0,.413-1.3,1.768,1.768,0,0,0-.622-1.21,1.791,1.791,0,0,0-2.516.18c-.217.245-5.5,5.99-20,5.99-14.479,0-19.773-5.736-19.991-5.981a1.8,1.8,0,0,0-1.372-.636ZM14.855,86.5a.916.916,0,0,0-.637.257,16.582,16.582,0,0,0-3.879,5.829l-.051.132.129.055a36.117,36.117,0,0,0,14.091,2.5c7.7,0,12.691-1.721,15.524-3.165l.116-.059-.047-.122a19.109,19.109,0,0,0-4.429-6.75.968.968,0,0,0-.651-.253.955.955,0,0,0-.212.024,6.888,6.888,0,0,1-1.232.111c-.279-.006-.529-.009-.778-.009a27.637,27.637,0,0,0-6.456.765,35.569,35.569,0,0,1-8.029.919h0q-.6,0-1.194-.02a11.216,11.216,0,0,1-2.094-.195.977.977,0,0,0-.17-.016m-.324-14.678a4.822,4.822,0,0,0-4.382,2.842,7.816,7.816,0,0,0,.849,7.9,2.322,2.322,0,0,1-.126,2.93A21.105,21.105,0,0,0,7.418,91.07l-.048.113.1.065c.455.286.941.563,1.443.821l.139.072L9.114,92A17.918,17.918,0,0,1,13.3,85.75a2.247,2.247,0,0,1,1.547-.613,2.289,2.289,0,0,1,.429.041,9.792,9.792,0,0,0,1.8.168c1.258,0,2.336-.026,3.326-.077l.136-.008V80.1H20.4a4.815,4.815,0,0,1-4.786-4.819V71.824Zm20.5,11.733a2.288,2.288,0,0,1,1.561.613,20.343,20.343,0,0,1,4.686,7.045l.064.158.144-.09a13.986,13.986,0,0,0,1.394-.987l.085-.068-.042-.1A22.617,22.617,0,0,0,38.29,83.14a2.371,2.371,0,0,1-.512-2.509c1.431-3.856.091-9.9.033-10.159a.687.687,0,0,1,.129-.583.675.675,0,0,1,.531-.258l.159,0a4.871,4.871,0,0,1,2.7.816l.1.065,4.4-4.432-.046-.093C45,64.43,43.9,62.475,42.824,60.751a.683.683,0,0,1,.1-.844,5.258,5.258,0,0,0,1.237-1.9l.081-.216-.228.021a9.307,9.307,0,0,0-2.595.625l-.036.015-.024.032c-.457.606-2.133,2.584-4.526,2.584-2.674,0-3.878,3.687-4.271,5.272-.689,2.773-1.561,5.48-3.944,5.48H26.828v3.452A4.814,4.814,0,0,1,22.043,80.1H21.9v5.068l.156-.015a28.94,28.94,0,0,0,3.993-.67,28.743,28.743,0,0,1,6.719-.8q.385,0,.771.011h0a5.64,5.64,0,0,0,1.01-.085,2.273,2.273,0,0,1,.475-.05m-28-15.048a3.382,3.382,0,0,0-2.881,1.6,6.1,6.1,0,0,0-.4,4.842,6.024,6.024,0,0,1,.409,4.6,4.845,4.845,0,0,1-2.135,2.436l-.232.129.234.124a5.4,5.4,0,0,0,2.513.624c.087,0,.262-.006.262-.006a3.817,3.817,0,0,0,3.771-1.989l.026-.053-.019-.058a9.091,9.091,0,0,1,.355-6.709,6.428,6.428,0,0,1,2.239-2.586l.086-.058-.027-.1A3.8,3.8,0,0,0,7.584,68.5c-.112,0-.226.005-.339.015-.057-.006-.135-.009-.214-.009m9.939,6.768A3.445,3.445,0,0,0,20.4,78.729h1.643a3.444,3.444,0,0,0,3.428-3.452V71.824h-8.5Zm25.524-3.912.106.1a2.319,2.319,0,0,0,1.607.645c1.3,0,2.621-.41,2.621-3.452a3.561,3.561,0,0,0-.309-1.075l-.086-.186Zm-4.845-13.6c-7.316,0-9.326,8.429-9.85,12.052a2.454,2.454,0,0,1-.111.45l-.067.191h.994c.94,0,1.708-.744,2.627-4.445,1-4.009,3.031-6.307,5.587-6.307a4.2,4.2,0,0,0,2.836-1.357l.149-.162-.208-.072a6.47,6.47,0,0,0-1.953-.352Z" transform="translate(0 -56.398)" fill="#fba322"/>
    </g>
  </g>
</svg>
