<svg xmlns="http://www.w3.org/2000/svg" width="100" height="86" viewBox="0 0 100 86">
  <g id="Group_2742" data-name="Group 2742" transform="translate(-1064 -832)">
    <path id="bg" d="M27.5,95.29l-25-43,25-43h50l25,43-25,43Z" transform="translate(1061.5 822.71)" fill="#fff"/>
    <path id="icon" d="M29.645,37.056a2.779,2.779,0,1,1,2.779,2.779A2.782,2.782,0,0,1,29.645,37.056Zm1.853,0a.926.926,0,1,0,.927-.926A.928.928,0,0,0,31.5,37.056ZM11.58,36.593A6.492,6.492,0,0,0,5.1,30.108a.926.926,0,1,1,0-1.853,6.492,6.492,0,0,0,6.485-6.485.926.926,0,1,1,1.853,0,6.493,6.493,0,0,0,6.485,6.485.926.926,0,0,1,0,1.853,6.493,6.493,0,0,0-6.485,6.485.926.926,0,1,1-1.853,0ZM8.913,29.182a8.4,8.4,0,0,1,3.594,3.594A8.4,8.4,0,0,1,16.1,29.182a8.4,8.4,0,0,1-3.594-3.594A8.4,8.4,0,0,1,8.913,29.182ZM26.4,32.424a8.811,8.811,0,0,0-8.8-8.8.926.926,0,0,1,0-1.853,8.811,8.811,0,0,0,8.8-8.8.926.926,0,1,1,1.853,0,8.811,8.811,0,0,0,8.8,8.8.926.926,0,1,1,0,1.853,8.811,8.811,0,0,0-8.8,8.8.926.926,0,1,1-1.853,0ZM21.946,22.7a10.72,10.72,0,0,1,5.383,5.383A10.719,10.719,0,0,1,32.711,22.7a10.719,10.719,0,0,1-5.383-5.383A10.721,10.721,0,0,1,21.946,22.7ZM0,14.823a3.706,3.706,0,1,1,3.705,3.705A3.71,3.71,0,0,1,0,14.823Zm1.853,0A1.853,1.853,0,1,0,3.705,12.97,1.855,1.855,0,0,0,1.853,14.823Zm17.6.926A6.492,6.492,0,0,0,12.97,9.264a.926.926,0,1,1,0-1.853A6.492,6.492,0,0,0,19.454.927a.926.926,0,1,1,1.853,0,6.492,6.492,0,0,0,6.485,6.485.926.926,0,1,1,0,1.853,6.492,6.492,0,0,0-6.485,6.485.926.926,0,1,1-1.853,0ZM16.787,8.338a8.4,8.4,0,0,1,3.594,3.594,8.4,8.4,0,0,1,3.594-3.594,8.4,8.4,0,0,1-3.594-3.594A8.4,8.4,0,0,1,16.787,8.338Zm14.71.926a2.779,2.779,0,1,1,2.779,2.779A2.783,2.783,0,0,1,31.5,9.264Zm1.853,0a.926.926,0,1,0,.926-.926A.928.928,0,0,0,33.35,9.264Z" transform="translate(1094.74 854.876)" fill="#eb8ea9" stroke="rgba(0,0,0,0)" stroke-miterlimit="10" stroke-width="1"/>
  </g>
</svg>
