<svg xmlns="http://www.w3.org/2000/svg" width="100" height="85.705" viewBox="0 0 100 85.705">
  <g id="Group_2744" data-name="Group 2744" transform="translate(-885 -832)">
    <path id="icon" d="M14.908.982a4.074,4.074,0,0,0-2.086.669,3.623,3.623,0,0,0-.9.735,1.858,1.858,0,0,0-.5,1.216V6.214h-.87a.867.867,0,0,0-.873.867V9.994c-4.419.962-7.845,4.287-7.845,8.429v2.613a.87.87,0,0,0,.876.867H21.883a.868.868,0,0,0,.867-.867V18.422c0-4.142-3.423-7.47-7.842-8.432V7.081a.87.87,0,0,0-.87-.867h-.876V3.6c0,.072-.02.033.072-.072a2.211,2.211,0,0,1,.488-.386,3.434,3.434,0,0,1,1.186-.418H38.447a3.434,3.434,0,0,1,1.186.418,2.148,2.148,0,0,1,.481.386c.092.105.076.145.076.072V48.057H37.571a.872.872,0,0,0,0,1.743H41a.638.638,0,0,0,.112,0h3.437a.872.872,0,0,0,0-1.743H41.936V3.6a1.844,1.844,0,0,0-.5-1.216,3.639,3.639,0,0,0-.906-.735A4.051,4.051,0,0,0,38.447.982ZM11.418,7.957h1.743V9.7H11.418Zm.876,3.489c4.827,0,8.712,3.213,8.712,6.975v1.736H3.573V18.422C3.573,14.659,7.464,11.447,12.295,11.447ZM5.306,23.635a.87.87,0,0,0-.863.88v1.753a.872.872,0,1,0,1.743.036V24.521a.87.87,0,0,0-.857-.886Zm3.486,0a.867.867,0,0,0-.86.88v1.753a.872.872,0,1,0,1.743.036V24.521a.872.872,0,0,0-.857-.886Zm3.489,0a.87.87,0,0,0-.863.88v1.753a.872.872,0,0,0,1.743.036V24.521a.869.869,0,0,0-.853-.886Zm3.479,0a.869.869,0,0,0-.853.886h0v1.746a.872.872,0,1,0,1.743.036V24.521a.869.869,0,0,0-.853-.886Zm3.489,0a.872.872,0,0,0-.857.886h0v1.746a.873.873,0,0,0,1.746,0V24.521a.872.872,0,0,0-.857-.886ZM5.306,28.867a.87.87,0,0,0-.863.88V31.5a.872.872,0,1,0,1.743.036V29.754a.87.87,0,0,0-.857-.886Zm3.486,0a.867.867,0,0,0-.86.88V31.5a.872.872,0,1,0,1.743.036V29.754a.872.872,0,0,0-.857-.886Zm3.489,0a.87.87,0,0,0-.863.88V31.5a.872.872,0,0,0,1.743.036V29.754a.869.869,0,0,0-.853-.886Zm3.479,0a.869.869,0,0,0-.853.886h0V31.5a.872.872,0,1,0,1.743.036V29.754a.869.869,0,0,0-.853-.886Zm3.489,0a.872.872,0,0,0-.857.886h0V31.5a.873.873,0,0,0,1.746,0V29.754a.872.872,0,0,0-.857-.886ZM5.306,34.1a.87.87,0,0,0-.863.88v1.746a.872.872,0,1,0,1.743.036V34.979a.872.872,0,0,0-.863-.88Zm3.486,0a.867.867,0,0,0-.86.88v1.746a.872.872,0,1,0,1.743.036V34.979a.872.872,0,0,0-.863-.88Zm3.489,0a.87.87,0,0,0-.863.88v1.746a.872.872,0,0,0,1.743.036V34.979a.872.872,0,0,0-.863-.88Zm3.479,0a.87.87,0,0,0-.853.88v1.746a.872.872,0,1,0,1.743.036V34.979a.872.872,0,0,0-.863-.88Zm3.489,0a.873.873,0,0,0-.857.88v1.746a.873.873,0,0,0,1.746,0V34.979a.872.872,0,0,0-.863-.88ZM5.306,39.329a.872.872,0,0,0-.863.88v1.746a.872.872,0,1,0,1.743.04V40.212a.873.873,0,0,0-.863-.883Zm3.486,0a.872.872,0,0,0-.86.883v1.743a.872.872,0,1,0,1.743.04V40.212a.877.877,0,0,0-.863-.883Zm3.489,0a.872.872,0,0,0-.863.88v1.746a.872.872,0,1,0,1.743.04V40.212a.872.872,0,0,0-.86-.883Zm3.479,0a.873.873,0,0,0-.853.883v1.743a.872.872,0,1,0,1.743.04V40.212a.873.873,0,0,0-.863-.883Zm3.489,0a.871.871,0,0,0-.857.883v1.743a.873.873,0,0,0,1.746,0V40.212a.877.877,0,0,0-.863-.883Z" transform="translate(911.027 849.589)" fill="#5abdd8"/>
    <g id="icon-group">
      <path id="bg" d="M27.5,95,2.5,52.143,27.5,9.29h50l25,42.853L77.5,95Z" transform="translate(882.5 822.71)" fill="#fff"/>
      <g id="Group_189557" data-name="Group 189557" transform="translate(910.714 850.7)">
        <path id="Path_232771" data-name="Path 232771" d="M158.013,58.024a4.575,4.575,0,0,1-4.554-4.585.759.759,0,1,0-1.517,0,4.575,4.575,0,0,1-4.554,4.585.764.764,0,0,0,0,1.528,4.574,4.574,0,0,1,4.554,4.585.759.759,0,1,0,1.517,0,4.574,4.574,0,0,1,4.554-4.585.764.764,0,0,0,0-1.528M152.7,61.18a6.137,6.137,0,0,0-2.376-2.392A6.132,6.132,0,0,0,152.7,56.4a6.132,6.132,0,0,0,2.376,2.392A6.137,6.137,0,0,0,152.7,61.18" transform="translate(-113.236 -20.581)" fill="#5abdd8"/>
        <path id="Path_232772" data-name="Path 232772" d="M100.638,14.928a4.575,4.575,0,0,1,4.554,4.585.759.759,0,1,0,1.517,0,4.575,4.575,0,0,1,4.554-4.585.764.764,0,0,0,0-1.528,4.574,4.574,0,0,1-4.554-4.585.759.759,0,1,0-1.517,0,4.574,4.574,0,0,1-4.554,4.585.764.764,0,0,0,0,1.528m5.312-3.156a6.147,6.147,0,0,0,2.376,2.392,6.142,6.142,0,0,0-2.376,2.392,6.142,6.142,0,0,0-2.376-2.392,6.147,6.147,0,0,0,2.376-2.392" transform="translate(-99.879 -8.051)" fill="#5abdd8"/>
        <path id="Path_232773" data-name="Path 232773" d="M148.905,42.05a.761.761,0,0,0-.759.764v.765h-.759a.764.764,0,0,0,0,1.528h.759v.764a.759.759,0,1,0,1.517,0v-.764h.759a.764.764,0,0,0,0-1.528h-.759v-.765a.761.761,0,0,0-.759-.764" transform="translate(-113.236 -17.598)" fill="#5abdd8"/>
        <path id="Path_232774" data-name="Path 232774" d="M130.388,23.857h.759v.764a.759.759,0,1,0,1.519,0v-.764h.759a.764.764,0,0,0,0-1.528h-.759v-.765a.759.759,0,1,0-1.519,0v.765h-.759a.764.764,0,0,0,0,1.528" transform="translate(-108.379 -11.631)" fill="#5abdd8"/>
        <path id="Path_232775" data-name="Path 232775" d="M115.771,21.3a.757.757,0,0,0-1.427,0c-.029.083-3.036,8.3-7.412,12.712-4.549,4.578-7.053,7.1-7.053,13.53,0,6.3,5.319,12.991,15.179,12.991s15.179-6.694,15.179-12.991c0-6.429-2.5-8.952-7.053-13.53C118.8,29.6,115.8,21.385,115.771,21.3m-.714,37.705c-8.873,0-13.661-5.906-13.661-11.463,0-5.8,2.071-7.881,6.608-12.45,3.369-3.392,5.887-8.707,7.053-11.474,1.166,2.766,3.684,8.082,7.053,11.474,4.536,4.569,6.608,6.653,6.608,12.45,0,5.557-4.788,11.463-13.661,11.463" transform="translate(-99.879 -11.631)" fill="#5abdd8"/>
        <path id="Path_232776" data-name="Path 232776" d="M124.467,51.183h-3.036V48.127a.761.761,0,0,0-.759-.765H116.12a.762.762,0,0,0-.759.765v3.057h-3.036a.762.762,0,0,0-.759.765v4.584a.762.762,0,0,0,.759.765h3.036v3.057a.761.761,0,0,0,.759.764h4.554a.761.761,0,0,0,.759-.764V57.3h3.036a.762.762,0,0,0,.759-.765V51.948a.762.762,0,0,0-.759-.765m-.759,4.585h-3.036a.761.761,0,0,0-.759.764v3.057h-3.036V56.532a.762.762,0,0,0-.759-.764h-3.036V52.711h3.036a.762.762,0,0,0,.759-.764V48.89h3.036v3.057a.761.761,0,0,0,.759.764h3.036Z" transform="translate(-103.218 -19.089)" fill="#5abdd8"/>
        <path id="Path_232777" data-name="Path 232777" d="M130.832,65.09a.756.756,0,0,0,1.058.179A9.481,9.481,0,0,0,136,57.69a.759.759,0,1,0-1.518,0,7.948,7.948,0,0,1-3.476,6.335.767.767,0,0,0-.177,1.066" transform="translate(-108.682 -21.774)" fill="#5abdd8"/>
        <rect id="Rectangle_107005" data-name="Rectangle 107005" width="1.518" height="1.528" transform="translate(25.804 32.859)" fill="#5abdd8"/>
        <path id="Path_232778" data-name="Path 232778" d="M155.333,12.567A29.863,29.863,0,0,1,152.12,8.4a.784.784,0,0,0-1.269,0,29.818,29.818,0,0,1-3.213,4.163c-4.512,4.792-5.26,5.7-5.26,9.672,0,3.5,3.192,7.217,9.107,7.217s9.107-3.718,9.107-7.217c0-3.971-.748-4.88-5.26-9.672m-3.847,15.36c-4.929,0-7.589-2.931-7.589-5.688,0-3.362.48-3.985,4.844-8.623a29.955,29.955,0,0,0,2.745-3.429,29.958,29.958,0,0,0,2.745,3.429c4.364,4.637,4.844,5.26,4.844,8.623,0,2.757-2.656,5.688-7.589,5.688" transform="translate(-112.022 -8.059)" fill="#5abdd8"/>
        <path id="Path_232779" data-name="Path 232779" d="M161.351,26.7a.761.761,0,0,0-.759.764,2.625,2.625,0,0,1-1.821,2.135.766.766,0,0,0-.393,1.006.757.757,0,0,0,1,.4,4.1,4.1,0,0,0,2.732-3.536.761.761,0,0,0-.759-.764" transform="translate(-116.575 -13.289)" fill="#5abdd8"/>
        <rect id="Rectangle_107006" data-name="Rectangle 107006" width="1.518" height="1.528" transform="translate(44.018 10.697)" fill="#5abdd8"/>
      </g>
    </g>
  </g>
</svg>
