<svg xmlns="http://www.w3.org/2000/svg" xmlns:xlink="http://www.w3.org/1999/xlink" width="37.718" height="54.094" viewBox="0 0 37.718 54.094">
  <defs>
    <filter id="Path_232531" x="0.264" y="8.609" width="37.453" height="45.485" filterUnits="userSpaceOnUse">
      <feOffset dx="1" dy="1" input="SourceAlpha"/>
      <feGaussianBlur stdDeviation="1" result="blur"/>
      <feFlood flood-opacity="0.161"/>
      <feComposite operator="in" in2="blur"/>
      <feComposite in="SourceGraphic"/>
    </filter>
  </defs>
  <g id="clicking" transform="translate(5.077 13.739)">
    <g transform="matrix(1, 0, 0, 1, -5.08, -13.74)" filter="url(#Path_232531)">
      <path id="Path_232531-2" data-name="Path 232531" d="M25.871,76.725a3.839,3.839,0,0,0-5.163-1.751,3.844,3.844,0,0,0-4.718-1.94V64.991A3.969,3.969,0,0,0,12.215,61a3.907,3.907,0,0,0-3.988,3.938V85.168L6.711,83.553a3.878,3.878,0,0,0-5.433-.242,3.985,3.985,0,0,0-.21,5.64l8.714,9.457a6.426,6.426,0,0,0,4.708,2.075H25a6.518,6.518,0,0,0,6.453-6.566V80.258A3.879,3.879,0,0,0,25.871,76.725Zm3,17.191A3.911,3.911,0,0,1,25,97.856H14.491a3.854,3.854,0,0,1-2.825-1.245L2.94,87.141a1.329,1.329,0,0,1,.069-1.883,1.312,1.312,0,0,1,1.835.108l3.74,3.985a1.289,1.289,0,0,0,2.224-.907V64.937a1.306,1.306,0,0,1,1.337-1.313,1.345,1.345,0,0,1,1.263,1.367c0,14.45-.024,7.9-.024,15.7a1.3,1.3,0,1,0,2.606,0V76.507a1.289,1.289,0,0,1,2.557.25V80.7a1.291,1.291,0,1,0,2.581,0V78.507a1.291,1.291,0,1,1,2.581,0V80.7a1.291,1.291,0,1,0,2.581,0v-.438a1.291,1.291,0,1,1,2.581,0Zm0,0" transform="translate(2.26 -50.39)" fill="#fff"/>
    </g>
    <path id="Path_232531-3" data-name="Path 232531" d="M28.927,94.016a3.9,3.9,0,0,1-3.859,3.94H14.595A3.835,3.835,0,0,1,11.78,96.71l-8.7-9.469a1.332,1.332,0,0,1,.069-1.883,1.3,1.3,0,0,1,1.829.108l3.727,3.985a1.284,1.284,0,0,0,2.216-.907V65.037a1.3,1.3,0,0,1,1.332-1.313,1.343,1.343,0,0,1,1.259,1.367c0,14.45-.024,7.9-.024,15.7a1.3,1.3,0,1,0,2.6,0V76.606a1.284,1.284,0,0,1,2.548.25V80.8a1.286,1.286,0,1,0,2.572,0V78.607a1.286,1.286,0,1,1,2.572,0V80.8a1.286,1.286,0,1,0,2.572,0v-.438a1.286,1.286,0,1,1,2.572,0Zm0,0" transform="translate(-2.913 -64.227)" fill="#aaf"/>
    <path id="Union_156" data-name="Union 156" d="M1.3,17.767A1.41,1.41,0,0,1,1.983,15.9l3.493-1.63a1.409,1.409,0,1,1,1.19,2.553L3.173,18.447a1.408,1.408,0,0,1-1.872-.68ZM4.549,11.62.927,10.3A1.408,1.408,0,0,1,1.89,7.656L5.512,8.974a1.408,1.408,0,1,1-.963,2.646Zm13.5-1.772a1.41,1.41,0,0,1,.681-1.873l3.492-1.628A1.408,1.408,0,1,1,23.41,8.9l-3.493,1.63a1.408,1.408,0,0,1-1.872-.681ZM8.668,7.072,7.04,3.579a1.408,1.408,0,1,1,2.553-1.19l1.63,3.495A1.409,1.409,0,0,1,8.668,7.072Zm6.837-.717a1.411,1.411,0,0,1-.842-1.807L15.983.926a1.409,1.409,0,0,1,2.648.965L17.312,5.512a1.41,1.41,0,0,1-1.806.844Z" transform="translate(-5.077 -13.739)" fill="#fff"/>
  </g>
</svg>
