<svg xmlns="http://www.w3.org/2000/svg" width="350.611" height="137.421" viewBox="0 0 350.611 137.421">
  <g id="Union_11" data-name="Union 11" transform="translate(12 -20.505)" fill="#fff">
    <path d="M 200.0511016845703 157.4266815185547 C 192.1563262939453 157.4266815185547 184.4194641113281 156.0899200439453 177.0553741455078 153.4535064697266 C 170.0633850097656 150.9503326416016 163.5588989257812 147.3342132568359 157.7162780761719 142.7028961181641 C 151.8736114501953 147.3342132568359 145.369140625 150.9503326416016 138.3771514892578 153.4535064697266 C 131.0131530761719 156.0899200439453 123.2764205932617 157.4266815185547 115.3818283081055 157.4266815185547 C 106.3629684448242 157.4266815185547 97.6004638671875 155.6946411132812 89.33769226074219 152.2786407470703 C 85.36387634277344 150.6358184814453 81.52301025390625 148.6006927490234 77.92182922363281 146.2297821044922 C 74.45595550537109 143.9479370117188 71.17945861816406 141.3337860107422 68.17861175537109 138.4565582275391 C 64.46706390380859 140.3414611816406 60.54172897338867 141.7990570068359 56.50496673583984 142.7910003662109 C 52.23051071166992 143.8414154052734 47.81042098999023 144.3740081787109 43.3674201965332 144.3740081787109 C 35.96051025390625 144.3740081787109 28.7749195098877 142.9232330322266 22.01023864746094 140.0619964599609 C 18.75901031494141 138.6868743896484 15.6232385635376 136.9848175048828 12.69005680084229 135.0031433105469 C 9.784829139709473 133.0404205322266 7.052965641021729 130.7863616943359 4.570238590240479 128.3036346435547 C 2.08751106262207 125.820915222168 -0.166488841176033 123.0889587402344 -2.129170656204224 120.1837768554688 C -4.110806941986084 117.2505493164062 -5.812807083129883 114.1148223876953 -7.187943458557129 110.8635940551758 C -10.04907989501953 104.099006652832 -11.49980735778809 96.91355133056641 -11.49980735778809 89.50682067871094 C -11.49980735778809 82.09986877441406 -10.04907989501953 74.91427612304688 -7.187943458557129 68.14964294433594 C -5.812807083129883 64.89841461181641 -4.110806941986084 61.76264190673828 -2.129170656204224 58.82946014404297 C -0.166488841176033 55.92423248291016 2.08751106262207 53.19236755371094 4.570238590240479 50.70964050292969 C 7.052965641021729 48.22691345214844 9.784829139709473 45.9729118347168 12.69005680084229 44.01023101806641 C 15.6232385635376 42.02859497070312 18.75901031494141 40.32659530639648 22.01023864746094 38.95145797729492 C 28.77487564086914 36.0903205871582 35.96046447753906 34.63959503173828 43.3674201965332 34.63959503173828 C 47.73410034179688 34.63959503173828 52.08019256591797 35.15409469604492 56.28491973876953 36.16877746582031 C 60.25535202026367 37.12692642211914 64.12165832519531 38.53569793701172 67.78304290771484 40.35804748535156 C 70.793212890625 37.42515563964844 74.08657073974609 34.75944137573242 77.57655334472656 32.43132400512695 C 81.20101165771484 30.01350402832031 85.07123565673828 27.93745803833008 89.07973480224609 26.26091384887695 C 97.417236328125 22.77368545532227 106.2665557861328 21.0055046081543 115.3818283081055 21.0055046081543 C 123.2763748168945 21.0055046081543 131.0131530761719 22.34227752685547 138.3771514892578 24.97868537902832 C 145.3690948486328 27.48189735412598 151.8736114501953 31.09798049926758 157.7162780761719 35.72929763793945 C 163.5588989257812 31.09798049926758 170.0634307861328 27.48189735412598 177.0553741455078 24.97868537902832 C 184.4194641113281 22.34227752685547 192.1563262939453 21.0055046081543 200.0511016845703 21.0055046081543 C 205.1940612792969 21.0055046081543 210.3209686279297 21.58041381835938 215.2892913818359 22.71418571472168 C 220.1221466064453 23.81709480285645 224.8440093994141 25.45709419250488 229.3236541748047 27.5886402130127 C 233.7222442626953 29.681640625 237.9113311767578 32.25950241088867 241.7745513916016 35.25064086914062 C 245.4913024902344 38.12832641601562 248.920166015625 41.39900970458984 251.9720916748047 44.97708129882812 C 261.1161499023438 38.78507614135742 271.7975769042969 35.51441192626953 282.8925170898438 35.51441192626953 C 290.3467407226562 35.51441192626953 297.5782470703125 36.97445678710938 304.3861389160156 39.85404968261719 C 307.6581420898438 41.2380485534668 310.8140258789062 42.95100402832031 313.7659606933594 44.94536590576172 C 316.6897277832031 46.92068481445312 319.4391479492188 49.18918609619141 321.937744140625 51.68782043457031 C 324.4363708496094 54.18650436401367 326.7047729492188 56.93595886230469 328.6800537109375 59.85977554321289 C 330.6743774414062 62.81182098388672 332.3872985839844 65.96768951416016 333.771240234375 69.23973083496094 C 336.6507263183594 76.0477294921875 338.1107482910156 83.27927398681641 338.1107482910156 90.73350524902344 C 338.1107482910156 98.18772888183594 336.6507263183594 105.4192276000977 333.771240234375 112.2271423339844 C 332.3872985839844 115.499137878418 330.6743774414062 118.6550064086914 328.6800537109375 121.6069564819336 C 326.7047729492188 124.5307312011719 324.4363708496094 127.280143737793 321.937744140625 129.7787322998047 C 319.4391479492188 132.2773742675781 316.6897277832031 134.5457763671875 313.7659606933594 136.5210571289062 C 310.8140258789062 138.5153656005859 307.6581420898438 140.228271484375 304.3861389160156 141.6122283935547 C 297.5782470703125 144.4917297363281 290.3467407226562 145.9517364501953 282.8925170898438 145.9517364501953 C 276.8519287109375 145.9517364501953 270.9136047363281 144.9823608398438 265.2424621582031 143.070556640625 C 259.9012756347656 141.2699279785156 254.8822631835938 138.6647491455078 250.3179626464844 135.3246154785156 C 247.2779235839844 138.6368560791016 243.9015350341797 141.6581115722656 240.2765960693359 144.309326171875 C 236.4990081787109 147.0721893310547 232.4286041259766 149.4497375488281 228.1783294677734 151.3759613037109 C 223.8493804931641 153.3378295898438 219.30078125 154.8461456298828 214.6588745117188 155.8589172363281 C 209.8907775878906 156.8991851806641 204.9760131835938 157.4266815185547 200.0511016845703 157.4266815185547 Z" stroke="none"/>
    <path d="M 200.0511016845703 156.9266815185547 C 219.9610595703125 156.9266815185547 237.8630523681641 148.3343200683594 250.252197265625 134.6546478271484 C 259.3644104003906 141.4374084472656 270.6598205566406 145.4517364501953 282.8925170898438 145.4517364501953 C 313.1127014160156 145.4517364501953 337.6107482910156 120.9536895751953 337.6107482910156 90.73350524902344 C 337.6107482910156 60.51332092285156 313.1127014160156 36.01441192626953 282.8925170898438 36.01441192626953 C 271.3791809082031 36.01441192626953 260.6959228515625 39.57068634033203 251.8819732666016 45.64418411254883 C 239.4613342285156 30.8850040435791 220.8511962890625 21.5055046081543 200.0511016845703 21.5055046081543 C 184.0304718017578 21.5055046081543 169.3108673095703 27.06818580627441 157.7162780761719 36.36882400512695 C 146.1215972900391 27.06818580627441 131.4020538330078 21.5055046081543 115.3818283081055 21.5055046081543 C 96.87328338623047 21.5055046081543 80.10055541992188 28.93009567260742 67.87787628173828 40.96504974365234 C 60.51260375976562 37.2384147644043 52.18601226806641 35.13959503173828 43.3674201965332 35.13959503173828 C 13.3406925201416 35.13959503173828 -10.99980735778809 59.48009490966797 -10.99980735778809 89.50682067871094 C -10.99980735778809 119.5325927734375 13.3406925201416 143.8740081787109 43.3674201965332 143.8740081787109 C 52.3417854309082 143.8740081787109 60.80796432495117 141.6996459960938 68.2685546875 137.8487701416016 C 80.45683288574219 149.6590423583984 97.06960296630859 156.9266815185547 115.3818283081055 156.9266815185547 C 131.4020538330078 156.9266815185547 146.1215972900391 151.3640441894531 157.7162780761719 142.0633697509766 C 169.3108673095703 151.3640441894531 184.0304718017578 156.9266815185547 200.0511016845703 156.9266815185547 M 200.0511016845703 157.9266815185547 C 192.0987396240234 157.9266815185547 184.3051452636719 156.5800933837891 176.8868713378906 153.9242706298828 C 169.966796875 151.4468536376953 163.5215148925781 147.8878021240234 157.7162780761719 143.3394775390625 C 151.9110107421875 147.8878021240234 145.4657287597656 151.4468536376953 138.5457000732422 153.9242706298828 C 131.1274719238281 156.5800933837891 123.3340148925781 157.9266815185547 115.3818283081055 157.9266815185547 C 106.2971038818359 157.9266815185547 97.47028350830078 156.1818695068359 89.14664459228516 152.7407379150391 C 85.14360046386719 151.0857696533203 81.27451324462891 149.0356903076172 77.64687347412109 146.6474151611328 C 74.25389099121094 144.41357421875 71.04145812988281 141.8638763427734 68.08868408203125 139.0617065429688 C 64.43670654296875 140.8867950439453 60.5834846496582 142.3036651611328 56.62428283691406 143.2765960693359 C 52.31082916259766 144.3365478515625 47.85055541992188 144.8740081787109 43.3674201965332 144.8740081787109 C 35.89323806762695 144.8740081787109 28.6421012878418 143.4099578857422 21.81546592712402 140.5225067138672 C 18.53451156616211 139.1347808837891 15.37010192871094 137.4171905517578 12.41014766693115 135.4174652099609 C 9.478556632995605 133.4369201660156 6.721874713897705 131.1624145507812 4.216692924499512 128.6571807861328 C 1.711465716362 126.1519622802734 -0.562988817691803 123.3952331542969 -2.543488740921021 120.4636383056641 C -4.54317045211792 117.5036849975586 -6.260715961456299 114.3393249511719 -7.648443222045898 111.0583648681641 C -10.53580665588379 104.231819152832 -11.99980735778809 96.98081970214844 -11.99980735778809 89.50682067871094 C -11.99980735778809 82.0325927734375 -10.53580665588379 74.78145599365234 -7.648443222045898 67.95486450195312 C -6.260761737823486 64.67391204833984 -4.54317045211792 61.50950241088867 -2.543488740921021 58.5495491027832 C -0.562988817691803 55.61795806884766 1.711465716362 52.86127853393555 4.216692924499512 50.35609436035156 C 6.721874713897705 47.85086822509766 9.478556632995605 45.57641220092773 12.41014766693115 43.59591293334961 C 15.37010192871094 41.59622955322266 18.53451156616211 39.87863922119141 21.81546592712402 38.49095916748047 C 28.64205741882324 35.60359573364258 35.89319229125977 34.13959503173828 43.3674201965332 34.13959503173828 C 47.77355575561523 34.13959503173828 52.15910339355469 34.65877532958984 56.40223693847656 35.68273162841797 C 60.29428482055664 36.62197113037109 64.08766174316406 37.99052429199219 67.688232421875 39.75364303588867 C 70.65119171142578 36.89635467529297 73.881591796875 34.29514312744141 77.29910278320312 32.0153694152832 C 80.95014953613281 29.5798225402832 84.84878540039062 27.48855018615723 88.88678741455078 25.79959487915039 C 97.28573608398438 22.28668594360352 106.1999664306641 20.5055046081543 115.3818283081055 20.5055046081543 C 123.3340148925781 20.5055046081543 131.1274261474609 21.85214042663574 138.5457000732422 24.50795936584473 C 145.4656829833984 26.98538970947266 151.9110107421875 30.54443740844727 157.7162780761719 35.09272384643555 C 163.5215148925781 30.54443740844727 169.9668426513672 26.98538970947266 176.8868713378906 24.50795936584473 C 184.3051910400391 21.85214042663574 192.0987396240234 20.5055046081543 200.0511016845703 20.5055046081543 C 205.2314605712891 20.5055046081543 210.3957366943359 21.0845947265625 215.4005584716797 22.22673225402832 C 220.2691040039062 23.33773040771484 225.0257873535156 24.9898681640625 229.5385131835938 27.13718605041504 C 233.9693756103516 29.24550437927246 238.1891479492188 31.84227752685547 242.0806427001953 34.85527801513672 C 245.70703125 37.66304016113281 249.0614166259766 40.84220504760742 252.0621490478516 44.31438064575195 C 261.2066040039062 38.2274169921875 271.8468017578125 35.01441192626953 282.8925170898438 35.01441192626953 C 290.4140014648438 35.01441192626953 297.7110595703125 36.48777770996094 304.5809326171875 39.39355087280273 C 307.8826904296875 40.79009628295898 311.067138671875 42.51859664916992 314.0458679199219 44.53104782104492 C 316.9960021972656 46.52418518066406 319.7702026367188 48.81314086914062 322.2913208007812 51.33427810668945 C 324.8124084472656 53.8554573059082 327.1012878417969 56.62968444824219 329.0943603515625 59.57986831665039 C 331.1067810058594 62.55863952636719 332.8352355957031 65.74318695068359 334.2317504882812 69.04496002197266 C 337.1374206542969 75.91490936279297 338.6107482910156 83.21200561523438 338.6107482910156 90.73350524902344 C 338.6107482910156 98.2550048828125 337.1374206542969 105.5520477294922 334.2317504882812 112.4219131469727 C 332.8352355957031 115.7236862182617 331.1067810058594 118.9081420898438 329.0943603515625 121.8868713378906 C 327.1012878417969 124.8370056152344 324.8124084472656 127.6111831665039 322.2912902832031 130.1322784423828 C 319.7702026367188 132.6534118652344 316.9960021972656 134.9422760009766 314.0458679199219 136.9353637695312 C 311.067138671875 138.9477691650391 307.8826904296875 140.6762237548828 304.5809326171875 142.0727386474609 C 297.7110595703125 144.9784088134766 290.4140014648438 146.4517364501953 282.8925170898438 146.4517364501953 C 276.7975158691406 146.4517364501953 270.805419921875 145.4735565185547 265.0827331542969 143.5443267822266 C 259.83349609375 141.7747344970703 254.8926086425781 139.2350463867188 250.3838043212891 135.9902038574219 C 247.4006652832031 139.1984405517578 244.1033782958984 142.1299591064453 240.57177734375 144.7129058837891 C 236.7665100097656 147.4960021972656 232.6661987304688 149.8910064697266 228.3847351074219 151.8313751220703 C 224.0238342285156 153.8077239990234 219.441650390625 155.3271331787109 214.7654724121094 156.347412109375 C 209.9623718261719 157.3953247070312 205.0117797851562 157.9266815185547 200.0511016845703 157.9266815185547 Z" stroke="none" fill="#eee"/>
  </g>
</svg>
