<svg xmlns="http://www.w3.org/2000/svg" xmlns:xlink="http://www.w3.org/1999/xlink" width="200" height="200" viewBox="0 0 200 200">
  <defs>
    <linearGradient id="linear-gradient" x1="1" y1="1" x2="0" gradientUnits="objectBoundingBox">
      <stop offset="0" stop-color="#b96"/>
      <stop offset="1" stop-color="#e2c599"/>
    </linearGradient>
    <linearGradient id="linear-gradient-2" x1="1" y1="1" x2="0" gradientUnits="objectBoundingBox">
      <stop offset="0" stop-color="#dec9a8"/>
      <stop offset="1" stop-color="#a88c62"/>
    </linearGradient>
    <linearGradient id="linear-gradient-3" x1="0.5" x2="0.5" y2="1" gradientUnits="objectBoundingBox">
      <stop offset="0" stop-color="#cbb087"/>
      <stop offset="1" stop-color="#8e734b"/>
    </linearGradient>
    <filter id="Path_170009" x="56.332" y="98.514" width="86.168" height="57.34" filterUnits="userSpaceOnUse">
      <feOffset dy="5" input="SourceAlpha"/>
      <feGaussianBlur stdDeviation="5" result="blur"/>
      <feFlood flood-opacity="0.149"/>
      <feComposite operator="in" in2="blur"/>
      <feComposite in="SourceGraphic"/>
    </filter>
    <linearGradient id="linear-gradient-4" x2="1" y2="1" gradientUnits="objectBoundingBox">
      <stop offset="0" stop-color="#775828"/>
      <stop offset="1" stop-color="#bca179"/>
    </linearGradient>
    <filter id="相性" x="44" y="49.424" width="110" height="82" filterUnits="userSpaceOnUse">
      <feOffset dy="5" input="SourceAlpha"/>
      <feGaussianBlur stdDeviation="5" result="blur-2"/>
      <feFlood flood-opacity="0.149"/>
      <feComposite operator="in" in2="blur-2"/>
      <feComposite in="SourceGraphic"/>
    </filter>
  </defs>
  <g id="Enjoy保証マーク" transform="translate(-997.023 -15476.881)">
    <circle id="Ellipse_533" data-name="Ellipse 533" cx="100" cy="100" r="100" transform="translate(997.023 15476.881)" fill="url(#linear-gradient)"/>
    <path id="Path_170005" data-name="Path 170005" d="M-923.191,4845.455l-.552-2.736-4.6-.582-1.205,2.515-2.791-.352,6.349-12.14,2.432.306,3.16,13.34Zm-4.178-5.353,3.185.4-1-4.97Zm21.505-7.54,2.6-.48,6.608,7.389-1.536-8.326,2.593-.478,2.33,12.624-2.6.48-6.6-7.372,1.532,8.307-2.6.481Zm-44.484,6.09-.246-5.276-1.92-.872-1.944,4.277-2.409-1.093,5.312-11.688,4.343,1.973a5.4,5.4,0,0,1,2.775,2.376,3.5,3.5,0,0,1-.062,3.118,3.937,3.937,0,0,1-1.424,1.761,3.874,3.874,0,0,1-2.148.56l.359,5.926-.052.111Zm-1.278-8.1,1.943.883a2.177,2.177,0,0,0,1.614.175,1.808,1.808,0,0,0,1.076-1.045,1.944,1.944,0,0,0,.121-1.513,2.141,2.141,0,0,0-1.227-1.128l-1.933-.88Zm73.025-4.105-3.437,1.8-.995-1.9,9.261-4.856,1,1.9-3.483,1.828,4.968,9.473-2.343,1.229Zm-94.577-1.6,1.089-2.571-3.472-3.075-2.414,1.394-2.1-1.865,12.09-6.439,1.835,1.626-4.917,12.8Zm-.427-6.777,2.4,2.129,1.98-4.667Zm110.51-4.546,6.162-5.983,1.492,1.538-4.264,4.139,2.132,2.194,3.644-3.537,1.443,1.486-3.644,3.539,2.4,2.467,4.276-4.153,1.48,1.524-6.175,6Zm-127.346-9.419a5.087,5.087,0,0,1-2.91-2.453,5.139,5.139,0,0,1-.824-3.672,4.254,4.254,0,0,1,2.106-2.844l7.324-4.416,1.367,2.265-7.258,4.376a2.444,2.444,0,0,0-1.263,1.465,2.316,2.316,0,0,0,.368,1.729,2.058,2.058,0,0,0,3.178.732l7.319-4.413,1.37,2.273-7.243,4.366a4.7,4.7,0,0,1-2.442.748A3.96,3.96,0,0,1-990.441,4804.108Zm141.661-7.223,4.278-7.446,1.858,1.069-2.96,5.151,2.651,1.525,2.531-4.4,1.8,1.031-2.531,4.405,2.982,1.712,2.97-5.167,1.842,1.058-4.287,7.461Zm-153.884-17.865a8.484,8.484,0,0,1-1.142-2.7,5.735,5.735,0,0,1,.016-3.013,4.849,4.849,0,0,1,1.592-2.385,7.427,7.427,0,0,1,3-1.451l.848-.205a7.863,7.863,0,0,1,3.388-.16,4.806,4.806,0,0,1,2.534,1.307,5.4,5.4,0,0,1,1.4,2.6,5.362,5.362,0,0,1-.213,3.727,4.652,4.652,0,0,1-2.719,2.233l-.61-2.5a2.554,2.554,0,0,0,1.384-1.141,2.5,2.5,0,0,0,.1-1.736,2.348,2.348,0,0,0-1.472-1.756,5.327,5.327,0,0,0-3.1.02l-.8.194a5.076,5.076,0,0,0-2.783,1.467,2.625,2.625,0,0,0-.47,2.429,2.936,2.936,0,0,0,1.12,1.914l2.15-.524-.57-2.338,1.894-.461,1.2,4.909-4.977,1.213A4.6,4.6,0,0,1-1002.664,4779.021ZM-839.559,4777l.91-3.846a6,6,0,0,1,1.44-2.77,5.326,5.326,0,0,1,2.591-1.532,6.717,6.717,0,0,1,3.283.008l.575.136a6.712,6.712,0,0,1,2.928,1.45,5.289,5.289,0,0,1,1.624,2.518,6.047,6.047,0,0,1,.058,3.123l-.915,3.871Zm4.525-5.428a2.869,2.869,0,0,0-1.531,2.077l-.3,1.27,8.34,1.973.295-1.245a2.869,2.869,0,0,0-.441-2.541,4.568,4.568,0,0,0-2.629-1.484l-.661-.157a6.828,6.828,0,0,0-1.556-.2A3.506,3.506,0,0,0-835.034,4771.572Zm-160.346-32.729.658-2.572q2.058.528,2.687-1.933a2.465,2.465,0,0,0-.007-1.522,1.25,1.25,0,0,0-.907-.779,1.354,1.354,0,0,0-1.246.229,6.984,6.984,0,0,0-1.291,1.635,13.35,13.35,0,0,1-1.39,1.893,3.56,3.56,0,0,1-3.625,1.331,3.092,3.092,0,0,1-1.653-1.028,3.813,3.813,0,0,1-.818-1.947,6.333,6.333,0,0,1,.166-2.5,5.787,5.787,0,0,1,1.089-2.252,3.918,3.918,0,0,1,1.777-1.27,3.683,3.683,0,0,1,2.146-.066l-.655,2.564a1.735,1.735,0,0,0-1.466.2,2.28,2.28,0,0,0-.861,1.391,2.45,2.45,0,0,0,.024,1.564,1.292,1.292,0,0,0,.913.786,1.234,1.234,0,0,0,1.173-.349,7.171,7.171,0,0,0,1.228-1.6,8.035,8.035,0,0,1,2.447-2.771,3.352,3.352,0,0,1,2.682-.379,3.085,3.085,0,0,1,2.22,1.87,5.512,5.512,0,0,1,.079,3.524,6.575,6.575,0,0,1-1.194,2.48,4.28,4.28,0,0,1-1.9,1.43,3.622,3.622,0,0,1-1.233.214A4.2,4.2,0,0,1-995.38,4738.843Zm155.5-4.8,6.561-7.406-8.075,2.484-.777-2.529,12.271-3.774.778,2.53-6.574,7.418,8.091-2.488.775,2.52-12.273,3.774Zm-155.076-22.169,1.18-2.15,13.567,1.964-1.354,2.467-2.748-.492-2.232,4.066,1.9,2.046-1.354,2.465Zm6.879,4.2,1.544-2.813-4.989-.9Zm140.97-.918a5.316,5.316,0,0,1-2.179-2.009,5.345,5.345,0,0,1-.866-2.82,5.1,5.1,0,0,1,.822-2.809,7.533,7.533,0,0,1,2.4-2.333l.537-.337a7.692,7.692,0,0,1,3.188-1.2,5.08,5.08,0,0,1,2.9.458,5.291,5.291,0,0,1,2.172,2,5.292,5.292,0,0,1,.864,2.826,5.076,5.076,0,0,1-.845,2.813,7.669,7.669,0,0,1-2.455,2.349l-.485.305a7.742,7.742,0,0,1-3.172,1.2,5.817,5.817,0,0,1-.712.045A4.9,4.9,0,0,1-847.107,4715.148Zm2.2-8.073-.53.333a5.482,5.482,0,0,0-2.2,2.236,2.352,2.352,0,0,0,.19,2.339,2.331,2.331,0,0,0,1.973,1.176,5.437,5.437,0,0,0,2.964-1.009l.53-.332a5.4,5.4,0,0,0,2.212-2.246,2.352,2.352,0,0,0-.209-2.307,2.353,2.353,0,0,0-1.97-1.186c-.047,0-.094,0-.142,0A5.555,5.555,0,0,0-844.91,4707.075Zm-135.474-12.2-2.657,2.829-1.561-1.467,7.16-7.623,1.561,1.467-2.692,2.867,7.8,7.323-1.811,1.927Zm119.887,4.03,9.156-9,1.855,1.886-9.155,9Zm-107.334-18.06,2.171-1.512,7.341,10.533-2.17,1.514Zm94.645,7.954,5.908-8.917-3.236-2.144,1.184-1.786,8.719,5.775-1.184,1.785-3.279-2.171-5.907,8.918Zm-74.461-5.384a4.259,4.259,0,0,1-2.288-.644,3.8,3.8,0,0,1-1.443-1.764l2.444-1.036q.829,1.957,3.167.964a2.469,2.469,0,0,0,1.206-.927,1.249,1.249,0,0,0,.069-1.193,1.36,1.36,0,0,0-.938-.854,6.907,6.907,0,0,0-2.083-.035,13.4,13.4,0,0,1-2.348.042,3.555,3.555,0,0,1-3.256-2.076,3.1,3.1,0,0,1-.185-1.937,3.824,3.824,0,0,1,1.053-1.832,6.3,6.3,0,0,1,2.089-1.384,5.757,5.757,0,0,1,2.451-.5,3.91,3.91,0,0,1,2.088.641,3.689,3.689,0,0,1,1.354,1.669l-2.437,1.032a1.729,1.729,0,0,0-1.047-1.046,2.276,2.276,0,0,0-1.628.16,2.433,2.433,0,0,0-1.227.965,1.293,1.293,0,0,0-.074,1.205,1.241,1.241,0,0,0,.99.719,7.148,7.148,0,0,0,2.02.008,8,8,0,0,1,3.685.264,3.353,3.353,0,0,1,1.928,1.9,3.086,3.086,0,0,1-.14,2.9,5.52,5.52,0,0,1-2.755,2.2,6.58,6.58,0,0,1-2.591.557Zm58.363-2.22a4.829,4.829,0,0,1-3.125-2.844,6.814,6.814,0,0,1,.16-4.775l.257-.74a7.687,7.687,0,0,1,1.686-2.868,4.9,4.9,0,0,1,2.473-1.434,5.214,5.214,0,0,1,2.909.212,5.229,5.229,0,0,1,2.99,2.3,4.885,4.885,0,0,1,.387,3.673l-2.5-.869a2.685,2.685,0,0,0-.062-1.93,2.563,2.563,0,0,0-1.529-1.123,2.248,2.248,0,0,0-2.181.248,5.293,5.293,0,0,0-1.6,2.555l-.318.917a5.684,5.684,0,0,0-.4,3.081,2.209,2.209,0,0,0,1.563,1.561,2.607,2.607,0,0,0,1.913.07,2.518,2.518,0,0,0,1.222-1.409l2.5.867a4.54,4.54,0,0,1-2.515,2.582,4.609,4.609,0,0,1-1.713.319A6.416,6.416,0,0,1-889.285,4681.192Zm-44.156-15.573,8.248-1.36.349,2.115-5.638.929.539,3.272,5.012-.826.347,2.1-5.013.826.854,5.178-2.61.43Zm27.874,11.537-.673-2.708-4.623-.374-1.094,2.565-2.8-.227,5.8-12.411,2.444.2,3.752,13.186Zm-4.41-5.162,3.2.262-1.218-4.922Z" transform="translate(2011.89 10821.472)" fill="#f7e4c7"/>
    <circle id="Ellipse_535" data-name="Ellipse 535" cx="73.75" cy="73.75" r="73.75" transform="translate(1023.273 15502.381)" fill="url(#linear-gradient-2)"/>
    <circle id="Ellipse_534" data-name="Ellipse 534" cx="71.75" cy="71.75" r="71.75" transform="translate(1025.273 15504.381)" fill="url(#linear-gradient-3)"/>
    <path id="Path_170006" data-name="Path 170006" d="M126.206,85.934a25.916,25.916,0,0,0,1.029-3.107l.057-.225c1.154.474,3.33.26,5.521-1.241a7.272,7.272,0,0,0,3.485-5.526c-1.157-.485-3.475.086-5.638,1.739a14.362,14.362,0,0,0-2.649,2.58c-.052.071-.1.14-.146.21q.091-.362.184-.713c.131-.506.256-1,.376-1.46s.153-.92.226-1.331c.163-1.076.292-1.917.362-2.375,0-.021.027-.158.064-.395,1.2.3,3.389-.216,5.361-2,1.991-1.936,2.861-4.567,2.668-5.96-1.2-.316-3.45.574-5.435,2.512a10.5,10.5,0,0,0-2.16,2.938c-.035.071-.068.141-.1.211,0-.018,0-.035.007-.053.08-1.671.192-3.9.3-6.127,0-.076-.008-.154-.012-.23,1.244.131,3.258-.686,4.907-2.738a10.024,10.024,0,0,0,1.806-3.465,5.077,5.077,0,0,0,.012-2.811c-1.271-.139-3.265,1.049-4.918,3.244a10.757,10.757,0,0,0-1.923,3.465c-.067-1.321-.129-2.56-.182-3.59-.161-1.072-.286-1.977-.355-2.367h0s-.022-.146-.061-.4c1.245-.045,3.155-1.146,4.573-3.424a8.065,8.065,0,0,0,1.207-3.67,5.777,5.777,0,0,0-.328-2.806c-1.249.036-3.141,1.52-4.469,3.932a13.779,13.779,0,0,0-1.332,3.677c0-.023-.007-.045-.011-.068a20.336,20.336,0,0,0-.614-2.79c-.259-1.012-.538-2.093-.815-3.173-.016-.075-.036-.15-.053-.225a6.266,6.266,0,0,0,3.965-4.02c1.031-2.6.883-5.423-.036-6.543a3.825,3.825,0,0,0-2.007,1.372,11.863,11.863,0,0,0-1.829,3.149A10.263,10.263,0,0,0,126.423,46c-.091-.241-.178-.479-.259-.716-.359-.982-.7-1.9-.984-2.685a14.772,14.772,0,0,0-.805-1.852l-.332-.692h0a.042.042,0,0,1-.006-.012c1.182-.4,2.7-1.987,3.393-4.567a9.377,9.377,0,0,0,.325-2.047,9.373,9.373,0,0,0-.185-1.826,5.731,5.731,0,0,0-1.124-2.587c-1.188.389-2.577,2.345-3.157,5.026a11.342,11.342,0,0,0-.249,1.92,12.31,12.31,0,0,0-.029,1.742c.005.087.015.171.024.256L123,37.895l-.587-1.218c-.219-.426-.5-.847-.767-1.3-.544-.893-1.121-1.847-1.7-2.8l-.116-.2a6.319,6.319,0,0,0,2.684-4.985,9.9,9.9,0,0,0-.408-3.859,7.925,7.925,0,0,0-.632-1.475,4.083,4.083,0,0,0-.838-.928,3.822,3.822,0,0,0-1.539,1.881,11.918,11.918,0,0,0-.879,3.545,10.855,10.855,0,0,0,.239,3.674c.021.08.045.158.068.235-.148-.2-.3-.391-.438-.581-.627-.837-1.211-1.619-1.713-2.289a13.151,13.151,0,0,0-1.283-1.559c-.26-.287-.43-.474-.49-.539l-.036-.038c1.022-.712,2.025-2.664,1.965-5.329a10.43,10.43,0,0,0-.259-2.059,8.533,8.533,0,0,0-.687-1.7,5.767,5.767,0,0,0-1.808-2.162c-1.034.708-1.817,2.972-1.615,5.7a11.523,11.523,0,0,0,.3,1.912,9.839,9.839,0,0,0,.456,1.686c.031.085.065.163.1.244l-.053-.059a52.08,52.08,0,0,0-4.424-4.243c-.057-.051-.114-.1-.171-.155a4.259,4.259,0,0,0,1.055-1.908,7.765,7.765,0,0,0,.293-1.7,8.778,8.778,0,0,0-.162-1.942,9.793,9.793,0,0,0-1.478-3.583,7.8,7.8,0,0,0-1.022-1.237,3.518,3.518,0,0,0-1.059-.667c-.947.886-1.313,3.106-.807,5.9a10.793,10.793,0,0,0,1.265,3.453c.045.074.09.143.136.212-.2-.148-.4-.3-.589-.441-.836-.626-1.618-1.21-2.288-1.712-.336-.25-.643-.48-.915-.683l-.751-.461-.656-.4-.011-.007c.782-.97,1.195-3.125.385-5.661a7.374,7.374,0,0,0-4.31-4.91c-.793.972-.9,3.363.06,5.923a14.762,14.762,0,0,0,.819,1.761,9.872,9.872,0,0,0,.912,1.489c.053.071.106.135.159.2l-.063-.038A48.387,48.387,0,0,0,93.9,10.061l-.207-.1a4.271,4.271,0,0,0,.475-2.127,7.521,7.521,0,0,0-.9-3.544C91.978,1.832,89.727.141,88.3.025c-.649,1.09-.392,3.385.891,5.9a10.356,10.356,0,0,0,2.388,3.11l-.694-.256L88.206,7.8a18.138,18.138,0,0,0-1.912-.65l-.743-.191-.026.087c-.528-1.131-2.369-2.562-4.96-3.1-2.843-.429-5.173.237-5.959,1.211.6,1.089,2.549,2.485,5.17,2.873,2.4.5,4.55.212,5.615-.518l-.03.1.734.189a17.3,17.3,0,0,1,1.892.642c.777.285,1.683.615,2.655.972l.663.244a8.755,8.755,0,0,0-3.7.871,6.326,6.326,0,0,0-3.756,4.329c.979.513,3.02.573,5.406-.595a12.17,12.17,0,0,0,2.919-1.931,4.533,4.533,0,0,0,1.24-1.75l.205.1A48.076,48.076,0,0,1,99,13.479l.046.029c-.076-.015-.151-.03-.229-.042a7.869,7.869,0,0,0-1.66-.076,7.987,7.987,0,0,0-1.875.417c-2.556.864-4.059,2.586-4.363,3.791a3.608,3.608,0,0,0,2.128.6,11.623,11.623,0,0,0,1.564-.1,9.642,9.642,0,0,0,1.752-.333c2.283-.653,4.062-1.947,4.615-3.059,0,0-.03,0-.03.006a1.286,1.286,0,0,1,.208.1,1.7,1.7,0,0,0,.184.1h.009c.09.054.2.117.321.192l.744.456c.269.2.573.429.906.676l2.264,1.693.569.426c-.075-.022-.15-.046-.227-.067a8.8,8.8,0,0,0-3.562-.158,6.381,6.381,0,0,0-4.839,3.107,2.969,2.969,0,0,0,.822.51,4.771,4.771,0,0,0,1.181.412,9.152,9.152,0,0,0,3.357.033,12.142,12.142,0,0,0,1.841-.445,9.161,9.161,0,0,0,1.515-.6,4.535,4.535,0,0,0,1.681-1.328l.169.152a51.628,51.628,0,0,1,4.376,4.2.433.433,0,0,1,.034.038c-.067-.035-.133-.069-.2-.1a7.941,7.941,0,0,0-1.57-.543,9.343,9.343,0,0,0-1.927-.12c-2.692.1-4.619,1.331-5.25,2.4a3.611,3.611,0,0,0,1.873,1.181,9.117,9.117,0,0,0,1.538.339,9.485,9.485,0,0,0,1.772.173c2.375.021,4.478-.712,5.32-1.625l.008.009.252.276.01.011.249.274a13.324,13.324,0,0,1,1.268,1.542l1.695,2.264.433.573c-.068-.044-.133-.088-.2-.131a8.731,8.731,0,0,0-3.37-1.154,7.334,7.334,0,0,0-3.454.331,4.559,4.559,0,0,0-2.069,1.3,2.513,2.513,0,0,0,.653.715,4.89,4.89,0,0,0,1.017.73,9.129,9.129,0,0,0,3.208.975c2.459.283,4.535-.071,5.511-.871.038.065.078.131.114.2.573.942,1.145,1.885,1.682,2.769.261.445.544.862.758,1.283s.4.83.58,1.2l.022.045c-.054-.052-.108-.1-.165-.155a6.66,6.66,0,0,0-1.364-.957,9.76,9.76,0,0,0-1.813-.657c-2.609-.657-4.8-.022-5.706.832a3.586,3.586,0,0,0,1.456,1.66,8.287,8.287,0,0,0,1.383.755,11.2,11.2,0,0,0,1.656.66c2.266.687,4.488.576,5.555-.064,0,0,0,.007.006.007s.019.044.056.117c.073.151.113.238.113.238.046.1.1.206.161.335a14.878,14.878,0,0,1,.8,1.83c.283.777.615,1.683.969,2.655.072.212.151.427.231.642a8.856,8.856,0,0,0-3.031-2.217,7.363,7.363,0,0,0-3.421-.649,4.6,4.6,0,0,0-2.35.664,6.909,6.909,0,0,0,3.994,3.691c2.262.966,4.4,1.2,5.55.716.018.074.037.147.052.222.276,1.069.551,2.135.809,3.137a20.235,20.235,0,0,1,.605,2.758l.008.057a7.231,7.231,0,0,0-2.729-2.647c-2.3-1.372-4.575-1.383-5.69-.822a3.554,3.554,0,0,0,.91,2.009,12.153,12.153,0,0,0,2.535,2.212c1.961,1.305,4.116,1.784,5.321,1.472,0,0,0-.037,0-.037h0s.165,1.139.408,2.776c.052,1.012.113,2.256.178,3.555a8.406,8.406,0,0,0-2.242-3c-2.088-1.685-4.428-2-5.582-1.611a4.167,4.167,0,0,0,.679,2.114,8.809,8.809,0,0,0,2.109,2.567c1.829,1.568,3.919,2.392,5.151,2.255,0,.075.008.151.011.227-.109,2.2-.219,4.406-.3,6.06l-.008.065c-.02-.079-.039-.158-.065-.238a9,9,0,0,0-1.855-3.082c-1.788-1.962-3.955-2.614-5.189-2.39-.316,1.086.321,3.07,2.115,5.031,1.542,1.8,3.416,2.908,4.668,2.945,0,0,0,.008,0,.012h0s-.017.155-.049.361c-.007.041-.011.106-.011.106h0c-.069.391-.2,1.241-.356,2.3-.074.408-.109.836-.223,1.3s-.242.932-.37,1.433l-.177.68c-.008-.076-.014-.154-.024-.23a7.178,7.178,0,0,0-1.306-3.292c-1.573-2.21-3.657-3.164-4.9-3.114-.418,1.036.086,3.115,1.383,5.265,1.286,2.009,3.049,3.385,4.272,3.6l-.057.219A25.261,25.261,0,0,1,125.56,85.7c-.356.972-.688,1.878-.972,2.655l-.02.057a8.747,8.747,0,0,0-.869-3.709,6.321,6.321,0,0,0-4.326-3.756c-.517.977-.574,3.018.592,5.4a12.2,12.2,0,0,0,1.93,2.919,4.536,4.536,0,0,0,1.75,1.241s0,.007-.006.011h0s-.057.12-.162.336l-.007.015-1.026,2.134a23.707,23.707,0,0,1-1.7,3.1c.015-.077.031-.154.044-.232a6.789,6.789,0,0,0-.341-3.539c-.866-2.556-2.587-4.058-3.791-4.362a3.6,3.6,0,0,0-.6,2.129,11.49,11.49,0,0,0,.1,1.565,9.559,9.559,0,0,0,.332,1.749c.653,2.284,1.947,4.1,3.059,4.652-.038.065-.077.13-.116.195-.3.465-.551.957-.874,1.394s-.646.864-.955,1.276c-.62.827-1.2,1.6-1.694,2.265l-.033.045c.022-.075.046-.15.067-.227a8.771,8.771,0,0,0,.159-3.562A6.372,6.372,0,0,0,113,94.622a4.744,4.744,0,0,0-.924,2,9.163,9.163,0,0,0-.034,3.357,12.01,12.01,0,0,0,.447,1.843,8.889,8.889,0,0,0,.593,1.513,4.513,4.513,0,0,0,1.328,1.682l-.008.01-.189.209-.072.078-1.592,1.753a25.3,25.3,0,0,1-2.5,2.508c.037-.071.074-.14.109-.214a7.735,7.735,0,0,0,.542-1.571,9.346,9.346,0,0,0,.118-1.927c-.1-2.692-1.33-4.616-2.4-5.247a3.61,3.61,0,0,0-1.181,1.87,8.874,8.874,0,0,0-.338,1.539,9.509,9.509,0,0,0-.174,1.772c-.02,2.372.713,4.475,1.626,5.317l-.167.154c-.411.369-.81.751-1.225,1.1-.435.325-.864.645-1.276.955l-2.264,1.693-.044.033c.042-.065.086-.129.126-.2a8.726,8.726,0,0,0,1.154-3.37,7.341,7.341,0,0,0-.328-3.452,4.59,4.59,0,0,0-1.3-2.069,2.511,2.511,0,0,0-.715.652,4.852,4.852,0,0,0-.729,1.017,9.128,9.128,0,0,0-.977,3.208c-.28,2.456.067,4.528.865,5.506l-.343.208h0l-2.027,1.23a26.348,26.348,0,0,1-3.1,1.711c.054-.057.11-.113.163-.173a6.662,6.662,0,0,0,.957-1.364,9.789,9.789,0,0,0,.657-1.814c.656-2.607.019-4.8-.834-5.7a3.6,3.6,0,0,0-1.66,1.456,8.39,8.39,0,0,0-.755,1.383,11.576,11.576,0,0,0-.659,1.657c-.687,2.266-.577,4.49.061,5.555l-.2.1c-.5.238-.995.479-1.483.714-.5.212-1.009.378-1.492.561l-2.655.972-.035.014a8.829,8.829,0,0,0,2.225-3.039,7.338,7.338,0,0,0,.652-3.418,4.6,4.6,0,0,0-.663-2.349,6.894,6.894,0,0,0-3.692,3.991c-.966,2.263-1.2,4.4-.72,5.55l-.011,0v-.005l-2.671.686c-.8.192-1.73.48-2.744.672l-.705.108a7.252,7.252,0,0,0,2.646-2.73c1.371-2.3,1.38-4.575.819-5.69a3.566,3.566,0,0,0-2.007.91,12.235,12.235,0,0,0-2.212,2.537c-1.305,1.961-1.83,4.115-1.52,5.32l-.223.034-1.628.248a9.691,9.691,0,0,1-1.584.166c-1.033.053-1.995.1-2.822.143l-.054,0a8.465,8.465,0,0,0,3.016-2.243c1.685-2.082,2.01-4.425,1.618-5.578a4.188,4.188,0,0,0-2.111.675A8.836,8.836,0,0,0,71.1,120.95c-1.569,1.83-2.43,3.922-2.293,5.152-.257.011-.437.014-.437.014v.031s-.042,0-.087-.005c.14-1.23-.668-3.326-2.241-5.159a8.807,8.807,0,0,0-2.557-2.109,4.173,4.173,0,0,0-2.108-.678c-.393,1.154-.064,3.5,1.622,5.58a8.45,8.45,0,0,0,3.035,2.251l-.073,0-2.825-.143a9.7,9.7,0,0,1-1.584-.166l-1.629-.248-.224-.034c.314-1.2-.211-3.361-1.519-5.326a12.222,12.222,0,0,0-2.213-2.538,3.586,3.586,0,0,0-2.01-.91c-.561,1.114-.551,3.389.822,5.69a7.24,7.24,0,0,0,2.663,2.741l-.723-.11c-1.015-.191-1.942-.48-2.746-.671l-2.673-.687v0l-.012,0c.487-1.149.252-3.289-.717-5.556a6.906,6.906,0,0,0-3.695-3.993,4.573,4.573,0,0,0-.663,2.35,7.362,7.362,0,0,0,.65,3.419,8.852,8.852,0,0,0,2.247,3.056l-.057-.022-2.656-.973c-.483-.183-.994-.348-1.493-.561l-1.482-.715-.207-.1c.642-1.062.754-3.289.064-5.559a11.285,11.285,0,0,0-.658-1.659,8.286,8.286,0,0,0-.755-1.383,3.608,3.608,0,0,0-1.663-1.459c-.852.909-1.489,3.1-.83,5.706a9.556,9.556,0,0,0,.656,1.815,6.675,6.675,0,0,0,.957,1.364c.059.065.118.127.178.188a26.34,26.34,0,0,1-3.119-1.719l-2.026-1.232-.342-.207c.8-.977,1.15-3.053.867-5.513a9.107,9.107,0,0,0-.977-3.209,4.849,4.849,0,0,0-.728-1.017,2.557,2.557,0,0,0-.716-.652,4.573,4.573,0,0,0-1.3,2.068,7.329,7.329,0,0,0-.328,3.453,8.768,8.768,0,0,0,1.154,3.369c.045.075.092.146.139.217l-.06-.045L31.46,113.36l-1.278-.955c-.415-.35-.814-.733-1.225-1.1l-.168-.154c.915-.84,1.65-2.946,1.629-5.325a9.686,9.686,0,0,0-.174-1.77,8.861,8.861,0,0,0-.338-1.541,3.616,3.616,0,0,0-1.181-1.873c-1.074.633-2.3,2.557-2.4,5.249a9.668,9.668,0,0,0,.12,1.928,7.862,7.862,0,0,0,.543,1.572c.038.079.077.155.117.232a25.417,25.417,0,0,1-2.515-2.523c-.723-.793-1.286-1.414-1.595-1.754l-.056-.061-.206-.226-.008-.009a4.556,4.556,0,0,0,1.335-1.686,9.064,9.064,0,0,0,.593-1.513,11.985,11.985,0,0,0,.445-1.844,9.135,9.135,0,0,0-.034-3.359,4.751,4.751,0,0,0-.925-2,6.368,6.368,0,0,0-3.1,4.841,8.8,8.8,0,0,0,.156,3.563c.023.085.048.165.072.245l-.044-.058-1.694-2.264c-.309-.415-.63-.844-.956-1.278s-.58-.929-.875-1.395c-.038-.066-.078-.131-.116-.2,1.113-.55,2.41-2.367,3.063-4.655a9.611,9.611,0,0,0,.335-1.751,11.533,11.533,0,0,0,.1-1.565,3.611,3.611,0,0,0-.6-2.131c-1.207.3-2.929,1.807-3.791,4.363a8.159,8.159,0,0,0-.418,1.878,7.841,7.841,0,0,0,.076,1.662c.014.087.031.171.047.256a23.971,23.971,0,0,1-1.711-3.123c-.465-.966-.829-1.721-1.029-2.135a.794.794,0,0,0-.052-.144,2.909,2.909,0,0,1-.117-.279s0,.029-.006.025a4.461,4.461,0,0,0,1.757-1.225,12.177,12.177,0,0,0,1.93-2.912c1.166-2.386,1.108-4.426.592-5.4a6.325,6.325,0,0,0-4.326,3.76,8.719,8.719,0,0,0-.87,3.733c-.008-.026-.018-.051-.027-.076-.284-.777-.615-1.683-.972-2.655a24.792,24.792,0,0,1-1.015-3.076l-.057-.221c1.222-.211,2.988-1.588,4.276-3.6,1.3-2.15,1.8-4.232,1.385-5.268-1.241-.05-3.325.9-4.9,3.115a7.184,7.184,0,0,0-1.305,3.293c-.012.085-.019.168-.027.249-.061-.238-.122-.473-.181-.706-.129-.5-.253-.987-.372-1.445s-.151-.871-.222-1.279c-.162-1.06-.289-1.915-.358-2.306h0s0-.061-.009-.1c-.031-.208-.049-.341-.049-.341l0-.01a.139.139,0,0,0,0-.019c1.25-.033,3.13-1.139,4.675-2.948,1.795-1.962,2.43-3.949,2.115-5.035-1.232-.226-3.4.426-5.188,2.39A8.976,8.976,0,0,0,8.47,71.5c-.027.087-.048.171-.07.256,0-.029-.007-.054-.011-.083-.082-1.653-.191-3.858-.3-6.064,0-.076.008-.151.011-.227,1.23.141,3.326-.683,5.159-2.256a8.8,8.8,0,0,0,2.109-2.564,4.163,4.163,0,0,0,.678-2.114c-1.154-.392-3.493-.067-5.582,1.62A8.453,8.453,0,0,0,8.213,63.1c.067-1.307.128-2.582.181-3.6.246-1.637.41-2.773.41-2.773h0s0,.037,0,.032c1.2.316,3.363-.189,5.326-1.5a12.179,12.179,0,0,0,2.537-2.2,3.567,3.567,0,0,0,.91-2c-1.114-.561-3.39-.547-5.693.826a7.217,7.217,0,0,0-2.737,2.665c0-.025.007-.048.011-.072a19.966,19.966,0,0,1,.6-2.758c.257-1,.532-2.071.809-3.141.015-.075.035-.148.052-.222,1.149.487,3.29.255,5.558-.714a6.918,6.918,0,0,0,3.994-3.694,4.593,4.593,0,0,0-2.349-.664,7.352,7.352,0,0,0-3.42.651,8.828,8.828,0,0,0-3.047,2.237c.084-.223.165-.444.24-.664.356-.972.687-1.879.972-2.656a14.881,14.881,0,0,1,.8-1.831c.061-.13.114-.24.161-.333l.174-.362c1.063.641,3.29.751,5.562.061a10.918,10.918,0,0,0,1.655-.66,8.42,8.42,0,0,0,1.384-.755A3.613,3.613,0,0,0,23.764,37.3c-.909-.852-3.1-1.487-5.708-.829a9.568,9.568,0,0,0-1.815.657,6.837,6.837,0,0,0-1.362.957c-.064.057-.123.114-.183.173.011-.022.021-.042.031-.064.181-.373.375-.777.58-1.2s.5-.837.761-1.283l1.683-2.771c.037-.067.076-.132.116-.2.974.8,3.053,1.158,5.517.875a9.136,9.136,0,0,0,3.209-.977,4.852,4.852,0,0,0,1.017-.73,2.517,2.517,0,0,0,.655-.715A4.586,4.586,0,0,0,26.2,29.9a7.334,7.334,0,0,0-3.454-.331,8.772,8.772,0,0,0-3.37,1.154c-.076.046-.148.094-.222.143l.443-.588,1.694-2.264a13.274,13.274,0,0,1,1.271-1.543l.249-.275.1-.106.166-.182.008-.01c.838.916,2.948,1.65,5.326,1.63a9.718,9.718,0,0,0,1.772-.174,8.919,8.919,0,0,0,1.538-.34,3.6,3.6,0,0,0,1.873-1.182c-.631-1.072-2.559-2.3-5.25-2.4a9.449,9.449,0,0,0-1.927.12,7.822,7.822,0,0,0-1.571.543c-.078.037-.151.076-.224.114l.049-.053a51.708,51.708,0,0,1,4.378-4.2c.057-.05.113-.1.17-.154A4.536,4.536,0,0,0,30.9,21.132a9.319,9.319,0,0,0,1.513.595,11.985,11.985,0,0,0,1.844.443,9.1,9.1,0,0,0,3.357-.032,4.863,4.863,0,0,0,1.182-.412,3,3,0,0,0,.822-.512,6.38,6.38,0,0,0-4.841-3.105,8.787,8.787,0,0,0-3.564.156c-.085.022-.163.048-.245.072q.3-.22.584-.437l2.266-1.695.905-.676.742-.455.317-.192.343-.208c.55,1.113,2.369,2.412,4.66,3.063a9.623,9.623,0,0,0,1.75.335,11.925,11.925,0,0,0,1.565.1,3.6,3.6,0,0,0,2.131-.6c-.3-1.206-1.808-2.927-4.366-3.79a8,8,0,0,0-1.875-.416,7.752,7.752,0,0,0-1.663.078c-.086.014-.168.03-.249.046l.064-.039a48.124,48.124,0,0,1,5.384-2.8l.205-.1a4.531,4.531,0,0,0,1.243,1.758,12.2,12.2,0,0,0,2.92,1.93c2.385,1.167,4.427,1.108,5.407.595a6.332,6.332,0,0,0-3.757-4.329,8.759,8.759,0,0,0-3.721-.87l.683-.25,2.656-.973a17.464,17.464,0,0,1,1.891-.642l.735-.189L51.763,7.5c1.068.746,3.217,1.005,5.613.51C60,7.622,61.939,6.249,62.549,5.137c-.774-.955-3.122-1.641-5.962-1.212-2.594.535-4.428,1.991-4.96,3.107L51.6,6.924s-.271.071-.743.191a17.875,17.875,0,0,0-1.913.65c-.787.288-1.7.623-2.686.984L45.576,9A10.4,10.4,0,0,0,47.951,5.9c1.283-2.518,1.541-4.815.891-5.9-1.423.116-3.673,1.807-4.97,4.265a7.54,7.54,0,0,0-.9,3.544,4.27,4.27,0,0,0,.472,2.121l-.208.1A48.818,48.818,0,0,0,37.8,12.857l-.045.027c.049-.061.1-.12.146-.184a9.967,9.967,0,0,0,.913-1.489,15.255,15.255,0,0,0,.821-1.762c.965-2.561.852-4.952.06-5.923a7.383,7.383,0,0,0-4.313,4.912c-.81,2.532-.4,4.683.38,5.657l-.011.007-.656.4c-.208.126-.461.283-.751.461l-.915.685-2.29,1.713-.574.43c.043-.064.085-.128.125-.2a10.776,10.776,0,0,0,1.267-3.454c.509-2.79.141-5.011-.8-5.9a3.484,3.484,0,0,0-1.059.666,7.686,7.686,0,0,0-1.022,1.238,9.826,9.826,0,0,0-1.481,3.583,8.694,8.694,0,0,0-.161,1.943,7.669,7.669,0,0,0,.29,1.7,4.282,4.282,0,0,0,1.052,1.9c-.057.052-.113.1-.171.154a51.823,51.823,0,0,0-4.427,4.246l-.037.039c.03-.072.06-.144.088-.219a9.934,9.934,0,0,0,.455-1.688,11.679,11.679,0,0,0,.3-1.912c.2-2.733-.584-5-1.617-5.7a5.78,5.78,0,0,0-1.808,2.162,8.718,8.718,0,0,0-.687,1.7,10.262,10.262,0,0,0-.258,2.06c-.061,2.661.936,4.611,1.957,5.328l-.272.3-.253.278a13.619,13.619,0,0,0-1.284,1.56c-.5.671-1.087,1.452-1.713,2.292-.141.186-.284.377-.429.569.022-.072.044-.143.063-.218a10.749,10.749,0,0,0,.242-3.676A11.877,11.877,0,0,0,18.038,23,3.834,3.834,0,0,0,16.5,21.119a4.058,4.058,0,0,0-.838.928,7.762,7.762,0,0,0-.632,1.478,9.826,9.826,0,0,0-.408,3.859A6.321,6.321,0,0,0,17.3,32.368c-.038.067-.078.132-.116.2l-1.7,2.8c-.265.45-.55.871-.769,1.3s-.406.841-.586,1.218c-.008.016-.015.031-.022.046.008-.077.016-.154.022-.233a12.027,12.027,0,0,0-.03-1.743,11.385,11.385,0,0,0-.248-1.922c-.578-2.682-1.968-4.638-3.157-5.027a5.75,5.75,0,0,0-1.124,2.587,9.338,9.338,0,0,0-.185,1.826A9.375,9.375,0,0,0,9.7,35.467c.7,2.575,2.2,4.167,3.385,4.567,0,0,0,.008-.006.012l-.332.691a14.994,14.994,0,0,0-.808,1.854c-.287.787-.623,1.7-.984,2.686-.078.231-.163.464-.252.7a10.264,10.264,0,0,0-.817-3.859,11.926,11.926,0,0,0-1.829-3.15A3.821,3.821,0,0,0,6.053,37.6c-.919,1.12-1.066,3.946-.036,6.546a6.273,6.273,0,0,0,3.956,4.019c-.018.075-.038.15-.053.225-.278,1.08-.557,2.162-.817,3.175a20.214,20.214,0,0,0-.612,2.791c0,.016-.005.032-.007.049a13.824,13.824,0,0,0-1.327-3.658c-1.329-2.414-3.218-3.9-4.469-3.933a5.775,5.775,0,0,0-.329,2.806,8.057,8.057,0,0,0,1.209,3.672c1.414,2.275,3.32,3.38,4.565,3.428-.04.257-.061.406-.061.406h0c-.07.391-.195,1.293-.357,2.367-.052,1.025-.114,2.256-.179,3.572A10.822,10.822,0,0,0,5.62,59.61C3.967,57.415,1.971,56.227.7,56.366a5.065,5.065,0,0,0,.014,2.813,10.048,10.048,0,0,0,1.8,3.466c1.647,2.048,3.655,2.866,4.9,2.74,0,.077-.008.154-.012.231.112,2.229.222,4.458.3,6.132l0,.034c-.031-.064-.061-.128-.094-.193A10.475,10.475,0,0,0,5.46,68.65C3.475,66.71,1.229,65.82.025,66.135-.166,67.53.7,70.162,2.694,72.1c1.968,1.785,4.152,2.3,5.354,2.007.038.241.061.38.065.4.069.458.2,1.3.362,2.375.072.412.11.867.226,1.332s.245.954.376,1.461c.059.229.118.46.179.7-.044-.064-.087-.128-.133-.192a14.447,14.447,0,0,0-2.649-2.583c-2.162-1.655-4.48-2.225-5.64-1.741A7.279,7.279,0,0,0,4.32,81.38c2.188,1.5,4.36,1.716,5.516,1.245l.057.223a25.308,25.308,0,0,0,1.027,3.11c.359.984.7,1.9.983,2.686.005.015.011.03.015.045a10.442,10.442,0,0,0-3.089-2.365c-2.516-1.282-4.816-1.538-5.9-.889.12,1.422,1.809,3.673,4.268,4.969a7.536,7.536,0,0,0,3.545.9,4.287,4.287,0,0,0,2.122-.471s0,.007.006.011l1.211,2.514a24.228,24.228,0,0,0,1.712,3.13c-.059-.047-.117-.1-.178-.141a9.743,9.743,0,0,0-1.489-.913,14.53,14.53,0,0,0-1.761-.823c-2.561-.966-4.952-.855-5.924-.061a5.77,5.77,0,0,0,1.559,2.35,7.4,7.4,0,0,0,1.449,1.134,10.222,10.222,0,0,0,1.9.829c2.536.812,4.685.4,5.658-.38l.118.2c.3.471.56.968.886,1.409s.652.874.966,1.293l1.713,2.292.031.041c-.064-.041-.126-.083-.193-.124a10.727,10.727,0,0,0-3.454-1.266c-2.788-.509-5.012-.139-5.9.807a4.652,4.652,0,0,0,1.9,2.081,9.825,9.825,0,0,0,3.583,1.479,8.83,8.83,0,0,0,1.942.161,7.8,7.8,0,0,0,1.7-.293,4.3,4.3,0,0,0,1.9-1.05.031.031,0,0,0,.01.009l1.877,2.065a25.623,25.623,0,0,0,2.517,2.529c-.071-.029-.139-.059-.212-.086a9.9,9.9,0,0,0-1.688-.456,11.611,11.611,0,0,0-1.911-.3c-2.734-.2-5,.584-5.708,1.615a5.757,5.757,0,0,0,2.163,1.807,8.8,8.8,0,0,0,1.7.69,10.343,10.343,0,0,0,2.06.257c2.663.064,4.613-.936,5.329-1.957.057.052.113.1.17.156.416.373.819.759,1.238,1.113l1.293.966c.839.627,1.621,1.211,2.291,1.713l.042.033c-.074-.022-.146-.045-.222-.064a10.78,10.78,0,0,0-3.674-.241,11.854,11.854,0,0,0-3.548.882,3.821,3.821,0,0,0-1.881,1.541,3.966,3.966,0,0,0,.929.835,7.783,7.783,0,0,0,1.476.633,9.872,9.872,0,0,0,3.859.408,6.326,6.326,0,0,0,4.987-2.682l.011.007.163.1.163.1,2.059,1.251a26.573,26.573,0,0,0,3.123,1.724c-.076-.008-.15-.016-.229-.022a12.559,12.559,0,0,0-1.742.027,11.178,11.178,0,0,0-1.921.248c-2.685.578-4.639,1.966-5.03,3.157a5.772,5.772,0,0,0,2.588,1.124,9.368,9.368,0,0,0,1.827.185,9.231,9.231,0,0,0,2.048-.323c2.575-.694,4.166-2.2,4.566-3.383l.208.1,1.5.723c.5.215,1.02.382,1.509.568l2.685.984.061.024a10.225,10.225,0,0,0-3.843.817,11.963,11.963,0,0,0-3.152,1.832,3.816,3.816,0,0,0-1.371,2.008c1.12.92,3.946,1.063,6.544.034a6.273,6.273,0,0,0,4.019-3.957c.2.053.338.084.38.093l2.338.6c.814.193,1.751.485,2.777.679l.707.108a13.8,13.8,0,0,0-3.661,1.326c-2.414,1.328-3.9,3.218-3.936,4.468a5.782,5.782,0,0,0,2.807.329,8.064,8.064,0,0,0,3.67-1.206c2.277-1.413,3.377-3.319,3.425-4.565l.229.036,1.648.252a10.049,10.049,0,0,0,1.6.168l2.856.144.054,0a10.786,10.786,0,0,0-3.446,1.916c-2.2,1.657-3.383,3.649-3.244,4.92a5.072,5.072,0,0,0,2.813-.014,10.037,10.037,0,0,0,3.466-1.8c2.047-1.647,2.885-3.657,2.757-4.9.261.011.424.014.424.014v-.049s.061,0,.106-.005c-.132,1.244.676,3.258,2.726,4.909a10.032,10.032,0,0,0,3.459,1.806,5.059,5.059,0,0,0,2.81.014c.139-1.272-1.049-3.263-3.244-4.921a10.767,10.767,0,0,0-3.461-1.921l.071,0,2.855-.146a9.774,9.774,0,0,0,1.6-.169l1.647-.25.229-.036c.045,1.244,1.143,3.155,3.423,4.571a8.077,8.077,0,0,0,3.67,1.207,5.8,5.8,0,0,0,2.806-.329c-.038-1.249-1.52-3.14-3.934-4.468a13.712,13.712,0,0,0-3.68-1.33l.725-.11c1.027-.193,1.962-.485,2.778-.679l2.335-.6c.041-.009.174-.039.38-.094a6.273,6.273,0,0,0,4.017,3.967c2.6,1.029,5.423.885,6.543-.033a3.821,3.821,0,0,0-1.371-2.01,12,12,0,0,0-3.149-1.831,10.242,10.242,0,0,0-3.865-.817l.08-.031c.787-.287,1.7-.622,2.685-.982.49-.185,1-.353,1.508-.566l1.5-.723.208-.1c.4,1.181,1.988,2.695,4.567,3.39a9.155,9.155,0,0,0,2.048.323,9.371,9.371,0,0,0,1.825-.185,5.75,5.75,0,0,0,2.587-1.122c-.389-1.189-2.345-2.579-5.027-3.157a11.366,11.366,0,0,0-1.922-.248,12.608,12.608,0,0,0-1.742-.027c-.086.006-.166.015-.248.023a26.687,26.687,0,0,0,3.137-1.731c.927-.564,1.652-1,2.05-1.244a1.242,1.242,0,0,0,.218-.1,1.243,1.243,0,0,1,.215-.1l-.011-.014s-.041,0-.038-.007a6.264,6.264,0,0,0,4.964,2.689,9.782,9.782,0,0,0,3.844-.406,7.825,7.825,0,0,0,1.471-.632,4.056,4.056,0,0,0,.925-.835,3.83,3.83,0,0,0-1.883-1.541,11.934,11.934,0,0,0-3.548-.883,10.8,10.8,0,0,0-3.673.241c-.083.022-.161.046-.241.069.019-.014.037-.029.054-.042l2.29-1.713,1.291-.966c.419-.353.824-.74,1.238-1.112.057-.052.113-.1.17-.156.713,1.022,2.665,2.026,5.332,1.964a10.469,10.469,0,0,0,2.06-.257,8.886,8.886,0,0,0,1.7-.688,5.775,5.775,0,0,0,2.162-1.809c-.71-1.031-2.972-1.816-5.706-1.615a11.308,11.308,0,0,0-1.911.3,9.927,9.927,0,0,0-1.689.455c-.079.03-.154.061-.23.092a26.029,26.029,0,0,0,2.53-2.538l1.653-1.818.231-.254a4.282,4.282,0,0,0,1.908,1.055,7.734,7.734,0,0,0,1.7.293,8.673,8.673,0,0,0,1.94-.159,9.838,9.838,0,0,0,3.583-1.478,4.646,4.646,0,0,0,1.905-2.079c-.883-.946-3.107-1.313-5.9-.808a10.7,10.7,0,0,0-3.451,1.265c-.073.044-.143.09-.212.135l.044-.059,1.711-2.289c.313-.419.637-.852.968-1.291s.584-.939.883-1.409c.039-.067.079-.133.118-.2.97.783,3.124,1.2,5.664.385a10.155,10.155,0,0,0,1.9-.829,7.481,7.481,0,0,0,1.449-1.134,5.743,5.743,0,0,0,1.558-2.349c-.972-.791-3.362-.9-5.923.061a14.559,14.559,0,0,0-1.758.822,9.827,9.827,0,0,0-1.49.912c-.068.051-.129.1-.193.154a23.943,23.943,0,0,0,1.719-3.142l1.211-2.514s0-.008.006-.012a4.269,4.269,0,0,0,2.128.476,7.574,7.574,0,0,0,3.545-.894c2.459-1.3,4.148-3.545,4.266-4.966-1.089-.65-3.387-.393-5.906.887a10.409,10.409,0,0,0-3.1,2.379c.007-.021.014-.039.02-.061.294-.787.63-1.7.988-2.686Z" transform="translate(1028.339 15510.293)" fill="#f7e4c7"/>
    <g transform="matrix(1, 0, 0, 1, 997.02, 15476.88)" filter="url(#Path_170009)">
      <path id="Path_170009-2" data-name="Path 170009" d="M-11.525-14.046c.946,0,2.121.057,3.267.172v-4.385a33.546,33.546,0,0,1-3.41.172h-4.241v-1.691h3.525l1.691.029h.63a1.955,1.955,0,0,1,.344.029,26.626,26.626,0,0,1-.115-2.866v-4.356a26.276,26.276,0,0,1,.115-2.98,24.961,24.961,0,0,1-3.21.143h-9.8a21.679,21.679,0,0,1-3.181-.143,24.911,24.911,0,0,1,.115,2.694v4.585a28.745,28.745,0,0,1-.115,2.952c.659-.057,1.662-.086,2.751-.086h2.952v1.691h-3.955c-1.4,0-2.407-.057-3.382-.143V-13.9c1.032-.086,2.235-.143,3.382-.143H-22.3a19.2,19.2,0,0,1-6.1,5.273v-14.5A27.332,27.332,0,0,0-26.484-28a14.407,14.407,0,0,1,.516-1.576l-4.442-1.49a19.291,19.291,0,0,1-1.06,3.84,17.078,17.078,0,0,1-4.1,6.648,26.905,26.905,0,0,1,1.576,5.33,15.477,15.477,0,0,0,1.433-1.777c-.029.43-.029.43-.029,1.2,0,.258-.029,1.519-.029,1.662v7.107a24.876,24.876,0,0,1-.172,3.3h4.556a30.922,30.922,0,0,1-.172-3.3v-1.4A14.659,14.659,0,0,1-26-4.589a21.114,21.114,0,0,0,2.78-2.235,18.613,18.613,0,0,0,3.066-3.811c-.029.831-.057,1.347-.057,1.49v2.923a19.553,19.553,0,0,1-.143,2.493h4.614a19.2,19.2,0,0,1-.172-2.493V-7.655c0-.8-.029-2.293-.057-2.923A20.471,20.471,0,0,0-9.748-4.56,22.439,22.439,0,0,1-7.627-9.174a17.714,17.714,0,0,1-6.247-4.872ZM-21.583-25.8h7.394v2.063h-7.394ZM11.372-8.687H9.8V-19a26.228,26.228,0,0,1,.143-3.41H5.584A27.611,27.611,0,0,1,5.727-19V-8.687c-.487-.029-.8-.057-1.2-.115v4.471a28.238,28.238,0,0,1,3.5-.172h9a31.864,31.864,0,0,1,3.582.172V-8.859a32.645,32.645,0,0,1-3.468.172H15.585v-6.992h1.633a18.6,18.6,0,0,1,2.837.143v-4.413a18.141,18.141,0,0,1-2.837.143H15.585v-5.817h1.232a31,31,0,0,1,3.611.172v-4.471a30.863,30.863,0,0,1-3.639.172H8.736A30.528,30.528,0,0,1,5.1-29.922v4.471a31.546,31.546,0,0,1,3.639-.172h2.636Zm-16.936-18.2c.745-.057,1.376-.086,2.608-.086H1.4c1.29,0,1.805.029,2.608.086v-3.353a20.208,20.208,0,0,1-2.608.115H-2.956a20.208,20.208,0,0,1-2.608-.115Zm-.86,4.614A17.048,17.048,0,0,1-4.1-22.385H2.317a13.5,13.5,0,0,1,2.264.086V-26.11a22.534,22.534,0,0,1-2.321.086H-4.1a12.777,12.777,0,0,1-2.321-.143Zm.946,4.041a13.556,13.556,0,0,1,1.719-.057H2.288a12.541,12.541,0,0,1,1.633.057v-3.238a11.849,11.849,0,0,1-1.633.057H-3.759c-.86,0-1.232-.029-1.719-.057Zm0,4.069a13.516,13.516,0,0,1,1.662-.057H2.2a13.314,13.314,0,0,1,1.719.057V-17.4a11.867,11.867,0,0,1-1.662.057H-3.759A14.3,14.3,0,0,1-5.478-17.4Zm3.754,10.4V-4.933H.081v.774h3.84a18.034,18.034,0,0,1-.057-2.092v-5.187a15.705,15.705,0,0,1,.057-1.891,8.606,8.606,0,0,1-1.748.086H-3.615a21.191,21.191,0,0,1-2.121-.086,16.786,16.786,0,0,1,.115,2.149v4.642c0,.888-.057,1.863-.143,2.78Zm-.086-6.391H.081v1.863H-1.81Z" transform="translate(106.9 139.58)" fill="#fff2b9"/>
    </g>
    <path id="Path_170007" data-name="Path 170007" d="M6.749,0,4.663,4.225,0,4.9,3.374,8.192l-.8,4.645,4.171-2.193,4.17,2.193-.8-4.645L13.5,4.9,8.834,4.225Z" transform="translate(1004.328 15568.363)" fill="url(#linear-gradient-4)"/>
    <path id="Path_170008" data-name="Path 170008" d="M6.749,0,4.663,4.225,0,4.9,3.374,8.192l-.8,4.645,4.171-2.193,4.17,2.193-.8-4.645L13.5,4.9,8.834,4.225Z" transform="translate(1175.51 15568.363)" fill="url(#linear-gradient-4)"/>
    <g transform="matrix(1, 0, 0, 1, 997.02, 15476.88)" filter="url(#相性)">
      <text id="相性-2" data-name="相性" transform="translate(99 99.42)" fill="#fff2b9" font-size="40" font-family="YuGothic-Bold, Yu Gothic" font-weight="700"><tspan x="-40" y="0">相性</tspan></text>
    </g>
  </g>
</svg>
