<svg xmlns="http://www.w3.org/2000/svg" xmlns:xlink="http://www.w3.org/1999/xlink" width="173.04" height="75.52" viewBox="0 0 173.04 75.52">
  <defs>
    <linearGradient id="linear-gradient" x1="0.5" y1="1" x2="0.5" gradientUnits="objectBoundingBox">
      <stop offset="0" stop-color="#99e"/>
      <stop offset="1" stop-color="#e2a1c4"/>
    </linearGradient>
  </defs>
  <path id="Path_450910" data-name="Path 450910" d="M-84.16-24.56c4.64-.48,4.64-.48,8.32-.64.64-.08,1.76-.16,3.04-.24V-1.68a50.275,50.275,0,0,1-.48,8.64h10.24a48.711,48.711,0,0,1-.48-8.56V-26.08c2.48-.16,2.48-.16,4.96-.4.24,1.2.4,1.68.64,3.28l7.12-2.64a52.106,52.106,0,0,1,.24,7.2v17.6a73.018,73.018,0,0,1-.32,7.84h10.24V3.12h16.16V6.8H-14c-.24-2.64-.4-5.68-.4-8.88V-18.64a60.972,60.972,0,0,1,.32-7.76c-1.68.16-3.76.24-7.28.24H-43.28c-3.04,0-5.2-.08-7.2-.24a92.062,92.062,0,0,0-5.36-16.8l-7.12,2.64a57.657,57.657,0,0,1,2.08,5.68c-2.88.32-4,.4-7.52.56,3.04-3.92,7.2-10,10.96-15.84a43.953,43.953,0,0,1,3.04-4.56l-8.24-4.72c-1.76,4.32-2,4.8-7.28,13.36-.96-1.2-.96-1.2-2.48-3.12a102.488,102.488,0,0,0,7.28-13.04,20.753,20.753,0,0,1,1.6-2.88l-9.04-3.44a52.075,52.075,0,0,1-5.68,12.88l-2.4-2.48-4.8,8.24A86.2,86.2,0,0,1-75.12-38c-1.28,1.84-1.28,1.84-2.8,3.84h-1.6c-2.32,0-3.28-.08-5.6-.24Zm43.52,7.6h16.16V-6.24H-40.64Zm2.72-31.52v7.76h-4.4c-3.6,0-6.56-.16-8.96-.4v10c2.96-.24,5.84-.4,8.72-.4h21.2c3.36,0,6.24.16,8.72.4v-10a87.617,87.617,0,0,1-8.88.4h-6.4v-7.76h8c3.52,0,6.56.16,9.2.4V-58.16a69.126,69.126,0,0,1-9.2.48h-8V-61.2a34.071,34.071,0,0,1,.48-6.08H-38.32a44.942,44.942,0,0,1,.4,5.92v3.68h-6.32a69.126,69.126,0,0,1-9.2-.48v10.08a89.336,89.336,0,0,1,9.12-.4Zm-44.56,26.4c-.24,10.16-1.04,15.76-3.04,21.44l7.68,3.76c2-7.44,2.56-11.52,3.04-23.92Zm20.88,1.12A124.47,124.47,0,0,1-60.08-1.28l7.2-1.2A178.742,178.742,0,0,0-54.8-22.32ZM51.12-11.6v8.64a77.352,77.352,0,0,1-.24,7.92h7.84a53.831,53.831,0,0,1-.32-7.92V-11.6h3.92v8.48c0,3.04-.08,6-.24,8h7.6c-.16-2.08-.24-3.52-.24-7.12,1.2,2.32,1.6,3.76,2.16,8.64,9.2-.24,11.44-1.76,11.44-7.92V-28.88a66.871,66.871,0,0,1,.32-7.76,59.374,59.374,0,0,1-7.76.32H44.56a50.647,50.647,0,0,1-7.12-.32c.16,3.36.24,4.56.24,7.76V0a49.809,49.809,0,0,1-.32,6.8H47.2A37.522,37.522,0,0,1,46.8.08V-11.6Zm18.32,0h4.4v7.12c0,1.12-.32,1.44-1.44,1.44-.4,0-2-.08-2.96-.08ZM51.12-20.08H46.8v-7.84h4.32Zm7.28,0v-7.84h3.92v7.84Zm11.04,0v-7.84h4.4v7.84ZM45.28-39.84a60.4,60.4,0,0,1,6.32-.24H69.28a57.622,57.622,0,0,1,6.24.24v-4.64a56.01,56.01,0,0,0,7.76,4.24A38.2,38.2,0,0,1,87.52-50.8a46.34,46.34,0,0,1-14.08-7.68c-3.92-3.12-6.24-5.6-8.08-8.8H53.52a29.3,29.3,0,0,1-6.96,8.96A53.913,53.913,0,0,1,35.6-50.4v-4.32a42.232,42.232,0,0,1-6.32.32H16.72a33.763,33.763,0,0,1-6.32-.4v9.2a46.528,46.528,0,0,1,6.32-.32h12.8a33.141,33.141,0,0,1,5.84.24,25.884,25.884,0,0,1,3.36,5.6,73.567,73.567,0,0,0,6.56-4.64Zm6.32-8.88H50.48c4.8-4,6.32-5.52,9.28-9.76a48.378,48.378,0,0,0,9.6,9.76ZM12.8-57.6c1.92-.16,3.68-.24,6.88-.24H28c3.28,0,4.64.08,6.88.24v-8.32A51.9,51.9,0,0,1,28-65.6H19.68a51.9,51.9,0,0,1-6.88-.32Zm.32,23.44a29.162,29.162,0,0,1,4.96-.24H29.52a26.665,26.665,0,0,1,4.72.24V-42.4a33.339,33.339,0,0,1-4.72.24H18.08a27.721,27.721,0,0,1-4.96-.24Zm0,11.44a27.17,27.17,0,0,1,4.8-.24H29.28a27.721,27.721,0,0,1,4.96.24v-8.24a34.66,34.66,0,0,1-4.8.24H18.08a37.381,37.381,0,0,1-4.96-.24ZM21.2,3.36h5.2V5.52h8.4a48.38,48.38,0,0,1-.24-5.2V-13.92a50.281,50.281,0,0,1,.16-5.76,32.162,32.162,0,0,1-4.88.24H18a45.609,45.609,0,0,1-5.68-.24,52.65,52.65,0,0,1,.32,6.4V-.88a75.625,75.625,0,0,1-.4,7.68H21.2Zm-.24-15.2h5.52v7.2H20.96Z" transform="translate(85.52 68.56)" fill="url(#linear-gradient)"/>
</svg>
