<svg xmlns="http://www.w3.org/2000/svg" xmlns:xlink="http://www.w3.org/1999/xlink" width="244.17" height="219" viewBox="0 0 244.17 219">
  <defs>
    <linearGradient id="linear-gradient" x1="0.5" x2="0.5" y2="1" gradientUnits="objectBoundingBox">
      <stop offset="0" stop-color="#efadef"/>
      <stop offset="1" stop-color="#f08ef0"/>
    </linearGradient>
  </defs>
  <g id="Group_207021" data-name="Group 207021" transform="translate(-714.83 -4153)">
    <path id="Path_384692" data-name="Path 384692" d="M-46.816-23.436A10.791,10.791,0,0,1-48.16-19.88,21.881,21.881,0,0,1-55.5-11.564a10.327,10.327,0,0,1,3.332,2.856,28,28,0,0,0,6.468-7.14l7.952-.084C-40.04-8.876-44.408-4.48-51.968-1.54a10.837,10.837,0,0,1,2.884,3.612,28.906,28.906,0,0,0,10.164-7.2,29.914,29.914,0,0,0,5.74-10.92,6.13,6.13,0,0,1,.728-1.82L-34.5-19.88a6.089,6.089,0,0,1-2.016.308l-7.28.084c.308-.616.42-.868.672-1.428a12.448,12.448,0,0,1,.812-1.652Zm24.164,5.208c.868-.084,1.988-.14,3.78-.14h9.324a26.188,26.188,0,0,1,3.752.14v-4.06a16.964,16.964,0,0,1-3.808.224h-9.184a21.914,21.914,0,0,1-3.864-.224ZM-25-11.34a35.784,35.784,0,0,1,4.172-.14h12.74A13.8,13.8,0,0,1-12.516-5.4,18.91,18.91,0,0,1-20.1-1.932,12.264,12.264,0,0,1-17.472,1.96c3.836-1.512,5.74-2.492,7.644-4.032a20.76,20.76,0,0,0,6.356-9.576,8.49,8.49,0,0,1,.784-1.764l-1.876-2.072a7.167,7.167,0,0,1-2.716.28h-13.5A24.951,24.951,0,0,1-25-15.4ZM26.432-2.156c-4.788-4.564-5.488-5.18-9.1-7.756a36.492,36.492,0,0,0,4.228-7.616,4.6,4.6,0,0,1,.924-1.568l-2.156-2.24A4.2,4.2,0,0,1,17.976-21l-9.548.168H7.9A20.85,20.85,0,0,1,4.48-21l.056,4.256A25.223,25.223,0,0,1,8.456-17l8.176-.14c-.644,1.428-1.12,2.436-1.484,3.052A25.843,25.843,0,0,1,7.812-5.992,25.3,25.3,0,0,1,1.6-2.576,12.663,12.663,0,0,1,4.284,1.148,32.214,32.214,0,0,0,14.728-6.664a49.865,49.865,0,0,1,8.316,8.148Zm5.8-14.5a2.418,2.418,0,0,1,.42-.028h.392a1.751,1.751,0,0,0,.476.028c.084,0,.532,0,1.064.028.812.028,1.036.028,2.6.028a4.29,4.29,0,0,0-.42.7A25.616,25.616,0,0,1,31.3-9.352l3.024,3a17.058,17.058,0,0,1,2.548-2.688c2.1-1.82,4-2.772,5.516-2.772A1.276,1.276,0,0,1,43.82-10.7,21.652,21.652,0,0,0,39.732-8.54C37.6-7,36.484-5.264,36.484-3.528A4.55,4.55,0,0,0,37.576-.5C38.864.952,41.188,1.568,45.3,1.568a51.812,51.812,0,0,0,7.2-.5,10.614,10.614,0,0,1,1.4-.14L53.592-3.36A25.69,25.69,0,0,1,45-2.1c-3.052,0-4.256-.5-4.256-1.792a2.61,2.61,0,0,1,1.316-2.016,14.529,14.529,0,0,1,2.24-1.2.9.9,0,0,1,.028.224,20.89,20.89,0,0,1-.168,3.248l3.892-.112a16.97,16.97,0,0,1-.084-1.876v-1.9l-.028-.924C51.324-9.6,51.324-9.6,52-9.772A21.2,21.2,0,0,1,55.16-10.5l-1.484-3.808a9.53,9.53,0,0,1-2.184.84c-1.26.42-1.4.476-2.492.868-.728.252-1.232.42-1.484.5-.5-1.876-1.9-2.828-4.172-2.828a7.14,7.14,0,0,0-3.864,1.092A20.094,20.094,0,0,0,41.3-16.6c2.828-.084,6.468-.308,8.512-.56,1.344-.14,1.344-.14,2.212-.224l-.168-3.78a38.833,38.833,0,0,1-7.224.924,16.953,16.953,0,0,0-1.736.112c.112-.224.112-.252.224-.5a14.356,14.356,0,0,1,1.036-2.324l-4.34-.392a11.155,11.155,0,0,1-1.008,3.276h-1.4a25.044,25.044,0,0,1-5.124-.364Zm-146.5,43.148h.252c.224,0,.5,0,.924.028,2.352.168,2.52.2,2.8.2h1.232a43.284,43.284,0,0,1-3.64,8.568l4.032,1.344a4.255,4.255,0,0,1,1.932-1.54,12.912,12.912,0,0,1,5.908-1.344c2.744,0,4.312.868,4.312,2.408,0,2.044-2.492,3.332-6.412,3.332a23.139,23.139,0,0,1-7.392-1.344,17.027,17.027,0,0,1,.392,4.172,27.341,27.341,0,0,0,7.168.952c6.44,0,10.584-2.772,10.584-7.084,0-3.752-3-5.936-8.12-5.936a13.249,13.249,0,0,0-6.608,1.54,33.468,33.468,0,0,0,1.9-5.012c3.164-.084,5.376-.224,8.148-.5s2.772-.28,3.556-.336l-.168-4.032a50.625,50.625,0,0,1-10.584,1.148c.644-2.492.98-3.808,1.036-4.032l-4.424-.336a24.805,24.805,0,0,1-.728,4.424,29.882,29.882,0,0,1-6.048-.476ZM-75.88,23.3a10.952,10.952,0,0,1,.14,2.156c.056,3.892.084,5.6.168,7.2.112,2.128.112,2.128.112,2.576a9.252,9.252,0,0,0-1.68-.14c-3.7,0-6.132,1.82-6.132,4.564a3.968,3.968,0,0,0,1.344,3.024,6.97,6.97,0,0,0,4.452,1.288c3.668,0,5.6-1.4,5.6-4.06v-.42a16.21,16.21,0,0,1,4.928,3.584l2.24-3.3c-.336-.2-.5-.336-.728-.476A21.715,21.715,0,0,0-71.9,35.84c-.084-.84-.168-2.632-.224-4.536,1.568-.028,3.416-.14,4.76-.28a14.662,14.662,0,0,1,1.96-.168l-.224-3.472a30.056,30.056,0,0,1-6.608.728v-.644c0-1.036,0-1.036.028-1.428a13.72,13.72,0,0,1,.2-2.688ZM-75.4,38.36a3.282,3.282,0,0,1,.056.672c0,1.232-.588,1.708-2.1,1.708-1.316,0-2.1-.448-2.1-1.232,0-.84.952-1.344,2.548-1.344A6.706,6.706,0,0,1-75.4,38.36Zm21.616-5.712a17.5,17.5,0,0,1,3.36-.98,33.673,33.673,0,0,1,7.28-1.064A6.772,6.772,0,0,1-40.6,31a2.811,2.811,0,0,1,1.876,2.688c0,1.792-.924,3.164-2.856,4.256a18.754,18.754,0,0,1-7.84,1.624h-.42a10.94,10.94,0,0,1,1.428,3.808,26.407,26.407,0,0,0,6.216-1.12c4.7-1.428,7.42-4.536,7.42-8.484A6.945,6.945,0,0,0-35.84,29.9c-1.316-1.96-3.612-2.912-6.972-2.912a42.56,42.56,0,0,0-8.736,1.148,20.286,20.286,0,0,1-3.052.532Zm33.18-13.02a10.929,10.929,0,0,1,.448,1.82c.672,3.388,1.12,5.208,1.792,7.5a16.472,16.472,0,0,0-3.864,2.436,6.853,6.853,0,0,0-2.492,5.264,6.072,6.072,0,0,0,1.232,3.724c1.484,1.876,4.592,2.8,9.436,2.8a68.1,68.1,0,0,0,7.028-.448c1.6-.168,1.736-.2,2.352-.224l-.336-4.564a32.556,32.556,0,0,1-9.38,1.232c-4.144,0-5.992-.812-5.992-2.66,0-1.792,1.96-3.416,5.8-4.844a57.386,57.386,0,0,1,9.632-2.632l-1.4-4.256a6.305,6.305,0,0,1-1.12.42c-4.368,1.372-5.544,1.736-7.084,2.3a47.069,47.069,0,0,1-1.708-8.54ZM20.72,35.476v6.58c0,1.624.7,2.044,3.332,2.044,2.016,0,2.94-.308,3.444-1.148.392-.672.56-1.876.616-4.76A8.525,8.525,0,0,1,25.368,36.9v.588a13.681,13.681,0,0,1-.2,2.968c-.084.168-.308.224-.728.224-.448,0-.476-.084-.5-.728v-4.48a18.72,18.72,0,0,1,2.716.14,30.691,30.691,0,0,1-.112-3.136V22.428a30,30,0,0,1,.112-3.136,22.431,22.431,0,0,1-2.744.112H17.976a23.633,23.633,0,0,1-2.744-.112,22.6,22.6,0,0,1,.112,2.8V32.564a25.784,25.784,0,0,1-.112,3,12.243,12.243,0,0,1,1.26-.084h.448c-.28,2.94-.868,4.088-2.884,5.572V21.98c0-.98.028-1.932.084-2.632a17.267,17.267,0,0,1-2.464.112h-6.3a27.4,27.4,0,0,1-3.472-.2v3.668a30.282,30.282,0,0,1,3.22-.14h5.684V40.04c0,.476-.252.616-1.176.616A28.311,28.311,0,0,1,6.58,40.4a11.55,11.55,0,0,1,.756,3.388c1.232.056,2.352.112,2.8.112,2.408,0,3.332-.42,3.752-1.708A12.652,12.652,0,0,1,15.6,44.408a10.976,10.976,0,0,0,3.22-3.472c.756-1.344,1.092-2.716,1.316-5.46ZM18.648,22.54h4.564v1.512H18.648Zm0,4.172h4.564V28.28H18.648Zm0,4.228h4.564v1.568H18.648ZM2.324,27.664A19.923,19.923,0,0,1,4.48,27.58H8.036a18.641,18.641,0,0,1,2.128.084V24.3a18.87,18.87,0,0,1-2.156.084H4.48A17.983,17.983,0,0,1,2.324,24.3ZM9.716,31c0-.728.028-1.372.084-1.96a15.308,15.308,0,0,1-1.876.084H4.4a17.128,17.128,0,0,1-1.848-.084,20.784,20.784,0,0,1,.084,2.128V36.9c0,1.036-.056,2.072-.14,3.024H5.376v-1.54H8.26c.5,0,.924.028,1.512.056-.028-.5-.056-1.036-.056-1.736ZM5.376,32.06H7.112v3.332H5.376Zm28.588-6.076c.476-.028.7-.028,1.12-.028a76.535,76.535,0,0,0,8.288-.364c.14.336.2.42.448.98.2.42.28.588.448.9a57.194,57.194,0,0,1-8.008.5,15.915,15.915,0,0,1-2.688-.14l.14,3.584c.5-.056.728-.056,1.232-.084a97.867,97.867,0,0,0,10.808-.7c.168.252.168.252.364.588.448.728.476.784.812,1.26a6.969,6.969,0,0,0,.56.728,20.237,20.237,0,0,0-4.536-.448,13.558,13.558,0,0,0-5.712,1.008,4.983,4.983,0,0,0-3.22,4.424,4.771,4.771,0,0,0,1.064,3c1.316,1.652,4.06,2.492,8.008,2.492a31.906,31.906,0,0,0,7.644-.924,19.337,19.337,0,0,1,1.9-.42l-.588-4.06a23.106,23.106,0,0,1-8.792,1.792,17,17,0,0,1-2.884-.252c-1.26-.308-1.9-.84-1.9-1.652,0-1.4,1.9-2.184,5.4-2.184a13.3,13.3,0,0,1,6.16,1.2l3.276-1.932a28.884,28.884,0,0,1-3.7-5.152c.56-.112.672-.14,1.96-.392,1.9-.42,3.024-.644,3.388-.7l-.336-3.584a38.009,38.009,0,0,1-6.552,1.568c-.448-.924-.476-.98-.868-1.876.9-.112,3.36-.616,6.664-1.316l-.336-3.5a45.654,45.654,0,0,1-7.56,1.624,13.758,13.758,0,0,1-1.008-3.164l-4.172.56a8.473,8.473,0,0,1,.588,1.288,9.019,9.019,0,0,0,.364.84c.28.672.28.672.364.9-1.12.14-3.724.252-5.348.252-1.176,0-2.128-.028-3-.112Zm34.384,9.884a5.566,5.566,0,0,1-2.632,3.808,13.891,13.891,0,0,1-5.208,1.708,12.956,12.956,0,0,1,1.932,3.3,14.52,14.52,0,0,0,7-3.416,8.623,8.623,0,0,0,2.744-5.4h2.128v5.6c0,2.3.784,2.688,5.656,2.688,3.3,0,4.536-.2,5.292-.9.84-.728,1.092-1.708,1.4-5.152a12.568,12.568,0,0,1-3.416-1.344,11.6,11.6,0,0,1-.42,3.556c-.28.42-.784.532-2.744.532-1.932,0-2.156-.084-2.156-.812V35.868H80.3a28.568,28.568,0,0,1,2.94.112,21.78,21.78,0,0,1-.14-3.024V22.6a31.385,31.385,0,0,1,.14-3.36,27.211,27.211,0,0,1-2.94.112h-13.5a26.967,26.967,0,0,1-2.912-.112,31.385,31.385,0,0,1,.14,3.36v10.36a28.466,28.466,0,0,1-.14,3.024,26.8,26.8,0,0,1,2.968-.112Zm-.812-13.356h12.04v1.512H67.536Zm0,4.34h12.04V28.42H67.536Zm0,4.4h12.04v1.6H67.536Zm37.324,4.844c-.028-.7-.056-.98-.056-1.288,0-.336,0-.336.084-2.044l.476-9.212c.056-1.456.168-2.772.28-3.584h-5.46c.112.952.224,2.324.28,3.584l.476,9.212c.084,1.652.084,1.652.084,2.016,0,.308-.028.616-.056,1.316Zm.448,6.664V38.22H100.52v4.536Z" transform="matrix(0.966, -0.259, 0.259, 0.966, 831.271, 4273.027)" fill="#707070"/>
    <path id="多角形_303" data-name="多角形 303" d="M113.5,32.606,30.561,93.733l31.672,98.882H164.766l31.672-98.882L113.5,32.606M113.5,0,227,83.651,183.647,219H43.353L0,83.651Z" transform="translate(732 4153)" opacity="0.112" fill="url(#linear-gradient)"/>
  </g>
</svg>
