<svg xmlns="http://www.w3.org/2000/svg" width="90.391" height="90.075" viewBox="0 0 90.391 90.075">
  <g id="Path_378128" data-name="Path 378128" transform="translate(46.244 84.425)" fill="#fff" stroke-linecap="round">
    <path d="M -15.77392578125 3.650393009185791 C -21.24571418762207 3.650393009185791 -26.19370079040527 2.648955583572388 -30.4804630279541 0.6738929748535156 C -34.85783767700195 -1.342907071113586 -38.28352737426758 -4.262594699859619 -40.6623649597168 -8.004069328308105 C -43.03873825073242 -11.74165725708008 -44.24365234375 -16.11773109436035 -44.24365234375 -21.01074409484863 C -44.24365234375 -26.57344436645508 -42.38835144042969 -31.84850692749023 -38.72929000854492 -36.68938064575195 C -36.93876266479492 -39.05820846557617 -34.6795768737793 -41.36721801757812 -32.01449966430664 -43.55224609375 C -29.52586364746094 -45.59262847900391 -26.61450004577637 -47.58126449584961 -23.35321426391602 -49.46892166137695 C -23.27687644958496 -53.95949554443359 -22.54359245300293 -58.41326522827148 -21.17062568664551 -62.71936798095703 C -19.70375061035156 -67.32002258300781 -17.72541236877441 -71.16165924072266 -15.29058837890625 -74.1375732421875 L -15.28856372833252 -74.14004516601562 L -15.28653812408447 -74.14250946044922 C -10.7606258392334 -79.63824462890625 -5.649538516998291 -82.4248046875 -0.09521327912807465 -82.4248046875 C 3.077624320983887 -82.4248046875 5.723349094390869 -81.46659088134766 7.768474102020264 -79.57679748535156 C 9.858649253845215 -77.6453857421875 10.91846179962158 -75.21839141845703 10.91846179962158 -72.36328125 C 10.91846179962158 -69.36621856689453 9.813949584960938 -66.40034484863281 7.635624408721924 -63.54805755615234 C 5.590461254119873 -60.87015533447266 2.524641990661621 -58.21121978759766 -1.476444125175476 -55.64521026611328 C -2.803692579269409 -54.76175308227539 -5.167525291442871 -53.3681640625 -8.701675415039062 -51.38559341430664 L -8.708613395690918 -51.38170623779297 L -8.715588569641113 -51.37786865234375 C -11.55532455444336 -49.81441879272461 -13.63840198516846 -48.68407821655273 -15.0222635269165 -47.95592880249023 C -14.71980285644531 -44.65989303588867 -13.79871654510498 -40.89516830444336 -12.27735042572021 -36.74271774291992 C -10.54455089569092 -32.0131950378418 -8.41092586517334 -27.78403282165527 -5.935750961303711 -24.17269515991211 C -2.406927824020386 -19.01228332519531 2.031730651855469 -14.37307643890381 7.272397994995117 -10.36469459533691 C 9.620332717895508 -12.1751651763916 11.7650728225708 -14.24786567687988 13.66146183013916 -16.54076957702637 C 15.86281204223633 -19.20240783691406 17.61432456970215 -21.97391891479492 18.86734962463379 -24.77829360961914 C 20.07867431640625 -27.48934364318848 20.69287490844727 -30.04459381103516 20.69287490844727 -32.37304306030273 C 20.69287490844727 -34.61284637451172 20.15257453918457 -36.33870697021484 19.04109954833984 -37.64925765991211 C 17.99906158447266 -38.87793350219727 16.73901176452637 -39.4501953125 15.07568645477295 -39.4501953125 C 12.70858669281006 -39.4501953125 10.67417430877686 -38.40924453735352 8.856186866760254 -36.26786804199219 C 6.854936599731445 -33.91061782836914 5.1536865234375 -30.24188232421875 3.79971170425415 -25.36355781555176 L 2.640636682510376 -21.1874828338623 L 0.215111717581749 -24.77911949157715 L -3.085675716400146 -29.66681861877441 L -3.61150074005127 -30.44544410705566 L -3.347888231277466 -31.34726905822754 C -2.481850862503052 -34.31003189086914 -1.171450734138489 -36.99723052978516 0.5468991994857788 -39.33419418334961 C 2.294774293899536 -41.71131896972656 4.363624095916748 -43.58555603027344 6.695974349975586 -44.90485763549805 C 9.084961891174316 -46.25620651245117 11.60531139373779 -46.94140625 14.18701171875 -46.94140625 C 16.58439826965332 -46.94140625 18.79508590698242 -46.32903289794922 20.75767517089844 -45.12128067016602 C 22.71136093139648 -43.91900634765625 24.26833724975586 -42.22702026367188 25.38534927368164 -40.09229278564453 C 26.48429870605469 -37.99208068847656 27.04151153564453 -35.6512336730957 27.04151153564453 -33.13476943969727 C 27.04151153564453 -30.76579475402832 26.59946250915527 -28.27336883544922 25.72763633728027 -25.72673225402832 C 24.88016128540039 -23.25121879577637 23.70717430114746 -20.77974510192871 22.24123764038086 -18.38093185424805 C 20.7841739654541 -15.99664497375488 18.94411087036133 -13.58631992340088 16.77216148376465 -11.2169075012207 C 15.36547756195068 -9.682348251342773 13.92860412597656 -8.28971004486084 12.47880935668945 -7.054590702056885 C 15.74460315704346 -5.383897304534912 19.04265785217285 -4.53905725479126 22.31201171875 -4.53905725479126 C 25.34144973754883 -4.53905725479126 27.93294906616211 -5.118144512176514 30.01451110839844 -6.260244369506836 C 32.15589904785156 -7.435169696807861 34.39529800415039 -9.502769470214844 36.67052459716797 -12.40563201904297 L 38.1599235534668 -14.30589485168457 L 39.74979782104492 -12.48886966705322 L 40.63846206665039 -11.47324466705322 L 41.64008712768555 -10.32850742340088 L 40.80447387695312 -9.057519912719727 C 35.39901351928711 -0.8357695341110229 28.21619987487793 3.333005428314209 19.45556259155273 3.333005428314209 C 14.04612731933594 3.333005428314209 8.720230102539062 1.872724175453186 3.609147310256958 -1.009200096130371 C -2.458354949951172 2.082915306091309 -8.97794246673584 3.650393009185791 -15.77392578125 3.650393009185791 Z M -22.99054908752441 -42.79066848754883 C -30.10843467712402 -37.50138473510742 -33.57861328125 -31.41123390197754 -33.57861328125 -24.24804496765137 C -33.57861328125 -18.29128265380859 -31.5609016418457 -13.48163223266602 -27.41018867492676 -9.544269561767578 C -23.22930145263672 -5.57829475402832 -18.11496353149414 -3.650394439697266 -11.77490043640137 -3.650394439697266 C -8.603981018066406 -3.650394439697266 -5.505294799804688 -4.12086009979248 -2.523977994918823 -5.052139282226562 C -4.701826572418213 -6.742165565490723 -6.742976188659668 -8.629334449768066 -8.619775772094727 -10.69005680084229 C -11.35611343383789 -13.69455718994141 -13.81733798980713 -17.14968109130859 -15.93508815765381 -20.95944404602051 C -18.04923820495605 -24.76274490356445 -19.74026298522949 -28.78876876831055 -20.9611759185791 -32.92570877075195 C -21.89806175231934 -36.10023498535156 -22.57781600952148 -39.40688323974609 -22.99054908752441 -42.79066848754883 Z M -1.872563242912292 -75.94921875 C -4.070525646209717 -75.94921875 -6.102188110351562 -75.03807830810547 -8.083613395690918 -73.16375732421875 C -10.19743824005127 -71.16419219970703 -11.91941356658936 -68.40665435791016 -13.20172595977783 -64.96774291992188 C -14.44283008575439 -61.63930511474609 -15.10267353057861 -58.03199005126953 -15.16546726226807 -54.23720169067383 C -10.64283180236816 -56.74649810791016 -7.10615062713623 -58.9910774230957 -4.626875877380371 -60.92695617675781 L -4.609250545501709 -60.94071960449219 L -4.591325759887695 -60.95407104492188 C -2.486963272094727 -62.52278137207031 -0.7838007807731628 -64.38810729980469 0.4708617329597473 -66.49822235107422 C 1.674424171447754 -68.52238464355469 2.284674167633057 -70.43161010742188 2.284674167633057 -72.17284393310547 C 2.284674167633057 -73.82435607910156 1.699861764907837 -74.54498291015625 1.259986758232117 -74.94336700439453 C 0.5126492381095886 -75.62020874023438 -0.5120132565498352 -75.94921875 -1.872563242912292 -75.94921875 Z" stroke="none"/>
    <path d="M -15.77391910552979 1.650393009185791 C -9.172361373901367 1.650393009185791 -2.930504322052002 0.1269501149654388 2.951667070388794 -2.919921398162842 L 3.459467172622681 -3.173821210861206 C 3.459467172622681 -3.216149806976318 3.522952795028687 -3.258464097976685 3.649895668029785 -3.300778388977051 C 8.770352363586426 -0.2115927487611771 14.03889560699463 1.333007216453552 19.45556640625 1.333007216453552 C 27.53825187683105 1.333007216453552 34.09749603271484 -2.496749877929688 39.13329696655273 -10.15625 L 38.24462509155273 -11.17187881469727 C 35.79021072387695 -8.040364265441895 33.36751174926758 -5.818678379058838 30.97656631469727 -4.506835460662842 C 28.58560943603516 -3.194992780685425 25.69742393493652 -2.539064168930054 22.31200981140137 -2.539064168930054 C 17.91096687316895 -2.539064168930054 13.55225276947021 -3.893235683441162 9.235838890075684 -6.601564407348633 L 8.918453216552734 -6.791992664337158 C 11.07666683197021 -8.357749938964844 13.20312404632568 -10.28320693969727 15.29785251617432 -12.56836414337158 C 17.39258193969727 -14.8535213470459 19.13818168640137 -17.13866424560547 20.53466796875 -19.42382049560547 C 21.93115234375 -21.7089786529541 23.03141021728516 -24.02587890625 23.83545303344727 -26.37450790405273 C 24.63948059082031 -28.7231502532959 25.0415096282959 -30.97656440734863 25.0415096282959 -33.134765625 C 25.0415096282959 -35.33527755737305 24.5654239654541 -37.34537887573242 23.61328125 -39.16503524780273 C 22.6611385345459 -40.98469161987305 21.35986709594727 -42.40235137939453 19.7094669342041 -43.41796493530273 C 18.05908203125 -44.43359375 16.2182674407959 -44.94140625 14.18700981140137 -44.94140625 C 11.944167137146 -44.94140625 9.775395393371582 -44.34894943237305 7.680666923522949 -43.1640625 C 5.585938453674316 -41.97916412353516 3.745124101638794 -40.30762100219727 2.158210039138794 -38.14940643310547 C 0.5712956190109253 -35.99120712280273 -0.624190092086792 -33.53677749633789 -1.428218603134155 -30.78613471984863 L 1.872552752494812 -25.89843559265137 C 4.750166893005371 -36.26627731323242 9.151209831237793 -41.45019149780273 15.07568168640137 -41.45019149780273 C 17.31852340698242 -41.45019149780273 19.14876747131348 -40.61442184448242 20.56641006469727 -38.94286346435547 C 21.98405265808105 -37.27132034301758 22.69286727905273 -35.08137893676758 22.69286727905273 -32.37305068969727 C 22.69286727905273 -29.74934959411621 22.0263671875 -26.9458065032959 20.69336700439453 -23.96240615844727 C 19.36035346984863 -20.97900772094727 17.53010940551758 -18.08023643493652 15.20263862609863 -15.26610660552979 C 12.87516689300537 -12.45197868347168 10.23030948638916 -9.986978530883789 7.268066883087158 -7.871092796325684 C 1.301267027854919 -12.22982120513916 -3.649904251098633 -17.28677940368652 -7.585447311401367 -23.0419921875 C -10.16683292388916 -26.80826377868652 -12.35677623748779 -31.14583587646484 -14.15527534484863 -36.05469131469727 C -15.95377540588379 -40.96355056762695 -16.93766212463379 -45.322265625 -17.10693359375 -49.13086318969727 C -15.92203330993652 -49.72330856323242 -13.44644737243652 -51.05632019042969 -9.68017578125 -53.12987899780273 C -6.210118770599365 -55.07649230957031 -3.840332984924316 -56.47297668457031 -2.570804357528687 -57.3193359375 C 5.088709831237793 -62.22819137573242 8.918453216552734 -67.24283599853516 8.918453216552734 -72.36328125 C 8.918453216552734 -74.6484375 8.082681655883789 -76.56332397460938 6.411138534545898 -78.10791015625 C 4.73958158493042 -79.65250396728516 2.57079553604126 -80.4248046875 -0.09521863609552383 -80.4248046875 C -5.046390056610107 -80.4248046875 -9.59553337097168 -77.90689086914062 -13.74267578125 -72.87109375 C -16.02783203125 -70.078125 -17.8686466217041 -66.49169158935547 -19.26513290405273 -62.11182022094727 C -20.66161918640137 -57.73193740844727 -21.35986137390137 -53.2568359375 -21.35986137390137 -48.68651962280273 L -21.35986137390137 -48.3056640625 L -21.8042049407959 -48.05176544189453 C -35.43050384521484 -40.30762100219727 -42.24364852905273 -31.29394912719727 -42.24364852905273 -21.0107364654541 C -42.24364852905273 -16.48274993896484 -41.15397644042969 -12.50487804412842 -38.97460556030273 -9.077150344848633 C -36.79524612426758 -5.649406909942627 -33.68489074707031 -3.004549980163574 -29.64354705810547 -1.142578482627869 C -25.60221862792969 0.7194072604179382 -20.97900390625 1.650393009185791 -15.77391910552979 1.650393009185791 M -21.35986137390137 -46.33789443969727 L -21.29639053344727 -46.0205078125 C -20.66161918640137 -37.34537887573242 -18.29183387756348 -29.31559181213379 -14.18700408935547 -21.93115043640137 C -10.08219051361084 -14.54670715332031 -4.792475700378418 -8.738607406616211 1.682124257087708 -4.506835460662842 C -2.59196138381958 -2.602535486221313 -7.077632904052734 -1.650392770767212 -11.77490425109863 -1.650392770767212 C -18.58804702758789 -1.650392770767212 -24.25861930847168 -3.798007011413574 -28.78661918640137 -8.093264579772949 C -33.31461715698242 -12.38850688934326 -35.57860565185547 -17.77343559265137 -35.57860565185547 -24.24805068969727 C -35.57860565185547 -32.92317962646484 -30.83903312683105 -40.28646469116211 -21.35986137390137 -46.33789443969727 M -1.872561454772949 -77.94921875 C -0.01057578157633543 -77.94921875 1.48112416267395 -77.44140625 2.602538585662842 -76.42578125 C 3.723952770233154 -75.41014862060547 4.284667015075684 -73.99250793457031 4.284667015075684 -72.1728515625 C 4.284667015075684 -70.05696105957031 3.586424112319946 -67.82470703125 2.189938545227051 -65.47608184814453 C 0.7934527993202209 -63.12743377685547 -1.06851863861084 -61.08560562133789 -3.395990133285522 -59.35057830810547 C -6.485189914703369 -56.9384765625 -11.05550479888916 -54.12435150146484 -17.10693359375 -50.90820693969727 L -17.1704044342041 -51.98730850219727 L -17.1704044342041 -53.63769149780273 C -17.1704044342041 -57.91177749633789 -16.4721622467041 -61.92139434814453 -15.07569026947021 -65.66650390625 C -13.67920398712158 -69.41162109375 -11.80664730072021 -72.39501953125 -9.458003997802734 -74.61669158935547 C -7.109375953674316 -76.83837890625 -4.58089017868042 -77.94921875 -1.872561454772949 -77.94921875 M -15.77391910552979 5.650393009185791 C -21.53673362731934 5.650393009185791 -26.76631927490234 4.587207317352295 -31.31737518310547 2.49036431312561 C -36.04965972900391 0.3100644052028656 -39.76161956787109 -2.859749794006348 -42.35012054443359 -6.931006908416748 C -44.93367767333984 -10.99443531036377 -46.24364852905273 -15.7315502166748 -46.24364852905273 -21.0107364654541 C -46.24364852905273 -27.01857757568359 -44.25224685668945 -32.69939422607422 -40.32477569580078 -37.89536285400391 C -38.43906021118164 -40.39013671875 -36.06971740722656 -42.81375122070312 -33.28254699707031 -45.098876953125 C -30.95986366271973 -47.00318908691406 -28.28751754760742 -48.86007308959961 -25.3204345703125 -50.63230514526367 C -25.14597129821777 -54.93460464477539 -24.3931884765625 -59.1960563659668 -23.07610511779785 -63.32691955566406 C -21.53230476379395 -68.16884613037109 -19.43366241455078 -72.232177734375 -16.83850479125977 -75.404052734375 L -16.83039093017578 -75.41391754150391 C -11.90634727478027 -81.39310455322266 -6.275818824768066 -84.4248046875 -0.09521863609552383 -84.4248046875 C 3.596895694732666 -84.4248046875 6.699295520782471 -83.28791046142578 9.125795364379883 -81.04569244384766 C 11.60698127746582 -78.75297546386719 12.91845321655273 -75.75063323974609 12.91845321655273 -72.36328125 C 12.91845321655273 -68.91740417480469 11.67582416534424 -65.54312133789062 9.225095748901367 -62.33414840698242 C 7.009909629821777 -59.43361282348633 3.866882801055908 -56.69761657714844 -0.3823133111000061 -53.97095108032227 C -1.754924416542053 -53.05855941772461 -4.156874656677246 -51.64190292358398 -7.723176002502441 -49.64130783081055 L -7.75098991394043 -49.62585067749023 C -9.868494987487793 -48.46003341674805 -11.57021617889404 -47.53239059448242 -12.87981796264648 -46.83017349243164 C -12.49228763580322 -44.02586364746094 -11.66167831420898 -40.87599945068359 -10.39941883087158 -37.43076324462891 C -8.723904609680176 -32.85756301879883 -6.667061328887939 -28.77733612060547 -4.286046981811523 -25.30339241027832 C -1.15552282333374 -20.72541618347168 2.718508005142212 -16.57043647766113 7.257143497467041 -12.91848087310791 C 9.019962310791016 -14.39666652679443 10.64867877960205 -16.03613662719727 12.12028121948242 -17.81542205810547 C 14.20638179779053 -20.33773612976074 15.86206722259521 -22.95487785339355 17.04133796691895 -25.59417915344238 C 18.13721084594727 -28.0468635559082 18.69286727905273 -30.32760620117188 18.69286727905273 -32.37305068969727 C 18.69286727905273 -34.11902236938477 18.30783843994141 -35.42173385620117 17.51579475402832 -36.35563659667969 C 16.85645294189453 -37.13307952880859 16.14949607849121 -37.45019149780273 15.07568168640137 -37.45019149780273 C 13.96290969848633 -37.45019149780273 12.26555252075195 -37.19345092773438 10.38083839416504 -34.97346496582031 C 8.568567276000977 -32.83882141113281 7.002738475799561 -29.42562103271484 5.726852893829346 -24.82866477966309 L 3.408695697784424 -16.47650718688965 L -5.79477596282959 -30.10476493835449 L -5.267561435699463 -31.90839195251465 C -4.335761547088623 -35.09613418579102 -2.921618700027466 -37.99314880371094 -1.064390063285828 -40.51896286010742 C 0.8518527746200562 -43.12508010864258 3.131524324417114 -45.18639373779297 5.711281299591064 -46.64566421508789 C 8.404367446899414 -48.16900634765625 11.25601005554199 -48.94140625 14.18700981140137 -48.94140625 C 16.96002388000488 -48.94140625 19.52338218688965 -48.22920608520508 21.80586624145508 -46.82459259033203 C 24.07055282592773 -45.43096542358398 25.8710823059082 -43.47784805297852 27.15740966796875 -41.0195198059082 C 28.4076099395752 -38.6302490234375 29.0415096282959 -35.97743606567383 29.0415096282959 -33.134765625 C 29.0415096282959 -30.54495048522949 28.56319618225098 -27.83459281921387 27.61983871459961 -25.07896423339844 C 26.72515296936035 -22.46554946899414 25.48969650268555 -19.86113548278809 23.94779586791992 -17.33802223205566 C 22.42358207702637 -14.84386444091797 20.50538063049316 -12.32973575592041 18.24646759033203 -9.865464210510254 C 17.53695487976074 -9.091450691223145 16.81934547424316 -8.351571083068848 16.09573745727539 -7.647726535797119 C 18.16511154174805 -6.90471076965332 20.22477722167969 -6.539064407348633 22.31200981140137 -6.539064407348633 C 25.00129508972168 -6.539064407348633 27.26910972595215 -7.035192966461182 29.05248069763184 -8.013664245605469 C 30.95546722412109 -9.057792663574219 32.98893737792969 -10.9505500793457 35.09639739990234 -13.6393928527832 L 38.07516860961914 -17.43992042541504 L 44.14688110351562 -10.50079250335693 L 42.47563934326172 -7.958806991577148 C 39.62753677368164 -3.626821279525757 36.2557373046875 -0.304792732000351 32.45388031005859 1.914992928504944 C 28.56942367553711 4.183021545410156 24.19615364074707 5.333007335662842 19.45556640625 5.333007335662842 C 14.02786350250244 5.333007335662842 8.692035675048828 3.959138154983521 3.563690662384033 1.245019435882568 C -2.515339851379395 4.169088840484619 -9.013854026794434 5.650393009185791 -15.77391910552979 5.650393009185791 Z M -24.44559097290039 -39.01326370239258 C -29.23507308959961 -34.65956878662109 -31.57860374450684 -29.78938865661621 -31.57860374450684 -24.24805068969727 C -31.57860374450684 -18.86962127685547 -29.7648754119873 -14.53460693359375 -26.03376197814941 -10.99529266357422 C -22.2423038482666 -7.398721218109131 -17.57818984985352 -5.650392532348633 -11.77490425109863 -5.650392532348633 C -10.10238838195801 -5.650392532348633 -8.451750755310059 -5.7901611328125 -6.830015182495117 -6.068188667297363 C -7.965324878692627 -7.106099128723145 -9.056326866149902 -8.199132919311523 -10.09843254089355 -9.343363761901855 C -12.93861865997314 -12.46189308166504 -15.4904899597168 -16.04317855834961 -17.68316078186035 -19.98773574829102 C -19.8686466217041 -23.91933631896973 -21.61690521240234 -28.08183479309082 -22.87937545776367 -32.35959243774414 C -23.51824188232422 -34.5243034362793 -24.0412425994873 -36.74736022949219 -24.44559097290039 -39.01326370239258 Z M -1.872561454772949 -73.94921875 C -3.534847259521484 -73.94921875 -5.11693286895752 -73.21703338623047 -6.709204196929932 -71.71082305908203 C -8.599204063415527 -69.92300415039062 -10.15310478210449 -67.41920471191406 -11.3277759552002 -64.26898193359375 C -12.08784103393555 -62.23058319091797 -12.61496639251709 -60.07728576660156 -12.90506362915039 -57.83256530761719 C -9.997185707092285 -59.55010604858398 -7.63830041885376 -61.1130256652832 -5.857718467712402 -62.50333404541016 L -5.786661624908447 -62.55756378173828 C -3.894532918930054 -63.96804809570312 -2.367589950561523 -65.63777923583984 -1.248204350471497 -67.52037811279297 C -0.2310614883899689 -69.23101806640625 0.2846670746803284 -70.79633331298828 0.2846670746803284 -72.1728515625 C 0.2846670746803284 -73.12836456298828 0.0178527906537056 -73.37001037597656 -0.08259006589651108 -73.46097564697266 C -0.2159329205751419 -73.58173370361328 -0.6216900944709778 -73.94921875 -1.872561454772949 -73.94921875 Z" stroke="none" fill="#99e"/>
  </g>
</svg>
