<svg xmlns="http://www.w3.org/2000/svg" xmlns:xlink="http://www.w3.org/1999/xlink" width="288.579" height="298.298" viewBox="0 0 288.579 298.298">
  <defs>
    <filter id="Ellipse_75" x="0" y="23.192" width="275.106" height="275.106" filterUnits="userSpaceOnUse">
      <feOffset dy="5" input="SourceAlpha"/>
      <feGaussianBlur stdDeviation="5" result="blur"/>
      <feFlood flood-opacity="0.102"/>
      <feComposite operator="in" in2="blur"/>
      <feComposite in="SourceGraphic"/>
    </filter>
  </defs>
  <g id="chart" transform="translate(-1.34 -0.85)">
    <g id="base" transform="translate(16.34 34.042)">
      <g transform="matrix(1, 0, 0, 1, -15, -33.19)" filter="url(#Ellipse_75)">
        <g id="Ellipse_75-2" data-name="Ellipse 75" transform="translate(15 33.19)" fill="#fff" stroke="#eee" stroke-width="1">
          <ellipse cx="122.553" cy="122.553" rx="122.553" ry="122.553" stroke="none"/>
          <ellipse cx="122.553" cy="122.553" rx="122.053" ry="122.053" fill="none"/>
        </g>
      </g>
      <g id="Ellipse_76" data-name="Ellipse 76" transform="translate(24.511 24.511)" fill="rgba(254,153,204,0.2)" stroke="#fff" stroke-width="1">
        <circle cx="98.042" cy="98.042" r="98.042" stroke="none"/>
        <circle cx="98.042" cy="98.042" r="97.542" fill="none"/>
      </g>
      <g id="Ellipse_77" data-name="Ellipse 77" transform="translate(47.659 47.659)" fill="rgba(254,153,204,0.3)" stroke="#fff" stroke-width="1">
        <circle cx="74.893" cy="74.893" r="74.893" stroke="none"/>
        <circle cx="74.893" cy="74.893" r="74.393" fill="none"/>
      </g>
      <g id="Ellipse_78" data-name="Ellipse 78" transform="translate(70.808 70.808)" fill="rgba(254,153,204,0.4)" stroke="#fff" stroke-width="1">
        <circle cx="51.745" cy="51.745" r="51.745" stroke="none"/>
        <circle cx="51.745" cy="51.745" r="51.245" fill="none"/>
      </g>
      <circle id="Ellipse_79" data-name="Ellipse 79" cx="28.596" cy="28.596" r="28.596" transform="translate(93.957 93.957)" fill="#f9c"/>
    </g>
    <g id="data" transform="translate(43.574 77.617)">
      <g id="Path_5945" data-name="Path 5945" transform="translate(2.898 -12.776)" fill="none">
        <path d="M92.734,17.384l115.72,38.3L149.743,171.274H36.218L.482,62.743Z" stroke="none"/>
        <path d="M 92.88211822509766 19.53933715820312 L 2.926223754882812 63.77006530761719 L 37.664794921875 169.2736511230469 L 148.5154113769531 169.2736511230469 L 205.6179351806641 56.85617065429688 L 92.88211822509766 19.53933715820312 M 92.73389434814453 17.383544921875 L 208.4543609619141 55.68832397460938 L 149.7427215576172 171.2736511230469 L 36.21769714355469 171.2736511230469 L 0.482421875 62.74298858642578 L 92.73389434814453 17.383544921875 Z" stroke="none" fill="#fe99cc"/>
      </g>
      <circle id="Ellipse_80" data-name="Ellipse 80" cx="4.766" cy="4.766" r="4.766" transform="translate(91.234)" fill="#f9c"/>
      <circle id="Ellipse_81" data-name="Ellipse 81" cx="4.766" cy="4.766" r="4.766" transform="translate(205.617 38.128)" fill="#f9c"/>
      <circle id="Ellipse_82" data-name="Ellipse 82" cx="4.766" cy="4.766" r="4.766" transform="translate(148.425 152.51)" fill="#f9c"/>
      <circle id="Ellipse_83" data-name="Ellipse 83" cx="4.766" cy="4.766" r="4.766" transform="translate(35.404 152.51)" fill="#f9c"/>
      <circle id="Ellipse_84" data-name="Ellipse 84" cx="4.766" cy="4.766" r="4.766" transform="translate(0 44.936)" fill="#f9c"/>
    </g>
    <path id="Path_451274" data-name="Path 451274" d="M-45-8.15a4.535,4.535,0,0,1-.63,1.46,7.409,7.409,0,0,1-2.51,2.74,1.487,1.487,0,0,1,.56.52,9.64,9.64,0,0,0,2.39-2.6l3.37-.06a9.188,9.188,0,0,1-1.72,3.35A8.506,8.506,0,0,1-47.07-.21a1.508,1.508,0,0,1,.5.59,9.792,9.792,0,0,0,3.48-2.5,10.58,10.58,0,0,0,2-3.76c.11-.36.11-.37.2-.49l-.43-.42a.982.982,0,0,1-.52.07c-2.89.05-2.89.05-3.02.08a9.564,9.564,0,0,0,.46-.89,1.91,1.91,0,0,1,.22-.41Zm7.99,1.35a6.664,6.664,0,0,1,1.04-.05h3.36a6.664,6.664,0,0,1,1.04.05v-.77a4.589,4.589,0,0,1-1.05.07h-3.34a4.589,4.589,0,0,1-1.05-.07Zm-.86,2.3a9.205,9.205,0,0,1,1.16-.05h5.22a6.161,6.161,0,0,1-1.62,2.62A6.864,6.864,0,0,1-36.08-.41a2.175,2.175,0,0,1,.43.69A6.821,6.821,0,0,0-30.83-4.2a2.9,2.9,0,0,1,.28-.63l-.37-.43a1.688,1.688,0,0,1-.65.07H-36.7a7.2,7.2,0,0,1-1.17-.06ZM-20.74-.54a24.869,24.869,0,0,0-3.33-3,12.093,12.093,0,0,0,1.65-2.8,1.866,1.866,0,0,1,.28-.49l-.42-.43a1.865,1.865,0,0,1-.64.08l-3.57.04h-.26a4.7,4.7,0,0,1-.79-.05l.02.81a6.729,6.729,0,0,1,1.03-.08l3.34-.05a1.7,1.7,0,0,0,.24-.01.212.212,0,0,1-.03.07c-.02.05-.03.06-.05.12a10.839,10.839,0,0,1-3.57,4.51A8.05,8.05,0,0,1-28.87-.67a2.226,2.226,0,0,1,.49.66,12.877,12.877,0,0,0,1.96-1.2A10.855,10.855,0,0,0-24.51-3,18.6,18.6,0,0,1-21.31.09Zm8.48-.18v.6h.8a6.7,6.7,0,0,1-.05-.91V-6.15c0-.36,0-.53.02-.78-.25.01-.39.02-.52.02h-4.8a5.47,5.47,0,0,1-1.15-.07v.8a8.384,8.384,0,0,1,1.15-.05h4.55V-1.4h-4.76a4.889,4.889,0,0,1-1.09-.07v.79a8.045,8.045,0,0,1,1.07-.04Zm4.99-6.39A25.713,25.713,0,0,1-2.2-5.95l.26-.73a31.477,31.477,0,0,0-5.04-1.1Zm-.18,2.73A23.38,23.38,0,0,1-2.49-3.16l.26-.72A31.868,31.868,0,0,0-7.16-5.05Zm-.79,2.81a29.927,29.927,0,0,1,3.02.61A17.075,17.075,0,0,1-1.83.16l.28-.73A30.285,30.285,0,0,0-7.94-2.24ZM6.47-.59c.21-1.05.29-1.55.52-3.14a1.853,1.853,0,0,1,.16-.7l-.33-.29a1.01,1.01,0,0,1-.47.07H3.67a5.233,5.233,0,0,1-.89-.06v.72a4.47,4.47,0,0,1,.88-.04H6.33c-.09.9-.32,2.37-.55,3.44H2.74a4.19,4.19,0,0,1-.9-.06V.08A5.376,5.376,0,0,1,2.75.03h4.9a5.523,5.523,0,0,1,.91.05V-.65a4.135,4.135,0,0,1-.9.06ZM11.86-5.8a9.925,9.925,0,0,1,1.06-.04h3.84a9.925,9.925,0,0,1,1.06.04v-.81a6.225,6.225,0,0,1-1.07.06H12.93a6.225,6.225,0,0,1-1.07-.06ZM10.85-1.02A9.032,9.032,0,0,1,12-1.07h5.69a8.937,8.937,0,0,1,1.15.05v-.84a7.131,7.131,0,0,1-1.16.06H12.01a7.131,7.131,0,0,1-1.16-.06ZM27.48-4.34a9.128,9.128,0,0,1,1.15.05v-.74a7.2,7.2,0,0,1-1.16.06H21.62a7.2,7.2,0,0,1-1.16-.06v.74a9.128,9.128,0,0,1,1.15-.05h2.71a5.723,5.723,0,0,1-.4,2.07A3.794,3.794,0,0,1,21.39-.3a1.748,1.748,0,0,1,.47.65,5.88,5.88,0,0,0,1.76-.99,3.935,3.935,0,0,0,1.35-2.64,9.326,9.326,0,0,0,.11-1.06ZM21.47-6.75a8.043,8.043,0,0,1,1.14-.05h3.91a8.043,8.043,0,0,1,1.14.05v-.76a5.527,5.527,0,0,1-1.15.07H22.62a5.527,5.527,0,0,1-1.15-.07Zm15.05.59a3.257,3.257,0,0,1-.56.65A11,11,0,0,1,33.1-3.43a9.868,9.868,0,0,1-2.32.88,1.846,1.846,0,0,1,.35.6A11.652,11.652,0,0,0,34.2-3.33V-.36a5.743,5.743,0,0,1-.04.87h.78a5.344,5.344,0,0,1-.05-.88V-3.75A16.713,16.713,0,0,0,36.9-5.51a1.276,1.276,0,0,1,.24-.23Zm8.27-.47a2.878,2.878,0,0,1,1.16.25,2.636,2.636,0,0,1,1.59,2.51,3.019,3.019,0,0,1-1.77,2.8A5.994,5.994,0,0,1,44.1-.6a1.589,1.589,0,0,1,.35.67,7.736,7.736,0,0,0,1.52-.46,3.641,3.641,0,0,0,2.29-3.45,3.347,3.347,0,0,0-.97-2.44,3.871,3.871,0,0,0-2.75-.99,4.177,4.177,0,0,0-3.23,1.33,4.16,4.16,0,0,0-1.05,2.76c0,1.4.71,2.44,1.66,2.44.72,0,1.31-.6,1.89-1.92A14.99,14.99,0,0,0,44.79-6.63Zm-.72.01a13.735,13.735,0,0,1-.91,3.7c-.43.98-.83,1.45-1.25,1.45-.54,0-.96-.74-.96-1.7a3.458,3.458,0,0,1,1.63-2.98A3.158,3.158,0,0,1,44.07-6.62ZM-17.1,8.87a4.477,4.477,0,0,1-1.07,1.39,5.382,5.382,0,0,1-.7-1.94h2.04a8,8,0,0,1,1.11.05V7.71a6.757,6.757,0,0,1-1.09.06h-2.14a7.624,7.624,0,0,1-.06-.83,1.722,1.722,0,0,1,.02-.31h-.7c.01.07.01.08.03.19.02.17.05.45.08.66.02.23.02.23.03.29h-2.87a10.015,10.015,0,0,1-1.2-.05,6.555,6.555,0,0,1,.06.96,7.7,7.7,0,0,1-.34,2.63,2.961,2.961,0,0,1-.67,1.09,1.574,1.574,0,0,1,.55.41,4.881,4.881,0,0,0,1.01-3h2.05a5.006,5.006,0,0,1-.16,1.11c-.05.17-.16.23-.42.23a5.827,5.827,0,0,1-1.04-.11,1.657,1.657,0,0,1,.1.57,7.708,7.708,0,0,0,.97.07c.87,0,.98-.18,1.16-1.93.03-.27.03-.27.06-.5-.23.02-.41.03-.76.03h-1.93c0-.19.01-.4.01-.96h3.5a6.016,6.016,0,0,0,.87,2.3,6.853,6.853,0,0,1-2.02,1.11,1.944,1.944,0,0,1,.43.47,7.832,7.832,0,0,0,1.92-1.11,3.219,3.219,0,0,0,1.9,1.31c.45,0,.73-.41,1.02-1.46a1.874,1.874,0,0,1-.51-.38c-.17.83-.35,1.23-.55,1.23a3.055,3.055,0,0,1-1.43-1.08,7.354,7.354,0,0,0,.8-.85,7.947,7.947,0,0,1,.52-.66Zm.4-1.53a6.559,6.559,0,0,0-1.21-.76l-.45.32a5.751,5.751,0,0,1,1.22.81Zm-6.6,7.58h-.37a2.378,2.378,0,0,1-.75-.07v.67a5.734,5.734,0,0,1,.94-.06h7.03a7.816,7.816,0,0,1,.9.04v-.65a4.092,4.092,0,0,1-.79.05h-.36V13.26c0-.38.01-.63.03-.87-.23.02-.53.03-1.02.03h-4.63a7.848,7.848,0,0,1-1.01-.04c.02.23.03.51.03.86Zm.6-1.97h1.39v1.97H-22.7Zm1.96,0h1.42v1.97h-1.42Zm1.99,0h1.45v1.97h-1.45Zm6.41-6.05a2,2,0,0,1-.03.32,25.277,25.277,0,0,0-.34,3.69v.23l.02,1.04.01.18v.11l.72-.03c-.01-.15-.01-.2-.01-.24a5.219,5.219,0,0,1,.54-2.23c.57-1.17,1.21-1.74,1.97-1.74.96,0,1.52.93,1.52,2.54a3.444,3.444,0,0,1-1.72,3.32,5.284,5.284,0,0,1-2.03.63,2.064,2.064,0,0,1,.4.68,7.569,7.569,0,0,0,1.78-.59A4.126,4.126,0,0,0-7.2,10.88a4.108,4.108,0,0,0-.6-2.43,1.882,1.882,0,0,0-1.6-.89,2.385,2.385,0,0,0-2,1.29,4.462,4.462,0,0,0-.61,1.49c-.05.21-.05.21-.07.29l-.04-.01c.03-.51.17-1.6.33-2.61a5.669,5.669,0,0,1,.23-1.03ZM.14,10.57H2.67a7.676,7.676,0,0,1,1.04.06V9.86a7.472,7.472,0,0,1-1.04.06H.14V7.87A6.894,6.894,0,0,1,.21,6.83H-.64A6.985,6.985,0,0,1-.57,7.87v6.75H-3.25a9.479,9.479,0,0,1-1.18-.06v.76a8.811,8.811,0,0,1,1.18-.07H3.41a7.919,7.919,0,0,1,1.12.07v-.76a8.885,8.885,0,0,1-1.12.06H.14ZM12.28,7.15a7.665,7.665,0,0,1,1.03,1.59l.5-.3a7.592,7.592,0,0,0-1.03-1.55ZM5.84,10.23a13.018,13.018,0,0,1,2.01-.36,14.757,14.757,0,0,1-2.14,4.98l.68.4A19.422,19.422,0,0,0,8.55,9.81a5.742,5.742,0,0,1,.72-.05c.93,0,1.23.34,1.23,1.4a7.741,7.741,0,0,1-.42,2.78q-.2.48-.57.48a3.738,3.738,0,0,1-1.49-.46,1.845,1.845,0,0,1,.03.39,2.234,2.234,0,0,1-.02.36,3.762,3.762,0,0,0,1.51.39,1.045,1.045,0,0,0,.98-.47,6.893,6.893,0,0,0,.67-3.44,2.018,2.018,0,0,0-.49-1.61,1.911,1.911,0,0,0-1.44-.42,5.828,5.828,0,0,0-.59.03c.08-.43.17-.89.21-1.14a6.148,6.148,0,0,1,.19-.96L8.27,7v.13a12.352,12.352,0,0,1-.3,2.12,20.514,20.514,0,0,1-2.21.26Zm7.58-3.61a7.243,7.243,0,0,1,1.02,1.57l.5-.29a8.032,8.032,0,0,0-1.03-1.55ZM11.74,8.9a8.445,8.445,0,0,1,2.04,3.59l.64-.36a9.157,9.157,0,0,0-2.09-3.54Zm5.92-2a2,2,0,0,1-.03.32,25.277,25.277,0,0,0-.34,3.69v.23l.02,1.04.01.18v.11l.72-.03c-.01-.15-.01-.2-.01-.24a5.219,5.219,0,0,1,.54-2.23c.57-1.17,1.21-1.74,1.97-1.74.96,0,1.52.93,1.52,2.54a3.444,3.444,0,0,1-1.72,3.32,5.284,5.284,0,0,1-2.03.63,2.064,2.064,0,0,1,.4.68,7.569,7.569,0,0,0,1.78-.59,4.126,4.126,0,0,0,2.31-3.93,4.108,4.108,0,0,0-.6-2.43,1.882,1.882,0,0,0-1.6-.89,2.385,2.385,0,0,0-2,1.29,4.462,4.462,0,0,0-.61,1.49c-.05.21-.05.21-.07.29l-.04-.01c.03-.51.17-1.6.33-2.61a5.669,5.669,0,0,1,.23-1.03Z" transform="translate(134.787 9)"/>
    <path id="Path_451275" data-name="Path 451275" d="M-7.51-.72v.6h.8a6.7,6.7,0,0,1-.05-.91V-6.15c0-.36,0-.53.02-.78-.25.01-.39.02-.52.02h-4.8a5.47,5.47,0,0,1-1.15-.07v.8a8.384,8.384,0,0,1,1.15-.05h4.55V-1.4h-4.76a4.889,4.889,0,0,1-1.09-.07v.79a8.045,8.045,0,0,1,1.07-.04ZM4.01-.54a24.869,24.869,0,0,0-3.33-3,12.093,12.093,0,0,0,1.65-2.8,1.866,1.866,0,0,1,.28-.49l-.42-.43a1.865,1.865,0,0,1-.64.08l-3.57.04h-.26a4.7,4.7,0,0,1-.79-.05l.02.81a6.729,6.729,0,0,1,1.03-.08l3.34-.05a1.7,1.7,0,0,0,.24-.01.212.212,0,0,1-.03.07c-.02.05-.03.06-.05.12A10.839,10.839,0,0,1-2.09-1.82,8.05,8.05,0,0,1-4.12-.67a2.226,2.226,0,0,1,.49.66,12.877,12.877,0,0,0,1.96-1.2A10.855,10.855,0,0,0,.24-3,18.6,18.6,0,0,1,3.44.09ZM8.05-7.27a1.1,1.1,0,0,1,.01.16,7.931,7.931,0,0,1-.1.94A11.581,11.581,0,0,1,6.93-2.7,6.428,6.428,0,0,1,5.48-.72a2.189,2.189,0,0,1,.64.52A10.733,10.733,0,0,0,8.76-6.44a3.631,3.631,0,0,1,.13-.68Zm2.87.15a4.347,4.347,0,0,1,.13.66A12.015,12.015,0,0,0,13.77-.18a2.163,2.163,0,0,1,.62-.56,8.826,8.826,0,0,1-2.27-4.13,12.085,12.085,0,0,1-.46-2.4Zm2.69-.92a1.137,1.137,0,0,0-1.14,1.13,1.137,1.137,0,0,0,1.14,1.13,1.135,1.135,0,0,0,1.13-1.13A1.123,1.123,0,0,0,13.61-8.04Zm0,.42a.713.713,0,0,1,.71.71.713.713,0,0,1-.71.71.715.715,0,0,1-.72-.71A.715.715,0,0,1,13.61-7.62Z" transform="translate(15 94.787)"/>
    <path id="Path_451276" data-name="Path 451276" d="M-10.98-7.32c-.35,0-.52-.01-.76-.03a5.119,5.119,0,0,1,.03.76v2.13a7.244,7.244,0,0,1-.03.77c.21-.02.47-.03.75-.03h1.97c.25,0,.5.01.7.03a4.982,4.982,0,0,1-.03-.77V-6.58a4.982,4.982,0,0,1,.03-.77c-.26.02-.41.03-.73.03h-1c.18-.39.26-.57.41-.95l-.65-.12a5.385,5.385,0,0,1-.36,1.07Zm-.17.51h2.24v1.02h-2.24Zm0,1.53h2.24v1.05h-2.24Zm4.3,3.11a7.63,7.63,0,0,1,1.13.06v-.66a7.357,7.357,0,0,1-1.13.06H-9.73v-.08a3.1,3.1,0,0,1,.05-.67h-.72a4.119,4.119,0,0,1,.05.68v.07h-2.81a7.321,7.321,0,0,1-1.11-.06v.66a7.474,7.474,0,0,1,1.12-.06h2.51A8.759,8.759,0,0,1-14.56-.09a1.982,1.982,0,0,1,.44.58,8.911,8.911,0,0,0,3.81-2.32c-.02.24-.04.79-.04.95v.54A7.43,7.43,0,0,1-10.41.71h.74A7.236,7.236,0,0,1-9.73-.34V-.88c0-.13-.01-.43-.02-.55-.01-.28-.01-.28-.02-.41A8.8,8.8,0,0,0-5.8.51,2.365,2.365,0,0,1-5.38-.1,12.213,12.213,0,0,1-7.61-.9,6.725,6.725,0,0,1-9.43-2.17Zm-7.36-5.1a8.113,8.113,0,0,1,1.47,1.4l.45-.46a11.077,11.077,0,0,0-1.48-1.38Zm2.05,1.95a9.125,9.125,0,0,1-2.32,1.21l.27.62c.12-.07.17-.1.35-.19a14.552,14.552,0,0,0,1.85-1.08ZM-6.3-7.77A7.078,7.078,0,0,1-7.97-6.18l.41.43a9.875,9.875,0,0,0,1.74-1.6ZM-8.12-4.85A14.21,14.21,0,0,1-5.85-3.52l.37-.5A21.932,21.932,0,0,0-7.79-5.31ZM-2.68-7.8a3.076,3.076,0,0,1,.04.53c0,.16,0,.35-.01.65-.08,3.15-.09,3.4-.09,4.07A2.786,2.786,0,0,0-2.19-.5,2.372,2.372,0,0,0-.31.2,3.5,3.5,0,0,0,2.51-1.05,6.083,6.083,0,0,0,3.62-3.32,2.829,2.829,0,0,1,2.9-3.8a5.941,5.941,0,0,1-.49,1.57A2.872,2.872,0,0,1-.27-.49,1.887,1.887,0,0,1-1.52-.88a1.574,1.574,0,0,1-.47-1.2c-.01-.23-.02-.48-.02-.6,0-.45.03-1.81.07-3.01A15.418,15.418,0,0,1-1.81-7.8ZM6.51-5.29a2.209,2.209,0,0,1,.39-.03,29.445,29.445,0,0,0,3.56-.26c.06.1.06.12.17.33a12.194,12.194,0,0,0,1.2,1.96,4.993,4.993,0,0,0-2.07-.36,4.251,4.251,0,0,0-1.94.37A1.869,1.869,0,0,0,6.69-1.65a1.613,1.613,0,0,0,.45,1.1A3.666,3.666,0,0,0,9.74.2a8.29,8.29,0,0,0,2.94-.54l-.11-.77a6.593,6.593,0,0,1-2.84.64A3.387,3.387,0,0,1,7.78-.93a1,1,0,0,1-.38-.78,1.136,1.136,0,0,1,.54-.93,3.545,3.545,0,0,1,1.9-.42,5.419,5.419,0,0,1,1.75.26,2,2,0,0,1,.69.41l.67-.38a18.519,18.519,0,0,1-1.8-2.91l.34-.07c.63-.12.75-.15,1.35-.31.3-.08.38-.1.59-.14l-.1-.71a11.7,11.7,0,0,1-2.42.63,8.227,8.227,0,0,1-.36-.88,3.187,3.187,0,0,1-.29-.9l-.79.11c.09.18.15.32.26.58.18.45.34.85.49,1.19a23.341,23.341,0,0,1-2.98.21,4.384,4.384,0,0,1-.77-.05ZM-28.62,8.88a1.036,1.036,0,0,1,.16-.01,1.624,1.624,0,0,1,.18.01c.8.03,1.25.05,1.35.05h.4c-.05.73-.05.78-.06,1.51a3.408,3.408,0,0,0-2.32,2.98,1.365,1.365,0,0,0,1.29,1.52,3.278,3.278,0,0,0,2.23-1.21,9.005,9.005,0,0,0,1.9-3c1.08.28,1.65.88,1.65,1.74a2.2,2.2,0,0,1-1.72,2,4.657,4.657,0,0,1-1.5.27,2.062,2.062,0,0,1,.32.67,5.505,5.505,0,0,0,2.04-.57,2.565,2.565,0,0,0,1.57-2.31,2.4,2.4,0,0,0-2.15-2.34c.17-.47.28-.74.31-.8l-.69-.21a3.755,3.755,0,0,1-.24.9c-.25-.02-.37-.03-.58-.03a5.284,5.284,0,0,0-1.48.2c.01-.49.01-.49.07-1.34a28.013,28.013,0,0,0,3.54-.4c.19-.03.22-.03.35-.05l-.04-.7a15.366,15.366,0,0,1-3.81.56,6.649,6.649,0,0,1,.21-1.4l-.78-.05a1.062,1.062,0,0,1,.01.15c0,.07-.02.46-.03.57-.04.51-.04.51-.05.75-.18.01-.22.01-.25.01a7,7,0,0,1-1.87-.16Zm2.03,2.19a14.143,14.143,0,0,0,.2,2.71,1.805,1.805,0,0,1-1.15.51c-.43,0-.72-.36-.72-.91a2.362,2.362,0,0,1,.61-1.49A3.574,3.574,0,0,1-26.59,11.07Zm.74,2.29v-.11a.66.66,0,0,0-.01-.14,16.819,16.819,0,0,1-.11-2.29,4.5,4.5,0,0,1,1.39-.23c.11,0,.16,0,.48.02a9.032,9.032,0,0,1-1.53,2.5,1.084,1.084,0,0,0-.19.26Zm8.26-5.06a4.927,4.927,0,0,1,.54-.05c1.52-.05,2.72-.12,3.04-.18a.387.387,0,0,1,.09-.01l.02.02-.04.04-.04.04-.14.14c-.69.68-2.27,2.07-3.34,2.92a11.14,11.14,0,0,1-1.4,1.02l.45.64a6.417,6.417,0,0,1,4.21-1.71c1.35,0,2.15.57,2.15,1.53,0,.85-.55,1.46-1.6,1.75a2.863,2.863,0,0,0-.46-.96,2.014,2.014,0,0,0-1.65-.82,1.3,1.3,0,0,0-1.45,1.17c0,.92.81,1.44,2.22,1.44,2.22,0,3.67-1.03,3.67-2.59,0-1.28-1.07-2.1-2.74-2.1a5.067,5.067,0,0,0-2.45.62l-.02-.03a25.66,25.66,0,0,0,3.29-2.84,1.846,1.846,0,0,1,.51-.42l-.42-.55a1.023,1.023,0,0,1-.48.11c-.9.07-2.23.13-3.06.13a4.618,4.618,0,0,1-.94-.06Zm3.28,6.33a3.6,3.6,0,0,1-.73.07,2.555,2.555,0,0,1-1.12-.23.682.682,0,0,1-.4-.61c0-.38.31-.62.81-.62C-15.03,13.24-14.53,13.72-14.31,14.63Zm5.67-6.72a5.41,5.41,0,0,1,.03.59,15.024,15.024,0,0,0,.54,4.69c.34.96.86,1.52,1.42,1.52.71,0,1.17-.67,1.66-2.42a3.2,3.2,0,0,1-.59-.57,7.2,7.2,0,0,1-.52,1.71c-.15.33-.32.5-.5.5-.38,0-.79-.69-1.01-1.71a17.125,17.125,0,0,1-.26-3.11A7.249,7.249,0,0,1-7.8,7.92Zm5.06.85A8.832,8.832,0,0,1-1.5,13.69l.71-.29a9.575,9.575,0,0,0-.75-2.67A8.68,8.68,0,0,0-2.97,8.45ZM3.67,9.84h.04a.459.459,0,0,1,.1.01,1.489,1.489,0,0,1,.17.01,2.623,2.623,0,0,1,.32.02c.35.02.72.03,1.13.03.38,0,.69-.01,1.14-.03.03,1.46.07,2.4.1,2.61a2.825,2.825,0,0,0-1.11-.2c-1.11,0-1.9.59-1.9,1.42,0,.87.73,1.42,1.89,1.42a1.708,1.708,0,0,0,1.67-.84,1.724,1.724,0,0,0,.12-.68,1.435,1.435,0,0,0-.02-.26.7.7,0,0,1,.09.06.642.642,0,0,0,.1.06,5.4,5.4,0,0,1,1.42,1.04l.31-.7c-.11-.07-.13-.09-.25-.17a7.239,7.239,0,0,0-1.67-.98c-.08-1.33-.1-1.84-.11-2.83a9.56,9.56,0,0,0,1.06-.16c.68-.14.68-.14.7-.14l-.03-.68a6.816,6.816,0,0,1-1.73.37C7.2,9,7.2,8.84,7.2,8.73a10.231,10.231,0,0,1,.07-1.57H6.52a2.218,2.218,0,0,1,.03.41c0,.76,0,.76.01,1.7-.41.02-.68.03-1.07.03a6.922,6.922,0,0,1-1.8-.16ZM6.68,13.1s.01.23.01.3a1.168,1.168,0,0,1-.19.78,1.378,1.378,0,0,1-1.02.35c-.7,0-1.16-.32-1.16-.81s.51-.83,1.29-.83A2.583,2.583,0,0,1,6.68,13.1ZM1.9,7.15a4.606,4.606,0,0,1-.11.63,16.944,16.944,0,0,0-.52,4.11,15.919,15.919,0,0,0,.28,2.97c.04.23.05.28.06.37l.71-.07a1.089,1.089,0,0,1-.02-.2,8.635,8.635,0,0,1,.86-2.84l-.49-.23a1.379,1.379,0,0,1-.08.2A8.877,8.877,0,0,0,2,13.85l-.04-.01v-.19c-.01-.18-.01-.2-.01-.28-.02-.46-.04-1.05-.04-1.4a14.249,14.249,0,0,1,.77-4.69ZM16.3,11.4v-.45a4,4,0,0,1,.05-.72h-.69a5.232,5.232,0,0,1,.05.73v.44h-1.7a6.9,6.9,0,0,1-.99-.06v.67a7.1,7.1,0,0,1,.99-.06h1.52a5.485,5.485,0,0,1-.97,1.16,7.557,7.557,0,0,1-2.07,1.28,1.982,1.982,0,0,1,.43.53,7.743,7.743,0,0,0,1.57-1.03,5.609,5.609,0,0,0,1.26-1.44c-.03.55-.04.74-.04,1.02V14.7a7.011,7.011,0,0,1-.06,1.01h.71a6.956,6.956,0,0,1-.06-1V13.46c0-.35-.01-.6-.04-1.04a7.3,7.3,0,0,0,1.29,1.4,10.047,10.047,0,0,0,1.8,1.14,1.81,1.81,0,0,1,.38-.62,8.365,8.365,0,0,1-2.05-1.13,5.76,5.76,0,0,1-1.2-1.26h2.03a9.35,9.35,0,0,1,.97.05v-.66a6.9,6.9,0,0,1-.97.06Zm.26-3.75c.01.15.01.22.01.29v1.7c0,.5.23.6,1.31.6.74,0,1.06-.05,1.23-.18a1.429,1.429,0,0,0,.3-.95,1.6,1.6,0,0,1-.58-.2,1.928,1.928,0,0,1-.06.56c-.06.18-.2.22-.7.22a6.861,6.861,0,0,1-.74-.03.182.182,0,0,1-.18-.21V7.93c0-.1,0-.16.01-.28h1.48V8.7h.63a4.975,4.975,0,0,1-.03-.6V7.77a6.465,6.465,0,0,1,.03-.69,9.734,9.734,0,0,1-1.14.04H14.17a9.14,9.14,0,0,1-1.01-.04,5.98,5.98,0,0,1,.03.64v.62a5.353,5.353,0,0,1-.03.58h.62V7.65h1.25a2.589,2.589,0,0,1-.56,1.76,2.758,2.758,0,0,1-1.45.81,1.653,1.653,0,0,1,.37.53A3.26,3.26,0,0,0,14.98,9.7a3.572,3.572,0,0,0,.64-2.05Zm-5.67-.42a6.709,6.709,0,0,1,1.58,1.48l.41-.52A9.654,9.654,0,0,0,11.3,6.78Zm-.47,2.44a7.889,7.889,0,0,1,1.73,1.38l.39-.55A10.089,10.089,0,0,0,10.8,9.2ZM12.07,12a8.591,8.591,0,0,1-1.59,3.01l.59.52c.15-.28.15-.28.25-.44a16.685,16.685,0,0,0,1.28-2.7Zm9.44-2.29a2.209,2.209,0,0,1,.39-.03,29.445,29.445,0,0,0,3.56-.26c.06.1.06.12.17.33a12.194,12.194,0,0,0,1.2,1.96,4.993,4.993,0,0,0-2.07-.36,4.251,4.251,0,0,0-1.94.37,1.869,1.869,0,0,0-1.13,1.63,1.613,1.613,0,0,0,.45,1.1,3.666,3.666,0,0,0,2.6.75,8.29,8.29,0,0,0,2.94-.54l-.11-.77a6.593,6.593,0,0,1-2.84.64,3.387,3.387,0,0,1-1.95-.46,1,1,0,0,1-.38-.78,1.136,1.136,0,0,1,.54-.93,3.545,3.545,0,0,1,1.9-.42,5.419,5.419,0,0,1,1.75.26,2,2,0,0,1,.69.41l.67-.38a18.519,18.519,0,0,1-1.8-2.91l.34-.07c.63-.12.75-.15,1.35-.31.3-.08.38-.1.59-.14l-.1-.71a11.7,11.7,0,0,1-2.42.63,8.227,8.227,0,0,1-.36-.88,3.187,3.187,0,0,1-.29-.9l-.79.11c.09.18.15.32.26.58.18.45.34.85.49,1.19a23.341,23.341,0,0,1-2.98.21,4.384,4.384,0,0,1-.77-.05Z" transform="translate(261.489 81.17)"/>
    <path id="Path_451277" data-name="Path 451277" d="M-18.73-4.7v.64h-1c-.56,0-.82-.01-1.1-.03a9.54,9.54,0,0,1,.04.97v1.63a2.436,2.436,0,0,1-.53-.05v.59A2.576,2.576,0,0,1-20.79-1v.61a10.528,10.528,0,0,1-.04,1.1h.64a8.933,8.933,0,0,1-.04-1.1V-1h3.57v.76c0,.23-.07.28-.36.28a7.545,7.545,0,0,1-1.14-.08,2.589,2.589,0,0,1,.11.57c.32.03.7.04.99.04.76,0,.96-.15.96-.76V-1a5.568,5.568,0,0,1,.65.05v-.59a2.844,2.844,0,0,1-.65.05v-1.6c.01-.53.01-.53.01-.69.01-.08.01-.17.04-.33a8.243,8.243,0,0,1-.97.05H-18.2V-4.7h1.79a4.745,4.745,0,0,1,.93.06v-.61a4.626,4.626,0,0,1-.93.06h-.77v-.74h.46a4.718,4.718,0,0,1,.82.05v-.56a6.111,6.111,0,0,1-.82.04h-.46v-.66h.67a5.246,5.246,0,0,1,.85.05v-.6a3.9,3.9,0,0,1-.85.06h-.67a4.187,4.187,0,0,1,.06-.78h-.66a2.634,2.634,0,0,1,.06.78h-1.52a3.512,3.512,0,0,1,.06-.78h-.66a3.637,3.637,0,0,1,.06.78h-.54a3.783,3.783,0,0,1-.86-.06v.6a5.026,5.026,0,0,1,.85-.05h.55v.66h-.34a5.924,5.924,0,0,1-.82-.04v.56a4.648,4.648,0,0,1,.82-.05h.34v.74h-.58a4.857,4.857,0,0,1-.94-.06v.61a4.8,4.8,0,0,1,.94-.06Zm0,3.21h-1.5v-.83h1.5Zm.53,0v-.83h1.54v.83Zm-.53-1.3h-1.5v-.79h1.5Zm.53,0v-.79h1.54v.79Zm-1.04-2.4v-.74h1.52v.74Zm0-1.21v-.66h1.52v.66Zm-4.9-.99a5.073,5.073,0,0,1,.73-.04h1.05a5.348,5.348,0,0,1,.73.04v-.63a3.853,3.853,0,0,1-.73.05h-1.05a3.789,3.789,0,0,1-.73-.05Zm-.32,1.4a5.411,5.411,0,0,1,.77-.04h1.56a4.1,4.1,0,0,1,.69.04v-.65a3.694,3.694,0,0,1-.76.05h-1.49a3.926,3.926,0,0,1-.77-.05Zm.37,1.38a4.578,4.578,0,0,1,.69-.04h1.11a4.733,4.733,0,0,1,.67.04v-.61a3.91,3.91,0,0,1-.67.04H-23.4a4.175,4.175,0,0,1-.69-.04Zm0,1.38a4.274,4.274,0,0,1,.68-.04h1.11a4.355,4.355,0,0,1,.68.04v-.62a4.041,4.041,0,0,1-.68.04h-1.1a4.023,4.023,0,0,1-.69-.04Zm.55,3.96V.15h1.38V.52h.58a6.043,6.043,0,0,1-.04-.81V-1.61a6,6,0,0,1,.03-.84,3.654,3.654,0,0,1-.65.04h-1.22a5.027,5.027,0,0,1-.69-.04,5.689,5.689,0,0,1,.05.9V-.26a6.436,6.436,0,0,1-.06.99Zm-.01-2.64h1.39V-.37h-1.39Zm10.14-5.01c-.32,0-.56-.01-.77-.03.02.2.04.51.04.7V-.32a5.615,5.615,0,0,1-.07.96h.67V-.2h1.94V.38h.65A5.378,5.378,0,0,1-11-.48V-2.33a5.411,5.411,0,0,1,.04-.77,6.169,6.169,0,0,1-.73.03h-1.85V-4.25h1.8a6.466,6.466,0,0,1,.7.02,5.989,5.989,0,0,1-.03-.66V-6.32a5.916,5.916,0,0,1,.03-.63c-.22.02-.41.03-.7.03h-.78A8.8,8.8,0,0,0-12-8.22l-.66-.11a5.576,5.576,0,0,1-.48,1.41Zm-.13.54h1.88v1.59h-1.88Zm0,3.86h1.94V-.75h-1.94Zm5.13-4.73v1.38H-9.46a6.884,6.884,0,0,1-.86-.04,5.5,5.5,0,0,1,.04.77v3.7a5.949,5.949,0,0,1-.06.98h.72a5.205,5.205,0,0,1-.05-.94V-5.33h1.26V-.16a4.808,4.808,0,0,1-.07.91h.75A4.6,4.6,0,0,1-7.8-.16V-5.33h1.43v3.95c0,.17-.06.22-.22.22a4.4,4.4,0,0,1-.78-.1,1.657,1.657,0,0,1,.14.63,6.034,6.034,0,0,0,.7.04c.56,0,.76-.18.76-.7V-5.17a5.046,5.046,0,0,1,.04-.74,5.657,5.657,0,0,1-.78.04H-7.8V-7.25h1.45a5.57,5.57,0,0,1,.88.05v-.67a5.706,5.706,0,0,1-.9.06H-9.79a5.843,5.843,0,0,1-.91-.06v.67a5.629,5.629,0,0,1,.89-.05Zm8.95.62a2.878,2.878,0,0,1,1.16.25A2.636,2.636,0,0,1,3.29-3.87a3.019,3.019,0,0,1-1.77,2.8A5.994,5.994,0,0,1-.15-.6,1.589,1.589,0,0,1,.2.07,7.736,7.736,0,0,0,1.72-.39,3.641,3.641,0,0,0,4.01-3.84a3.347,3.347,0,0,0-.97-2.44A3.871,3.871,0,0,0,.29-7.27,4.177,4.177,0,0,0-2.94-5.94,4.16,4.16,0,0,0-3.99-3.18c0,1.4.71,2.44,1.66,2.44.72,0,1.31-.6,1.89-1.92A14.99,14.99,0,0,0,.54-6.63Zm-.72.01a13.735,13.735,0,0,1-.91,3.7c-.43.98-.83,1.45-1.25,1.45-.54,0-.96-.74-.96-1.7A3.458,3.458,0,0,1-1.67-6.15,3.158,3.158,0,0,1-.18-6.62ZM9.59-8.19a6.828,6.828,0,0,1,.04.88A8.19,8.19,0,0,1,7.56-1.44,7.061,7.061,0,0,1,5.52.07a1.908,1.908,0,0,1,.54.59A8.5,8.5,0,0,0,7.9-.8,6.726,6.726,0,0,0,9.33-2.85a8.471,8.471,0,0,0,.69-2.23,8.628,8.628,0,0,0,1.3,3.18A9.158,9.158,0,0,0,13.97.66a2.275,2.275,0,0,1,.52-.63,7.364,7.364,0,0,1-1.16-.78,8.841,8.841,0,0,1-1.48-1.58,8.753,8.753,0,0,1-1.29-2.8,12.977,12.977,0,0,1-.22-2.17,6.8,6.8,0,0,1,.05-.89ZM21.63-5.9c.04-.56.04-.57.06-1.38h1.87a9.291,9.291,0,0,1,1,.04v-.68a6.06,6.06,0,0,1-1,.06H19.43a6.621,6.621,0,0,1-1.01-.05v.67a9.257,9.257,0,0,1,1.01-.04H21.1c0,.63-.01.75-.04,1.38H19.81a9.011,9.011,0,0,1-1.06-.04c.02.26.03.59.03.97V-.39a10.735,10.735,0,0,1-.05,1.1h.71a7.763,7.763,0,0,1-.05-1.09V-5.34h1.63a4.282,4.282,0,0,1-1.6,3.28,1.673,1.673,0,0,1,.42.5,5.047,5.047,0,0,0,1.59-2.9A5.624,5.624,0,0,0,23-1.66a2.557,2.557,0,0,1,.41-.53,4.684,4.684,0,0,1-1.39-1.92,5.646,5.646,0,0,1-.37-1.23h1.87V-.35c0,.27-.08.32-.53.32a7.782,7.782,0,0,1-1.13-.08,2.172,2.172,0,0,1,.17.64c.3.02.7.03.94.03.9,0,1.16-.17,1.16-.76V-4.89a10.415,10.415,0,0,1,.04-1.06,6.643,6.643,0,0,1-1.06.05Zm-4.81-.51h-.59a3.95,3.95,0,0,1-.69-.04v.62a4.252,4.252,0,0,1,.69-.04h.51a9.754,9.754,0,0,1-1.5,3.61,2.1,2.1,0,0,1,.4.54A9.32,9.32,0,0,0,16.87-4.8c-.03.6-.05,1.11-.05,1.52V-.41A8.5,8.5,0,0,1,16.76.75h.71a6.915,6.915,0,0,1-.06-1.16V-3.47c0-.42-.02-.93-.05-1.55a6.443,6.443,0,0,0,.86,1.68,2.568,2.568,0,0,1,.38-.46,6.107,6.107,0,0,1-1.17-2.07h.44a6.192,6.192,0,0,1,.63.03v-.61a3.547,3.547,0,0,1-.63.04h-.46v-.95a6.373,6.373,0,0,1,.05-1.02h-.69a5.987,5.987,0,0,1,.05,1.03Z" transform="translate(242.872 279.978)"/>
    <path id="Path_451278" data-name="Path 451278" d="M-27.18-6.03a5.509,5.509,0,0,1-1.08-.07l.01.76a6.028,6.028,0,0,1,1.06-.05l1.82-.01a6.507,6.507,0,0,1-.62,2.38,5.849,5.849,0,0,1-2.6,2.63,2.072,2.072,0,0,1,.51.59,7.222,7.222,0,0,0,2.62-2.65,7.541,7.541,0,0,0,.8-2.95l2.8-.01a22.019,22.019,0,0,1-.25,3.55c-.19.99-.35,1.23-.84,1.23a4.222,4.222,0,0,1-1.29-.26,1.644,1.644,0,0,1,.11.63v.12a5.692,5.692,0,0,0,1.24.17c.9,0,1.2-.36,1.45-1.73a27.279,27.279,0,0,0,.28-3.5,1.5,1.5,0,0,1,.08-.6l-.37-.32a1.6,1.6,0,0,1-.66.07l-2.5.01c.03-.28.03-.4.05-.71a8.349,8.349,0,0,1,.08-1.29l-.81-.02a2.68,2.68,0,0,1,.04.52c0,.44-.02.99-.06,1.5Zm9.93-1.69a5.881,5.881,0,0,1,.04.84v2.67a6.063,6.063,0,0,1-.04.84h.83a5.3,5.3,0,0,1-.04-.83V-6.89a5.463,5.463,0,0,1,.04-.83Zm4.42,0a5.56,5.56,0,0,1,.04.88v1.13a12.434,12.434,0,0,1-.14,2.55,2.983,2.983,0,0,1-1.6,2.11,5.822,5.822,0,0,1-1.9.68,1.912,1.912,0,0,1,.42.69A7.873,7.873,0,0,0-14.19-.4a3.8,3.8,0,0,0,1.9-2.22,11.27,11.27,0,0,0,.25-3.05V-6.85a4.464,4.464,0,0,1,.05-.87Zm7.48,1.73-2.04.32a7.491,7.491,0,0,1-1.04.1l.14.76a8.237,8.237,0,0,1,1-.22l2.06-.32.36,2.02-2.66.43a5.263,5.263,0,0,1-.99.09l.13.76a5.3,5.3,0,0,1,.96-.2l2.68-.43.41,2.24a7.971,7.971,0,0,1,.12.96l.8-.15a5.426,5.426,0,0,1-.22-.95l-.41-2.21,2.51-.4c.07-.01.12-.02.23-.04.17-.03.27-.05.31-.05a2.955,2.955,0,0,1,.44-.05L-.7-4.07a6.145,6.145,0,0,1-.99.23l-2.48.4-.38-2.02,2.27-.35c.62-.1.62-.1.89-.13l-.14-.72a4.7,4.7,0,0,1-.88.2l-2.26.35-.2-1.1a5.153,5.153,0,0,1-.11-.85l-.79.13a3.41,3.41,0,0,1,.22.85ZM6.62-.59c.21-1.05.29-1.55.52-3.14a1.853,1.853,0,0,1,.16-.7l-.33-.29a1.01,1.01,0,0,1-.47.07H3.82a5.233,5.233,0,0,1-.89-.06v.72a4.47,4.47,0,0,1,.88-.04H6.48c-.09.9-.32,2.37-.55,3.44H2.89a4.19,4.19,0,0,1-.9-.06V.08A5.376,5.376,0,0,1,2.9.03H7.8a5.523,5.523,0,0,1,.91.05V-.65a4.135,4.135,0,0,1-.9.06ZM12.34-6.8a6.664,6.664,0,0,1,1.04-.05h3.36a6.664,6.664,0,0,1,1.04.05v-.77a4.589,4.589,0,0,1-1.05.07H13.39a4.589,4.589,0,0,1-1.05-.07Zm-.86,2.3a9.205,9.205,0,0,1,1.16-.05h5.22a6.161,6.161,0,0,1-1.62,2.62A6.864,6.864,0,0,1,13.27-.41a2.175,2.175,0,0,1,.43.69A6.821,6.821,0,0,0,18.52-4.2a2.9,2.9,0,0,1,.28-.63l-.37-.43a1.688,1.688,0,0,1-.65.07H12.65a7.2,7.2,0,0,1-1.17-.06ZM23.8-7.95a18.975,18.975,0,0,1-.79,2.88A38.138,38.138,0,0,1,21.5-1.11c-.23.02-.78.05-.85.05-.05,0-.05,0-.28-.01l.1.83a6.954,6.954,0,0,1,.85-.11,61.773,61.773,0,0,0,6.15-.83A13.574,13.574,0,0,1,28.06.17l.7-.38a25.9,25.9,0,0,0-2.49-4.52l-.62.34A19.453,19.453,0,0,1,27.19-1.8c-1.18.23-3.53.54-4.86.63a54.179,54.179,0,0,0,2.08-5.85,3.954,3.954,0,0,1,.27-.72Z" transform="translate(43.617 279.978)"/>
  </g>
</svg>
