<svg xmlns="http://www.w3.org/2000/svg" xmlns:xlink="http://www.w3.org/1999/xlink" width="404.922" height="249.414" viewBox="0 0 404.922 249.414">
  <defs>
    <linearGradient id="linear-gradient" x1="0.5" x2="0.5" y2="1" gradientUnits="objectBoundingBox">
      <stop offset="0" stop-color="#aaa"/>
      <stop offset="1" stop-color="#666"/>
    </linearGradient>
  </defs>
  <g id="Group_207053" data-name="Group 207053" transform="translate(-745.116 -8148.41)">
    <path id="Path_378121" data-name="Path 378121" d="M32.617-247.266-16.8-48.047l-5.469,2.539L6.641-235.547ZM-24.8-29.492A15.357,15.357,0,0,1-13.477-25,15.357,15.357,0,0,1-8.984-13.672,15.357,15.357,0,0,1-13.477-2.344,15.357,15.357,0,0,1-24.8,2.148,15.778,15.778,0,0,1-36.133-2.344,15.026,15.026,0,0,1-40.82-13.672,15.026,15.026,0,0,1-36.133-25,15.778,15.778,0,0,1-24.8-29.492Z" transform="translate(953.102 8395.676)" opacity="0.254" fill="url(#linear-gradient)"/>
    <path id="Path_378120" data-name="Path 378120" d="M-111.992-34.609-119.414,0h-5a61.136,61.136,0,0,0-9.258-17.891,61.974,61.974,0,0,0-14.414-14.3,88.382,88.382,0,0,1-11.875,14.844,81.528,81.528,0,0,1-13.945,11.25,67.119,67.119,0,0,1-15.352,7.266A50.587,50.587,0,0,1-204.883,3.75a28.548,28.548,0,0,1-4.531-.391l2.5-5.937a60.609,60.609,0,0,0,6.25.469q21.406,0,38.125-16.719a91.59,91.59,0,0,0,6.992-7.93,126.159,126.159,0,0,0,7.383-10.508q8.516-13.359,14.531-25l7.344-14.141q8.672-16.641,13.359-22.539t9.3-5.9a5.329,5.329,0,0,1,2.617.625,4.28,4.28,0,0,1,1.758,1.836,5.789,5.789,0,0,1,.625,2.7,19.17,19.17,0,0,1-.391,3.2q-.391,2.813-.469,3.047l-11.953,56.172h5.547l-.547,2.656Zm-7.344,0H-146.6l.313.234a84.8,84.8,0,0,1,11.953,10.938A93.459,93.459,0,0,1-124.57-10Zm-25.156-2.656h25.7L-107.7-90.391q.547-2.578.547-2.656a9.9,9.9,0,0,0,.469-2.812q0-1.953-1.719-1.953-2.109,0-5.078,4.453t-10.312,18.281q-1.094,2.109-4.453,8.516-2.812,5.078-3.047,5.625l-7.5,13.672Q-143.477-38.75-144.492-37.266ZM-83.961.781-75.68-42.5l7.422-3.2-6.719,28.672Q-68.492-30.7-62.086-37.812t12.266-7.109a6.134,6.134,0,0,1,4.688,1.914,7.174,7.174,0,0,1,1.8,5.117,21.658,21.658,0,0,1-.859,5.078l-.781,3.281L-47.32-20l-.781,3.047a32.206,32.206,0,0,0-1.172,7.188,8.164,8.164,0,0,0,.859,4.023,2.56,2.56,0,0,0,2.266,1.523q2.422,0,7.734-5.781l1.25,1.094-.781.859a74.884,74.884,0,0,1-6.562,7.07A6.2,6.2,0,0,1-48.414.859a4.884,4.884,0,0,1-4.1-2.461A10.632,10.632,0,0,1-54.2-7.734a43.472,43.472,0,0,1,.938-7.422l3.047-16.562a40.713,40.713,0,0,0,.625-5.469,3.386,3.386,0,0,0-.859-2.5,3.167,3.167,0,0,0-2.344-.859q-5.391,0-13.281,11.563A73.567,73.567,0,0,0-72.4-18.008,144.361,144.361,0,0,0-78.023-2.969l-.7,2.109ZM-21.164-5l4.375-5.156q3.438,8.125,10.938,8.125A9.544,9.544,0,0,0,.828-4.57a7.78,7.78,0,0,0,2.773-5.9,6.57,6.57,0,0,0-1.328-4.141,46.245,46.245,0,0,0-6.328-5.781,38.955,38.955,0,0,1-6.211-5.9,8.078,8.078,0,0,1-1.6-4.961,11.755,11.755,0,0,1,2.148-6.8,15.888,15.888,0,0,1,5.742-5.039A15.9,15.9,0,0,1,3.6-45a9.663,9.663,0,0,1,5.9,1.758,5.363,5.363,0,0,1,2.383,4.492,4.9,4.9,0,0,1-3.047,4.922A8.926,8.926,0,0,0,6.063-39.57a8.492,8.492,0,0,0-5.9-2.07,8.248,8.248,0,0,0-5.586,2.07A6.143,6.143,0,0,0-7.8-34.844q0,3.281,4.063,6.484L.789-24.687q6.641,5.234,6.641,10.7a13.75,13.75,0,0,1-2.3,7.617A16.641,16.641,0,0,1-1.125-.7a17.4,17.4,0,0,1-8.32,2.109Q-16.4,1.406-21.164-5ZM35.3-42.5l7.031-3.2v2.031q0,5.547.313,10.313T43.82-19.766Q44.914-9.453,45.461-7.187t1.875,2.266q1.719,0,5.625-5.508a91.725,91.725,0,0,0,7.656-13.32L58.2-42.5,65.3-45.7l.078,1.953q.625,16.719,1.328,23.984.234,1.875.469,3.945t.352,3.242q.117,1.172.352,2.7T68.2-7.891q.625,2.578,2.031,2.578,2.813,0,9.688-11.172Q86.4-26.8,86.4-33.906q0-5.7-3.75-8.281l5.938-5.469a11.889,11.889,0,0,1,2.734,8.125,31.5,31.5,0,0,1-3.047,12.422,92.742,92.742,0,0,1-9.062,15.547,97.168,97.168,0,0,1-6.875,8.672Q68.9,1.016,66.711,1.016a2.765,2.765,0,0,1-2.578-1.6A16.729,16.729,0,0,1,62.8-6.016L61.086-20A85.2,85.2,0,0,1,53.2-7.031Q47.336,1.016,43.82,1.016A2.575,2.575,0,0,1,41.4-.43a18.938,18.938,0,0,1-1.406-5.352ZM143.492-12.109l1.406,1.172a36.779,36.779,0,0,1-9.453,9.258,18.523,18.523,0,0,1-9.922,2.852,13.052,13.052,0,0,1-10.156-4.219q-3.828-4.219-3.828-11.172a31.039,31.039,0,0,1,3.711-14.258,38.379,38.379,0,0,1,9.3-11.953q5.586-4.727,11.055-4.727a7.556,7.556,0,0,1,5.273,1.875,6.235,6.235,0,0,1,2.07,4.844q0,6.016-6.562,12.031T118.492-16.172a11.421,11.421,0,0,0-.078,1.406,12.874,12.874,0,0,0,2.969,8.789,9.7,9.7,0,0,0,7.656,3.4,12.6,12.6,0,0,0,7.109-2.3A34.354,34.354,0,0,0,143.492-12.109Zm-25-5.937q8.438-3.75,12.969-8.359a28.517,28.517,0,0,0,4.922-6.719,14.279,14.279,0,0,0,1.875-6.484q0-3.672-3.359-3.672-5.078,0-10.273,8.008A38.4,38.4,0,0,0,118.492-18.047Zm47.8-4.141q6.719-8.125,8.984-15.156-6.328-3.516-6.328-10.078A8.167,8.167,0,0,1,170.43-52.5a4.53,4.53,0,0,1,3.75-1.953,4.482,4.482,0,0,1,3.828,2.148,9.63,9.63,0,0,1,1.484,5.586,19.559,19.559,0,0,1-.859,5.391,15.386,15.386,0,0,0,3.828.547,11.46,11.46,0,0,0,7.969-2.812h3.75l-.547,1.094a149.172,149.172,0,0,0-9.258,20.273q-3.633,9.961-3.633,14.883a4.766,4.766,0,0,0,.938,3.008,2.787,2.787,0,0,0,2.266,1.211q3.2,0,10.313-6.8l1.25,1.406a55.557,55.557,0,0,1-6.8,6.016Q184.57.781,180.977.781a6.023,6.023,0,0,1-4.8-2.031A8.192,8.192,0,0,1,174.414-6.8q0-5.859,4.531-14.844Q180.586-25,183.164-29.3t6.484-10.234l.781-1.094a17.366,17.366,0,0,1-4.961,3.32,14.216,14.216,0,0,1-5.43.977,12.25,12.25,0,0,1-2.969-.391q-2.5,7.656-9.375,15.781Zm10.7-19.844a21.392,21.392,0,0,0,.313-3.281,8.648,8.648,0,0,0-.9-4.3,2.639,2.639,0,0,0-2.3-1.562,1.711,1.711,0,0,0-1.367.742,2.871,2.871,0,0,0-.586,1.836Q172.148-44.922,176.992-42.031Z" transform="translate(954.53 8315.799)" fill="#99e"/>
  </g>
</svg>
