<svg xmlns="http://www.w3.org/2000/svg" xmlns:xlink="http://www.w3.org/1999/xlink" width="223.52" height="70.32" viewBox="0 0 223.52 70.32">
  <defs>
    <linearGradient id="linear-gradient" x1="0.5" y1="1" x2="0.5" gradientUnits="objectBoundingBox">
      <stop offset="0" stop-color="#99e"/>
      <stop offset="1" stop-color="#e2a1c4"/>
    </linearGradient>
  </defs>
  <path id="Path_378126" data-name="Path 378126" d="M-109.52-40.48a27.021,27.021,0,0,1,3.76-.24c14-.32,19.84-.72,28.32-1.84.32.64.32.64,1.04,1.92a39.559,39.559,0,0,0,2.8,5.12,50.064,50.064,0,0,0,3.68,5.68,38.987,38.987,0,0,0-13.04-1.92c-9.36,0-16.4,2.16-21.04,6.48a15.937,15.937,0,0,0-5.28,11.76A16.237,16.237,0,0,0-104-1.76c4.24,3.84,12.32,5.92,23.04,5.92a77.159,77.159,0,0,0,19.28-2.4L-54.96.08l-1.52-12.16C-62.72-8.8-72.4-6.72-81.04-6.72c-6.4,0-11.52-1.12-13.84-2.96a5.535,5.535,0,0,1-2.08-4.4c0-4.96,5.92-7.84,16-7.84a36.628,36.628,0,0,1,12.08,1.76,13.231,13.231,0,0,1,5.6,3.52l11.12-4.8c-2.48-3.44-6-8.72-8.32-12.48-.88-1.52-2.72-4.88-5.52-10.16,6-1.04,6-1.04,10.8-2.08a59.523,59.523,0,0,1,6.24-1.12l-1.28-11.36c-4.64,1.68-10.88,3.12-19.68,4.56-2.4-5.76-3.36-8.8-3.92-12.08l-12.32,1.52c.72,1.52,3.44,8.16,4.88,11.92-6.4.72-14.96,1.28-20.56,1.28-3.04,0-6.32-.16-8.56-.4Zm91.2-15.84c9.28,4.24,18.88,7.2,32.8,10.24l3.84-11.04C9.04-58.4-6.96-63.04-12.72-66.16Zm-6.16,6.08c-.16,1.84-.24,2.88-.48,4.8-1.6,10.56-2.96,20.64-3.68,26.56-.16,1.04-.16,1.12-.32,2.16l11.6.4a15.368,15.368,0,0,1,4.08-3.6A35.639,35.639,0,0,1,5.68-25.28c7.68,0,12.24,2.88,12.24,7.76C17.92-11.2,10.4-6.96-.8-6.96c-6.32,0-13.12-1.28-21.04-3.84A47.3,47.3,0,0,1-20.4,1.36C-11.92,3.28-6.8,3.92-.08,3.92c9.28,0,16.16-1.76,21.84-5.68A19.657,19.657,0,0,0,30.4-17.92c0-10.8-9.12-17.76-23.36-17.76-9.6,0-16.48,2.08-23.36,6.96.96-7.28,2.8-17.68,3.68-20.8ZM52.4-64.48a69.8,69.8,0,0,1-1.28,8A166.815,166.815,0,0,0,48-25.2,151.855,151.855,0,0,0,50.08-.8c.24,1.84.32,2.48.4,3.92l11.6-.56C62,1.44,62,1.04,62,.24c0-6.32,2.32-14.8,6.56-24.08l-7.04-2.88L60-22.88c-.4.96-.4.96-1.44,4.08.24-16.96,2.8-34.96,6.32-44.48ZM72.16-45.12c1.2.08,1.84.08,2.24.16a114.771,114.771,0,0,0,12.88.64,170.535,170.535,0,0,0,21.2-1.44,12.987,12.987,0,0,1,1.68-.08l-.56-11.6c-5.12,1.36-13.12,2.16-21.92,2.16-7.28,0-11.44-.32-15.36-1.36ZM77.44-33.2C72.48-26.88,70-21.12,70-16.08a14.624,14.624,0,0,0,2.4,8.16C76-2.88,82.64-.48,92.8-.48A96.622,96.622,0,0,0,109.6-2c1.76-.24,2.24-.32,3.52-.48l-.8-12.08a58.967,58.967,0,0,1-19.44,3.12c-7.36,0-11.44-2.24-11.44-6.24,0-2.96,1.84-6.56,5.6-11.28Z" transform="translate(110.4 66.16)" fill="url(#linear-gradient)"/>
</svg>
