<svg xmlns="http://www.w3.org/2000/svg" xmlns:xlink="http://www.w3.org/1999/xlink" width="199.78" height="34.3" viewBox="0 0 199.78 34.3">
  <defs>
    <linearGradient id="linear-gradient" x1="0.5" x2="0.5" y2="1" gradientUnits="objectBoundingBox">
      <stop offset="0" stop-color="#a9e"/>
      <stop offset="1" stop-color="#fe88bb"/>
    </linearGradient>
  </defs>
  <path id="Path_383664" data-name="Path 383664" d="M-76.545-3.33a4.942,4.942,0,0,0,1.05-1.77c0-.21-.09-.3-.21-.3s-.27.12-.42.33c-3.15,4.56-7.5,6.9-11.64,6.9-3.81,0-6.9-1.89-6.9-5.58,0-3.66,3.27-6.48,6.81-7.8a5.552,5.552,0,0,0,4.41,1.95c1.5,0,2.76-.6,2.76-1.62,0-1.11-1.14-1.71-3.06-1.71a12.91,12.91,0,0,0-3.45.48,4.217,4.217,0,0,1-.45-1.92c0-4.26,5.46-7.5,10.86-7.5,3.36,0,5.01,1.41,5.01,3.09,0,2.55-3.21,4.14-5.67,4.62-.51.09-.78.15-.78.36,0,.12.18.21.51.21,1.71,0,6.69-1.8,6.69-5.25,0-1.95-1.71-3.63-5.61-3.63-6.18,0-12.09,3.57-12.09,8.19a4.56,4.56,0,0,0,.48,2.13c-3.93,1.38-7.56,4.38-7.56,8.43,0,3.99,3.27,6.27,7.86,6.27C-82.335,2.55-78.315-1.05-76.545-3.33Zm-7.08-9.03c1.41,0,2.16.36,2.16,1.11,0,.66-.72,1.02-1.65,1.02a4.73,4.73,0,0,1-3.69-1.65A12.215,12.215,0,0,1-83.625-12.36Zm21.93,7.29a.308.308,0,0,0-.3-.33.377.377,0,0,0-.3.21c-2.04,3.03-4.11,4.86-5.85,4.86a1.607,1.607,0,0,1-1.59-1.8c0-2.37,2.55-5.64,3.6-7.05a.706.706,0,0,0,.15-.39c0-.27-.3-.51-.69-.51-1.2,0-3.36,2.28-5.37,4.68-2.07,2.49-4.02,5.04-4.77,5.04-.27,0-.39-.15-.39-.45,0-1.47,1.74-4.41,4.38-7.41a.871.871,0,0,0,.27-.57.283.283,0,0,0-.3-.3.817.817,0,0,0-.6.33c-2.43,2.82-4.62,6.03-4.62,7.92A1.026,1.026,0,0,0-76.995.3c1.38,0,3.24-2.7,5.43-5.31a18.348,18.348,0,0,1,4.5-4.32c-1.23,1.71-3.6,4.83-3.6,7.2A2.26,2.26,0,0,0-68.2.3C-64.965.3-61.695-4.62-61.695-5.07Zm8.79-12.48a2.438,2.438,0,0,0-1.86,1.77.386.386,0,0,0,.42.39,2.538,2.538,0,0,0,1.92-1.74C-52.425-17.43-52.575-17.55-52.9-17.55ZM-66.735,2.34c-1.68,3.18-2.76,6.06-2.76,6.87,0,.15.06.24.12.24.36,0,1.44-3.66,5.01-9.75,2.37-4.02,4.47-6.99,5.97-9.15a.577.577,0,0,0,.12-.36.382.382,0,0,0-.42-.36c-.18,0-.36.06-.87.72A120.7,120.7,0,0,0-66.735,2.34Zm21.18-7.98c3.69,0,6.42-2.19,6.42-2.67,0-.12-.06-.21-.18-.21a.559.559,0,0,0-.33.12,8.437,8.437,0,0,1-6.48,1.98v-.27a1.823,1.823,0,0,0-.21-.96,3.606,3.606,0,0,0,.09-.84,2.173,2.173,0,0,0-2.43-2.01c-3.39,0-8.25,3.99-8.25,7.86A2.993,2.993,0,0,0-53.775.6c3.42,0,6.78-3.48,7.5-6.27A5.545,5.545,0,0,0-45.555-5.64Zm-10.44,2.97c0-3.36,4.26-7.26,7.17-7.26a1.618,1.618,0,0,1,1.83,1.86h-.03a.959.959,0,0,0-1.02.96,1.223,1.223,0,0,0,.81,1.23c-.72,3-3.72,5.88-6.48,5.88C-55,0-55.995-.87-55.995-2.67Zm16.65,10.05a36.828,36.828,0,0,0,1.65-4.95c.72-.33,1.44-.66,2.19-1.08a18.767,18.767,0,0,0,4.02-2.91,10.793,10.793,0,0,0,2.7-3.57c0-.18-.09-.27-.21-.27a.392.392,0,0,0-.36.21A19.226,19.226,0,0,1-35.715.72c-.57.33-1.17.63-1.74.9A48.07,48.07,0,0,1-35.955-3c1.29-1.71,2.94-4.11,3.87-5.49a4.877,4.877,0,0,0,.9-1.77c0-.12-.03-.18-.15-.18-.75,0-3.69,3.78-5.25,7.35-1.23,1.53-2.76,2.76-4.2,2.76a1.559,1.559,0,0,1-1.68-1.77c0-1.65,1.35-3.72,3.48-6.18a2.089,2.089,0,0,0,.57-.96q0-.27-.36-.27c-.36,0-.63.18-1.23.87-1.41,1.59-3.21,4.38-3.21,6.51a2.234,2.234,0,0,0,2.34,2.4,4.922,4.922,0,0,0,3.78-2.04c-.54,1.32-.99,2.61-1.35,3.81-4.92,2.04-9.3,2.19-9.3,5.52,0,1.8,1.83,3.03,3.9,3.03A4.855,4.855,0,0,0-39.345,7.38Zm-7.5.24c0-2.91,3.66-3.06,8.16-4.8a27.077,27.077,0,0,1-1.65,4.65c-.93,1.71-2.19,2.58-3.51,2.58C-45.645,10.05-46.845,9.15-46.845,7.62ZM5.9-11.13c2.4-2.82,6.09-7.98,6.09-9.42a.78.78,0,0,0-.84-.81c-1.71,0-5.16,3.15-9.42,9.66-1.74,2.64-3.63,6-5.34,9.24C-6.255-.45-8.835.69-11.595.69c-1.92,0-2.91-.84-2.91-2.4,0-5.28,11.01-14.43,11.01-18.72,0-1.11-.66-2.07-2.52-2.07-6.09,0-15.69,7.23-15.69,12.93a2.073,2.073,0,0,0,2.19,2.34c1.32,0,2.4-.87,2.4-1.26a.242.242,0,0,0-.27-.21c-.45,0-.84.78-1.95.78A1.392,1.392,0,0,1-20.8-9.51c0-5.25,9.9-12.42,14.94-12.42,1.23,0,1.56.6,1.56,1.32,0,3.21-11.25,13.29-11.25,18.69a3.324,3.324,0,0,0,3.6,3.42,13.652,13.652,0,0,0,7.68-2.7c-2.61,5.1-4.59,9.69-4.59,10.65a.159.159,0,0,0,.18.18c.72,0,1.98-4.56,5.97-12A64.722,64.722,0,0,0,5.9-11.13Zm-3.15-.24c4.02-5.97,7.08-9.36,8.22-9.36a.239.239,0,0,1,.27.27c0,1.02-3.57,6.12-5.97,8.97a77.834,77.834,0,0,1-7.11,7.56C-.555-6.21.945-8.7,2.745-11.37Zm13.74,5.73c3.69,0,6.42-2.19,6.42-2.67,0-.12-.06-.21-.18-.21a.559.559,0,0,0-.33.12,8.437,8.437,0,0,1-6.48,1.98v-.27a1.823,1.823,0,0,0-.21-.96,3.606,3.606,0,0,0,.09-.84,2.173,2.173,0,0,0-2.43-2.01c-3.39,0-8.25,3.99-8.25,7.86A2.993,2.993,0,0,0,8.265.6c3.42,0,6.78-3.48,7.5-6.27A5.545,5.545,0,0,0,16.485-5.64ZM6.045-2.67c0-3.36,4.26-7.26,7.17-7.26a1.618,1.618,0,0,1,1.83,1.86h-.03A.959.959,0,0,0,14-7.11a1.223,1.223,0,0,0,.81,1.23c-.72,3-3.72,5.88-6.48,5.88C7.035,0,6.045-.87,6.045-2.67Zm28.68-2.4a.308.308,0,0,0-.3-.33.377.377,0,0,0-.3.21c-2.04,3.03-4.05,4.86-5.79,4.86-.9,0-1.47-.54-1.47-1.65a4.542,4.542,0,0,1,.39-2.01c1.38-1.77,2.55-3.36,3.3-4.5a4.877,4.877,0,0,0,.9-1.77c0-.12-.03-.18-.15-.18-.57,0-1.47,1.17-2.31,2.25a15.326,15.326,0,0,0-2.61,4.65c-1.47,1.92-3.15,3.21-4.53,3.21a1.559,1.559,0,0,1-1.68-1.77c0-1.65,1.35-3.72,3.48-6.18a2.089,2.089,0,0,0,.57-.96q0-.27-.36-.27c-.36,0-.63.18-1.23.87-1.41,1.59-3.21,4.38-3.21,6.51a2.234,2.234,0,0,0,2.34,2.4c1.44,0,3.06-1.08,4.35-2.64v.3A2.112,2.112,0,0,0,28.215.3C31.455.3,34.725-4.62,34.725-5.07Zm10.29,0a.308.308,0,0,0-.3-.33.377.377,0,0,0-.3.21c-2.04,3.03-4.14,4.8-5.85,4.8a1.419,1.419,0,0,1-1.59-1.41c0-2.19,2.1-3.72,2.1-5.52,0-1.14-.75-1.47-1.74-2.01a4.437,4.437,0,0,0,.54-1.86c0-.42-.21-.69-.57-.69-.45,0-1.02.63-1.02,1.53a2.012,2.012,0,0,0,.33,1.17c-1.8,3.09-3.9,6.3-5.76,7.77a.465.465,0,0,0-.21.33c0,.15.12.24.33.24.75,0,3.63-3.24,6.15-7.89.54.36,1.17.54,1.17,1.29,0,1.62-2.1,3.42-2.1,5.55A2.054,2.054,0,0,0,38.505.3C41.745.3,45.015-4.62,45.015-5.07ZM68.325.96c.3,0,.45-.15.45-.3,0-.9-8.61-2.61-13.53-2.61h-.6c5.13-7.02,9.69-19.8,18.27-19.8,2.67,0,4.23,1.56,4.23,3.75,0,5.58-6.81,9.18-12.39,9.18-.03,0-.9-.09-.9.27,0,.33.54.42,1.35.42,4.95,0,12.75-3.57,12.75-9.87,0-2.4-1.62-4.5-4.98-4.5-9.63,0-14.73,13.71-19.53,20.58-4.5.24-7.02,1.35-7.02,3.15,0,.84.84,1.32,1.89,1.32,2.07,0,3.9-1.44,5.64-3.6C62.205-.99,67.335.96,68.325.96Zm-21.15.18c0-1.26,2.37-2.07,5.61-2.16-1.38,1.8-2.76,2.94-4.26,2.94C47.715,1.92,47.175,1.71,47.175,1.14ZM81.5-15.78a.386.386,0,0,0,.42.39,2.443,2.443,0,0,0,1.92-1.74c0-.3-.15-.42-.48-.42A2.312,2.312,0,0,0,81.5-15.78ZM75.2.3c3.24,0,6.51-4.92,6.51-5.37a.308.308,0,0,0-.3-.33.377.377,0,0,0-.3.21c-2.04,3.03-4.17,4.77-5.76,4.77-.99,0-1.5-.48-1.5-1.65,0-2.07,2.49-5.19,4.17-7.14a.742.742,0,0,0,.21-.45.38.38,0,0,0-.42-.36.475.475,0,0,0-.36.15c-2.37,2.58-4.53,5.61-4.53,7.86A2.027,2.027,0,0,0,75.2.3Zm7.53,1.71a5.767,5.767,0,0,0-.12-1.35h.48c4.65,0,7.68-5.4,7.68-5.79a.268.268,0,0,0-.27-.27.377.377,0,0,0-.3.21c-2.04,2.97-4.14,5.13-6.75,5.13A4.678,4.678,0,0,1,82.4-.15a1.292,1.292,0,0,0-1.2-.84.673.673,0,0,0-.75.66c0,.45.63.78,1.62.93.33,3.78-1.62,9.6-3.99,9.6-.87,0-1.44-.63-1.44-2.37,0-4.44,3.03-9.75,7.05-15.45a90.566,90.566,0,0,0,5.85-8.01c1.17-1.74,2.13-3.09,2.13-3.69a.159.159,0,0,0-.18-.18c-.6,0-3.33,3.84-5.94,7.47C79.875-4.08,75.8,2.85,75.8,7.74c0,2.34.99,3.06,2.1,3.06C80.835,10.8,82.725,5.85,82.725,2.01Zm19.2-5.43a6.742,6.742,0,0,0,1.05-1.68.283.283,0,0,0-.3-.3.377.377,0,0,0-.3.21C100.1-1.83,98.115.06,94.815.06c-2.52,0-4.05-1.41-4.05-3.21a5.257,5.257,0,0,1,.15-1.2,5.427,5.427,0,0,0,2.76.57c3.39,0,6.39-2.19,6.39-4.71,0-1.14-.78-1.95-2.28-1.95-3.87,0-7.98,3.75-7.98,7.23,0,2.31,1.92,3.93,4.89,3.93A8.79,8.79,0,0,0,101.925-3.42Zm-4.26-6.45c.99,0,1.56.45,1.56,1.32,0,2.25-2.82,4.17-5.85,4.17a5.476,5.476,0,0,1-2.31-.45C92.025-7.65,95.235-9.87,97.665-9.87Z" transform="translate(96.305 23)" stroke="rgba(0,0,0,0)" stroke-width="1" fill="url(#linear-gradient)"/>
</svg>
