<svg xmlns="http://www.w3.org/2000/svg" xmlns:xlink="http://www.w3.org/1999/xlink" width="500.414" height="95" viewBox="0 0 500.414 95">
  <defs>
    <filter id="txt" x="87.732" y="31.492" width="412.682" height="57.262" filterUnits="userSpaceOnUse">
      <feOffset dy="3" input="SourceAlpha"/>
      <feGaussianBlur stdDeviation="2.5" result="blur"/>
      <feFlood flood-opacity="0.251"/>
      <feComposite operator="in" in2="blur"/>
      <feComposite in="SourceGraphic"/>
    </filter>
    <filter id="EYS" x="87.732" y="8.889" width="75.582" height="29.82" filterUnits="userSpaceOnUse">
      <feOffset dy="3" input="SourceAlpha"/>
      <feGaussianBlur stdDeviation="2.5" result="blur-2"/>
      <feFlood flood-opacity="0.251"/>
      <feComposite operator="in" in2="blur-2"/>
      <feComposite in="SourceGraphic"/>
    </filter>
    <filter id="icon" x="0" y="0" width="82.297" height="95" filterUnits="userSpaceOnUse">
      <feOffset dy="3" input="SourceAlpha"/>
      <feGaussianBlur stdDeviation="2.5" result="blur-3"/>
      <feFlood flood-opacity="0.251"/>
      <feComposite operator="in" in2="blur-3"/>
      <feComposite in="SourceGraphic"/>
    </filter>
  </defs>
  <g id="logo" transform="translate(7.5 4.5)">
    <g transform="matrix(1, 0, 0, 1, -7.5, -4.5)" filter="url(#txt)">
      <path id="txt-2" data-name="txt" d="M61.8,35.48h3.911v3.244H59.226v4.488h6.488V46.59H61.8v4.4H77.313v2.4H59.582v4.888H77.313v5.244h5.422V58.277h17.82V53.389H82.734v-2.4H98.421v-4.4H94.466V43.213h6.444V38.724H94.466V35.48h3.955V31.214H61.8Zm15.509,3.333H71V35.48h6.31Zm0,7.777H71V43.124h6.31Zm11.865-7.777H82.734V35.48h6.444Zm0,7.777H82.734V43.124h6.444Zm11.732-22.708H91.044v-2.4h-5.6v2.4H74.78v-2.4H69.314v2.4H59.226v4.71H69.314V30.5H74.78V28.592H85.445V30.5h5.6V28.592h9.865ZM116.863,30.5h11.465a11.206,11.206,0,0,1-.667,2.089h-8.31V54.856h25.774V32.592H133.039a15.05,15.05,0,0,0,1.022-2.089h13.465V25.837h-6.577c.489-.755,1.466-2.355,2.044-3.511L137.3,21.3a25.729,25.729,0,0,1-1.955,4.533h-6.71a27.1,27.1,0,0,0-2.4-4.577l-5.11,1.378c.311.533,1.2,2.133,1.822,3.2h-6.088V29.17a32.717,32.717,0,0,0-6.844-7.2l-3.822,3.6a38.735,38.735,0,0,1,6.488,7.688l4.177-3.733ZM139.7,44.857H124.773V42.235H139.7Zm0-5.821H124.773V36.547H139.7Zm0,11.776H124.773V48.057H139.7Zm-33.818-7.244h4V54.189a23.848,23.848,0,0,1-4.533,3.155l2.266,6.088a30.986,30.986,0,0,0,6.355-6c3.111,4.888,8.132,4.888,11.776,4.888h21.331l1.066-5.2h-22.13c-2.311,0-9.421,0-10.8-5.11V38.324h-9.332ZM184.1,34.9c.044-5.288-.356-10.887-11.687-10.887-9.154,0-11.687,3.022-11.687,8.532,0,4.4,2.177,5.866,3.333,6.621-5.821,1.955-6.577,6.044-6.577,10.221,0,9.554,7.11,10.354,14.043,10.354,6.4,0,8.132-1.111,9.865-2.311l1.911,1.955h8l-5.688-5.555c.8-1.2,1.822-2.889,1.822-7.244v-3.6H181.7v2.622a8.741,8.741,0,0,1-.489,4.044L168.634,36.369c-1.333-1.378-1.955-2.089-1.955-3.466,0-2,1.067-3.333,5.51-3.333,5.955,0,5.91,2.4,5.91,5.333Zm-6.977,18.087c-1.067.622-2.222,1.289-5.91,1.289-6.844,0-7.866-2.444-7.866-5.2a5.454,5.454,0,0,1,4.4-5.955Zm19.953-27.019V31.7H225.6c-1.378,8.354-4.044,20.575-24.975,24l2.533,5.6c26.041-4.933,28.663-24.041,29.463-35.329ZM241.691,30.1h30.574V24.548H241.691Zm-3.155,4.977v5.555h29.285c-1.422,6.532-4.533,14.531-24.086,15.42l1.733,5.51c23.286-2,27.863-12.576,29.374-26.485Zm43.328-9.688V42.635h6.266V30.992h22c-.133,8.443-.355,22.575-23.286,25.108l2.311,5.555c17.242-2.622,22.841-11.287,24.8-16.087a47.951,47.951,0,0,0,2.622-14.754V25.393Zm40.261,20.264H361.5v-6.31H322.125Zm69.9,17.731a37.871,37.871,0,0,0,9.421-7.421,36.709,36.709,0,0,0,7.6,7.466l3.244-5.377a41.131,41.131,0,0,1-7.421-6.8c2.178-3.777,3.911-9.154,4.577-17.909h2.044v-5.6H400.826c.489-2.577.755-4.488.933-5.91l-5.244-.444a44.466,44.466,0,0,1-4.4,14.62V32.992h-2.533a46.755,46.755,0,0,0,5.022-8.266l-4.622-2.133a42.668,42.668,0,0,1-2.489,4.844V24.9h-4.977V21.571H377.5V24.9h-6.621v4.711H377.5v3.377h-7.643v4.755h8.621a40.826,40.826,0,0,1-9.2,5.733l2.444,4.711A48.771,48.771,0,0,0,377.14,44.9h6.177a13.409,13.409,0,0,1-2.711,2.533h-1.2v2.889c-5.377.444-7.421.533-9.91.667l.355,5.066c1.511-.089,8.221-.711,9.554-.8v1.955c0,.978-.178,1.244-1.378,1.244h-4.666l.933,4.977h5.91c3.377,0,4.266-1.155,4.266-4.133V54.722c5.2-.622,6.4-.8,8.043-1.111V48.9c-2,.311-3.866.533-8.043.978v-.8a29.809,29.809,0,0,0,5.466-4.355V40.5H382.7c1.733-1.6,2.4-2.311,2.844-2.755h5.51c-.311.489-.533.755-1.244,1.689l3.733,4.622c.444-.578.711-1.022,1.422-2.044a33.923,33.923,0,0,0,3.422,9.2,27,27,0,0,1-9.865,7.11Zm12.265-30.041a35.408,35.408,0,0,1-2.711,12.976,31.74,31.74,0,0,1-3.155-10.843c.222-.533.444-1.111.844-2.133Zm-18.175-3.822c-.533.755-1.2,1.644-2.755,3.466H382.3V29.526Zm68.125,14.931a40.451,40.451,0,0,0-7.332-7.732h2.533V32.1H422.6v4.622h4a38.96,38.96,0,0,1-2.044,4.088c-1.022,0-6.133,0-6.577-.044l.4,4.711c9.065,0,10.976-.089,14.754-.222v2.977H418.779v4.755h14.354v4.044h-18V62.01h41.772V57.033H438.777V52.989h14.487V48.234H438.777V45.079c6-.356,6.4-.4,8.532-.622a31.219,31.219,0,0,1,2.4,3.288ZM440.865,38.5c.8.622,1.333,1.022,2.355,1.866-3.511.267-9.421.4-12.8.444a43.246,43.246,0,0,0,2.222-4.088h10.932Zm-7.732-13.954H416.291V35.036h5.6v-5.6h28.263v5.6h5.6V24.548H438.777V21.438h-5.644Z" transform="translate(36.01 14.73)" fill="#fff"/>
    </g>
    <g transform="matrix(1, 0, 0, 1, -7.5, -4.5)" filter="url(#EYS)">
      <path id="EYS-2" data-name="EYS" d="M104.479,17.94l1.178-1.258a10.084,10.084,0,0,0,7.086,2.574c3.373,0,5.352-1.058,5.352-2.8,0-1.7-2.056-2.117-5.83-2.435-3.733-.318-7.306-1.138-7.306-3.893C104.959,7.5,108.273,6,112.006,6a10.735,10.735,0,0,1,7.147,2.5l-1.318,1.117a8.186,8.186,0,0,0-5.749-2.056c-2.5-.021-5.411.678-5.411,2.518,0,1.736,2.637,2.1,5.925,2.355,4.254.339,7.208,1.158,7.208,3.914,0,2.574-2.614,4.471-7.165,4.471a12.276,12.276,0,0,1-8.163-2.877m-16.933,2.7V15.753L80.522,6.67h2.015l5.869,7.566,5.83-7.566h2l-7.008,9.083v4.888Zm-28.321,0V6.667H72.543V8.224H60.9v4.531h9.864v1.557H60.9v4.771H72.743V20.64Z" transform="translate(36.01 7.39)" fill="#fff"/>
    </g>
    <g transform="matrix(1, 0, 0, 1, -7.5, -4.5)" filter="url(#icon)">
      <path id="icon-2" data-name="icon" d="M14.029,79.99a1.587,1.587,0,0,1-1.1-.416,1.513,1.513,0,0,1-.307-1.147c0-.058.111-.695.593-3.373,1.259-6.993,4.207-23.372,4.207-26.915,0-3.407-3.142-10.8-4.663-13.841a1.286,1.286,0,0,1,.013-1.41,1.256,1.256,0,0,1,1.135-.695h5.741a57.2,57.2,0,0,0-1.689-5.6,1.335,1.335,0,0,1-.213-.058c-.049-.015-.092-.03-.136-.039a4.589,4.589,0,0,1-3.7,1.9,4.927,4.927,0,0,1-3.677-1.884,3.778,3.778,0,0,1-1.124.2,7.519,7.519,0,0,1-5.2-2.465,6.98,6.98,0,0,1-2.249-6.313A4.6,4.6,0,0,1,.009,14.124a4.908,4.908,0,0,1,1.906-3.681A6.814,6.814,0,0,1,4.168,4.128a7.968,7.968,0,0,1,5.164-2.4,4.133,4.133,0,0,1,1.142.148A4.607,4.607,0,0,1,14.155,0a4.919,4.919,0,0,1,3.691,1.892,5.509,5.509,0,0,1,1.114-.114,5.624,5.624,0,0,1,1.249.141,9.364,9.364,0,0,1,3.943,2.339A8.814,8.814,0,0,1,26.49,8.193a4.27,4.27,0,0,1,.041,2.37,4.605,4.605,0,0,1,1.883,3.687,4.935,4.935,0,0,1-1.9,3.7,6.812,6.812,0,0,1-2.253,6.316,8.869,8.869,0,0,1-3.118,2.01c.741,2.222,1.281,4.109,1.706,5.912H39.7c.215-.981.431-2.132.677-3.594a1.361,1.361,0,0,1-.157-.163,1.229,1.229,0,0,0-.095-.1,4.6,4.6,0,0,1-4.159-.27,4.915,4.915,0,0,1-2.182-3.508,3.76,3.76,0,0,1-1.067-.409,7.525,7.525,0,0,1-3.2-4.8,6.992,6.992,0,0,1,1.324-6.571,4.6,4.6,0,0,1,.55-4.115A4.922,4.922,0,0,1,34.92,6.487,6.816,6.816,0,0,1,40.1,2.235a10.538,10.538,0,0,1,2.207-.243A5.829,5.829,0,0,1,46.66,3.555a4.548,4.548,0,0,1,1.788-.361,4.631,4.631,0,0,1,2.345.641,4.918,4.918,0,0,1,2.189,3.527A5.654,5.654,0,0,1,55,8.6a9.364,9.364,0,0,1,2.18,4.037,8.865,8.865,0,0,1-.025,4.577,4.265,4.265,0,0,1-1.185,2.059,4.59,4.59,0,0,1-.286,4.128,4.93,4.93,0,0,1-3.54,2.192,6.813,6.813,0,0,1-5.185,4.253,8.82,8.82,0,0,1-3.7.117c-.129.555-.314,1.312-.557,2.222H65.972a1.44,1.44,0,0,1,1.141.705,1.622,1.622,0,0,1,.009,1.4s-.036.087-.267.593c-2.924,6.37-4.405,10.834-4.405,13.261,0,3.555,2.951,19.925,4.208,26.919.481,2.678.593,3.312.593,3.407a1.1,1.1,0,0,1-.3,1.112A1.561,1.561,0,0,1,65.889,80Zm49.539-2.814c-.243-1.674-.593-3.429-1-5.448-.627-3.124-1.4-7-2.185-12.564H32.544c-2.1,4.921-4.014,9.251-5.7,13.069q-1.162,2.629-2.177,4.943Zm-41.772,0c.255-.593.7-1.629,1.3-2.986,1.465-3.352,3.9-8.929,6.469-15.026H25.077a91.364,91.364,0,0,1-3.665,14.952c-.37,1.2-.693,2.235-.923,3.059Zm-3.983,0c.393-1.629.859-3.111,1.351-4.685A70.4,70.4,0,0,0,22.2,59.158H19.108c-.76,6.044-1.552,10.073-2.189,13.332-.339,1.733-.635,3.244-.852,4.687Zm12.982-20.95c3.231-7.756,5.71-14.118,7.375-18.912l.246-.741c.21-.624.391-1.16.553-1.68H23.3a90.845,90.845,0,0,1,2,21.331Zm-8.443,0a84.984,84.984,0,0,0-2.01-21.331h-3.9l.338.841c1.5,3.7,3.755,9.316,3.725,12.406a34.821,34.821,0,0,1-.422,3.677c-.175,1.246-.387,2.73-.585,4.4Zm37.6,0a75.554,75.554,0,0,1-.55-8.079c0-3.933,2.955-10.8,4.072-13.247H41.943a97.74,97.74,0,0,1-3.38,9.6c-1.563,3.957-3.127,7.8-4.777,11.726Zm-16.4-29.35a5.8,5.8,0,0,0,2.4-.1A4.245,4.245,0,0,0,49.03,24.7l-.079-.047a12.231,12.231,0,0,1-4.042-4.582,2.632,2.632,0,0,1-.431.157c-.188,2.292-.563,4.513-.929,6.651m-2.726-7.044a8.7,8.7,0,0,0-3.93,3.363l-.184.305a1.76,1.76,0,0,0,2.963,1.732l.158-.274a9.574,9.574,0,0,0,.991-5.125M13.8,18.821a9.526,9.526,0,0,0-1.6,4.912v.379a1.76,1.76,0,0,0,3.432-.044V23.75A9.367,9.367,0,0,0,13.8,18.821m-7.9,3.468a4.2,4.2,0,0,0,3.222,1.5h.133v-.044a12.755,12.755,0,0,1,1.831-5.821,3.325,3.325,0,0,1-.858-.858A11.83,11.83,0,0,1,4.423,18.9H4.377a4.216,4.216,0,0,0,1.157,3.043v-.092ZM17.175,17.3c1,2.012,1.8,4.051,2.569,6.024l.058.148a5.878,5.878,0,0,0,2.016-1.32,4.2,4.2,0,0,0,1.56-3.368h-.09a12.223,12.223,0,0,1-5.823-1.837,2.9,2.9,0,0,1-.289.354m30.07.889a10.543,10.543,0,0,0,3.33,4l.31.185a2.022,2.022,0,0,0,.5.062,1.837,1.837,0,0,0,1.546-.84,1.716,1.716,0,0,0-.314-2.182.55.55,0,0,1-.276-.3,10.675,10.675,0,0,0-4.352-1.037l-.148-.215v.207a1.484,1.484,0,0,0-.593.127m-14.985.5a4.218,4.218,0,0,0,2.1,3.011l.024-.037a12.77,12.77,0,0,1,4.567-4.057,3.365,3.365,0,0,1-.3-1.176H38.35a11.874,11.874,0,0,1-5.629-1.421L32.676,15a4.221,4.221,0,0,0-.444,3.65l-.129.055Zm9.48-3.54a1.706,1.706,0,1,0,2.41-.692,1.758,1.758,0,0,0-.9-.252,1.7,1.7,0,0,0-1.452.84Zm6.482.175A12.248,12.248,0,0,1,53.7,16.782l.079.049a1.433,1.433,0,0,0,.381-.711,4.931,4.931,0,0,0,.028-2.963,7.429,7.429,0,0,0-1.449-2.64,1.433,1.433,0,0,0-.668-.444l-.046.073a12.2,12.2,0,0,1-4.579,4.042,3.318,3.318,0,0,1,.3,1.166c.148-.01.308-.013.461-.013Zm-44.268-2.8a1.588,1.588,0,0,0-1.256,1.8,1.861,1.861,0,0,0,1.406,1.745h.311c1.721,0,4.782-1.349,4.967-1.9a11.705,11.705,0,0,0-4.967-1.647Zm8.236,1.712a1.777,1.777,0,1,0,0-.031l-.207.033Zm6.278-.129A10.5,10.5,0,0,0,23.4,15.85h.361a1.856,1.856,0,0,0,1.354-1.715,1.717,1.717,0,0,0-1.394-1.7H23.7a.616.616,0,0,1-.367-.117,9.386,9.386,0,0,0-4.859,1.813m15.122-3.868a1.851,1.851,0,0,0,.314,2.2l.268.148a10.547,10.547,0,0,0,4.405,1.068,1.588,1.588,0,0,0,.831-.139,11.635,11.635,0,0,0-3.407-3.97l-.415-.238a1.384,1.384,0,0,0-.5-.092,1.66,1.66,0,0,0-1.5,1ZM46.46,6.814a9.474,9.474,0,0,0-.911,5.036,10.327,10.327,0,0,0,4.022-3.333l.185-.31a1.852,1.852,0,0,0-.776-2.046,1.72,1.72,0,0,0-2.17.3c-.03.05-.121.194-.121.194a.369.369,0,0,1-.224.148m-8.946.253a12.2,12.2,0,0,1,4.041,4.579,3.365,3.365,0,0,1,1.176-.3,11.845,11.845,0,0,1,1.406-5.928l.033-.056a3.282,3.282,0,0,0-1.926-.625,2.126,2.126,0,0,0-.237.009A6.248,6.248,0,0,0,40.5,4.93a4.231,4.231,0,0,0-3.026,2.108ZM16.609,10.59a3.285,3.285,0,0,1,.855.856A11.836,11.836,0,0,1,23.28,9.611h.093a1.457,1.457,0,0,0-.04-.8,4.948,4.948,0,0,0-1.5-2.557,7.371,7.371,0,0,0-2.572-1.52,2.53,2.53,0,0,0-.567-.079h-.013a1.1,1.1,0,0,0-.231.024v.092a12.207,12.207,0,0,1-1.837,5.823M4.417,9.6a12.209,12.209,0,0,1,5.823,1.838,3.268,3.268,0,0,1,.856-.856A11.847,11.847,0,0,1,9.259,4.773v-.08a1.4,1.4,0,0,0-.236-.019v-.21L9,4.672A4.816,4.816,0,0,0,5.892,6.23,4.243,4.243,0,0,0,4.376,9.6Zm7.546-4.82c.064,1.742,1.352,4.651,1.889,4.83a11.706,11.706,0,0,0,1.643-4.967V4.287a1.855,1.855,0,0,0-1.718-1.352l-.013-.207v.207a1.724,1.724,0,0,0-1.689,1.392.622.622,0,0,1-.113.458" transform="translate(7.5 4.5)" fill="#fff"/>
    </g>
  </g>
</svg>
