<svg xmlns="http://www.w3.org/2000/svg" width="15" height="15" viewBox="0 0 15 15">
  <path id="icon" d="M-553.751,17928.994a7.5,7.5,0,0,1,7.5-7.5,7.5,7.5,0,0,1,7.5,7.5,7.5,7.5,0,0,1-7.5,7.5A7.5,7.5,0,0,1-553.751,17928.994Zm1.7,0a5.8,5.8,0,0,0,5.795,5.795,5.8,5.8,0,0,0,5.8-5.795,5.8,5.8,0,0,0-5.8-5.795A5.794,5.794,0,0,0-552.046,17928.994Zm.682,0a5.113,5.113,0,0,1,5.112-5.115,5.113,5.113,0,0,1,5.114,5.115,5.112,5.112,0,0,1-5.114,5.111A5.112,5.112,0,0,1-551.364,17928.994Zm3.068,1.7a.342.342,0,0,0,.341.342h1.363v.34a.34.34,0,0,0,.34.342.341.341,0,0,0,.341-.342v-.34h1.363a.342.342,0,0,0,.341-.342.34.34,0,0,0-.341-.34h-1.363v-.682h1.363a.341.341,0,0,0,.341-.344.34.34,0,0,0-.341-.338h-1.363v-.447l1.609-1.705a.342.342,0,0,0-.009-.445.342.342,0,0,0-.481-.025l-1.46,1.531-1.459-1.543a.342.342,0,0,0-.444-.012.341.341,0,0,0-.046.48l1.609,1.705v.461h-1.363a.34.34,0,0,0-.341.338.341.341,0,0,0,.341.344h1.363v.682h-1.363A.34.34,0,0,0-548.3,17930.7Z" transform="translate(553.751 -17921.494)" fill="#ccc"/>
</svg>
