<svg xmlns="http://www.w3.org/2000/svg" xmlns:xlink="http://www.w3.org/1999/xlink" width="150.789" height="53.32" viewBox="0 0 150.789 53.32">
  <defs>
    <linearGradient id="linear-gradient" x2="1" y2="1" gradientUnits="objectBoundingBox">
      <stop offset="0" stop-color="#99e"/>
      <stop offset="1" stop-color="#e2a1c4"/>
    </linearGradient>
  </defs>
  <path id="Path_378139" data-name="Path 378139" d="M-42.66-8.516-43.6-3.867A55.967,55.967,0,0,1-53.344-.273,34.68,34.68,0,0,1-62.035.977,20.545,20.545,0,0,1-69.5-.254a10.524,10.524,0,0,1-4.863-3.574,9.133,9.133,0,0,1-1.7-5.508q0-5.273,4.766-10.488T-57.7-29.453q-4.219-.7-4.219-4.375,0-5.234,9.063-11.758a48.908,48.908,0,0,1,5.723-3.574,33.85,33.85,0,0,1,5.469-2.363,15.037,15.037,0,0,1,4.512-.82,4.39,4.39,0,0,1,3.184,1.113A4.013,4.013,0,0,1-32.816-48.2,11.32,11.32,0,0,1-33.7-44.18a23.644,23.644,0,0,1-2.559,4.727A28.282,28.282,0,0,1-40-35l-2.07-2.266q6.094-6.719,6.094-10.7,0-2.7-3.2-2.7a13.774,13.774,0,0,0-5,1.211,30.777,30.777,0,0,0-5.9,3.242,26.1,26.1,0,0,0-6.191,5.664A9.281,9.281,0,0,0-58.559-35.2a3.645,3.645,0,0,0,.723,2.148A4.032,4.032,0,0,0-56.059-31.6a14.55,14.55,0,0,0,3.789.508h.664l-.508,2.5A60.131,60.131,0,0,0-63.949-21.68q-9.844,7.266-9.844,13.672a6.4,6.4,0,0,0,2.48,5.215A9.754,9.754,0,0,0-64.965-.781a24.6,24.6,0,0,0,5.957-.82,50.814,50.814,0,0,0,7.246-2.5Q-47.777-5.781-42.66-8.516ZM-28.02-21.25l3.516-1.6v1.016q.117,5.7.664,11.992.313,3.281.547,4.863a6.933,6.933,0,0,0,.547,2.129.955.955,0,0,0,.859.547q1.445,0,5.156-5.508,3.32-4.844,3.32-8.945a7.039,7.039,0,0,0-.352-2.4,5.488,5.488,0,0,0-1.328-1.934l2.93-2.734a7.014,7.014,0,0,1,1.367,4.375q0,5.2-6.172,13.711a34.748,34.748,0,0,1-3.984,4.609A11.246,11.246,0,0,1-22.531.137a2.272,2.272,0,0,1-1.191.371A1.463,1.463,0,0,1-25.09-.234a8.106,8.106,0,0,1-.664-2.812Zm43.352,15.2.7.586A18.389,18.389,0,0,1,11.309-.84,9.262,9.262,0,0,1,6.348.586,6.526,6.526,0,0,1,1.27-1.523,7.993,7.993,0,0,1-.645-7.109a15.52,15.52,0,0,1,1.855-7.129,19.189,19.189,0,0,1,4.648-5.977,8.62,8.62,0,0,1,5.527-2.363,3.778,3.778,0,0,1,2.637.938,3.118,3.118,0,0,1,1.035,2.422q0,3.008-3.281,6.016A27.132,27.132,0,0,1,2.832-8.086a5.711,5.711,0,0,0-.039.7A6.437,6.437,0,0,0,4.277-2.988a4.849,4.849,0,0,0,3.828,1.7A6.3,6.3,0,0,0,11.66-2.441,17.177,17.177,0,0,0,15.332-6.055ZM2.832-9.023A20.972,20.972,0,0,0,9.316-13.2a14.258,14.258,0,0,0,2.461-3.359,7.139,7.139,0,0,0,.938-3.242q0-1.836-1.68-1.836-2.539,0-5.137,4A19.2,19.2,0,0,0,2.832-9.023ZM27.121.391,31.262-21.25l3.711-1.6L31.613-8.516a43.7,43.7,0,0,1,6.445-10.391q3.2-3.555,6.133-3.555a3.067,3.067,0,0,1,2.344.957,3.587,3.587,0,0,1,.9,2.559A10.829,10.829,0,0,1,47-16.406l-.391,1.641L45.441-10l-.391,1.523a16.1,16.1,0,0,0-.586,3.594,4.082,4.082,0,0,0,.43,2.012,1.28,1.28,0,0,0,1.133.762q1.211,0,3.867-2.891l.625.547-.391.43A37.442,37.442,0,0,1,46.848-.488,3.1,3.1,0,0,1,44.895.43,2.442,2.442,0,0,1,42.844-.8,5.316,5.316,0,0,1,42-3.867a21.736,21.736,0,0,1,.469-3.711L44-15.859a20.357,20.357,0,0,0,.313-2.734,1.693,1.693,0,0,0-.43-1.25,1.583,1.583,0,0,0-1.172-.43q-2.7,0-6.641,5.781A36.783,36.783,0,0,0,32.9-9a72.18,72.18,0,0,0-2.812,7.52L29.738-.43Zm41.008-21.25L65.16-7.852A16.647,16.647,0,0,0,64.691-4.8a3.6,3.6,0,0,0,.664,2.266,2.112,2.112,0,0,0,1.758.859,3.335,3.335,0,0,0,1.934-.605A19.98,19.98,0,0,0,71.723-4.8l.469-.469.586.586A24.511,24.511,0,0,1,68.93-.723,5.075,5.075,0,0,1,65.9.43,3.831,3.831,0,0,1,62.914-.8,4.619,4.619,0,0,1,61.8-4.023a22.889,22.889,0,0,1,.586-4.3l2.539-12.539h-3.75l.273-1.328H65.2l2.188-10.547,3.75-1.484L68.4-22.187H74.73l-.273,1.328Z" transform="translate(76.059 52.344)" fill="url(#linear-gradient)"/>
</svg>
