<svg xmlns="http://www.w3.org/2000/svg" width="162" height="63" viewBox="0 0 162 63">
  <g id="アートワーク_67" data-name="アートワーク 67" transform="translate(81 31.5)">
    <g id="Group_192576" data-name="Group 192576" transform="translate(-81 -31.5)">
      <path id="Path_368878" data-name="Path 368878" d="M48.943,59.742,29.061,27.686l13.3-19.793H49.1V7.168H3.173v.725H41.292L28.58,26.712l-4.85,7.167L6.333,59.742H0v.7H13.428v-.7H7.5l16.8-24.967L39.683,59.742H33.39v.7H55.316v-.7Z" transform="translate(0 -0.67)" fill="#2d4a7a"/>
      <path id="Path_368879" data-name="Path 368879" d="M98.626,7.168H58.514v.725h7.391L55.61,27.026H49.277v.7H62.705v-.7H56.773L66.9,7.978l-.132-.085H92.447L83.713,28.665l-3.762,8.808L73.965,51.806a28.274,28.274,0,0,1-2.052,4.237,7.03,7.03,0,0,1-6.286,3.532q-2.907,0-2.907-1.7a2.035,2.035,0,0,1,.77-1.288A4.022,4.022,0,0,0,64.9,53.51a3.8,3.8,0,0,0-.6-2.2,2.744,2.744,0,0,0-2.351-1.288,3.052,3.052,0,0,0-1.924.706,3.784,3.784,0,0,0-1.454,3.116,6.05,6.05,0,0,0,1.667,4.114,6.791,6.791,0,0,0,5.345,2.326,7.606,7.606,0,0,0,6.584-3.323,23.892,23.892,0,0,0,2.266-4.279L93.328,7.893h5.3Z" transform="translate(-4.171 -0.67)" fill="#58abd2"/>
      <path id="Path_368880" data-name="Path 368880" d="M126.048,60.132,114.111,40.885l3.8-5.642,11.271-16.527h2.483v-.725H112.942l6.572-9.78h6.694v-.7H112.5v.663h5.973l-6.633,9.819H99.481v.725h11.868L105.685,27.1l-4.85,7.167.561.9L108.76,47.11l-8.812,13.1H93.615v.7h13.428v-.7h-5.932l8.205-12.2,7.472,12.12H110.5v.7h21.926v-.7ZM106.165,28.076l6.289-9.359H128.2L117.345,34.348l-3.792,5.637Z" transform="translate(-7.924 -0.702)" fill="#ed3737"/>
      <path id="Path_368881" data-name="Path 368881" d="M171.3,22.869a2.521,2.521,0,0,0-1.608-.6,2.286,2.286,0,0,0-1.967,1.1,3.292,3.292,0,0,0-.5,1.876,3.462,3.462,0,0,0,1.18,2.621,1.736,1.736,0,0,1,.643,1.1q0,1.451-2.431,1.451a5.857,5.857,0,0,1-5.256-3.009,24.266,24.266,0,0,1-1.716-3.612l-2.934-7.159h7.56V15.97h-7.83l-3.488-7.392a17.937,17.937,0,0,0,3.109-2.166l2.27-1.934A19.978,19.978,0,0,1,167.22,0c-5.819.785-5.7,1.047-8.375,1.049a19.961,19.961,0,0,0-6.921.909,13.452,13.452,0,0,0-3.14,1.982l-1.161.924a31.848,31.848,0,0,1-3.538,2.458,9.9,9.9,0,0,1-2.208.931l-3.844-.324a6.713,6.713,0,0,1-1.438-.372l-.222.191c.032.016.071.033.1.049h-.006V20.791q0,2.336.144,3.93a7,7,0,0,0,2.109,4.886,6.794,6.794,0,0,0,4.648,1.664,6.437,6.437,0,0,0,6.472-4.462,19.62,19.62,0,0,0,.858-5.028h-.715q-.071,1.275-.178,2.054-.5,3.754-2.324,5.382a4.476,4.476,0,0,1-2.968,1.2,2.132,2.132,0,0,1-2.038-1.346A11.021,11.021,0,0,1,142.016,25V16.629H156.01l3.245,7.9a20.5,20.5,0,0,0,1.9,3.647,6.325,6.325,0,0,0,5.506,2.833,5.631,5.631,0,0,0,4.47-1.982,5.207,5.207,0,0,0,1.4-3.506A3.249,3.249,0,0,0,171.3,22.869Zm-29.289-6.9V9.556a25.748,25.748,0,0,0,6.071.264,11.778,11.778,0,0,0,4.116-.858c.065-.03.131-.069.2-.1l3.34,7.109Z" transform="translate(-11.544)" fill="#f49095"/>
      <g id="Group_192575" data-name="Group 192575" transform="translate(125.012 27.669)">
        <path id="Path_368882" data-name="Path 368882" d="M174.126,43.984a4.093,4.093,0,0,0-1.059-3.624c-.694-.687-2.3-1.7-5.231-.751-5.152,1.655-8.082,7.807-8.2,8.068l-.536,1.146,1.115.614a19.275,19.275,0,0,0,8.26,2.218,10.305,10.305,0,0,0,3.162-.468c2.937-.944,3.635-2.694,3.79-3.652A4.1,4.1,0,0,0,174.126,43.984Z" transform="translate(-138.479 -31.338)" fill="#f49095"/>
        <path id="Path_368883" data-name="Path 368883" d="M159.707,52.78l-1.267-.151-.245,1.239c-.056.283-1.333,6.964,1.85,11.3,1.507,2.053,3.068,2.481,4.109,2.481a3.831,3.831,0,0,0,.568-.043,4.167,4.167,0,0,0,3.011-2.317,4.167,4.167,0,0,0,3.154-2.116c.444-.866.92-2.688-.894-5.161C166.808,53.676,160,52.815,159.707,52.78Z" transform="translate(-138.377 -32.592)" fill="#f49095"/>
        <path id="Path_368884" data-name="Path 368884" d="M154.438,52.928l-1.266.151c-.288.034-7.1.894-10.282,5.233-1.813,2.473-1.34,4.293-.9,5.159a4.168,4.168,0,0,0,3.154,2.118,4.161,4.161,0,0,0,3.01,2.317,3.723,3.723,0,0,0,.568.044c1.042,0,2.6-.429,4.111-2.483,3.183-4.337,1.9-11.017,1.848-11.3Z" transform="translate(-136.997 -32.62)" fill="#f49095"/>
        <path id="Path_368885" data-name="Path 368885" d="M151.829,49.919l1.115-.615-.537-1.147c-.122-.261-3.055-6.409-8.2-8.066-2.937-.945-4.537.064-5.231.749a4.1,4.1,0,0,0-1.06,3.626,4.1,4.1,0,0,0-1.294,3.549c.154.959.851,2.709,3.787,3.654a10.325,10.325,0,0,0,3.164.467A19.289,19.289,0,0,0,151.829,49.919Z" transform="translate(-136.573 -31.383)" fill="#f49095"/>
        <path id="Path_368886" data-name="Path 368886" d="M162.18,35.619c0-3.056-1.465-4.253-2.338-4.695a4.2,4.2,0,0,0-3.811.122,4.194,4.194,0,0,0-3.809-.122c-.872.441-2.338,1.639-2.338,4.695,0,5.365,5,10.025,5.212,10.22l.935.859.935-.859C157.179,45.644,162.18,40.984,162.18,35.619Z" transform="translate(-137.699 -30.524)" fill="#f49095"/>
      </g>
    </g>
  </g>
</svg>
