<svg xmlns="http://www.w3.org/2000/svg" width="92" height="92" viewBox="0 0 92 92">
  <g id="Group_199486" data-name="Group 199486" transform="translate(-276 -8277)">
    <path id="Polygon_415" data-name="Polygon 415" d="M51.513,1.463a6,6,0,0,1,6.438,1.28l2.521,2.469a6,6,0,0,0,4.137,1.714l3.529.036a6,6,0,0,1,5.457,3.647l1.384,3.246a6,6,0,0,0,3.166,3.166l3.246,1.384a6,6,0,0,1,3.647,5.457l.036,3.529a6,6,0,0,0,1.714,4.137l2.469,2.521a6,6,0,0,1,1.281,6.438L89.22,43.761a6,6,0,0,0,0,4.478l1.317,3.274a6,6,0,0,1-1.28,6.438l-2.469,2.521a6,6,0,0,0-1.714,4.137l-.036,3.529a6,6,0,0,1-3.647,5.457l-3.246,1.384a6,6,0,0,0-3.166,3.166l-1.384,3.246a6,6,0,0,1-5.457,3.647l-3.529.036a6,6,0,0,0-4.137,1.714L57.95,89.257a6,6,0,0,1-6.438,1.281L48.239,89.22a6,6,0,0,0-4.478,0l-3.274,1.317a6,6,0,0,1-6.438-1.28l-2.521-2.469a6,6,0,0,0-4.137-1.714l-3.529-.036a6,6,0,0,1-5.457-3.647l-1.384-3.246a6,6,0,0,0-3.166-3.166l-3.246-1.384a6,6,0,0,1-3.647-5.457l-.036-3.529a6,6,0,0,0-1.714-4.137L2.743,57.95a6,6,0,0,1-1.28-6.438L2.78,48.239a6,6,0,0,0,0-4.478L1.463,40.487A6,6,0,0,1,2.743,34.05l2.469-2.521a6,6,0,0,0,1.714-4.137l.036-3.529a6,6,0,0,1,3.647-5.457l3.246-1.384a6,6,0,0,0,3.166-3.166l1.384-3.246a6,6,0,0,1,5.457-3.647l3.529-.036a6,6,0,0,0,4.137-1.714L34.05,2.743a6,6,0,0,1,6.438-1.28L43.761,2.78a6,6,0,0,0,4.478,0Z" transform="translate(276 8277)" fill="#aaf"/>
    <text id="まずは" transform="translate(322 8306)" fill="#fff" font-size="10" font-family="YuGothic-Bold, Yu Gothic" font-weight="700" letter-spacing="0.05em"><tspan x="-15.5" y="0">まずは</tspan></text>
    <text id="無料で_体験_" data-name="無料で
体験!!" transform="translate(322 8326.594)" fill="#fff" font-size="14" font-family="YuGothic-Bold, Yu Gothic" font-weight="700" letter-spacing="0.05em"><tspan x="-21.7" y="0">無料で</tspan><tspan x="-20.088" y="19.6">体験!!</tspan></text>
  </g>
</svg>
