<svg xmlns="http://www.w3.org/2000/svg" width="254.057" height="40" viewBox="0 0 254.057 40">
  <path id="logo" d="M-351.863,10027.083l.807-2.866a2.665,2.665,0,0,1,3.491-1.777,29.781,29.781,0,0,0,7.849,1.57c2.973,0,6.2-1.211,6.2-5.539,0-3.129-2.514-4.988-7.688-7.262-5.589-2.461-9.429-4.634-9.429-10.829,0-8.464,6.914-10.879,12.1-10.879a27.143,27.143,0,0,1,7.781,1.188,2.906,2.906,0,0,1,1.843,3.62l-.858,2.648a20.261,20.261,0,0,0-8.1-2.069c-2.829,0-6.515.96-6.515,5.14,0,2.927,2.871,4.333,6.66,6.095,5.793,2.718,10.618,5.285,10.618,11.991,0,8.517-5.853,11.387-12.309,11.387A34.153,34.153,0,0,1-351.863,10027.083Zm-46.406,0,.815-2.866a2.662,2.662,0,0,1,3.491-1.777,29.69,29.69,0,0,0,7.849,1.57c2.965,0,6.2-1.211,6.2-5.539,0-3.129-2.514-4.988-7.688-7.262-5.59-2.461-9.438-4.634-9.438-10.829,0-8.464,6.923-10.879,12.1-10.879a27.238,27.238,0,0,1,7.79,1.188,2.914,2.914,0,0,1,1.843,3.62l-.866,2.648a20.225,20.225,0,0,0-8.1-2.069c-2.82,0-6.515.96-6.515,5.14,0,2.927,2.871,4.333,6.668,6.095,5.793,2.718,10.61,5.285,10.61,11.991,0,8.517-5.844,11.387-12.3,11.387A34.2,34.2,0,0,1-398.269,10027.083Zm172.7,1.761a2.861,2.861,0,0,1-2.88-2.823v-33.036a2.872,2.872,0,0,1,2.88-2.834h15.622a2.8,2.8,0,0,1,2.88,2.7,2.806,2.806,0,0,1-2.88,2.7h-9.412a2.865,2.865,0,0,0-2.888,2.826v5.221a2.868,2.868,0,0,0,2.888,2.828h7.611a2.765,2.765,0,0,1,2.888,2.6,2.755,2.755,0,0,1-2.888,2.589h-7.611a2.87,2.87,0,0,0-2.888,2.837v6.183a2.873,2.873,0,0,0,2.888,2.829h10.542a2.8,2.8,0,0,1,2.88,2.7,2.794,2.794,0,0,1-2.88,2.686Zm-27.693,0a2.853,2.853,0,0,1-2.871-2.823v-33.036a2.864,2.864,0,0,1,2.871-2.834h.5a2.866,2.866,0,0,1,2.88,2.834v27.646a2.866,2.866,0,0,0,2.88,2.823h10.389a2.8,2.8,0,0,1,2.88,2.705,2.788,2.788,0,0,1-2.88,2.686Zm-25.577,0a2.863,2.863,0,0,1-2.888-2.823V10014.6a10.9,10.9,0,0,0-1.589-5.19l-11.374-16.9c-.875-1.292-.3-2.354,1.291-2.354h1.775a5.8,5.8,0,0,1,4.392,2.406l7.424,11.816a1.627,1.627,0,0,0,3-.028l7.144-11.772a5.681,5.681,0,0,1,4.358-2.422h1.622c1.58,0,2.157,1.063,1.282,2.354l-11.417,16.853a10.834,10.834,0,0,0-1.6,5.191v11.472a2.861,2.861,0,0,1-2.879,2.823Zm-31.948,0a2.861,2.861,0,0,1-2.88-2.823v-27.648a2.857,2.857,0,0,0-2.88-2.823h-5.411a2.8,2.8,0,0,1-2.88-2.7,2.8,2.8,0,0,1,2.88-2.7h22.944a2.8,2.8,0,0,1,2.88,2.7,2.8,2.8,0,0,1-2.88,2.7h-5.462a2.857,2.857,0,0,0-2.88,2.823v27.648a2.861,2.861,0,0,1-2.88,2.823Zm-107.262,0a2.861,2.861,0,0,1-2.88-2.823V10014.6a10.9,10.9,0,0,0-1.589-5.19l-11.374-16.9c-.875-1.292-.3-2.354,1.283-2.354h1.784a5.817,5.817,0,0,1,4.392,2.406l7.424,11.816a1.62,1.62,0,0,0,2.99-.028l7.153-11.772a5.651,5.651,0,0,1,4.349-2.422h1.631c1.58,0,2.149,1.063,1.283,2.354l-11.425,16.853a10.924,10.924,0,0,0-1.6,5.191v11.472a2.855,2.855,0,0,1-2.88,2.823Zm-39.067,0a2.861,2.861,0,0,1-2.88-2.823v-33.036a2.872,2.872,0,0,1,2.88-2.834H-441.5a2.8,2.8,0,0,1,2.88,2.7,2.806,2.806,0,0,1-2.88,2.7h-9.421a2.863,2.863,0,0,0-2.88,2.826v5.221a2.866,2.866,0,0,0,2.88,2.828h7.628a2.754,2.754,0,0,1,2.871,2.6,2.745,2.745,0,0,1-2.871,2.589h-7.628a2.868,2.868,0,0,0-2.88,2.837v6.183a2.871,2.871,0,0,0,2.88,2.829h10.55a2.8,2.8,0,0,1,2.88,2.7,2.794,2.794,0,0,1-2.88,2.686Zm91.011-14.4a2.722,2.722,0,0,1-2.88-2.52,2.727,2.727,0,0,1,2.88-2.523h7.365a2.733,2.733,0,0,1,2.88,2.523,2.728,2.728,0,0,1-2.88,2.52Z" transform="translate(460 -9989.501)"/>
</svg>
