<svg xmlns="http://www.w3.org/2000/svg" xmlns:xlink="http://www.w3.org/1999/xlink" width="299.188" height="56.836" viewBox="0 0 299.188 56.836">
  <defs>
    <linearGradient id="linear-gradient" x2="1" y2="1" gradientUnits="objectBoundingBox">
      <stop offset="0" stop-color="#99e"/>
      <stop offset="1" stop-color="#e2a1c4"/>
    </linearGradient>
  </defs>
  <path id="Path_378141" data-name="Path 378141" d="M-108.129-17.3h-9.727l-.078.2A35.11,35.11,0,0,1-124.2-6.992a25.4,25.4,0,0,1-8.633,6.348,25.687,25.687,0,0,1-10.488,2.129A21.87,21.87,0,0,1-150.16.508l1.25-3.008a19.644,19.644,0,0,0,8.867,2.3,16.834,16.834,0,0,0,12.031-5.156,23.436,23.436,0,0,0,3.73-4.707,48.451,48.451,0,0,0,3.262-7.051l.078-.2h-3.945l.273-1.328h4.141l.078-.234.273-.664q1.328-3.711,2.383-7.266t2.578-9.648q1.445-5.7,2.07-9.219l4.063-1.836a3.724,3.724,0,0,0-.508-.1q-.2-.02-.469-.059a156.177,156.177,0,0,0-16.875-1.094,38.952,38.952,0,0,0-7.324.566,13.625,13.625,0,0,0-4.707,1.738,5.151,5.151,0,0,0-2.734,4.414q0,5.508,13.75,6.25l-2.617,2.773a17.557,17.557,0,0,1-8.965-2.676,6.982,6.982,0,0,1-3.379-5.957q0-4.8,6.055-7.734,5.117-2.461,15.078-2.461,2.656,0,6.855.313t8.691.8q4.492.488,7.461,1.035l.7.117-1.758,3.516-.7-.117q-3.477-.625-8.125-1.289l-.273-.039-.039.234q-.2.977-1.074,4.668t-1.543,6.113q-.664,2.422-1.406,5.02t-1.6,5.176q-1.484,4.57-2.773,7.656h9.453Zm11.75,6.211a23.723,23.723,0,0,0,4.492-7.578,5.5,5.5,0,0,1-3.164-5.039,4.083,4.083,0,0,1,.742-2.539,2.265,2.265,0,0,1,1.875-.977,2.241,2.241,0,0,1,1.914,1.074,4.815,4.815,0,0,1,.742,2.793,9.779,9.779,0,0,1-.43,2.7,7.693,7.693,0,0,0,1.914.273A5.73,5.73,0,0,0-84.309-21.8h1.875l-.273.547a74.586,74.586,0,0,0-4.629,10.137,24.405,24.405,0,0,0-1.816,7.441,2.383,2.383,0,0,0,.469,1.5,1.394,1.394,0,0,0,1.133.605q1.6,0,5.156-3.4l.625.7a27.778,27.778,0,0,1-3.4,3.008A6.4,6.4,0,0,1-89.035.391a3.011,3.011,0,0,1-2.4-1.016A4.1,4.1,0,0,1-92.316-3.4a17.483,17.483,0,0,1,2.266-7.422q.82-1.68,2.109-3.828t3.242-5.117l.391-.547a8.683,8.683,0,0,1-2.48,1.66,7.108,7.108,0,0,1-2.715.488,6.125,6.125,0,0,1-1.484-.2,24.016,24.016,0,0,1-4.687,7.891Zm5.352-9.922a10.7,10.7,0,0,0,.156-1.641A4.324,4.324,0,0,0-91.32-24.8a1.32,1.32,0,0,0-1.152-.781.856.856,0,0,0-.684.371,1.435,1.435,0,0,0-.293.918Q-93.449-22.461-91.027-21.016ZM-55.1-6.055l.7.586A18.389,18.389,0,0,1-59.121-.84,9.262,9.262,0,0,1-64.082.586,6.526,6.526,0,0,1-69.16-1.523a7.993,7.993,0,0,1-1.914-5.586,15.52,15.52,0,0,1,1.855-7.129,19.189,19.189,0,0,1,4.648-5.977,8.62,8.62,0,0,1,5.527-2.363,3.778,3.778,0,0,1,2.637.938,3.118,3.118,0,0,1,1.035,2.422q0,3.008-3.281,6.016A27.132,27.132,0,0,1-67.6-8.086a5.711,5.711,0,0,0-.039.7,6.437,6.437,0,0,0,1.484,4.395,4.849,4.849,0,0,0,3.828,1.7A6.3,6.3,0,0,0-58.77-2.441,17.177,17.177,0,0,0-55.1-6.055ZM-67.6-9.023a20.972,20.972,0,0,0,6.484-4.18,14.258,14.258,0,0,0,2.461-3.359,7.139,7.139,0,0,0,.938-3.242q0-1.836-1.68-1.836-2.539,0-5.137,4A19.2,19.2,0,0,0-67.6-9.023Zm39.875,2.969.7.586A18.389,18.389,0,0,1-31.746-.84,9.262,9.262,0,0,1-36.707.586a6.526,6.526,0,0,1-5.078-2.109A7.993,7.993,0,0,1-43.7-7.109a15.519,15.519,0,0,1,1.855-7.129A19.189,19.189,0,0,1-37.2-20.215a8.62,8.62,0,0,1,5.527-2.363,3.778,3.778,0,0,1,2.637.938A3.118,3.118,0,0,1-28-19.219q0,3.008-3.281,6.016a27.132,27.132,0,0,1-8.945,5.117,5.71,5.71,0,0,0-.039.7,6.437,6.437,0,0,0,1.484,4.395,4.849,4.849,0,0,0,3.828,1.7,6.3,6.3,0,0,0,3.555-1.152A17.177,17.177,0,0,0-27.723-6.055Zm-12.5-2.969a20.972,20.972,0,0,0,6.484-4.18,14.258,14.258,0,0,0,2.461-3.359A7.139,7.139,0,0,0-30.34-19.8q0-1.836-1.68-1.836-2.539,0-5.137,4A19.2,19.2,0,0,0-40.223-9.023ZM3.941,1.523,5.387-1.992A20.341,20.341,0,0,0,13.434-.43a15.531,15.531,0,0,0,9.082-2.754,24.239,24.239,0,0,0,7.09-8.418A43.068,43.068,0,0,0,31.6-15.879q.977-2.4,2.422-6.738,1.211-3.594,2.363-7.754t1.953-7.6q.8-3.438,1.543-7.656l4.18-1.875-.273-.039L43-47.656A139.227,139.227,0,0,0,25.973-48.75a38.131,38.131,0,0,0-7.031.547A14.541,14.541,0,0,0,14.1-46.445a5.089,5.089,0,0,0-2.734,4.414q0,5.508,13.75,6.25l-2.656,2.773a20.641,20.641,0,0,1-6.523-1.367,10.356,10.356,0,0,1-4.277-3.008,6.622,6.622,0,0,1-1.5-4.258q0-4.8,6.055-7.734,5.117-2.461,15.039-2.461,2.7,0,6.895.313t8.691.8q4.492.488,7.461,1.035l.7.117-1.758,3.516-.7-.117Q49.1-46.8,44.527-47.461l-.273-.039-.117.547-.117.547a190.914,190.914,0,0,1-6.367,23.223A56.011,56.011,0,0,1,30.27-8.594a24.634,24.634,0,0,1-9.551,7.93A31.054,31.054,0,0,1,7.848,1.8,28.141,28.141,0,0,1,3.941,1.523ZM55.535-11.094a23.723,23.723,0,0,0,4.492-7.578,5.5,5.5,0,0,1-3.164-5.039,4.083,4.083,0,0,1,.742-2.539,2.265,2.265,0,0,1,1.875-.977,2.241,2.241,0,0,1,1.914,1.074,4.815,4.815,0,0,1,.742,2.793,9.78,9.78,0,0,1-.43,2.7,7.693,7.693,0,0,0,1.914.273A5.73,5.73,0,0,0,67.605-21.8H69.48l-.273.547a74.586,74.586,0,0,0-4.629,10.137,24.405,24.405,0,0,0-1.816,7.441,2.383,2.383,0,0,0,.469,1.5,1.394,1.394,0,0,0,1.133.605q1.6,0,5.156-3.4l.625.7a27.778,27.778,0,0,1-3.4,3.008A6.4,6.4,0,0,1,62.879.391a3.011,3.011,0,0,1-2.4-1.016A4.1,4.1,0,0,1,59.6-3.4a17.483,17.483,0,0,1,2.266-7.422q.82-1.68,2.109-3.828t3.242-5.117l.391-.547a8.683,8.683,0,0,1-2.48,1.66,7.108,7.108,0,0,1-2.715.488,6.125,6.125,0,0,1-1.484-.2,24.016,24.016,0,0,1-4.687,7.891Zm5.352-9.922a10.7,10.7,0,0,0,.156-1.641,4.324,4.324,0,0,0-.449-2.148,1.32,1.32,0,0,0-1.152-.781.856.856,0,0,0-.684.371,1.435,1.435,0,0,0-.293.918Q58.465-22.461,60.887-21.016Zm28.9-17.148a2.218,2.218,0,0,1,1.641.625,2.218,2.218,0,0,1,.625,1.641,2.229,2.229,0,0,1-.664,1.641,2.183,2.183,0,0,1-1.6.664,2.206,2.206,0,0,1-1.6-.7,2.206,2.206,0,0,1-.7-1.6,2.183,2.183,0,0,1,.664-1.6A2.229,2.229,0,0,1,89.785-38.164ZM88.652-22.852,85.215-10a20.476,20.476,0,0,0-.859,5.078,4.2,4.2,0,0,0,.43,2.031,1.279,1.279,0,0,0,1.133.781q1.211,0,3.867-2.891l.625.547-.391.43A37.442,37.442,0,0,1,86.738-.488,3.1,3.1,0,0,1,84.785.43,2.442,2.442,0,0,1,82.734-.8a5.316,5.316,0,0,1-.84-3.066,23,23,0,0,1,.469-3.711L84.824-21.25Zm33.742-.234-3.672,14.3a16.212,16.212,0,0,0-.586,3.672,3.92,3.92,0,0,0,.508,2.031,1.462,1.462,0,0,0,1.25.859q1.133,0,3.75-2.773l.547.547-.43.508a35.387,35.387,0,0,1-3.184,3.34,3.212,3.212,0,0,1-1.934.957,2.63,2.63,0,0,1-2.168-1.309,5.139,5.139,0,0,1-.918-3.027,37.146,37.146,0,0,1,.938-5.664l.313-1.484a29,29,0,0,1-3.867,6.445Q108.879.469,105.168.469a4.271,4.271,0,0,1-3.516-1.6,6.655,6.655,0,0,1-1.289-4.3,16.71,16.71,0,0,1,2.09-7.7,21.283,21.283,0,0,1,5.2-6.621,9.536,9.536,0,0,1,6.035-2.6,5.178,5.178,0,0,1,4.609,2.266l.43-1.484Zm-4.492,5a4.522,4.522,0,0,0-1.582-2.324,4.134,4.134,0,0,0-2.559-.84,5.835,5.835,0,0,0-3.633,1.582,15.693,15.693,0,0,0-3.516,4.395,25.549,25.549,0,0,0-2.09,4.922,15.62,15.62,0,0,0-.84,4.453,5.546,5.546,0,0,0,.762,3.125,2.46,2.46,0,0,0,2.168,1.133,5.875,5.875,0,0,0,3.75-1.68,20.263,20.263,0,0,0,3.867-4.8,18.048,18.048,0,0,0,1.836-3.594q.664-1.8,1.484-5Zm31.125-36.953L138.754-10,138.4-8.477a16.26,16.26,0,0,0-.508,3.633,3.847,3.847,0,0,0,.449,1.973,1.3,1.3,0,0,0,1.113.762q1.211,0,3.867-2.891l.625.547-.391.43a37.442,37.442,0,0,1-3.281,3.535,3.1,3.1,0,0,1-1.953.918,2.487,2.487,0,0,1-2.051-1.309,5.235,5.235,0,0,1-.879-2.988,21.32,21.32,0,0,1,.508-3.711l9.023-45.469Z" transform="translate(150.16 55.039)" fill="url(#linear-gradient)"/>
</svg>
