<svg xmlns="http://www.w3.org/2000/svg" xmlns:xlink="http://www.w3.org/1999/xlink" width="447.24" height="54.841" viewBox="0 0 447.24 54.841">
  <defs>
    <linearGradient id="linear-gradient" x1="0.5" y1="1" x2="0.5" gradientUnits="objectBoundingBox">
      <stop offset="0" stop-color="#99e"/>
      <stop offset="1" stop-color="#e2a1c4"/>
    </linearGradient>
  </defs>
  <path id="Path_378137" data-name="Path 378137" d="M-210.84-22.92a50.677,50.677,0,0,1-.3-7.02V-36.6h26.7c-1.2,12.6-5.58,20.64-14.22,26.34a38.41,38.41,0,0,1-12.18,5.34,29.224,29.224,0,0,1,6,8.34c19.38-7.68,27.78-18.9,30.06-40.32a10.149,10.149,0,0,1,1.14-4.44l-4.62-4.26c-1.86.6-2.94.72-6.3.72h-27.9a59.056,59.056,0,0,1-7.98-.3,53.213,53.213,0,0,1,.18,6.72V-30a47.484,47.484,0,0,1-.3,7.08Zm52.68,4.98c2.34-.24,5.76-.36,10.98-.36h30.3c4.68,0,8.64.12,11.04.3v-9.84a78.771,78.771,0,0,1-10.98.42h-30.36a74.945,74.945,0,0,1-10.98-.48Zm84.84-32.28A23.124,23.124,0,0,1-76.2-42.6,46.889,46.889,0,0,1-91.92-24.78a22.13,22.13,0,0,1,7.14,6.12,60,60,0,0,0,13.86-15.3l17.04-.18C-58.8-19.02-68.16-9.6-84.36-3.3a23.221,23.221,0,0,1,6.18,7.74C-68.64.06-61.8-4.8-56.4-10.98c5.22-5.94,9.42-14.04,12.3-23.4a13.135,13.135,0,0,1,1.56-3.9l-4.38-4.32a13.047,13.047,0,0,1-4.32.66l-15.6.18c.66-1.32.9-1.86,1.44-3.06a26.674,26.674,0,0,1,1.74-3.54Zm53.94,9.3a74.3,74.3,0,0,1,16.56,8.4l4.56-7.8a94.319,94.319,0,0,0-16.56-7.8Zm-4.74,14.7A66.165,66.165,0,0,1-7.44-17.16l4.38-8.04a83.186,83.186,0,0,0-16.32-8.34ZM-20.1,2.76a32.023,32.023,0,0,1,4.26-1.02C-.48-1.2,9.48-6.3,17.46-15.42c3.66-4.2,6.06-8.22,9.18-15.42-3.06-1.92-4.14-2.82-7.5-6.36A44.78,44.78,0,0,1,12.3-23.94,35.748,35.748,0,0,1-4.74-10.86,53.711,53.711,0,0,1-22.62-6.9Zm95.88-1.5V4.02h8.1a69.655,69.655,0,0,1-.24-7.2V-29.22c0-2.46.06-4.26.18-6.36a55.865,55.865,0,0,1-6.18.24H54.54a34.294,34.294,0,0,1-6.72-.42v7.74a62.709,62.709,0,0,1,6.72-.3H75.78v7.5H56.46a35.575,35.575,0,0,1-6.96-.42v7.56a62.963,62.963,0,0,1,6.96-.24H75.78v8.16H53.94a36.108,36.108,0,0,1-6.72-.42V1.5a62.111,62.111,0,0,1,6.72-.24Zm35.04-34.32a62.186,62.186,0,0,1,5.4,15l8.04-2.46a69.835,69.835,0,0,0-5.94-14.7Zm13.08-2.58a70.5,70.5,0,0,1,5.4,14.58l7.86-2.4a59.327,59.327,0,0,0-5.82-14.22Zm20.64-.84a31.972,31.972,0,0,1-1.08,6.9c-2.46,9.6-6.42,15.78-13.38,20.82a42.648,42.648,0,0,1-10.56,5.52,25.971,25.971,0,0,1,5.7,7.14c9.48-4.8,14.82-9.06,19.08-15.18,3.54-5.16,6.12-11.76,7.86-19.86a21.221,21.221,0,0,1,.9-3.36Zm38.82-7.62a61.34,61.34,0,0,1-9.42-.42v9.18a70.348,70.348,0,0,1,9.3-.36h26.28a39.967,39.967,0,0,1-17.88,25.02,48.727,48.727,0,0,1-12.9,5.94,27.253,27.253,0,0,1,6.36,8.58c10.32-4.62,17.1-9.3,22.62-15.78,5.52-6.42,9.36-14.22,11.88-24.3l.24-.84h.24a6.632,6.632,0,0,0,6.6-6.66,6.645,6.645,0,0,0-6.66-6.66,6.623,6.623,0,0,0-6.6,6.18,21.839,21.839,0,0,1-2.58.12Zm36.66-2.58a2.945,2.945,0,0,1,2.94,2.94,2.945,2.945,0,0,1-2.94,2.94,2.945,2.945,0,0,1-2.94-2.94A2.945,2.945,0,0,1,220.02-46.68Z" transform="translate(220.56 50.4)" fill="url(#linear-gradient)"/>
</svg>
