<svg xmlns="http://www.w3.org/2000/svg" width="153.223" height="85.303" viewBox="0 0 153.223 85.303">
  <path id="Path_378172" data-name="Path 378172" d="M-45.19-8.252l-.1.1a31.346,31.346,0,0,1-8.691,6.592A20.518,20.518,0,0,1-63.159.684a14.391,14.391,0,0,1-7.959-2.295,15.325,15.325,0,0,1-5.542-6.4,21.328,21.328,0,0,1-1.978-9.375A38.522,38.522,0,0,1-77.051-28.1a54.506,54.506,0,0,1,4.639-11.06,68.035,68.035,0,0,1,7.4-10.791A53.2,53.2,0,0,1-52.344-61.3q6.763-4.224,12.085-4.224a8.785,8.785,0,0,1,4.028.9,6.151,6.151,0,0,1,2.71,2.637,8.41,8.41,0,0,1,.928,4.028q0,6.006-5.078,11.6a27.86,27.86,0,0,1-12.646,7.935l-1.611-3.711a30.642,30.642,0,0,0,12.4-7.129q4.932-4.785,4.932-9.619a4.962,4.962,0,0,0-.781-2.637,4.938,4.938,0,0,0-2.1-1.9,6.9,6.9,0,0,0-3.027-.635q-4.59,0-10.156,3.467a43.757,43.757,0,0,0-10.352,9.18A54.738,54.738,0,0,0-67.456-41.7a53.406,53.406,0,0,0-4.3,10.986A41.482,41.482,0,0,0-73.267-20.02a27.34,27.34,0,0,0,.879,7.153A16.592,16.592,0,0,0-69.7-7.2a11.862,11.862,0,0,0,4.3,3.638,12.146,12.146,0,0,0,5.42,1.221Q-53-2.344-44.9-10.4l.2-.244,1.758-8.35,5.078-2.881-3.027,14.6q-1.074,5.322-1.831,7.69a29.266,29.266,0,0,1-2.222,5.054,27.577,27.577,0,0,1-6.03,7.544,26.85,26.85,0,0,1-8.35,5,26.469,26.469,0,0,1-9.4,1.758,21.833,21.833,0,0,1-9.229-1.709l1.563-3.467a22.115,22.115,0,0,0,11.084,3.027,18.883,18.883,0,0,0,5.42-.757,16.416,16.416,0,0,0,4.663-2.222,15.24,15.24,0,0,0,3.638-3.516,22.728,22.728,0,0,0,2.2-3.662,30.074,30.074,0,0,0,1.66-4.614Q-46.948.1-45.972-4.492Zm11.23-5.615a29.654,29.654,0,0,0,5.615-9.473,6.88,6.88,0,0,1-3.955-6.3,5.1,5.1,0,0,1,.928-3.174,2.831,2.831,0,0,1,2.344-1.221,2.8,2.8,0,0,1,2.393,1.343,6.019,6.019,0,0,1,.928,3.491,12.224,12.224,0,0,1-.537,3.369,9.616,9.616,0,0,0,2.393.342,7.163,7.163,0,0,0,4.98-1.758h2.344l-.342.684a93.232,93.232,0,0,0-5.786,12.671q-2.271,6.226-2.271,9.3a2.979,2.979,0,0,0,.586,1.88,1.742,1.742,0,0,0,1.416.757q2,0,6.445-4.248l.781.879a34.724,34.724,0,0,1-4.248,3.76A7.994,7.994,0,0,1-24.78.488a3.764,3.764,0,0,1-3-1.27,5.12,5.12,0,0,1-1.1-3.467q0-3.662,2.832-9.277,1.025-2.1,2.637-4.785t4.053-6.4l.488-.684a10.854,10.854,0,0,1-3.1,2.075,8.885,8.885,0,0,1-3.394.61,7.656,7.656,0,0,1-1.855-.244,30.02,30.02,0,0,1-5.859,9.863Zm6.689-12.4a13.369,13.369,0,0,0,.2-2.051,5.405,5.405,0,0,0-.562-2.686,1.65,1.65,0,0,0-1.44-.977,1.07,1.07,0,0,0-.854.464,1.794,1.794,0,0,0-.366,1.147Q-30.3-28.076-27.271-26.27ZM-12.329-9.375A18.245,18.245,0,0,1-9.961-18.14a21,21,0,0,1,6.128-7.1,12.92,12.92,0,0,1,7.666-2.734,8.6,8.6,0,0,1,6.616,2.71,9.892,9.892,0,0,1,2.515,7.007A19.224,19.224,0,0,1,10.645-9.18a21.053,21.053,0,0,1-6.1,7.2A12.752,12.752,0,0,1-3.1.83,8.588,8.588,0,0,1-9.79-1.978,10.606,10.606,0,0,1-12.329-9.375Zm20.9-10.742a7.789,7.789,0,0,0-1.44-4.834,4.432,4.432,0,0,0-3.687-1.9A6.746,6.746,0,0,0-.488-25.537,12.808,12.808,0,0,0-3.931-21.68a29.292,29.292,0,0,0-2.905,6.836A24.966,24.966,0,0,0-7.983-7.91,9.375,9.375,0,0,0-6.567-2.344,4.7,4.7,0,0,0-2.515-.391q4.248,0,7.471-5.908a29.462,29.462,0,0,0,2.637-6.787A28.052,28.052,0,0,0,8.569-20.117ZM26.88-28.564l-4.736,18.9a18.243,18.243,0,0,0-.635,4.3,3.6,3.6,0,0,0,1.074,2.734,3.865,3.865,0,0,0,2.783,1.025q4.15,0,8.643-6.787l.2-.293q.1-.488.146-.781l3.076-17.09,4.785-2L37.915-12.5a25.6,25.6,0,0,0-1.074,6.348,5.248,5.248,0,0,0,.537,2.539,1.6,1.6,0,0,0,1.416.977q1.514,0,4.834-3.613l.781.684-.488.537a46.8,46.8,0,0,1-4.1,4.419A3.874,3.874,0,0,1,37.378.537,3.053,3.053,0,0,1,34.814-1a6.645,6.645,0,0,1-1.05-3.833q0-.732.049-1.367Q28.735.537,23.755.537A5.481,5.481,0,0,1,19.775-.9a5.087,5.087,0,0,1-1.489-3.833,23.814,23.814,0,0,1,.537-4.541l3.32-17.285ZM43.726,19.385l9.229-45.947,4.688-2L54.419-14.551q3.613-7.275,6.812-10.474a9.752,9.752,0,0,1,7.007-3.2,5.612,5.612,0,0,1,4.639,2.148,9.248,9.248,0,0,1,1.709,5.908,21.709,21.709,0,0,1-1.538,7.813,24.965,24.965,0,0,1-4.321,7.275Q63.7.977,57.642.977a9.534,9.534,0,0,1-6.25-2l-5.029,20.41Zm8.4-23.633q2.051,4,5.762,4,5.371,0,9.375-8.74,3.271-7.031,3.271-11.816a7,7,0,0,0-.977-4,3.18,3.18,0,0,0-2.783-1.416q-2.93,0-6.152,3.857a39.921,39.921,0,0,0-5.225,8.5q-.83,1.855-1.538,3.955t-1.343,4.3Z" transform="translate(78.638 65.527)" fill="#ddd"/>
</svg>
