<svg xmlns="http://www.w3.org/2000/svg" xmlns:xlink="http://www.w3.org/1999/xlink" width="314.7" height="57.18" viewBox="0 0 314.7 57.18">
  <defs>
    <linearGradient id="linear-gradient" x1="0.5" y1="1" x2="0.5" gradientUnits="objectBoundingBox">
      <stop offset="0" stop-color="#99e"/>
      <stop offset="1" stop-color="#e2a1c4"/>
    </linearGradient>
  </defs>
  <path id="Path_378135" data-name="Path 378135" d="M-110.64-40.92l2.7-.9a29.36,29.36,0,0,0-4.26-7.74l-5.16,1.68a30.951,30.951,0,0,1,3.48,6.3c-.9.06-1.5.12-2.16.12l-15.6.18c.66-1.32.9-1.8,1.44-3a25.087,25.087,0,0,1,1.74-3.6l-9.66-1.86A22.21,22.21,0,0,1-141-42.12,46.889,46.889,0,0,1-156.72-24.3a22.13,22.13,0,0,1,7.14,6.12,59.748,59.748,0,0,0,13.86-15.24l17.04-.24c-4.92,15.12-14.28,24.6-30.48,30.84a23.832,23.832,0,0,1,6.18,7.74c9.54-4.38,16.38-9.18,21.78-15.36,5.22-6,9.42-14.04,12.3-23.46a12.374,12.374,0,0,1,1.5-3.78Zm.78-8.94A40.28,40.28,0,0,1-105.72-42l5.1-1.92a29.233,29.233,0,0,0-4.26-7.62Zm26.16,2.34a46.484,46.484,0,0,1,.24,6.06c0,3.24-.12,7.32-.24,10.26-.36,6.36-.9,9.84-2.16,13.8a27.77,27.77,0,0,1-9,13.74A27.525,27.525,0,0,1-87.6,3.36,39.1,39.1,0,0,0-79.38-8.1c3.18-6.54,4.32-12.78,4.74-25.26.42-11.82.42-11.82.66-13.62Zm16.44-.42a43.367,43.367,0,0,1,.24,5.52v1.68l-.24,33.72a22.749,22.749,0,0,1-.6,5.76l4.44,4.74a12.678,12.678,0,0,1,2.76-1.2C-54.54,0-51.48-1.74-48-4.74a36.819,36.819,0,0,0,9.96-14.58,32.416,32.416,0,0,1-6.72-6.72A30,30,0,0,1-50.1-15.42,24.313,24.313,0,0,1-58.32-8.7l.3-31.92a42.342,42.342,0,0,1,.48-7.26Zm40.5,30c2.34-.24,5.76-.36,10.98-.36h30.3c4.68,0,8.64.12,11.04.3v-9.84a78.771,78.771,0,0,1-10.98.42H-15.78a74.945,74.945,0,0,1-10.98-.48ZM48.96-44.1a61.34,61.34,0,0,1-9.42-.42v9.18a70.348,70.348,0,0,1,9.3-.36H75.12A39.967,39.967,0,0,1,57.24-10.68a48.727,48.727,0,0,1-12.9,5.94A27.253,27.253,0,0,1,50.7,3.84C61.02-.78,67.8-5.46,73.32-11.94c5.52-6.42,9.36-14.22,11.88-24.3l.24-.84h.24a6.632,6.632,0,0,0,6.6-6.66,6.645,6.645,0,0,0-6.66-6.66,6.623,6.623,0,0,0-6.6,6.18,21.839,21.839,0,0,1-2.58.12Zm36.66-2.58a2.945,2.945,0,0,1,2.94,2.94,2.945,2.945,0,0,1-2.94,2.94,2.945,2.945,0,0,1-2.94-2.94A2.945,2.945,0,0,1,85.62-46.68Zm62.04,33.24h2.16a55.787,55.787,0,0,1,6.72.3V-20.1a46.139,46.139,0,0,1-6.9.3h-4.5v-3.78h2.64c2.28,0,4.38.06,6.12.18v-6.72a41.4,41.4,0,0,1-6,.24h-2.76v-3.3h2.82c2.52,0,5.1.06,6.84.18-.12-1.8-.18-2.82-.18-5.7v-4.74c0-2.58.06-4.02.18-5.76a58.176,58.176,0,0,1-7.26.3H114.3c-3.6,0-5.94-.12-8.16-.3a67.051,67.051,0,0,1,.36,9.36c0,13.02-.54,22.02-1.74,27.78A32.473,32.473,0,0,1,100.5-.9a38.837,38.837,0,0,1,6.42,6.54c3.42-6.06,4.92-10.68,6.06-19.08h5.22V-2.88c-2.58.24-3.96.36-5.22.36a14.09,14.09,0,0,1-1.56-.06l1.08,7.92c.96-.18,1.26-.24,2.46-.48,15.36-2.58,16.02-2.7,20.82-3.72V-3.78C140.7.54,145.62,3.06,153.9,5.4a28.6,28.6,0,0,1,4.08-7.38,42.3,42.3,0,0,1-11.34-3.18,32.221,32.221,0,0,0,2.64-2.22c2.34-2.22,2.34-2.22,3.9-3.54Zm-2.22,0a20.324,20.324,0,0,1-4.68,4.68,14.349,14.349,0,0,1-4.02-4.68Zm-16.5,0a24.293,24.293,0,0,0,5.46,8.28c-4.8.84-4.8.84-8.64,1.38v-9.66ZM122.1-29.88h-1.74a36.934,36.934,0,0,1-5.04-.24v6.72c1.44-.12,2.76-.18,4.98-.18h1.8v3.78h-8.52c.3-4.44.36-6.6.48-13.38h8.04Zm7.44,10.08v-3.78h8.16v3.78Zm0-10.08v-3.3h8.16v3.3Zm-15.48-9.18v-3.36h33.06v3.36Z" transform="translate(156.72 51.54)" fill="url(#linear-gradient)"/>
</svg>
