<svg xmlns="http://www.w3.org/2000/svg" width="260.938" height="88.184" viewBox="0 0 260.938 88.184">
  <path id="Path_378171" data-name="Path 378171" d="M-60.425-61.865l4.395-1.855q-.146,18.262-10.645,40.479a129.733,129.733,0,0,1-6.641,12.329,51.01,51.01,0,0,1-6.25,8.521A15.7,15.7,0,0,1-82.69.293a5.059,5.059,0,0,1-2.588.781A3.139,3.139,0,0,1-88.428-.879q-.854-1.953-.854-7.227,0-4.2.049-6.25,0-4.492.391-14.111.391-9.18.83-13.965l.1-1.514A117.4,117.4,0,0,1-99.048-16.26,77.7,77.7,0,0,1-108.667-2q-2.734,3.174-5.225,3.174a3.489,3.489,0,0,1-3.662-3.027,26.97,26.97,0,0,1-.2-4.15V-7.471l1.758-45.8q.146-2.734.146-4.443,0-6.152-3.125-6.152a3.889,3.889,0,0,0-3.223,1.807,22.616,22.616,0,0,0-2.686,6.3,102.3,102.3,0,0,0-3.271,15.088l-3.662-2.441a62.271,62.271,0,0,1,2.954-12.061,21.25,21.25,0,0,1,4.395-7.617,7.573,7.573,0,0,1,5.444-2.539q7.422,0,7.422,13.135,0,2.295-.049,3.711l-1.562,39.6q-.049.537-.049,1.709a9.8,9.8,0,0,0,.366,3.223,1.307,1.307,0,0,0,1.294.928,4.666,4.666,0,0,0,2.979-1.733,38.888,38.888,0,0,0,4.3-5.688,105.323,105.323,0,0,0,6.47-11.45,124.66,124.66,0,0,0,5.64-13.208q1.123-3.076,2.246-7.1t1.782-7.4q.659-3.369,1.538-9.668l.146-1.172,4.736-2.051-.1,1.123L-83.423-46q-.2,2.393-.488,6.934t-.415,8.228q-.122,3.687-.269,7.935-.244,8.936-.244,13.281a25.16,25.16,0,0,0,.366,5.347q.366,1.392,1.44,1.392a4.4,4.4,0,0,0,2.71-1.514A33.383,33.383,0,0,0-76.44-9.18,90.624,90.624,0,0,0-67.8-24.512a89.31,89.31,0,0,0,5.542-16.821,75.734,75.734,0,0,0,1.929-16.431Q-60.327-58.252-60.425-61.865Zm.439,52.49a18.245,18.245,0,0,1,2.368-8.765,21,21,0,0,1,6.128-7.1,12.92,12.92,0,0,1,7.666-2.734,8.6,8.6,0,0,1,6.616,2.71,9.892,9.892,0,0,1,2.515,7.007A19.224,19.224,0,0,1-37.012-9.18a21.053,21.053,0,0,1-6.1,7.2A12.752,12.752,0,0,1-50.757.83a8.588,8.588,0,0,1-6.689-2.808A10.606,10.606,0,0,1-59.985-9.375Zm20.9-10.742a7.789,7.789,0,0,0-1.44-4.834,4.432,4.432,0,0,0-3.687-1.9,6.746,6.746,0,0,0-3.931,1.318,12.808,12.808,0,0,0-3.442,3.857,29.292,29.292,0,0,0-2.905,6.836A24.966,24.966,0,0,0-55.64-7.91a9.375,9.375,0,0,0,1.416,5.566A4.7,4.7,0,0,0-50.171-.391q4.248,0,7.471-5.908a29.462,29.462,0,0,0,2.637-6.787A28.052,28.052,0,0,0-39.087-20.117Zm8.4,6.25a29.654,29.654,0,0,0,5.615-9.473,6.88,6.88,0,0,1-3.955-6.3,5.1,5.1,0,0,1,.928-3.174,2.831,2.831,0,0,1,2.344-1.221,2.8,2.8,0,0,1,2.393,1.343,6.019,6.019,0,0,1,.928,3.491,12.224,12.224,0,0,1-.537,3.369,9.616,9.616,0,0,0,2.393.342,7.163,7.163,0,0,0,4.98-1.758h2.344l-.342.684a93.232,93.232,0,0,0-5.786,12.671q-2.271,6.226-2.271,9.3a2.979,2.979,0,0,0,.586,1.88,1.742,1.742,0,0,0,1.416.757q2,0,6.445-4.248l.781.879a34.724,34.724,0,0,1-4.248,3.76A7.994,7.994,0,0,1-21.509.488a3.764,3.764,0,0,1-3-1.27,5.12,5.12,0,0,1-1.1-3.467q0-3.662,2.832-9.277,1.025-2.1,2.637-4.785t4.053-6.4l.488-.684a10.854,10.854,0,0,1-3.1,2.075,8.885,8.885,0,0,1-3.394.61,7.656,7.656,0,0,1-1.855-.244,30.02,30.02,0,0,1-5.859,9.863ZM-24-26.27a13.369,13.369,0,0,0,.2-2.051,5.405,5.405,0,0,0-.562-2.686,1.65,1.65,0,0,0-1.44-.977,1.07,1.07,0,0,0-.854.464,1.794,1.794,0,0,0-.366,1.147Q-27.026-28.076-24-26.27ZM9.106-68.8-4.175-11.035a34.45,34.45,0,0,1,2.686-5.078,41.663,41.663,0,0,1,3.564-4.761,28.716,28.716,0,0,1,3.857-3.784,18.315,18.315,0,0,1,4.81-2.832,17.488,17.488,0,0,1,5.444-1.074l-.879,3.906a12.339,12.339,0,0,0-2.2-.293q-5.762,0-10.742,5.811A84.975,84.975,0,0,0,6.616-9.473q1.27,2.49,2.222,3.979A9.829,9.829,0,0,0,10.6-3.32a2.476,2.476,0,0,0,1.587.684q1.855,0,4.688-2.979l.391-.439.635.732Q12.964.635,10.718.635A3.966,3.966,0,0,1,7.886-.684,20.864,20.864,0,0,1,4.81-5.225,90.505,90.505,0,0,1-.22-15.869,42.84,42.84,0,0,0-6.079-.586L-9.253.439,3.833-66.309ZM17.212-3.125l2.734-3.223Q22.095-1.27,26.782-1.27a5.965,5.965,0,0,0,4.175-1.587A4.862,4.862,0,0,0,32.69-6.543a4.106,4.106,0,0,0-.83-2.588,28.9,28.9,0,0,0-3.955-3.613,24.347,24.347,0,0,1-3.882-3.687,5.048,5.048,0,0,1-1-3.1,7.347,7.347,0,0,1,1.343-4.248,9.93,9.93,0,0,1,3.589-3.149,9.935,9.935,0,0,1,4.736-1.2,6.039,6.039,0,0,1,3.687,1.1,3.352,3.352,0,0,1,1.489,2.808,3.062,3.062,0,0,1-1.9,3.076,5.579,5.579,0,0,0-1.733-3.589,5.308,5.308,0,0,0-3.687-1.294,5.155,5.155,0,0,0-3.491,1.294,3.839,3.839,0,0,0-1.489,2.954q0,2.051,2.539,4.053l2.832,2.295q4.15,3.271,4.15,6.689a8.594,8.594,0,0,1-1.44,4.761,10.4,10.4,0,0,1-3.906,3.54,10.875,10.875,0,0,1-5.2,1.318A8.864,8.864,0,0,1,17.212-3.125ZM40.991.488l12.988-66.8,5.127-2.49L45.581-9.326a1.326,1.326,0,0,0,.2-.439L46.9-12.3a41.649,41.649,0,0,1,7.227-11.328q4.1-4.443,7.568-4.443a3.893,3.893,0,0,1,2.979,1.2,4.483,4.483,0,0,1,1.123,3.2,13.537,13.537,0,0,1-.537,3.174l-.488,2.051L63.257-12.5l-.439,1.9A20.129,20.129,0,0,0,62.085-6.1a5.1,5.1,0,0,0,.537,2.515,1.6,1.6,0,0,0,1.416.952q1.514,0,4.834-3.613l.732.684-.439.537A44.094,44.094,0,0,1,65.039-.61,3.931,3.931,0,0,1,62.622.537a3.088,3.088,0,0,1-2.588-1.611,6.619,6.619,0,0,1-1.074-3.76,29.211,29.211,0,0,1,.635-4.639L61.45-19.824a20.121,20.121,0,0,0,.439-3.418,2.117,2.117,0,0,0-.537-1.562,1.979,1.979,0,0,0-1.465-.537q-1.807,0-4.15,2.124a28.233,28.233,0,0,0-4.712,5.884A52.552,52.552,0,0,0,46.9-9.3,46.4,46.4,0,0,0,44.263-.537ZM72.339-9.375a18.245,18.245,0,0,1,2.368-8.765,21,21,0,0,1,6.128-7.1A12.92,12.92,0,0,1,88.5-27.979a8.6,8.6,0,0,1,6.616,2.71,9.892,9.892,0,0,1,2.515,7.007A19.224,19.224,0,0,1,95.313-9.18a21.053,21.053,0,0,1-6.1,7.2A12.752,12.752,0,0,1,81.567.83a8.588,8.588,0,0,1-6.689-2.808A10.606,10.606,0,0,1,72.339-9.375Zm20.9-10.742a7.789,7.789,0,0,0-1.44-4.834,4.432,4.432,0,0,0-3.687-1.9,6.746,6.746,0,0,0-3.931,1.318,12.808,12.808,0,0,0-3.442,3.857,29.292,29.292,0,0,0-2.905,6.836A24.966,24.966,0,0,0,76.685-7.91,9.375,9.375,0,0,0,78.1-2.344,4.7,4.7,0,0,0,82.153-.391q4.248,0,7.471-5.908a29.461,29.461,0,0,0,2.637-6.787A28.052,28.052,0,0,0,93.237-20.117Zm5.029,39.5L107.5-26.562l4.688-2L108.96-14.551q3.613-7.275,6.812-10.474a9.752,9.752,0,0,1,7.007-3.2,5.612,5.612,0,0,1,4.639,2.148,9.248,9.248,0,0,1,1.709,5.908,21.709,21.709,0,0,1-1.538,7.813,24.965,24.965,0,0,1-4.321,7.275Q118.237.977,112.183.977a9.534,9.534,0,0,1-6.25-2L100.9,19.385Zm8.4-23.633q2.051,4,5.762,4,5.371,0,9.375-8.74,3.271-7.031,3.271-11.816a7,7,0,0,0-.977-4,3.18,3.18,0,0,0-2.783-1.416q-2.93,0-6.152,3.857a39.92,39.92,0,0,0-5.225,8.5q-.83,1.855-1.538,3.955t-1.343,4.3Z" transform="translate(131.812 68.799)" fill="#ddd"/>
</svg>
