<svg xmlns="http://www.w3.org/2000/svg" width="254.841" height="42" viewBox="0 0 254.841 42">
  <g id="logo" transform="translate(0)">
    <path id="txt" d="M60.579,28.726h2.053v1.7H59.226v2.356h3.406v1.773H60.579v2.31h8.142v1.26H59.413v2.566h9.309v2.753h2.846V40.694h9.355V38.128H71.568v-1.26H79.8v-2.31H77.727V32.785H81.11V30.429H77.727v-1.7H79.8v-2.24H60.579Zm8.142,1.75H65.409v-1.75h3.313Zm0,4.083H65.409v-1.82h3.313Zm6.229-4.083H71.568v-1.75h3.383Zm0,4.083H71.568v-1.82h3.383ZM81.11,22.636H75.93v-1.26h-2.94v1.26h-5.6v-1.26h-2.87v1.26h-5.3v2.473h5.3v1h2.87v-1h5.6v1h2.94v-1H81.11Zm8.376,3.476H95.5a5.883,5.883,0,0,1-.35,1.1H90.792V38.9h13.532V27.209H97.978a7.9,7.9,0,0,0,.537-1.1h7.069v-2.45H102.13c.257-.4.77-1.237,1.073-1.843l-2.986-.537a13.507,13.507,0,0,1-1.027,2.38H95.668a14.227,14.227,0,0,0-1.26-2.4l-2.683.723c.163.28.63,1.12.957,1.68h-3.2v1.75a17.176,17.176,0,0,0-3.593-3.78l-2.006,1.89a20.336,20.336,0,0,1,3.406,4.036l2.193-1.96Zm11.992,7.536H93.638V32.272h7.839Zm0-3.056H93.638V29.286h7.839Zm0,6.183H93.638V35.328h7.839Zm-17.754-3.8h2.1v5.576a12.52,12.52,0,0,1-2.38,1.656l1.19,3.2a16.268,16.268,0,0,0,3.336-3.15c1.633,2.566,4.269,2.566,6.183,2.566h11.2l.56-2.73H94.291c-1.213,0-4.946,0-5.669-2.683V30.219h-4.9Zm41.061-4.549c.023-2.776-.187-5.716-6.136-5.716-4.806,0-6.136,1.586-6.136,4.479a3.628,3.628,0,0,0,1.75,3.476c-3.056,1.027-3.453,3.173-3.453,5.366,0,5.016,3.733,5.436,7.372,5.436,3.36,0,4.269-.583,5.179-1.213l1,1.027h4.2l-2.986-2.916a5.974,5.974,0,0,0,.957-3.8v-1.89h-3.01v1.376a4.589,4.589,0,0,1-.257,2.123l-6.6-6.976c-.7-.723-1.027-1.1-1.027-1.82,0-1.05.56-1.75,2.893-1.75,3.126,0,3.1,1.26,3.1,2.8Zm-3.663,9.5a5.129,5.129,0,0,1-3.1.677c-3.593,0-4.129-1.283-4.129-2.73a2.864,2.864,0,0,1,2.31-3.126ZM131.6,23.733v3.01h14.978c-.723,4.386-2.123,10.8-13.112,12.6l1.33,2.94c13.672-2.59,15.048-12.622,15.468-18.548ZM155.02,25.9h16.051V22.986H155.02Zm-1.656,2.613v2.916h15.375c-.747,3.43-2.38,7.629-12.645,8.1l.91,2.893c12.225-1.05,14.628-6.6,15.421-13.9Zm22.747-5.086v9.052h3.29V26.369h11.549c-.07,4.433-.187,11.852-12.225,13.182l1.213,2.916c9.052-1.376,11.992-5.926,13.018-8.446a25.175,25.175,0,0,0,1.376-7.746V23.43Zm21.137,10.639h20.671V30.755H197.248Zm36.7,9.309a19.882,19.882,0,0,0,4.946-3.9,19.272,19.272,0,0,0,3.989,3.919l1.7-2.823a21.594,21.594,0,0,1-3.9-3.57c1.143-1.983,2.053-4.806,2.4-9.4h1.073v-2.94h-5.6c.257-1.353.4-2.356.49-3.1L236.3,21.33a23.344,23.344,0,0,1-2.31,7.676V27.419h-1.33A24.546,24.546,0,0,0,235.3,23.08l-2.426-1.12a22.4,22.4,0,0,1-1.307,2.543v-1.33h-2.613v-1.75h-2.636v1.75h-3.476v2.473h3.476v1.773H222.3v2.5h4.526A21.434,21.434,0,0,1,222,32.925l1.283,2.473a25.6,25.6,0,0,0,2.846-1.726h3.243A7.04,7.04,0,0,1,227.951,35h-.63v1.516c-2.823.233-3.9.28-5.2.35l.187,2.66c.793-.047,4.316-.373,5.016-.42v1.027c0,.513-.093.653-.723.653h-2.45l.49,2.613h3.1c1.773,0,2.24-.607,2.24-2.17v-2.4c2.73-.327,3.36-.42,4.223-.583V35.771c-1.05.163-2.03.28-4.223.513v-.42a15.65,15.65,0,0,0,2.87-2.286V31.362h-3.8c.91-.84,1.26-1.213,1.493-1.446h2.893c-.163.257-.28.4-.653.887l1.96,2.426c.233-.3.373-.537.747-1.073a17.81,17.81,0,0,0,1.8,4.829,14.174,14.174,0,0,1-5.179,3.733Zm6.439-15.771a18.59,18.59,0,0,1-1.423,6.812,16.663,16.663,0,0,1-1.656-5.693c.117-.28.233-.583.443-1.12ZM230.844,25.6c-.28.4-.63.863-1.447,1.82h-.56V25.6Zm35.765,7.839a21.236,21.236,0,0,0-3.849-4.059h1.33V26.953H250v2.426h2.1a20.458,20.458,0,0,1-1.073,2.146c-.537,0-3.22,0-3.453-.023l.21,2.473c4.759,0,5.763-.047,7.746-.117v1.563h-7.536v2.5h7.536v2.123h-9.449v2.613h21.931V40.041H258.49V37.918H266.1v-2.5H258.49V33.765c3.15-.187,3.36-.21,4.479-.327a16.389,16.389,0,0,1,1.26,1.726Zm-7.022-3.126c.42.327.7.537,1.237.98-1.843.14-4.946.21-6.719.233a22.708,22.708,0,0,0,1.167-2.146h5.739Zm-4.059-7.326h-8.842v5.506h2.94v-2.94h14.838v2.94h2.94V22.986H258.49V21.353h-2.963Z" transform="translate(-13.167 -4.727)" fill="#aaf"/>
    <path id="EYS" d="M82.984,12.268l.618-.66a5.294,5.294,0,0,0,3.72,1.352c1.771,0,2.81-.555,2.81-1.467,0-.89-1.079-1.111-3.061-1.279-1.96-.167-3.836-.6-3.836-2.044,0-1.383,1.74-2.169,3.7-2.169a5.636,5.636,0,0,1,3.752,1.31L90,7.9a4.3,4.3,0,0,0-3.018-1.079c-1.31-.011-2.841.356-2.841,1.322,0,.911,1.384,1.1,3.111,1.237,2.233.178,3.784.608,3.784,2.055,0,1.352-1.373,2.347-3.762,2.347a6.445,6.445,0,0,1-4.286-1.51m-8.89,1.418V11.12L70.407,6.351h1.058l3.081,3.972,3.061-3.972h1.048L74.976,11.12v2.566Zm-14.868,0V6.35h6.991v.817H60.106V9.546h5.179v.817H60.106v2.5h6.217v.817Z" transform="translate(-13.167 -1.332)" fill="#444"/>
    <path id="icon" d="M7.365,41.995a.833.833,0,0,1-.578-.219.794.794,0,0,1-.161-.6c0-.03.058-.365.311-1.771.661-3.671,2.209-12.27,2.209-14.13,0-1.789-1.649-5.67-2.448-7.267a.675.675,0,0,1,.007-.74.659.659,0,0,1,.6-.365h3.014a30.032,30.032,0,0,0-.887-2.941.7.7,0,0,1-.112-.03c-.026-.008-.048-.016-.072-.02a2.409,2.409,0,0,1-1.944,1,2.587,2.587,0,0,1-1.93-.989,1.983,1.983,0,0,1-.59.1,3.947,3.947,0,0,1-2.73-1.294A3.665,3.665,0,0,1,.87,9.416a2.415,2.415,0,0,1-.865-2,2.577,2.577,0,0,1,1-1.933A3.577,3.577,0,0,1,2.188,2.167,4.183,4.183,0,0,1,4.9.905a2.17,2.17,0,0,1,.6.078A2.419,2.419,0,0,1,7.432,0,2.582,2.582,0,0,1,9.37.993a2.892,2.892,0,0,1,.585-.06,2.952,2.952,0,0,1,.656.074,4.916,4.916,0,0,1,2.07,1.228A4.627,4.627,0,0,1,13.907,4.3a2.242,2.242,0,0,1,.022,1.244,2.418,2.418,0,0,1,.988,1.936,2.591,2.591,0,0,1-1,1.944,3.576,3.576,0,0,1-1.183,3.316A4.656,4.656,0,0,1,11.1,13.8c.389,1.167.673,2.157.9,3.1h8.844c.113-.515.226-1.119.355-1.887a.714.714,0,0,1-.082-.086.646.646,0,0,0-.05-.054,2.417,2.417,0,0,1-2.184-.142,2.581,2.581,0,0,1-1.146-1.842,1.974,1.974,0,0,1-.56-.215A3.951,3.951,0,0,1,15.5,10.158a3.671,3.671,0,0,1,.7-3.45,2.416,2.416,0,0,1,.289-2.16,2.584,2.584,0,0,1,1.852-1.142,3.578,3.578,0,0,1,2.722-2.232,5.533,5.533,0,0,1,1.159-.128,3.06,3.06,0,0,1,2.283.82,2.388,2.388,0,0,1,.939-.19,2.431,2.431,0,0,1,1.231.337,2.582,2.582,0,0,1,1.149,1.852,2.968,2.968,0,0,1,1.058.652,4.916,4.916,0,0,1,1.145,2.119,4.654,4.654,0,0,1-.013,2.4,2.239,2.239,0,0,1-.622,1.081,2.41,2.41,0,0,1-.15,2.167,2.588,2.588,0,0,1-1.859,1.151,3.577,3.577,0,0,1-2.722,2.233,4.63,4.63,0,0,1-1.944.061c-.068.292-.165.689-.292,1.167h12.22a.756.756,0,0,1,.6.37.851.851,0,0,1,0,.733s-.019.046-.14.311c-1.535,3.344-2.313,5.688-2.313,6.962,0,1.866,1.549,10.461,2.209,14.133.253,1.406.311,1.739.311,1.789a.579.579,0,0,1-.156.584.819.819,0,0,1-.559.22Zm26.008-1.478c-.128-.879-.311-1.8-.523-2.86-.329-1.64-.736-3.677-1.147-6.6H17.086c-1.1,2.583-2.108,4.857-2.994,6.861q-.61,1.38-1.143,2.6Zm-21.93,0c.134-.311.369-.855.682-1.568.769-1.76,2.048-4.688,3.4-7.889H13.165a47.966,47.966,0,0,1-1.924,7.85c-.194.628-.364,1.174-.484,1.606Zm-2.091,0c.206-.855.451-1.633.709-2.46a36.959,36.959,0,0,0,1.593-7H10.032c-.4,3.173-.815,5.288-1.149,7-.178.91-.334,1.7-.447,2.461Zm6.816-11c1.7-4.072,3-7.412,3.872-9.929l.129-.389c.11-.327.205-.609.29-.882H12.231a47.694,47.694,0,0,1,1.05,11.2Zm-4.433,0a44.617,44.617,0,0,0-1.055-11.2H8.632l.177.442c.785,1.944,1.971,4.891,1.956,6.513a18.281,18.281,0,0,1-.222,1.93c-.092.654-.2,1.433-.307,2.311Zm19.741,0a39.666,39.666,0,0,1-.289-4.241c0-2.065,1.551-5.668,2.138-6.955H22.02a51.314,51.314,0,0,1-1.775,5.038c-.82,2.077-1.642,4.094-2.508,6.156ZM22.864,14.109a3.044,3.044,0,0,0,1.262-.051,2.229,2.229,0,0,0,1.615-1.093l-.041-.025a6.421,6.421,0,0,1-2.122-2.405,1.382,1.382,0,0,1-.226.082c-.1,1.2-.3,2.37-.488,3.492m-1.431-3.7a4.568,4.568,0,0,0-2.063,1.765l-.1.16a.924.924,0,0,0,1.555.909l.083-.144a5.026,5.026,0,0,0,.52-2.691M7.244,9.881A5,5,0,0,0,6.4,12.46v.2a.924.924,0,0,0,1.8-.023v-.167a4.918,4.918,0,0,0-.958-2.587M3.1,11.7a2.2,2.2,0,0,0,1.691.788h.07v-.023A6.7,6.7,0,0,1,5.825,9.41a1.746,1.746,0,0,1-.45-.45,6.211,6.211,0,0,1-3.052.964H2.3a2.213,2.213,0,0,0,.607,1.6v-.048ZM9.017,9.085c.523,1.056.943,2.127,1.348,3.163l.03.078a3.086,3.086,0,0,0,1.058-.693,2.2,2.2,0,0,0,.819-1.768h-.047A6.417,6.417,0,0,1,9.169,8.9a1.52,1.52,0,0,1-.152.186M24.8,9.552a5.535,5.535,0,0,0,1.748,2.1l.163.1a1.061,1.061,0,0,0,.262.033.964.964,0,0,0,.812-.441.9.9,0,0,0-.165-1.146.289.289,0,0,1-.145-.156A5.6,5.6,0,0,0,25.194,9.5l-.078-.113v.109a.779.779,0,0,0-.311.067m-7.867.264a2.215,2.215,0,0,0,1.1,1.581l.012-.019a6.7,6.7,0,0,1,2.4-2.13,1.766,1.766,0,0,1-.156-.617h-.163a6.234,6.234,0,0,1-2.955-.746l-.024-.014a2.216,2.216,0,0,0-.233,1.916l-.068.029Zm4.977-1.859A.9.9,0,1,0,23.181,7.6a.923.923,0,0,0-.471-.132.891.891,0,0,0-.762.441Zm3.4.092a6.43,6.43,0,0,1,2.871.754l.041.026a.752.752,0,0,0,.2-.373,2.589,2.589,0,0,0,.015-1.555,3.9,3.9,0,0,0-.761-1.386.752.752,0,0,0-.351-.233l-.024.038a6.4,6.4,0,0,1-2.4,2.122,1.742,1.742,0,0,1,.156.612c.078-.005.162-.007.242-.007ZM2.078,6.586a.834.834,0,0,0-.659.946.977.977,0,0,0,.738.916H2.32a4.622,4.622,0,0,0,2.608-1A6.145,6.145,0,0,0,2.32,6.586Zm4.324.9a.933.933,0,1,0,0-.016l-.109.017Zm3.3-.068a5.513,5.513,0,0,0,2.59.9h.19a.975.975,0,0,0,.711-.9.9.9,0,0,0-.732-.894h-.015a.324.324,0,0,1-.193-.061A4.928,4.928,0,0,0,9.7,7.417m7.939-2.031A.972.972,0,0,0,17.8,6.543l.141.078a5.537,5.537,0,0,0,2.313.561.834.834,0,0,0,.436-.073A6.109,6.109,0,0,0,18.9,5.025L18.685,4.9a.726.726,0,0,0-.261-.048.872.872,0,0,0-.785.527Zm6.755-1.81a4.974,4.974,0,0,0-.478,2.644,5.421,5.421,0,0,0,2.111-1.75l.1-.163a.972.972,0,0,0-.408-1.074.9.9,0,0,0-1.139.156c-.016.026-.064.1-.064.1a.194.194,0,0,1-.117.078M19.7,3.7a6.4,6.4,0,0,1,2.122,2.4,1.766,1.766,0,0,1,.617-.156,6.219,6.219,0,0,1,.738-3.112l.017-.03a1.723,1.723,0,0,0-1.011-.328,1.116,1.116,0,0,0-.124,0,3.28,3.28,0,0,0-.792.1,2.221,2.221,0,0,0-1.589,1.107ZM8.72,5.56a1.725,1.725,0,0,1,.449.449,6.214,6.214,0,0,1,3.053-.964h.049a.765.765,0,0,0-.021-.422,2.6,2.6,0,0,0-.79-1.342,3.87,3.87,0,0,0-1.35-.8,1.328,1.328,0,0,0-.3-.041H9.805a.579.579,0,0,0-.121.012V2.5A6.409,6.409,0,0,1,8.719,5.56m-6.4-.517a6.41,6.41,0,0,1,3.057.965,1.716,1.716,0,0,1,.449-.449,6.22,6.22,0,0,1-.964-3.052V2.464a.737.737,0,0,0-.124-.01v-.11l-.011.11a2.528,2.528,0,0,0-1.633.818,2.228,2.228,0,0,0-.8,1.772ZM6.281,2.512a4.611,4.611,0,0,0,.992,2.536A6.145,6.145,0,0,0,8.135,2.44v-.19a.974.974,0,0,0-.9-.71l-.007-.109v.109a.905.905,0,0,0-.887.731.327.327,0,0,1-.059.24" fill="#aaf"/>
  </g>
</svg>
