<svg id="icon_reload" xmlns="http://www.w3.org/2000/svg" width="39.548" height="45.604" viewBox="0 0 39.548 45.604">
  <path id="Path_33" data-name="Path 33" d="M25.917,51.042a.879.879,0,0,0,.361.052v3.3a1.018,1.018,0,0,0,1.755.723l5.008-5.008a1,1,0,0,0,0-1.446l-5.008-5.008a1.018,1.018,0,0,0-1.755.723v3.511A16.679,16.679,0,0,1,24.73,17.637a1.57,1.57,0,1,0-1.446-2.788,19.8,19.8,0,0,0,2.633,36.192Z" transform="translate(-12.7 -9.834)" fill="#fff"/>
  <path id="Path_34" data-name="Path 34" d="M58.786,9.63a1.215,1.215,0,0,0-.413-.1v-3.2A1.018,1.018,0,0,0,56.618,5.6L51.61,10.611a1,1,0,0,0,0,1.446l5.008,5.008a1.018,1.018,0,0,0,1.755-.723V12.831A16.672,16.672,0,0,1,59.974,42a9.592,9.592,0,0,1-.981.568,1.571,1.571,0,0,0,.723,2.943,1.185,1.185,0,0,0,.723-.207c.413-.207.774-.413,1.187-.671a19.773,19.773,0,0,0-2.84-35Z" transform="translate(-31.371 -5.285)" fill="#fff"/>
</svg>
