<svg xmlns="http://www.w3.org/2000/svg" width="26" height="26" viewBox="0 0 26 26">
  <g id="大変満足">
    <g id="组_5111" data-name="组 5111">
      <circle id="椭圆_283" data-name="椭圆 283" cx="13" cy="13" r="13" fill="#faa"/>
      <path id="路径_9313" data-name="路径 9313" d="M226.118,76.368s0,7.307-7.471,7.307-7.472-7.307-7.472-7.307A35.814,35.814,0,0,0,226.118,76.368Z" transform="translate(-205.647 -62.087)"/>
    </g>
    <g id="组_5116" data-name="组 5116" transform="translate(6.712 7.051)">
      <path id="路径_9307" data-name="路径 9307" d="M237.3,136.1a1.525,1.525,0,1,0,1.525-1.525A1.525,1.525,0,0,0,237.3,136.1Z" transform="translate(-227.773 -134.577)"/>
      <path id="路径_9308" data-name="路径 9308" d="M214.063,136.1a1.525,1.525,0,1,0,1.525-1.525A1.525,1.525,0,0,0,214.063,136.1Z" transform="translate(-214.063 -134.577)"/>
    </g>
  </g>
</svg>
