<svg xmlns="http://www.w3.org/2000/svg" width="31.005" height="26.515" viewBox="0 0 31.005 26.515">
  <path id="icon_heart" d="M46.1,25.754a8.732,8.732,0,0,0-7.024-2.83A10.342,10.342,0,0,0,33.007,26.1a10.339,10.339,0,0,0-6.067-3.179,8.731,8.731,0,0,0-7.024,2.83c-2.72,2.634-2.859,6.736-1.789,9.634,1.944,5.253,7.685,9.3,12.3,12.552.562.4,1.107.78,1.625,1.153a1.617,1.617,0,0,0,.552.253l.06.014a1.624,1.624,0,0,0,.345.041l.017,0a1.659,1.659,0,0,0,.315-.037c.03-.007.059-.013.089-.021a1.636,1.636,0,0,0,.3-.11l.034-.019a1.536,1.536,0,0,0,.2-.12c.52-.375,1.068-.761,1.633-1.159,4.611-3.25,10.349-7.3,12.288-12.546C48.958,32.493,48.821,28.392,46.1,25.754Zm-1.29,8.5c-1.586,4.294-6.862,8.013-11.1,11l-.7.5-.691-.488c-4.242-2.99-9.522-6.712-11.111-11.008-.7-1.9-.665-4.533.994-6.139A5.562,5.562,0,0,1,26.6,26.188c2.847.27,5.014,3.3,5.055,3.354.022.032.05.057.074.086a1.162,1.162,0,0,0,.254.253c.029.023.053.05.084.072.009.006.019.009.028.015a1.56,1.56,0,0,0,.165.091c.042.021.083.045.126.063s.1.032.151.048a1.572,1.572,0,0,0,.156.044c.048.009.1.011.146.016a1.642,1.642,0,0,0,.165.014c.052,0,.1-.008.157-.013a1.428,1.428,0,0,0,.155-.017c.05-.01.1-.028.15-.042a1.63,1.63,0,0,0,.156-.049c.042-.017.082-.041.123-.062a1.648,1.648,0,0,0,.166-.092l.026-.015c.031-.022.056-.049.085-.073a1.728,1.728,0,0,0,.139-.118,1.622,1.622,0,0,0,.117-.137c.024-.03.051-.054.073-.086s2.2-3.07,5.039-3.349a5.552,5.552,0,0,1,4.421,1.921C45.476,29.72,45.511,32.353,44.808,34.249Z" transform="translate(-17.504 -22.887)" fill="#fff"/>
</svg>
