<svg id="大変不満" xmlns="http://www.w3.org/2000/svg" width="26" height="26" viewBox="0 0 26 26">
  <circle id="椭圆_284" data-name="椭圆 284" cx="13" cy="13" r="13" fill="#bad4ff"/>
  <g id="组_5112" data-name="组 5112" transform="translate(6.712 8.562)">
    <path id="路径_9316" data-name="路径 9316" d="M237.3,367.456a1.525,1.525,0,1,0,1.525-1.525A1.525,1.525,0,0,0,237.3,367.456Z" transform="translate(-227.773 -365.931)"/>
    <path id="路径_9317" data-name="路径 9317" d="M214.063,367.456a1.525,1.525,0,1,0,1.525-1.525A1.525,1.525,0,0,0,214.063,367.456Z" transform="translate(-214.063 -365.931)"/>
  </g>
  <path id="路径_9318" data-name="路径 9318" d="M218.069,385.956a.816.816,0,0,1-.815-.348.8.8,0,0,1-.115-.639,5.183,5.183,0,0,1,10.027,0,.806.806,0,0,1-.25.793.815.815,0,0,1-.68.194A24.708,24.708,0,0,0,218.069,385.956Z" transform="translate(-209.152 -366.319)"/>
  <g id="组_5113" data-name="组 5113" transform="translate(6.079 5.272)">
    <path id="路径_9319" data-name="路径 9319" d="M237.848,358.3a.633.633,0,0,0-.822-.355l-4.562,1.814a.633.633,0,0,0,.234,1.222.627.627,0,0,0,.234-.045l4.562-1.814A.633.633,0,0,0,237.848,358.3Z" transform="translate(-224.051 -357.905)"/>
    <path id="路径_9320" data-name="路径 9320" d="M217.947,359.764l-4.562-1.814a.633.633,0,0,0-.468,1.177l4.562,1.814a.633.633,0,1,0,.468-1.177Z" transform="translate(-212.518 -357.905)"/>
  </g>
</svg>
