<svg xmlns="http://www.w3.org/2000/svg" width="58.354" height="90.639" viewBox="0 0 58.354 90.639"><g transform="translate(0 0)" opacity="0.497"><g transform="translate(0)"><path d="M32.992,90.087a5.186,5.186,0,0,1-2.418-6.758l.006-.012.012-.025,5.7-15.4L32.167,64.65c-.158.061-.322.109-.486.158-.188.055-.377.1-.571.133L21.438,86.88a5.205,5.205,0,0,1-10.043-2.726,1.442,1.442,0,0,1,.055-.218h.006l6.932-21.429a11.637,11.637,0,0,0,3.833.395l.109-.006L15.174,85.034a1.3,1.3,0,0,0,.127,1,1.342,1.342,0,0,0,.808.613,1.3,1.3,0,0,0,1-.127,1.343,1.343,0,0,0,.613-.808,1.9,1.9,0,0,1,.146-.376L28,62.349A1.951,1.951,0,0,1,29.919,61.2a2.938,2.938,0,0,0,.711-.115,3.087,3.087,0,0,0,.778-.34v-.006a1.947,1.947,0,0,1,2.339.243l6.045,4.742.006-.006a1.939,1.939,0,0,1,.583,2.308L34.22,84.658v.006a1.694,1.694,0,0,1-.14.3,1.291,1.291,0,0,0-.025.9,1.328,1.328,0,0,0,1.677.832,1.311,1.311,0,0,0,.7-.564l6.987-18.307a2.175,2.175,0,0,1,.2-.389c.559-1.038-.966-2.653-2.2-3.959-.352-.37-.681-.722-1-1.087C38.977,60.7,37.081,58.5,34.991,56.1c-.741-.85-1.428-1.633-1.992-2.271a9.488,9.488,0,0,0,1.756-1.039,9.22,9.22,0,0,0,1.385-1.275c.535.6,1.142,1.293,1.786,2.034,1.4,1.609,3.608,4.172,5.455,6.321.237.273.547.6.875.947,2.138,2.264,4.781,5.058,2.746,8.55L40.076,87.512a2.442,2.442,0,0,1-.109.261l-.006-.006a5.186,5.186,0,0,1-6.968,2.32ZM17.5,58.224v.006a2.039,2.039,0,0,1-1.032-1.9,3.6,3.6,0,0,0-.184-.942,3.556,3.556,0,0,0-.51-.974A3.561,3.561,0,0,0,14,53.164l.592-1.942-.6,1.948a2.041,2.041,0,0,1-1.414-1.6A10.2,10.2,0,0,1,19.35,39.689c.166-2.206.476-4.4.744-6.28.134-.954.261-1.815.34-2.532L3.71,25.3a4.976,4.976,0,0,1-3.7-4.536A5.489,5.489,0,0,1,1.3,16.881,4.706,4.706,0,0,1,6.189,15.2a55.589,55.589,0,0,1,5.777,2A51.357,51.357,0,0,0,22.8,20.3c.771.1,6.348.759,7.175.783,2.849.091,5.692.182,7.782,2.714l3.53,7.651L38.12,33.767c-.887-2.052-2.218-5.847-3.366-7.529-1-1.166-2.947-1.227-4.9-1.287-.953-.031-6.652-.686-7.582-.814a54.266,54.266,0,0,1-11.628-3.285A48.386,48.386,0,0,0,5.344,19a1.055,1.055,0,0,0-1.081.37,1.742,1.742,0,0,0-.292.547,1.7,1.7,0,0,0-.085.62,1.152,1.152,0,0,0,.874,1.026,1.35,1.35,0,0,1,.177.067L23.09,27.677l.006-.006a1.944,1.944,0,0,1,1.331,1.888,39.321,39.321,0,0,1-.486,4.4c-.2,1.372-.419,2.927-.583,4.5-.262.231-.517.472-.76.726a9.949,9.949,0,0,1,1.622.144c.076-.121.153-.248.235-.363a7.553,7.553,0,0,1,1.529-1.629,2.472,2.472,0,0,1,.338-.255,7.566,7.566,0,0,1,5.01-1.359,1.939,1.939,0,0,1,3.119-2.249l1.665,1.761c-.705.517-1.259,1.047-1.774,1.4a7.621,7.621,0,0,1,.749.473l17.4-12.715a2.029,2.029,0,0,1,3.438-2.125l2.025,2.712a2.029,2.029,0,0,1-3.041,2.668L37.642,40.265a7.554,7.554,0,0,1-2.417,9.054,7.362,7.362,0,0,1-2.166,1.133,4.086,4.086,0,0,1-.427.134,10.341,10.341,0,0,1-.853,3.03,10.192,10.192,0,0,1-8.6,5.914q-.325.021-.65.021A10.224,10.224,0,0,1,17.5,58.224Zm4.134-14.915a6.039,6.039,0,0,0-2.777,1.152,6.1,6.1,0,0,0-2.44,5.316,7.076,7.076,0,0,1,.9.541,7.653,7.653,0,0,1,1.7,1.661,7.573,7.573,0,0,1,1.115,2.107,6.982,6.982,0,0,1,.267,1.019,6.167,6.167,0,0,0,2.522.363,6.112,6.112,0,0,0,5.159-3.539,6.137,6.137,0,0,0,.547-2.878,1.656,1.656,0,0,1-.013-.254,2.035,2.035,0,0,1,2.051-2.024v.006a3.461,3.461,0,0,0,1.115-.185,3.537,3.537,0,0,0,1-.516,3.483,3.483,0,0,0,1.37-2.31,3.537,3.537,0,0,0-.574-2.489,1.388,1.388,0,0,1-.089-.115l.006-.006a3.523,3.523,0,0,0-4.8-.8,1.4,1.4,0,0,1-.115.089l-.006-.006a3.523,3.523,0,0,0-.783.815,3.464,3.464,0,0,0-.439.866,2.622,2.622,0,0,1-.083.3,2.037,2.037,0,0,1-2.618,1.2,6.157,6.157,0,0,0-3.019-.318Zm18.413.671a5.411,5.411,0,0,1-1.665-.79l3.955-2.9L49.3,39.172v-.006c.686-.139,1.032-.376,1.1-.613a.2.2,0,0,0,.006-.1.4.4,0,0,0-.061-.109c-.264-.322-.781-.266-1.284-.209a3.149,3.149,0,0,1-.793.027l-2.594-.3,4.878-3.565a4.617,4.617,0,0,1,2.8,1.609,4.093,4.093,0,0,1,.85,1.78,4.027,4.027,0,0,1-.085,1.973,4.919,4.919,0,0,1-4,3.321c-.043.006-.085.018-.127.024l-.006-.006a52.379,52.379,0,0,1-8.108,1.2A6.8,6.8,0,0,1,40.046,43.981ZM26.222,16.043a9.409,9.409,0,1,1,6.65,2.752A9.368,9.368,0,0,1,26.222,16.043Zm2.97-10.317A5.2,5.2,0,1,0,32.871,4.2,5.184,5.184,0,0,0,29.192,5.726Z" transform="translate(0)" fill="#fff"/></g></g></svg>