<svg xmlns="http://www.w3.org/2000/svg" width="74" height="69" viewBox="0 0 74 69"><g transform="translate(-4.297 -6)"><g transform="translate(0 0)"><path d="M-5343.982-893a8.718,8.718,0,0,1-8.724-8.742v-51.516a8.718,8.718,0,0,1,8.724-8.742h38.714a8.718,8.718,0,0,1,8.724,8.742v6.713h9.115a8.718,8.718,0,0,1,8.724,8.742v32.237A12.546,12.546,0,0,1-5291.247-893Zm47.438-12.489a5.308,5.308,0,0,0,5.3,5.308,5.308,5.308,0,0,0,5.3-5.308V-937.8a1.564,1.564,0,0,0-1.559-1.561h-9.036Zm-49-47.769v51.516a1.564,1.564,0,0,0,1.558,1.561h41.441a12.286,12.286,0,0,1-1.168-5.308v-47.769a1.564,1.564,0,0,0-1.559-1.561h-38.714A1.564,1.564,0,0,0-5345.54-953.258Zm11.217,44.8a3.627,3.627,0,0,1-3.583-3.59,3.577,3.577,0,0,1,3.583-3.59h19.474a3.627,3.627,0,0,1,3.583,3.59,3.576,3.576,0,0,1-3.583,3.59Zm0-15.454a3.628,3.628,0,0,1-3.583-3.591,3.577,3.577,0,0,1,3.583-3.59h19.474a3.627,3.627,0,0,1,3.583,3.59,3.577,3.577,0,0,1-3.583,3.591Zm0-15.455a3.628,3.628,0,0,1-3.583-3.591,3.578,3.578,0,0,1,3.583-3.59h19.474a3.628,3.628,0,0,1,3.583,3.59,3.577,3.577,0,0,1-3.583,3.591Z" transform="translate(5357.001 968)" fill="#fff"/></g></g></svg>