<svg xmlns="http://www.w3.org/2000/svg" xmlns:xlink="http://www.w3.org/1999/xlink" width="1000" height="186" viewBox="0 0 1000 186">
  <defs>
    <filter id="Rectangle_106863" x="606" y="88" width="338" height="98" filterUnits="userSpaceOnUse">
      <feOffset dy="3" input="SourceAlpha"/>
      <feGaussianBlur stdDeviation="3" result="blur"/>
      <feFlood flood-opacity="0.161"/>
      <feComposite operator="in" in2="blur"/>
      <feComposite in="SourceGraphic"/>
    </filter>
    <filter id="Ellipse_11453" x="64" y="57" width="118" height="118" filterUnits="userSpaceOnUse">
      <feOffset dy="3" input="SourceAlpha"/>
      <feGaussianBlur stdDeviation="3" result="blur-2"/>
      <feFlood flood-opacity="0.161"/>
      <feComposite operator="in" in2="blur-2"/>
      <feComposite in="SourceGraphic"/>
    </filter>
    <filter id="Ellipse_11453-2" x="198" y="57" width="118" height="118" filterUnits="userSpaceOnUse">
      <feOffset dy="3" input="SourceAlpha"/>
      <feGaussianBlur stdDeviation="3" result="blur-3"/>
      <feFlood flood-opacity="0.161"/>
      <feComposite operator="in" in2="blur-3"/>
      <feComposite in="SourceGraphic"/>
    </filter>
    <filter id="Ellipse_11453-3" x="333" y="57" width="118" height="118" filterUnits="userSpaceOnUse">
      <feOffset dy="3" input="SourceAlpha"/>
      <feGaussianBlur stdDeviation="3" result="blur-4"/>
      <feFlood flood-opacity="0.161"/>
      <feComposite operator="in" in2="blur-4"/>
      <feComposite in="SourceGraphic"/>
    </filter>
    <filter id="Ellipse_11453-4" x="467" y="57" width="118" height="118" filterUnits="userSpaceOnUse">
      <feOffset dy="3" input="SourceAlpha"/>
      <feGaussianBlur stdDeviation="3" result="blur-5"/>
      <feFlood flood-opacity="0.161"/>
      <feComposite operator="in" in2="blur-5"/>
      <feComposite in="SourceGraphic"/>
    </filter>
    <filter id="Rectangle_107098" x="606" y="6" width="338" height="90" filterUnits="userSpaceOnUse">
      <feOffset dy="3" input="SourceAlpha"/>
      <feGaussianBlur stdDeviation="3" result="blur-6"/>
      <feFlood flood-opacity="0.161"/>
      <feComposite operator="in" in2="blur-6"/>
      <feComposite in="SourceGraphic"/>
    </filter>
  </defs>
  <g id="Group_207053" data-name="Group 207053" transform="translate(-440 -475.999)">
    <rect id="Rectangle_106887" data-name="Rectangle 106887" width="1000" height="186" transform="translate(440 475.999)" fill="#c7c7c7" opacity="0.199"/>
    <g id="info-panel" transform="translate(463 -212.001)">
      <g transform="matrix(1, 0, 0, 1, -23, 688)" filter="url(#Rectangle_106863)">
        <g id="Rectangle_106863-2" data-name="Rectangle 106863" transform="translate(615 94)" fill="#fff" stroke="#a794ec" stroke-width="1">
          <rect width="320" height="80" stroke="none"/>
          <rect x="0.5" y="0.5" width="319" height="79" fill="none"/>
        </g>
      </g>
      <text id="特にありませんので身軽でお越しください_" data-name="特にありませんので身軽でお越しください。" transform="translate(752 846.318)" fill="#666" font-size="14" font-family="YuGothic-Bold, Yu Gothic" font-weight="700" letter-spacing="0.05em"><tspan x="-146.65" y="0">特にありませんので身軽でお越しください。</tspan></text>
      <g id="title" transform="translate(-115 132)">
        <text id="当日ご用意いただくもの" transform="translate(891 684)" fill="#a794ec" font-size="16" font-family="YuGothic-Bold, Yu Gothic" font-weight="700" letter-spacing="0.05em"><tspan x="-92" y="0">当日ご用意いただくもの</tspan></text>
        <g id="count" transform="translate(-48 -15)">
          <path id="Union_76" data-name="Union 76" d="M7.485,24.845c-.441-.538-.416-1.171-.256-2.28s1.442-6.437,1.6-7.286-.577-.766-1.352-1.407A5.856,5.856,0,0,1,4.635,8.806a5.917,5.917,0,0,1,3.51-5.385S8,3.408,10.669,3.408A23.042,23.042,0,0,0,20.535.494,2.95,2.95,0,0,1,22.188,0a3.176,3.176,0,0,1,2.229.944,6.5,6.5,0,0,1,1.391,2.04c.07.159.141.317.205.488a14.674,14.674,0,0,1,.89,5.182,14.67,14.67,0,0,1-.877,5.189c-.07.177-.141.341-.211.506a6.558,6.558,0,0,1-1.391,2.04A3.174,3.174,0,0,1,22.2,17.541a3.462,3.462,0,0,1-1.287-.3c-2.422-.912-4.037-2.008-7.13-2.008-1.654,0-1.058,6.119-1.058,8.344s.3,2.774-.883,2.774A9.527,9.527,0,0,1,7.485,24.845Zm13.55-20.9a12.973,12.973,0,0,0-.788,4.745,12.925,12.925,0,0,0,.788,4.732c.41,1,.954,1.786,1.55,1.786s1.314-.791,1.723-1.786A12.625,12.625,0,0,0,24.3,3.94c-.416-.982-1.121-1.584-1.717-1.584S21.445,2.952,21.035,3.94ZM4.865,14.433A5.9,5.9,0,0,1,.73,10.165.905.905,0,0,1,0,9.185.941.941,0,0,1,.669,8.2,5.174,5.174,0,0,1,5.674,3.58a.213.213,0,0,1,.115.4A6.05,6.05,0,0,0,2.851,9.2a6.539,6.539,0,0,0,2.27,4.738.288.288,0,0,1-.193.5A.316.316,0,0,1,4.865,14.433Z" transform="translate(799 681.647)" fill="#a794ec"/>
          <path id="線_319" data-name="線 319" d="M.26,5.179a1.015,1.015,0,0,1-.808-.4A.975.975,0,0,1-.346,3.4L5.034-.552a1.023,1.023,0,0,1,1.412.2.975.975,0,0,1-.2,1.384L.864,4.982A1.018,1.018,0,0,1,.26,5.179Z" transform="translate(827.661 680.75)" fill="#a794ec"/>
          <path id="線_320" data-name="線 320" d="M5.639,3.862a1.022,1.022,0,0,1-.45-.1L-.192,1.122A.979.979,0,0,1-.643-.2,1.019,1.019,0,0,1,.71-.646L6.091,1.99a.979.979,0,0,1,.451,1.326A1.011,1.011,0,0,1,5.639,3.862Z" transform="translate(827.661 695.244)" fill="#a794ec"/>
          <path id="線_321" data-name="線 321" d="M5.639,1.226H.259A1,1,0,0,1-.75.238,1,1,0,0,1,.259-.75H5.639A1,1,0,0,1,6.648.238,1,1,0,0,1,5.639,1.226Z" transform="translate(830.352 689.974)" fill="#a794ec"/>
        </g>
      </g>
    </g>
    <g id="process" transform="translate(-20 -109.001)">
      <g id="set" transform="translate(-223 -72)">
        <g transform="matrix(1, 0, 0, 1, 683, 657)" filter="url(#Ellipse_11453)">
          <circle id="Ellipse_11453-5" data-name="Ellipse 11453" cx="50" cy="50" r="50" transform="translate(73 63)" fill="#fff"/>
        </g>
        <g id="text-group" transform="translate(115 -59)">
          <text id="STEP" transform="translate(680 814)" fill="#888" font-size="10" font-family="SegoeUI-Bold, Segoe UI" font-weight="700"><tspan x="-11.465" y="0">STEP</tspan></text>
          <text id="_01" data-name="01" transform="translate(707 819)" fill="#a794ec" font-size="26" font-family="SegoeUI, Segoe UI"><tspan x="-14.016" y="0">01</tspan></text>
          <text id="申込みフォーム_より予約" data-name="申込みフォーム
より予約" transform="translate(691 837)" fill="#222" font-size="12" font-family="YuGothic-Bold, Yu Gothic" font-weight="700"><tspan x="-42" y="0">申込みフォーム</tspan><tspan x="-24" y="18">より予約</tspan></text>
        </g>
      </g>
      <g id="set-2" data-name="set" transform="translate(-89 -72)">
        <g transform="matrix(1, 0, 0, 1, 549, 657)" filter="url(#Ellipse_11453-2)">
          <circle id="Ellipse_11453-6" data-name="Ellipse 11453" cx="50" cy="50" r="50" transform="translate(207 63)" fill="#fff"/>
        </g>
        <g id="text-group-2" data-name="text-group" transform="translate(115 -59)">
          <text id="STEP-2" data-name="STEP" transform="translate(680 814)" fill="#888" font-size="10" font-family="SegoeUI-Bold, Segoe UI" font-weight="700"><tspan x="-11.465" y="0">STEP</tspan></text>
          <text id="_02" data-name="02" transform="translate(707 819)" fill="#a794ec" font-size="26" font-family="SegoeUI, Segoe UI"><tspan x="-14.016" y="0">02</tspan></text>
          <text id="体験レッスン日_確定のご連絡" data-name="体験レッスン日
確定のご連絡" transform="translate(691 837)" fill="#222" font-size="12" font-family="YuGothic-Bold, Yu Gothic" font-weight="700"><tspan x="-42" y="0">体験レッスン日</tspan><tspan x="-36" y="18">確定のご連絡</tspan></text>
        </g>
      </g>
      <g id="set-3" data-name="set" transform="translate(46 -72)">
        <g transform="matrix(1, 0, 0, 1, 414, 657)" filter="url(#Ellipse_11453-3)">
          <circle id="Ellipse_11453-7" data-name="Ellipse 11453" cx="50" cy="50" r="50" transform="translate(342 63)" fill="#fff"/>
        </g>
        <g id="text-group-3" data-name="text-group" transform="translate(115 -59)">
          <text id="STEP-3" data-name="STEP" transform="translate(680 814)" fill="#888" font-size="10" font-family="SegoeUI-Bold, Segoe UI" font-weight="700"><tspan x="-11.465" y="0">STEP</tspan></text>
          <text id="_03" data-name="03" transform="translate(707 819)" fill="#a794ec" font-size="26" font-family="SegoeUI, Segoe UI"><tspan x="-14.016" y="0">03</tspan></text>
          <text id="スクールに_ご来店" data-name="スクールに
ご来店" transform="translate(691 837)" fill="#222" font-size="12" font-family="YuGothic-Bold, Yu Gothic" font-weight="700"><tspan x="-30" y="0">スクールに</tspan><tspan x="-18" y="18">ご来店</tspan></text>
        </g>
      </g>
      <g id="set-4" data-name="set" transform="translate(180 -72)">
        <g transform="matrix(1, 0, 0, 1, 280, 657)" filter="url(#Ellipse_11453-4)">
          <circle id="Ellipse_11453-8" data-name="Ellipse 11453" cx="50" cy="50" r="50" transform="translate(476 63)" fill="#fff"/>
        </g>
        <g id="text-group-4" data-name="text-group" transform="translate(115 -59)">
          <text id="STEP-4" data-name="STEP" transform="translate(680 814)" fill="#888" font-size="10" font-family="SegoeUI-Bold, Segoe UI" font-weight="700"><tspan x="-11.465" y="0">STEP</tspan></text>
          <text id="_04" data-name="04" transform="translate(707 819)" fill="#a794ec" font-size="26" font-family="SegoeUI, Segoe UI"><tspan x="-14.016" y="0">04</tspan></text>
          <text id="いよいよ_レッスン体験_" data-name="いよいよ
レッスン体験！" transform="translate(691 837)" fill="#222" font-size="12" font-family="YuGothic-Bold, Yu Gothic" font-weight="700"><tspan x="-24" y="0">いよいよ</tspan><tspan x="-42" y="18">レッスン体験！</tspan></text>
        </g>
      </g>
      <path id="Polygon_38" data-name="Polygon 38" d="M12,0,24,20H0Z" transform="translate(660 686) rotate(90)" fill="#888" opacity="0.303"/>
      <path id="Polygon_39" data-name="Polygon 39" d="M12,0,24,20H0Z" transform="translate(795 686) rotate(90)" fill="#888" opacity="0.303"/>
      <path id="Polygon_40" data-name="Polygon 40" d="M12,0,24,20H0Z" transform="translate(929 686) rotate(90)" fill="#888" opacity="0.303"/>
      <g id="title-2" data-name="title" transform="translate(0 9)">
        <g id="Rectangle_106888" data-name="Rectangle 106888" transform="translate(613 601)" fill="#a794ec" stroke="#fff" stroke-width="1">
          <rect width="344" height="28.001" rx="14" stroke="none"/>
          <rect x="-0.5" y="-0.5" width="345" height="29.001" rx="14.5" fill="none"/>
        </g>
        <text id="お申込みから無料体験レッスン受講までの流れ" transform="translate(785 620)" fill="#fff" font-size="14" font-family="YuGothic-Bold, Yu Gothic" font-weight="700"><tspan x="-147" y="0">お申込みから無料体験レッスン受講までの流れ</tspan></text>
      </g>
    </g>
    <g id="contac-tel" transform="translate(-20 -45.001)">
      <g transform="matrix(1, 0, 0, 1, 460, 521)" filter="url(#Rectangle_107098)">
        <g id="Rectangle_107098-2" data-name="Rectangle 107098" transform="translate(615 12)" fill="#fff" stroke="#a794ec" stroke-width="1">
          <rect width="320" height="72" stroke="none"/>
          <rect x="0.5" y="0.5" width="319" height="71" fill="none"/>
        </g>
      </g>
      <rect id="Rectangle_107097" data-name="Rectangle 107097" width="320" height="28.001" transform="translate(1075 533)" fill="#a794ec"/>
      <text id="お電話でもお申込みいただけます" transform="translate(1235 552)" fill="#fff" font-size="14" font-family="YuGothic-Bold, Yu Gothic" font-weight="700"><tspan x="-105" y="0">お電話でもお申込みいただけます</tspan></text>
      <g id="Group_191336" data-name="Group 191336" transform="translate(65 3)">
        <text id="お電話受付時間_8:00_25:00" data-name="お電話受付時間
8:00〜25:00" transform="translate(1067 577)" fill="#666" font-size="10" font-family="YuGothicUI-Bold, Yu Gothic UI" font-weight="700"><tspan x="-34.131" y="0">お電話受付時間</tspan><tspan y="0" font-size="12" font-family="SegoeUI-Bold, Segoe UI"></tspan><tspan font-size="11" font-family="SegoeUI-Bold, Segoe UI"><tspan x="-30.626" y="14">8:00</tspan><tspan y="14" font-family="YuGothicUI-Bold, Yu Gothic UI">〜</tspan><tspan y="14">25:00</tspan></tspan></text>
        <g id="Group_155450" data-name="Group 155450" transform="translate(900 -40)">
          <text id="_0120-978-900" data-name="0120-978-900" transform="translate(335 628)" fill="#666" font-size="24" font-family="SegoeUI-Bold, Segoe UI" font-weight="700"><tspan x="-78.727" y="0">0120-978-900</tspan></text>
          <path id="freedial" d="M183.67,220.907a3.444,3.444,0,1,0,6.885,0c0-1.851-1.862-3.33-3.442-4.215C185.531,217.577,183.67,219.056,183.67,220.907Zm-3.593-10.419v18h28v-18Zm28,4.377a14.358,14.358,0,0,0-5.329,1c1.73,1.139,3.4,2.866,3.4,5.046a5.162,5.162,0,0,1-5.153,5.081,5.092,5.092,0,0,1-5.07-5.081c0-2.18,1.59-3.907,3.32-5.046a13.937,13.937,0,0,0-10.344,0c1.731,1.139,3.32,2.866,3.32,5.046a5.091,5.091,0,0,1-5.07,5.081,5.2,5.2,0,0,1-5.191-5.081c0-2.18,1.712-3.907,3.441-5.046a14.334,14.334,0,0,0-5.324-1v-1.576a15.956,15.956,0,0,1,7.074,1.575,15.993,15.993,0,0,1,13.843,0,15.977,15.977,0,0,1,7.078-1.575Zm-10.411,6a3.443,3.443,0,1,0,6.883,0c0-1.852-1.86-3.332-3.441-4.216C199.523,217.536,197.662,219.015,197.662,220.868Z" transform="translate(43 401)" fill="#666"/>
        </g>
      </g>
    </g>
  </g>
</svg>
