<svg xmlns="http://www.w3.org/2000/svg" xmlns:xlink="http://www.w3.org/1999/xlink" width="266.371" height="142.675" viewBox="0 0 266.371 142.675">
  <defs>
    <linearGradient id="linear-gradient" x2="1" y2="1" gradientUnits="objectBoundingBox">
      <stop offset="0" stop-color="#99e"/>
      <stop offset="1" stop-color="#e2a1c4"/>
    </linearGradient>
  </defs>
  <g id="fukidashi" transform="translate(-21.083 32.013)" opacity="0.9">
    <path id="bg" d="M792.807,6697.39l-31.846,98.4-79.378,10.791-4.186,17.644-11.923-16.137-91.764,6.628-45.9-71.3,101.986-60.194Z" transform="translate(-506.021 -6714.724)" stroke="#fff" stroke-miterlimit="10" stroke-width="1" fill="url(#linear-gradient)"/>
    <path id="Path_384142" data-name="Path 384142" d="M-76.95-10.566A6.752,6.752,0,0,1-77.31-9.2a5.1,5.1,0,0,0-.684-.036A9.96,9.96,0,0,0-80.478-9c.018-.378.036-.954.09-1.728a57.747,57.747,0,0,0,6.336-.63c.378-.054.45-.054.7-.072l-.09-2.07a32.618,32.618,0,0,1-6.822.954,10.6,10.6,0,0,1,.324-2.214l-2.232-.108a1.013,1.013,0,0,1,.036.288c0,.342-.018.792-.036,1.026-.054.72-.054.72-.072,1.08h-.4A15.925,15.925,0,0,1-86-12.744v2.016c.2-.018.36-.018.414-.018h.342c1.746.054,2.718.072,2.916.072-.036.864-.072,1.584-.072,2.16a7.439,7.439,0,0,0-2.466,1.62,5.655,5.655,0,0,0-1.782,4.032A2.843,2.843,0,0,0-83.844.288c1.494,0,3.1-.882,4.716-2.592A15.886,15.886,0,0,0-76-7.092,2.64,2.64,0,0,1-73.98-4.608c0,1.242-.666,2.124-2.106,2.808a7.463,7.463,0,0,1-3.438.72A5.8,5.8,0,0,1-78.57.954,10.026,10.026,0,0,0-74.9,0a4.893,4.893,0,0,0,3.1-4.5,4.016,4.016,0,0,0-1.71-3.4,4.847,4.847,0,0,0-1.872-.882c.054-.162.072-.18.252-.684a4.157,4.157,0,0,1,.216-.522Zm-5.418,4.1a19.743,19.743,0,0,0,.324,4.068,2.48,2.48,0,0,1-1.566.684c-.63,0-1.026-.5-1.026-1.314a3.569,3.569,0,0,1,.81-2.2A5.353,5.353,0,0,1-82.368-6.462Zm2.034,2.718a.738.738,0,0,1-.018-.2.951.951,0,0,0-.018-.234,29.931,29.931,0,0,1-.126-3.1,6.613,6.613,0,0,1,2.16-.324,4.227,4.227,0,0,1,.468.018,13.7,13.7,0,0,1-2.232,3.6,1.662,1.662,0,0,0-.2.252ZM-62.91-14.922a18.389,18.389,0,0,1-.54,3.132c-.4.018-.7.018-.918.018a12.5,12.5,0,0,1-2.43-.162v2.052l.954.018c.378.018.486.018.72.018.216,0,.324,0,1.134-.018a27.692,27.692,0,0,1-1.692,4.248,16.385,16.385,0,0,1-1.746,2.88l2.07,1.152c.108-.216.108-.216.342-.648.684-1.26.846-1.584,1.26-2.466a34.551,34.551,0,0,0,1.98-5.22c1.116-.09,2.214-.216,2.862-.324a3.51,3.51,0,0,1,.576-.09l-.054-2.07a15.439,15.439,0,0,1-2.88.5c.2-.792.288-1.152.378-1.584a9.011,9.011,0,0,1,.288-1.206Zm11.52,4.68a28.414,28.414,0,0,0-5.076-2.412l-1.08,1.746a22.03,22.03,0,0,1,5.184,2.52Zm-.072,8.118a3.223,3.223,0,0,1-.27-.252,6.637,6.637,0,0,0-.63-.486,11.246,11.246,0,0,0-2.844-1.656,19.111,19.111,0,0,1-.162-2.466A6,6,0,0,1-55.152-8.8L-57.24-8.91a9.548,9.548,0,0,0-.144,1.818c0,.54.036,1.242.09,2.07a8.941,8.941,0,0,0-1.674-.162c-2.286,0-3.888,1.278-3.888,3.1,0,1.836,1.548,3.024,3.924,3.024A4.156,4.156,0,0,0-55.944-.072,2.877,2.877,0,0,0-55.17-1.98c0-.072-.018-.2-.036-.36A10.886,10.886,0,0,1-52.452-.108Zm-5.76-.99s.036.432.036.612C-57.186-1.494-57.78-.99-59-.99c-1.116,0-1.764-.432-1.764-1.17,0-.756.756-1.242,1.926-1.242A4.537,4.537,0,0,1-57.222-3.114Zm10.3-6.75a2.688,2.688,0,0,1,.342-.018c.144,0,.4,0,.72.018.306.018.486.018.576.018h1.044a1.524,1.524,0,0,0,.234-.018A38.457,38.457,0,0,1-47.232-.18L-44.964.7a61.026,61.026,0,0,0,2.016-5.958c.468-1.638.918-3.546,1.116-4.662A24.538,24.538,0,0,0-38.88-10.3c.432-.072.432-.072.576-.09l-.09-2.07a14.939,14.939,0,0,1-3.078.54c.072-.414.09-.522.18-1.026a10.228,10.228,0,0,1,.342-1.728l-2.376-.216a2.443,2.443,0,0,1,.018.324,21.848,21.848,0,0,1-.342,2.754c-.414.018-.612.018-.828.018a14.321,14.321,0,0,1-2.412-.162Zm14.274.4c-1.134-.018-1.3-.018-1.782-.018A23.1,23.1,0,0,0-39.8-8.91l.162,1.98a19.426,19.426,0,0,1,4.752-.522,18.739,18.739,0,0,1,2.268.126Zm-7.092,3.78a5.076,5.076,0,0,0-1.332,3.114A2.6,2.6,0,0,0-39.8-.36,7.309,7.309,0,0,0-36.18.36,20.947,20.947,0,0,0-32.832.072c.414-.072.558-.09.882-.126l-.162-2.214A13.775,13.775,0,0,1-36.2-1.6c-1.8,0-2.7-.468-2.7-1.386a2.986,2.986,0,0,1,.936-1.98Zm15.7,6.12c-.018-.234-.018-.378-.018-.486a14.777,14.777,0,0,1,1.6-5.454l-1.44-.648A18.358,18.358,0,0,0-24.84-3.78c.018-.45.036-.594.036-.99a30.054,30.054,0,0,1,.27-3.978A24.816,24.816,0,0,1-23.4-14.13l-2.376-.252a11.778,11.778,0,0,1-.27,1.674,34.556,34.556,0,0,0-.738,7.038,31.4,31.4,0,0,0,.468,5.382c.054.414.072.522.09.846Zm2.484-10.782a21.368,21.368,0,0,0,3.24.2,32.242,32.242,0,0,0,3.852-.216c.864-.108,1.134-.144,1.278-.162l-.108-2.178a19.849,19.849,0,0,1-4.9.486,12.978,12.978,0,0,1-3.33-.288Zm1.242,2.97a5.88,5.88,0,0,0-1.656,3.708,3.015,3.015,0,0,0,.54,1.764c.792,1.062,2.232,1.566,4.464,1.566a22.2,22.2,0,0,0,3.726-.342,6.016,6.016,0,0,1,.738-.108l-.18-2.286a12.65,12.65,0,0,1-4.284.684c-1.872,0-2.862-.54-2.862-1.566a4.072,4.072,0,0,1,1.278-2.592ZM-7.29-11.25c.2-.018.216-.036.45-.054a18.435,18.435,0,0,0,3.006-.342L-3.6-11.7c.036-.018.126-.018.27-.054a.989.989,0,0,0-.2.2,3.2,3.2,0,0,1-.306.27A11.46,11.46,0,0,0-5.652-8.964,8.882,8.882,0,0,0-6.894-4.626,5.431,5.431,0,0,0-4.662-.036a5.814,5.814,0,0,0,3.1.846c3.4,0,5.85-2.754,5.85-6.624a11.333,11.333,0,0,0-.378-3.15,14.137,14.137,0,0,0,2.88,3.69,3.513,3.513,0,0,0,.27.234.911.911,0,0,0,.144.162L8.316-7.02A13.038,13.038,0,0,1,3.51-13.662l-2.16.63A14.888,14.888,0,0,1,2.322-7.56a9.605,9.605,0,0,1-.666,3.924A3.5,3.5,0,0,1-1.638-1.4,3.008,3.008,0,0,1-4.716-4.662,8.433,8.433,0,0,1-2.394-9.99,8.6,8.6,0,0,1-.18-11.952l-1.134-1.926a18.937,18.937,0,0,1-5.112.558,4.65,4.65,0,0,1-.9-.054ZM6.84-15.138a2.082,2.082,0,0,0-2.07,2.07A2.086,2.086,0,0,0,6.84-10.98a2.089,2.089,0,0,0,2.088-2.088A2.086,2.086,0,0,0,6.84-15.138Zm0,.9a1.172,1.172,0,0,1,1.188,1.17A1.187,1.187,0,0,1,6.84-11.88a1.183,1.183,0,0,1-1.17-1.188A1.168,1.168,0,0,1,6.84-14.238Zm7,8.208a11.369,11.369,0,0,1,2.088-.612,20.171,20.171,0,0,1,4.734-.7c1.908,0,2.952.756,2.952,2.16a2.891,2.891,0,0,1-1.278,2.43A6.348,6.348,0,0,1,19.332-1.53a15.862,15.862,0,0,1-2.556.27h-.27A5.691,5.691,0,0,1,17.28.792,17.7,17.7,0,0,0,21.186.108c2.862-.9,4.554-2.844,4.554-5.238a4.083,4.083,0,0,0-.666-2.322c-.81-1.242-2.2-1.836-4.248-1.836a25.432,25.432,0,0,0-5.562.756,9.6,9.6,0,0,1-1.872.342ZM32.274-9.864a2.688,2.688,0,0,1,.342-.018c.144,0,.4,0,.72.018.306.018.486.018.576.018h1.044a1.524,1.524,0,0,0,.234-.018A38.457,38.457,0,0,1,31.968-.18L34.236.7a61.026,61.026,0,0,0,2.016-5.958c.468-1.638.918-3.546,1.116-4.662A24.538,24.538,0,0,0,40.32-10.3c.432-.072.432-.072.576-.09l-.09-2.07a14.939,14.939,0,0,1-3.078.54c.072-.414.09-.522.18-1.026a10.228,10.228,0,0,1,.342-1.728l-2.376-.216a2.443,2.443,0,0,1,.018.324,21.848,21.848,0,0,1-.342,2.754c-.414.018-.612.018-.828.018a14.321,14.321,0,0,1-2.412-.162Zm14.274.4c-1.134-.018-1.3-.018-1.782-.018A23.1,23.1,0,0,0,39.4-8.91l.162,1.98a19.426,19.426,0,0,1,4.752-.522,18.739,18.739,0,0,1,2.268.126Zm-7.092,3.78a5.076,5.076,0,0,0-1.332,3.114A2.6,2.6,0,0,0,39.4-.36,7.309,7.309,0,0,0,43.02.36,20.947,20.947,0,0,0,46.368.072c.414-.072.558-.09.882-.126l-.162-2.214A13.775,13.775,0,0,1,43-1.6c-1.8,0-2.7-.468-2.7-1.386a2.986,2.986,0,0,1,.936-1.98ZM54.5-14.832a4.231,4.231,0,0,1-.054.612l-.27,2.232c-.144,1.242-.252,3.24-.252,4.7,0,.36.036,1.692.054,2.214v.342a1.4,1.4,0,0,1-.018.234l2.16-.036v-.378a8.63,8.63,0,0,1,2.268-5.814,2.679,2.679,0,0,1,1.944-.954c1.548,0,2.412,1.44,2.412,4.032,0,2.736-.954,4.446-3.042,5.508a10.507,10.507,0,0,1-3.942,1.026,6.885,6.885,0,0,1,1.062,2.124A15.351,15.351,0,0,0,60.354,0,7.566,7.566,0,0,0,65-7.4a7.538,7.538,0,0,0-1.3-4.788,3.769,3.769,0,0,0-3.078-1.62A4.3,4.3,0,0,0,57.2-11.97,7.277,7.277,0,0,0,56.07-9.828a3.952,3.952,0,0,1-.108.4h-.054c.036-.432.108-1.044.234-1.8a17.657,17.657,0,0,1,.648-3.474Zm26.1,3.294a3.934,3.934,0,0,1,1.818.54,4.459,4.459,0,0,1,2.214,4,5.04,5.04,0,0,1-2.5,4.5,9.566,9.566,0,0,1-3.582.99A5.742,5.742,0,0,1,79.65.594a11.768,11.768,0,0,0,2.826-.756A6.934,6.934,0,0,0,86.85-6.876c0-4.05-2.808-6.678-7.128-6.678a8.08,8.08,0,0,0-6.192,2.52A7.732,7.732,0,0,0,71.55-5.8c0,2.9,1.476,4.986,3.528,4.986,1.476,0,2.628-1.062,3.654-3.384A26.04,26.04,0,0,0,80.6-11.538Zm-2.2.018a23.723,23.723,0,0,1-1.494,6.084c-.648,1.548-1.26,2.3-1.854,2.3-.792,0-1.422-1.17-1.422-2.646a6.027,6.027,0,0,1,2.448-4.86A4.582,4.582,0,0,1,78.408-11.52ZM-17.82,15.792v.774h-1.944c-.846,0-1.224-.018-1.71-.054a13.563,13.563,0,0,1,.072,1.656v2.79a5.978,5.978,0,0,1-.774-.072V22.6a5.978,5.978,0,0,1,.774-.072v.7a17.567,17.567,0,0,1-.09,2.214h1.872a21.894,21.894,0,0,1-.072-2.214v-.7h5.544V23.3c0,.36-.126.414-.828.414a12.614,12.614,0,0,1-1.638-.126,7.078,7.078,0,0,1,.324,1.638c.918.036,1.17.054,1.458.054,1.962,0,2.394-.288,2.394-1.62V22.524a7.232,7.232,0,0,1,1.026.09V20.868a4.348,4.348,0,0,1-1.026.09v-2.7a12.811,12.811,0,0,1,.09-1.764c-.414.036-.972.072-1.674.072H-16.11v-.774h3.2a7.788,7.788,0,0,1,1.458.09V14.244a7.236,7.236,0,0,1-1.44.09h-1.278V13.56h.792a8.344,8.344,0,0,1,1.26.072V12.156a7.8,7.8,0,0,1-1.242.072h-.81v-.72h1.134a9.457,9.457,0,0,1,1.314.072V10a6.49,6.49,0,0,1-1.314.09h-1.134A4.272,4.272,0,0,1-14.04,8.9h-1.926a4.394,4.394,0,0,1,.09,1.188H-18.09A3.855,3.855,0,0,1-17.982,8.9h-1.926a3.926,3.926,0,0,1,.108,1.188h-.738A7.41,7.41,0,0,1-21.924,10V11.58a9.4,9.4,0,0,1,1.332-.072h.792v.72h-.486a8.007,8.007,0,0,1-1.278-.072v1.476a8.3,8.3,0,0,1,1.278-.072h.486v.774h-.81a8.492,8.492,0,0,1-1.476-.09v1.638a8.492,8.492,0,0,1,1.476-.09Zm0,5.166h-1.872v-.882h1.872Zm1.71,0v-.882h1.962v.882Zm-1.71-2.178h-1.872v-.828h1.872Zm1.71,0v-.828h1.962v.828Zm-1.98-4.446V13.56h2.214v.774Zm0-2.106v-.72h2.214v.72Zm-9.378-1.152A11.348,11.348,0,0,1-25.992,11h1.944a11.526,11.526,0,0,1,1.476.072v-1.8a8.244,8.244,0,0,1-1.476.09h-1.944a8.244,8.244,0,0,1-1.476-.09Zm-.558,2.592a10.183,10.183,0,0,1,1.4-.072h2.988a6.439,6.439,0,0,1,1.332.072V11.832a9.232,9.232,0,0,1-1.4.072h-2.916a7.62,7.62,0,0,1-1.4-.09Zm.63,2.5a9.445,9.445,0,0,1,1.152-.054h2.556a9.836,9.836,0,0,1,1.116.054V14.5a8.226,8.226,0,0,1-1.116.054h-2.556A9.244,9.244,0,0,1-27.4,14.5Zm0,2.52a9.525,9.525,0,0,1,1.134-.054h2.538a8.481,8.481,0,0,1,1.152.054V16.962a8.411,8.411,0,0,1-1.116.054h-2.556a9.243,9.243,0,0,1-1.152-.054Zm1.548,6.768v-.882h1.728v.558h1.638a11.774,11.774,0,0,1-.054-1.26V20.958a8.956,8.956,0,0,1,.054-1.368,5.889,5.889,0,0,1-1.134.072H-26.3c-.558,0-.792-.018-1.278-.054a9.282,9.282,0,0,1,.09,1.476v2.61a13.065,13.065,0,0,1-.108,1.764Zm-.054-4.284h1.8v1.818h-1.8Zm19.368-9.99a12.5,12.5,0,0,1-1.26-.054c.036.252.09,1.044.09,1.458V23.424a12.819,12.819,0,0,1-.126,1.89h1.962v-1.26H-3.4v.81h1.908a10.664,10.664,0,0,1-.072-1.476V19.536a10,10,0,0,1,.054-1.35,11.239,11.239,0,0,1-1.278.054H-5.85V16.692h3.042a10.507,10.507,0,0,1,1.152.036,11.834,11.834,0,0,1-.036-1.278v-3.2c0-.4,0-.738.036-1.116a11.616,11.616,0,0,1-1.206.054H-3.978a15.1,15.1,0,0,0,.882-2.2l-1.98-.234a8.455,8.455,0,0,1-.828,2.43Zm.684,1.71h2.358v2.088H-5.85Zm0,7.074H-3.4v2.358H-5.85Zm8.406-8.622v1.89H.81A10.586,10.586,0,0,1-.7,13.164,10.461,10.461,0,0,1-.63,14.658V21.75a11.91,11.91,0,0,1-.09,1.962H1.242a12.185,12.185,0,0,1-.072-1.728V14.91H2.556v8.766a10.854,10.854,0,0,1-.126,1.8H4.5a10.862,10.862,0,0,1-.108-1.8V14.91H6.03v6.516c0,.27-.072.342-.324.342a5.964,5.964,0,0,1-.936-.126,4.339,4.339,0,0,1,.4,1.836c.432.018.594.036.864.036a1.994,1.994,0,0,0,1.314-.288,1.7,1.7,0,0,0,.486-1.314V14.586a9.508,9.508,0,0,1,.054-1.422,10.255,10.255,0,0,1-1.44.072H4.392v-1.89H6.534a13.208,13.208,0,0,1,1.782.09V9.474a13.349,13.349,0,0,1-1.854.108H.594A13.373,13.373,0,0,1-1.3,9.474v1.962a13.047,13.047,0,0,1,1.782-.09ZM23.634,14.1A16.836,16.836,0,0,1,26.1,19.95l2.052-1.026a16.741,16.741,0,0,0-2.7-5.724Zm-5.292-3.96a4.188,4.188,0,0,1,.144-.558l-2.34-.234v.324a25.32,25.32,0,0,1-.468,3.636,36.969,36.969,0,0,1-3.834.378l.216,2.124a7.391,7.391,0,0,1,.738-.18l1.638-.27c.576-.108.576-.108.846-.144a26.476,26.476,0,0,1-3.618,8.478l2.088,1.152a38.645,38.645,0,0,0,3.672-9.792c.414-.036.7-.054,1.08-.054,1.386,0,1.8.486,1.8,2.142a15.994,15.994,0,0,1-.468,4.1c-.27.882-.558,1.224-1.08,1.224a7.535,7.535,0,0,1-2.628-.72,6.761,6.761,0,0,1,.18,1.53c0,.18-.018.45-.036.792a8.345,8.345,0,0,0,2.772.54,2.28,2.28,0,0,0,2-.81c.864-.99,1.386-3.456,1.386-6.552,0-1.638-.234-2.5-.846-3.186a3.487,3.487,0,0,0-2.664-.954c-.324,0-.576.018-1.116.036.054-.234.054-.234.108-.54.18-.972.306-1.71.4-2.232Zm4.176.126a12.149,12.149,0,0,1,1.89,2.682l1.26-.666a11.665,11.665,0,0,0-1.89-2.646Zm5.292.846a10.41,10.41,0,0,0-1.872-2.538l-1.206.63a13.262,13.262,0,0,1,1.836,2.61ZM-85.7,37.632c.378-.018.468-.036,1.224-.036a43.4,43.4,0,0,0,4.824-.252c.144.324.2.432.378.81.144.342.216.45.324.666a35.412,35.412,0,0,1-5.094.342A10.668,10.668,0,0,1-85.9,39.09l.072,1.962c.306-.036.432-.036.738-.054a51.672,51.672,0,0,0,6.966-.486,10.837,10.837,0,0,0,1.386,2.016,12.4,12.4,0,0,0-3.114-.378,8.024,8.024,0,0,0-4.194.9,3.006,3.006,0,0,0-1.512,2.5,2.9,2.9,0,0,0,1.386,2.466,8.23,8.23,0,0,0,4.392.882,17.33,17.33,0,0,0,4.608-.612,8.9,8.9,0,0,1,1.17-.27l-.324-2.214a13.98,13.98,0,0,1-5.544,1.17,7.016,7.016,0,0,1-2.574-.4,1.187,1.187,0,0,1-.774-1.044,1.3,1.3,0,0,1,.774-1.1,6.943,6.943,0,0,1,3.024-.5,9.68,9.68,0,0,1,4.14.738l1.584-1.134A18,18,0,0,1-76.1,40.242c.216-.054.216-.054.666-.144.432-.09,1.026-.216,1.764-.4.414-.108.792-.18,1.134-.234l-.18-1.962a9.091,9.091,0,0,1-1.71.522c-.108.018-.936.2-2.484.522a16.211,16.211,0,0,1-.7-1.476c.558-.072,2.556-.468,3.762-.756.432-.09.432-.09.612-.126l-.18-1.908a30.241,30.241,0,0,1-4.86,1.08,10.551,10.551,0,0,1-.738-2.178l-2.25.306c.018.036.27.594.72,1.638.144.324.144.324.2.468a31.99,31.99,0,0,1-3.708.2,15.1,15.1,0,0,1-1.728-.072Zm20.34,4.338a11.368,11.368,0,0,1,2.088-.612,20.171,20.171,0,0,1,4.734-.7c1.908,0,2.952.756,2.952,2.16a2.891,2.891,0,0,1-1.278,2.43,6.348,6.348,0,0,1-3.006,1.224,15.863,15.863,0,0,1-2.556.27h-.27a5.691,5.691,0,0,1,.774,2.052,17.7,17.7,0,0,0,3.906-.684c2.862-.9,4.554-2.844,4.554-5.238a4.083,4.083,0,0,0-.666-2.322c-.81-1.242-2.2-1.836-4.248-1.836a25.432,25.432,0,0,0-5.562.756,9.6,9.6,0,0,1-1.872.342Zm22.122-8.388a7.65,7.65,0,0,1,.288,1.17,45.864,45.864,0,0,0,1.206,4.878,11.11,11.11,0,0,0-2.448,1.548,4.227,4.227,0,0,0-1.6,3.222,3.407,3.407,0,0,0,1.566,3.006c1.152.684,2.718.99,5.22.99a38.039,38.039,0,0,0,4.212-.27A11.221,11.221,0,0,1-33.336,48l-.2-2.466a19.707,19.707,0,0,1-5.814.738c-2.9,0-4.122-.558-4.122-1.872,0-1.3,1.314-2.448,3.942-3.42a43.981,43.981,0,0,1,5.94-1.728l-.774-2.268a4.926,4.926,0,0,1-.684.27c-3.492,1.152-3.492,1.152-4.662,1.584A30.231,30.231,0,0,1-40.9,33.2Zm20.394,10.6a3.606,3.606,0,0,1-1.71,2.538,8.993,8.993,0,0,1-3.51,1.188,5.648,5.648,0,0,1,1.044,1.764,9.2,9.2,0,0,0,4.572-2.16,5.52,5.52,0,0,0,1.71-3.33h1.62v3.51c0,1.35.54,1.6,3.528,1.6,2.034,0,2.808-.144,3.312-.612.45-.432.63-1.1.81-3.1a7.455,7.455,0,0,1-1.854-.756,5.716,5.716,0,0,1-.324,2.3c-.216.306-.576.378-1.962.378-1.4,0-1.566-.054-1.566-.558V44.184h1.548c.738,0,1.44.018,1.908.054a13.433,13.433,0,0,1-.09-1.908V35.76a21.421,21.421,0,0,1,.09-2.25,13.9,13.9,0,0,1-1.908.09h-8.3a13.779,13.779,0,0,1-1.89-.09,21.929,21.929,0,0,1,.09,2.25v6.57a13.9,13.9,0,0,1-.09,1.908c.468-.036,1.08-.054,1.944-.054Zm-.99-8.784h8.118v1.17h-8.118Zm0,2.862h8.118v1.206h-8.118Zm0,2.9h8.118v1.278h-8.118Zm16.56-1.62a6.566,6.566,0,0,1,1.44-.5A25.649,25.649,0,0,1,1.26,37.758a4.691,4.691,0,0,1,2.322.486,2.636,2.636,0,0,1,1.368,2.34,3.969,3.969,0,0,1-.2,1.278,4.987,4.987,0,0,1-2.718,2.664,15.455,15.455,0,0,1-5.922,1.062A7.8,7.8,0,0,1-2.97,47.91c3.294-.36,4.7-.684,6.336-1.494a6.387,6.387,0,0,0,4-5.76c0-3.06-2.322-5.058-5.886-5.058-2.088,0-3.06.144-7.164,1.026a12.867,12.867,0,0,1-2.106.36Zm23.526-6.318v.342a27.7,27.7,0,0,1-.468,3.636c-.99.144-3.168.36-3.834.36l.216,2.124a32.27,32.27,0,0,1,3.222-.576A30.536,30.536,0,0,1,13.644,44.2a19.665,19.665,0,0,1-1.872,3.384l2.088,1.152c.09-.18.09-.2.144-.306l.27-.54a38.6,38.6,0,0,0,2.16-5.058,38.076,38.076,0,0,0,1.1-3.906c.414-.036.684-.054,1.044-.054,1.422,0,1.836.486,1.836,2.142a15.994,15.994,0,0,1-.468,4.1c-.27.882-.558,1.224-1.08,1.224a7.447,7.447,0,0,1-2.628-.7,6.761,6.761,0,0,1,.18,1.53c0,.18-.018.432-.036.792a8.733,8.733,0,0,0,2.772.522,2.28,2.28,0,0,0,2-.81c.864-.99,1.386-3.456,1.386-6.552,0-1.638-.234-2.5-.846-3.186a3.487,3.487,0,0,0-2.664-.954c-.342,0-.594.018-1.116.054.054-.234.054-.27.126-.666.252-1.35.252-1.35.306-1.728.054-.288.072-.378.108-.612a4.188,4.188,0,0,1,.144-.558ZM22.7,36.678a11.65,11.65,0,0,1,2.07,3.078,16.18,16.18,0,0,1,1.44,4.086L28.26,42.8a17.472,17.472,0,0,0-3.708-7.02ZM34.7,33.168a4.231,4.231,0,0,1-.054.612l-.27,2.232c-.144,1.242-.252,3.24-.252,4.7,0,.36.036,1.692.054,2.214v.342a1.4,1.4,0,0,1-.018.234l2.16-.036v-.378a8.63,8.63,0,0,1,2.268-5.814,2.679,2.679,0,0,1,1.944-.954c1.548,0,2.412,1.44,2.412,4.032,0,2.736-.954,4.446-3.042,5.508a10.507,10.507,0,0,1-3.942,1.026,6.885,6.885,0,0,1,1.062,2.124A15.351,15.351,0,0,0,40.554,48,7.566,7.566,0,0,0,45.2,40.6a7.538,7.538,0,0,0-1.3-4.788,3.769,3.769,0,0,0-3.078-1.62A4.3,4.3,0,0,0,37.4,36.03a7.277,7.277,0,0,0-1.134,2.142,3.952,3.952,0,0,1-.108.4h-.054c.036-.432.108-1.044.234-1.8a17.657,17.657,0,0,1,.648-3.474ZM66.582,46.092c-.252-.144-.342-.216-.648-.414A16.1,16.1,0,0,0,61,43.14c-.018-.432-.018-.432-.072-2.178.7-.036.972-.054,1.224-.072,1.35-.126,2.16-.216,2.43-.252.414-.054.864-.108,1.17-.126l-.054-1.98a13.321,13.321,0,0,1-2.232.4c-1.656.18-1.656.18-2.556.234-.018-1.116-.018-1.332-.036-1.782,1.584-.09,2.286-.144,3.87-.36a11.258,11.258,0,0,1,1.422-.162l-.09-2a24.352,24.352,0,0,1-5.184.684,11.16,11.16,0,0,1,.126-2.2H58.734a12.843,12.843,0,0,1,.09,2.268c-.45.018-1.062.036-1.35.036a23.669,23.669,0,0,1-4.842-.378l-.018,2H52.9c.054,0,.2,0,.4.018,1.206.09,3.528.18,4.41.18.27,0,.558,0,1.134-.018.018,1.026.018,1.638.018,1.8-.5.018-1.116.036-1.476.036a23.211,23.211,0,0,1-4.194-.306l-.036,1.944c.27,0,.45,0,.684.018,1.494.108,2.16.126,3.258.126.378,0,.936-.018,1.8-.036.018.72.018.72.036.972v.4a3.469,3.469,0,0,1,.018.432,9.4,9.4,0,0,0-1.206-.072c-3.024,0-4.806,1.152-4.806,3.114,0,1.782,1.512,2.808,4.14,2.808a4.792,4.792,0,0,0,2.97-.774,2.808,2.808,0,0,0,1.008-2.43v-.2a8.009,8.009,0,0,1,.972.45,12.146,12.146,0,0,1,3.33,2.466Zm-7.6-1.386v.432a2.282,2.282,0,0,1-.216,1.152,1.869,1.869,0,0,1-1.566.576c-1.278,0-2.052-.414-2.052-1.08,0-.774.882-1.242,2.34-1.242A6.318,6.318,0,0,1,58.986,44.706ZM81.81,38.424v-1.17c1.422-.036,1.746-.036,2.178-.036,1.494,0,2.358.036,3.024.09l-.018-2.07c-.666.072-2.07.108-5.2.126a14.152,14.152,0,0,1,.09-2.142l-2.268.018a9.767,9.767,0,0,1,.108,2.178c-.936.036-.936.036-1.53.054-1.476.036-1.656.036-2.826.072-2.322.09-2.61.09-3.06.09a7.838,7.838,0,0,1-.882-.036L71.5,37.74c.486-.072.486-.072,3.2-.27.792-.054,2.484-.108,5.058-.18,0,.486,0,1.494.018,1.53a.742.742,0,0,0,.018.216,3.008,3.008,0,0,0-1.872-.54,3.313,3.313,0,0,0-3.582,3.276,2.813,2.813,0,0,0,1.242,2.43,3.317,3.317,0,0,0,2.088.648,2.965,2.965,0,0,0,2.646-1.278A3.789,3.789,0,0,1,78.228,46.2a8.495,8.495,0,0,1-3.06,1.044,5.908,5.908,0,0,1,1.278,2.034A12.583,12.583,0,0,0,79.7,47.8a5.775,5.775,0,0,0,2.682-4.86A5.478,5.478,0,0,0,81.81,40.4c0-.216-.018-.36-.018-.432Zm-2.07,2.97a1.64,1.64,0,0,1-1.764,1.62,1.42,1.42,0,0,1-1.53-1.422,1.577,1.577,0,0,1,1.674-1.44C79.11,40.152,79.74,40.638,79.74,41.394Z" transform="translate(153.579 22.126) rotate(-7)" fill="#fff"/>
  </g>
</svg>
