<svg xmlns="http://www.w3.org/2000/svg" xmlns:xlink="http://www.w3.org/1999/xlink" width="100" height="21.68" viewBox="0 0 100 21.68">
  <defs>
    <linearGradient id="linear-gradient" y1="0.5" x2="1" y2="0.5" gradientUnits="objectBoundingBox">
      <stop offset="0" stop-color="#e098c1"/>
      <stop offset="1" stop-color="#5185c5"/>
    </linearGradient>
  </defs>
  <g id="logo_InspiartZ" transform="translate(-15.564 -13.742)">
    <path id="typo" d="M-3821.9-851.654l-.021-11.312h1.607v.529a3.742,3.742,0,0,1,2.169-.745,4.179,4.179,0,0,1,4.1,4.428,4.179,4.179,0,0,1-4.1,4.427,3.71,3.71,0,0,1-2.148-.719v3.393Zm1.608-8.783v3.364a3.038,3.038,0,0,0,2.148,1.261,2.654,2.654,0,0,0,2.492-2.942,2.655,2.655,0,0,0-2.492-2.943A3.038,3.038,0,0,0-3820.292-860.437Zm29.756,2.982v-4.026h-1.51v-1.485h1.51v-2.167h1.608v2.167h2.31v1.485h-2.31v4.026c0,.952.5,1.642,1.187,1.642a1.591,1.591,0,0,0,1.106-.563l.187-.241,1.177.827-.2.278a3.032,3.032,0,0,1-2.267,1.185A2.876,2.876,0,0,1-3790.536-857.455Zm-39.932,1.167-.142-.246,1.186-.833.2.332a2.63,2.63,0,0,0,2.024,1.222c1.193,0,1.737-.626,1.737-1.208,0-.533-.566-.751-1.766-1.093-1.226-.35-2.9-.827-2.9-2.593,0-1.2,1.076-2.476,3.069-2.476a4.028,4.028,0,0,1,2.942,1.458l-1.139.893a2.628,2.628,0,0,0-1.8-.866c-.951,0-1.461.511-1.461.991,0,.533.564.752,1.765,1.094,1.226.349,2.9.827,2.9,2.591,0,1.338-1.15,2.693-3.345,2.693A4.052,4.052,0,0,1-3830.468-856.287Zm22.156-1.022c0-1.783,1.344-2.983,3.344-2.983a6.534,6.534,0,0,1,2.135.413,1.746,1.746,0,0,0-1.86-1.817,2.392,2.392,0,0,0-1.72.847l-.131.173-1.181-.829.146-.2a3.807,3.807,0,0,1,2.886-1.476,3.336,3.336,0,0,1,3.481,3.633s0,5,0,5.005h-1.608a5.019,5.019,0,0,0,0-.527,3.374,3.374,0,0,1-2.148.744C-3806.968-854.328-3808.312-855.527-3808.312-857.31Zm1.609,0c0,.952.633,1.5,1.735,1.5a3.058,3.058,0,0,0,2.148-1.261v-1.172a5.414,5.414,0,0,0-2.148-.562C-3806.07-858.807-3806.7-858.262-3806.7-857.31Zm25.187,2.766v-1.07l5.908-8.756h-5.633v-1.485h7.787v1.069l-5.908,8.756h6.339l-.352,1.486Zm-52.324,0v-5.222a1.809,1.809,0,0,0-1.8-1.93,3.042,3.042,0,0,0-2.149,1.26v5.893h-1.607v-8.424l1.607,0v.513a3.726,3.726,0,0,1,2.149-.73,3.267,3.267,0,0,1,3.413,3.416v5.222Zm35.274,0v-6.089c0-.186-.008-.353-.018-.509v-1.823h1.626s-.013.369,0,.433a3.056,3.056,0,0,1,1.874-.65,3.066,3.066,0,0,1,1.125.192l.531.224-.562,1.479-.57-.24a1.6,1.6,0,0,0-.524-.1,2.6,2.6,0,0,0-1.874,1.175v5.905Zm-13.383,0v-8.421h1.608v8.421Zm-32.051,0v-11.311h1.608v11.311Zm31.844-10.425a1.048,1.048,0,0,1,1.01-1.031,1.047,1.047,0,0,1,1.01,1.031,1.047,1.047,0,0,1-1.01,1.032A1.048,1.048,0,0,1-3812.156-864.969Z" transform="translate(3888.586 884.668)" fill="#1a1311"/>
    <path id="mark" d="M-3837.685-845.31l12.348-2.351a10.8,10.8,0,0,1-7.823,3.341A10.8,10.8,0,0,1-3837.685-845.31Zm-6.315-9.85a11.134,11.134,0,0,1,.077-1.27l7.657,2.8-3.365,7.165A10.824,10.824,0,0,1-3844-855.16Zm9.494,2.176,9.289,3.4-11.953,2.275Zm.8-1.7,4.888-10.412a10.841,10.841,0,0,1,6.5,9.934,10.8,10.8,0,0,1-.9,4.317Zm-8.4-3.075,10.594-5.988-3.953,8.418Zm8.952-8.243a10.941,10.941,0,0,1,1.62.121l-11.64,6.579A10.842,10.842,0,0,1-3833.16-866Z" transform="translate(3859.564 879.741)" fill="url(#linear-gradient)"/>
  </g>
</svg>
