<svg xmlns="http://www.w3.org/2000/svg" width="115.508" height="37" viewBox="0 0 115.508 37">
  <path id="logo_school" d="M-2165.144,20222.33c0-1.711,1.2-2.783,3.2-2.783s3.2,1.072,3.2,2.783-1.2,2.789-3.2,2.789S-2165.144,20224.041-2165.144,20222.33Zm.644,0c0,1.412,1.008,2.2,2.553,2.2s2.553-.787,2.553-2.2-1.008-2.2-2.553-2.2S-2164.5,20220.922-2164.5,20222.33Zm-9.5,0c0-1.711,1.2-2.783,3.2-2.783s3.2,1.072,3.2,2.783-1.2,2.789-3.2,2.789S-2174,20224.041-2174,20222.33Zm.649,0c0,1.412,1,2.2,2.549,2.2s2.553-.787,2.553-2.2-1-2.2-2.553-2.2S-2173.355,20220.922-2173.355,20222.33Zm-18.766,0c0-1.7,1.205-2.783,3.184-2.783a3,3,0,0,1,2.673,1.289l-.6.3a2.256,2.256,0,0,0-2.079-1.006c-1.527,0-2.53.75-2.53,2.2s1,2.2,2.53,2.2a2.23,2.23,0,0,0,2.079-1l.6.3a3,3,0,0,1-2.7,1.295C-2190.916,20225.119-2192.121,20224.037-2192.121,20222.33Zm-8.378,1.707.442-.475a3.8,3.8,0,0,0,2.668.967c1.265,0,2.011-.4,2.011-1.051,0-.639-.773-.793-2.195-.914-1.4-.121-2.747-.428-2.747-1.467,0-.99,1.247-1.551,2.65-1.551a4.022,4.022,0,0,1,2.687.938l-.492.42a3.084,3.084,0,0,0-2.162-.773c-.939-.01-2.038.252-2.038.949,0,.652.994.785,2.231.887,1.6.123,2.71.434,2.71,1.467,0,.971-.98,1.686-2.7,1.686A4.644,4.644,0,0,1-2200.5,20224.037Zm-21.908-1.707c0-1.7,1.2-2.783,3.184-2.783a3.015,3.015,0,0,1,2.673,1.289l-.6.3a2.256,2.256,0,0,0-2.079-1.006c-1.523,0-2.53.75-2.53,2.2s1.008,2.2,2.53,2.2a2.23,2.23,0,0,0,2.079-1l.6.3a3.015,3.015,0,0,1-2.7,1.295C-2221.206,20225.119-2222.406,20224.037-2222.406,20222.33Zm-18.591,1.707.446-.475a3.791,3.791,0,0,0,2.664.967c1.27,0,2.01-.4,2.01-1.051,0-.639-.773-.793-2.19-.914s-2.747-.428-2.747-1.467c0-.99,1.242-1.551,2.65-1.551a4.023,4.023,0,0,1,2.687.938l-.5.42a3.083,3.083,0,0,0-2.162-.773c-.938-.01-2.033.252-2.033.949,0,.652.989.785,2.231.887,1.6.123,2.71.434,2.71,1.467,0,.971-.984,1.686-2.7,1.686A4.647,4.647,0,0,1-2241,20224.037Zm-11.97-1.557v-2.777h.63v2.74a1.939,1.939,0,0,0,2.144,2.086,1.941,1.941,0,0,0,2.144-2.086v-2.74h.63v2.777a2.509,2.509,0,0,1-2.774,2.639A2.512,2.512,0,0,1-2252.968,20222.48Zm97.076,2.477v-5.254h.63v4.67h4.021v.584Zm-22.441,0v-2.365h-4.324v2.365h-.635v-5.254h.635v2.291h4.324v-2.291h.63v5.254Zm-50.832,0v-5.254h.63v5.254Zm-30.575,0v-4.367l-2.673,3.234h-.046l-2.673-3.234v4.367h-.616v-5.254h.69l2.636,3.215,2.636-3.215h.676v5.254Zm88.9-20.578,1.509-1.605a12.916,12.916,0,0,0,9.058,3.293c4.315,0,6.841-1.352,6.841-3.574,0-2.172-2.627-2.705-7.453-3.113-4.771-.412-9.344-1.455-9.344-4.979,0-3.369,4.242-5.281,9.012-5.281a13.738,13.738,0,0,1,9.137,3.188l-1.684,1.432a10.472,10.472,0,0,0-7.352-2.633c-3.188-.023-6.915.869-6.915,3.217,0,2.221,3.368,2.682,7.577,3.012,5.438.434,9.215,1.482,9.215,5.008,0,3.287-3.34,5.713-9.16,5.713A15.718,15.718,0,0,1-2170.844,20204.379Zm-38.709,3.141v-6.25l-8.985-11.613h2.576l7.5,9.67,7.458-9.67h2.549l-8.957,11.613v6.25Zm-56.2,0v-17.863h17.027v1.988H-2263.6v5.795h12.61v1.988h-12.61v6.1h15.136v1.99Z" transform="translate(2266.248 -20188.619)" stroke="rgba(0,0,0,0)" stroke-width="1"/>
</svg>
