<svg xmlns="http://www.w3.org/2000/svg" width="73.879" height="31" viewBox="0 0 73.879 31">
  <path id="logo_ballet" d="M-3362.281-2699.27c0-.291.291-.7.6-.7.215,0,.312.118.528.118a.537.537,0,0,0,.388-.248,5.423,5.423,0,0,0,.8-1.411c-.161-.409-.3-.754-.539-1.326l-.8-1.994a4.909,4.909,0,0,0-.516-1.056c-.12-.15-.291-.183-.572-.2-.065,0-.086-.011-.086-.119s.021-.129.086-.129c.355.01.808.031,1.142.031s.819-.01,1.185-.031c.064,0,.086.021.086.129s-.022.119-.086.119c-.258.021-.517.043-.592.194s.053.507.28,1.066l.56,1.4c.14.365.216.549.313.84.087-.258.161-.463.312-.862l.517-1.39a2.343,2.343,0,0,0,.194-.8.529.529,0,0,0-.054-.249c-.076-.161-.248-.183-.539-.2-.064,0-.086-.022-.086-.119s.022-.129.086-.129c.3.01.678.031.969.031s.6-.01.884-.031c.075,0,.1.01.1.129,0,.1-.021.108-.1.119a.706.706,0,0,0-.485.194,3.01,3.01,0,0,0-.56,1.056l-.765,1.982c-.258.646-.474,1.2-.689,1.67-.582,1.3-1.239,2.187-2.155,2.187C-3362.2-2699-3362.281-2699.119-3362.281-2699.27Zm-13.888-4.633a2.445,2.445,0,0,1,2.359-2.6,2.014,2.014,0,0,1,1.994,1.908.242.242,0,0,1-.054.183.187.187,0,0,1-.172.054c-1.056-.032-2.176-.043-3.124-.022a3.105,3.105,0,0,0-.032.421,1.86,1.86,0,0,0,1.594,2.079,1.629,1.629,0,0,0,1.466-.754.108.108,0,0,1,.086-.054c.043,0,.183.076.183.161,0,.033-.01.044-.053.108a2.044,2.044,0,0,1-1.875,1.034A2.35,2.35,0,0,1-3376.17-2703.9Zm1.066-.862a21.438,21.438,0,0,0,2.2-.033c.086,0,.119-.075.108-.172-.054-.571-.345-1.218-1.014-1.218C-3374.446-2706.187-3374.909-2705.616-3375.1-2704.764Zm-3.372,3.276c.01-.281.022-.475.022-.723a1.728,1.728,0,0,1-1.422.83,2.25,2.25,0,0,1-2.263-2.531,2.371,2.371,0,0,1,2.37-2.608,1.831,1.831,0,0,1,1.315.549v-1.917a3.354,3.354,0,0,0-.064-.894.323.323,0,0,0-.366-.216l-.281.021c-.107.011-.14.011-.14-.117s.021-.141.118-.162a12.983,12.983,0,0,0,1.542-.452c.053,0,.118.043.118.086-.033.765-.054,1.552-.054,2.565v3.965a3.142,3.142,0,0,0,.076,1.1c.075.163.237.163.4.174l.194.01c.076,0,.1.021.1.119s-.021.129-.1.14a14.582,14.582,0,0,0-1.465.172C-3378.443-2701.382-3378.476-2701.413-3378.476-2701.489Zm-2.662-2.457c0,1.3.614,2.058,1.433,2.058a1.206,1.206,0,0,0,1.035-.55,1.1,1.1,0,0,0,.216-.851v-1.358a1.342,1.342,0,0,0-.205-.916,1.22,1.22,0,0,0-1.034-.614C-3380.6-2706.176-3381.137-2705.25-3381.137-2703.946Zm-6.044,1.455a1.155,1.155,0,0,1,.366-.937,3,3,0,0,1,1.292-.583,2.645,2.645,0,0,0,.841-.366.579.579,0,0,0,.248-.42v-.3c0-.777-.215-1.11-.678-1.11a.859.859,0,0,0-.657.248.655.655,0,0,0-.184.549c0,.292-.312.485-.743.485-.237,0-.334-.108-.334-.312,0-.5.808-1.261,1.992-1.261,1.466,0,1.487.744,1.477,1.563l-.022,2.2c-.01.668.151.927.409.927a.522.522,0,0,0,.292-.1c.043-.021.1-.021.14.055s.043.118-.021.161a1.374,1.374,0,0,1-.82.258.81.81,0,0,1-.8-.549,2.02,2.02,0,0,1-1.519.6A1.123,1.123,0,0,1-3387.181-2702.491Zm1.81-1.229a1.078,1.078,0,0,0-.862,1.077.8.8,0,0,0,.743.851.964.964,0,0,0,1.045-.916l.01-1.509C-3384.553-2704.053-3384.747-2703.956-3385.372-2703.719Zm-6.67-.183a2.438,2.438,0,0,1,2.349-2.6,2.966,2.966,0,0,1,1.239.238c.215.086.409.215.409.474,0,.366-.129.668-.409.668-.258,0-.431-.366-.592-.6a.782.782,0,0,0-.658-.441c-.851,0-1.325.937-1.325,2.209,0,1.356.829,2.057,1.519,2.057a1.524,1.524,0,0,0,1.412-.732c.053-.076.107-.065.194-.011s.1.1.064.162a2.068,2.068,0,0,1-1.875,1.1A2.336,2.336,0,0,1-3392.041-2703.9Zm-13.823,2.154a1.638,1.638,0,0,1-.335-1.174c0-.5.021-.98.021-1.487l.022-1.5-.679.011c-.087,0-.108-.011-.108-.14,0-.108.011-.14.119-.162a1.609,1.609,0,0,0,.829-.442,2.452,2.452,0,0,0,.453-.743c.032-.065.054-.1.172-.1s.14.032.14.107c-.01.3-.032.733-.032,1.056.431,0,1.045-.011,1.487-.021.054,0,.065.01.054.064l-.1.3a.117.117,0,0,1-.107.076c-.388-.022-.959-.032-1.358-.032l-.022,2.683a1.775,1.775,0,0,0,.216,1.088.684.684,0,0,0,.571.281,1.013,1.013,0,0,0,.678-.292.117.117,0,0,1,.173.032c.064.087.086.119.021.183a1.6,1.6,0,0,1-1.175.571A1.355,1.355,0,0,1-3405.864-2701.748Zm-5.959-2.154a2.445,2.445,0,0,1,2.36-2.6,2.015,2.015,0,0,1,1.994,1.908.241.241,0,0,1-.054.183.187.187,0,0,1-.172.054c-1.056-.032-2.177-.043-3.124-.022a2.9,2.9,0,0,0-.032.421,1.86,1.86,0,0,0,1.595,2.079,1.627,1.627,0,0,0,1.465-.754.11.11,0,0,1,.086-.054c.043,0,.183.076.183.161,0,.033-.01.044-.053.108a2.045,2.045,0,0,1-1.875,1.034A2.35,2.35,0,0,1-3411.823-2703.9Zm1.067-.862a21.448,21.448,0,0,0,2.2-.033c.085,0,.118-.075.107-.172-.053-.571-.345-1.218-1.013-1.218C-3410.1-2706.187-3410.563-2705.616-3410.756-2704.764Zm-11.755,2.273a1.154,1.154,0,0,1,.367-.937,3.011,3.011,0,0,1,1.293-.583,2.646,2.646,0,0,0,.84-.366.583.583,0,0,0,.248-.42v-.3c0-.777-.215-1.11-.679-1.11a.857.857,0,0,0-.657.248.657.657,0,0,0-.183.549c0,.292-.313.485-.744.485-.237,0-.334-.108-.334-.312,0-.5.808-1.261,1.994-1.261,1.465,0,1.486.744,1.476,1.563l-.022,2.2c-.011.668.15.927.409.927a.523.523,0,0,0,.291-.1c.043-.021.1-.021.14.055s.043.118-.021.161a1.373,1.373,0,0,1-.819.258.809.809,0,0,1-.8-.549,2.023,2.023,0,0,1-1.52.6A1.123,1.123,0,0,1-3422.512-2702.491Zm1.81-1.229a1.078,1.078,0,0,0-.862,1.077.8.8,0,0,0,.744.851.963.963,0,0,0,1.044-.916l.011-1.509C-3419.882-2704.053-3420.076-2703.956-3420.7-2703.719Zm-7.811,2.123c-.421,0-.916.01-1.336.043-.065,0-.087-.032-.087-.14s.022-.129.087-.14c.376-.043.667-.043.808-.27a3.71,3.71,0,0,0,.129-1.411v-3.836c0-1.013,0-1.153-.129-1.379-.119-.194-.453-.2-.863-.248-.075-.01-.1-.021-.1-.14s.022-.162.1-.162c.452.033.916.043,1.369.043.485,0,1.2-.065,1.777-.065,2.1,0,2.759.711,2.759,1.767,0,.776-.421,1.434-1.939,1.843v.065c1.541.162,2.413.84,2.413,1.939,0,1.056-.7,2.155-3.1,2.155C-3427.242-2701.532-3428.006-2701.6-3428.513-2701.6Zm.582-3.815v1.9a2.79,2.79,0,0,0,.161,1.325c.161.27.593.3,1.088.3,1.627,0,2.026-1,2.026-1.789,0-.679-.2-1.745-2.608-1.745C-3427.457-2705.422-3427.651-2705.422-3427.931-2705.411Zm.13-3.287a3.2,3.2,0,0,0-.13,1.347v1.563c.172.011.333.011.528.011,1.842,0,2.316-.765,2.316-1.67,0-.969-.657-1.487-1.8-1.487C-3427.274-2708.934-3427.662-2708.924-3427.8-2708.7Zm64.065,7.112c-.344,0-.754.021-1.142.032-.075,0-.1-.021-.1-.119s.021-.119.1-.119c.28-.031.474-.031.571-.2a2.911,2.911,0,0,0,.087-1.109v-1.422a1.951,1.951,0,0,0-.119-.884.819.819,0,0,0-.83-.549,1.17,1.17,0,0,0-1.013.615,1.187,1.187,0,0,0-.238.829v1.411a3.463,3.463,0,0,0,.076,1.109c.1.163.334.174.636.2.064.012.075.022.075.119s-.011.119-.086.119c-.355-.011-.776-.032-1.078-.032-.355,0-.776.021-1.131.032-.086,0-.1-.032-.1-.119s.021-.119.1-.119c.27-.031.485-.031.571-.2a3.18,3.18,0,0,0,.086-1.109v-1.422a1.944,1.944,0,0,0-.118-.884.86.86,0,0,0-.851-.549,1.147,1.147,0,0,0-.99.615,1.247,1.247,0,0,0-.227.829v1.411a3.625,3.625,0,0,0,.064,1.109c.076.163.334.174.6.2.065.012.087.033.087.119s-.021.119-.087.119c-.334-.011-.754-.032-1.088-.032s-.743.021-1.1.032c-.076,0-.1-.021-.1-.119s.021-.107.1-.119c.281-.031.474-.031.561-.2a2.7,2.7,0,0,0,.086-1.109v-1.541a2.8,2.8,0,0,0-.076-.884.306.306,0,0,0-.377-.226l-.248.021c-.108.01-.14.021-.151-.141,0-.1.021-.108.129-.14a14.048,14.048,0,0,0,1.5-.453.11.11,0,0,1,.118.1c-.011.291-.021.6-.021.884a1.84,1.84,0,0,1,1.562-1.014,1.384,1.384,0,0,1,1.412,1.067,1.946,1.946,0,0,1,1.681-1.067,1.414,1.414,0,0,1,1.476,1.509c0,.388-.011.916-.011,1.185v.7a3.581,3.581,0,0,0,.065,1.109c.086.163.355.174.614.2.065.012.087.022.087.119s-.011.119-.087.119C-3362.982-2701.565-3363.4-2701.586-3363.736-2701.586Zm-30.126,0c-.409,0-.98.011-1.411.032-.075,0-.1-.021-.1-.14s.022-.129.1-.14c.355-.033.7-.054.776-.27.086-.237,0-.539-.2-1.11l-.463-1.326c-.367-.021-.83-.043-1.24-.043-.441,0-.873.022-1.346.043l-.431,1.186a1.817,1.817,0,0,0-.173,1.217c.1.217.463.26.862.3.064.011.1.032.1.14s-.021.14-.108.14c-.4-.021-.926-.032-1.314-.032s-.754,0-1.1.032c-.086,0-.107-.021-.107-.14s.021-.129.107-.14a.99.99,0,0,0,.615-.281,4.571,4.571,0,0,0,.646-1.282l1.282-3.415c.529-1.433.636-1.735.8-2.284l.689-.335a.1.1,0,0,1,.118.087c.205.668.377,1.207.852,2.586l1.218,3.448a5,5,0,0,0,.528,1.207c.172.215.366.237.754.27.1.011.118.032.118.14s-.022.14-.118.14C-3392.849-2701.575-3393.431-2701.586-3393.862-2701.586Zm-3.092-5.172-.646,1.789c.377.021.8.021,1.2.021.356,0,.766,0,1.1-.021l-.614-1.777c-.247-.7-.366-1.078-.506-1.477C-3396.566-2707.824-3396.706-2707.437-3396.954-2706.758Zm-16.657,5.172c-.355,0-.786.011-1.152.032-.076,0-.1-.021-.1-.119s.021-.119.1-.129c.29-.032.485-.032.56-.2a2.868,2.868,0,0,0,.1-1.121v-4.762a3.139,3.139,0,0,0-.076-.884.333.333,0,0,0-.378-.226l-.28.021c-.1.011-.129,0-.139-.129s.021-.129.118-.151a16.12,16.12,0,0,0,1.552-.452c.053,0,.118.021.118.076-.021.765-.043,1.573-.043,2.607v3.9a3.227,3.227,0,0,0,.075,1.121c.1.161.3.172.615.2.075.01.085.044.085.129s-.021.119-.085.119C-3412.9-2701.575-3413.3-2701.586-3413.612-2701.586Zm-2.822,0c-.356,0-.787.011-1.153.032-.076,0-.1-.021-.1-.119s.022-.119.1-.129c.291-.032.484-.032.56-.2a2.875,2.875,0,0,0,.1-1.121v-4.762a3.145,3.145,0,0,0-.075-.884.332.332,0,0,0-.377-.226l-.281.021c-.1.011-.13,0-.14-.129s.021-.129.118-.151a15.96,15.96,0,0,0,1.552-.452c.054,0,.119.021.119.076-.021.765-.043,1.573-.043,2.607v3.9a3.221,3.221,0,0,0,.075,1.121c.1.161.3.172.615.2.075.01.086.044.086.129s-.021.119-.086.119C-3415.724-2701.575-3416.122-2701.586-3416.434-2701.586Zm49.3-13.909c.017-.46.035-.779.035-1.186a2.838,2.838,0,0,1-2.337,1.363c-2.372,0-3.717-1.734-3.717-4.159,0-2.479,1.5-4.284,3.894-4.284a3,3,0,0,1,2.16.9v-3.151a5.484,5.484,0,0,0-.106-1.469.531.531,0,0,0-.6-.354l-.46.036c-.177.017-.23.017-.23-.195-.018-.213.035-.23.195-.266a21.256,21.256,0,0,0,2.531-.743c.089,0,.195.071.195.142-.052,1.256-.088,2.549-.088,4.212v6.514a5.215,5.215,0,0,0,.123,1.806c.124.265.39.265.655.282l.319.018c.124,0,.159.035.159.194,0,.177-.035.213-.159.23-.619.036-1.734.159-2.408.283C-3367.086-2715.318-3367.138-2715.371-3367.138-2715.495Zm-4.373-4.036c0,2.142,1.009,3.381,2.354,3.381a1.981,1.981,0,0,0,1.7-.9,1.813,1.813,0,0,0,.354-1.4v-2.23a2.2,2.2,0,0,0-.336-1.5,2.007,2.007,0,0,0-1.7-1.009C-3370.626-2723.195-3371.511-2721.672-3371.511-2719.531Zm-34.782,3.594a23.2,23.2,0,0,1-.585-2.85c0-.088.018-.177.178-.212.195-.035.248.017.283.105.726,1.806,2.071,3.009,3.505,3.009a2.46,2.46,0,0,0,2.655-2.5c0-1.434-.85-2.177-2.584-3.062l-.832-.425c-1.771-.9-2.744-1.77-2.744-3.558,0-1.7,1.451-3.151,3.752-3.151a4.953,4.953,0,0,1,1.557.248,4.351,4.351,0,0,0,1.717.089c.018.885.124,1.911.194,2.832,0,.088-.035.141-.212.177-.159.018-.194-.035-.212-.124-.584-1.647-1.682-2.655-3.009-2.655a2.1,2.1,0,0,0-2.213,2.194c0,.868.425,1.646,1.983,2.39l.9.425c2.072.974,3.293,1.858,3.293,3.929,0,2.054-1.345,3.753-4.443,3.753A9.8,9.8,0,0,1-3406.293-2715.937Zm43.349.124c-.141-.513-.3-1.293-.389-1.859,0-.088.019-.124.195-.141.141-.019.177-.019.213.105a2.86,2.86,0,0,0,2.336,1.876,1.458,1.458,0,0,0,1.558-1.558c0-.813-.531-1.133-1.523-1.61l-.619-.3c-1.257-.6-1.947-.956-1.947-2.39,0-.956.761-2.053,2.513-2.053a5.68,5.68,0,0,1,1.187.159,5.744,5.744,0,0,0,1.115.036c.035.584.088,1.363.159,1.947,0,.106-.035.141-.195.159s-.177-.035-.23-.124a2.321,2.321,0,0,0-2-1.7,1.224,1.224,0,0,0-1.346,1.257c0,.62.39.9,1.452,1.381l.584.266c1.381.619,2.16,1.15,2.16,2.531,0,1.2-.85,2.5-2.938,2.5A5.547,5.547,0,0,1-3362.944-2715.813Zm-13.275.159c-.549,0-1.31.035-1.859.053-.124,0-.159-.035-.159-.23,0-.142.035-.194.159-.194.443-.053.8-.071.956-.3a5.067,5.067,0,0,0,.142-1.859v-2.478a5.291,5.291,0,0,0-.124-1.47.526.526,0,0,0-.637-.354l-.442.035c-.177.018-.23.018-.248-.23,0-.176.035-.194.212-.23.619-.159,1.77-.5,2.5-.761.106,0,.213.053.213.159-.053,1.275-.072,2.248-.072,3.081v2.248a6.07,6.07,0,0,0,.124,1.859c.142.247.531.247,1.028.3.105.017.141.053.141.194,0,.195-.036.23-.141.23C-3375-2715.618-3375.688-2715.654-3376.219-2715.654Zm-4.249-.018c-.531,0-.956,0-1.487.018-.478-.637-.9-1.186-1.5-1.895-1.434-1.664-2.832-3.31-4.018-4.69v3.416c0,1.752,0,1.983.213,2.337.212.336.673.354,1.345.425.124.017.159.052.159.23s-.035.23-.159.23c-.761-.053-1.663-.071-2.372-.071s-1.611.018-2.284.071c-.124,0-.159-.053-.159-.23s.035-.213.159-.23c.584-.071,1.062-.071,1.275-.425a6.181,6.181,0,0,0,.213-2.337v-6.284c0-1.682,0-1.876-.2-2.266-.195-.336-.725-.354-1.38-.424-.106-.018-.142-.018-.142-.213,0-.23.036-.283.142-.283.726.071,1.664.106,2.372.106s1.575-.035,2.266-.106c.141,0,.177.053.177.265,0,.2-.035.213-.177.231-.62.07-1.009.088-1.222.424a5.671,5.671,0,0,0-.23,2.266v2.673c.549-.461.939-.832,1.417-1.31l1.947-1.965c1.132-1.133,1.328-1.434,1.239-1.788-.053-.212-.549-.248-.885-.283-.124-.017-.16-.017-.16-.23,0-.2.035-.23.16-.23.654.052,1.345.052,2,.052.6,0,1.4-.035,2.071-.106.124,0,.141.053.141.265,0,.2-.035.213-.141.231a3.431,3.431,0,0,0-1.5.53,12.743,12.743,0,0,0-2.142,1.771l-1.681,1.61c-.407.389-.691.637-1.009.956,1.08,1.257,2.372,2.761,4.283,4.921a7.778,7.778,0,0,0,1.752,1.663,3.127,3.127,0,0,0,1.151.284c.106.017.142.052.142.23s-.035.23-.159.23C-3379.458-2715.654-3379.99-2715.672-3380.468-2715.672Zm-32.8,0c-.726,0-1.593.036-2.283.071-.159,0-.177-.035-.177-.212s.035-.212.177-.231c.6-.071,1.062-.088,1.256-.442a5.871,5.871,0,0,0,.213-2.354v-1.876c0-.249-.018-.5-.018-.726-.266-.425-.461-.779-.726-1.2l-1.646-2.725a11.819,11.819,0,0,0-1.31-1.983,1.658,1.658,0,0,0-1.2-.46c-.106-.018-.141-.035-.141-.213,0-.23.035-.265.141-.265.761.053,1.594.088,2.319.088.708,0,1.593-.035,2.319-.088.106,0,.141.035.141.265,0,.177-.035.2-.141.213-.584.071-1.063.106-1.133.443-.106.39.106.673.5,1.38l1.611,2.726c.248.39.407.655.62.991.177-.283.337-.549.549-.938l1.469-2.656c.478-.832.583-1.1.46-1.469-.142-.354-.567-.407-1.187-.478-.124-.018-.16-.035-.16-.213,0-.23.018-.265.177-.265.655.035,1.434.088,2.106.088.656,0,1.222-.053,1.895-.088.106,0,.141.035.141.265,0,.177-.035.2-.16.213a2.439,2.439,0,0,0-1.239.478,7.561,7.561,0,0,0-1.345,1.859l-1.646,2.673c-.283.478-.5.8-.743,1.2,0,.23-.018.636-.018.9v1.859c0,1.769,0,2,.177,2.354.195.354.761.371,1.451.442.107.018.142.053.142.231s-.035.212-.142.212C-3411.639-2715.636-3412.542-2715.672-3413.268-2715.672Zm-11.541,0c-1.505,0-3.133.018-4.638.071-.106,0-.142-.053-.142-.23s.035-.213.142-.23c.62-.071,1.044-.089,1.256-.425a6.181,6.181,0,0,0,.213-2.337v-6.284c0-1.682,0-1.9-.195-2.284-.195-.318-.691-.336-1.363-.406-.124-.018-.159-.036-.159-.213,0-.23.035-.283.159-.283,1.469.088,3.045.088,4.5.088,1.4,0,2.851,0,4.373-.088.071.9.177,1.983.3,2.867.018.106-.018.177-.159.212-.212.035-.265-.018-.3-.123a4,4,0,0,0-1.151-1.753c-.477-.425-1.238-.566-2.637-.566-.674,0-1.274.035-1.522.442a5.532,5.532,0,0,0-.177,2.106v2.531c.283.018.708.018,1.1.018a4.206,4.206,0,0,0,2.283-.372,1.59,1.59,0,0,0,.585-1.15c.017-.106.035-.159.212-.159.231,0,.248.053.248.159-.017.62-.035,1.186-.035,1.787,0,.656.018,1.363.035,2,0,.124-.017.177-.248.177-.159,0-.195-.071-.212-.177a2.025,2.025,0,0,0-.62-1.309,4.9,4.9,0,0,0-2.248-.372c-.389,0-.814,0-1.1.018v3.133a5.04,5.04,0,0,0,.248,2.125c.283.46.956.478,1.752.478a4.675,4.675,0,0,0,3.081-.726,5.52,5.52,0,0,0,1.363-1.788c.053-.105.088-.159.265-.105.213.07.213.141.177.247a18.738,18.738,0,0,1-.92,2.992C-3421.87-2715.654-3423.375-2715.672-3424.809-2715.672Zm28.074-4.142v-1.345h4.16v1.345Zm19.277-7.682a1.128,1.128,0,0,1,1.062-1.062,1.127,1.127,0,0,1,1.062,1.062,1.114,1.114,0,0,1-1.062,1.062A1.114,1.114,0,0,1-3377.458-2727.5Z" transform="translate(3430.5 2729.5)" fill="#9c875a" stroke="rgba(0,0,0,0)" stroke-width="1"/>
</svg>
