<svg xmlns="http://www.w3.org/2000/svg" xmlns:xlink="http://www.w3.org/1999/xlink" width="81.432" height="35" viewBox="0 0 81.432 35">
  <defs>
    <clipPath id="clip-path">
      <rect id="Rectangle_108808" data-name="Rectangle 108808" width="81.432" height="35" fill="none" stroke="rgba(0,0,0,0)" stroke-miterlimit="10" stroke-width="1"/>
    </clipPath>
    <clipPath id="clip-path-2">
      <path id="Path_382081" data-name="Path 382081" d="M21.364,9.426l4.6,12.659a9.069,9.069,0,1,1-5.426-5.565l-.432-1.187c-.133-.039-.268-.076-.4-.109A10.022,10.022,0,0,0,9.166,19.062,10.061,10.061,0,0,0,7.26,24.455a10.026,10.026,0,0,0,4.124,8.626,10.061,10.061,0,0,0,5.392,1.906c.162.008.324.013.485.013h.026A10.022,10.022,0,0,0,25.4,30.863a10.061,10.061,0,0,0,1.906-5.392,9.977,9.977,0,0,0-.506-3.689h0L22.283,9.356a4.9,4.9,0,0,1-.919.07m3.272,13.147h0a7.644,7.644,0,1,1-4.008-4.479c.207.1.411.2.605.315l-.442-1.216a8.526,8.526,0,1,0-3.823,16.34h0c.146.008.292.012.439.013a8.522,8.522,0,0,0,8.066-11.276L20.782,9.385a5.03,5.03,0,0,1-1.038-.257ZM21.433,0a4.431,4.431,0,0,0-1.48.269h0A4.44,4.44,0,0,0,17.3,5.961L22.375,19.9a7.106,7.106,0,0,0-11.624,7.531h0A7.1,7.1,0,1,0,24.1,22.576L18.79,7.983a4.437,4.437,0,0,0,4.2.632h0A4.441,4.441,0,0,0,21.511,0Z" transform="translate(-7.246 -0.001)" fill="none" stroke="rgba(0,0,0,0)" stroke-miterlimit="10" stroke-width="1"/>
    </clipPath>
    <linearGradient id="linear-gradient" x1="0.159" y1="0.772" x2="0.169" y2="0.772" gradientUnits="objectBoundingBox">
      <stop offset="0" stop-color="#d8b"/>
      <stop offset="0.719" stop-color="#7ae"/>
      <stop offset="1" stop-color="#77c9dd"/>
    </linearGradient>
  </defs>
  <g id="logo_kids_music" transform="translate(0 0)">
    <g id="Group_204013" data-name="Group 204013" transform="translate(0 0)">
      <g id="Group_204012" data-name="Group 204012" transform="translate(0 0)" clip-path="url(#clip-path)">
        <path id="Path_382076" data-name="Path 382076" d="M8.032,27.648a2.641,2.641,0,1,1-2.641,2.641,2.642,2.642,0,0,1,2.641-2.641" transform="translate(-3.504 -17.971)" fill="#d8b" stroke="rgba(0,0,0,0)" stroke-miterlimit="10" stroke-width="1"/>
        <path id="Path_382077" data-name="Path 382077" d="M1.51,10.4A1.51,1.51,0,1,1,0,11.906,1.51,1.51,0,0,1,1.51,10.4" transform="translate(0 -6.757)" fill="#ec8" stroke="rgba(0,0,0,0)" stroke-miterlimit="10" stroke-width="1"/>
        <path id="Path_382078" data-name="Path 382078" d="M16.982,13.631a1.887,1.887,0,1,1-1.887,1.887,1.887,1.887,0,0,1,1.887-1.887" transform="translate(-9.812 -8.86)" fill="#e97" stroke="rgba(0,0,0,0)" stroke-miterlimit="10" stroke-width="1"/>
        <path id="Path_382079" data-name="Path 382079" d="M7.225,1.771a.755.755,0,1,1-.755.755.754.754,0,0,1,.755-.755" transform="translate(-4.205 -1.151)" fill="#7c8" stroke="rgba(0,0,0,0)" stroke-miterlimit="10" stroke-width="1"/>
      </g>
    </g>
    <g id="Group_204015" data-name="Group 204015" transform="translate(2.536 0)">
      <g id="Group_204014" data-name="Group 204014" clip-path="url(#clip-path-2)">
        <path id="Path_382080" data-name="Path 382080" d="M-16.8-19.4-3.932,22.442,20.105-.019,7.242-41.858Z" transform="translate(8.381 27.208)" stroke="rgba(0,0,0,0)" stroke-miterlimit="10" stroke-width="1" fill="url(#linear-gradient)"/>
      </g>
    </g>
    <g id="Group_204017" data-name="Group 204017" transform="translate(0 0)">
      <g id="Group_204016" data-name="Group 204016" transform="translate(0 0)" clip-path="url(#clip-path)">
        <path id="Path_382082" data-name="Path 382082" d="M117.734,62.193c.121,0,.169.047.169.169v.519h-3.36v-.519c0-.121.047-.169.169-.169Zm.169,1.181v.595c0,.121-.047.169-.169.169h-3.021c-.121,0-.169-.047-.169-.169v-.595Zm-3.92.708c0,.4.162.567.567.567h3.339c.4,0,.567-.162.567-.567V62.246c0-.4-.162-.56-.567-.56h-3.339c-.4,0-.567.162-.567.56Zm3.305-4.438a7.7,7.7,0,0,1-.324,1.032h-1.511c-.088-.357-.21-.77-.3-1.032Zm-.77-.85a.267.267,0,0,0-.233-.3.28.28,0,0,0-.064,0,.267.267,0,0,0-.3.233.28.28,0,0,0,0,.064v.337h-2.138a.231.231,0,0,0-.256.2.227.227,0,0,0,0,.054.231.231,0,0,0,.2.256.228.228,0,0,0,.054,0h.776a9.368,9.368,0,0,1,.3,1.032h-1.489a.228.228,0,0,0-.256.2.215.215,0,0,0,0,.06.226.226,0,0,0,.2.25.222.222,0,0,0,.057,0h5.639a.226.226,0,0,0,.256-.192.243.243,0,0,0,0-.057.228.228,0,0,0-.2-.256.215.215,0,0,0-.06,0h-1.45a8.184,8.184,0,0,0,.324-1.032h.783a.231.231,0,0,0,.256-.2.228.228,0,0,0,0-.054.231.231,0,0,0-.256-.256H116.52Zm6.335.971a.121.121,0,0,1,.106-.135.134.134,0,0,1,.029,0h1.3a.121.121,0,0,1,.135.106.132.132,0,0,1,0,.029v.445h-1.565Zm1.565.924v.466a.121.121,0,0,1-.106.135.135.135,0,0,1-.029,0h-1.3a.121.121,0,0,1-.135-.106.135.135,0,0,1,0-.029v-.466Zm-.518,1.1h.621a.385.385,0,0,0,.418-.349.375.375,0,0,0,0-.069V59.557a.385.385,0,0,0-.418-.418h-.667a1.371,1.371,0,0,0,.115-.412.249.249,0,0,0-.266-.23h-.01c-.169,0-.236.074-.29.263a3.6,3.6,0,0,1-.128.378h-.513a.385.385,0,0,0-.418.418v1.814a.385.385,0,0,0,.418.418h.6v.439H120.9a.24.24,0,0,0-.264.213.233.233,0,0,0,0,.056.238.238,0,0,0,.21.263.228.228,0,0,0,.054,0h1.963a6.454,6.454,0,0,1-1.693,1.12c-.243.115-.418.162-.525.223a.245.245,0,0,0-.121.216.272.272,0,0,0,.246.3h.018A5.79,5.79,0,0,0,123.36,63v1.523a.242.242,0,0,0,.21.27.246.246,0,0,0,.06,0,.242.242,0,0,0,.27-.27V63.016a6.279,6.279,0,0,0,2.542,1.579.286.286,0,0,0,.284-.288v-.016c0-.14-.108-.236-.3-.31a6.537,6.537,0,0,1-2.044-1.221h2.017a.238.238,0,0,0,.263-.21.228.228,0,0,0,0-.054.24.24,0,0,0-.207-.269.234.234,0,0,0-.056,0h-2.5ZM121.147,59a.29.29,0,0,0-.276.29c0,.081.027.148.155.25a7.631,7.631,0,0,1,.58.5c.095.108.148.148.243.148a.29.29,0,0,0,.276-.29c0-.121-.047-.182-.189-.317-.148-.154-.587-.58-.789-.58Zm.81,1.565a.519.519,0,0,0-.283.14,9.144,9.144,0,0,1-.79.548c-.169.108-.2.169-.2.27a.273.273,0,0,0,.256.27c.276,0,1.093-.654,1.14-.695a.308.308,0,0,0,.14-.256.271.271,0,0,0-.261-.278Zm4.175-1.612a.339.339,0,0,0-.256.14c-.169.182-.33.33-.525.506-.162.135-.21.175-.21.3a.278.278,0,0,0,.277.276c.216,0,.634-.439.837-.661.1-.115.162-.182.162-.3a.287.287,0,0,0-.284-.261m.458,2.5c0-.14-.088-.216-.256-.337a3.46,3.46,0,0,0-.945-.525.3.3,0,0,0-.29.3v0a.254.254,0,0,0,.162.223,6.172,6.172,0,0,1,.77.5c.135.108.182.14.29.14a.3.3,0,0,0,.269-.3Zm3.427-2.658a.242.242,0,0,0-.21-.27.245.245,0,0,0-.06,0,.242.242,0,0,0-.27.27v.378h-.883a.226.226,0,0,0-.25.2.3.3,0,0,0,.2.307.233.233,0,0,0,.054,0h.883V60.3h-1.221a.23.23,0,0,0-.257.2.225.225,0,0,0,0,.063.228.228,0,0,0,.2.256.214.214,0,0,0,.06,0h1.45a5.031,5.031,0,0,1-.655.546h-.33c-.135,0-.243.035-.243.223a.2.2,0,0,0,.035.115c-.108.068-.337.155-.432.21a.215.215,0,0,0-.128.2.277.277,0,0,0,.256.3,3.664,3.664,0,0,0,1.071-.568h.87c.054,0,.081.007.081.041a2.231,2.231,0,0,1-.344.357c-.128,0-.317,0-.317.236v.29a11.1,11.1,0,0,1-1.288.095.224.224,0,0,0-.21.236.24.24,0,0,0,.2.274.243.243,0,0,0,.055,0c.108,0,.621-.027,1.241-.1v.653c0,.155-.074.175-.236.175-.115,0-.162-.007-.276-.007a.23.23,0,0,0-.23.231s0,.008,0,.012c0,.31.27.31.533.31.621,0,.762-.2.762-.607v-.836c.27-.035.728-.115,1.018-.175.175-.041.216-.121.216-.25a.261.261,0,0,0-.25-.27c-.047,0-.83.162-.985.189v-.061c.121-.108.3-.283.546-.519s.324-.35.324-.479-.061-.277-.357-.277h-.775a5.864,5.864,0,0,0,.587-.547h.755a.233.233,0,0,0,.263-.2.3.3,0,0,0-.2-.32.246.246,0,0,0-.06,0h-.3a3.714,3.714,0,0,0,.715-1.194.291.291,0,0,0-.317-.256.21.21,0,0,0-.2.14c-.081.162-.182.33-.263.472.014-.14-.041-.29-.229-.29h-.6Zm2.5,1.005a4.8,4.8,0,0,0,.263-1.025c0-.128-.108-.236-.3-.236-.135,0-.216.061-.283.324a7.171,7.171,0,0,1-.917,2.246c-.088.14-.169.229-.169.324a.28.28,0,0,0,.277.283h.006c.182,0,.25-.094.5-.546a6.063,6.063,0,0,0,.513,1.794,3.851,3.851,0,0,1-1.37,1.166c-.189.088-.229.182-.229.27a.28.28,0,0,0,.27.29h0a3.569,3.569,0,0,0,1.619-1.208c.27.425.924,1.167,1.26,1.167a.306.306,0,0,0,.276-.3.31.31,0,0,0-.175-.256,3.182,3.182,0,0,1-1.005-1.085,6.517,6.517,0,0,0,.749-2.664c.283,0,.452,0,.452-.277a.242.242,0,0,0-.21-.27.245.245,0,0,0-.06,0Zm-1.909-.122a.21.21,0,0,0,.14-.047,5.62,5.62,0,0,1-.533.668h-.194v-.621Zm2.658.668a7.36,7.36,0,0,1-.506,2.071,6.649,6.649,0,0,1-.425-2.071Zm5.457-1.511a.245.245,0,0,0-.209-.277.243.243,0,0,0-.068,0,.245.245,0,0,0-.276.277v.412h-2.037a.432.432,0,0,0-.492.362.447.447,0,0,0,0,.124v.857a.242.242,0,0,0,.21.27.256.256,0,0,0,.336-.27v-.674c0-.081.027-.115.115-.115h4.352c.081,0,.115.035.115.115v.647a.242.242,0,0,0,.21.27.245.245,0,0,0,.06,0,.242.242,0,0,0,.27-.27v-.83a.431.431,0,0,0-.368-.487.423.423,0,0,0-.124,0h-2.092Zm1.572,1.99a.238.238,0,0,0,.263-.21.231.231,0,0,0,0-.054.238.238,0,0,0-.21-.263.229.229,0,0,0-.054,0h-3.662a.238.238,0,0,0-.263.21.228.228,0,0,0,0,.054.238.238,0,0,0,.21.263.228.228,0,0,0,.054,0h.823a6.068,6.068,0,0,1-.757.856c-.364.02-.5.041-.5.31a.254.254,0,0,0,.262.245l.021,0c.074,0,.89-.027,1.686-.081v.6h-1.785a.238.238,0,0,0-.263.21.226.226,0,0,0,0,.054.238.238,0,0,0,.21.263.229.229,0,0,0,.054,0h1.785v.693h-2.427a.24.24,0,0,0-.264.213.232.232,0,0,0,0,.056.24.24,0,0,0,.207.269.232.232,0,0,0,.056,0h5.472a.272.272,0,1,0,0-.54h-2.5v-.695h1.89a.238.238,0,0,0,.263-.21.229.229,0,0,0,0-.054.238.238,0,0,0-.21-.263.229.229,0,0,0-.054,0h-1.89v-.627c.465-.035.9-.068,1.315-.121.081.074.175.175.216.216.1.115.162.155.27.155a.283.283,0,0,0,.27-.283c0-.121-.041-.169-.162-.3-.21-.229-.445-.472-.688-.722-.115-.108-.169-.148-.29-.148a.28.28,0,0,0-.27.27c0,.088.027.115.256.357-.688.068-1.8.121-2.212.128a9.128,9.128,0,0,0,.688-.843Z" transform="translate(-73.526 -38.022)" fill="#666" stroke="rgba(0,0,0,0)" stroke-miterlimit="10" stroke-width="1"/>
        <path id="Path_382083" data-name="Path 382083" d="M79.037,24.732a.621.621,0,0,0,.664-.575c0-.011,0-.023,0-.034a.6.6,0,0,0-.6-.6h-.025c-.169-.011-.789-.022-1.432-.022s-1.274.011-1.477.022a1.4,1.4,0,0,0-1.522,1.421c-.022.711-.035,2.244-.035,3.619,0,.914,0,1.748.022,2.221.045.992.688,1.365,1.725,1.443.147.011.8.022,1.443.022s1.308-.011,1.455-.022a.658.658,0,0,0,.709-.6c0-.009,0-.019,0-.028a.572.572,0,0,0-.565-.579h-.1c-.214.011-.936.022-1.6.022-1.59,0-1.77-.022-1.827-.541-.022-.192-.035-.451-.035-2.131,0-.237.113-.248,1.511-.248.428,0,.857.011,1.139.035h.056a.6.6,0,0,0,.6-.593c0-.017,0-.034,0-.051a.567.567,0,0,0-.533-.6.556.556,0,0,0-.1,0c-.2.011-.744.011-1.263.011-1.387,0-1.4,0-1.4-.225.011-.654,0-1.206.022-1.477.035-.485.271-.508,1.4-.508.765,0,1.769.012,1.769.012" transform="translate(-48.494 -15.277)" fill="#77c9dd" stroke="rgba(0,0,0,0)" stroke-miterlimit="10" stroke-width="1"/>
        <path id="Path_382084" data-name="Path 382084" d="M97.88,31.393a.656.656,0,0,0,.644.667q.033,0,.066,0a.642.642,0,0,0,.686-.6c0-.012,0-.023,0-.035,0-.914-.011-2.052-.011-2.73a.574.574,0,0,1,.135-.438c.733-1.026,2-2.909,2.5-3.721a.615.615,0,0,0,.1-.327.779.779,0,0,0-.756-.7.552.552,0,0,0-.508.315A32.184,32.184,0,0,1,98.7,27.018a.148.148,0,0,1-.135.079.163.163,0,0,1-.135-.09c-.789-1.173-1.579-2.345-2.052-3.169a.615.615,0,0,0-.541-.338.677.677,0,0,0-.575,1.083c.541.812,1.68,2.492,2.5,3.732a.45.45,0,0,1,.113.372Z" transform="translate(-61.834 -15.275)" fill="#7ae" stroke="rgba(0,0,0,0)" stroke-miterlimit="10" stroke-width="1"/>
        <path id="Path_382085" data-name="Path 382085" d="M125.638,29.8a2.673,2.673,0,0,0-1.6-2.31c-.519-.282-1.3-.643-1.759-.891a1.158,1.158,0,0,1-.711-.992,1.039,1.039,0,0,1,1.161-.958,1.646,1.646,0,0,1,1.3.519.716.716,0,0,0,.53.271.657.657,0,0,0,.63-.654c0-.53-.891-1.274-2.447-1.274a2.156,2.156,0,0,0-.992,4.172c.6.271,1.206.609,1.7.891a1.488,1.488,0,0,1,.861,1.261c0,.361-.271,1.206-1.511,1.206a1.939,1.939,0,0,1-1.645-.756.607.607,0,0,0-.5-.281.659.659,0,0,0-.654.643c0,.553.947,1.6,2.785,1.6a2.609,2.609,0,0,0,2.853-2.447" transform="translate(-78 -15.278)" fill="#78c" stroke="rgba(0,0,0,0)" stroke-miterlimit="10" stroke-width="1"/>
        <path id="Path_382086" data-name="Path 382086" d="M145.92,35.463a.583.583,0,0,0,.577-.589c0-.013,0-.027,0-.041a.572.572,0,0,0-.519-.619l-.044,0h-.023c-.541.011-1.15.022-1.736.022-.474,0-.936-.011-1.33-.022h-.022a.566.566,0,0,0-.532.6c0,.008,0,.015,0,.023a.574.574,0,0,0,.516.627.559.559,0,0,0,.059,0c.462-.022.8-.035,1.139-.035.5,0,.992.022,1.906.035Z" transform="translate(-92.486 -22.237)" fill="#a9c" stroke="rgba(0,0,0,0)" stroke-miterlimit="10" stroke-width="1"/>
        <path id="Path_382087" data-name="Path 382087" d="M162.009,31.526a.585.585,0,0,0,.623.544l.032,0c.327,0,.643-.169.643-.53v-.023c-.022-.519-.022-1.015-.022-1.466,0-.733.011-1.33.022-1.624,0-.169.124-.18.214-.18s.158-.011.237-.011a.556.556,0,0,1,.474.225c.823.958,2.73,3,3.112,3.4a.7.7,0,0,0,.507.225.784.784,0,0,0,.756-.746.687.687,0,0,0-.192-.462c-.192-.214-2.255-2.176-3.214-3.157a.276.276,0,0,1-.1-.169.272.272,0,0,1,.1-.18c.789-.834,2.165-2.21,2.66-2.819a.552.552,0,0,0,.124-.35.756.756,0,0,0-.733-.688.557.557,0,0,0-.462.237c-.462.609-1.77,2.052-2.582,2.932a.778.778,0,0,1-.608.329c-.271,0-.293-.124-.293-.225-.011-.282-.022-.778-.022-1.387,0-.395.011-.834.022-1.286v-.022a.6.6,0,0,0-.621-.588l-.033,0a.584.584,0,0,0-.64.521.573.573,0,0,0,0,.088c.022.857.035,2.052.035,3.315,0,1.409-.011,2.9-.035,4.093Z" transform="translate(-105.305 -15.272)" fill="#d8b" stroke="rgba(0,0,0,0)" stroke-miterlimit="10" stroke-width="1"/>
        <path id="Path_382088" data-name="Path 382088" d="M188.085,25.064a.786.786,0,0,0,.789-.784v-.017a.794.794,0,0,0-.789-.768.765.765,0,0,0-.789.741c0,.009,0,.017,0,.026a.749.749,0,0,0,.692.8.758.758,0,0,0,.1,0m.609,6.516v-.021c-.011-.62-.022-1.421-.022-2.2,0-.947.011-1.838.022-2.3v-.023a.554.554,0,0,0-.565-.543l-.033,0a.554.554,0,0,0-.607.495.563.563,0,0,0,0,.08c.011.3.011.756.011,1.263,0,1.026-.011,2.31-.011,3.247a.56.56,0,0,0,.544.576h.054a.57.57,0,0,0,.608-.531c0-.015,0-.03,0-.046" transform="translate(-121.741 -15.271)" fill="#e97" stroke="rgba(0,0,0,0)" stroke-miterlimit="10" stroke-width="1"/>
        <path id="Path_382089" data-name="Path 382089" d="M204.609,31.425a.61.61,0,0,0-.079-.3c-.327-.63-.338-.665-.338-4.849,0-.947.011-1.748.035-2.131v-.056a.56.56,0,0,0-.532-.586.473.473,0,0,0-.055,0,.553.553,0,0,0-.576.53c0,.019,0,.037,0,.056.011.474.035,1.624.035,2.932,0,.035-.011.045-.035.045a.067.067,0,0,1-.045-.011,2.329,2.329,0,0,0-1.579-.609,2.709,2.709,0,0,0-2.743,2.676c0,.051,0,.1,0,.154a2.677,2.677,0,0,0,2.74,2.83,2.4,2.4,0,0,0,1.781-.789c.022-.022.045-.045.056-.045s.035.022.045.068c.158.62.372.711.63.711a.648.648,0,0,0,.655-.62m-3.146-.372a1.633,1.633,0,0,1-1.624-1.782,1.633,1.633,0,1,1,3.247,0,1.633,1.633,0,0,1-1.624,1.782" transform="translate(-129.154 -15.273)" fill="#ec8" stroke="rgba(0,0,0,0)" stroke-miterlimit="10" stroke-width="1"/>
        <path id="Path_382090" data-name="Path 382090" d="M225.374,35.626a1.8,1.8,0,0,0-1.1-1.545c-.338-.18-.846-.406-1.139-.553a.581.581,0,0,1-.372-.5c0-.248.214-.462.6-.462a.933.933,0,0,1,.71.271.642.642,0,0,0,.462.225.573.573,0,0,0,.564-.562c0-.44-.7-.947-1.736-.947a1.582,1.582,0,0,0-1.715,1.511,1.535,1.535,0,0,0,1.015,1.409c1.319.6,1.567.812,1.567,1.173,0,.259-.237.575-.834.575a1.11,1.11,0,0,1-.912-.4.551.551,0,0,0-.451-.237.571.571,0,0,0-.575.541c0,.372.575,1.15,1.951,1.15a1.835,1.835,0,0,0,1.973-1.657" transform="translate(-143.942 -20.511)" fill="#7c8" stroke="rgba(0,0,0,0)" stroke-miterlimit="10" stroke-width="1"/>
      </g>
    </g>
  </g>
</svg>
