<svg id="Group_204011" data-name="Group 204011" xmlns="http://www.w3.org/2000/svg" xmlns:xlink="http://www.w3.org/1999/xlink" width="111.116" height="25.376" viewBox="0 0 111.116 25.376">
  <defs>
    <clipPath id="clip-path">
      <rect id="Rectangle_108806" data-name="Rectangle 108806" width="111.116" height="25" fill="none" stroke="rgba(0,0,0,0)" stroke-miterlimit="10" stroke-width="1"/>
    </clipPath>
  </defs>
  <path id="Path_382055" data-name="Path 382055" d="M215.93,120.631v4.056h3.442v-.621h-2.746v-1.187h1.559v-.621h-1.559v-1.006h2.6v-.621Z" transform="translate(-178.663 -99.811)" fill="#1a1311" stroke="rgba(0,0,0,0)" stroke-miterlimit="10" stroke-width="1"/>
  <path id="Path_382056" data-name="Path 382056" d="M244.948,120.631l-1.162,1.565-1.161-1.565h-.882l1.665,2.187v1.87h.7v-1.87l1.665-2.187Z" transform="translate(-200.021 -99.811)" fill="#1a1311" stroke="rgba(0,0,0,0)" stroke-miterlimit="10" stroke-width="1"/>
  <g id="Group_204010" data-name="Group 204010">
    <g id="Group_204009" data-name="Group 204009" clip-path="url(#clip-path)">
      <path id="Path_382057" data-name="Path 382057" d="M274.1,120.986a2.22,2.22,0,0,0-1.472-.472c-.484,0-.913.155-.913.584s.6.46,1.218.5c.727.05,1.87.124,1.87,1.255,0,.981-.82,1.36-1.789,1.36a3.178,3.178,0,0,1-2.218-.851l.422-.484a2.6,2.6,0,0,0,1.808.733c.6,0,1.081-.205,1.081-.665,0-.509-.466-.615-1.174-.671-.895-.062-1.914-.137-1.914-1.118,0-.963.888-1.249,1.634-1.249a3.167,3.167,0,0,1,1.87.59Z" transform="translate(-224.059 -99.216)" fill="#1a1311" stroke="rgba(0,0,0,0)" stroke-miterlimit="10" stroke-width="1"/>
      <rect id="Rectangle_108802" data-name="Rectangle 108802" width="1.597" height="0.634" transform="translate(52.078 22.975)" fill="#1a1311" stroke="rgba(0,0,0,0)" stroke-miterlimit="10" stroke-width="1"/>
      <path id="Path_382058" data-name="Path 382058" d="M321.78,122.637l2.118-2.006h.864l-1.659,1.553,2.019,2.5h-.9L322.6,122.65l-.82.764v1.274h-.7v-4.056h.7Z" transform="translate(-265.669 -99.812)" fill="#1a1311" stroke="rgba(0,0,0,0)" stroke-miterlimit="10" stroke-width="1"/>
      <path id="Path_382059" data-name="Path 382059" d="M351.189,118.938a.4.4,0,0,1,.41.373.386.386,0,0,1-.41.367.38.38,0,0,1-.4-.367.385.385,0,0,1,.4-.373m-.317,1.348h.64v3h-.64Z" transform="translate(-290.244 -98.411)" fill="#1a1311" stroke="rgba(0,0,0,0)" stroke-miterlimit="10" stroke-width="1"/>
      <path id="Path_382060" data-name="Path 382060" d="M366.1,123.287a1.9,1.9,0,0,1-.044-.416,1.253,1.253,0,0,1-.988.509,1.6,1.6,0,0,1,0-3.193,1.325,1.325,0,0,1,.926.4v-1.652h.64v3.522a4.245,4.245,0,0,0,.056.826Zm-1.8-1.51c0,.634.373,1.044.826,1.044A1.146,1.146,0,0,0,366,122.4v-1.23a1.241,1.241,0,0,0-.863-.416c-.46,0-.826.4-.826,1.025" transform="translate(-300.848 -98.411)" fill="#1a1311" stroke="rgba(0,0,0,0)" stroke-miterlimit="10" stroke-width="1"/>
      <path id="Path_382061" data-name="Path 382061" d="M392.047,126.941a2.592,2.592,0,0,0-1.112-.3c-.323,0-.609.106-.609.348,0,.3.466.335.733.348.528.025,1.429.075,1.429.944,0,.714-.615,1.044-1.4,1.044a2.622,2.622,0,0,1-1.491-.46l.242-.484a2.363,2.363,0,0,0,1.242.41c.441,0,.77-.155.77-.447,0-.342-.46-.379-.789-.4-.628-.037-1.373-.093-1.373-.882,0-.733.652-.957,1.236-.957a3.074,3.074,0,0,1,1.367.348Z" transform="translate(-322.355 -104.339)" fill="#1a1311" stroke="rgba(0,0,0,0)" stroke-miterlimit="10" stroke-width="1"/>
      <path id="Path_382062" data-name="Path 382062" d="M.114,52.308V45.18H3.4a3.922,3.922,0,0,1,2.98,1.07,3.744,3.744,0,0,1-.055,5.043A3.924,3.924,0,0,1,3.4,52.308Zm3.242-1.6a1.814,1.814,0,0,0,1.419-.469,1.9,1.9,0,0,0,.579-1.474,1.992,1.992,0,0,0-.524-1.441,1.765,1.765,0,0,0-1.474-.535H2.024V50.7Z" transform="translate(-0.094 -37.383)" fill="#1a1311" stroke="rgba(0,0,0,0)" stroke-miterlimit="10" stroke-width="1"/>
      <path id="Path_382063" data-name="Path 382063" d="M51.033,52.308,54.34,45.18h1.583l3.307,7.128H57.146l-.458-1.091H53.5l-.448,1.091Zm3.078-2.576h1.965l-.95-2.281h-.066Z" transform="translate(-42.225 -37.383)" fill="#1a1311" stroke="rgba(0,0,0,0)" stroke-miterlimit="10" stroke-width="1"/>
      <path id="Path_382064" data-name="Path 382064" d="M117.433,45.179v7.128h-1.616l-3.144-3.875h-.011v3.875h-1.921V45.179h1.6l3.155,3.886h.011V45.179Z" transform="translate(-91.63 -37.382)" fill="#1a1311" stroke="rgba(0,0,0,0)" stroke-miterlimit="10" stroke-width="1"/>
      <path id="Path_382065" data-name="Path 382065" d="M172.014,50.027a5.643,5.643,0,0,1-3.722,1.452,3.786,3.786,0,1,1-.055-7.565,5.981,5.981,0,0,1,3.558,1.223l-1.146,1.245a3.722,3.722,0,0,0-2.172-.862,2.113,2.113,0,0,0-2.172,2.183,2.14,2.14,0,0,0,2.227,2.183,3.663,3.663,0,0,0,2.325-1.081Z" transform="translate(-135.96 -36.335)" fill="#1a1311" stroke="rgba(0,0,0,0)" stroke-miterlimit="10" stroke-width="1"/>
      <path id="Path_382066" data-name="Path 382066" d="M226.488,49.447h-2.511V50.7H228.4v1.6h-6.331V45.179h6.091v1.6h-4.181v1.124h2.511Z" transform="translate(-183.741 -37.382)" fill="#1a1311" stroke="rgba(0,0,0,0)" stroke-miterlimit="10" stroke-width="1"/>
      <path id="Path_382067" data-name="Path 382067" d="M270.709,52.307l3.307-7.128h.9l3.307,7.128h-1.037l-.971-2.14h-3.559l-.961,2.14Zm2.281-2.9h2.882l-1.408-3.111H274.4Z" transform="translate(-223.988 -37.382)" fill="#1a1311" stroke="rgba(0,0,0,0)" stroke-miterlimit="10" stroke-width="1"/>
      <path id="Path_382068" data-name="Path 382068" d="M330.037,50.184a4.867,4.867,0,0,1-3.417,1.419,3.752,3.752,0,1,1-.044-7.5,4.875,4.875,0,0,1,3.264,1.223l-.644.633a3.926,3.926,0,0,0-2.6-1.015,2.909,2.909,0,1,0,.033,5.818,3.894,3.894,0,0,0,2.773-1.2Z" transform="translate(-267.008 -36.492)" fill="#1a1311" stroke="rgba(0,0,0,0)" stroke-miterlimit="10" stroke-width="1"/>
      <path id="Path_382069" data-name="Path 382069" d="M372.671,52.307l3.307-7.128h.895l3.307,7.128h-1.037l-.971-2.14h-3.559l-.961,2.14Zm2.281-2.9h2.882l-1.408-3.111h-.065Z" transform="translate(-308.353 -37.382)" fill="#1a1311" stroke="rgba(0,0,0,0)" stroke-miterlimit="10" stroke-width="1"/>
      <path id="Path_382070" data-name="Path 382070" d="M428.4,52.307V45.179h3.165a3.557,3.557,0,0,1,2.718.993,3.818,3.818,0,0,1-.055,5.2,3.508,3.508,0,0,1-2.664.939Zm3.133-.84a2.556,2.556,0,0,0,1.954-.688,2.871,2.871,0,0,0,.8-2.041,2.824,2.824,0,0,0-.764-2,2.563,2.563,0,0,0-1.987-.721h-2.183v5.447Z" transform="translate(-354.461 -37.382)" fill="#1a1311" stroke="rgba(0,0,0,0)" stroke-miterlimit="10" stroke-width="1"/>
      <path id="Path_382071" data-name="Path 382071" d="M486.435,48.978h-2.882v2.489h5.032v.84H482.6V45.179h5.731v.84h-4.781v2.118h2.882Z" transform="translate(-399.312 -37.382)" fill="#1a1311" stroke="rgba(0,0,0,0)" stroke-miterlimit="10" stroke-width="1"/>
      <path id="Path_382072" data-name="Path 382072" d="M536.848,52.307V46.9h-.055l-2.576,4.334h-.2L531.445,46.9h-.055v5.4h-.906V45.179h1l2.664,4.486h.022l2.664-4.486h.961v7.128Z" transform="translate(-438.93 -37.382)" fill="#1a1311" stroke="rgba(0,0,0,0)" stroke-miterlimit="10" stroke-width="1"/>
      <path id="Path_382073" data-name="Path 382073" d="M591.43,45.179,588.5,48.967v3.34h-.95v-3.34l-2.925-3.788h1.2l2.238,2.947,2.249-2.947Z" transform="translate(-483.73 -37.382)" fill="#1a1311" stroke="rgba(0,0,0,0)" stroke-miterlimit="10" stroke-width="1"/>
      <rect id="Rectangle_108803" data-name="Rectangle 108803" width="1.327" height="4.464" fill="#e33c0b" stroke="rgba(0,0,0,0)" stroke-miterlimit="10" stroke-width="1"/>
      <path id="Path_382074" data-name="Path 382074" d="M267.622,0h-1.327l2.564,4.464h1.327Z" transform="translate(-220.336 0)" fill="#df5695" stroke="rgba(0,0,0,0)" stroke-miterlimit="10" stroke-width="1"/>
      <path id="Path_382075" data-name="Path 382075" d="M626.206,0h-1.327L622.53,4.464h1.327Z" transform="translate(-515.09 0)" fill="#8cb808" stroke="rgba(0,0,0,0)" stroke-miterlimit="10" stroke-width="1"/>
      <rect id="Rectangle_108804" data-name="Rectangle 108804" width="1.327" height="4.464" transform="translate(19.086 17.614)" fill="#f99900" stroke="rgba(0,0,0,0)" stroke-miterlimit="10" stroke-width="1"/>
      <rect id="Rectangle_108805" data-name="Rectangle 108805" width="1.327" height="4.464" transform="translate(91.142 17.614)" fill="#0099db" stroke="rgba(0,0,0,0)" stroke-miterlimit="10" stroke-width="1"/>
    </g>
  </g>
</svg>
