<svg xmlns="http://www.w3.org/2000/svg" width="91" height="26.224" viewBox="0 0 91 26.224">
  <g id="logo" transform="translate(-247.655 -478.47)">
    <g id="Group_204005" data-name="Group 204005" transform="translate(248.155 479.6)">
      <path id="Path_382026" data-name="Path 382026" d="M364.343,500.06a1.731,1.731,0,1,0,.409,2.415A1.732,1.732,0,0,0,364.343,500.06Z" transform="translate(-345.571 -496.892)" fill="#5abdd8" stroke="rgba(0,0,0,0)" stroke-miterlimit="10" stroke-width="1" style="isolation: isolate"/>
      <path id="Path_382027" data-name="Path 382027" d="M359.813,557.725a1.731,1.731,0,1,0,.409,2.415A1.733,1.733,0,0,0,359.813,557.725Z" transform="translate(-341.682 -546.407)" fill="#eb8ea9" stroke="rgba(0,0,0,0)" stroke-miterlimit="10" stroke-width="1" style="isolation: isolate"/>
      <path id="Path_382028" data-name="Path 382028" d="M296.455,495.328a1.14,1.14,0,1,0,.269,1.59A1.141,1.141,0,0,0,296.455,495.328Z" transform="translate(-288.081 -492.924)" fill="#fba322" stroke="rgba(0,0,0,0)" stroke-miterlimit="10" stroke-width="1" style="isolation: isolate"/>
      <path id="Path_382029" data-name="Path 382029" d="M286.374,546.048a1.624,1.624,0,1,0,.383,2.266A1.626,1.626,0,0,0,286.374,546.048Z" transform="translate(-278.768 -536.397)" fill="#ee7941" stroke="rgba(0,0,0,0)" stroke-miterlimit="10" stroke-width="1"/>
      <path id="Path_382030" data-name="Path 382030" d="M345.476,531.947a1.22,1.22,0,1,0,.288,1.7A1.221,1.221,0,0,0,345.476,531.947Z" transform="translate(-330.065 -524.354)" fill="#9dc249" stroke="rgba(0,0,0,0)" stroke-miterlimit="10" stroke-width="1" style="isolation: isolate"/>
      <path id="Path_382031" data-name="Path 382031" d="M292.389,583.786,291,583.458l-.517-1.329-.74,1.219-1.425.082.931,1.081-.363,1.38,1.316-.552,1.2.772-.118-1.422Z" transform="translate(-282.64 -567.636)" fill="#9dc249" stroke="rgba(0,0,0,0)" stroke-miterlimit="10" stroke-width="1" style="isolation: isolate"/>
      <path id="Path_382032" data-name="Path 382032" d="M390.581,527.453l-1.475-.249-.631-1.354-.69,1.325-1.484.183,1.047,1.067-.286,1.467,1.338-.666,1.307.725-.22-1.478Z" transform="translate(-366.773 -519.313)" fill="#fba322" stroke="rgba(0,0,0,0)" stroke-miterlimit="10" stroke-width="1" style="isolation: isolate"/>
      <path id="Path_382033" data-name="Path 382033" d="M325.634,481.277l-1.543-.26-.66-1.417-.722,1.386-1.553.191,1.1,1.116-.3,1.535,1.4-.7,1.367.758-.23-1.547Z" transform="translate(-310.838 -479.6)" fill="#eb8ea9" stroke="rgba(0,0,0,0)" stroke-miterlimit="10" stroke-width="1" style="isolation: isolate"/>
      <path id="Path_382034" data-name="Path 382034" d="M313.688,525.494l2.3-2.823-3.287-.329Z" transform="translate(-303.574 -516.301)" fill="#9f7cb4" stroke="rgba(0,0,0,0)" stroke-miterlimit="10" stroke-width="1"/>
      <path id="Path_382035" data-name="Path 382035" d="M330.517,590.22l.688,4.524,3.084-2.784Z" transform="translate(-318.875 -574.584)" fill="#ee7941" stroke="rgba(0,0,0,0)" stroke-miterlimit="10" stroke-width="1"/>
      <path id="Path_382036" data-name="Path 382036" d="M259.25,531.567a11.1,11.1,0,0,1-6.5-20.088l1.435,1.982a8.649,8.649,0,1,0,12.237,11.847l2.027,1.369A11.09,11.09,0,0,1,259.25,531.567Z" transform="translate(-248.155 -506.973)" fill="#9a9b9b" stroke="rgba(0,0,0,0)" stroke-miterlimit="10" stroke-width="1"/>
      <rect id="Rectangle_108798" data-name="Rectangle 108798" width="3.182" height="3.182" transform="matrix(0.643, -0.766, 0.766, 0.643, 19.426, 15.798)" fill="#9f7cb4" stroke="rgba(0,0,0,0)" stroke-miterlimit="10" stroke-width="1"/>
      <rect id="Rectangle_108799" data-name="Rectangle 108799" width="2.733" height="2.733" transform="matrix(0.996, -0.087, 0.087, 0.996, 10.081, 11.136)" fill="#5abdd8" stroke="rgba(0,0,0,0)" stroke-miterlimit="10" stroke-width="1" style="isolation: isolate"/>
    </g>
    <g id="Group_204008" data-name="Group 204008" transform="translate(279.803 483.376)">
      <g id="Group_204006" data-name="Group 204006" transform="translate(0 0)" style="isolation: isolate">
        <path id="Path_382037" data-name="Path 382037" d="M477.548,515.135h-3.4v2.193h3.8v1.713h-5.893V509.8h5.7v1.713h-3.6v1.919h3.4Z" transform="translate(-472.052 -509.311)" fill="#5abdd8" stroke="rgba(0,0,0,0)" stroke-miterlimit="10" stroke-width="1" style="isolation: isolate"/>
        <path id="Path_382038" data-name="Path 382038" d="M527.516,519.041v-3.783L524.6,509.8h2.385l.946,2.22c.288.672.48,1.165.713,1.768h.028c.206-.575.425-1.11.7-1.768l.932-2.22h2.344L529.6,515.19v3.851Z" transform="translate(-517.17 -509.311)" fill="#fba322" stroke="rgba(0,0,0,0)" stroke-miterlimit="10" stroke-width="1" style="isolation: isolate"/>
        <path id="Path_382039" data-name="Path 382039" d="M589.978,515.973a5.327,5.327,0,0,0,2.316.576c.959,0,1.466-.4,1.466-1,0-.575-.438-.9-1.549-1.3-1.535-.535-2.536-1.384-2.536-2.727,0-1.576,1.316-2.782,3.495-2.782a5.661,5.661,0,0,1,2.357.466l-.466,1.686a4.39,4.39,0,0,0-1.933-.439c-.9,0-1.343.411-1.343.891,0,.589.521.85,1.713,1.3,1.631.6,2.4,1.453,2.4,2.755,0,1.549-1.192,2.864-3.728,2.864a6.047,6.047,0,0,1-2.618-.562Z" transform="translate(-572.944 -508.394)" fill="#9dc249" stroke="rgba(0,0,0,0)" stroke-miterlimit="10" stroke-width="1" style="isolation: isolate"/>
        <path id="Path_382040" data-name="Path 382040" d="M651.992,544.805v1.384H648.4v-1.384Z" transform="translate(-623.473 -539.364)" fill="#ee7941" stroke="rgba(0,0,0,0)" stroke-miterlimit="10" stroke-width="1"/>
        <path id="Path_382041" data-name="Path 382041" d="M689.41,509.8h2.069v4.084h.041c.206-.356.425-.685.63-1.014l2.1-3.07h2.563l-3.056,3.933,3.221,5.3h-2.44l-2.261-3.988-.795.973v3.015H689.41Z" transform="translate(-658.686 -509.311)" fill="#eb8ea9" stroke="rgba(0,0,0,0)" stroke-miterlimit="10" stroke-width="1" style="isolation: isolate"/>
        <path id="Path_382042" data-name="Path 382042" d="M756.571,508.145a1.046,1.046,0,0,1-1.124,1.042,1.049,1.049,0,1,1,.014-2.1A1.045,1.045,0,0,1,756.571,508.145Zm-2.152,8.566v-6.7H756.5v6.7Z" transform="translate(-714.458 -506.98)" fill="#fba322" stroke="rgba(0,0,0,0)" stroke-miterlimit="10" stroke-width="1" style="isolation: isolate"/>
        <path id="Path_382043" data-name="Path 382043" d="M791.782,506.313v7.73c0,.754.027,1.549.055,2h-1.85l-.1-.987h-.027a2.34,2.34,0,0,1-2.1,1.138c-1.59,0-2.864-1.357-2.864-3.44-.014-2.261,1.4-3.563,3-3.563a2.042,2.042,0,0,1,1.768.754h.027v-3.632Zm-2.083,5.866a3.391,3.391,0,0,0-.027-.37,1.251,1.251,0,0,0-1.22-1.028c-.946,0-1.439.85-1.439,1.905,0,1.138.562,1.85,1.425,1.85a1.22,1.22,0,0,0,1.206-1,1.775,1.775,0,0,0,.055-.48Z" transform="translate(-740.68 -506.313)" fill="#9dc249" stroke="rgba(0,0,0,0)" stroke-miterlimit="10" stroke-width="1" style="isolation: isolate"/>
        <path id="Path_382044" data-name="Path 382044" d="M849.356,531.7a4.069,4.069,0,0,0,1.8.507c.63,0,.891-.219.891-.562s-.206-.507-.987-.767c-1.384-.466-1.919-1.22-1.9-2.015,0-1.247,1.069-2.193,2.727-2.193a4.5,4.5,0,0,1,1.891.384l-.37,1.439a3.287,3.287,0,0,0-1.453-.384c-.507,0-.795.206-.795.549,0,.315.26.479,1.083.767,1.274.438,1.809,1.083,1.823,2.069,0,1.247-.987,2.166-2.905,2.166a4.743,4.743,0,0,1-2.166-.466Z" transform="translate(-795.706 -523.797)" fill="#9f7cb4" stroke="rgba(0,0,0,0)" stroke-miterlimit="10" stroke-width="1"/>
      </g>
      <g id="Group_204007" data-name="Group 204007" transform="translate(10.141 13.895)" style="isolation: isolate">
        <path id="Path_382045" data-name="Path 382045" d="M545.014,608.552l-.383,1.261h-.839l1.427-4.451h1.037l1.446,4.451h-.872l-.4-1.261Zm1.274-.614-.35-1.1c-.086-.271-.159-.574-.225-.832H545.7c-.066.258-.132.568-.211.832l-.344,1.1Z" transform="translate(-543.792 -605.256)" fill="#9a9b9b" stroke="rgba(0,0,0,0)" stroke-miterlimit="10" stroke-width="1"/>
        <path id="Path_382046" data-name="Path 382046" d="M576.842,614.693c0-.436-.007-.746-.026-1.037h.707l.026.614h.026a.959.959,0,0,1,.878-.687.846.846,0,0,1,.192.02v.766a1.122,1.122,0,0,0-.238-.027.716.716,0,0,0-.726.614,1.39,1.39,0,0,0-.026.251v1.664h-.812Z" transform="translate(-572.148 -612.316)" fill="#9a9b9b" stroke="rgba(0,0,0,0)" stroke-miterlimit="10" stroke-width="1"/>
        <path id="Path_382047" data-name="Path 382047" d="M595.3,607.6v.918h.773v.608H595.3v1.42c0,.39.106.594.416.594a1.2,1.2,0,0,0,.317-.039l.013.62a1.775,1.775,0,0,1-.588.08.94.94,0,0,1-.7-.264,1.282,1.282,0,0,1-.251-.9V609.13h-.462v-.608h.462V607.8Z" transform="translate(-586.944 -607.181)" fill="#9a9b9b" stroke="rgba(0,0,0,0)" stroke-miterlimit="10" stroke-width="1"/>
        <path id="Path_382048" data-name="Path 382048" d="M627.111,609.371c-.112-.112-.218-.224-.35-.37a1.875,1.875,0,0,1-1.255.442,1.307,1.307,0,0,1-1.473-1.255,1.438,1.438,0,0,1,.859-1.288v-.02a1.434,1.434,0,0,1-.357-.892,1.161,1.161,0,0,1,1.248-1.142,1.008,1.008,0,0,1,1.1,1c0,.462-.264.839-.918,1.162l-.007.027c.31.357.654.753.9,1.017a3.229,3.229,0,0,0,.4-1.182h.726a3.326,3.326,0,0,1-.693,1.671c.244.271.489.541.766.832Zm-.74-.825c-.271-.284-.693-.753-1.109-1.235a.909.909,0,0,0-.456.746.772.772,0,0,0,.819.786A1.034,1.034,0,0,0,626.372,608.546Zm-1.1-2.635a1.06,1.06,0,0,0,.323.713c.376-.238.594-.443.594-.753a.456.456,0,0,0-.443-.5A.494.494,0,0,0,625.269,605.911Z" transform="translate(-612.691 -604.815)" fill="#9a9b9b" stroke="rgba(0,0,0,0)" stroke-miterlimit="10" stroke-width="1"/>
        <path id="Path_382049" data-name="Path 382049" d="M668.966,605.22a8.221,8.221,0,0,1,1.294-.092,2.709,2.709,0,0,1,1.816.515,1.99,1.99,0,0,1,.693,1.638,2.3,2.3,0,0,1-.693,1.77,2.972,2.972,0,0,1-2.014.608,8.847,8.847,0,0,1-1.1-.06Zm.812,3.771a3.055,3.055,0,0,0,.449.02,1.524,1.524,0,0,0,1.684-1.7,1.412,1.412,0,0,0-1.578-1.546,2.608,2.608,0,0,0-.555.046Z" transform="translate(-651.272 -605.055)" fill="#9a9b9b" stroke="rgba(0,0,0,0)" stroke-miterlimit="10" stroke-width="1"/>
        <path id="Path_382050" data-name="Path 382050" d="M701.6,615.493a.874.874,0,0,0,.991.832,2.418,2.418,0,0,0,.891-.145l.119.561a3.028,3.028,0,0,1-1.123.2,1.522,1.522,0,0,1-1.658-1.625,1.593,1.593,0,0,1,1.572-1.73,1.4,1.4,0,0,1,1.387,1.565,1.991,1.991,0,0,1-.027.343Zm1.413-.568a.691.691,0,0,0-.667-.786.8.8,0,0,0-.746.786Z" transform="translate(-678.625 -612.316)" fill="#9a9b9b" stroke="rgba(0,0,0,0)" stroke-miterlimit="10" stroke-width="1"/>
        <path id="Path_382051" data-name="Path 382051" d="M726.763,616.126a1.806,1.806,0,0,0,.825.231c.357,0,.515-.145.515-.357s-.132-.33-.528-.469c-.627-.218-.892-.562-.885-.938a1.076,1.076,0,0,1,1.215-1.01,1.889,1.889,0,0,1,.852.191l-.159.575a1.441,1.441,0,0,0-.68-.185c-.291,0-.449.139-.449.337s.152.3.562.449c.581.211.852.508.858.984,0,.582-.456,1-1.307,1a2.072,2.072,0,0,1-.977-.225Z" transform="translate(-700.763 -612.316)" fill="#9a9b9b" stroke="rgba(0,0,0,0)" stroke-miterlimit="10" stroke-width="1"/>
        <path id="Path_382052" data-name="Path 382052" d="M749.7,605.056a.456.456,0,1,1-.456-.442A.431.431,0,0,1,749.7,605.056Zm-.865,4.114v-3.216h.819v3.216Z" transform="translate(-719.813 -604.614)" fill="#9a9b9b" stroke="rgba(0,0,0,0)" stroke-miterlimit="10" stroke-width="1"/>
        <path id="Path_382053" data-name="Path 382053" d="M764.4,613.657c-.013.218-.027.482-.027.924V616.4a1.549,1.549,0,0,1-1.717,1.849,2.278,2.278,0,0,1-1.123-.258l.178-.614a1.945,1.945,0,0,0,.938.244.855.855,0,0,0,.925-.971v-.277h-.013a1.086,1.086,0,0,1-.938.476,1.427,1.427,0,0,1-1.367-1.572,1.54,1.54,0,0,1,1.459-1.7,1.013,1.013,0,0,1,.931.5h.013l.033-.429Zm-.839,1.288a.786.786,0,0,0-.026-.218.675.675,0,0,0-.66-.522c-.456,0-.792.4-.792,1.05,0,.548.277.991.786.991a.694.694,0,0,0,.661-.489,1.4,1.4,0,0,0,.033-.291Z" transform="translate(-730.521 -612.316)" fill="#9a9b9b" stroke="rgba(0,0,0,0)" stroke-miterlimit="10" stroke-width="1"/>
        <path id="Path_382054" data-name="Path 382054" d="M790.76,614.614c0-.37-.007-.68-.027-.958h.713l.04.482h.02a1.16,1.16,0,0,1,1.024-.555c.561,0,1.142.363,1.142,1.38v1.909h-.812v-1.816c0-.462-.172-.812-.614-.812a.682.682,0,0,0-.634.476.83.83,0,0,0-.033.264v1.889h-.819Z" transform="translate(-755.827 -612.316)" fill="#9a9b9b" stroke="rgba(0,0,0,0)" stroke-miterlimit="10" stroke-width="1"/>
      </g>
    </g>
  </g>
</svg>
