<svg xmlns="http://www.w3.org/2000/svg" width="76.301" height="25.34" viewBox="0 0 76.301 25.34">
  <g id="logo" transform="translate(-31 -177.268)">
    <g id="typo" transform="translate(58.698 177.32)">
      <g id="sub" transform="translate(8.024 0)">
        <path id="Path_382007" data-name="Path 382007" d="M-78.88-15.964h.843a.184.184,0,0,0,.188-.2.184.184,0,0,0-.188-.2h-2.042a.184.184,0,0,0-.188.2.184.184,0,0,0,.188.2h.78v1.355h-1.094a.184.184,0,0,0-.188.2.184.184,0,0,0,.188.2h2.613a.184.184,0,0,0,.188-.2.184.184,0,0,0-.188-.2h-1.1Zm12.386-.139c0-.108.007-.219.007-.338v-.233c0-.115-.1-.171-.206-.171a.184.184,0,0,0-.206.167v.237c0,.118,0,.233-.007.341l-.822.007a.172.172,0,0,0-.178.181.175.175,0,0,0,.181.181l.787-.007a2.364,2.364,0,0,1-.233.8,1.892,1.892,0,0,1-.634.69.235.235,0,0,0-.125.2.194.194,0,0,0,.2.188.258.258,0,0,0,.143-.042,2.309,2.309,0,0,0,.78-.854,2.7,2.7,0,0,0,.282-.983l.613,0c.111,0,.139.028.139.118a6.065,6.065,0,0,1-.094,1.122c-.035.167-.1.213-.226.213-.049,0-.118-.007-.185-.014-.01,0-.021,0-.031,0a.19.19,0,0,0-.192.2.2.2,0,0,0,.192.206c.063.007.167.014.206.014a.562.562,0,0,0,.634-.54,7.117,7.117,0,0,0,.1-1.247c0-.3-.146-.429-.463-.429Zm.787-.369a2.536,2.536,0,0,1,.258.3.14.14,0,0,0,.115.066.142.142,0,0,0,.139-.139.145.145,0,0,0-.031-.094,1.741,1.741,0,0,0-.272-.3.145.145,0,0,0-.1-.038.145.145,0,0,0-.146.132A.124.124,0,0,0-65.707-16.472Zm.348-.275c.08.084.178.188.258.289a.152.152,0,0,0,.122.063.136.136,0,0,0,.139-.132.162.162,0,0,0-.038-.1,1.747,1.747,0,0,0-.268-.286.167.167,0,0,0-.1-.042.14.14,0,0,0-.146.129A.115.115,0,0,0-65.358-16.747Zm11.32.467c.059-.111.111-.219.157-.328a.238.238,0,0,0,.017-.08.2.2,0,0,0-.206-.185.205.205,0,0,0-.192.132,3.666,3.666,0,0,1-.84,1.2.239.239,0,0,0-.087.167.19.19,0,0,0,.2.185.229.229,0,0,0,.16-.066,3.7,3.7,0,0,0,.568-.662l.78-.007c.066,0,.094.017.094.056a.137.137,0,0,1-.01.049,2.983,2.983,0,0,1-1.369,1.655.223.223,0,0,0-.122.188.2.2,0,0,0,.2.2.221.221,0,0,0,.115-.031,3.427,3.427,0,0,0,1.6-1.972.622.622,0,0,0,.031-.185c0-.209-.146-.324-.436-.321Z" transform="translate(83.019 16.96)" fill="#777"/>
        <path id="Path_382008" data-name="Path 382008" d="M-91.174-19.879c-.24,0-.293-.068-.293-.277v-.983h1.286a.247.247,0,0,0,.256-.267.247.247,0,0,0-.256-.267h-1.286v-.8c0-.209.052-.277.293-.277h1.291a.247.247,0,0,0,.256-.267.247.247,0,0,0-.256-.267h-1.442c-.617,0-.789.2-.789.706v2.529c0,.5.172.706.789.706h1.578a.247.247,0,0,0,.256-.267.247.247,0,0,0-.256-.267Zm4.677-1.092V-19.6a.3.3,0,0,0,.334.3.29.29,0,0,0,.324-.3v-1.4l1.176-1.881a.33.33,0,0,0,.042-.167.329.329,0,0,0-.35-.293.266.266,0,0,0-.235.131l-.925,1.61-.92-1.6a.275.275,0,0,0-.24-.141c-.214,0-.376.136-.376.277a.351.351,0,0,0,.042.183Zm5.085-.12c.523.146.69.334.69.648a.625.625,0,0,1-.685.658.961.961,0,0,1-.852-.444.274.274,0,0,0-.219-.1.3.3,0,0,0-.314.282.373.373,0,0,0,.089.225,1.53,1.53,0,0,0,1.286.559A1.2,1.2,0,0,0-80.1-20.454c0-.679-.287-.988-1.108-1.218l-.188-.052c-.517-.141-.658-.308-.658-.648,0-.282.219-.481.591-.481a.807.807,0,0,1,.658.35.282.282,0,0,0,.225.094.3.3,0,0,0,.319-.314.283.283,0,0,0-.1-.214,1.446,1.446,0,0,0-1.118-.434,1.051,1.051,0,0,0-1.186,1.035c0,.632.277.972,1.071,1.192Zm3.543.047a.232.232,0,0,0-.235.251.232.232,0,0,0,.235.251h1.3a.232.232,0,0,0,.235-.251.232.232,0,0,0-.235-.251Zm4.416-.58v-1.411a.286.286,0,0,0-.319-.3.294.294,0,0,0-.329.3V-19.6a.294.294,0,0,0,.329.3.286.286,0,0,0,.319-.3v-1.291l.261-.267,1.364,1.746a.278.278,0,0,0,.256.11.32.32,0,0,0,.329-.3.312.312,0,0,0-.078-.214l-1.458-1.766,1.165-1.2a.347.347,0,0,0,.115-.261.315.315,0,0,0-.329-.293.3.3,0,0,0-.235.12Zm4.28,2.049c0,.172.115.272.3.272a.263.263,0,0,0,.3-.272v-2.242a.263.263,0,0,0-.3-.272c-.188,0-.3.1-.3.272Zm.3-3.747a.387.387,0,0,0-.392.387.383.383,0,0,0,.392.382.383.383,0,0,0,.392-.382A.387.387,0,0,0-68.869-23.323Zm4.933.225a.263.263,0,0,0-.3-.272c-.188,0-.3.1-.3.272v1.286a.875.875,0,0,0-.643-.3c-.69,0-1.218.491-1.218,1.416,0,.9.476,1.421,1.2,1.421a.774.774,0,0,0,.716-.486,2.371,2.371,0,0,0,.078.282.23.23,0,0,0,.24.183c.188,0,.324-.084.324-.214a.731.731,0,0,0-.026-.188,5.484,5.484,0,0,1-.073-.983Zm-.6,2.582a.69.69,0,0,1-.611.768c-.387,0-.648-.308-.648-.951,0-.606.287-.93.658-.93a.715.715,0,0,1,.6.361Zm3.789.021c.355.089.455.183.455.376,0,.225-.157.382-.465.382a.767.767,0,0,1-.627-.272.252.252,0,0,0-.2-.089.247.247,0,0,0-.261.235.227.227,0,0,0,.068.188,1.3,1.3,0,0,0,1.019.4c.638,0,1.024-.345,1.024-.852,0-.47-.225-.706-.8-.836l-.188-.042c-.4-.089-.47-.167-.47-.35,0-.157.115-.3.4-.3a.639.639,0,0,1,.533.235.253.253,0,0,0,.178.068.258.258,0,0,0,.261-.256.243.243,0,0,0-.084-.2,1.265,1.265,0,0,0-.894-.308c-.564,0-.951.3-.951.753s.209.674.831.826Z" transform="translate(92.115 44.551)" fill="#777"/>
      </g>
      <g id="Q" transform="translate(36.408 5.045)">
        <path id="Path_382009" data-name="Path 382009" d="M4.355,11.942h0a6.1,6.1,0,1,1,7.36-3.472c-.034.08-.07.161-.108.24H9.582a4.353,4.353,0,1,0-5.227,1.38v1.852Z" transform="translate(0 0)" fill="#777"/>
        <path id="Path_382010" data-name="Path 382010" d="M.871,0H5.226a.871.871,0,0,1,0,1.742H.871A.871.871,0,1,1,.871,0Z" transform="translate(6.097 10.452)" fill="#e96"/>
      </g>
      <g id="A" transform="translate(24.214 5.045)">
        <path id="Path_382011" data-name="Path 382011" d="M8.71-425.677v-2.613h1.742v2.613a.871.871,0,0,1-.871.871A.871.871,0,0,1,8.71-425.677Zm-8.71,0v-2.613H1.742v2.613a.871.871,0,0,1-.871.871A.871.871,0,0,1,0-425.677Zm8.71-7.839v-1.742H1.742v1.742H0v-2.613A.871.871,0,0,1,.871-437h8.71a.871.871,0,0,1,.871.871v2.613Z" transform="translate(0 437)" fill="#777"/>
        <path id="Path_382012" data-name="Path 382012" d="M.871,0h8.71a.871.871,0,1,1,0,1.742H.871A.871.871,0,1,1,.871,0Z" transform="translate(0 5.226)" fill="#e66"/>
      </g>
      <g id="G" transform="translate(10.452 5.045)">
        <path id="Path_382013" data-name="Path 382013" d="M6.1,12.194A6.1,6.1,0,0,1,3.724.479a6.1,6.1,0,0,1,7.884,3H9.582a4.408,4.408,0,0,0-.405-.466,4.358,4.358,0,1,0,0,6.159,4.408,4.408,0,0,0,.405-.466h2.026A6.092,6.092,0,0,1,6.1,12.194Z" transform="translate(0 0)" fill="#777"/>
        <path id="Path_382014" data-name="Path 382014" d="M.871,0H5.226a.871.871,0,0,1,0,1.742H.871A.871.871,0,1,1,.871,0Z" transform="translate(5.923 5.226)" fill="#4b9"/>
      </g>
      <g id="E" transform="translate(0 5.045)">
        <path id="Path_382015" data-name="Path 382015" d="M1.161-424.806a1.174,1.174,0,0,1-.156-.01.877.877,0,0,1-.135.01A.871.871,0,0,1,0-425.677v-2.613H1.742v1.742H9.871a.581.581,0,0,1,.581.581v.581a.581.581,0,0,1-.581.581ZM0-433.516v-2.613A.871.871,0,0,1,.871-437h8.71a.871.871,0,0,1,.871.871.871.871,0,0,1-.871.871H1.742v1.742Z" transform="translate(0 437)" fill="#777"/>
        <path id="Path_382016" data-name="Path 382016" d="M.871,0H7.839a.871.871,0,1,1,0,1.742H.871A.871.871,0,1,1,.871,0Z" transform="translate(0 5.226)" fill="#49c"/>
      </g>
    </g>
    <g id="mark" transform="translate(31 177.268)">
      <path id="Path_382017" data-name="Path 382017" d="M1.187,0H17.809a1.187,1.187,0,1,1,0,2.375H1.187A1.187,1.187,0,0,1,1.187,0Z" transform="matrix(0.966, -0.259, 0.259, 0.966, 2.869, 14.65)" fill="#d7b"/>
      <path id="Path_382018" data-name="Path 382018" d="M1.187,0H15.435a1.187,1.187,0,1,1,0,2.375H1.187A1.187,1.187,0,0,1,1.187,0Z" transform="translate(3.076 14.283) rotate(5)" fill="#ac5"/>
      <path id="Path_382019" data-name="Path 382019" d="M1.187,0H13.06a1.187,1.187,0,1,1,0,2.375H1.187A1.187,1.187,0,0,1,1.187,0Z" transform="matrix(0.966, -0.259, 0.259, 0.966, 5.496, 19.031)" fill="#6bc"/>
      <path id="Path_382020" data-name="Path 382020" d="M1.187,0H15.435a1.187,1.187,0,1,1,0,2.375H1.187A1.187,1.187,0,0,1,1.187,0Z" transform="matrix(0.996, 0.087, -0.087, 0.996, 5.914, 18.572)" fill="#49c"/>
      <path id="Path_382021" data-name="Path 382021" d="M1.187,0H17.809a1.187,1.187,0,1,1,0,2.375H1.187A1.187,1.187,0,0,1,1.187,0Z" transform="matrix(0.966, -0.259, 0.259, 0.966, 0, 10.307)" fill="#e96"/>
      <path id="Path_382022" data-name="Path 382022" d="M1.187,0H15.435a1.187,1.187,0,1,1,0,2.375H1.187A1.187,1.187,0,1,1,1.187,0Z" transform="translate(2.66 2.968) rotate(10)" fill="#ac5"/>
      <path id="Path_382023" data-name="Path 382023" d="M1.187,0h19a1.187,1.187,0,1,1,0,2.375h-19A1.187,1.187,0,1,1,1.187,0Z" transform="translate(0.237 9.973)" fill="#e66"/>
      <path id="Path_382024" data-name="Path 382024" d="M1.187,0H13.06a1.187,1.187,0,1,1,0,2.375H1.187A1.187,1.187,0,0,1,1.187,0Z" transform="translate(2.248 3.26) rotate(-5)" fill="#4b9"/>
      <path id="Path_382025" data-name="Path 382025" d="M1.187,0H8.311a1.187,1.187,0,0,1,0,2.375H1.187A1.187,1.187,0,0,1,1.187,0Z" transform="matrix(0.966, 0.259, -0.259, 0.966, 7.849, 0)" fill="#49c"/>
    </g>
  </g>
</svg>
