<svg xmlns="http://www.w3.org/2000/svg" width="16" height="16" viewBox="0 0 16 16">
  <path id="Path_169804" data-name="Path 169804" d="M915.045,186.6l-.954-4.021a7.6,7.6,0,0,0,.954-3.666,8,8,0,1,0-7.99,7.767,8.192,8.192,0,0,0,3.435-.764l3.963,1.216A.459.459,0,0,0,915.045,186.6Zm-7.99-.877a6.81,6.81,0,1,1,7.006-6.811,6.676,6.676,0,0,1-.913,3.37.726.726,0,0,0-.055.345l.607,2.557a.459.459,0,0,1-.592.531l-2.495-.765s-.117.007-.371.028A7.174,7.174,0,0,1,907.054,185.722Z" transform="translate(-899.057 -171.151)" fill="#1f1f1f"/>
</svg>
