<svg xmlns="http://www.w3.org/2000/svg" width="20" height="16.736" viewBox="0 0 20 16.736">
  <g id="Group_189098" data-name="Group 189098" transform="translate(-1)">
    <g id="Group_189099" data-name="Group 189099" transform="translate(1)">
      <path id="Path_232895" data-name="Path 232895" d="M8.333,9.1a.429.429,0,0,1-.422-.436V4.692a.428.428,0,0,1,.429-.434.434.434,0,0,1,.214.057L12.084,6.3a.427.427,0,0,1,.164.164.433.433,0,0,1-.166.593L8.554,9.043a.427.427,0,0,1-.21.055Zm.439-1.172L11,6.675,8.771,5.424Z" transform="translate(0.368 0.198)" fill="#666"/>
      <path id="Path_232896" data-name="Path 232896" d="M5.979,14.158a.21.21,0,0,1-.209-.209v-.443H2.456a.21.21,0,0,1-.209-.209v-.653a.209.209,0,0,1,.209-.209H5.769V11.99a.209.209,0,0,1,.209-.209h.653a.209.209,0,0,1,.209.209v.444H17.333a.207.207,0,0,1,.209.209V13.3a.21.21,0,0,1-.209.209H6.841v.444a.21.21,0,0,1-.209.209Z" transform="translate(0.105 0.549)" fill="#666"/>
      <path id="Path_232897" data-name="Path 232897" d="M9.695,11.3a4.532,4.532,0,1,1,4.532-4.532A4.536,4.536,0,0,1,9.695,11.3m0-8.1a3.572,3.572,0,1,0,3.572,3.572A3.577,3.577,0,0,0,9.695,3.2" transform="translate(0.24 0.104)" fill="#666"/>
      <path id="Path_232898" data-name="Path 232898" d="M1.189,16.736A1.191,1.191,0,0,1,0,15.547V1.188A1.19,1.19,0,0,1,1.189,0H18.811A1.19,1.19,0,0,1,20,1.188V15.547a1.191,1.191,0,0,1-1.189,1.189Zm0-15.664a.116.116,0,0,0-.116.116V15.547a.115.115,0,0,0,.116.116H18.811a.116.116,0,0,0,.116-.116V1.188a.117.117,0,0,0-.116-.116Z" fill="#666"/>
    </g>
  </g>
</svg>
