<svg xmlns="http://www.w3.org/2000/svg" width="18" height="18.153" viewBox="0 0 18 18.153">
  <path id="home" d="M479.812,1715.608l-8.42-4.54a.541.541,0,0,0-.093-.031.554.554,0,0,0-.085-.028.83.83,0,0,0-.229,0,.548.548,0,0,0-.085.028.539.539,0,0,0-.093.031l-8.42,4.54a.563.563,0,0,0-.211.775.581.581,0,0,0,.787.208l1.943-1.047-1.174-.247v12.143a1.787,1.787,0,0,0,1.745,1.714h11.244a1.7,1.7,0,0,0,1.687-1.7v-12.145l-1.105.242,1.932,1.042a.581.581,0,0,0,.787-.208A.563.563,0,0,0,479.812,1715.608Zm-7.025,12.411h-3.373v-3.973a.565.565,0,0,1,.562-.568h2.249a.565.565,0,0,1,.562.568Zm4.5-1.135a1.13,1.13,0,0,1-1.124,1.135h-2.249v-4.54a1.13,1.13,0,0,0-1.124-1.135h-3.373a1.13,1.13,0,0,0-1.124,1.135v4.54h-2.249a1.13,1.13,0,0,1-1.124-1.135v-11.345l6.184-3.334,6.184,3.334Zm-8.433-9.08a2.249,2.249,0,1,0,2.249-2.27A2.26,2.26,0,0,0,468.852,1717.8Zm3.373,0a1.124,1.124,0,1,1-1.124-1.135A1.13,1.13,0,0,1,472.225,1717.8Z" transform="translate(-462.101 -1711.001)" fill="#666"/>
</svg>
