<svg xmlns="http://www.w3.org/2000/svg" width="21.002" height="21" viewBox="0 0 21.002 21">
  <g id="icon-fee" transform="translate(0.501 0.5)">
    <path id="icon-fee-2" data-name="icon-fee" d="M9.993,19.986C9.72,20,9.453,20,9.186,20a23.915,23.915,0,0,1-4.761-.481,6.21,6.21,0,0,1-3.35-1.926A5.573,5.573,0,0,1,.01,13.974a4.781,4.781,0,0,1,1.629-3.341A10.163,10.163,0,0,0,3.916,7.539,4.369,4.369,0,0,1,7.783,4.988h4.435A4.377,4.377,0,0,1,16.088,7.54a10.132,10.132,0,0,0,2.28,3.1,4.781,4.781,0,0,1,1.625,3.339,5.613,5.613,0,0,1-1.064,3.606,6.233,6.233,0,0,1-3.359,1.938A24,24,0,0,1,10.794,20Q10.393,20,9.993,19.986ZM10.78,18.9a23.156,23.156,0,0,0,4.552-.451,5.116,5.116,0,0,0,2.8-1.6,4.407,4.407,0,0,0,.794-2.81,3.637,3.637,0,0,0-1.259-2.577,11.28,11.28,0,0,1-2.534-3.432,3.316,3.316,0,0,0-2.925-1.95H7.785A3.309,3.309,0,0,0,4.868,8.031a11.276,11.276,0,0,1-2.53,3.432,3.648,3.648,0,0,0-1.262,2.578,4.422,4.422,0,0,0,.8,2.826,5.1,5.1,0,0,0,2.791,1.585A23.067,23.067,0,0,0,9.2,18.9c.264,0,.527,0,.791-.014C10.251,18.9,10.515,18.9,10.78,18.9ZM9.5,16.2V15.033H8.33a.549.549,0,0,1,0-1.1H9.5V13.4H8.33a.549.549,0,0,1,0-1.1h1L7.58,10.165A.548.548,0,0,1,8,9.261a.543.543,0,0,1,.4.195l1.639,2,1.636-2a.541.541,0,0,1,.41-.195.527.527,0,0,1,.344.129.581.581,0,0,1,.061.772l-1.752,2.143h1a.549.549,0,0,1,0,1.1H10.568v.53h1.169a.549.549,0,0,1,0,1.1H10.568V16.2a.534.534,0,1,1-1.067,0Zm7.486-9.083a.524.524,0,0,1-.332-.242l-.434-.708A4.605,4.605,0,0,0,12.4,3.91H7.592A4.6,4.6,0,0,0,3.778,6.162l-.429.7a.535.535,0,0,1-.457.262.529.529,0,0,1-.285-.084.572.572,0,0,1-.161-.757l.434-.709a5.735,5.735,0,0,1,3.9-2.689l.048,0,.955-1.2a1.172,1.172,0,0,1-.131-.54,1.117,1.117,0,1,1,2.234,0A1.132,1.132,0,0,1,8.771,2.293a1.068,1.068,0,0,1-.4-.079l-.475.6H12.11l-.476-.6a1.084,1.084,0,0,1-.925-.052A1.157,1.157,0,0,1,10.245.619a1.1,1.1,0,0,1,1.5-.476,1.155,1.155,0,0,1,.464,1.541l.961,1.2.026,0a5.758,5.758,0,0,1,3.927,2.689l.432.709a.562.562,0,0,1-.163.757.535.535,0,0,1-.286.086A.483.483,0,0,1,16.987,7.113Z" fill="#666" stroke="rgba(0,0,0,0)" stroke-miterlimit="10" stroke-width="1"/>
  </g>
</svg>
