<svg xmlns="http://www.w3.org/2000/svg" width="15" height="20" viewBox="0 0 15 20">
  <path id="mark" d="M117.5,930h0l0,0a47.363,47.363,0,0,1-3.746-4.392,27.588,27.588,0,0,1-2.579-4.065A9.389,9.389,0,0,1,110,917.5a7.5,7.5,0,1,1,15,0,9.306,9.306,0,0,1-1.172,4,28.142,28.142,0,0,1-2.578,4.069A49.217,49.217,0,0,1,117.5,930h0Zm0-18.75a6.3,6.3,0,0,0-6.25,6.328,7.954,7.954,0,0,0,.977,3.391,23.545,23.545,0,0,0,2.149,3.432,39.581,39.581,0,0,0,3.125,3.724,40.875,40.875,0,0,0,3.125-3.74,23.854,23.854,0,0,0,2.149-3.434,7.919,7.919,0,0,0,.977-3.373A6.3,6.3,0,0,0,117.5,911.25Zm0,8.75a2.5,2.5,0,1,1,2.5-2.5A2.5,2.5,0,0,1,117.5,920Zm0-3.75a1.25,1.25,0,1,0,1.25,1.25A1.252,1.252,0,0,0,117.5,916.25Z" transform="translate(-110 -910)" fill="#666"/>
</svg>
