<svg xmlns="http://www.w3.org/2000/svg" xmlns:xlink="http://www.w3.org/1999/xlink" width="240" height="257.498" viewBox="0 0 240 257.498">
  <defs>
    <linearGradient id="linear-gradient" x2="1" y2="1" gradientUnits="objectBoundingBox">
      <stop offset="0" stop-color="#fed7e1"/>
      <stop offset="1" stop-color="#fef3fb"/>
    </linearGradient>
    <linearGradient id="linear-gradient-2" x1="0.5" x2="0.5" y2="1" gradientUnits="objectBoundingBox">
      <stop offset="0" stop-color="#fe5e81"/>
      <stop offset="1" stop-color="#ffd9f9"/>
    </linearGradient>
    <linearGradient id="linear-gradient-3" x2="1" y2="1" gradientUnits="objectBoundingBox">
      <stop offset="0" stop-color="#fe5e81"/>
      <stop offset="1" stop-color="#e2a1c4"/>
    </linearGradient>
  </defs>
  <g id="title" transform="translate(-840 -1335.502)">
    <circle id="bg" cx="120" cy="120" r="120" transform="translate(840 1353)" fill="url(#linear-gradient)"/>
    <path id="Path_378097" data-name="Path 378097" d="M-83.687,18.439-3.83,81.6-35.814,3.539Z" transform="translate(975.836 1331.963)" fill="url(#linear-gradient-2)"/>
    <path id="Path_378092" data-name="Path 378092" d="M-44.712,0H-49.4l11.182-50.781a22.712,22.712,0,0,0,.684-4.492,4.017,4.017,0,0,0-.806-2.637,2.724,2.724,0,0,0-2.222-.977q-4.346,0-10.3,9.668-2.344,3.76-5,8.984t-4.761,9.888q-2.1,4.663-4.248,10.278T-68.687-9.18L-71.274-.928-71.567,0h-4.15l.293-.977q3.223-11.133,7.275-31.006,1.562-7.471,2.734-14.062A81.4,81.4,0,0,0-63.8-58.35a12.417,12.417,0,0,0-.391-3.247,4.945,4.945,0,0,0-1.1-2.173,2.263,2.263,0,0,0-1.685-.732q-3.955,0-6.641,9.766A86.372,86.372,0,0,0-76.4-41.211l-3.809-2.637A52.989,52.989,0,0,1-77.183-55.1a26.491,26.491,0,0,1,4.639-8.008q2.588-2.856,5.225-2.856,3.125,0,4.907,3.369t1.782,9.326a69.118,69.118,0,0,1-.928,10.742q-.635,4-1.367,7.959l-2.49,12.012.439-1.074q4.248-10.352,8.13-17.92a98.07,98.07,0,0,1,7.251-12.256q6.055-8.252,11.23-8.252a5.086,5.086,0,0,1,3.931,1.685,6.229,6.229,0,0,1,1.538,4.37,29.544,29.544,0,0,1-.83,6.055ZM-2.925-7.568l.879.732A22.987,22.987,0,0,1-7.954-1.05a11.577,11.577,0,0,1-6.2,1.782A8.157,8.157,0,0,1-20.5-1.9,9.991,9.991,0,0,1-22.9-8.887,19.4,19.4,0,0,1-20.576-17.8a23.987,23.987,0,0,1,5.811-7.471,10.775,10.775,0,0,1,6.909-2.954,4.722,4.722,0,0,1,3.3,1.172,3.9,3.9,0,0,1,1.294,3.027q0,3.76-4.1,7.52a33.915,33.915,0,0,1-11.182,6.4,7.138,7.138,0,0,0-.049.879,8.046,8.046,0,0,0,1.855,5.493,6.062,6.062,0,0,0,4.785,2.124,7.877,7.877,0,0,0,4.443-1.44A21.471,21.471,0,0,0-2.925-7.568ZM-18.55-11.279A26.215,26.215,0,0,0-10.444-16.5a17.823,17.823,0,0,0,3.076-4.2A8.924,8.924,0,0,0-6.2-24.756q0-2.295-2.1-2.295-3.174,0-6.421,5A24,24,0,0,0-18.55-11.279ZM12.642-26.562l4.395-2v1.27q0,3.467.2,6.445t.732,8.5q.684,6.445,1.025,7.861t1.172,1.416q1.074,0,3.516-3.442a57.328,57.328,0,0,0,4.785-8.325L26.948-26.562l4.443-2,.049,1.221q.391,10.449.83,14.99.146,1.172.293,2.466t.22,2.026q.073.732.22,1.685t.2,1.245q.391,1.611,1.27,1.611,1.758,0,6.055-6.982,4.053-6.445,4.053-10.889a5.832,5.832,0,0,0-2.344-5.176l3.711-3.418a7.431,7.431,0,0,1,1.709,5.078,19.686,19.686,0,0,1-1.9,7.764,57.963,57.963,0,0,1-5.664,9.717,60.73,60.73,0,0,1-4.3,5.42Q33.638.635,32.271.635a1.728,1.728,0,0,1-1.611-1,10.455,10.455,0,0,1-.83-3.394L28.755-12.5a53.252,53.252,0,0,1-4.932,8.105Q20.161.635,17.964.635a1.61,1.61,0,0,1-1.514-.9,11.836,11.836,0,0,1-.879-3.345ZM57.6-3.125l2.734-3.223Q62.485-1.27,67.173-1.27a5.965,5.965,0,0,0,4.175-1.587,4.862,4.862,0,0,0,1.733-3.687,4.106,4.106,0,0,0-.83-2.588A28.9,28.9,0,0,0,68.3-12.744a24.347,24.347,0,0,1-3.882-3.687,5.048,5.048,0,0,1-1-3.1,7.347,7.347,0,0,1,1.343-4.248,9.93,9.93,0,0,1,3.589-3.149,9.935,9.935,0,0,1,4.736-1.2,6.039,6.039,0,0,1,3.687,1.1,3.352,3.352,0,0,1,1.489,2.808,3.062,3.062,0,0,1-1.9,3.076,5.579,5.579,0,0,0-1.733-3.589,5.308,5.308,0,0,0-3.687-1.294,5.155,5.155,0,0,0-3.491,1.294,3.839,3.839,0,0,0-1.489,2.954q0,2.051,2.539,4.053l2.832,2.295q4.15,3.271,4.15,6.689a8.594,8.594,0,0,1-1.44,4.761,10.4,10.4,0,0,1-3.906,3.54,10.875,10.875,0,0,1-5.2,1.318A8.864,8.864,0,0,1,57.6-3.125Z" transform="translate(960 1466.799)" fill="url(#linear-gradient-3)"/>
  </g>
</svg>
