<svg xmlns="http://www.w3.org/2000/svg" xmlns:xlink="http://www.w3.org/1999/xlink" width="188.679" height="39.05" viewBox="0 0 188.679 39.05">
  <defs>
    <linearGradient id="linear-gradient" x1="-0.011" y1="0.992" x2="1.008" y2="0.279" gradientUnits="objectBoundingBox">
      <stop offset="0" stop-color="#99e"/>
      <stop offset="1" stop-color="#e2a1c4"/>
    </linearGradient>
    <clipPath id="clip-path">
      <rect id="Rectangle_109058" data-name="Rectangle 109058" width="187.405" height="22.803" fill="url(#linear-gradient)"/>
    </clipPath>
  </defs>
  <g id="Group_206832" data-name="Group 206832" transform="matrix(0.996, -0.087, 0.087, 0.996, 0, 16.333)" opacity="0.7">
    <g id="Group_206831" data-name="Group 206831" transform="translate(0 0)" clip-path="url(#clip-path)">
      <path id="Path_377840" data-name="Path 377840" d="M26.47,14.148c-.059.157-.252.254-.316.15A1.672,1.672,0,0,1,26.1,13.09c.166-.591.466-.438.724-.483-.157-.435.161-1.994-.472-1.237a1.232,1.232,0,0,1-.992.511c-.806.015-1.656-.408-2.408.025-1.038.594-2.086.447-3.123.73-1.111.306-2.455-.38-3.3.827-1.05,1.507-2.007-.5-2.954.581-.33.376-.887-.488-1.386-.4-.613.1-1.137.416-1.3,1.881-.125,1.121-.312,1.34-.66.509C9.506,14.3,8.763,13.481,7.845,15.2c-.132.249-.41.128-.62.109-.9-.084-1.616.449-2.094,2.427-.246,1.019-.684,1.671-1.071-.13-.275-1.279-.5.293-.8.286-.566-.012-.419-1.78-.917-1.713-.2.027-.553.1-.57.292C1.6,18.409.873,18.111.313,18.508a1.134,1.134,0,0,0-.268,1.065,7.97,7.97,0,0,0,1.262,2.259c.353.354.848.238,1.183-.487.253-.547.455-1.22.709-1.762.117-.249.229-.886.48-.332.277.611-.022,2.063.642,2.156.444.062.2-2.117.846-1.229a.5.5,0,0,0,.411.221c.6,0-.212,1.95.489,1.8.419-.088.843-.068,1.262-.157a20.256,20.256,0,0,0,2.712-.656c.687-.247,1.4-.407,1.871.921.355,1,.229.236.431-.131a31.577,31.577,0,0,0,1.713-2.953c.11-.252.437-.281.563.239.146.6-.119.637-.267.879a.776.776,0,0,0,.176,1.172c.318-.116.617-.488.936-.588.49-.154.552-.606.262-1.479.585-1.009,1.19-.933,1.725.191.432.908.711.789,1-.246a4.958,4.958,0,0,1,.425-1.056c.522-.936,1.041-1.861,1.483.362a2.745,2.745,0,0,0,1.412,1.968c.256.22.038-2.048.766-1.15.4.5.836,1.481,1.343,1.017s.5-1.856.762-2.764a2.575,2.575,0,0,1,.463-.948c.178-.195.507-.13.525.325.026.653-.275,1.907.344,1,.594-.873,1.021.55,1.558.206.462-.3.982-.106,1.464-.286.634-.237,1.071.474,1.5,1.41.133.293.255.146.282-.313.066-1.073.272-1.444.65-.59.565,1.278,1.159.67,1.723.238.5-.384.914-1,1.529-.586.517.349,1.114-.063,1.676-.024.45.031.881-.435,1.323.789.586,1.624.619-1.426,1.167-1.043.259.182.576.007.805.283.338.406.7.7,1.009.384,1.059-1.086,2.146.18,3.21-.192.45-.157.994.7.864,1.447-.272,1.554.116,1.244.432,1.158.442-.12.6-.665.312-1.641-.1-.358-.3-.8-.018-1.142a.262.262,0,0,1,.4.034c.7.777,1.643,1.122,2.076.466,1.084-1.64,2.366.092,3.477-1.007.069-.068.311.291.331.514.192,2.108.98.75,1.269,1.227.94,1.551,1.82.874,2.69.372,1.277-.743,2.6-.188,3.868-.769.117-.054.319-.23.337-.158.69,2.756,1,1,1.332-.524.083-.376.21-1.227.384-.591.479,1.753,1.091.238,1.594.644,1.655,1.339,2.112,1.413,3.024,1.452.641.028.88-1.371,1.261-1.56.407-.2.89,1.065,1.478,1.366.984.512,1.683-.212,2.413-1.321.125-.511.232-1.054.385-1.516.053-.16.246-.242.327-.143a1.506,1.506,0,0,1,.056,1.18c-.14.611-.431.589-.691.653.114.873.446.873.685.672C72.8,18.7,73.41,18,74.142,18.094c.562.075.821-.86,1.025-2.008.137-.77.277-.737.442.486.138,1.014.3.624.613.769a2.193,2.193,0,0,0,1.984.027c.748-.328,1.65-.748,2.35-.32.937.577,1.827-.117,2.693.358.9.492,1.808-2.113,2.68.32.117.328.18-.6.293-.881.2-.5.227-1.791.676-1.238.276.341.059,1.123-.053,1.714-.163.851.186.723.32.648,1.514-.843,3.061-.461,4.576-.247,2.27.33,4.471-1.847,6.748-.56.066.037.172.052.205-.035.892-2.362,2.44,1.421,3.267-1.779.056-.215.23.532.343.867.3.89.55.792.722-.309.05-.317.21-1.269.35-.466.258,1.485.553.488.891.551.794.153,1.642-1.708,2.4.362.117.319.389.217.523-.29.116-.436-.014-1.34.475-1.023,1.733,1.119,3.487-.109,5.221.294.671.157,1.194-1.206,1.955-.345.565.638,1.364-.232,1.991.775.4-1.229.795-.01,1.1.25,1.042.882.253-3,1.156-2.246-.078,2.825.81,1.888,1.441,2.094s1.063-.611,1.564-1.116c.366-.368.613-.892.964.448.284,1.089.931.633,1.227-.454.334-1.228-.459-.737-.5-1.47-.026-.44-.179-.942.093-1.263.682-.8,1.4.869,2.125-.17.185-.264.486.927.706,1.572.629,1.838,1.388,2.044,2.264.88a1.461,1.461,0,0,0,.115-1.212c-.186-.729-.442-1.384.178-1.547a1.227,1.227,0,0,1,.21-.049,3.008,3.008,0,0,1,.633-.024c.57.084,1.293.084.179,1.36a.4.4,0,0,0,.121.561.792.792,0,0,0,1.159-.458c.675-1.343.778-1.5.98-.77.439,1.585.753,1.3,1.278.213.776-1.612,1.657-1.755,2.514-.109a2.809,2.809,0,0,0,.33.01c.243-1.445.784-1.124,1.256-1.065a.755.755,0,0,1,.515.591,1.537,1.537,0,0,1-.344,1.476c-.5.347-.2.848-.007,1.239.429.855.982.757,1.392.315a2.074,2.074,0,0,1,1.385-.866c.41,0,.844.238,1.228-.324-.365-.662-.749-1.264-1.22-1.382-.278-.07-.565.046-.842-.036-.2-.058-.382-.31-.572-.474.136-.7.421-.666.677-.675l8.653-.253a.878.878,0,0,1,.538.445c-.057.811-.376.609-.618.752-.14.083-.516-.139-.269.731.075.264.258.684.3.635.856-1.094,1.686-.679,2.523.131a2.887,2.887,0,0,0,.194-.672.984.984,0,0,0-.04-.435,1.554,1.554,0,0,0-.574-.45c-.317-.08-.787.322-.838-.681-.028-.555.452-.465.721-.564.613-.222,1.227.036,1.864-.45.333-.255,1.011.173,1.4,1.109-.355.7-.8.335-1.2.52-.136.062-.282,0-.42.052-.189.066-.256.3-.173.561s.194.692.285.683a7.046,7.046,0,0,0,2.231-.421c.4-.177.986.269,1.128-1.505.091-1.131.624-1.71,1.172-1.631a6.9,6.9,0,0,0,5.444-1.07c.318-.233.85-.335,1.023.084.724,1.75,1.57.319,2.332.571.783.259,1.689-.135,2.527-.068,1.629.13,3.2-1.276,4.835-.772a.8.8,0,0,0,.838-.07c1.521-1.453,3.215-.235,4.749-1.748a1.1,1.1,0,0,1,1.654.045c.928,1.1,1.715-.092,2.561-.235.177-.029.383.083.485-.426a2.313,2.313,0,0,1-.6-.292c-1.553-1.313-3.17-.978-4.771-.988-1.268-.007-2.609-.564-3.787.2-2.235,1.472-4.452.432-6.671.685-.118.013-.242-.256-.364-.393a5.959,5.959,0,0,0,.817-2c.169-.848.31.079.37.392.086.451.18,1.114.38.946,1.146-.97,2.321.658,3.423-.139a9.476,9.476,0,0,1,4.511-1.937c.13-.014.257-.2.385-.3a2.014,2.014,0,0,0-.35-.348c-.378-.208-.935-.839-1.108-.482-.666,1.373-1.267-.754-1.936.13-.686.9-1.515.162-2.28.281-1.053.163-2.119-.086-3.167.139-.979.211-2.026-1.364-2.949.583-.181.382-.367-.183-.5-.5-.445-1.052-.977-.588-1.494-.749C162.232.8,161.122,1.267,160,.992,159.228.8,158.5-.32,157.623.83c-.482.629-1.255.322-1.873.083-1.616-.629-3.22-1.65-4.834-.086-1.108-1.843-2.131.238-3.188.434-1.087.2-2.158-.27-3.234-.275-.938,0-1.987,1.1-2.906-.43-.755,1.826-1.676.257-2.512.586a7.737,7.737,0,0,1-2.578.415l-10.783.456c-.492.024-1.06.349-1.462-.1-1.173-1.316-2.355-.876-3.478-.226a1.236,1.236,0,0,1-1.088.058,5.445,5.445,0,0,0-3.512-.161c-1.086.255-2.155-.75-3.24.05-1.131.835-2.277-.419-3.439-.234-.646.1-1.3-.668-1.923.5-.145.272-.557.022-.792-.248-.623-.717-1.236-.757-1.814,0-.479.627-.893.68-1.378.023-.453-.616-1.02-.632-1.417-.043-.718,1.066-1.489.852-2.246.866a22.038,22.038,0,0,0-2.876-.147c-.94.152-1.93.314-2.892.566-1.719.444-3.495-.371-5.174,1.036-1.814-1.178-3.63.013-5.443-.212-1.172-.143-2.372.972-3.519-.594a.364.364,0,0,0-.61.082c-.862,1.614-1.894.922-2.85,1.086-1.615.276-3.313-.277-4.839.652a10.851,10.851,0,0,1-4.766,1.192c-1.127.135-2.247-.461-3.4.277a1.783,1.783,0,0,1-2.274-.177c-.77-.646-1.512.958-2.366.819-.767-.122-1.439-1.024-2.248-.895-3.162.514-6.332.777-9.5,1.131a2.165,2.165,0,0,0-.422.035c-.165.052-.382-.047-.4.522a.728.728,0,0,0,.384.205,2.145,2.145,0,0,0,.633-.054c.226-.044.4.143.394.681a.6.6,0,0,1-.323.454,19.086,19.086,0,0,1-2.109.282c-.623.049-1.337.609-1.825-.613-.9-2.241-.995,1.775-1.673.933a.928.928,0,0,1-.185-.229c-.6-1.345-.981-1.593-.96.84,0,.491-.326.629-.514.463-.322-.285.142-2.126-.581-1.705-.4.23-.766.856-1.158.886-.289.023-.418-.607-.716.492-.4,1.47-.326-1.15-.74-.988-.343.135-.776-.182-1.036.188-.841,1.2-1.918-1.089-2.666.938-.84-2.632-1.856-.805-2.626-.236-1.265.934-2.7.289-3.836,2.169a3.306,3.306,0,0,1-.34,1.571M98.242,6.56c-.4.024-1.106.419-1.129-.436-.029-1.054.649-.676,1.025-.707q4.322-.352,8.647-.6l9.287-.553a5.872,5.872,0,0,1,.844-.011c.246.024.561-.2.63.64a.942.942,0,0,1-.531.458l-4.43.3-5.487.33ZM73.734,8.519c-.4-.011-1.1.441-1.132-.41-.037-1.07.639-.637,1.012-.733a3.026,3.026,0,0,1,1.472-.122c.925.228,1.881-1.025,2.777.407-.836,1.087-1.778.37-2.483.724a15.4,15.4,0,0,1-1.647.134M53.1,7.569c.058.015.163.246.156.288-.042.238-.1.628-.173.641a12.1,12.1,0,0,1-1.879.215c-.094,0-.193-.344-.29-.53.105-.182.2-.489.317-.523a8.971,8.971,0,0,1,1.4-.176,2.611,2.611,0,0,1,.469.085m16.052,10.16a.452.452,0,0,1-.535-.29c-.183-.555.1-.654.246-.739.261-.149.525-.111.77.5-.168.2-.318.5-.481.531m4.663-.72c-.274.19-.336-.292-.3-.814s.147-.93.408-.775c.1.059.178.337.4.791a3.188,3.188,0,0,1-.511.8m-37.657-.67c.258-.114.567-.4.777.161.237.624-.086.706-.224.789-.262.159-.542.217-.767-.356.069-.2.127-.556.214-.594m129.268-11.8c-.073-.015-.136-.333-.2-.511a3.907,3.907,0,0,1,.786-.367c.054-.013.126.381.189.585-.224.661-.513.347-.772.294m-1.095.049c-.206.087-.439,0-.514-.516-.059-.4-.048-1.06.2-1.026.168.023.324.539.424.723.112.467.066.744-.112.818" transform="translate(1.299 0)" fill="url(#linear-gradient)"/>
      <path id="Path_377841" data-name="Path 377841" d="M.283.05c.293-.2.4.235.474.7A2.342,2.342,0,0,1,.589,2.435c-.3.337-.52-.06-.57-.856C-.021.926-.025.3.283.05" transform="translate(0 18.711)" fill="url(#linear-gradient)"/>
      <path id="Path_377842" data-name="Path 377842" d="M1,0a2.646,2.646,0,0,0,.33.01C1.38.772,1.515,1.667.99,1.764A3.511,3.511,0,0,1,0,1.68a2.63,2.63,0,0,1,.165-.487C.437.777.719.395,1,0" transform="translate(136.637 12.256)" fill="url(#linear-gradient)"/>
      <path id="Path_377843" data-name="Path 377843" d="M.9,1.692C.608,1.651.469,1.682.343,1.6c-.187-.118-.4-.255-.33-.9C.067.2.205-.091.431.026.555.09.664.3.78.433l.7.819L.9,1.692" transform="translate(145.345 12.188)" fill="url(#linear-gradient)"/>
      <path id="Path_377844" data-name="Path 377844" d="M.685.452c-.168.325-.31.65-.473.9C.1,1.52.022,1.325,0,.926-.025.34.135.075.339,0,.42-.027.521.229.685.452" transform="translate(159.28 11.814)" fill="url(#linear-gradient)"/>
      <path id="Path_377845" data-name="Path 377845" d="M.975.226C.8.421.691.635.581.642.377.654.12.93,0,.238.121.153.242-.006.362,0A2.253,2.253,0,0,1,.975.226" transform="translate(157.691 11.846)" fill="url(#linear-gradient)"/>
      <path id="Path_377846" data-name="Path 377846" d="M.98.2C.812.432.719.664.623.676.4.7.142.9,0,.26.12.167.239,0,.359,0A2.179,2.179,0,0,1,.98.2" transform="translate(186.425 6.65)" fill="url(#linear-gradient)"/>
    </g>
  </g>
</svg>
