<svg xmlns="http://www.w3.org/2000/svg" width="48.52" height="48.721" viewBox="0 0 48.52 48.721">
  <path id="_01" data-name="01" d="M946.506,185.74a24.357,24.357,0,1,1-41.62-20.895v3.964a21.8,21.8,0,1,0,36.649,23.45S945.292,188.568,946.506,185.74Zm-7.835-13.19-6.2,12.269a13.6,13.6,0,0,1-6.661,6.648c-5.753,2.815-12.082,1.691-14.137-2.51s.943-9.887,6.7-12.7,12.082-1.69,14.137,2.51c.013.026.023.052.035.078l8.986-17.589a22.709,22.709,0,0,0,1.945,7.828c.522,1.211,1.081,2.372,1.6,3.561.024.057.053.126.087.2.275.643.534,1.3.767,1.972a13.393,13.393,0,0,1-2.8,13.467C943.944,184.9,944.221,178.842,938.672,172.55Zm-19.37,9.178a1.37,1.37,0,1,0-1.025-1.644A1.369,1.369,0,0,0,919.3,181.727Zm6.519,3.97c-.256-.288-.365-.346-.634-.069a4.09,4.09,0,0,1-3.565.854h0l0,0h0a4.1,4.1,0,0,1-2.824-2.338c-.118-.368-.241-.363-.6-.218-.455.185-.672.237-.553.6a5.285,5.285,0,0,0,8.409,1.953C926.319,186.206,926.148,186.064,925.821,185.7Zm.349-5.187a1.37,1.37,0,1,0,1.025,1.645A1.369,1.369,0,0,0,926.17,180.509Zm9.375,1.308,2.464-4.873v11.88a2.92,2.92,0,0,1-.994,2.194l-12.988,11.015c-.053.047-.114.082-.17.124l-.091.077-.01,0a2.907,2.907,0,0,1-.556.3,2.1,2.1,0,0,1-1.413,0,2.916,2.916,0,0,1-.51-.27l0,0-.046-.039a2.6,2.6,0,0,1-.268-.2l-12.988-11.015a2.919,2.919,0,0,1-.994-2.194V162.886a24.311,24.311,0,0,1,31.8.67l-3.238,6.337V164.95a.461.461,0,0,0-.467-.46.426.426,0,0,0-.292.117l-10.759,7.871c-.044.039-.094.069-.141.1v.785a15.506,15.506,0,0,0-2.784.44v-1.225c-.047-.036-.1-.065-.141-.1L910.2,164.606a.426.426,0,0,0-.292-.117.461.461,0,0,0-.467.46v23.876a.456.456,0,0,0,.155.343l.334.293.862.735a8.339,8.339,0,0,0,3.793,3.233l2.671,2.275,3.844,3.175v-4.6a15.989,15.989,0,0,0,2.784-.591v5.19l11.5-9.71a.456.456,0,0,0,.155-.343Zm-23.8-19.126c.027.022.059.039.086.063l10.665,7.8,10.665-7.8c.027-.023.058-.04.086-.062a21.729,21.729,0,0,0-21.5,0Z" transform="translate(-898.134 -157.292)" fill="#aaf"/>
</svg>
