<svg xmlns="http://www.w3.org/2000/svg" width="41.162" height="36.271" viewBox="0 0 41.162 36.271">
  <path id="_04" data-name="04" d="M48.662,18.711a1.2,1.2,0,0,1-1.211,1.211H38.977V28.4a1.2,1.2,0,0,1-1.211,1.211H29.292v8.475a1.2,1.2,0,0,1-1.211,1.211H19.607v8.475A1.2,1.2,0,0,1,18.4,48.977H8.711a1.211,1.211,0,1,1,0-2.421h8.475V38.081A1.2,1.2,0,0,1,18.4,36.87H26.87V28.4a1.2,1.2,0,0,1,1.211-1.211h8.475V18.711A1.2,1.2,0,0,1,37.766,17.5h9.685A1.2,1.2,0,0,1,48.662,18.711Zm-.048,19.031c0-.048,0-.1-.048-.1a.169.169,0,0,0-.048-.1c0-.048-.048-.048-.048-.1a1.131,1.131,0,0,0-.339-.339c-.048,0-.048-.048-.1-.048a.169.169,0,0,1-.1-.048c-.048,0-.1-.048-.145-.048s-.048,0-.1-.048H37.766a1.211,1.211,0,1,0,0,2.421h6.78l-12.494,12.4A1.216,1.216,0,0,0,33.8,53.432L46.241,40.987v6.78a1.211,1.211,0,0,0,2.421,0V37.839C48.614,37.791,48.614,37.791,48.614,37.742Z" transform="translate(-7.5 -17.5)" fill="#aaf"/>
</svg>
