<svg xmlns="http://www.w3.org/2000/svg" width="49.758" height="49.758" viewBox="0 0 49.758 49.758">
  <path id="_03" data-name="03" d="M48.929,42.294H45.611V40.636a.832.832,0,0,0-.829-.829H42.294a.832.832,0,0,0-.829.829v.829H39.317A19.057,19.057,0,0,0,18.991,10.889c.871-2.33,2.455-5.689,4.694-5.913h2.853a.829.829,0,0,0,0-1.659h-3.5C22.134,1.136,17.681,0,13.269,0S4.4,1.136,3.491,3.317H.829a.829.829,0,0,0,0,1.659h2.4c4.412.44,5.722,9.031,6.1,13.028A19.063,19.063,0,0,0,24.879,48.1c.249,0,.489-.008.738-.017.033,0,.058.017.091.017H41.465v.829a.832.832,0,0,0,.829.829h2.488a.832.832,0,0,0,.829-.829V47.27h3.317a.832.832,0,0,0,.829-.829V43.123A.832.832,0,0,0,48.929,42.294ZM13.269,1.659c3.707,0,6.485.829,7.663,1.659H5.606C6.784,2.488,9.562,1.659,13.269,1.659Zm-2.48,14.513c-.489-3.881-1.6-8.7-4.08-11.2H20.417a18.567,18.567,0,0,0-3.458,6.692.99.99,0,0,1-.133.066q-.709.336-1.393.721c-.1.058-.2.116-.307.174-.44.265-.871.547-1.285.846-.1.075-.2.141-.3.216-.406.307-.8.63-1.186.962-.091.083-.191.158-.282.24-.381.348-.755.713-1.1,1.095ZM7.464,29.025a17.347,17.347,0,0,1,5.084-12.282l.075-.075c.365-.365.746-.7,1.136-1.037.025-.025.05-.041.075-.066.415-.34.846-.663,1.294-.962.025-.017.058-.033.083-.05.406-.274.829-.531,1.261-.763.066-.033.133-.075.2-.108a17.254,17.254,0,0,1,8.21-2.073,17.4,17.4,0,0,1,9.852,31.754l-.24.166c-.423.282-.846.547-1.294.788-.041.025-.083.041-.124.066-.406.216-.821.415-1.252.605-.1.041-.207.091-.307.133q-.7.286-1.418.522l-.166.05A17.421,17.421,0,0,1,7.464,29.025ZM32.658,46.441c.058-.025.116-.058.182-.091.381-.174.763-.357,1.128-.564a1.67,1.67,0,0,1,.207-.116c.323-.182.63-.365.937-.564.108-.066.216-.133.323-.207q.5-.336.97-.7c.116-.091.232-.182.34-.265.282-.224.547-.448.813-.688.05-.041.108-.083.158-.133h3.748v3.317H32.658Zm11.3,1.659h-.829V41.465h.829V48.1ZM48.1,45.611H45.611V43.953H48.1ZM40.636,29.025A15.7,15.7,0,0,0,36.29,18.186a.181.181,0,0,0-.025-.041c-.025-.025-.058-.05-.083-.075-.265-.274-.547-.531-.829-.788-.116-.1-.224-.207-.34-.307-.24-.2-.5-.39-.746-.581-.174-.133-.348-.274-.531-.4-.158-.108-.332-.207-.489-.307-.282-.182-.564-.365-.854-.522a.008.008,0,0,1-.008-.008,15.794,15.794,0,0,0-15,.008.008.008,0,0,0-.008.008c-.29.158-.572.34-.854.522-.166.1-.332.2-.489.307-.182.124-.357.265-.531.4-.249.191-.506.373-.746.581-.116.1-.224.207-.34.307-.282.257-.564.514-.829.788-.025.025-.058.05-.083.075-.008.008-.017.033-.025.041A15.744,15.744,0,1,0,40.636,29.025ZM23.461,43.049c-.158-.017-.307-.05-.456-.066-.307-.041-.614-.083-.912-.141-.182-.033-.357-.091-.539-.133-.265-.066-.531-.124-.8-.207-.191-.058-.373-.133-.556-.2-.24-.083-.481-.166-.721-.265-.182-.075-.365-.166-.547-.257-.224-.108-.448-.207-.663-.323-.182-.1-.357-.207-.531-.307-.207-.124-.415-.24-.614-.373-.174-.116-.34-.24-.506-.365-.191-.141-.381-.274-.572-.423-.166-.133-.315-.274-.473-.406-.174-.158-.348-.307-.522-.473-.149-.149-.29-.3-.44-.456s-.315-.34-.473-.514c-.141-.158-.265-.332-.4-.5-.141-.182-.282-.365-.415-.556-.124-.174-.24-.357-.348-.531-.124-.2-.249-.39-.365-.6-.108-.182-.207-.373-.3-.564-.108-.207-.207-.415-.307-.63q-.137-.3-.249-.6c-.083-.216-.166-.44-.24-.663-.066-.207-.133-.415-.191-.622-.066-.224-.124-.456-.174-.688-.05-.216-.091-.431-.133-.647-.041-.24-.075-.473-.108-.713-.025-.224-.05-.44-.075-.663-.008-.1-.008-.207-.017-.315h4.934v6.634a.856.856,0,0,0,.24.589l.829.829a.856.856,0,0,0,.589.24h1.659a.856.856,0,0,0,.589-.24l.829-.829a.856.856,0,0,0,.24-.589V29.855h1.659v6.634a.856.856,0,0,0,.24.589l.829.829a.856.856,0,0,0,.589.24h1.659a.856.856,0,0,0,.589-.24l.829-.829a.856.856,0,0,0,.24-.589V29.855h1.659v6.634a.856.856,0,0,0,.24.589l.829.829a.856.856,0,0,0,.589.24h1.659a.856.856,0,0,0,.589-.24l.829-.829a.856.856,0,0,0,.24-.589V29.855h4.934c-.008.108-.008.207-.017.315-.017.224-.041.448-.075.663-.033.24-.066.481-.108.713-.041.216-.083.431-.133.647-.05.232-.116.464-.174.688-.058.207-.124.423-.191.622-.075.224-.158.44-.24.663-.083.2-.158.4-.249.6-.1.216-.2.423-.307.63-.1.191-.2.381-.3.564-.116.2-.24.4-.365.6-.116.182-.232.357-.348.531-.133.191-.274.373-.415.556-.133.166-.257.332-.4.5s-.307.348-.473.514c-.141.149-.29.307-.44.456-.166.166-.34.315-.522.473-.158.141-.315.282-.473.406-.182.149-.381.29-.572.423-.166.124-.332.249-.506.365-.2.133-.406.249-.614.373-.174.108-.348.216-.531.307-.216.116-.44.216-.663.323-.182.083-.365.174-.547.257-.232.1-.481.182-.721.265-.182.066-.365.141-.556.2-.257.083-.531.141-.8.207-.182.041-.357.1-.539.133-.3.058-.605.1-.912.141-.158.017-.307.05-.456.066a13.509,13.509,0,0,1-2.836,0Zm-7.273-25.1c.274-.216.556-.431.846-.63s.572-.357.871-.531c.091-.05.182-.116.274-.166.373-.2.755-.39,1.153-.556.025-.008.041-.025.066-.033a13.117,13.117,0,0,1,1.244-.456c.017-.008.033-.008.05-.017.4-.124.813-.224,1.227-.315.041-.008.083-.025.133-.033.381-.075.78-.133,1.178-.182.075-.008.149-.025.224-.033.473-.041.945-.066,1.426-.066A13.577,13.577,0,0,1,26.305,15c.075.008.149.025.224.033.4.05.788.1,1.178.182.041.008.091.025.133.033.415.091.821.191,1.227.315.017.008.033.008.05.017a13.116,13.116,0,0,1,1.244.456c.025.008.041.025.066.033.39.166.78.357,1.153.556.091.05.182.108.274.166.29.166.589.34.871.531s.572.415.846.63c.075.058.149.108.216.166.357.29.7.605,1.028.929a2.846,2.846,0,0,1-2.828,2.513H17.772a2.852,2.852,0,0,1-2.828-2.521,13.5,13.5,0,0,1,1.028-.929C16.047,18.054,16.122,18,16.188,17.946Zm2.886,11.079v4.146H17.415V23.22h1.659ZM17.415,35.17l.34-.34h.97l.348.34v.97l-.34.348h-.97l-.348-.34Zm3.317-11.95h1.659V28.2H20.732Zm4.976,5.805v4.146H24.05V23.22h1.659ZM24.05,35.17l.34-.34h.97l.348.34v.97l-.34.348H24.4l-.348-.34Zm3.317-11.95h1.659V28.2H27.367Zm4.976,0v9.952H30.684V23.22h1.659ZM30.684,35.17l.34-.34h.97l.348.34v.97l-.34.348h-.97l-.348-.34ZM34,22.739a4.573,4.573,0,0,0,2.106-2.206A14,14,0,0,1,38.935,28.2H34Zm-18.245,0V28.2H10.822a14,14,0,0,1,2.828-7.663A4.573,4.573,0,0,0,15.757,22.739Z" fill="#aaf"/>
</svg>
