<svg id="rank-Kids-Dance" xmlns="http://www.w3.org/2000/svg" width="56.573" height="54" viewBox="0 0 56.573 54">
  <path id="star" d="M32.23,48.891a11.153,11.153,0,0,0-7.889,0L13.523,53.658c-2.179.96-3.751-.175-3.51-2.551L11.2,39.345a11.154,11.154,0,0,0-2.438-7.5L.888,23.027C-.7,21.252-.1,19.406,2.229,18.9l11.555-2.5a11.151,11.151,0,0,0,6.383-4.637l5.95-10.216c1.2-2.057,3.138-2.063,4.339,0l5.95,10.216A11.152,11.152,0,0,0,42.789,16.4l11.555,2.5c2.327.5,2.931,2.347,1.341,4.127l-7.878,8.816a11.151,11.151,0,0,0-2.438,7.5l1.191,11.762c.24,2.368-1.326,3.513-3.51,2.551Z" transform="translate(0 0)" fill="#f93"/>
  <text id="A" transform="translate(28.287 37)" fill="#fff" font-size="20" font-family="SegoeUI, Segoe UI"><tspan x="-6.45" y="0">A</tspan></text>
</svg>
