<svg id="rank-Kids-Dance" xmlns="http://www.w3.org/2000/svg" width="44.001" height="42" viewBox="0 0 44.001 42">
  <path id="star" d="M25.068,38.026a8.675,8.675,0,0,0-6.136,0l-8.414,3.708c-1.694.746-2.917-.136-2.73-1.984L8.714,30.6a8.675,8.675,0,0,0-1.9-5.836L.69,17.91c-1.234-1.38-.772-2.817,1.043-3.21l8.987-1.946a8.673,8.673,0,0,0,4.964-3.607L20.313,1.2c.932-1.6,2.44-1.6,3.375,0l4.628,7.945a8.674,8.674,0,0,0,4.964,3.607L42.267,14.7c1.81.392,2.28,1.825,1.043,3.21l-6.128,6.857a8.673,8.673,0,0,0-1.9,5.836l.926,9.148c.187,1.842-1.031,2.732-2.73,1.984Z" transform="translate(0 0)" fill="#2bb"/>
  <text id="C" transform="translate(22.001 27.667)" fill="#fff" font-size="16" font-family="SegoeUI, Segoe UI"><tspan x="-4.953" y="0">C</tspan></text>
</svg>
