<svg id="rank-Kids-Dance" xmlns="http://www.w3.org/2000/svg" width="50.287" height="48" viewBox="0 0 50.287 48">
  <path id="star" d="M28.649,43.459a9.914,9.914,0,0,0-7.012,0L12.02,47.7c-1.937.853-3.334-.156-3.12-2.267L9.958,34.974A9.915,9.915,0,0,0,7.791,28.3l-7-7.836c-1.41-1.578-.882-3.219,1.192-3.668l10.271-2.224a9.912,9.912,0,0,0,5.674-4.122l5.289-9.081C24.28-.455,26-.46,27.072,1.373l5.289,9.081a9.913,9.913,0,0,0,5.674,4.122L48.305,16.8c2.068.448,2.606,2.086,1.192,3.668l-7,7.837a9.912,9.912,0,0,0-2.167,6.67L41.386,45.43c.213,2.105-1.179,3.123-3.12,2.267Z" transform="translate(0 0)" fill="#2ad"/>
  <text id="B" transform="translate(25.144 33.5)" fill="#fff" font-size="18" font-family="SegoeUI, Segoe UI"><tspan x="-5.159" y="0">B</tspan></text>
</svg>
