<svg id="rank-Kids-Dance" xmlns="http://www.w3.org/2000/svg" width="62.859" height="60" viewBox="0 0 62.859 60">
  <path id="star" d="M35.811,54.323a12.393,12.393,0,0,0-8.766,0l-12.02,5.3c-2.421,1.066-4.168-.195-3.9-2.834l1.323-13.069A12.393,12.393,0,0,0,9.739,35.38L.986,25.586C-.776,23.614-.117,21.562,2.476,21L15.315,18.22a12.39,12.39,0,0,0,7.092-5.153L29.018,1.717c1.331-2.286,3.486-2.292,4.821,0l6.612,11.351a12.391,12.391,0,0,0,7.092,5.153L60.382,21c2.585.559,3.257,2.607,1.49,4.585l-8.754,9.8a12.39,12.39,0,0,0-2.709,8.337l1.323,13.069c.267,2.631-1.473,3.9-3.9,2.834Z" transform="translate(0 0)" fill="#f66"/>
  <text id="S" transform="translate(31 43)" fill="#fff" font-size="24" font-family="SegoeUI, Segoe UI"><tspan x="-6.375" y="0">S</tspan></text>
</svg>
