<svg id="rank" xmlns="http://www.w3.org/2000/svg" width="37.715" height="36" viewBox="0 0 37.715 36">
  <path id="star" d="M21.486,32.594a7.436,7.436,0,0,0-5.259,0L9.015,35.772c-1.452.64-2.5-.117-2.34-1.7l.794-7.841a7.436,7.436,0,0,0-1.625-5L.592,15.351c-1.057-1.183-.662-2.414.894-2.751l7.7-1.668A7.434,7.434,0,0,0,13.444,7.84l3.967-6.81c.8-1.371,2.092-1.375,2.893,0l3.967,6.81a7.434,7.434,0,0,0,4.255,3.092l7.7,1.668c1.551.336,1.954,1.564.894,2.751l-5.252,5.878a7.434,7.434,0,0,0-1.625,5l.794,7.841c.16,1.579-.884,2.342-2.34,1.7Z" transform="translate(0 0)" fill="#aaa"/>
  <text id="D" transform="translate(18.858 22.998)" fill="#fff" font-size="12" font-family="SegoeUI, Segoe UI"><tspan x="-4.207" y="0">D</tspan></text>
</svg>
