<svg xmlns="http://www.w3.org/2000/svg" width="18.931" height="14.362" viewBox="0 0 18.931 14.362">
  <g id="retweet" transform="translate(-901.524 -448.666)">
    <g id="Group_153921" data-name="Group 153921">
      <path id="Path_169817" data-name="Path 169817" d="M902.128,452.324a.6.6,0,0,1-.436-1.022l2.353-2.452a.622.622,0,0,1,.871,0l2.354,2.452a.6.6,0,1,1-.871.837l-1.918-2-1.918,2A.6.6,0,0,1,902.128,452.324Z" fill="#9e9d9d"/>
      <path id="Path_169818" data-name="Path 169818" d="M912.245,463.028h-5.428a2.943,2.943,0,0,1-2.94-2.94V450.25a.6.6,0,0,1,1.208,0v9.838a1.736,1.736,0,0,0,1.732,1.734h5.428a.6.6,0,1,1,0,1.206Z" fill="#9e9d9d"/>
    </g>
    <g id="Group_153922" data-name="Group 153922">
      <path id="Path_169819" data-name="Path 169819" d="M917.5,463.028h0a.6.6,0,0,1-.435-.185l-2.353-2.451a.6.6,0,1,1,.871-.838l1.917,2,1.919-2a.6.6,0,1,1,.871.838l-2.354,2.451A.6.6,0,0,1,917.5,463.028Z" fill="#9e9d9d"/>
      <path id="Path_169820" data-name="Path 169820" d="M917.5,462.047a.6.6,0,0,1-.6-.6v-9.839a1.735,1.735,0,0,0-1.732-1.733h-5.428a.6.6,0,1,1,0-1.206h5.428a2.943,2.943,0,0,1,2.94,2.939v9.839A.6.6,0,0,1,917.5,462.047Z" fill="#9e9d9d"/>
    </g>
  </g>
</svg>
