<svg xmlns="http://www.w3.org/2000/svg" width="285" height="294" viewBox="0 0 285 294">
  <g id="Group_196550" data-name="Group 196550" transform="translate(-16138 9643)">
    <rect id="Rectangle_22" data-name="Rectangle 22" width="35" height="35" transform="translate(16138 -9603)" fill="#eee"/>
    <rect id="Rectangle_23" data-name="Rectangle 23" width="35" height="35" transform="translate(16180 -9603)" fill="#eee"/>
    <rect id="Rectangle_24" data-name="Rectangle 24" width="35" height="35" transform="translate(16221 -9603)" fill="#eee"/>
    <rect id="Rectangle_25" data-name="Rectangle 25" width="35" height="35" transform="translate(16263 -9603)" fill="#eee"/>
    <rect id="Rectangle_26" data-name="Rectangle 26" width="35" height="35" transform="translate(16305 -9603)" fill="#eee"/>
    <rect id="Rectangle_27" data-name="Rectangle 27" width="35" height="35" transform="translate(16346 -9603)" fill="#eee"/>
    <rect id="Rectangle_28" data-name="Rectangle 28" width="35" height="35" transform="translate(16388 -9603)" fill="#eee"/>
    <rect id="Rectangle_29" data-name="Rectangle 29" width="35" height="35" transform="translate(16138 -9563)" fill="#eee"/>
    <rect id="Rectangle_30" data-name="Rectangle 30" width="35" height="35" transform="translate(16180 -9563)" fill="#eee"/>
    <rect id="Rectangle_31" data-name="Rectangle 31" width="35" height="35" transform="translate(16221 -9563)" fill="#eee"/>
    <rect id="Rectangle_32" data-name="Rectangle 32" width="35" height="35" transform="translate(16263 -9563)" fill="#faf7e3"/>
    <rect id="Rectangle_33" data-name="Rectangle 33" width="35" height="35" transform="translate(16305 -9563)" fill="#eee"/>
    <rect id="Rectangle_34" data-name="Rectangle 34" width="35" height="35" transform="translate(16346 -9563)" fill="#eee"/>
    <rect id="Rectangle_35" data-name="Rectangle 35" width="35" height="35" transform="translate(16388 -9563)" fill="#eee"/>
    <text id="月" transform="translate(16156 -9580)" fill="#222" font-size="14" font-family="YuGothicUI-Regular, Yu Gothic UI" letter-spacing="0.1em"><tspan x="-7" y="0">月</tspan></text>
    <text id="火" transform="translate(16198 -9580)" fill="#222" font-size="14" font-family="YuGothicUI-Regular, Yu Gothic UI" letter-spacing="0.1em"><tspan x="-7" y="0">火</tspan></text>
    <text id="水" transform="translate(16239 -9580)" fill="#222" font-size="14" font-family="YuGothicUI-Regular, Yu Gothic UI" letter-spacing="0.1em"><tspan x="-7" y="0">水</tspan></text>
    <text id="木" transform="translate(16282 -9580)" fill="#222" font-size="14" font-family="YuGothicUI-Regular, Yu Gothic UI" letter-spacing="0.1em"><tspan x="-7" y="0">木</tspan></text>
    <text id="金" transform="translate(16322 -9580)" fill="#222" font-size="14" font-family="YuGothicUI-Regular, Yu Gothic UI" letter-spacing="0.1em"><tspan x="-7" y="0">金</tspan></text>
    <text id="土" transform="translate(16364 -9580)" fill="#94ccde" font-size="14" font-family="YuGothicUI-Regular, Yu Gothic UI" letter-spacing="0.1em"><tspan x="-7" y="0">土</tspan></text>
    <text id="月-2" data-name="月" transform="translate(16406 -9580)" fill="#eaa" font-size="14" font-family="YuGothicUI-Regular, Yu Gothic UI" letter-spacing="0.1em"><tspan x="-7" y="0">月</tspan></text>
    <text id="_1" data-name="1" transform="translate(16156 -9540)" fill="#222" font-size="14" font-family="SegoeUI, Segoe UI"><tspan x="-3.773" y="0">1</tspan></text>
    <text id="_2" data-name="2" transform="translate(16197 -9540)" fill="#222" font-size="14" font-family="SegoeUI, Segoe UI"><tspan x="-3.773" y="0">2</tspan></text>
    <text id="_3" data-name="3" transform="translate(16239 -9540)" fill="#222" font-size="14" font-family="SegoeUI, Segoe UI"><tspan x="-3.773" y="0">3</tspan></text>
    <text id="_4" data-name="4" transform="translate(16280 -9540)" fill="#222" font-size="14" font-family="SegoeUI, Segoe UI"><tspan x="-3.773" y="0">4</tspan></text>
    <text id="_5" data-name="5" transform="translate(16322 -9540)" fill="#222" font-size="14" font-family="SegoeUI, Segoe UI"><tspan x="-3.773" y="0">5</tspan></text>
    <text id="_6" data-name="6" transform="translate(16363 -9540)" fill="#94ccde" font-size="14" font-family="SegoeUI, Segoe UI"><tspan x="-3.773" y="0">6</tspan></text>
    <text id="_7" data-name="7" transform="translate(16405 -9540)" fill="#e6a8a9" font-size="14" font-family="SegoeUI, Segoe UI"><tspan x="-3.773" y="0">7</tspan></text>
    <rect id="Rectangle_36" data-name="Rectangle 36" width="35" height="35" transform="translate(16138 -9523)" fill="#eee"/>
    <rect id="Rectangle_37" data-name="Rectangle 37" width="35" height="35" transform="translate(16180 -9523)" fill="#eee"/>
    <rect id="Rectangle_38" data-name="Rectangle 38" width="35" height="35" transform="translate(16221 -9523)" fill="#eee"/>
    <rect id="Rectangle_39" data-name="Rectangle 39" width="35" height="35" transform="translate(16263 -9523)" fill="#eee"/>
    <rect id="Rectangle_40" data-name="Rectangle 40" width="35" height="35" transform="translate(16305 -9523)" fill="#eee"/>
    <rect id="Rectangle_41" data-name="Rectangle 41" width="35" height="35" transform="translate(16346 -9523)" fill="#eee"/>
    <rect id="Rectangle_42" data-name="Rectangle 42" width="35" height="35" transform="translate(16388 -9523)" fill="#eee"/>
    <text id="_8" data-name="8" transform="translate(16156 -9500)" fill="#222" font-size="14" font-family="SegoeUI, Segoe UI"><tspan x="-3.773" y="0">8</tspan></text>
    <text id="_9" data-name="9" transform="translate(16197 -9500)" fill="#222" font-size="14" font-family="SegoeUI, Segoe UI"><tspan x="-3.773" y="0">9</tspan></text>
    <text id="_10" data-name="10" transform="translate(16239 -9500)" fill="#222" font-size="14" font-family="SegoeUI, Segoe UI"><tspan x="-7.547" y="0">10</tspan></text>
    <text id="_11" data-name="11" transform="translate(16280 -9500)" fill="#222" font-size="14" font-family="SegoeUI, Segoe UI"><tspan x="-7.547" y="0">11</tspan></text>
    <text id="_12" data-name="12" transform="translate(16322 -9500)" fill="#222" font-size="14" font-family="SegoeUI, Segoe UI"><tspan x="-7.547" y="0">12</tspan></text>
    <text id="_13" data-name="13" transform="translate(16363 -9500)" fill="#94ccde" font-size="14" font-family="SegoeUI, Segoe UI"><tspan x="-7.547" y="0">13</tspan></text>
    <text id="_14" data-name="14" transform="translate(16405 -9500)" fill="#e6a8a9" font-size="14" font-family="SegoeUI, Segoe UI"><tspan x="-7.547" y="0">14</tspan></text>
    <rect id="Rectangle_43" data-name="Rectangle 43" width="35" height="35" transform="translate(16138 -9483)" fill="#eee"/>
    <rect id="Rectangle_44" data-name="Rectangle 44" width="35" height="35" transform="translate(16180 -9483)" fill="#eee"/>
    <rect id="Rectangle_45" data-name="Rectangle 45" width="35" height="35" transform="translate(16221 -9483)" fill="#eee"/>
    <rect id="Rectangle_46" data-name="Rectangle 46" width="35" height="35" transform="translate(16263 -9483)" fill="#faf7e3"/>
    <rect id="Rectangle_47" data-name="Rectangle 47" width="35" height="35" transform="translate(16305 -9483)" fill="#eee"/>
    <rect id="Rectangle_48" data-name="Rectangle 48" width="35" height="35" transform="translate(16346 -9483)" fill="#eee"/>
    <rect id="Rectangle_49" data-name="Rectangle 49" width="35" height="35" transform="translate(16388 -9483)" fill="#eee"/>
    <text id="_15" data-name="15" transform="translate(16156 -9460)" fill="#222" font-size="14" font-family="SegoeUI, Segoe UI"><tspan x="-7.547" y="0">15</tspan></text>
    <text id="_16" data-name="16" transform="translate(16197 -9460)" fill="#222" font-size="14" font-family="SegoeUI, Segoe UI"><tspan x="-7.547" y="0">16</tspan></text>
    <text id="_17" data-name="17" transform="translate(16239 -9460)" fill="#222" font-size="14" font-family="SegoeUI, Segoe UI"><tspan x="-7.547" y="0">17</tspan></text>
    <text id="_18" data-name="18" transform="translate(16280 -9460)" fill="#222" font-size="14" font-family="SegoeUI, Segoe UI"><tspan x="-7.547" y="0">18</tspan></text>
    <text id="_19" data-name="19" transform="translate(16322 -9460)" fill="#222" font-size="14" font-family="SegoeUI, Segoe UI"><tspan x="-7.547" y="0">19</tspan></text>
    <text id="_20" data-name="20" transform="translate(16363 -9460)" fill="#94ccde" font-size="14" font-family="SegoeUI, Segoe UI"><tspan x="-7.547" y="0">20</tspan></text>
    <text id="_21" data-name="21" transform="translate(16405 -9460)" fill="#e6a8a9" font-size="14" font-family="SegoeUI, Segoe UI"><tspan x="-7.547" y="0">21</tspan></text>
    <rect id="Rectangle_50" data-name="Rectangle 50" width="35" height="35" transform="translate(16138 -9443)" fill="#eee"/>
    <rect id="Rectangle_51" data-name="Rectangle 51" width="35" height="35" transform="translate(16180 -9443)" fill="#eee"/>
    <rect id="Rectangle_52" data-name="Rectangle 52" width="35" height="35" transform="translate(16221 -9443)" fill="#eee"/>
    <rect id="Rectangle_53" data-name="Rectangle 53" width="35" height="35" transform="translate(16263 -9443)" fill="#eee"/>
    <rect id="Rectangle_54" data-name="Rectangle 54" width="35" height="35" transform="translate(16305 -9443)" fill="#faf7e3"/>
    <rect id="Rectangle_55" data-name="Rectangle 55" width="35" height="35" transform="translate(16346 -9443)" fill="#eee"/>
    <rect id="Rectangle_56" data-name="Rectangle 56" width="35" height="35" transform="translate(16388 -9443)" fill="#eee"/>
    <text id="_22" data-name="22" transform="translate(16156 -9420)" fill="#222" font-size="14" font-family="SegoeUI, Segoe UI"><tspan x="-7.547" y="0">22</tspan></text>
    <text id="_23" data-name="23" transform="translate(16197 -9420)" fill="#222" font-size="14" font-family="SegoeUI, Segoe UI"><tspan x="-7.547" y="0">23</tspan></text>
    <text id="_24" data-name="24" transform="translate(16239 -9420)" fill="#222" font-size="14" font-family="SegoeUI, Segoe UI"><tspan x="-7.547" y="0">24</tspan></text>
    <text id="_25" data-name="25" transform="translate(16280 -9420)" fill="#222" font-size="14" font-family="SegoeUI, Segoe UI"><tspan x="-7.547" y="0">25</tspan></text>
    <text id="_26" data-name="26" transform="translate(16322 -9420)" fill="#222" font-size="14" font-family="SegoeUI, Segoe UI"><tspan x="-7.547" y="0">26</tspan></text>
    <text id="_27" data-name="27" transform="translate(16363 -9420)" fill="#94ccde" font-size="14" font-family="SegoeUI, Segoe UI"><tspan x="-7.547" y="0">27</tspan></text>
    <text id="_28" data-name="28" transform="translate(16405 -9420)" fill="#e6a8a9" font-size="14" font-family="SegoeUI, Segoe UI"><tspan x="-7.547" y="0">28</tspan></text>
    <rect id="Rectangle_57" data-name="Rectangle 57" width="35" height="35" transform="translate(16138 -9403)" fill="#eee"/>
    <rect id="Rectangle_58" data-name="Rectangle 58" width="35" height="35" transform="translate(16180 -9403)" fill="#eee"/>
    <rect id="Rectangle_59" data-name="Rectangle 59" width="35" height="35" transform="translate(16221 -9403)" fill="#eee"/>
    <rect id="Rectangle_60" data-name="Rectangle 60" width="35" height="35" transform="translate(16263 -9403)" fill="#eee"/>
    <rect id="Rectangle_61" data-name="Rectangle 61" width="35" height="35" transform="translate(16305 -9403)" fill="#eee"/>
    <rect id="Rectangle_62" data-name="Rectangle 62" width="35" height="35" transform="translate(16346 -9403)" fill="#eee"/>
    <rect id="Rectangle_63" data-name="Rectangle 63" width="35" height="35" transform="translate(16388 -9403)" fill="#eee"/>
    <text id="_29" data-name="29" transform="translate(16156 -9380)" fill="#222" font-size="14" font-family="SegoeUI, Segoe UI"><tspan x="-7.547" y="0">29</tspan></text>
    <text id="_30" data-name="30" transform="translate(16197 -9380)" fill="#222" font-size="14" font-family="SegoeUI, Segoe UI"><tspan x="-7.547" y="0">30</tspan></text>
    <text id="_31" data-name="31" transform="translate(16239 -9380)" fill="#222" font-size="14" font-family="SegoeUI, Segoe UI"><tspan x="-7.547" y="0">31</tspan></text>
    <g id="_" data-name="○" transform="translate(16258 -9568)" fill="none" stroke="#99e" stroke-width="5">
      <circle cx="22.5" cy="22.5" r="22.5" stroke="none"/>
      <circle cx="22.5" cy="22.5" r="20" fill="none"/>
    </g>
    <g id="_2-2" data-name="○" transform="translate(16258 -9488)" fill="none" stroke="#aaaafd" stroke-width="5" opacity="0.503">
      <circle cx="22.5" cy="22.5" r="22.5" stroke="none"/>
      <circle cx="22.5" cy="22.5" r="20" fill="none"/>
    </g>
    <g id="_3-2" data-name="○" transform="translate(16300 -9448)" fill="none" stroke="#99e" stroke-width="5">
      <circle cx="22.5" cy="22.5" r="22.5" stroke="none"/>
      <circle cx="22.5" cy="22.5" r="20" fill="none"/>
    </g>
    <g id="bubble" transform="translate(16231 -9394.993)">
      <rect id="Rectangle_65" data-name="Rectangle 65" width="184" height="39" transform="translate(0 6.993)" fill="#aaf"/>
      <text id="無料で別日に振替補講_" data-name="無料で別日に振替補講！" transform="translate(93 32.993)" fill="#fff" font-size="14" font-family="Mamelon-5-Hi-Regular, 'Mamelon \35  Hi'" letter-spacing="-0.05em"><tspan x="-73.5" y="0">無料で別日に振替補講！</tspan></text>
      <path id="Path_11" data-name="Path 11" d="M7.556,0,0,7.556H15.111Z" transform="translate(84.153)" fill="#aaf"/>
    </g>
    <g id="arrow" transform="translate(16322.324 -9488.476) rotate(71)" fill="#aaf">
      <path d="M 0.8137864470481873 35.66856002807617 L -0.9805535674095154 34.89115142822266 C -0.3462535440921783 31.72191047668457 0.5866564512252808 28.74847030639648 1.792256474494934 26.05344200134277 C 3.139566421508789 23.04165077209473 4.841006278991699 20.35063171386719 6.84934663772583 18.05513191223145 C 11.32847785949707 12.9355411529541 17.34030723571777 9.724025726318359 24.72823715209961 8.501448631286621 L 24.72823715209961 1.171875055661076e-06 L 24.72823715209961 -2.414208889007568 L 26.43534660339355 -0.7071088552474976 L 42.80862808227539 15.66617107391357 L 43.51572799682617 16.37328147888184 L 42.80862808227539 17.08039093017578 L 26.43534660339355 33.45367050170898 L 24.72823715209961 35.16077041625977 L 24.72823715209961 32.74656295776367 L 24.72823715209961 24.16541862487793 C 13.87421894073486 24.37562561035156 6.257275104522705 28.04611015319824 0.8137864470481873 35.66856002807617 Z" stroke="none"/>
      <path d="M 25.72823715209961 0 L 25.72823715209961 9.359161376953125 C 9.354957580566406 11.69580078125 2.340847015380859 23.3916015625 -3.814697265625e-06 35.08740234375 C 5.847896575927734 26.89866256713867 14.03243637084961 23.15583038330078 25.72823715209961 23.15583038330078 L 25.72823715209961 32.74656295776367 L 42.10151672363281 16.37328147888184 L 25.72823715209961 0 M 23.72823715209961 -4.82843017578125 L 44.92994689941406 16.37328147888184 L 23.72823715209961 37.57498931884766 L 23.72823715209961 25.19602012634277 C 13.75613403320312 25.60493469238281 6.700153350830078 29.14664459228516 1.627574920654297 36.24972152709961 L -1.961112976074219 34.69490051269531 C -1.312213897705078 31.4527702331543 -0.3565254211425781 28.40798187255859 0.8794364929199219 25.64510154724121 C 2.267425537109375 22.5423412322998 4.022777557373047 19.76716232299805 6.096725463867188 17.39667129516602 C 10.56209182739258 12.29282569885254 16.4874324798584 9.023218154907227 23.72823715209961 7.662601470947266 L 23.72823715209961 -4.82843017578125 Z" stroke="none" fill="#fff"/>
    </g>
    <g id="title" transform="translate(16138 -9643)">
      <g id="Rectangle_64" data-name="Rectangle 64" transform="translate(0)" fill="#fff" stroke="#ddd" stroke-width="1">
        <rect width="285" height="35" stroke="none"/>
        <rect x="0.5" y="0.5" width="284" height="34" fill="none"/>
      </g>
      <text id="LESSON_SCHEDULE" data-name="LESSON SCHEDULE" transform="translate(145 22)" fill="#222" font-size="12" font-family="SegoeUI, Segoe UI" letter-spacing="0.3em"><tspan x="-76.475" y="0">LESSON SCHEDULE</tspan></text>
    </g>
  </g>
</svg>
