<svg xmlns="http://www.w3.org/2000/svg" width="119" height="117.697" viewBox="0 0 119 117.697">
  <g id="Group_291" data-name="Group 291" transform="translate(0 3.449)">
    <g id="_" data-name="○" transform="translate(0 5.248)" fill="#fff" stroke="#b96" stroke-width="5" opacity="0.503">
      <circle cx="24" cy="24" r="24" stroke="none"/>
      <circle cx="24" cy="24" r="21.5" fill="none"/>
    </g>
    <g id="_2" data-name="○" transform="translate(44 39.248)" fill="#fff" stroke="#b96" stroke-width="5">
      <circle cx="37.5" cy="37.5" r="37.5" stroke="none"/>
      <circle cx="37.5" cy="37.5" r="35" fill="none"/>
    </g>
    <g id="arrow" transform="translate(80.357 0) rotate(71)" fill="#b96">
      <path d="M 0.8232225179672241 50.31467437744141 L -0.97895747423172 49.54292297363281 C -0.05867750197649002 45.12732315063477 1.250752449035645 40.97725296020508 2.912962436676025 37.20797348022461 C 4.767662525177002 33.00221252441406 7.0804123878479 29.2326545715332 9.786982536315918 26.00401496887207 C 15.89213752746582 18.72122764587402 24.0218334197998 14.09681510925293 33.96202850341797 12.25032234191895 L 34.18962097167969 -0.01854587905108929 L 34.23480224609375 -2.453805923461914 L 35.91387176513672 -0.6893558502197266 L 57.3039436340332 21.78830337524414 L 57.96055221557617 22.47830390930176 L 57.30330276489258 23.16769409179688 L 35.06351089477539 46.49506378173828 L 33.29229354858398 48.3529052734375 L 33.33990097045898 45.78648376464844 L 33.56935501098633 33.41788482666016 C 18.82930564880371 33.93594741821289 8.404041290283203 39.32225036621094 0.8232225179672241 50.31467437744141 Z" stroke="none"/>
      <path d="M 35.189453125 -7.62939453125e-06 L 34.94660186767578 13.09135437011719 C 13.07104110717773 16.78464508056641 3.42230224609375 33.32642364501953 3.814697265625e-06 49.74694442749023 C 8.003932952880859 38.14100646972656 19.00571060180664 32.69326400756836 34.58860015869141 32.38977432250977 L 34.3397331237793 45.80503463745117 L 56.57952117919922 22.47766494750977 L 35.189453125 -7.62939453125e-06 M 33.28014373779297 -4.907615661621094 L 59.34158325195312 22.47894477844238 L 32.24485015869141 50.90076446533203 L 32.54978942871094 34.46332931518555 C 18.70663070678711 35.18566513061523 8.850486755371094 40.43630981445312 1.646442413330078 50.88239288330078 L -1.957927703857422 49.33888244628906 C -1.023387908935547 44.85487365722656 0.3075714111328125 40.6376953125 1.997982025146484 36.80447387695312 C 3.890724182128906 32.51243591308594 6.253482818603516 28.66249465942383 9.020641326904297 25.3615837097168 C 15.11384963989258 18.09304809570312 23.16716766357422 13.40902709960938 32.97720718383789 11.42280960083008 L 33.28014373779297 -4.907615661621094 Z" stroke="none" fill="#fff"/>
    </g>
    <text id="お休み" transform="translate(24 33.248)" fill="#b96" font-size="11" font-family="YuGothic-Bold, Yu Gothic" font-weight="700"><tspan x="-16.5" y="0">お休み</tspan></text>
    <text id="別日" transform="translate(82 84.248)" fill="#b96" font-size="18" font-family="YuGothic-Bold, Yu Gothic" font-weight="700"><tspan x="-18" y="0">別日</tspan></text>
  </g>
</svg>
