<svg xmlns="http://www.w3.org/2000/svg" width="320" height="317.001" viewBox="0 0 320 317.001">
  <g id="Group_195909" data-name="Group 195909" transform="translate(-1489 6819.802)">
    <g id="Rectangle_1788" data-name="Rectangle 1788" transform="translate(1489 -6784.801)" fill="#fff" stroke="#ddd" stroke-width="1">
      <rect width="320" height="269" stroke="none"/>
      <rect x="0.5" y="0.5" width="319" height="268" fill="none"/>
    </g>
    <rect id="Rectangle_22" data-name="Rectangle 22" width="38" height="38" transform="translate(1497 -6776.801)" fill="#eee"/>
    <rect id="Rectangle_23" data-name="Rectangle 23" width="37" height="38" transform="translate(1542 -6776.8)" fill="#eee"/>
    <rect id="Rectangle_24" data-name="Rectangle 24" width="39" height="38" transform="translate(1585 -6776.8)" fill="#eee"/>
    <rect id="Rectangle_25" data-name="Rectangle 25" width="39" height="38" transform="translate(1630 -6776.8)" fill="#eee"/>
    <rect id="Rectangle_26" data-name="Rectangle 26" width="39" height="38" transform="translate(1674 -6776.8)" fill="#eee"/>
    <rect id="Rectangle_27" data-name="Rectangle 27" width="38" height="38" transform="translate(1720 -6776.8)" fill="#eee"/>
    <rect id="Rectangle_28" data-name="Rectangle 28" width="38" height="38" transform="translate(1764 -6776.8)" fill="#eee"/>
    <rect id="Rectangle_29" data-name="Rectangle 29" width="38" height="38" transform="translate(1497 -6733.801)" fill="#eee"/>
    <rect id="Rectangle_30" data-name="Rectangle 30" width="37" height="38" transform="translate(1542 -6733.801)" fill="#eee"/>
    <rect id="Rectangle_33" data-name="Rectangle 33" width="39" height="38" transform="translate(1674 -6733.801)" fill="#eee"/>
    <rect id="Rectangle_34" data-name="Rectangle 34" width="38" height="38" transform="translate(1720 -6733.801)" fill="#eee"/>
    <rect id="Rectangle_35" data-name="Rectangle 35" width="38" height="38" transform="translate(1764 -6733.801)" fill="#eee"/>
    <path id="Path_451688" data-name="Path 451688" d="M3.388-3.57V-.476c0,.35-.112.434-.518.434a14.028,14.028,0,0,1-2-.14A3.914,3.914,0,0,1,1.092.77c.63.042,1.218.056,1.68.056A2.022,2.022,0,0,0,3.892.644a1.064,1.064,0,0,0,.392-.98V-9.548A12.25,12.25,0,0,1,4.34-10.99a11.259,11.259,0,0,1-1.456.07H-2.38a11.9,11.9,0,0,1-1.47-.07c.042.532.056,1.092.056,2.38A22.365,22.365,0,0,1-4.34-2.45,5.877,5.877,0,0,1-5.992.294a3.221,3.221,0,0,1,.77.742A7.533,7.533,0,0,0-3.682-1.4a9.631,9.631,0,0,0,.574-2.17Zm-6.4-.84c.112-1.19.14-1.722.154-2.492H3.388V-4.41Zm.154-3.332v-.336l.014-1.988h6.23v2.324Z" transform="translate(1516 -6753.8)" fill="#222"/>
    <path id="Path_451689" data-name="Path 451689" d="M-4.774-4.55A8.833,8.833,0,0,0-3.668-6.482a11.993,11.993,0,0,0,.784-2.31l-.938-.294a8.735,8.735,0,0,1-.7,2.254A7,7,0,0,1-5.628-5.04ZM3.024-5A17.179,17.179,0,0,0,5.418-8.764l-.924-.448A11.64,11.64,0,0,1,2.24-5.488Zm-3.6-6.412A10.766,10.766,0,0,1-.5-9.8,20.186,20.186,0,0,1-.728-6.356,8.105,8.105,0,0,1-2.17-2.842,8.028,8.028,0,0,1-6.258.1,3.133,3.133,0,0,1-5.572.98,11.358,11.358,0,0,0-3.892.07,8.562,8.562,0,0,0-.854-3.192a8.344,8.344,0,0,0,.882-2.73A8.549,8.549,0,0,0,.5-4.228,8.474,8.474,0,0,0,2.226-1.4,9.69,9.69,0,0,0,5.6.994,3.115,3.115,0,0,1,6.286.1,9.275,9.275,0,0,1,4-1.12a8.512,8.512,0,0,1-2.9-3.906A11.357,11.357,0,0,1,.476-9.3a15,15,0,0,1,.07-2.114Z" transform="translate(1560 -6753.8)" fill="#222"/>
    <path id="Path_451690" data-name="Path 451690" d="M4.592-9.352a11.63,11.63,0,0,1-2.954,3.22,8.769,8.769,0,0,1-1.176-3v-.966a7.466,7.466,0,0,1,.112-1.4H-.532a9.217,9.217,0,0,1,.1,1.414V-.518c0,.336-.084.406-.476.406a10.275,10.275,0,0,1-1.876-.2,2.786,2.786,0,0,1,.224.966,16.945,16.945,0,0,0,1.778.1C.21.756.49.518.49-.364V-4.508C.49-5.25.462-6.02.378-7.238A9.184,9.184,0,0,0,1.12-5.46,12.352,12.352,0,0,0,2.7-3.136,11.947,11.947,0,0,0,5.712-.574a3.194,3.194,0,0,1,.742-.882,10.158,10.158,0,0,1-2.73-1.96,12.828,12.828,0,0,1-1.652-2c.8-.63.8-.63,1.19-.98.518-.476,1.47-1.442,1.806-1.834a4.33,4.33,0,0,1,.392-.434Zm-6.286,1.19a8.863,8.863,0,0,1-1.33.056h-1.5a8.358,8.358,0,0,1-1.358-.07v1.022a8.1,8.1,0,0,1,1.33-.084h2.31A10.238,10.238,0,0,1-4.088-3.486,9.24,9.24,0,0,1-6.412-1.3a3.155,3.155,0,0,1,.784.7A11.971,11.971,0,0,0-1.456-6.776c.168-.532.182-.588.294-.868Z" transform="translate(1604 -6753.8)" fill="#222"/>
    <path id="Path_451691" data-name="Path 451691" d="M4.48-7.854a14.323,14.323,0,0,1,1.568.084V-8.778a9.243,9.243,0,0,1-1.582.1H.35v-1.568a7.811,7.811,0,0,1,.1-1.274H-.686a7.745,7.745,0,0,1,.1,1.288V-8.68H-4.494a9.981,9.981,0,0,1-1.526-.1V-7.77a13.812,13.812,0,0,1,1.54-.084H-.714A16.392,16.392,0,0,1-2.94-4.648,16.3,16.3,0,0,1-6.5-1.666a2.893,2.893,0,0,1,.714.812,18.444,18.444,0,0,0,2.7-2.3A12.887,12.887,0,0,0-.532-6.874C-.56-6.3-.588-5.586-.588-5.124v4.55a10.908,10.908,0,0,1-.1,1.61H.448a10.416,10.416,0,0,1-.1-1.61v-4.55C.35-5.642.322-6.272.28-6.93a14.792,14.792,0,0,0,1.274,2.1A12.712,12.712,0,0,0,3.878-2.338,15.175,15.175,0,0,0,5.768-.9a3.407,3.407,0,0,1,.7-.882A14.524,14.524,0,0,1,2.9-4.55,16.021,16.021,0,0,1,.49-7.854Z" transform="translate(1649 -6753.8)" fill="#222"/>
    <path id="Path_451692" data-name="Path 451692" d="M-.574-6.762v1.9H-4.2a9.19,9.19,0,0,1-1.372-.084v.98a9.52,9.52,0,0,1,1.358-.084h3.64v3.7H-4.4a12.922,12.922,0,0,1-1.6-.084V.574a12.211,12.211,0,0,1,1.6-.1h8.82a10.3,10.3,0,0,1,1.54.1V-.434A11.733,11.733,0,0,1,4.438-.35H.336v-3.7H4.242a9.455,9.455,0,0,1,1.372.084v-.98a8.934,8.934,0,0,1-1.372.084H.336v-1.9H2.044a8.026,8.026,0,0,1,1.288.07V-7.56a15,15,0,0,0,2.73,1.428,4.339,4.339,0,0,1,.56-.9A12.543,12.543,0,0,1,2.968-8.9,9.49,9.49,0,0,1,.462-11.438H-.616A11.463,11.463,0,0,1-6.524-7a3.015,3.015,0,0,1,.588.826A13.374,13.374,0,0,0-3.388-7.532v.84a8.437,8.437,0,0,1,1.3-.07ZM-2.1-7.532a8.458,8.458,0,0,1-1.19-.056A11.67,11.67,0,0,0-.07-10.654,12.694,12.694,0,0,0,3.276-7.588a9.02,9.02,0,0,1-1.232.056ZM-4.158-3.248A10.583,10.583,0,0,1-2.94-.756l.812-.322A14.231,14.231,0,0,0-3.36-3.612Zm7.35-.336a9.455,9.455,0,0,1-1.4,2.646l.784.322a16.777,16.777,0,0,0,1.5-2.6Z" transform="translate(1694 -6753.8)" fill="#222"/>
    <path id="Path_451693" data-name="Path 451693" d="M-.6-7.056h-2.94A10.333,10.333,0,0,1-5.068-7.14v1.022a11.115,11.115,0,0,1,1.526-.07H-.6V-.6H-4.536A13.053,13.053,0,0,1-6.2-.686V.378A12.129,12.129,0,0,1-4.536.28h9.2a11.155,11.155,0,0,1,1.582.1V-.686A12.218,12.218,0,0,1,4.662-.6H.35V-6.188H3.612a11.139,11.139,0,0,1,1.512.07V-7.14a9.99,9.99,0,0,1-1.512.084H.35v-3.01a9.468,9.468,0,0,1,.1-1.47H-.7a9.841,9.841,0,0,1,.1,1.47Z" transform="translate(1739 -6753.8)" fill="#94ccde"/>
    <path id="Path_451694" data-name="Path 451694" d="M3.388-3.57V-.476c0,.35-.112.434-.518.434a14.028,14.028,0,0,1-2-.14A3.914,3.914,0,0,1,1.092.77c.63.042,1.218.056,1.68.056A2.022,2.022,0,0,0,3.892.644a1.064,1.064,0,0,0,.392-.98V-9.548A12.25,12.25,0,0,1,4.34-10.99a11.259,11.259,0,0,1-1.456.07H-2.38a11.9,11.9,0,0,1-1.47-.07c.042.532.056,1.092.056,2.38A22.365,22.365,0,0,1-4.34-2.45,5.877,5.877,0,0,1-5.992.294a3.221,3.221,0,0,1,.77.742A7.533,7.533,0,0,0-3.682-1.4a9.631,9.631,0,0,0,.574-2.17Zm-6.4-.84c.112-1.19.14-1.722.154-2.492H3.388V-4.41Zm.154-3.332v-.336l.014-1.988h6.23v2.324Z" transform="translate(1783 -6753.8)" fill="#f28d8d"/>
    <path id="Path_451695" data-name="Path 451695" d="M-2.01-8.3A7.254,7.254,0,0,1-.966-8.376h.648v6.948a7.57,7.57,0,0,1-.1,1.356H.726a7.656,7.656,0,0,1-.1-1.356V-7.26A19.689,19.689,0,0,1,.738-9.252a6.833,6.833,0,0,1-1,.06h-.756a5.811,5.811,0,0,1-1-.06Z" transform="translate(1516 -6709.8)" fill="#222"/>
    <path id="Path_451696" data-name="Path 451696" d="M1.734-.072A13.5,13.5,0,0,1,3.21,0V-1.008a10.476,10.476,0,0,1-1.464.084H-2.082A3.363,3.363,0,0,1-1.4-2.316,6.534,6.534,0,0,1,.33-3.792,9.459,9.459,0,0,0,2.37-5.34a2.5,2.5,0,0,0,.708-1.7C3.078-8.46,1.914-9.372.1-9.372a3.067,3.067,0,0,0-2.412.924A3.263,3.263,0,0,0-3.066-6.72l1.008.168a2.428,2.428,0,0,1,.42-1.212A1.985,1.985,0,0,1,.1-8.544c1.224,0,1.992.588,1.992,1.5,0,.732-.4,1.26-1.584,2.064A16.292,16.292,0,0,0-1.326-3.66,5.268,5.268,0,0,0-2.886-1.6,5.51,5.51,0,0,0-3.234-.012a8.594,8.594,0,0,1,1.32-.06Z" transform="translate(1560 -6709.8)" fill="#222"/>
    <path id="Path_451697" data-name="Path 451697" d="M-1.578-8.364h2.82a8.325,8.325,0,0,1,1.4.1v-1.02a7.882,7.882,0,0,1-1.4.1H-1.23A8.161,8.161,0,0,1-2.5-9.252a4.8,4.8,0,0,1,.024.516c0,.228-.012.372-.036.72L-2.778-5.3a9.561,9.561,0,0,1-.18,1.236l.9.084a1.54,1.54,0,0,1,.552-.72,2.491,2.491,0,0,1,1.572-.5,2.014,2.014,0,0,1,2.1,2.184A2.142,2.142,0,0,1-.078-.732a2.232,2.232,0,0,1-1.7-.708,1.821,1.821,0,0,1-.384-.7l-.984.288A3.731,3.731,0,0,0-2.394-.72,3.246,3.246,0,0,0-.1.1a2.993,2.993,0,0,0,3.24-3.168,2.785,2.785,0,0,0-.8-2.112A3.011,3.011,0,0,0,.174-6a2.916,2.916,0,0,0-2.1.828,3.455,3.455,0,0,0,.1-.54Z" transform="translate(1693 -6709.8)" fill="#222"/>
    <path id="Path_451698" data-name="Path 451698" d="M3.042-7.512A3.047,3.047,0,0,0,2.034-8.856,3.178,3.178,0,0,0,.21-9.36,3.014,3.014,0,0,0-2.322-8.052a6.4,6.4,0,0,0-.912,3.624A5.118,5.118,0,0,0-2.022-.66,3.225,3.225,0,0,0,.15.1,2.932,2.932,0,0,0,3.294-2.988a2.789,2.789,0,0,0-3.012-3,2.853,2.853,0,0,0-2.028.732,2.517,2.517,0,0,0-.6.768,6.753,6.753,0,0,1,.5-2.58A2.19,2.19,0,0,1,.234-8.556a1.83,1.83,0,0,1,1.428.6,2.284,2.284,0,0,1,.42.756Zm-.7,4.548a2.59,2.59,0,0,1-.312,1.272A2.192,2.192,0,0,1,.162-.72,2.2,2.2,0,0,1-2.106-2.976a2.1,2.1,0,0,1,.6-1.524A2.428,2.428,0,0,1,.15-5.184,2,2,0,0,1,2.346-2.964Z" transform="translate(1739 -6709.8)" fill="#94ccde"/>
    <path id="Path_451699" data-name="Path 451699" d="M3.162-9.252a10.479,10.479,0,0,1-1.392.06h-3.6A9.4,9.4,0,0,1-3.2-9.276v1.02A9.226,9.226,0,0,1-1.842-8.34h3.9A19.519,19.519,0,0,0-.1-4.86,15.782,15.782,0,0,0-1.554-.072h1.14a15.627,15.627,0,0,1,.636-3A15.6,15.6,0,0,1,2.274-7.224a4.686,4.686,0,0,1,.888-1.152Z" transform="translate(1783 -6709.8)" fill="#e6a8a9"/>
    <rect id="Rectangle_36" data-name="Rectangle 36" width="38" height="38" transform="translate(1497 -6690.801)" fill="#eee"/>
    <rect id="Rectangle_37" data-name="Rectangle 37" width="37" height="38" transform="translate(1542 -6690.801)" fill="#eee"/>
    <rect id="Rectangle_38" data-name="Rectangle 38" width="39" height="38" transform="translate(1585 -6690.801)" fill="#eee"/>
    <rect id="Rectangle_39" data-name="Rectangle 39" width="39" height="38" transform="translate(1630 -6690.801)" fill="#eee"/>
    <rect id="Rectangle_40" data-name="Rectangle 40" width="39" height="38" transform="translate(1674 -6690.801)" fill="#eee"/>
    <rect id="Rectangle_41" data-name="Rectangle 41" width="38" height="38" transform="translate(1720 -6690.801)" fill="#eee"/>
    <rect id="Rectangle_42" data-name="Rectangle 42" width="38" height="38" transform="translate(1764 -6690.801)" fill="#eee"/>
    <path id="Path_451700" data-name="Path 451700" d="M1.218-4.848a2.09,2.09,0,0,0,1.74-2.16c0-1.476-1.128-2.376-2.964-2.376-1.812,0-2.952.924-2.952,2.376a2.092,2.092,0,0,0,1.74,2.16A2.467,2.467,0,0,0-2.3-4.44,2.227,2.227,0,0,0-3.366-2.448C-3.366-.792-2.154.12.042.12,2.154.12,3.354-.8,3.354-2.448a2.216,2.216,0,0,0-.9-1.884A2.42,2.42,0,0,0,1.218-4.848ZM-.006-8.58c1.236,0,2.028.636,2.028,1.644,0,1.068-.756,1.716-2.016,1.716s-2.028-.648-2.028-1.716C-2.022-7.932-1.23-8.58-.006-8.58Zm0,4.188c1.476,0,2.376.708,2.376,1.884A1.573,1.573,0,0,1,1.914-1.32,2.708,2.708,0,0,1-.018-.7c-1.488,0-2.364-.672-2.364-1.812C-2.382-3.672-1.482-4.392-.006-4.392Z" transform="translate(1516 -6665.8)" fill="#222"/>
    <path id="Path_451701" data-name="Path 451701" d="M-3.162-1.752a3.082,3.082,0,0,0,.84,1.188A3.035,3.035,0,0,0-.306.084a2.945,2.945,0,0,0,2.5-1.116,6.237,6.237,0,0,0,1-3.828,7.26,7.26,0,0,0-.348-2.5,3.007,3.007,0,0,0-2.9-2.016A3.012,3.012,0,0,0-3.318-6.216,3.063,3.063,0,0,0-2.5-4.056a2.987,2.987,0,0,0,2.16.792A2.967,2.967,0,0,0,1.842-4.1a2.409,2.409,0,0,0,.48-.672,13.445,13.445,0,0,1-.108,1.4A4.814,4.814,0,0,1,1.7-1.836,2.071,2.071,0,0,1-.234-.732,1.955,1.955,0,0,1-1.746-1.3a1.9,1.9,0,0,1-.432-.768ZM-.234-4.068A2.024,2.024,0,0,1-2.37-6.276a2.542,2.542,0,0,1,.312-1.26A2.227,2.227,0,0,1-.15-8.556,2.2,2.2,0,0,1,2.094-6.288,2.219,2.219,0,0,1-.234-4.068Z" transform="translate(1560 -6665.8)" fill="#222"/>
    <path id="Path_451702" data-name="Path 451702" d="M-5.952-8.3a7.254,7.254,0,0,1,1.044-.072h.648v6.948a7.57,7.57,0,0,1-.1,1.356h1.14a7.656,7.656,0,0,1-.1-1.356V-7.26A19.689,19.689,0,0,1-3.2-9.252a6.833,6.833,0,0,1-1,.06h-.756a5.811,5.811,0,0,1-1-.06ZM3.936.108A2.933,2.933,0,0,0,6.48-1.152,6.258,6.258,0,0,0,7.32-4.62,8.261,8.261,0,0,0,6.864-7.4a3.025,3.025,0,0,0-.72-1.1,2.956,2.956,0,0,0-2.2-.852A2.948,2.948,0,0,0,1.26-7.884a7.015,7.015,0,0,0-.7,3.264A8.291,8.291,0,0,0,1.02-1.848a2.981,2.981,0,0,0,.72,1.1A2.994,2.994,0,0,0,3.936.108Zm0-8.64A2.028,2.028,0,0,1,5.82-7.44a6.8,6.8,0,0,1,.54,2.8A7.443,7.443,0,0,1,5.988-2.22a2.363,2.363,0,0,1-.564.936A2,2,0,0,1,3.948-.72a2.044,2.044,0,0,1-1.86-1.044A6.631,6.631,0,0,1,1.524-4.62,7.443,7.443,0,0,1,1.9-7.044a2.45,2.45,0,0,1,.54-.876A1.954,1.954,0,0,1,3.936-8.532Z" transform="translate(1603 -6665.8)" fill="#222"/>
    <path id="Path_451703" data-name="Path 451703" d="M-5.952-8.3a7.254,7.254,0,0,1,1.044-.072h.648v6.948a7.57,7.57,0,0,1-.1,1.356h1.14a7.656,7.656,0,0,1-.1-1.356V-7.26A19.689,19.689,0,0,1-3.2-9.252a6.833,6.833,0,0,1-1,.06h-.756a5.811,5.811,0,0,1-1-.06Zm7.884,0a7.254,7.254,0,0,1,1.044-.072h.648v6.948a7.57,7.57,0,0,1-.1,1.356h1.14a7.656,7.656,0,0,1-.1-1.356V-7.26A19.689,19.689,0,0,1,4.68-9.252a6.833,6.833,0,0,1-1,.06H2.928a5.811,5.811,0,0,1-1-.06Z" transform="translate(1649 -6665.8)" fill="#222"/>
    <path id="Path_451704" data-name="Path 451704" d="M-5.952-8.3a7.254,7.254,0,0,1,1.044-.072h.648v6.948a7.57,7.57,0,0,1-.1,1.356h1.14a7.656,7.656,0,0,1-.1-1.356V-7.26A19.689,19.689,0,0,1-3.2-9.252a6.833,6.833,0,0,1-1,.06h-.756a5.811,5.811,0,0,1-1-.06ZM5.676-.072A13.5,13.5,0,0,1,7.152,0V-1.008a10.476,10.476,0,0,1-1.464.084H1.86a3.363,3.363,0,0,1,.684-1.392A6.534,6.534,0,0,1,4.272-3.792,9.459,9.459,0,0,0,6.312-5.34a2.5,2.5,0,0,0,.708-1.7c0-1.416-1.164-2.328-2.976-2.328a3.067,3.067,0,0,0-2.412.924A3.263,3.263,0,0,0,.876-6.72l1.008.168A2.428,2.428,0,0,1,2.3-7.764a1.985,1.985,0,0,1,1.74-.78c1.224,0,1.992.588,1.992,1.5,0,.732-.4,1.26-1.584,2.064A16.292,16.292,0,0,0,2.616-3.66,5.268,5.268,0,0,0,1.056-1.6,5.51,5.51,0,0,0,.708-.012a8.594,8.594,0,0,1,1.32-.06Z" transform="translate(1693 -6665.8)" fill="#222"/>
    <path id="Path_451705" data-name="Path 451705" d="M-5.952-8.3a7.254,7.254,0,0,1,1.044-.072h.648v6.948a7.57,7.57,0,0,1-.1,1.356h1.14a7.656,7.656,0,0,1-.1-1.356V-7.26A19.689,19.689,0,0,1-3.2-9.252a6.833,6.833,0,0,1-1,.06h-.756a5.811,5.811,0,0,1-1-.06ZM.54-2.04A3.117,3.117,0,0,0,1.152-.876,3.428,3.428,0,0,0,3.84.108c2,0,3.252-1.008,3.252-2.628a2.2,2.2,0,0,0-.8-1.812,2.574,2.574,0,0,0-1.476-.516A2.464,2.464,0,0,0,5.94-5.28a2.108,2.108,0,0,0,.84-1.752c0-1.44-1.1-2.352-2.844-2.352a3.117,3.117,0,0,0-2.388.876A2.735,2.735,0,0,0,.9-7.308l1,.216a2.271,2.271,0,0,1,.384-.852,1.885,1.885,0,0,1,1.6-.636c1.212,0,1.932.6,1.932,1.632a1.653,1.653,0,0,1-.48,1.164,2.4,2.4,0,0,1-1.752.552A5.118,5.118,0,0,1,2.688-5.3v.948a8.415,8.415,0,0,1,.96-.06c1.6,0,2.448.648,2.448,1.836C6.1-1.44,5.22-.72,3.828-.72A2.646,2.646,0,0,1,2.28-1.152a1.812,1.812,0,0,1-.732-1.14Z" transform="translate(1738 -6665.8)" fill="#94ccde"/>
    <path id="Path_451706" data-name="Path 451706" d="M-5.976-8.3a7.254,7.254,0,0,1,1.044-.072h.648v6.948a7.57,7.57,0,0,1-.1,1.356h1.14a7.656,7.656,0,0,1-.1-1.356V-7.26a19.689,19.689,0,0,1,.108-1.992,6.833,6.833,0,0,1-1,.06H-4.98a5.811,5.811,0,0,1-1-.06ZM.348-2.352c.4-.036.756-.048,1.428-.048H4.992v1.032a6.963,6.963,0,0,1-.1,1.3H5.988a6.881,6.881,0,0,1-.1-1.3V-2.4h.444a8.22,8.22,0,0,1,1.26.084v-1a8.059,8.059,0,0,1-1.248.084H5.892V-7.164a19.9,19.9,0,0,1,.072-2.028h-.9a13.538,13.538,0,0,1-.9,1.224L1.128-4.176c-.252.3-.528.636-.78.924ZM5-3.216H1.416L4.176-6.7c.348-.444.648-.84.9-1.2A14.593,14.593,0,0,0,5-6.264Z" transform="translate(1782 -6665.8)" fill="#e6a8a9"/>
    <rect id="Rectangle_43" data-name="Rectangle 43" width="38" height="38" transform="translate(1497 -6646.801)" fill="#eee"/>
    <rect id="Rectangle_44" data-name="Rectangle 44" width="37" height="38" transform="translate(1542 -6646.8)" fill="#eee"/>
    <rect id="Rectangle_45" data-name="Rectangle 45" width="39" height="38" transform="translate(1585 -6646.8)" fill="#eee"/>
    <rect id="Rectangle_47" data-name="Rectangle 47" width="39" height="38" transform="translate(1674 -6646.8)" fill="#eee"/>
    <rect id="Rectangle_48" data-name="Rectangle 48" width="38" height="38" transform="translate(1720 -6646.8)" fill="#eee"/>
    <rect id="Rectangle_49" data-name="Rectangle 49" width="38" height="38" transform="translate(1764 -6646.8)" fill="#eee"/>
    <path id="Path_451707" data-name="Path 451707" d="M-5.952-8.3a7.254,7.254,0,0,1,1.044-.072h.648v6.948a7.57,7.57,0,0,1-.1,1.356h1.14a7.656,7.656,0,0,1-.1-1.356V-7.26A19.689,19.689,0,0,1-3.2-9.252a6.833,6.833,0,0,1-1,.06h-.756a5.811,5.811,0,0,1-1-.06Zm8.316-.06h2.82a8.325,8.325,0,0,1,1.4.1v-1.02a7.882,7.882,0,0,1-1.4.1H2.712a8.161,8.161,0,0,1-1.272-.06,4.8,4.8,0,0,1,.024.516c0,.228-.012.372-.036.72L1.164-5.3a9.561,9.561,0,0,1-.18,1.236l.9.084a1.54,1.54,0,0,1,.552-.72,2.491,2.491,0,0,1,1.572-.5,2.014,2.014,0,0,1,2.1,2.184A2.142,2.142,0,0,1,3.864-.732a2.232,2.232,0,0,1-1.7-.708,1.821,1.821,0,0,1-.384-.7l-.984.288A3.731,3.731,0,0,0,1.548-.72,3.246,3.246,0,0,0,3.84.1,2.993,2.993,0,0,0,7.08-3.072a2.785,2.785,0,0,0-.8-2.112A3.011,3.011,0,0,0,4.116-6a2.916,2.916,0,0,0-2.1.828,3.455,3.455,0,0,0,.1-.54Z" transform="translate(1515 -6624.8)" fill="#222"/>
    <path id="Path_451708" data-name="Path 451708" d="M-5.952-8.3a7.254,7.254,0,0,1,1.044-.072h.648v6.948a7.57,7.57,0,0,1-.1,1.356h1.14a7.656,7.656,0,0,1-.1-1.356V-7.26A19.689,19.689,0,0,1-3.2-9.252a6.833,6.833,0,0,1-1,.06h-.756a5.811,5.811,0,0,1-1-.06Zm12.936.792A3.047,3.047,0,0,0,5.976-8.856a3.178,3.178,0,0,0-1.824-.5A3.014,3.014,0,0,0,1.62-8.052,6.4,6.4,0,0,0,.708-4.428,5.118,5.118,0,0,0,1.92-.66,3.225,3.225,0,0,0,4.092.1,2.932,2.932,0,0,0,7.236-2.988a2.789,2.789,0,0,0-3.012-3A2.853,2.853,0,0,0,2.2-5.256a2.517,2.517,0,0,0-.6.768,6.753,6.753,0,0,1,.5-2.58A2.19,2.19,0,0,1,4.176-8.556a1.83,1.83,0,0,1,1.428.6,2.284,2.284,0,0,1,.42.756Zm-.7,4.548a2.59,2.59,0,0,1-.312,1.272A2.192,2.192,0,0,1,4.1-.72,2.2,2.2,0,0,1,1.836-2.976a2.1,2.1,0,0,1,.6-1.524,2.428,2.428,0,0,1,1.656-.684A2,2,0,0,1,6.288-2.964Z" transform="translate(1559 -6624.8)" fill="#222"/>
    <path id="Path_451709" data-name="Path 451709" d="M-5.952-8.3a7.254,7.254,0,0,1,1.044-.072h.648v6.948a7.57,7.57,0,0,1-.1,1.356h1.14a7.656,7.656,0,0,1-.1-1.356V-7.26A19.689,19.689,0,0,1-3.2-9.252a6.833,6.833,0,0,1-1,.06h-.756a5.811,5.811,0,0,1-1-.06ZM7.1-9.252a10.479,10.479,0,0,1-1.392.06h-3.6A9.4,9.4,0,0,1,.744-9.276v1.02A9.226,9.226,0,0,1,2.1-8.34H6A19.519,19.519,0,0,0,3.84-4.86,15.782,15.782,0,0,0,2.388-.072h1.14a15.627,15.627,0,0,1,.636-3A15.6,15.6,0,0,1,6.216-7.224,4.686,4.686,0,0,1,7.1-8.376Z" transform="translate(1603 -6624.8)" fill="#222"/>
    <path id="Path_451710" data-name="Path 451710" d="M-5.952-8.3a7.254,7.254,0,0,1,1.044-.072h.648v6.948a7.57,7.57,0,0,1-.1,1.356h1.14a7.656,7.656,0,0,1-.1-1.356V-7.26A19.689,19.689,0,0,1-3.2-9.252a6.833,6.833,0,0,1-1,.06h-.756a5.811,5.811,0,0,1-1-.06ZM.78-1.752A3.082,3.082,0,0,0,1.62-.564,3.035,3.035,0,0,0,3.636.084a2.945,2.945,0,0,0,2.5-1.116,6.237,6.237,0,0,0,1-3.828,7.26,7.26,0,0,0-.348-2.5,3.007,3.007,0,0,0-2.9-2.016A3.012,3.012,0,0,0,.624-6.216a3.063,3.063,0,0,0,.816,2.16,2.987,2.987,0,0,0,2.16.792A2.967,2.967,0,0,0,5.784-4.1a2.409,2.409,0,0,0,.48-.672,13.445,13.445,0,0,1-.108,1.4A4.814,4.814,0,0,1,5.64-1.836a2.071,2.071,0,0,1-1.932,1.1A1.955,1.955,0,0,1,2.2-1.3a1.9,1.9,0,0,1-.432-.768ZM3.708-4.068A2.024,2.024,0,0,1,1.572-6.276a2.542,2.542,0,0,1,.312-1.26,2.227,2.227,0,0,1,1.908-1.02A2.2,2.2,0,0,1,6.036-6.288,2.219,2.219,0,0,1,3.708-4.068Z" transform="translate(1693 -6624.8)" fill="#222"/>
    <path id="Path_451711" data-name="Path 451711" d="M-2.208-.072A13.5,13.5,0,0,1-.732,0V-1.008A10.476,10.476,0,0,1-2.2-.924H-6.024A3.363,3.363,0,0,1-5.34-2.316,6.534,6.534,0,0,1-3.612-3.792,9.459,9.459,0,0,0-1.572-5.34a2.5,2.5,0,0,0,.708-1.7c0-1.416-1.164-2.328-2.976-2.328a3.067,3.067,0,0,0-2.412.924A3.263,3.263,0,0,0-7.008-6.72L-6-6.552a2.428,2.428,0,0,1,.42-1.212,1.985,1.985,0,0,1,1.74-.78c1.224,0,1.992.588,1.992,1.5,0,.732-.4,1.26-1.584,2.064A16.292,16.292,0,0,0-5.268-3.66,5.268,5.268,0,0,0-6.828-1.6,5.51,5.51,0,0,0-7.176-.012a8.594,8.594,0,0,1,1.32-.06Zm6.144.18A2.933,2.933,0,0,0,6.48-1.152,6.258,6.258,0,0,0,7.32-4.62,8.261,8.261,0,0,0,6.864-7.4a3.025,3.025,0,0,0-.72-1.1,2.956,2.956,0,0,0-2.2-.852A2.948,2.948,0,0,0,1.26-7.884a7.015,7.015,0,0,0-.7,3.264A8.291,8.291,0,0,0,1.02-1.848a2.981,2.981,0,0,0,.72,1.1A2.994,2.994,0,0,0,3.936.108Zm0-8.64A2.028,2.028,0,0,1,5.82-7.44a6.8,6.8,0,0,1,.54,2.8A7.443,7.443,0,0,1,5.988-2.22a2.363,2.363,0,0,1-.564.936A2,2,0,0,1,3.948-.72a2.044,2.044,0,0,1-1.86-1.044A6.631,6.631,0,0,1,1.524-4.62,7.443,7.443,0,0,1,1.9-7.044a2.45,2.45,0,0,1,.54-.876A1.954,1.954,0,0,1,3.936-8.532Z" transform="translate(1738 -6624.8)" fill="#94ccde"/>
    <path id="Path_451712" data-name="Path 451712" d="M-2.208-.072A13.5,13.5,0,0,1-.732,0V-1.008A10.476,10.476,0,0,1-2.2-.924H-6.024A3.363,3.363,0,0,1-5.34-2.316,6.534,6.534,0,0,1-3.612-3.792,9.459,9.459,0,0,0-1.572-5.34a2.5,2.5,0,0,0,.708-1.7c0-1.416-1.164-2.328-2.976-2.328a3.067,3.067,0,0,0-2.412.924A3.263,3.263,0,0,0-7.008-6.72L-6-6.552a2.428,2.428,0,0,1,.42-1.212,1.985,1.985,0,0,1,1.74-.78c1.224,0,1.992.588,1.992,1.5,0,.732-.4,1.26-1.584,2.064A16.292,16.292,0,0,0-5.268-3.66,5.268,5.268,0,0,0-6.828-1.6,5.51,5.51,0,0,0-7.176-.012a8.594,8.594,0,0,1,1.32-.06ZM1.932-8.3a7.254,7.254,0,0,1,1.044-.072h.648v6.948a7.57,7.57,0,0,1-.1,1.356h1.14a7.656,7.656,0,0,1-.1-1.356V-7.26A19.689,19.689,0,0,1,4.68-9.252a6.833,6.833,0,0,1-1,.06H2.928a5.811,5.811,0,0,1-1-.06Z" transform="translate(1782 -6624.8)" fill="#e6a8a9"/>
    <rect id="Rectangle_50" data-name="Rectangle 50" width="38" height="39" transform="translate(1497 -6604.801)" fill="#eee"/>
    <rect id="Rectangle_51" data-name="Rectangle 51" width="37" height="39" transform="translate(1542 -6604.801)" fill="#eee"/>
    <rect id="Rectangle_52" data-name="Rectangle 52" width="39" height="39" transform="translate(1585 -6604.801)" fill="#eee"/>
    <rect id="Rectangle_53" data-name="Rectangle 53" width="39" height="39" transform="translate(1630 -6604.801)" fill="#eee"/>
    <rect id="Rectangle_54" data-name="Rectangle 54" width="38" height="37" transform="translate(1676 -6602.8)" fill="#faf7e3"/>
    <rect id="Rectangle_55" data-name="Rectangle 55" width="38" height="39" transform="translate(1720 -6604.801)" fill="#eee"/>
    <rect id="Rectangle_56" data-name="Rectangle 56" width="38" height="39" transform="translate(1764 -6604.801)" fill="#eee"/>
    <path id="Path_451713" data-name="Path 451713" d="M-2.208-.072A13.5,13.5,0,0,1-.732,0V-1.008A10.476,10.476,0,0,1-2.2-.924H-6.024A3.363,3.363,0,0,1-5.34-2.316,6.534,6.534,0,0,1-3.612-3.792,9.459,9.459,0,0,0-1.572-5.34a2.5,2.5,0,0,0,.708-1.7c0-1.416-1.164-2.328-2.976-2.328a3.067,3.067,0,0,0-2.412.924A3.263,3.263,0,0,0-7.008-6.72L-6-6.552a2.428,2.428,0,0,1,.42-1.212,1.985,1.985,0,0,1,1.74-.78c1.224,0,1.992.588,1.992,1.5,0,.732-.4,1.26-1.584,2.064A16.292,16.292,0,0,0-5.268-3.66,5.268,5.268,0,0,0-6.828-1.6,5.51,5.51,0,0,0-7.176-.012a8.594,8.594,0,0,1,1.32-.06Zm7.884,0A13.5,13.5,0,0,1,7.152,0V-1.008a10.476,10.476,0,0,1-1.464.084H1.86a3.363,3.363,0,0,1,.684-1.392A6.534,6.534,0,0,1,4.272-3.792,9.459,9.459,0,0,0,6.312-5.34a2.5,2.5,0,0,0,.708-1.7c0-1.416-1.164-2.328-2.976-2.328a3.067,3.067,0,0,0-2.412.924A3.263,3.263,0,0,0,.876-6.72l1.008.168A2.428,2.428,0,0,1,2.3-7.764a1.985,1.985,0,0,1,1.74-.78c1.224,0,1.992.588,1.992,1.5,0,.732-.4,1.26-1.584,2.064A16.292,16.292,0,0,0,2.616-3.66,5.268,5.268,0,0,0,1.056-1.6,5.51,5.51,0,0,0,.708-.012a8.594,8.594,0,0,1,1.32-.06Z" transform="translate(1515 -6580.8)" fill="#222"/>
    <path id="Path_451714" data-name="Path 451714" d="M-2.208-.072A13.5,13.5,0,0,1-.732,0V-1.008A10.476,10.476,0,0,1-2.2-.924H-6.024A3.363,3.363,0,0,1-5.34-2.316,6.534,6.534,0,0,1-3.612-3.792,9.459,9.459,0,0,0-1.572-5.34a2.5,2.5,0,0,0,.708-1.7c0-1.416-1.164-2.328-2.976-2.328a3.067,3.067,0,0,0-2.412.924A3.263,3.263,0,0,0-7.008-6.72L-6-6.552a2.428,2.428,0,0,1,.42-1.212,1.985,1.985,0,0,1,1.74-.78c1.224,0,1.992.588,1.992,1.5,0,.732-.4,1.26-1.584,2.064A16.292,16.292,0,0,0-5.268-3.66,5.268,5.268,0,0,0-6.828-1.6,5.51,5.51,0,0,0-7.176-.012a8.594,8.594,0,0,1,1.32-.06ZM.54-2.04A3.117,3.117,0,0,0,1.152-.876,3.428,3.428,0,0,0,3.84.108c2,0,3.252-1.008,3.252-2.628a2.2,2.2,0,0,0-.8-1.812,2.574,2.574,0,0,0-1.476-.516A2.464,2.464,0,0,0,5.94-5.28a2.108,2.108,0,0,0,.84-1.752c0-1.44-1.1-2.352-2.844-2.352a3.117,3.117,0,0,0-2.388.876A2.735,2.735,0,0,0,.9-7.308l1,.216a2.271,2.271,0,0,1,.384-.852,1.885,1.885,0,0,1,1.6-.636c1.212,0,1.932.6,1.932,1.632a1.653,1.653,0,0,1-.48,1.164,2.4,2.4,0,0,1-1.752.552A5.118,5.118,0,0,1,2.688-5.3v.948a8.415,8.415,0,0,1,.96-.06c1.6,0,2.448.648,2.448,1.836C6.1-1.44,5.22-.72,3.828-.72A2.646,2.646,0,0,1,2.28-1.152a1.812,1.812,0,0,1-.732-1.14Z" transform="translate(1559 -6580.8)" fill="#222"/>
    <path id="Path_451715" data-name="Path 451715" d="M-2.232-.072A13.5,13.5,0,0,1-.756,0V-1.008A10.476,10.476,0,0,1-2.22-.924H-6.048a3.363,3.363,0,0,1,.684-1.392A6.534,6.534,0,0,1-3.636-3.792,9.459,9.459,0,0,0-1.6-5.34a2.5,2.5,0,0,0,.708-1.7c0-1.416-1.164-2.328-2.976-2.328a3.067,3.067,0,0,0-2.412.924A3.263,3.263,0,0,0-7.032-6.72l1.008.168A2.428,2.428,0,0,1-5.6-7.764a1.985,1.985,0,0,1,1.74-.78c1.224,0,1.992.588,1.992,1.5,0,.732-.4,1.26-1.584,2.064A16.292,16.292,0,0,0-5.292-3.66,5.268,5.268,0,0,0-6.852-1.6,5.51,5.51,0,0,0-7.2-.012a8.594,8.594,0,0,1,1.32-.06Zm2.58-2.28c.4-.036.756-.048,1.428-.048H4.992v1.032a6.963,6.963,0,0,1-.1,1.3H5.988a6.881,6.881,0,0,1-.1-1.3V-2.4h.444a8.22,8.22,0,0,1,1.26.084v-1a8.059,8.059,0,0,1-1.248.084H5.892V-7.164a19.9,19.9,0,0,1,.072-2.028h-.9a13.538,13.538,0,0,1-.9,1.224L1.128-4.176c-.252.3-.528.636-.78.924ZM5-3.216H1.416L4.176-6.7c.348-.444.648-.84.9-1.2A14.593,14.593,0,0,0,5-6.264Z" transform="translate(1603 -6580.8)" fill="#222"/>
    <path id="Path_451716" data-name="Path 451716" d="M-2.208-.072A13.5,13.5,0,0,1-.732,0V-1.008A10.476,10.476,0,0,1-2.2-.924H-6.024A3.363,3.363,0,0,1-5.34-2.316,6.534,6.534,0,0,1-3.612-3.792,9.459,9.459,0,0,0-1.572-5.34a2.5,2.5,0,0,0,.708-1.7c0-1.416-1.164-2.328-2.976-2.328a3.067,3.067,0,0,0-2.412.924A3.263,3.263,0,0,0-7.008-6.72L-6-6.552a2.428,2.428,0,0,1,.42-1.212,1.985,1.985,0,0,1,1.74-.78c1.224,0,1.992.588,1.992,1.5,0,.732-.4,1.26-1.584,2.064A16.292,16.292,0,0,0-5.268-3.66,5.268,5.268,0,0,0-6.828-1.6,5.51,5.51,0,0,0-7.176-.012a8.594,8.594,0,0,1,1.32-.06ZM2.364-8.364h2.82a8.325,8.325,0,0,1,1.4.1v-1.02a7.882,7.882,0,0,1-1.4.1H2.712a8.161,8.161,0,0,1-1.272-.06,4.8,4.8,0,0,1,.024.516c0,.228-.012.372-.036.72L1.164-5.3a9.561,9.561,0,0,1-.18,1.236l.9.084a1.54,1.54,0,0,1,.552-.72,2.491,2.491,0,0,1,1.572-.5,2.014,2.014,0,0,1,2.1,2.184A2.142,2.142,0,0,1,3.864-.732a2.232,2.232,0,0,1-1.7-.708,1.821,1.821,0,0,1-.384-.7l-.984.288A3.731,3.731,0,0,0,1.548-.72,3.246,3.246,0,0,0,3.84.1,2.993,2.993,0,0,0,7.08-3.072a2.785,2.785,0,0,0-.8-2.112A3.011,3.011,0,0,0,4.116-6a2.916,2.916,0,0,0-2.1.828,3.455,3.455,0,0,0,.1-.54Z" transform="translate(1649 -6580.8)" fill="#222"/>
    <path id="Path_451717" data-name="Path 451717" d="M-2.7.156c.832,0,1.352.026,1.963.078V-1.482a13.659,13.659,0,0,1-1.9.1h-3.64a3.134,3.134,0,0,1,.741-1.17,11.373,11.373,0,0,1,1.547-1.3,16.275,16.275,0,0,0,2.184-1.6,2.639,2.639,0,0,0,.923-2.08c0-1.781-1.4-2.873-3.679-2.873A3.78,3.78,0,0,0-7.54-9.243a3.9,3.9,0,0,0-.9,2.08l1.859.221a2.471,2.471,0,0,1,.4-1.2A1.837,1.837,0,0,1-4.524-8.9c1.105,0,1.794.546,1.794,1.43,0,.663-.364,1.092-1.56,1.911A17.9,17.9,0,0,0-6.435-3.991,6.416,6.416,0,0,0-8.216-1.443,6.642,6.642,0,0,0-8.554.221,11.981,11.981,0,0,1-6.877.156ZM8.424-8.073A3.753,3.753,0,0,0,7.6-9.4a3.581,3.581,0,0,0-2.665-.988A3.692,3.692,0,0,0,1.768-8.84,7.081,7.081,0,0,0,.7-4.823,5.7,5.7,0,0,0,2.21-.468,4.1,4.1,0,0,0,4.849.39a3.5,3.5,0,0,0,3.77-3.51,3.734,3.734,0,0,0-.468-1.95A3.381,3.381,0,0,0,5.135-6.617a3.017,3.017,0,0,0-2.782,1.3,5.717,5.717,0,0,1,.533-2.3A2.16,2.16,0,0,1,4.927-8.97,1.636,1.636,0,0,1,6.669-7.657ZM4.836-5.2A1.877,1.877,0,0,1,6.89-3.159a2.218,2.218,0,0,1-.3,1.183,2.068,2.068,0,0,1-1.781.91,2.063,2.063,0,0,1-2.2-2.054A2.1,2.1,0,0,1,4.836-5.2Z" transform="translate(1695 -6580.8)" fill="#222"/>
    <path id="Path_451718" data-name="Path 451718" d="M-2.208-.072A13.5,13.5,0,0,1-.732,0V-1.008A10.476,10.476,0,0,1-2.2-.924H-6.024A3.363,3.363,0,0,1-5.34-2.316,6.534,6.534,0,0,1-3.612-3.792,9.459,9.459,0,0,0-1.572-5.34a2.5,2.5,0,0,0,.708-1.7c0-1.416-1.164-2.328-2.976-2.328a3.067,3.067,0,0,0-2.412.924A3.263,3.263,0,0,0-7.008-6.72L-6-6.552a2.428,2.428,0,0,1,.42-1.212,1.985,1.985,0,0,1,1.74-.78c1.224,0,1.992.588,1.992,1.5,0,.732-.4,1.26-1.584,2.064A16.292,16.292,0,0,0-5.268-3.66,5.268,5.268,0,0,0-6.828-1.6,5.51,5.51,0,0,0-7.176-.012a8.594,8.594,0,0,1,1.32-.06ZM7.1-9.252a10.479,10.479,0,0,1-1.392.06h-3.6A9.4,9.4,0,0,1,.744-9.276v1.02A9.226,9.226,0,0,1,2.1-8.34H6A19.519,19.519,0,0,0,3.84-4.86,15.782,15.782,0,0,0,2.388-.072h1.14a15.627,15.627,0,0,1,.636-3A15.6,15.6,0,0,1,6.216-7.224,4.686,4.686,0,0,1,7.1-8.376Z" transform="translate(1738 -6580.8)" fill="#94ccde"/>
    <path id="Path_451719" data-name="Path 451719" d="M-2.208-.072A13.5,13.5,0,0,1-.732,0V-1.008A10.476,10.476,0,0,1-2.2-.924H-6.024A3.363,3.363,0,0,1-5.34-2.316,6.534,6.534,0,0,1-3.612-3.792,9.459,9.459,0,0,0-1.572-5.34a2.5,2.5,0,0,0,.708-1.7c0-1.416-1.164-2.328-2.976-2.328a3.067,3.067,0,0,0-2.412.924A3.263,3.263,0,0,0-7.008-6.72L-6-6.552a2.428,2.428,0,0,1,.42-1.212,1.985,1.985,0,0,1,1.74-.78c1.224,0,1.992.588,1.992,1.5,0,.732-.4,1.26-1.584,2.064A16.292,16.292,0,0,0-5.268-3.66,5.268,5.268,0,0,0-6.828-1.6,5.51,5.51,0,0,0-7.176-.012a8.594,8.594,0,0,1,1.32-.06ZM5.16-4.848A2.09,2.09,0,0,0,6.9-7.008c0-1.476-1.128-2.376-2.964-2.376C2.124-9.384.984-8.46.984-7.008a2.092,2.092,0,0,0,1.74,2.16,2.467,2.467,0,0,0-1.08.408A2.227,2.227,0,0,0,.576-2.448C.576-.792,1.788.12,3.984.12,6.1.12,7.3-.8,7.3-2.448a2.216,2.216,0,0,0-.9-1.884A2.42,2.42,0,0,0,5.16-4.848ZM3.936-8.58c1.236,0,2.028.636,2.028,1.644,0,1.068-.756,1.716-2.016,1.716S1.92-5.868,1.92-6.936C1.92-7.932,2.712-8.58,3.936-8.58Zm0,4.188c1.476,0,2.376.708,2.376,1.884A1.573,1.573,0,0,1,5.856-1.32,2.708,2.708,0,0,1,3.924-.7C2.436-.7,1.56-1.368,1.56-2.508,1.56-3.672,2.46-4.392,3.936-4.392Z" transform="translate(1782 -6580.8)" fill="#e6a8a9"/>
    <rect id="Rectangle_57" data-name="Rectangle 57" width="38" height="38" transform="translate(1497 -6560.801)" fill="#eee"/>
    <rect id="Rectangle_58" data-name="Rectangle 58" width="37" height="38" transform="translate(1542 -6560.8)" fill="#eee"/>
    <rect id="Rectangle_59" data-name="Rectangle 59" width="39" height="38" transform="translate(1585 -6560.8)" fill="#eee"/>
    <rect id="Rectangle_60" data-name="Rectangle 60" width="39" height="38" transform="translate(1630 -6560.8)" fill="#eee"/>
    <rect id="Rectangle_61" data-name="Rectangle 61" width="39" height="38" transform="translate(1674 -6560.8)" fill="#eee"/>
    <rect id="Rectangle_62" data-name="Rectangle 62" width="38" height="38" transform="translate(1720 -6560.8)" fill="#eee"/>
    <rect id="Rectangle_63" data-name="Rectangle 63" width="38" height="38" transform="translate(1764 -6560.8)" fill="#eee"/>
    <path id="Path_451720" data-name="Path 451720" d="M-2.208-.072A13.5,13.5,0,0,1-.732,0V-1.008A10.476,10.476,0,0,1-2.2-.924H-6.024A3.363,3.363,0,0,1-5.34-2.316,6.534,6.534,0,0,1-3.612-3.792,9.459,9.459,0,0,0-1.572-5.34a2.5,2.5,0,0,0,.708-1.7c0-1.416-1.164-2.328-2.976-2.328a3.067,3.067,0,0,0-2.412.924A3.263,3.263,0,0,0-7.008-6.72L-6-6.552a2.428,2.428,0,0,1,.42-1.212,1.985,1.985,0,0,1,1.74-.78c1.224,0,1.992.588,1.992,1.5,0,.732-.4,1.26-1.584,2.064A16.292,16.292,0,0,0-5.268-3.66,5.268,5.268,0,0,0-6.828-1.6,5.51,5.51,0,0,0-7.176-.012a8.594,8.594,0,0,1,1.32-.06ZM.78-1.752A3.082,3.082,0,0,0,1.62-.564,3.035,3.035,0,0,0,3.636.084a2.945,2.945,0,0,0,2.5-1.116,6.237,6.237,0,0,0,1-3.828,7.26,7.26,0,0,0-.348-2.5,3.007,3.007,0,0,0-2.9-2.016A3.012,3.012,0,0,0,.624-6.216a3.063,3.063,0,0,0,.816,2.16,2.987,2.987,0,0,0,2.16.792A2.967,2.967,0,0,0,5.784-4.1a2.409,2.409,0,0,0,.48-.672,13.445,13.445,0,0,1-.108,1.4A4.814,4.814,0,0,1,5.64-1.836a2.071,2.071,0,0,1-1.932,1.1A1.955,1.955,0,0,1,2.2-1.3a1.9,1.9,0,0,1-.432-.768ZM3.708-4.068A2.024,2.024,0,0,1,1.572-6.276a2.542,2.542,0,0,1,.312-1.26,2.227,2.227,0,0,1,1.908-1.02A2.2,2.2,0,0,1,6.036-6.288,2.219,2.219,0,0,1,3.708-4.068Z" transform="translate(1515 -6536.8)" fill="#222"/>
    <path id="Path_451721" data-name="Path 451721" d="M-7.344-2.04A3.117,3.117,0,0,0-6.732-.876,3.428,3.428,0,0,0-4.044.108C-2.04.108-.792-.9-.792-2.52a2.2,2.2,0,0,0-.8-1.812,2.574,2.574,0,0,0-1.476-.516A2.464,2.464,0,0,0-1.944-5.28,2.108,2.108,0,0,0-1.1-7.032c0-1.44-1.1-2.352-2.844-2.352a3.117,3.117,0,0,0-2.388.876,2.735,2.735,0,0,0-.648,1.2l1,.216A2.271,2.271,0,0,1-5.6-7.944a1.885,1.885,0,0,1,1.6-.636c1.212,0,1.932.6,1.932,1.632a1.653,1.653,0,0,1-.48,1.164,2.4,2.4,0,0,1-1.752.552A5.118,5.118,0,0,1-5.2-5.3v.948a8.415,8.415,0,0,1,.96-.06c1.6,0,2.448.648,2.448,1.836,0,1.14-.876,1.86-2.268,1.86A2.646,2.646,0,0,1-5.6-1.152a1.812,1.812,0,0,1-.732-1.14ZM3.936.108A2.933,2.933,0,0,0,6.48-1.152,6.258,6.258,0,0,0,7.32-4.62,8.261,8.261,0,0,0,6.864-7.4a3.025,3.025,0,0,0-.72-1.1,2.956,2.956,0,0,0-2.2-.852A2.948,2.948,0,0,0,1.26-7.884a7.015,7.015,0,0,0-.7,3.264A8.291,8.291,0,0,0,1.02-1.848a2.981,2.981,0,0,0,.72,1.1A2.994,2.994,0,0,0,3.936.108Zm0-8.64A2.028,2.028,0,0,1,5.82-7.44a6.8,6.8,0,0,1,.54,2.8A7.443,7.443,0,0,1,5.988-2.22a2.363,2.363,0,0,1-.564.936A2,2,0,0,1,3.948-.72a2.044,2.044,0,0,1-1.86-1.044A6.631,6.631,0,0,1,1.524-4.62,7.443,7.443,0,0,1,1.9-7.044a2.45,2.45,0,0,1,.54-.876A1.954,1.954,0,0,1,3.936-8.532Z" transform="translate(1559 -6536.8)" fill="#222"/>
    <path id="Path_451722" data-name="Path 451722" d="M-7.344-2.04A3.117,3.117,0,0,0-6.732-.876,3.428,3.428,0,0,0-4.044.108C-2.04.108-.792-.9-.792-2.52a2.2,2.2,0,0,0-.8-1.812,2.574,2.574,0,0,0-1.476-.516A2.464,2.464,0,0,0-1.944-5.28,2.108,2.108,0,0,0-1.1-7.032c0-1.44-1.1-2.352-2.844-2.352a3.117,3.117,0,0,0-2.388.876,2.735,2.735,0,0,0-.648,1.2l1,.216A2.271,2.271,0,0,1-5.6-7.944a1.885,1.885,0,0,1,1.6-.636c1.212,0,1.932.6,1.932,1.632a1.653,1.653,0,0,1-.48,1.164,2.4,2.4,0,0,1-1.752.552A5.118,5.118,0,0,1-5.2-5.3v.948a8.415,8.415,0,0,1,.96-.06c1.6,0,2.448.648,2.448,1.836,0,1.14-.876,1.86-2.268,1.86A2.646,2.646,0,0,1-5.6-1.152a1.812,1.812,0,0,1-.732-1.14ZM1.932-8.3a7.254,7.254,0,0,1,1.044-.072h.648v6.948a7.57,7.57,0,0,1-.1,1.356h1.14a7.656,7.656,0,0,1-.1-1.356V-7.26A19.689,19.689,0,0,1,4.68-9.252a6.833,6.833,0,0,1-1,.06H2.928a5.811,5.811,0,0,1-1-.06Z" transform="translate(1603 -6536.8)" fill="#222"/>
    <g id="Group_1958" data-name="Group 1958" transform="translate(1585.04 -6733.764)">
      <rect id="Rectangle_31" data-name="Rectangle 31" width="39" height="38" transform="translate(-0.04 -0.038)" fill="#eee"/>
    </g>
    <g id="Group_1959" data-name="Group 1959" transform="translate(1625.057 -6653.729)">
      <rect id="Rectangle_46" data-name="Rectangle 46" width="40.017" height="38.016" transform="translate(4.002 5.21)" fill="#faf7e3"/>
      <path id="Path_451723" data-name="Path 451723" d="M-3.432.156a10.9,10.9,0,0,1-.1-1.69V-8.112a19.588,19.588,0,0,1,.1-2.145,9.454,9.454,0,0,1-1.326.065h-1.2a7.224,7.224,0,0,1-1.3-.078v1.651A11.561,11.561,0,0,1-5.915-8.7h.624v7.163a10.79,10.79,0,0,1-.1,1.69ZM2.9-5.265a2.814,2.814,0,0,0-1.287.52A2.464,2.464,0,0,0,.546-2.613,2.7,2.7,0,0,0,1.3-.663,4.465,4.465,0,0,0,4.589.377c2.665,0,4.121-1.066,4.121-3A2.462,2.462,0,0,0,7.8-4.654a2.469,2.469,0,0,0-1.4-.611A2.412,2.412,0,0,0,8.268-7.7,2.557,2.557,0,0,0,7.917-9a3.645,3.645,0,0,0-3.289-1.417C2.4-10.413,1-9.36,1-7.7A2.492,2.492,0,0,0,1.638-5.98,2.5,2.5,0,0,0,2.9-5.265ZM4.628-9.009c1.157,0,1.885.585,1.885,1.508,0,.949-.7,1.534-1.859,1.534-1.183,0-1.911-.6-1.911-1.547C2.743-8.424,3.484-9.009,4.628-9.009ZM4.6-1.053c-1.4,0-2.236-.624-2.236-1.69s.858-1.742,2.262-1.742,2.249.65,2.249,1.729S6.058-1.053,4.6-1.053Z" transform="translate(23.006 27.765)" fill="#222"/>
      <g id="_" data-name="○" transform="translate(-0.058 -0.071)" fill="none" stroke="#aaaafd" stroke-width="5" opacity="0.503">
        <circle cx="24" cy="24" r="24" stroke="none"/>
        <circle cx="24" cy="24" r="21.5" fill="none"/>
      </g>
    </g>
    <g id="_2" data-name="○" transform="translate(1671 -6608.8)" fill="none" stroke="#99e" stroke-width="5">
      <circle cx="24" cy="24" r="24" stroke="none"/>
      <circle cx="24" cy="24" r="21.5" fill="none"/>
    </g>
    <g id="bubble" transform="translate(1595.045 -6551.855)">
      <rect id="Rectangle_65" data-name="Rectangle 65" width="200" height="41" transform="translate(-0.045 8.055)" fill="#aaf"/>
      <path id="Path_451724" data-name="Path 451724" d="M-77.025-7.3a.663.663,0,0,0-.66.645.666.666,0,0,0,.66.66h1.62v2.115h-1.02a.647.647,0,0,0-.63.645.637.637,0,0,0,.63.645h10.35a.647.647,0,0,0,.63-.645.637.637,0,0,0-.63-.645H-67.1V-6h1.62a.653.653,0,0,0,.645-.66.65.65,0,0,0-.645-.645H-67.1V-9.42h.795a.65.65,0,0,0,.645-.645.65.65,0,0,0-.645-.645h-8.13c.135-.21.255-.42.36-.615a.647.647,0,0,0-.345-.9.7.7,0,0,0-.915.375,8.611,8.611,0,0,1-2.055,2.565.813.813,0,0,0-.225.96.591.591,0,0,0,.855.255A7.157,7.157,0,0,0-75.4-9.345V-7.3Zm3.96-2.115V-7.3h-1.05V-9.42Zm1.29,0h1.05V-7.3h-1.05Zm2.34,2.115V-9.42h1.05V-7.3ZM-73.065-6v2.115h-1.05V-6Zm2.34,2.115h-1.05V-6h1.05Zm1.29,0V-6h1.05v2.115Zm.285,1.665a.769.769,0,0,0-1.035-.195.615.615,0,0,0-.15.915A6.511,6.511,0,0,1-69.1.555a.642.642,0,0,0,.81.39.649.649,0,0,0,.39-.84A12.245,12.245,0,0,0-69.15-2.22Zm2.925.015a.718.718,0,0,0-.99-.21.625.625,0,0,0-.165.915A10.653,10.653,0,0,1-66.18.54a.691.691,0,0,0,.84.405.592.592,0,0,0,.39-.8A12.6,12.6,0,0,0-66.225-2.2Zm-8.52-.195a.719.719,0,0,0-.9.27A5.337,5.337,0,0,1-77.475-.5a.72.72,0,0,0-.33.87A.582.582,0,0,0-76.98.7a7.1,7.1,0,0,0,2.505-2.22A.614.614,0,0,0-74.745-2.4Zm2.64.435a.8.8,0,0,0-1.02-.255.594.594,0,0,0-.165.885A10.011,10.011,0,0,1-72.105.585a.694.694,0,0,0,.84.375A.614.614,0,0,0-70.9.15,13.377,13.377,0,0,0-72.105-1.965Zm14.175-4.02a.637.637,0,0,0,.645-.63.647.647,0,0,0-.645-.63h-1.65V-11.49a.637.637,0,0,0-.645-.63.637.637,0,0,0-.645.63v4.245h-1.92a.634.634,0,0,0-.63.63.624.624,0,0,0,.63.63h1.725a10.208,10.208,0,0,1-2.175,3.54.753.753,0,0,0-.06.975.608.608,0,0,0,.915.045,11.957,11.957,0,0,0,1.515-2.01V.315a.647.647,0,0,0,.645.63.637.637,0,0,0,.645-.63V-4.11a8.106,8.106,0,0,1,.72,1.5.533.533,0,0,0,.765.285.728.728,0,0,0,.345-.87,7.948,7.948,0,0,0-1.725-2.79Zm7.47,1.74a.574.574,0,0,0-.8-.36c-.255.12-.54.24-.84.36v-7.23a.653.653,0,0,0-.66-.645.663.663,0,0,0-.66.645v7.68a27.367,27.367,0,0,1-3.6.825.658.658,0,0,0-.57.735.636.636,0,0,0,.72.57,25.73,25.73,0,0,0,3.45-.735V.3a.676.676,0,0,0,.66.66A.676.676,0,0,0-52.1.3V-2.82a11.381,11.381,0,0,0,1.215-.5A.792.792,0,0,0-50.46-4.245Zm-8.625-3.3a.659.659,0,0,0,.87-.285,8.356,8.356,0,0,0,.825-2.76.671.671,0,0,0-.54-.765.617.617,0,0,0-.72.525,8.223,8.223,0,0,1-.7,2.46A.618.618,0,0,0-59.085-7.545Zm-3.21-.495a.565.565,0,0,0,.7.495.692.692,0,0,0,.525-.78,12.168,12.168,0,0,0-.735-2.6.731.731,0,0,0-.93-.39.585.585,0,0,0-.3.84A7.974,7.974,0,0,1-62.295-8.04Zm6.03-2a8.262,8.262,0,0,1,1.89,1.05.478.478,0,0,0,.75-.21A.9.9,0,0,0-53.9-10.2a9,9,0,0,0-1.965-1.065.625.625,0,0,0-.825.4A.7.7,0,0,0-56.265-10.035ZM-56.79-6.27A8.738,8.738,0,0,1-54.675-5.2a.535.535,0,0,0,.825-.225.818.818,0,0,0-.315-1.005A13.416,13.416,0,0,0-56.4-7.53a.641.641,0,0,0-.825.435A.7.7,0,0,0-56.79-6.27Zm17.985,5a3.5,3.5,0,0,1-3.84-1.1c-1.44-1.875-.24-4.695,2.67-6.525a15.158,15.158,0,0,0,1.815-.54.669.669,0,0,0,.375-.87.7.7,0,0,0-.87-.375,20.582,20.582,0,0,1-8.64.96.693.693,0,0,0-.735.6.652.652,0,0,0,.6.72,25.328,25.328,0,0,0,5.13-.075c-2.655,2.4-2.55,5.265-1.515,6.75A4.9,4.9,0,0,0-38.535.06a.738.738,0,0,0,.525-.87A.621.621,0,0,0-38.805-1.275Zm2.58-5.43A4.674,4.674,0,0,0-37.5-8.565a.482.482,0,0,0-.645.015.448.448,0,0,0,.015.63,4.131,4.131,0,0,1,1.065,1.59.447.447,0,0,0,.6.255A.486.486,0,0,0-36.225-6.7ZM-38.7-7.98a.476.476,0,0,0-.675.045.442.442,0,0,0,.045.645,3.667,3.667,0,0,1,1.02,1.515.443.443,0,0,0,.6.27.5.5,0,0,0,.27-.645A5.1,5.1,0,0,0-38.7-7.98Zm15.36-4.14a.653.653,0,0,0-.66.645v10.41c0,.54-.21.645-1.2.6a.668.668,0,0,0-.72.645.67.67,0,0,0,.675.7c1.9,0,2.565-.495,2.565-1.965V-11.475A.663.663,0,0,0-23.34-12.12Zm-7.815,6.705c.045-.45.09-.93.1-1.44h1.56a1,1,0,0,0,.99-.99V-10.83a.989.989,0,0,0-.99-.99h-3.735a.989.989,0,0,0-.99.99v2.985a.989.989,0,0,0,.99.99h.885c-.1,3.195-.885,5.22-2.49,6.465a.763.763,0,0,0-.255.93.551.551,0,0,0,.825.225,7.462,7.462,0,0,0,2.91-4.92h1.605a21.421,21.421,0,0,1-.3,3.135c-.09.435-.405.6-1.065.51a.639.639,0,0,0-.735.54A.676.676,0,0,0-31.23.8C-29.88.87-29.055.36-28.785-.75a22.339,22.339,0,0,0,.345-3.675.967.967,0,0,0-.975-.99Zm4.485-5.565a.666.666,0,0,0-.66.66v7.38a.666.666,0,0,0,.66.66.666.666,0,0,0,.66-.66v-7.38A.656.656,0,0,0-26.67-10.98Zm-3.135.45v2.385h-3.1V-10.53Zm11.955-.96a.989.989,0,0,0-.99.99V-.3a.989.989,0,0,0,.99.99h7.2A.989.989,0,0,0-9.66-.3V-10.5a1,1,0,0,0-.99-.99Zm6.885,5.145h-6.57v-3.84h6.57Zm-6.57,1.29h6.57V-.6h-6.57ZM-3.69-.15a.682.682,0,0,0,.42-.825A17.406,17.406,0,0,1-3.21-9.84a.64.64,0,0,0-.42-.81.724.724,0,0,0-.87.465A18.336,18.336,0,0,0-4.545-.57.689.689,0,0,0-3.69-.15Zm2.4-7.665a16.979,16.979,0,0,0,5.6-.06.69.69,0,0,0,.54-.78.628.628,0,0,0-.75-.51A16.266,16.266,0,0,1-1.11-9.1a.633.633,0,0,0-.72.54A.671.671,0,0,0-1.29-7.815Zm6.42,6.54a.707.707,0,0,0,.435-.87.626.626,0,0,0-.81-.4A6.269,6.269,0,0,1-1.32-3.285a.632.632,0,0,0-.885.03.635.635,0,0,0,0,.93C-.24-.435,3.045-.57,5.13-1.275ZM11.745-4.41a.8.8,0,0,0,.375-.945.535.535,0,0,0-.8-.285c-.18.105-.375.21-.6.315v-2.85h.72a.653.653,0,0,0,.645-.66.65.65,0,0,0-.645-.645h-.72v-2.01a.637.637,0,0,0-.645-.63.637.637,0,0,0-.645.63v2.01h-.96a.65.65,0,0,0-.645.645.653.653,0,0,0,.645.66h.96v3.42c-.435.18-.87.33-1.26.45a.7.7,0,0,0-.48.81.626.626,0,0,0,.78.45c.3-.09.63-.21.96-.33V.315a.645.645,0,1,0,1.29,0v-4.23C11.085-4.08,11.43-4.245,11.745-4.41Zm8.835,4A6.626,6.626,0,0,1,18.915-2.16,11.5,11.5,0,0,0,20.46-3a.779.779,0,0,0,.225-.99.54.54,0,0,0-.825-.18,7.4,7.4,0,0,1-1.6.885,10.505,10.505,0,0,1-.765-2.01h2.55a.634.634,0,0,0,.63-.63.637.637,0,0,0-.63-.645h-6.5V-10.4H19.98a.65.65,0,0,0,.645-.645.65.65,0,0,0-.645-.645H13.155a.919.919,0,0,0-.915.915v4.59A20.357,20.357,0,0,1,11.355.045a.6.6,0,0,0,.435.8.784.784,0,0,0,.9-.51,24.267,24.267,0,0,0,.825-5.625h.555V-.5A.773.773,0,0,0,15,.27c.675-.15,1.44-.375,2.07-.585a.791.791,0,0,0,.51-.885.587.587,0,0,0-.78-.42,14.06,14.06,0,0,1-1.41.465v-4.14h.765a10.845,10.845,0,0,0,3.87,6.1.573.573,0,0,0,.84-.285A.784.784,0,0,0,20.58-.405ZM14.4-9.075a.65.65,0,0,0-.645.645.65.65,0,0,0,.645.645h4.89a.65.65,0,0,0,.645-.645.65.65,0,0,0-.645-.645Zm11.1,2.16a5.161,5.161,0,0,0,1.62,1.35.569.569,0,0,0,.81-.33.713.713,0,0,0-.36-.87,3.325,3.325,0,0,1-1.11-.96h1.4a.586.586,0,0,0,.585-.585.586.586,0,0,0-.585-.585H26.1v-.93h1.32a.583.583,0,0,0,.57-.585.593.593,0,0,0-.57-.585H26.1v-.495a.624.624,0,0,0-.63-.63.634.634,0,0,0-.63.63v.495H23.565a.6.6,0,0,0-.585.585.586.586,0,0,0,.585.585H24.84v.93H22.83a.586.586,0,0,0-.585.585.6.6,0,0,0,.585.585h1.65a5.067,5.067,0,0,1-2.115,1.77.741.741,0,0,0-.435.855.591.591,0,0,0,.81.405A6.775,6.775,0,0,0,25.5-6.915Zm9.1.75a7.16,7.16,0,0,1-2.01-1.56H34.23a.586.586,0,0,0,.585-.585.586.586,0,0,0-.585-.585H32.16v-.93h1.29a.573.573,0,0,0,.57-.585.583.583,0,0,0-.57-.585H32.16v-.495a.624.624,0,0,0-.63-.63.634.634,0,0,0-.63.63v.495H29.58a.6.6,0,0,0-.585.585.586.586,0,0,0,.585.585H30.9v.93H29.07a.589.589,0,0,0-.6.585.6.6,0,0,0,.6.585h1.44a3.787,3.787,0,0,1-1.4,1.08.663.663,0,0,0-.33.8.591.591,0,0,0,.765.375,4.408,4.408,0,0,0,2.01-1.53,7.855,7.855,0,0,0,2.625,2.07.577.577,0,0,0,.795-.36A.755.755,0,0,0,34.6-6.165Zm-9.33.975a1,1,0,0,0-.99.99V-.18a1,1,0,0,0,.99.99h6.45a1,1,0,0,0,.99-.99V-4.2a1,1,0,0,0-.99-.99Zm6.1,2.34H25.62V-3.9h5.76ZM25.62-1.575h5.76V-.48H25.62Zm22.92-7.68a.647.647,0,0,0,.63-.645.637.637,0,0,0-.63-.645h-.375a.6.6,0,0,0-.045-.48c-.135-.225-.3-.51-.48-.765a.717.717,0,0,0-.975-.225.581.581,0,0,0-.135.87c.15.18.285.4.42.6H45.735v-.945a.647.647,0,0,0-.645-.63.637.637,0,0,0-.645.63v.945H41.7a.65.65,0,0,0-.645.645.65.65,0,0,0,.645.645h2.745v.99H42.45a1,1,0,0,0-.99.99V.315a.638.638,0,1,0,1.275,0V-2.16h1.71V.135a.645.645,0,0,0,1.29,0V-2.16h1.71V-.45c0,.09-.015.1-.315.09a.6.6,0,0,0-.66.57A.677.677,0,0,0,47.1.9c1.1.03,1.62-.4,1.62-1.35V-7.275a1,1,0,0,0-.99-.99H45.735v-.99ZM40.995-6.27a.582.582,0,0,0-.765.285,4.664,4.664,0,0,1-.48.8c-.135-.135-.285-.27-.42-.39a14.734,14.734,0,0,0,1.515-3.54.787.787,0,0,0-.765-.99h-.81v-1.395a.634.634,0,0,0-.63-.63.634.634,0,0,0-.63.63v1.395H36.93a.644.644,0,0,0-.63.63.647.647,0,0,0,.63.645h2.565A10.906,10.906,0,0,1,36.42-4.02a.657.657,0,0,0-.12.885A.593.593,0,0,0,37.155-3a7.214,7.214,0,0,0,.855-.81V.3a.634.634,0,0,0,.63.63A.624.624,0,0,0,39.27.3V-3.915a6.372,6.372,0,0,1,.87,1.275.569.569,0,0,0,.81.225.661.661,0,0,0,.255-.87,6.748,6.748,0,0,0-.615-.945,5.45,5.45,0,0,0,.735-1.23A.641.641,0,0,0,40.995-6.27Zm3.45.42h-1.71V-6.99h1.71Zm3,0h-1.71V-6.99h1.71Zm-4.71,1.275h1.71V-3.45h-1.71Zm3,0h1.71V-3.45h-1.71Zm16.8,2.415V-4.815a.919.919,0,0,0-.915-.915h-1.8v-.525h3.015a.592.592,0,0,0,.6-.6.612.612,0,0,0-.6-.6h-1.65v-.66h1.02a.6.6,0,0,0,.585-.6.586.586,0,0,0-.585-.585h-1.02v-.675H62.43a.592.592,0,0,0,.6-.6.592.592,0,0,0-.6-.6H61.185v-.33a.618.618,0,0,0-.615-.615.631.631,0,0,0-.63.615v.33H58.47v-.33a.618.618,0,0,0-.615-.615.631.631,0,0,0-.63.615v.33H56.01a.6.6,0,0,0-.6.6.592.592,0,0,0,.6.6h1.215V-9.3h-.99a.586.586,0,0,0-.585.585.6.6,0,0,0,.585.6h.99v.66H55.6a.612.612,0,0,0-.6.6.592.592,0,0,0,.6.6h3v.525h-1.77a.919.919,0,0,0-.915.915V-2.16h-.33a.6.6,0,0,0-.6.6.6.6,0,0,0,.6.6h.33V.33a.623.623,0,1,0,1.245,0V-.96h4.11v.585a1.328,1.328,0,0,1-.435.015.651.651,0,0,0-.7.57.664.664,0,0,0,.615.72C61.9.96,62.535.525,62.535-.33V-.96h.315a.6.6,0,0,0,.6-.6.6.6,0,0,0-.6-.6Zm-8.22-8.325a.647.647,0,0,0,.645-.63.637.637,0,0,0-.645-.63h-2.76a.634.634,0,0,0-.63.63.644.644,0,0,0,.63.63Zm5.625.51V-9.3H58.47v-.675Zm-5.25,1.41a.624.624,0,0,0,.63-.63.634.634,0,0,0-.63-.63H51.195a.634.634,0,0,0-.63.63.624.624,0,0,0,.63.63Zm5.25.45v.66H58.47v-.66Zm-8.325.225a.634.634,0,0,0-.63.63.634.634,0,0,0,.63.63H54.27a.634.634,0,0,0,.63-.63.634.634,0,0,0-.63-.63Zm0,1.92a.634.634,0,0,0-.63.63.634.634,0,0,0,.63.63H54.27a.634.634,0,0,0,.63-.63.644.644,0,0,0-.63-.63ZM58.6-3.93h-1.44v-.63H58.6Zm2.67,0H59.82v-.63h1.455ZM51.945-4a.989.989,0,0,0-.99.99v2.85a.989.989,0,0,0,.99.99H53.97a.989.989,0,0,0,.99-.99v-2.85A.989.989,0,0,0,53.97-4ZM52.2-.345v-2.49h1.545v2.49Zm6.4-2.43v.615h-1.44v-.615Zm1.215,0h1.455v.615H59.82Zm11.43.5a.586.586,0,0,0,.585-.585l.195-8.01a.778.778,0,0,0-.78-.8.778.778,0,0,0-.78.8l.195,8.01A.586.586,0,0,0,71.25-2.28Zm0,2.79A1.034,1.034,0,0,0,72.285-.51,1.037,1.037,0,0,0,71.25-1.545,1.047,1.047,0,0,0,70.215-.51,1.034,1.034,0,0,0,71.25.51Z" transform="translate(99.955 34.055)" fill="#fff"/>
      <path id="Path_11" data-name="Path 11" d="M8.181,0,0,8.181H16.362Z" transform="translate(91.543)" fill="#aaf"/>
    </g>
    <g id="arrow" transform="translate(1694.353 -6653.073) rotate(71)" fill="#aaf">
      <path d="M 0.8137872219085693 38.57233810424805 L -0.9805527925491333 37.79492568969727 C -0.2949627935886383 34.36943817138672 0.7132672071456909 31.15582656860352 2.016127109527588 28.24337577819824 C 3.471557140350342 24.9898567199707 5.309357166290283 22.08309555053711 7.478466987609863 19.60383605957031 C 12.32916927337646 14.05955028533936 18.84603309631348 10.58728218078613 26.85745811462402 9.275271415710449 L 26.85745811462402 -3.604736320994562e-06 L 26.85745811462402 -2.41421365737915 L 28.56456756591797 -0.7071136236190796 L 46.29286575317383 17.02119636535645 L 46.99996566772461 17.72830581665039 L 46.29286575317383 18.43541717529297 L 28.56456756591797 36.16371536254883 L 26.85745811462402 37.87081527709961 L 26.85745811462402 35.45660781860352 L 26.85745811462402 26.08098983764648 C 15.03242111206055 26.29177474975586 6.738279342651367 30.27633666992188 0.8137872219085693 38.57233810424805 Z" stroke="none"/>
      <path d="M 27.85745811462402 -3.814697265625e-06 L 27.85745811462402 10.13371658325195 C 10.12915802001953 12.66372680664062 2.534568786621094 25.32744598388672 -3.814697265625e-06 37.99117660522461 C 6.331867218017578 29.12473678588867 15.19372749328613 25.07216644287109 27.85745811462402 25.07216644287109 L 27.85745811462402 35.45660781860352 L 45.58575820922852 17.72830581665039 L 27.85745811462402 -3.814697265625e-06 M 25.85745811462402 -4.828433990478516 L 48.41418838500977 17.72830581665039 L 25.85745811462402 40.28503799438477 L 25.85745811462402 27.10901260375977 C 14.91428565979004 27.51971054077148 7.181476593017578 31.37644195556641 1.627578735351562 39.15349578857422 L -1.961112976074219 37.59867477416992 C -1.260932922363281 34.10029602050781 -0.2299118041992188 30.81533622741699 1.103298187255859 27.83502578735352 C 2.59942626953125 24.49054718017578 4.491127014160156 21.49963569641113 6.725845336914062 18.94537544250488 C 11.56341171264648 13.41611480712891 17.99298095703125 9.88519287109375 25.85745811462402 8.434307098388672 L 25.85745811462402 -4.828433990478516 Z" stroke="none" fill="#fff"/>
    </g>
    <g id="title" transform="translate(1489 -6819.8)">
      <g id="Rectangle_64" data-name="Rectangle 64" transform="translate(0 -0.001)" fill="#fff" stroke="#ddd" stroke-width="1">
        <rect width="320" height="37" stroke="none"/>
        <rect x="0.5" y="0.5" width="319" height="36" fill="none"/>
      </g>
      <path id="Path_451725" data-name="Path 451725" d="M-90.635-.858V-7.7h-.924V0h6.82V-.858Zm11.649,0V-3.487h5.434v-.858h-5.434v-2.5h6.413V-7.7H-79.91V0h7.447V-.858Zm15.422-3.531c-1.815-.143-3.267-.341-3.267-1.3,0-1.012,1.606-1.4,2.981-1.386A4.51,4.51,0,0,1-60.682-5.94l.726-.616a5.918,5.918,0,0,0-3.938-1.375c-2.057,0-3.883.825-3.883,2.277,0,1.518,1.969,1.969,4.026,2.145,2.079.176,3.212.407,3.212,1.342,0,.957-1.089,1.54-2.948,1.54a5.562,5.562,0,0,1-3.9-1.419l-.649.693a6.771,6.771,0,0,0,4.5,1.584c2.508,0,3.949-1.045,3.949-2.464C-59.593-3.751-61.221-4.2-63.564-4.389Zm12.8,0c-1.815-.143-3.267-.341-3.267-1.3,0-1.012,1.606-1.4,2.981-1.386A4.51,4.51,0,0,1-47.878-5.94l.726-.616A5.918,5.918,0,0,0-51.09-7.931c-2.057,0-3.883.825-3.883,2.277,0,1.518,1.969,1.969,4.026,2.145,2.079.176,3.212.407,3.212,1.342,0,.957-1.089,1.54-2.948,1.54a5.562,5.562,0,0,1-3.9-1.419l-.649.693a6.771,6.771,0,0,0,4.5,1.584c2.508,0,3.949-1.045,3.949-2.464C-46.789-3.751-48.417-4.2-50.76-4.389ZM-37.571.231c2.926,0,4.686-1.573,4.686-4.081s-1.76-4.081-4.686-4.081-4.686,1.573-4.686,4.081S-40.5.231-37.571.231Zm0-.858c-2.266,0-3.74-1.155-3.74-3.223s1.474-3.223,3.74-3.223,3.74,1.155,3.74,3.223S-35.3-.627-37.571-.627ZM-20.323-7.7v6.347L-26.6-7.7h-1V0h.9V-6.523L-20.235,0h.814V-7.7Zm17.3,3.311c-1.815-.143-3.267-.341-3.267-1.3,0-1.012,1.606-1.4,2.981-1.386A4.51,4.51,0,0,1-.138-5.94l.726-.616A5.918,5.918,0,0,0-3.35-7.931c-2.057,0-3.883.825-3.883,2.277,0,1.518,1.969,1.969,4.026,2.145C-1.128-3.333.005-3.1.005-2.167c0,.957-1.089,1.54-2.948,1.54A5.562,5.562,0,0,1-6.848-2.046l-.649.693A6.771,6.771,0,0,0-3,.231C-.49.231.951-.814.951-2.233.951-3.751-.677-4.2-3.02-4.389ZM10.136-.627c-2.233,0-3.707-1.1-3.707-3.223S7.9-7.073,10.136-7.073A3.3,3.3,0,0,1,13.183-5.6l.88-.44a4.409,4.409,0,0,0-3.916-1.892c-2.9,0-4.664,1.584-4.664,4.081S7.243.231,10.114.231a4.406,4.406,0,0,0,3.949-1.892l-.88-.44A3.269,3.269,0,0,1,10.136-.627ZM26.372-7.7v3.355H20.036V-7.7h-.924V0h.924V-3.465h6.336V0H27.3V-7.7Zm7.7,6.842V-3.487h5.434v-.858H34.072v-2.5h6.413V-7.7H33.148V0H40.6V-.858ZM49.538-7.7H45.8V0h3.74c2.816,0,4.62-1.485,4.62-3.85S52.354-7.7,49.538-7.7ZM49.472-.858h-2.75V-6.842h2.75c2.189,0,3.74,1.023,3.74,2.992S51.661-.858,49.472-.858ZM66.489-7.7v4.015A2.838,2.838,0,0,1,63.354-.627a2.842,2.842,0,0,1-3.146-3.058V-7.7h-.924v4.07c0,2.244,1.419,3.861,4.07,3.861s4.059-1.617,4.059-3.861V-7.7ZM74.035-.858V-7.7h-.924V0h6.82V-.858Zm11.649,0V-3.487h5.434v-.858H85.684v-2.5H92.1V-7.7H84.76V0h7.447V-.858Z" transform="translate(160 22.999)" fill="#222"/>
    </g>
    <path id="Path_451726" data-name="Path 451726" d="M-3.4-2.04A3.117,3.117,0,0,0-2.79-.876,3.428,3.428,0,0,0-.1.108C1.9.108,3.15-.9,3.15-2.52a2.2,2.2,0,0,0-.8-1.812A2.574,2.574,0,0,0,.87-4.848,2.464,2.464,0,0,0,2-5.28a2.108,2.108,0,0,0,.84-1.752c0-1.44-1.1-2.352-2.844-2.352a3.117,3.117,0,0,0-2.388.876,2.735,2.735,0,0,0-.648,1.2l1,.216a2.271,2.271,0,0,1,.384-.852,1.885,1.885,0,0,1,1.6-.636c1.212,0,1.932.6,1.932,1.632a1.653,1.653,0,0,1-.48,1.164,2.4,2.4,0,0,1-1.752.552A5.118,5.118,0,0,1-1.254-5.3v.948a8.415,8.415,0,0,1,.96-.06c1.6,0,2.448.648,2.448,1.836,0,1.14-.876,1.86-2.268,1.86a2.646,2.646,0,0,1-1.548-.432,1.812,1.812,0,0,1-.732-1.14Z" transform="translate(1604 -6709.8)" fill="#222"/>
    <rect id="Rectangle_108609" data-name="Rectangle 108609" width="39" height="38" transform="translate(1630 -6733.801)" fill="#faf7e3"/>
    <g id="_3" data-name="○" transform="translate(1625.724 -6738.767)" fill="none" stroke="#99e" stroke-width="5">
      <circle cx="24.01" cy="24.01" r="24.01" stroke="none"/>
      <circle cx="24.01" cy="24.01" r="21.51" fill="none"/>
    </g>
    <path id="Path_451727" data-name="Path 451727" d="M3.984-3.528a7.9,7.9,0,0,1-1.212.084h-.42V-7.38a16.89,16.89,0,0,1,.084-2.028H.816a11.421,11.421,0,0,1-1,1.32l-2.844,3.48c-.42.5-.552.66-.96,1.1v1.476c.408-.036.792-.048,1.5-.048H.84v.828A7.654,7.654,0,0,1,.744.144h1.7a7.457,7.457,0,0,1-.1-1.368v-.852h.432a9.261,9.261,0,0,1,1.2.084Zm-3.132.1h-3.06L.1-6.288c.432-.528.576-.72.816-1.068a13.58,13.58,0,0,0-.06,1.44Z" transform="translate(1649 -6710.801)" fill="#222"/>
  </g>
</svg>
