<svg xmlns="http://www.w3.org/2000/svg" xmlns:xlink="http://www.w3.org/1999/xlink" width="370" height="140" viewBox="0 0 370 140">
  <defs>
    <clipPath id="clip-path">
      <rect width="370" height="140" fill="none"/>
    </clipPath>
  </defs>
  <g id="Group_196832" data-name="Group 196832" transform="translate(-495 -19623)">
    <rect id="_0358_original" data-name="0358_original" width="370" height="140" transform="translate(495 19623)" fill="#b96" opacity="0.1"/>
    <g id="Repeat_Grid_327" data-name="Repeat Grid 327" transform="translate(495 19623)" opacity="0.6" clip-path="url(#clip-path)">
      <g transform="translate(-7687 38)">
        <circle id="Ellipse_11697" data-name="Ellipse 11697" cx="3" cy="3" r="3" transform="translate(7687 -38)" fill="#fff"/>
        <circle id="Ellipse_11698" data-name="Ellipse 11698" cx="3" cy="3" r="3" transform="translate(7708 -38)" fill="#fff"/>
      </g>
      <g transform="translate(-7645 38)">
        <circle id="Ellipse_11697-2" data-name="Ellipse 11697" cx="3" cy="3" r="3" transform="translate(7687 -38)" fill="#fff"/>
        <circle id="Ellipse_11698-2" data-name="Ellipse 11698" cx="3" cy="3" r="3" transform="translate(7708 -38)" fill="#fff"/>
      </g>
      <g transform="translate(-7603 38)">
        <circle id="Ellipse_11697-3" data-name="Ellipse 11697" cx="3" cy="3" r="3" transform="translate(7687 -38)" fill="#fff"/>
        <circle id="Ellipse_11698-3" data-name="Ellipse 11698" cx="3" cy="3" r="3" transform="translate(7708 -38)" fill="#fff"/>
      </g>
      <g transform="translate(-7561 38)">
        <circle id="Ellipse_11697-4" data-name="Ellipse 11697" cx="3" cy="3" r="3" transform="translate(7687 -38)" fill="#fff"/>
        <circle id="Ellipse_11698-4" data-name="Ellipse 11698" cx="3" cy="3" r="3" transform="translate(7708 -38)" fill="#fff"/>
      </g>
      <g transform="translate(-7519 38)">
        <circle id="Ellipse_11697-5" data-name="Ellipse 11697" cx="3" cy="3" r="3" transform="translate(7687 -38)" fill="#fff"/>
        <circle id="Ellipse_11698-5" data-name="Ellipse 11698" cx="3" cy="3" r="3" transform="translate(7708 -38)" fill="#fff"/>
      </g>
      <g transform="translate(-7477 38)">
        <circle id="Ellipse_11697-6" data-name="Ellipse 11697" cx="3" cy="3" r="3" transform="translate(7687 -38)" fill="#fff"/>
        <circle id="Ellipse_11698-6" data-name="Ellipse 11698" cx="3" cy="3" r="3" transform="translate(7708 -38)" fill="#fff"/>
      </g>
      <g transform="translate(-7435 38)">
        <circle id="Ellipse_11697-7" data-name="Ellipse 11697" cx="3" cy="3" r="3" transform="translate(7687 -38)" fill="#fff"/>
        <circle id="Ellipse_11698-7" data-name="Ellipse 11698" cx="3" cy="3" r="3" transform="translate(7708 -38)" fill="#fff"/>
      </g>
      <g transform="translate(-7393 38)">
        <circle id="Ellipse_11697-8" data-name="Ellipse 11697" cx="3" cy="3" r="3" transform="translate(7687 -38)" fill="#fff"/>
        <circle id="Ellipse_11698-8" data-name="Ellipse 11698" cx="3" cy="3" r="3" transform="translate(7708 -38)" fill="#fff"/>
      </g>
      <g transform="translate(-7351 38)">
        <circle id="Ellipse_11697-9" data-name="Ellipse 11697" cx="3" cy="3" r="3" transform="translate(7687 -38)" fill="#fff"/>
        <circle id="Ellipse_11698-9" data-name="Ellipse 11698" cx="3" cy="3" r="3" transform="translate(7708 -38)" fill="#fff"/>
      </g>
      <g transform="translate(-7687 60)">
        <circle id="Ellipse_11697-10" data-name="Ellipse 11697" cx="3" cy="3" r="3" transform="translate(7687 -38)" fill="#fff"/>
        <circle id="Ellipse_11698-10" data-name="Ellipse 11698" cx="3" cy="3" r="3" transform="translate(7708 -38)" fill="#fff"/>
      </g>
      <g transform="translate(-7645 60)">
        <circle id="Ellipse_11697-11" data-name="Ellipse 11697" cx="3" cy="3" r="3" transform="translate(7687 -38)" fill="#fff"/>
        <circle id="Ellipse_11698-11" data-name="Ellipse 11698" cx="3" cy="3" r="3" transform="translate(7708 -38)" fill="#fff"/>
      </g>
      <g transform="translate(-7603 60)">
        <circle id="Ellipse_11697-12" data-name="Ellipse 11697" cx="3" cy="3" r="3" transform="translate(7687 -38)" fill="#fff"/>
        <circle id="Ellipse_11698-12" data-name="Ellipse 11698" cx="3" cy="3" r="3" transform="translate(7708 -38)" fill="#fff"/>
      </g>
      <g transform="translate(-7561 60)">
        <circle id="Ellipse_11697-13" data-name="Ellipse 11697" cx="3" cy="3" r="3" transform="translate(7687 -38)" fill="#fff"/>
        <circle id="Ellipse_11698-13" data-name="Ellipse 11698" cx="3" cy="3" r="3" transform="translate(7708 -38)" fill="#fff"/>
      </g>
      <g transform="translate(-7519 60)">
        <circle id="Ellipse_11697-14" data-name="Ellipse 11697" cx="3" cy="3" r="3" transform="translate(7687 -38)" fill="#fff"/>
        <circle id="Ellipse_11698-14" data-name="Ellipse 11698" cx="3" cy="3" r="3" transform="translate(7708 -38)" fill="#fff"/>
      </g>
      <g transform="translate(-7477 60)">
        <circle id="Ellipse_11697-15" data-name="Ellipse 11697" cx="3" cy="3" r="3" transform="translate(7687 -38)" fill="#fff"/>
        <circle id="Ellipse_11698-15" data-name="Ellipse 11698" cx="3" cy="3" r="3" transform="translate(7708 -38)" fill="#fff"/>
      </g>
      <g transform="translate(-7435 60)">
        <circle id="Ellipse_11697-16" data-name="Ellipse 11697" cx="3" cy="3" r="3" transform="translate(7687 -38)" fill="#fff"/>
        <circle id="Ellipse_11698-16" data-name="Ellipse 11698" cx="3" cy="3" r="3" transform="translate(7708 -38)" fill="#fff"/>
      </g>
      <g transform="translate(-7393 60)">
        <circle id="Ellipse_11697-17" data-name="Ellipse 11697" cx="3" cy="3" r="3" transform="translate(7687 -38)" fill="#fff"/>
        <circle id="Ellipse_11698-17" data-name="Ellipse 11698" cx="3" cy="3" r="3" transform="translate(7708 -38)" fill="#fff"/>
      </g>
      <g transform="translate(-7351 60)">
        <circle id="Ellipse_11697-18" data-name="Ellipse 11697" cx="3" cy="3" r="3" transform="translate(7687 -38)" fill="#fff"/>
        <circle id="Ellipse_11698-18" data-name="Ellipse 11698" cx="3" cy="3" r="3" transform="translate(7708 -38)" fill="#fff"/>
      </g>
      <g transform="translate(-7687 82)">
        <circle id="Ellipse_11697-19" data-name="Ellipse 11697" cx="3" cy="3" r="3" transform="translate(7687 -38)" fill="#fff"/>
        <circle id="Ellipse_11698-19" data-name="Ellipse 11698" cx="3" cy="3" r="3" transform="translate(7708 -38)" fill="#fff"/>
      </g>
      <g transform="translate(-7645 82)">
        <circle id="Ellipse_11697-20" data-name="Ellipse 11697" cx="3" cy="3" r="3" transform="translate(7687 -38)" fill="#fff"/>
        <circle id="Ellipse_11698-20" data-name="Ellipse 11698" cx="3" cy="3" r="3" transform="translate(7708 -38)" fill="#fff"/>
      </g>
      <g transform="translate(-7603 82)">
        <circle id="Ellipse_11697-21" data-name="Ellipse 11697" cx="3" cy="3" r="3" transform="translate(7687 -38)" fill="#fff"/>
        <circle id="Ellipse_11698-21" data-name="Ellipse 11698" cx="3" cy="3" r="3" transform="translate(7708 -38)" fill="#fff"/>
      </g>
      <g transform="translate(-7561 82)">
        <circle id="Ellipse_11697-22" data-name="Ellipse 11697" cx="3" cy="3" r="3" transform="translate(7687 -38)" fill="#fff"/>
        <circle id="Ellipse_11698-22" data-name="Ellipse 11698" cx="3" cy="3" r="3" transform="translate(7708 -38)" fill="#fff"/>
      </g>
      <g transform="translate(-7519 82)">
        <circle id="Ellipse_11697-23" data-name="Ellipse 11697" cx="3" cy="3" r="3" transform="translate(7687 -38)" fill="#fff"/>
        <circle id="Ellipse_11698-23" data-name="Ellipse 11698" cx="3" cy="3" r="3" transform="translate(7708 -38)" fill="#fff"/>
      </g>
      <g transform="translate(-7477 82)">
        <circle id="Ellipse_11697-24" data-name="Ellipse 11697" cx="3" cy="3" r="3" transform="translate(7687 -38)" fill="#fff"/>
        <circle id="Ellipse_11698-24" data-name="Ellipse 11698" cx="3" cy="3" r="3" transform="translate(7708 -38)" fill="#fff"/>
      </g>
      <g transform="translate(-7435 82)">
        <circle id="Ellipse_11697-25" data-name="Ellipse 11697" cx="3" cy="3" r="3" transform="translate(7687 -38)" fill="#fff"/>
        <circle id="Ellipse_11698-25" data-name="Ellipse 11698" cx="3" cy="3" r="3" transform="translate(7708 -38)" fill="#fff"/>
      </g>
      <g transform="translate(-7393 82)">
        <circle id="Ellipse_11697-26" data-name="Ellipse 11697" cx="3" cy="3" r="3" transform="translate(7687 -38)" fill="#fff"/>
        <circle id="Ellipse_11698-26" data-name="Ellipse 11698" cx="3" cy="3" r="3" transform="translate(7708 -38)" fill="#fff"/>
      </g>
      <g transform="translate(-7351 82)">
        <circle id="Ellipse_11697-27" data-name="Ellipse 11697" cx="3" cy="3" r="3" transform="translate(7687 -38)" fill="#fff"/>
        <circle id="Ellipse_11698-27" data-name="Ellipse 11698" cx="3" cy="3" r="3" transform="translate(7708 -38)" fill="#fff"/>
      </g>
      <g transform="translate(-7687 104)">
        <circle id="Ellipse_11697-28" data-name="Ellipse 11697" cx="3" cy="3" r="3" transform="translate(7687 -38)" fill="#fff"/>
        <circle id="Ellipse_11698-28" data-name="Ellipse 11698" cx="3" cy="3" r="3" transform="translate(7708 -38)" fill="#fff"/>
      </g>
      <g transform="translate(-7645 104)">
        <circle id="Ellipse_11697-29" data-name="Ellipse 11697" cx="3" cy="3" r="3" transform="translate(7687 -38)" fill="#fff"/>
        <circle id="Ellipse_11698-29" data-name="Ellipse 11698" cx="3" cy="3" r="3" transform="translate(7708 -38)" fill="#fff"/>
      </g>
      <g transform="translate(-7603 104)">
        <circle id="Ellipse_11697-30" data-name="Ellipse 11697" cx="3" cy="3" r="3" transform="translate(7687 -38)" fill="#fff"/>
        <circle id="Ellipse_11698-30" data-name="Ellipse 11698" cx="3" cy="3" r="3" transform="translate(7708 -38)" fill="#fff"/>
      </g>
      <g transform="translate(-7561 104)">
        <circle id="Ellipse_11697-31" data-name="Ellipse 11697" cx="3" cy="3" r="3" transform="translate(7687 -38)" fill="#fff"/>
        <circle id="Ellipse_11698-31" data-name="Ellipse 11698" cx="3" cy="3" r="3" transform="translate(7708 -38)" fill="#fff"/>
      </g>
      <g transform="translate(-7519 104)">
        <circle id="Ellipse_11697-32" data-name="Ellipse 11697" cx="3" cy="3" r="3" transform="translate(7687 -38)" fill="#fff"/>
        <circle id="Ellipse_11698-32" data-name="Ellipse 11698" cx="3" cy="3" r="3" transform="translate(7708 -38)" fill="#fff"/>
      </g>
      <g transform="translate(-7477 104)">
        <circle id="Ellipse_11697-33" data-name="Ellipse 11697" cx="3" cy="3" r="3" transform="translate(7687 -38)" fill="#fff"/>
        <circle id="Ellipse_11698-33" data-name="Ellipse 11698" cx="3" cy="3" r="3" transform="translate(7708 -38)" fill="#fff"/>
      </g>
      <g transform="translate(-7435 104)">
        <circle id="Ellipse_11697-34" data-name="Ellipse 11697" cx="3" cy="3" r="3" transform="translate(7687 -38)" fill="#fff"/>
        <circle id="Ellipse_11698-34" data-name="Ellipse 11698" cx="3" cy="3" r="3" transform="translate(7708 -38)" fill="#fff"/>
      </g>
      <g transform="translate(-7393 104)">
        <circle id="Ellipse_11697-35" data-name="Ellipse 11697" cx="3" cy="3" r="3" transform="translate(7687 -38)" fill="#fff"/>
        <circle id="Ellipse_11698-35" data-name="Ellipse 11698" cx="3" cy="3" r="3" transform="translate(7708 -38)" fill="#fff"/>
      </g>
      <g transform="translate(-7351 104)">
        <circle id="Ellipse_11697-36" data-name="Ellipse 11697" cx="3" cy="3" r="3" transform="translate(7687 -38)" fill="#fff"/>
        <circle id="Ellipse_11698-36" data-name="Ellipse 11698" cx="3" cy="3" r="3" transform="translate(7708 -38)" fill="#fff"/>
      </g>
      <g transform="translate(-7687 126)">
        <circle id="Ellipse_11697-37" data-name="Ellipse 11697" cx="3" cy="3" r="3" transform="translate(7687 -38)" fill="#fff"/>
        <circle id="Ellipse_11698-37" data-name="Ellipse 11698" cx="3" cy="3" r="3" transform="translate(7708 -38)" fill="#fff"/>
      </g>
      <g transform="translate(-7645 126)">
        <circle id="Ellipse_11697-38" data-name="Ellipse 11697" cx="3" cy="3" r="3" transform="translate(7687 -38)" fill="#fff"/>
        <circle id="Ellipse_11698-38" data-name="Ellipse 11698" cx="3" cy="3" r="3" transform="translate(7708 -38)" fill="#fff"/>
      </g>
      <g transform="translate(-7603 126)">
        <circle id="Ellipse_11697-39" data-name="Ellipse 11697" cx="3" cy="3" r="3" transform="translate(7687 -38)" fill="#fff"/>
        <circle id="Ellipse_11698-39" data-name="Ellipse 11698" cx="3" cy="3" r="3" transform="translate(7708 -38)" fill="#fff"/>
      </g>
      <g transform="translate(-7561 126)">
        <circle id="Ellipse_11697-40" data-name="Ellipse 11697" cx="3" cy="3" r="3" transform="translate(7687 -38)" fill="#fff"/>
        <circle id="Ellipse_11698-40" data-name="Ellipse 11698" cx="3" cy="3" r="3" transform="translate(7708 -38)" fill="#fff"/>
      </g>
      <g transform="translate(-7519 126)">
        <circle id="Ellipse_11697-41" data-name="Ellipse 11697" cx="3" cy="3" r="3" transform="translate(7687 -38)" fill="#fff"/>
        <circle id="Ellipse_11698-41" data-name="Ellipse 11698" cx="3" cy="3" r="3" transform="translate(7708 -38)" fill="#fff"/>
      </g>
      <g transform="translate(-7477 126)">
        <circle id="Ellipse_11697-42" data-name="Ellipse 11697" cx="3" cy="3" r="3" transform="translate(7687 -38)" fill="#fff"/>
        <circle id="Ellipse_11698-42" data-name="Ellipse 11698" cx="3" cy="3" r="3" transform="translate(7708 -38)" fill="#fff"/>
      </g>
      <g transform="translate(-7435 126)">
        <circle id="Ellipse_11697-43" data-name="Ellipse 11697" cx="3" cy="3" r="3" transform="translate(7687 -38)" fill="#fff"/>
        <circle id="Ellipse_11698-43" data-name="Ellipse 11698" cx="3" cy="3" r="3" transform="translate(7708 -38)" fill="#fff"/>
      </g>
      <g transform="translate(-7393 126)">
        <circle id="Ellipse_11697-44" data-name="Ellipse 11697" cx="3" cy="3" r="3" transform="translate(7687 -38)" fill="#fff"/>
        <circle id="Ellipse_11698-44" data-name="Ellipse 11698" cx="3" cy="3" r="3" transform="translate(7708 -38)" fill="#fff"/>
      </g>
      <g transform="translate(-7351 126)">
        <circle id="Ellipse_11697-45" data-name="Ellipse 11697" cx="3" cy="3" r="3" transform="translate(7687 -38)" fill="#fff"/>
        <circle id="Ellipse_11698-45" data-name="Ellipse 11698" cx="3" cy="3" r="3" transform="translate(7708 -38)" fill="#fff"/>
      </g>
      <g transform="translate(-7687 148)">
        <circle id="Ellipse_11697-46" data-name="Ellipse 11697" cx="3" cy="3" r="3" transform="translate(7687 -38)" fill="#fff"/>
        <circle id="Ellipse_11698-46" data-name="Ellipse 11698" cx="3" cy="3" r="3" transform="translate(7708 -38)" fill="#fff"/>
      </g>
      <g transform="translate(-7645 148)">
        <circle id="Ellipse_11697-47" data-name="Ellipse 11697" cx="3" cy="3" r="3" transform="translate(7687 -38)" fill="#fff"/>
        <circle id="Ellipse_11698-47" data-name="Ellipse 11698" cx="3" cy="3" r="3" transform="translate(7708 -38)" fill="#fff"/>
      </g>
      <g transform="translate(-7603 148)">
        <circle id="Ellipse_11697-48" data-name="Ellipse 11697" cx="3" cy="3" r="3" transform="translate(7687 -38)" fill="#fff"/>
        <circle id="Ellipse_11698-48" data-name="Ellipse 11698" cx="3" cy="3" r="3" transform="translate(7708 -38)" fill="#fff"/>
      </g>
      <g transform="translate(-7561 148)">
        <circle id="Ellipse_11697-49" data-name="Ellipse 11697" cx="3" cy="3" r="3" transform="translate(7687 -38)" fill="#fff"/>
        <circle id="Ellipse_11698-49" data-name="Ellipse 11698" cx="3" cy="3" r="3" transform="translate(7708 -38)" fill="#fff"/>
      </g>
      <g transform="translate(-7519 148)">
        <circle id="Ellipse_11697-50" data-name="Ellipse 11697" cx="3" cy="3" r="3" transform="translate(7687 -38)" fill="#fff"/>
        <circle id="Ellipse_11698-50" data-name="Ellipse 11698" cx="3" cy="3" r="3" transform="translate(7708 -38)" fill="#fff"/>
      </g>
      <g transform="translate(-7477 148)">
        <circle id="Ellipse_11697-51" data-name="Ellipse 11697" cx="3" cy="3" r="3" transform="translate(7687 -38)" fill="#fff"/>
        <circle id="Ellipse_11698-51" data-name="Ellipse 11698" cx="3" cy="3" r="3" transform="translate(7708 -38)" fill="#fff"/>
      </g>
      <g transform="translate(-7435 148)">
        <circle id="Ellipse_11697-52" data-name="Ellipse 11697" cx="3" cy="3" r="3" transform="translate(7687 -38)" fill="#fff"/>
        <circle id="Ellipse_11698-52" data-name="Ellipse 11698" cx="3" cy="3" r="3" transform="translate(7708 -38)" fill="#fff"/>
      </g>
      <g transform="translate(-7393 148)">
        <circle id="Ellipse_11697-53" data-name="Ellipse 11697" cx="3" cy="3" r="3" transform="translate(7687 -38)" fill="#fff"/>
        <circle id="Ellipse_11698-53" data-name="Ellipse 11698" cx="3" cy="3" r="3" transform="translate(7708 -38)" fill="#fff"/>
      </g>
      <g transform="translate(-7351 148)">
        <circle id="Ellipse_11697-54" data-name="Ellipse 11697" cx="3" cy="3" r="3" transform="translate(7687 -38)" fill="#fff"/>
        <circle id="Ellipse_11698-54" data-name="Ellipse 11698" cx="3" cy="3" r="3" transform="translate(7708 -38)" fill="#fff"/>
      </g>
      <g transform="translate(-7687 170)">
        <circle id="Ellipse_11697-55" data-name="Ellipse 11697" cx="3" cy="3" r="3" transform="translate(7687 -38)" fill="#fff"/>
        <circle id="Ellipse_11698-55" data-name="Ellipse 11698" cx="3" cy="3" r="3" transform="translate(7708 -38)" fill="#fff"/>
      </g>
      <g transform="translate(-7645 170)">
        <circle id="Ellipse_11697-56" data-name="Ellipse 11697" cx="3" cy="3" r="3" transform="translate(7687 -38)" fill="#fff"/>
        <circle id="Ellipse_11698-56" data-name="Ellipse 11698" cx="3" cy="3" r="3" transform="translate(7708 -38)" fill="#fff"/>
      </g>
      <g transform="translate(-7603 170)">
        <circle id="Ellipse_11697-57" data-name="Ellipse 11697" cx="3" cy="3" r="3" transform="translate(7687 -38)" fill="#fff"/>
        <circle id="Ellipse_11698-57" data-name="Ellipse 11698" cx="3" cy="3" r="3" transform="translate(7708 -38)" fill="#fff"/>
      </g>
      <g transform="translate(-7561 170)">
        <circle id="Ellipse_11697-58" data-name="Ellipse 11697" cx="3" cy="3" r="3" transform="translate(7687 -38)" fill="#fff"/>
        <circle id="Ellipse_11698-58" data-name="Ellipse 11698" cx="3" cy="3" r="3" transform="translate(7708 -38)" fill="#fff"/>
      </g>
      <g transform="translate(-7519 170)">
        <circle id="Ellipse_11697-59" data-name="Ellipse 11697" cx="3" cy="3" r="3" transform="translate(7687 -38)" fill="#fff"/>
        <circle id="Ellipse_11698-59" data-name="Ellipse 11698" cx="3" cy="3" r="3" transform="translate(7708 -38)" fill="#fff"/>
      </g>
      <g transform="translate(-7477 170)">
        <circle id="Ellipse_11697-60" data-name="Ellipse 11697" cx="3" cy="3" r="3" transform="translate(7687 -38)" fill="#fff"/>
        <circle id="Ellipse_11698-60" data-name="Ellipse 11698" cx="3" cy="3" r="3" transform="translate(7708 -38)" fill="#fff"/>
      </g>
      <g transform="translate(-7435 170)">
        <circle id="Ellipse_11697-61" data-name="Ellipse 11697" cx="3" cy="3" r="3" transform="translate(7687 -38)" fill="#fff"/>
        <circle id="Ellipse_11698-61" data-name="Ellipse 11698" cx="3" cy="3" r="3" transform="translate(7708 -38)" fill="#fff"/>
      </g>
      <g transform="translate(-7393 170)">
        <circle id="Ellipse_11697-62" data-name="Ellipse 11697" cx="3" cy="3" r="3" transform="translate(7687 -38)" fill="#fff"/>
        <circle id="Ellipse_11698-62" data-name="Ellipse 11698" cx="3" cy="3" r="3" transform="translate(7708 -38)" fill="#fff"/>
      </g>
      <g transform="translate(-7351 170)">
        <circle id="Ellipse_11697-63" data-name="Ellipse 11697" cx="3" cy="3" r="3" transform="translate(7687 -38)" fill="#fff"/>
        <circle id="Ellipse_11698-63" data-name="Ellipse 11698" cx="3" cy="3" r="3" transform="translate(7708 -38)" fill="#fff"/>
      </g>
    </g>
  </g>
</svg>
