<svg xmlns="http://www.w3.org/2000/svg" width="20" height="20.006" viewBox="0 0 20 20.006">
  <path id="icon" d="M-14.778,44.441l-5.982-5.984a7.541,7.541,0,0,0,1.4-4.385A7.574,7.574,0,0,0-26.928,26.5,7.575,7.575,0,0,0-34.5,34.072a7.575,7.575,0,0,0,7.573,7.575,7.527,7.527,0,0,0,4.383-1.4l5.982,5.984a.946.946,0,0,0,1.338,0l.446-.446A.948.948,0,0,0-14.778,44.441Zm-12.151-5.319a5.051,5.051,0,0,1-5.049-5.051,5.05,5.05,0,0,1,5.049-5.05,5.049,5.049,0,0,1,5.048,5.05A5.05,5.05,0,0,1-26.928,39.122Z" transform="translate(34.501 -26.497)" fill="#fff"/>
</svg>
