<svg xmlns="http://www.w3.org/2000/svg" xmlns:xlink="http://www.w3.org/1999/xlink" width="24" height="24" viewBox="0 0 24 24">
  <defs>
    <linearGradient id="linear-gradient" x1="0.051" y1="0.183" x2="0.776" y2="0.969" gradientUnits="objectBoundingBox">
      <stop offset="0" stop-color="#bbf"/>
      <stop offset="1" stop-color="#6bf"/>
    </linearGradient>
  </defs>
  <path id="filter" d="M23.461,0H1.529A1.034,1.034,0,0,0,.611.546,1,1,0,0,0,.692,1.607L8.727,12.649l.008.011a2.2,2.2,0,0,1,.451,1.329v9a.988.988,0,0,0,.3.712,1.039,1.039,0,0,0,.728.3,1.08,1.08,0,0,0,.4-.079l4.515-1.68a.956.956,0,0,0,.673-.941V13.99a2.2,2.2,0,0,1,.45-1.329l.008-.011L24.3,1.606A1,1,0,0,0,24.38.546,1.034,1.034,0,0,0,23.461,0ZM15.249,11.939a3.412,3.412,0,0,0-.693,2.051v7.162l-4.121,1.533v-8.7a3.411,3.411,0,0,0-.693-2.051L1.941,1.218H23.05Zm0,0" transform="translate(-0.495 0)" fill="url(#linear-gradient)"/>
</svg>
