<svg xmlns="http://www.w3.org/2000/svg" width="239.342" height="162.897" viewBox="0 0 239.342 162.897">
  <g id="Group_200849" data-name="Group 200849" transform="translate(-1590.742 -1916.564)">
    <path id="bg" d="M482.322,6679.722l27.906,75.347,82.374-5.956-1.5,22.979,26.78-25.427,70.4-6.149,17.161-60.314-99.378-42.9Z" transform="translate(1938.118 -4729.43) rotate(7)" fill="#f9b" stroke="#fff" stroke-width="1"/>
    <path id="Path_385163" data-name="Path 385163" d="M-60.4-11.158a11.492,11.492,0,0,1,.084,1.582.924.924,0,0,1-.014.2l-.056,7.49A3.361,3.361,0,0,1-60.522-.6l1.064,1.26a3.265,3.265,0,0,1,.84-.238c4.074-.742,6.482-2.254,8.47-5.32a6.925,6.925,0,0,1-1.6-1.708A8.5,8.5,0,0,1-54.46-3.444,9.306,9.306,0,0,1-58.2-1.862l.084-7.532a11.991,11.991,0,0,1,.1-1.736Zm13.454,3.444a14.51,14.51,0,0,1,1.26,3.5l1.876-.574a16.3,16.3,0,0,0-1.386-3.43Zm3.052-.6a16.45,16.45,0,0,1,1.26,3.4l1.834-.56a13.843,13.843,0,0,0-1.358-3.318Zm4.816-.2a7.46,7.46,0,0,1-.252,1.61,7.882,7.882,0,0,1-3.122,4.858A9.951,9.951,0,0,1-44.912-.756,6.06,6.06,0,0,1-43.582.91,10.878,10.878,0,0,0-39.13-2.632,12.93,12.93,0,0,0-37.3-7.266a4.952,4.952,0,0,1,.21-.784Zm17.29,7.434a31.239,31.239,0,0,0-4.55-3.878A18.246,18.246,0,0,0-24.22-8.764a2.3,2.3,0,0,1,.462-.784l-1.078-1.12a2.1,2.1,0,0,1-1.176.168l-4.774.084h-.266A10.425,10.425,0,0,1-32.76-10.5l.028,2.128a12.612,12.612,0,0,1,1.96-.126l4.088-.07c-.322.714-.56,1.218-.742,1.526A12.921,12.921,0,0,1-31.094-3,12.65,12.65,0,0,1-34.2-1.288,6.331,6.331,0,0,1-32.858.574a16.107,16.107,0,0,0,5.222-3.906A24.932,24.932,0,0,1-23.478.742Zm2.268-7.854a14.791,14.791,0,0,1,3.682,2.9l1.414-1.834a19.615,19.615,0,0,0-3.724-2.716Zm.672,9.324a5.108,5.108,0,0,1,.7-.2c.266-.056.266-.056.616-.126a17.772,17.772,0,0,0,4.074-1.456A12.056,12.056,0,0,0-7.98-7.518,7.616,7.616,0,0,1-9.758-9.142a12.125,12.125,0,0,1-1.414,2.786,8.7,8.7,0,0,1-4.116,3.43A13.384,13.384,0,0,1-19.46-1.9ZM1.834-10.43a8.966,8.966,0,0,1,1.3,1.89l1.218-.616A7.928,7.928,0,0,0,3.066-11Zm1.722-.742A10.106,10.106,0,0,1,4.83-9.338l1.2-.63a8.254,8.254,0,0,0-1.288-1.778ZM2.716-7.91A9.156,9.156,0,0,1,3.7-6.118,13.494,13.494,0,0,1,4.732-2.954l1.932-.938a14.1,14.1,0,0,0-2.226-4.83ZM-6.1-6.188c.406-.112,1.358-.28,2.352-.42a21.092,21.092,0,0,1-2.73,6.4L-4.536.84c.084-.182.1-.21.224-.476A30.941,30.941,0,0,0-1.75-6.762a6.864,6.864,0,0,1,.7-.042c.5,0,.728.056.91.238.252.224.35.588.35,1.26A13.475,13.475,0,0,1-.168-2.114c-.168.56-.378.784-.728.784a6.035,6.035,0,0,1-1.988-.532A6.363,6.363,0,0,1-2.7-.364a5.538,5.538,0,0,1-.028.63A7.345,7.345,0,0,0-.588.658,1.94,1.94,0,0,0,1.05.028c.714-.77,1.134-2.716,1.134-5.222A3.677,3.677,0,0,0,1.526-7.77,2.7,2.7,0,0,0-.658-8.582c-.21,0-.406.014-.742.028.042-.168.042-.182.1-.476.2-1.148.308-1.75.322-1.806a3.444,3.444,0,0,1,.1-.406l-2.17-.21a1.384,1.384,0,0,1,.014.21,18.81,18.81,0,0,1-.35,2.828c-.714.112-2.394.266-2.814.266h-.084Zm17.178-5.46A11.207,11.207,0,0,1,10.7-9.31c-.266.014-.532.028-.616.028a10.434,10.434,0,0,1-1.96-.14v1.9h.532c.476.028.476.028.63.028H9.45c.336-.014.336-.014.756-.014A18.609,18.609,0,0,1,7.574-2.086L9.492-1.022c.084-.182.084-.182.266-.532.532-1.008.658-1.26.98-1.946a27.861,27.861,0,0,0,1.526-4.06c1.12-.1,1.694-.154,2.184-.224a3.344,3.344,0,0,1,.434-.056L14.84-9.772a9.958,9.958,0,0,1-2.114.364c.028-.14.028-.14.084-.35.1-.49.168-.8.2-.924a4.2,4.2,0,0,1,.2-.756ZM20.4-8.12A21.654,21.654,0,0,0,16.324-10L15.33-8.372A18.276,18.276,0,0,1,19.5-6.384Zm-.084,6.356c-.112-.084-.112-.084-.238-.182-.238-.2-.364-.294-.546-.42a9.613,9.613,0,0,0-2.114-1.218,13.49,13.49,0,0,1-.126-1.89,4.245,4.245,0,0,1,.182-1.386l-1.946-.1A8.806,8.806,0,0,0,15.414-5.4a12.754,12.754,0,0,0,.07,1.358,6.041,6.041,0,0,0-1.022-.084,4.148,4.148,0,0,0-1.5.21,2.49,2.49,0,0,0-1.778,2.352c0,1.5,1.26,2.492,3.178,2.492a3.317,3.317,0,0,0,2.59-.952,2.236,2.236,0,0,0,.476-1.5A8.281,8.281,0,0,1,19.418.112Zm-4.788-.5a2.122,2.122,0,0,1,.028.392c0,.686-.406,1.036-1.246,1.036-.742,0-1.176-.308-1.176-.812s.518-.826,1.288-.826A2.965,2.965,0,0,1,15.526-2.268Zm13.958-9.52a6.18,6.18,0,0,1-1.078,1.19,32.724,32.724,0,0,1-3.248,2.716A9.2,9.2,0,0,0,23.912-6.86a1.836,1.836,0,0,0-.49,1.2,2.192,2.192,0,0,0,.2.868,3.64,3.64,0,0,0,1.064,1.064,43.1,43.1,0,0,1,3.64,3A12.29,12.29,0,0,1,30.156,1.2l1.708-1.75c-.182-.14-.266-.21-.42-.35a51.756,51.756,0,0,0-4.27-3.514c-1.358-.98-1.358-.98-1.358-1.176,0-.154.07-.224.5-.546,1.568-1.19,2.66-2.044,3.374-2.7a13.708,13.708,0,0,1,1.75-1.526Zm6.622,4c.532-.1,1.288-.2,2.058-.266,3.122-.238,3.192-.238,4.578-.392a5.149,5.149,0,0,0-2.954,4.536A3.82,3.82,0,0,0,42-.322a8.972,8.972,0,0,0,3.388.854,3.187,3.187,0,0,1,.49.084l.294-2.268c-.168.014-.266.014-.35.014A9.135,9.135,0,0,1,43.75-1.96a2.185,2.185,0,0,1-1.82-2.128,4.361,4.361,0,0,1,2.534-3.486,6.45,6.45,0,0,1,2.982-.854,1.542,1.542,0,0,1,.336.028l-.112-2.142a8.251,8.251,0,0,1-1.568.126c-3.85.168-6.258.28-7.224.35-1.988.126-2.072.126-2.338.126-.056,0-.224,0-.546-.014ZM50.3-4.27c.252.028.392.056.546.084.728.154,1.218.224,1.89.308-.042.6-.042.742-.042,1.092A3.164,3.164,0,0,0,54.194.2a5.155,5.155,0,0,0,2.66.63A5.207,5.207,0,0,0,60.1-.14,3.372,3.372,0,0,0,61.488-2.8,4.575,4.575,0,0,0,60.27-5.866,6.13,6.13,0,0,1,58.2-5.46a3.4,3.4,0,0,1,1.218,2.352c0,1.274-.952,2-2.618,2A2.435,2.435,0,0,1,55.16-1.6a1.645,1.645,0,0,1-.476-1.316c0-.266.014-.574.042-.84.49.014.6.014.756.014a17.435,17.435,0,0,0,2.156-.14,3.737,3.737,0,0,1,.448-.042l.042-1.918a10.562,10.562,0,0,1-2.786.308c-.1,0-.266,0-.49-.014.1-.77.14-1.05.238-1.722h.21a19.884,19.884,0,0,0,2.114-.084c.812-.07.812-.07,1.022-.084l.07-1.96a13.4,13.4,0,0,1-3.122.322,11,11,0,0,1,.434-2.212l-2.212-.2v.168a15.184,15.184,0,0,1-.238,2.17,9.718,9.718,0,0,1-2.534-.49L50.68-7.784c.21.028.28.042.49.084a14.8,14.8,0,0,0,1.974.336c-.14.882-.14.882-.238,1.708a9.562,9.562,0,0,1-2.45-.518Zm-95.55,19.244a14.493,14.493,0,0,1,.056-1.568,6.138,6.138,0,0,1-1.078.07h-1.064a6.727,6.727,0,0,1-1.134-.07v1.806a5.178,5.178,0,0,1,.91-.07H-47v2.87a5.893,5.893,0,0,1-1.75,1.176l.8,1.9a13.907,13.907,0,0,0,1.9-1.526c.994,1.176,1.974,1.47,4.928,1.47,2.38,0,4.676-.042,5.446-.1A7.4,7.4,0,0,1-35.2,19.02a51.423,51.423,0,0,1-5.7.294,10.459,10.459,0,0,1-3.192-.28,2.216,2.216,0,0,1-1.162-.938v-.868a6.923,6.923,0,0,1,1.022,1.414,7.744,7.744,0,0,0,.756-1.526,6.555,6.555,0,0,1,.322,1.582,3.57,3.57,0,0,0,.532.028c.994,0,1.4-.182,1.61-.714a21.274,21.274,0,0,0,.392-4.942c0-.364.014-.672.042-.966-.364.028-.672.042-1.218.042h-.952v-.028l.014-.952h1.246c.252,0,.35,0,.574.014a3.783,3.783,0,0,1-.28.35,5.073,5.073,0,0,1,1.232.77v.966a5.474,5.474,0,0,1,.98-.07h1.134a4,4,0,0,1-.644.644h-.406a3.065,3.065,0,0,1,.056.644H-39.3a6.093,6.093,0,0,1-1.106-.07v1.68a6.814,6.814,0,0,1,1.106-.056h.462v1.05c0,.2-.056.252-.252.252a6.4,6.4,0,0,1-1.19-.1,5.384,5.384,0,0,1,.364,1.526c.434.014.658.014.9.014,1.4,0,1.862-.308,1.862-1.288V16.038h.658a6.371,6.371,0,0,1,1.036.056V14.428a6.769,6.769,0,0,1-1.064.056h-.63v-.266a13.023,13.023,0,0,0,1.316-1.344,3.8,3.8,0,0,1,.322-.336l-.7-.854a4.2,4.2,0,0,1-.742.042h-2.38c.21-.35.252-.42.378-.658h2.31c.462,0,.826.014,1.148.042V9.388a6.508,6.508,0,0,1-1.148.07h-1.61c.224-.588.364-.966.434-1.12l-1.82-.294a7.475,7.475,0,0,1-.966,2.688V9.5a7.884,7.884,0,0,1-1.106.056h-.1v-.28a4.721,4.721,0,0,1,.084-1.092h-1.9a5.013,5.013,0,0,1,.084,1.092v.28h-.2a7.7,7.7,0,0,1-1.3-.07v.924A16.863,16.863,0,0,0-47.1,8.282L-48.44,9.556a13.609,13.609,0,0,1,2.366,2.66l1.064-1.008c.14-.014.336-.028.728-.042-.028,3.444-.2,4.466-.966,5.726ZM-42.1,13.7a24.555,24.555,0,0,1-.182,2.982c-.07.406-.154.49-.476.49a4,4,0,0,1-.714-.084,11.349,11.349,0,0,0,.658-3.388ZM-24.85,9.108a8.272,8.272,0,0,1,1.078,1.974l1.134-.476a7.767,7.767,0,0,0-1.078-1.932Zm1.582-.616A9.078,9.078,0,0,1-22.2,10.41l1.106-.49a8.228,8.228,0,0,0-1.078-1.862Zm-10.7,2.912c.168-.028.21-.028.42-.056a12.013,12.013,0,0,0,2.422-.308A7.361,7.361,0,0,0-33.7,16.4a4.694,4.694,0,0,0,.826,2.73A4.04,4.04,0,0,0-29.4,20.77a4.459,4.459,0,0,0,3.654-1.806,5.968,5.968,0,0,0,1.064-3.7,9.137,9.137,0,0,0-.2-1.806,8.935,8.935,0,0,0,2,2.674l.308.308,1.036-1.988a9.038,9.038,0,0,1-2.534-2.716,9.63,9.63,0,0,1-1.148-2.506l-2.016.56a11.268,11.268,0,0,1,.714,4.13,7.784,7.784,0,0,1-.518,3.122A2.563,2.563,0,0,1-29.428,18.7a2.154,2.154,0,0,1-2.2-2.38,6.242,6.242,0,0,1,1.736-3.976,6.94,6.94,0,0,1,1.736-1.526L-29.19,9.01a15.156,15.156,0,0,1-4.116.448,3.617,3.617,0,0,1-.7-.042ZM-18.83,8.716a12.214,12.214,0,0,1-.224,1.4A29.193,29.193,0,0,0-19.6,15.59a26.575,26.575,0,0,0,.364,4.27c.042.322.056.434.07.686l2.03-.1c-.014-.2-.014-.266-.014-.406A10.923,10.923,0,0,1-16,15.828l-1.232-.5L-17.5,16c-.07.168-.07.168-.252.714a27.2,27.2,0,0,1,1.106-7.784Zm3.458,3.388c.21.014.322.014.392.028a20.085,20.085,0,0,0,2.254.112,29.844,29.844,0,0,0,3.71-.252,2.273,2.273,0,0,1,.294-.014l-.1-2.03a16.328,16.328,0,0,1-3.836.378,10.2,10.2,0,0,1-2.688-.238Zm.924,2.086a5.089,5.089,0,0,0-1.3,3,2.559,2.559,0,0,0,.42,1.428c.63.882,1.792,1.3,3.57,1.3a16.909,16.909,0,0,0,2.94-.266c.308-.042.392-.056.616-.084l-.14-2.114a10.319,10.319,0,0,1-3.4.546c-1.288,0-2-.392-2-1.092a3.536,3.536,0,0,1,.98-1.974Zm16.856-.126v4.914c0,.294-.056.322-.6.322-.35,0-1.162-.056-1.876-.14a6.292,6.292,0,0,1,.476,1.862c.588.014.868.014,1.274.014a3.811,3.811,0,0,0,2.016-.28c.406-.238.56-.616.56-1.386V14.064h.5a15.928,15.928,0,0,1,1.722.084V12.3a13.38,13.38,0,0,1-1.778.084H.028c-.616,0-1.288-.028-1.708-.07l-1.5-1.05a10.215,10.215,0,0,1-3.43,3.57,6.666,6.666,0,0,1,.784,1.834A6.162,6.162,0,0,0-4.69,15.632c-.014.9-.014,1.036-.014,1.624V19.37a15.706,15.706,0,0,1-.084,1.82h1.974A15.509,15.509,0,0,1-2.9,19.4V13.924a7.963,7.963,0,0,0,.77-.98c.168-.238.224-.322.35-.476v1.68a17.121,17.121,0,0,1,1.792-.084ZM-3.374,8.03A3.653,3.653,0,0,1-4,8.9,9,9,0,0,1-6.58,10.8a5.9,5.9,0,0,1,.994,1.61A12.875,12.875,0,0,0-2.66,10.074c.07-.07.35-.378.854-.91Zm2.142,2.548A16.114,16.114,0,0,1,.49,10.494H4.256a15.571,15.571,0,0,1,1.624.084V8.73a12.754,12.754,0,0,1-1.666.084H.49A13.28,13.28,0,0,1-1.232,8.73ZM8.932,11.992c.238-.014.35-.014.56-.014a38.268,38.268,0,0,0,4.144-.182c.07.168.1.21.224.49.1.21.14.294.224.448a28.6,28.6,0,0,1-4,.252,7.957,7.957,0,0,1-1.344-.07l.07,1.792c.252-.028.364-.028.616-.042a48.934,48.934,0,0,0,5.4-.35c.084.126.084.126.182.294.224.364.238.392.406.63a3.485,3.485,0,0,0,.28.364,10.118,10.118,0,0,0-2.268-.224,6.779,6.779,0,0,0-2.856.5A2.491,2.491,0,0,0,8.96,18.1a2.385,2.385,0,0,0,.532,1.5c.658.826,2.03,1.246,4,1.246a15.953,15.953,0,0,0,3.822-.462,9.668,9.668,0,0,1,.952-.21l-.294-2.03a11.553,11.553,0,0,1-4.4.9,8.5,8.5,0,0,1-1.442-.126c-.63-.154-.952-.42-.952-.826,0-.7.952-1.092,2.7-1.092a6.65,6.65,0,0,1,3.08.6l1.638-.966a14.442,14.442,0,0,1-1.848-2.576c.28-.056.336-.07.98-.2.952-.21,1.512-.322,1.694-.35l-.168-1.792a19,19,0,0,1-3.276.784c-.224-.462-.238-.49-.434-.938.448-.056,1.68-.308,3.332-.658l-.168-1.75a22.827,22.827,0,0,1-3.78.812,6.879,6.879,0,0,1-.5-1.582l-2.086.28a4.236,4.236,0,0,1,.294.644,4.51,4.51,0,0,0,.182.42c.14.336.14.336.182.448-.56.07-1.862.126-2.674.126-.588,0-1.064-.014-1.5-.056Zm13.258.518c.126,0,.168-.014.266-.014l1.5.042h.392a30.843,30.843,0,0,1-2.45,7.406l2.156.8c.07-.252.182-.574.322-.966.644-1.848.8-2.31,1.218-3.836a33.778,33.778,0,0,0,.812-3.472,15.823,15.823,0,0,0,1.974-.21c.5-.084.5-.084.77-.112l-.07-1.918a14.7,14.7,0,0,1-2.338.392c.042-.28.056-.308.112-.686a9.824,9.824,0,0,1,.28-1.358L24.92,8.394v.238a15.909,15.909,0,0,1-.238,2.072c-.35.014-.364.014-.462.014a11.036,11.036,0,0,1-2-.14Zm11.34.028c-.882-.014-.938-.014-1.288-.014a19.807,19.807,0,0,0-4.41.448l.14,1.834a17.022,17.022,0,0,1,3.794-.378,14.958,14.958,0,0,1,1.806.1Zm-5.7,3.024a4.281,4.281,0,0,0-1.078,2.548,2.081,2.081,0,0,0,1.036,1.82,5.519,5.519,0,0,0,2.9.6,15.851,15.851,0,0,0,2.674-.238c.35-.042.462-.056.714-.084l-.14-2.072a10.221,10.221,0,0,1-3.136.546c-1.358,0-2-.322-2-.98,0-.462.154-.8.714-1.54Zm15.652-7.35A6.18,6.18,0,0,1,42.406,9.4a32.723,32.723,0,0,1-3.248,2.716,9.2,9.2,0,0,0-1.246,1.022,1.836,1.836,0,0,0-.49,1.2,2.192,2.192,0,0,0,.2.868,3.64,3.64,0,0,0,1.064,1.064,43.1,43.1,0,0,1,3.64,3A12.29,12.29,0,0,1,44.156,21.2l1.708-1.75c-.182-.14-.266-.21-.42-.35a51.756,51.756,0,0,0-4.27-3.514c-1.358-.98-1.358-.98-1.358-1.176,0-.154.07-.224.5-.546,1.568-1.19,2.66-2.044,3.374-2.7a13.709,13.709,0,0,1,1.75-1.526Zm-81.41,20.14A11.207,11.207,0,0,1-38.3,30.69c-.266.014-.532.028-.616.028a10.434,10.434,0,0,1-1.96-.14v1.9h.532c.476.028.476.028.63.028h.168c.336-.014.336-.014.756-.014a18.609,18.609,0,0,1-2.632,5.418l1.918,1.064c.084-.182.084-.182.266-.532.532-1.008.658-1.26.98-1.946a27.861,27.861,0,0,0,1.526-4.06c1.12-.1,1.694-.154,2.184-.224a3.344,3.344,0,0,1,.434-.056l-.042-1.932a9.958,9.958,0,0,1-2.114.364c.028-.14.028-.14.084-.35.1-.49.168-.8.2-.924a4.2,4.2,0,0,1,.2-.756ZM-28.6,31.88A21.654,21.654,0,0,0-32.676,30l-.994,1.624A18.276,18.276,0,0,1-29.5,33.616Zm-.084,6.356c-.112-.084-.112-.084-.238-.182-.238-.2-.364-.294-.546-.42a9.613,9.613,0,0,0-2.114-1.218,13.49,13.49,0,0,1-.126-1.89,4.245,4.245,0,0,1,.182-1.386l-1.946-.1a8.806,8.806,0,0,0-.112,1.554,12.754,12.754,0,0,0,.07,1.358,6.042,6.042,0,0,0-1.022-.084,4.148,4.148,0,0,0-1.5.21,2.49,2.49,0,0,0-1.778,2.352c0,1.5,1.26,2.492,3.178,2.492a3.317,3.317,0,0,0,2.59-.952,2.236,2.236,0,0,0,.476-1.5,8.281,8.281,0,0,1,1.988,1.638Zm-4.788-.5a2.122,2.122,0,0,1,.028.392c0,.686-.406,1.036-1.246,1.036-.742,0-1.176-.308-1.176-.812s.518-.826,1.288-.826A2.965,2.965,0,0,1-33.474,37.732Zm7.63-2.408a8.752,8.752,0,0,1,1.68-.49,16.837,16.837,0,0,1,3.64-.532,3.386,3.386,0,0,1,1.274.2,1.405,1.405,0,0,1,.938,1.344A2.373,2.373,0,0,1-19.74,37.97a9.377,9.377,0,0,1-3.92.812h-.21a5.47,5.47,0,0,1,.714,1.9,13.2,13.2,0,0,0,3.108-.56c2.352-.714,3.71-2.268,3.71-4.242a3.473,3.473,0,0,0-.532-1.932A3.868,3.868,0,0,0-20.356,32.5a21.28,21.28,0,0,0-4.368.574,10.143,10.143,0,0,1-1.526.266Zm13.16-3.08h.126c.112,0,.252,0,.462.014,1.176.084,1.26.1,1.4.1h.616A21.642,21.642,0,0,1-11.9,36.64l2.016.672a2.128,2.128,0,0,1,.966-.77,6.456,6.456,0,0,1,2.954-.672c1.372,0,2.156.434,2.156,1.2,0,1.022-1.246,1.666-3.206,1.666a11.569,11.569,0,0,1-3.7-.672,8.513,8.513,0,0,1,.2,2.086,13.671,13.671,0,0,0,3.584.476c3.22,0,5.292-1.386,5.292-3.542,0-1.876-1.5-2.968-4.06-2.968a6.625,6.625,0,0,0-3.3.77,16.734,16.734,0,0,0,.952-2.506c1.582-.042,2.688-.112,4.074-.252s1.386-.14,1.778-.168l-.084-2.016a25.312,25.312,0,0,1-5.292.574c.322-1.246.49-1.9.518-2.016l-2.212-.168a12.4,12.4,0,0,1-.364,2.212,14.941,14.941,0,0,1-3.024-.238ZM2.73,31.586a12.8,12.8,0,0,1,.77,2.072,16.827,16.827,0,0,1-2.03.588l.56,1.722a13.38,13.38,0,0,1,1.932-.714A46.56,46.56,0,0,1,5.278,41.2l1.946-.42a10.828,10.828,0,0,1-.35-1.232c-.588-2.478-.616-2.562-.868-3.486-.28-.994-.28-.994-.364-1.316.728-.21,1.12-.322,1.162-.336a9.879,9.879,0,0,1,2.1-.294c.77,0,1.218.35,1.218.952,0,.686-.574,1.092-1.554,1.092a4.266,4.266,0,0,1-1.89-.462A6.2,6.2,0,0,1,7,37.564a6.363,6.363,0,0,0,1.778.28,3.57,3.57,0,0,0,2.142-.658,2.434,2.434,0,0,0,1.05-2.114A2.5,2.5,0,0,0,9.156,32.51a3.215,3.215,0,0,0-.5.028c.014-1.022.028-1.372.07-1.75H6.888a14.652,14.652,0,0,1,.07,1.96c-.672.14-1.022.224-1.778.448-.07-.294-.084-.308-.14-.5-.21-.644-.21-.644-.238-.728a6.941,6.941,0,0,1-.2-.868Zm14.588-1.232a33,33,0,0,0,6.846.854l.266-2.044c-.35.014-.6.014-.7.014a19.361,19.361,0,0,1-5.782-.8ZM16.17,35.1a20.089,20.089,0,0,1,5.656-.966,2.823,2.823,0,0,1,1.428.294,1.254,1.254,0,0,1,.588,1.106,2.508,2.508,0,0,1-1.092,1.988c-1.022.784-2.534,1.19-4.886,1.33a5.45,5.45,0,0,1,.854,2.058A12.147,12.147,0,0,0,23.3,39.636a4.835,4.835,0,0,0,2.786-4.158,3.151,3.151,0,0,0-.966-2.352,4.462,4.462,0,0,0-3.024-.924,26.124,26.124,0,0,0-4.648.462,11.306,11.306,0,0,1-1.736.238Zm19.81,1.946c-.014-.35-.028-.49-.028-.644s0-.168.042-1.022l.238-4.606c.028-.728.084-1.386.14-1.792h-2.73c.056.476.112,1.162.14,1.792l.238,4.606c.042.826.042.826.042,1.008,0,.154-.014.308-.028.658Zm.224,3.332V38.11H33.81v2.268Z" transform="matrix(0.996, 0.087, -0.087, 0.996, 1711.703, 1981.092)" fill="#fff"/>
  </g>
</svg>
