<svg xmlns="http://www.w3.org/2000/svg" width="204.001" height="157.059" viewBox="0 0 204.001 157.059">
  <g id="kids-fukidashi" transform="translate(-809.408 -1108.588)">
    <path id="bg" d="M482.322,6673.834l24.034,64.892,70.943-5.13,24.247,20.254-2.475-22.362,60.632-5.3,5.125-63.4-99.488-31.519Z" transform="translate(-928.644 -5273.362) rotate(-11)" fill="#aaf" stroke="#fff" stroke-width="1"/>
    <g id="Group_188640" data-name="Group 188640" transform="translate(-797.204 -805.156)">
      <path id="Path_385162" data-name="Path 385162" d="M-21.686-6.594h-1.372a9.071,9.071,0,0,1-1.274-.056v1.6a9.767,9.767,0,0,1,1.26-.056h4.55a9.525,9.525,0,0,1,1.246.056v-1.6a8.863,8.863,0,0,1-1.246.056h-1.456v-.77h1.358a9.829,9.829,0,0,1,.994.042V-8.848a6.936,6.936,0,0,1-.994.056h-1.358a6.726,6.726,0,0,1,.056-.714h-1.82a5.014,5.014,0,0,1,.042.714h-1.274A6.858,6.858,0,0,1-24-8.848v1.526c.28-.028.6-.042,1.008-.042h1.3Zm3.738,3.052a6.572,6.572,0,0,1,.056-.994c-.336.028-.476.028-1.106.028h-3.976c-.42,0-.532,0-1.036-.028a5.657,5.657,0,0,1,.056.952v2.548A8.3,8.3,0,0,1-24.024.1h1.792V-.644h3.248a5.894,5.894,0,0,1,.49,1.666h.14c.07,0,.238,0,.5.014h.294A4.1,4.1,0,0,0-15.792.784c.406-.21.588-.616.588-1.33v-9.24a14.567,14.567,0,0,1,.07-1.694,10.49,10.49,0,0,1-1.54.07h-8.232a11.216,11.216,0,0,1-1.54-.07c.056.658.07,1.078.07,2.52a31.282,31.282,0,0,1-.476,6.734A6.281,6.281,0,0,1-27.734-.21a6.244,6.244,0,0,1,1.484,1.5c1.288-2.184,1.638-4.214,1.638-9.576v-1.5h7.63v8.82c0,.266-.056.294-.6.294h-.322a7.189,7.189,0,0,1-.042-.9Zm-4.3.476h2.59V-2.1h-2.59Zm11.172-8.442a3.045,3.045,0,0,1-.028.49c-.028.252-.084.812-.182,1.694-.112,1.008-.2,2.548-.2,3.738,0,.294.014.714.028,1.218.014.742.014.742.014.8a1.451,1.451,0,0,1-.014.224l2-.028v-.21A6.3,6.3,0,0,1-7.644-8.106a1.954,1.954,0,0,1,1.4-.658c1.106,0,1.722,1.05,1.722,2.926,0,3.108-1.624,4.522-5.544,4.83A6.986,6.986,0,0,1-9.1,1.022,13.135,13.135,0,0,0-6.216.252a5.893,5.893,0,0,0,3.78-5.866,6.385,6.385,0,0,0-.756-3.4,3.225,3.225,0,0,0-2.828-1.75A3.379,3.379,0,0,0-8.33-9.8,5.65,5.65,0,0,0-9.576-7.952,19.125,19.125,0,0,1-8.96-11.41Zm13.244.224a12.214,12.214,0,0,1-.224,1.4A29.193,29.193,0,0,0,1.4-4.41,26.575,26.575,0,0,0,1.764-.14c.042.322.056.434.07.686l2.03-.1C3.85.252,3.85.182,3.85.042A10.923,10.923,0,0,1,5-4.172l-1.232-.5L3.5-4c-.07.168-.07.168-.252.714a27.2,27.2,0,0,1,1.106-7.784ZM5.628-7.9c.21.014.322.014.392.028a20.085,20.085,0,0,0,2.254.112,29.844,29.844,0,0,0,3.71-.252,2.273,2.273,0,0,1,.294-.014l-.1-2.03a16.328,16.328,0,0,1-3.836.378,10.2,10.2,0,0,1-2.688-.238ZM6.552-5.81a5.089,5.089,0,0,0-1.3,3,2.559,2.559,0,0,0,.42,1.428c.63.882,1.792,1.3,3.57,1.3A16.909,16.909,0,0,0,12.18-.35c.308-.042.392-.056.616-.084l-.14-2.114A10.319,10.319,0,0,1,9.254-2c-1.288,0-2-.392-2-1.092a3.536,3.536,0,0,1,.98-1.974Zm12.46-.952a.246.246,0,0,1,.084-.014c.182,0,.182,0,.406.014.6.042,1.848.084,2.352.084.308,0,.546,0,.952-.014.042,1.484.07,2.114.084,2.59a4.2,4.2,0,0,0-1.008-.112c-1.848,0-3.066.994-3.066,2.506S19.992.728,21.924.728c1.778,0,2.9-.784,2.9-2.016a1.619,1.619,0,0,0-.014-.238A8.437,8.437,0,0,1,26.614-.084l.77-2.016c-.154-.1-.2-.126-.406-.266a11.3,11.3,0,0,0-2.142-1.218c-.112-1.792-.126-2.1-.14-3.234a16,16,0,0,0,1.778-.28,3.441,3.441,0,0,1,.546-.084l-.07-1.9a11.861,11.861,0,0,1-2.268.462,15.922,15.922,0,0,1,.1-2.562H22.708a3.573,3.573,0,0,1,.056.728c.014.938.014.938.014,1.974-.476.014-.728.014-1.12.014a12.386,12.386,0,0,1-2.618-.21ZM22.932-2.3A1.3,1.3,0,0,1,22.946-2c0,.7-.35,1.008-1.162,1.008-.686,0-1.106-.28-1.106-.728,0-.476.49-.784,1.232-.784A2.522,2.522,0,0,1,22.932-2.3ZM16.1-11.242a7.815,7.815,0,0,1-.168,1.19c-.28,1.512-.28,1.512-.336,1.932a25.106,25.106,0,0,0-.266,3.766A28.332,28.332,0,0,0,15.708.238c.042.294.042.378.056.56l2-.1c-.014-.252-.028-.392-.028-.448A11.072,11.072,0,0,1,19-4.018l-1.19-.476c-.224.448-.322.7-.63,1.456,0-.224.014-.77.014-1.05a26.8,26.8,0,0,1,.182-2.7,19.555,19.555,0,0,1,.924-4.256ZM-37.016,12.566a6.254,6.254,0,0,1-3.57.98,6.821,6.821,0,0,1,.756.966,14.632,14.632,0,0,1-1.568-.07v1.652c.448-.042.938-.07,1.568-.07h7.756v3.192c0,.238-.14.308-.588.308-.084,0-.252,0-.616-.014-.014-.238-.014-.336-.014-.42V17.62a8.41,8.41,0,0,1,.056-1.106,10.237,10.237,0,0,1-1.148.042H-38.64c-.448,0-.77-.014-1.106-.042a7.613,7.613,0,0,1,.056,1.064v1.974a7.968,7.968,0,0,1-.07,1.2h1.82v-.672h4.018a3.038,3.038,0,0,1,.238,1.036c.77.028,1.022.028,1.232.028,1.722,0,2.184-.35,2.184-1.624v-3.5h.182c.574,0,1.106.028,1.568.07V14.442a13.159,13.159,0,0,1-1.568.07h-.14c.2-.28.35-.49.77-1.036a7.29,7.29,0,0,1-3.934-.91h1.47c.672,0,1.106.014,1.568.056v-.756h1.582a6.335,6.335,0,0,1-.07-1.078v-.742a7.362,7.362,0,0,1,.056-1.064c-.476.042-.9.056-1.6.056h-3.78a4,4,0,0,1,.07-.9h-1.974a5.04,5.04,0,0,1,.056.9h-3.57c-.714,0-1.134-.014-1.61-.056a7.742,7.742,0,0,1,.056,1.064v.742a6.436,6.436,0,0,1-.07,1.078h1.582v.756a14.234,14.234,0,0,1,1.484-.056Zm-.658,1.946a4.676,4.676,0,0,0,2.506-1.6,5.289,5.289,0,0,0,2.6,1.6Zm7.084-3.948v.6c-.392.028-.616.042-1.148.042h-2.7a4.008,4.008,0,0,0,.084-.644Zm-5.516,0a3.243,3.243,0,0,1-.084.644h-2.086a9.214,9.214,0,0,1-1.12-.056v-.588Zm-1.848,7.322H-35v.882h-2.954Zm12.88-9.394a3.045,3.045,0,0,1-.028.49c-.028.252-.084.812-.182,1.694-.112,1.008-.2,2.548-.2,3.738,0,.294.014.714.028,1.218.014.742.014.742.014.8a1.451,1.451,0,0,1-.014.224l2-.028v-.21a6.3,6.3,0,0,1,1.806-4.522,1.954,1.954,0,0,1,1.4-.658c1.106,0,1.722,1.05,1.722,2.926,0,3.108-1.624,4.522-5.544,4.83a6.986,6.986,0,0,1,.966,2.03,13.136,13.136,0,0,0,2.884-.77,5.893,5.893,0,0,0,3.78-5.866,6.385,6.385,0,0,0-.756-3.4,3.225,3.225,0,0,0-2.828-1.75,3.379,3.379,0,0,0-2.31.966,5.65,5.65,0,0,0-1.246,1.848A19.125,19.125,0,0,1-22.96,8.59ZM-8.134,9.64A9.406,9.406,0,0,1-9.59,9.556V11.18c.378-.028.784-.042,1.4-.042h1.96a4.785,4.785,0,0,1-.294.6H-7.6c-.658,0-.966-.014-1.316-.042.028.322.056.84.056,1.274v4.242c0,.476-.014,1.022-.042,1.33.588-.014,1.008-.028,1.26-.028h5.068c.126,0,.63.014.728.014.238.014.238.014.35.014a12.17,12.17,0,0,1-.056-1.316V12.986A10.119,10.119,0,0,1-1.5,11.7a11.432,11.432,0,0,1-1.218.042H-4.662c.112-.21.154-.294.294-.6H-2.1c.518,0,.91.014,1.386.056V9.556A7.8,7.8,0,0,1-2.1,9.64h-.714c.224-.308.476-.714.728-1.148l-1.82-.364A7.459,7.459,0,0,1-4.7,9.64h-1.12a11.009,11.009,0,0,0-.9-1.512l-1.68.434A11.008,11.008,0,0,1-7.686,9.64Zm.966,3.416h3.892v.588H-7.168Zm0,1.778h3.892v.56H-7.168Zm-.014,1.736H-3.29v.588H-7.182ZM-13.5,9.584a14.873,14.873,0,0,1,2.464,2.646l1.358-1.316a15.065,15.065,0,0,0-2.492-2.562Zm.112,5.642a5.178,5.178,0,0,1,.91-.07h.686V17.9a6.231,6.231,0,0,1-1.89,1.218l.8,1.9a2.511,2.511,0,0,1,.392-.308A9.748,9.748,0,0,0-10.92,19.4a3.311,3.311,0,0,0,1.47,1.078,10.609,10.609,0,0,0,3.794.406c1.176,0,2.352-.014,4.872-.084a6.668,6.668,0,0,1,.49-1.9,41.448,41.448,0,0,1-5.124.28,12.027,12.027,0,0,1-3.556-.336,1.885,1.885,0,0,1-1.092-.882V14.988a13.712,13.712,0,0,1,.056-1.554,7.742,7.742,0,0,1-1.064.056H-12.25a6.149,6.149,0,0,1-1.134-.07ZM2.646,8.758A8.06,8.06,0,0,1,2.7,9.808c0,.42-.014,1.274-.056,3.206C2.6,14.862,2.59,15.772,2.59,16.4a8.081,8.081,0,0,0,.21,2A3.211,3.211,0,0,0,4.06,20.1a4.888,4.888,0,0,0,2.59.63,5.486,5.486,0,0,0,4.284-1.792,8.659,8.659,0,0,0,1.722-3.766A7.654,7.654,0,0,1,10.612,13.9a9.006,9.006,0,0,1-.588,2.436,3.434,3.434,0,0,1-3.262,2.38,2.016,2.016,0,0,1-1.75-.7c-.266-.392-.336-.868-.336-2.226,0-2.422.168-6.16.308-6.986ZM15.19,12.51c.126,0,.168-.014.266-.014l1.5.042h.392a30.843,30.843,0,0,1-2.45,7.406l2.156.8c.07-.252.182-.574.322-.966.644-1.848.8-2.31,1.218-3.836a33.778,33.778,0,0,0,.812-3.472,15.823,15.823,0,0,0,1.974-.21c.5-.084.5-.084.77-.112l-.07-1.918a14.7,14.7,0,0,1-2.338.392c.042-.28.056-.308.112-.686a9.824,9.824,0,0,1,.28-1.358L17.92,8.394v.238a15.909,15.909,0,0,1-.238,2.072c-.35.014-.364.014-.462.014a11.036,11.036,0,0,1-2-.14Zm11.34.028c-.882-.014-.938-.014-1.288-.014a19.807,19.807,0,0,0-4.41.448l.14,1.834a17.022,17.022,0,0,1,3.794-.378,14.958,14.958,0,0,1,1.806.1Zm-5.7,3.024a4.281,4.281,0,0,0-1.078,2.548,2.081,2.081,0,0,0,1.036,1.82,5.519,5.519,0,0,0,2.9.6,15.851,15.851,0,0,0,2.674-.238c.35-.042.462-.056.714-.084l-.14-2.072a10.221,10.221,0,0,1-3.136.546c-1.358,0-2-.322-2-.98,0-.462.154-.8.714-1.54Zm8.47-6.02a7.437,7.437,0,0,1,.056.938c.084,4.242.28,6.02.854,7.448.588,1.456,1.414,2.2,2.436,2.2,1.288,0,2.2-1.246,2.94-3.99a6.887,6.887,0,0,1-1.652-1.512,11.711,11.711,0,0,1-.742,2.492c-.154.378-.322.574-.5.574-.714,0-1.232-2.478-1.232-5.824a16.43,16.43,0,0,1,.126-2.31Zm7.028,1.414a12.383,12.383,0,0,1,2.016,3.584,14.292,14.292,0,0,1,.854,4.186l2.114-.784a14.346,14.346,0,0,0-3.192-7.826Zm-79.2,19.314a14.87,14.87,0,0,1-2.632.5v-.686a9.781,9.781,0,0,1,.084-1.624h-2.072A10.715,10.715,0,0,1-47.4,30.2v.7a1.374,1.374,0,0,1-.28.014c-.518.014-.56.014-.686.014a9.305,9.305,0,0,1-1.764-.126l.014,1.862c.154-.014.28-.014.35-.014h.238c.728.028.756.028.882.028.182,0,.56-.014,1.26-.028v1.918a7.97,7.97,0,0,0-2.058,1.2,3.156,3.156,0,0,0-1.246,2.212,2.338,2.338,0,0,0,1.176,1.932,4.65,4.65,0,0,0,2.492.8,1.509,1.509,0,0,0,1.288-.574c.2-.28.238-.574.238-1.624V35.884a7.921,7.921,0,0,1,2.422-.378c1.47,0,2.38.7,2.38,1.806a1.261,1.261,0,0,1-1.218,1.372c-.644,0-.924-.434-.924-1.442a4.216,4.216,0,0,1,.07-.77,6.905,6.905,0,0,1-1.848.756,2.625,2.625,0,0,0-.014.294c0,2.016.938,3.136,2.632,3.136a3.241,3.241,0,0,0,3.332-3.346,3.352,3.352,0,0,0-1.414-2.772,5.241,5.241,0,0,0-2.968-.756,9.407,9.407,0,0,0-2.464.294V32.552c.644-.07,1.022-.126,1.722-.238a8.887,8.887,0,0,1,.994-.154Zm-4.522,7.938c0,.462-.056.574-.266.574a1.59,1.59,0,0,1-.77-.266.679.679,0,0,1-.392-.546c0-.462.574-1.05,1.428-1.47Zm9.352-5.894a11.976,11.976,0,0,0-2.8-3.01l-1.54,1.092a12.3,12.3,0,0,1,2.786,3.15Zm7.49,3.248H-32.27a9.907,9.907,0,0,1-1.26-.056c.028.35.042.728.042,1.246v2.674a13.873,13.873,0,0,1-.084,1.764H-31.7v-.574h4.774v.574h1.89a15.2,15.2,0,0,1-.084-1.862V36.99a11.586,11.586,0,0,1,.07-1.484,9.767,9.767,0,0,1-1.26.056H-28.8V34.288h2.884c.532,0,1.05.028,1.47.07V32.58a12.293,12.293,0,0,1-1.54.07H-28.8a8.8,8.8,0,0,1,.056-1.288H-30.6a10.962,10.962,0,0,1,.056,1.428ZM-31.7,37.228h4.774v1.736H-31.7Zm.56-7.84h-3.052c-.672,0-1.232-.028-1.75-.07.042.49.056,1.008.056,2.114,0,4.8-.28,6.58-1.288,8.274a8.116,8.116,0,0,1,1.47,1.47c1.274-2.128,1.638-4.34,1.638-10.108h8.092c.658,0,1.358.028,1.834.07V29.3A14.586,14.586,0,0,1-26,29.388h-3.29v-.462a3.161,3.161,0,0,1,.07-.812h-1.988a3.259,3.259,0,0,1,.07.784Zm16.478.182a8.966,8.966,0,0,1,1.3,1.89l1.218-.616A7.928,7.928,0,0,0-13.426,29Zm1.722-.742a10.106,10.106,0,0,1,1.274,1.834l1.2-.63a8.254,8.254,0,0,0-1.288-1.778Zm-.84,3.262a9.156,9.156,0,0,1,.98,1.792,13.494,13.494,0,0,1,1.036,3.164l1.932-.938a14.1,14.1,0,0,0-2.226-4.83Zm-8.82,1.722c.406-.112,1.358-.28,2.352-.42a21.092,21.092,0,0,1-2.73,6.4l1.946,1.05c.084-.182.1-.21.224-.476a30.941,30.941,0,0,0,2.562-7.126,6.864,6.864,0,0,1,.7-.042c.5,0,.728.056.91.238.252.224.35.588.35,1.26a13.475,13.475,0,0,1-.378,3.192c-.168.56-.378.784-.728.784a6.035,6.035,0,0,1-1.988-.532,6.363,6.363,0,0,1,.182,1.5,5.538,5.538,0,0,1-.028.63,7.345,7.345,0,0,0,2.142.392,1.94,1.94,0,0,0,1.638-.63c.714-.77,1.134-2.716,1.134-5.222a3.677,3.677,0,0,0-.658-2.576,2.7,2.7,0,0,0-2.184-.812c-.21,0-.406.014-.742.028.042-.168.042-.182.1-.476.2-1.148.308-1.75.322-1.806a3.444,3.444,0,0,1,.1-.406l-2.17-.21a1.384,1.384,0,0,1,.014.21,18.81,18.81,0,0,1-.35,2.828c-.714.112-2.394.266-2.814.266h-.084ZM-8.3,32.51c.126,0,.168-.014.266-.014l1.5.042h.392A30.843,30.843,0,0,1-8.6,39.944l2.156.8c.07-.252.182-.574.322-.966.644-1.848.8-2.31,1.218-3.836a33.778,33.778,0,0,0,.812-3.472,15.824,15.824,0,0,0,1.974-.21c.5-.084.5-.084.77-.112l-.07-1.918a14.7,14.7,0,0,1-2.338.392c.042-.28.056-.308.112-.686a9.823,9.823,0,0,1,.28-1.358l-2.212-.182v.238A15.909,15.909,0,0,1-5.81,30.7c-.35.014-.364.014-.462.014a11.036,11.036,0,0,1-2-.14Zm11.34.028c-.882-.014-.938-.014-1.288-.014a19.807,19.807,0,0,0-4.41.448l.14,1.834a17.022,17.022,0,0,1,3.794-.378,14.958,14.958,0,0,1,1.806.1Zm-5.7,3.024A4.281,4.281,0,0,0-3.738,38.11,2.081,2.081,0,0,0-2.7,39.93a5.519,5.519,0,0,0,2.9.6,15.851,15.851,0,0,0,2.674-.238c.35-.042.462-.056.714-.084l-.14-2.072a10.221,10.221,0,0,1-3.136.546c-1.358,0-2-.322-2-.98,0-.462.154-.8.714-1.54Zm15.652-7.35a6.18,6.18,0,0,1-1.078,1.19,32.724,32.724,0,0,1-3.248,2.716A9.2,9.2,0,0,0,7.42,33.14a1.836,1.836,0,0,0-.49,1.2,2.192,2.192,0,0,0,.2.868A3.64,3.64,0,0,0,8.19,36.276a43.1,43.1,0,0,1,3.64,3A12.291,12.291,0,0,1,13.664,41.2l1.708-1.75c-.182-.14-.266-.21-.42-.35a51.756,51.756,0,0,0-4.27-3.514c-1.358-.98-1.358-.98-1.358-1.176,0-.154.07-.224.5-.546,1.568-1.19,2.66-2.044,3.374-2.7a13.708,13.708,0,0,1,1.75-1.526Zm7.35,4.7A4.729,4.729,0,0,1,21,32.874a39.829,39.829,0,0,0,4.956-.322c.056.112.056.112.182.336a6.923,6.923,0,0,0,.49.9,8.761,8.761,0,0,0,.644.994,6.823,6.823,0,0,0-2.282-.336,5.247,5.247,0,0,0-3.682,1.134,2.789,2.789,0,0,0-.924,2.058,2.841,2.841,0,0,0,.924,2.058,6.2,6.2,0,0,0,4.032,1.036,13.5,13.5,0,0,0,3.374-.42l1.176-.294-.266-2.128a10.018,10.018,0,0,1-4.3.938,4.338,4.338,0,0,1-2.422-.518.969.969,0,0,1-.364-.77c0-.868,1.036-1.372,2.8-1.372a6.41,6.41,0,0,1,2.114.308,2.315,2.315,0,0,1,.98.616l1.946-.84c-.434-.6-1.05-1.526-1.456-2.184-.154-.266-.476-.854-.966-1.778,1.05-.182,1.05-.182,1.89-.364a10.416,10.416,0,0,1,1.092-.2l-.224-1.988a19.89,19.89,0,0,1-3.444.8,9.3,9.3,0,0,1-.686-2.114l-2.156.266c.126.266.6,1.428.854,2.086-1.12.126-2.618.224-3.6.224-.532,0-1.106-.028-1.5-.07Zm16.842-4.55a36.114,36.114,0,0,1-1.5,4.592c-2.352,6.608-2.352,6.608-2.576,7.084l2.17.672a16.391,16.391,0,0,1,1.148-3.22c.6-1.218,1.344-1.9,2.058-1.9a.571.571,0,0,1,.56.308,1.756,1.756,0,0,1,.1.714v.14c-.014.462-.014.952-.014,1.036a2.89,2.89,0,0,0,.588,2.072,2.58,2.58,0,0,0,2.016.742,3.682,3.682,0,0,0,3.01-1.5,7.53,7.53,0,0,0,1.19-3.038,5.727,5.727,0,0,1-1.876-1.218,8.32,8.32,0,0,1-.5,2.338c-.364.91-.9,1.386-1.554,1.386a.931.931,0,0,1-.644-.2c-.21-.2-.252-.392-.252-1.484,0-.658-.014-.994-.028-1.26a2.391,2.391,0,0,0-.364-1.33,1.946,1.946,0,0,0-1.582-.756,2.656,2.656,0,0,0-1.89.826l.994-2.478c.616-1.568.616-1.568.686-1.75a10.8,10.8,0,0,1,.56-1.26Zm12.8,8.6c-.014-.35-.028-.49-.028-.644s0-.168.042-1.008l.238-4.606c.028-.728.084-1.386.14-1.792h-2.73c.056.476.112,1.162.14,1.792l.238,4.606c.042.812.042.812.042.994,0,.154-.014.308-.028.658Zm.224,3.332V38.026H47.81v2.268Z" transform="translate(1705.735 1971.296) rotate(-11)" fill="#fff"/>
    </g>
  </g>
</svg>
