<svg xmlns="http://www.w3.org/2000/svg" width="129.192" height="79.437" viewBox="0 0 129.192 79.437">
  <g id="Group_207021" data-name="Group 207021" transform="translate(-1648.447 -1907.153)">
    <path id="bg" d="M27.75,159.791l-9.364-10.863,21.679-5.833L52.6,89.269l-92.142-6.856-37.05,43.181,31.305,36.256,48.92-10.031Z" transform="translate(1725.041 1824.74)" fill="#aaf"/>
    <path id="Path_386832" data-name="Path 386832" d="M-15.49-4.71h-.98a6.48,6.48,0,0,1-.91-.04v1.14a6.977,6.977,0,0,1,.9-.04h3.25a6.8,6.8,0,0,1,.89.04V-4.75a6.331,6.331,0,0,1-.89.04h-1.04v-.55h.97a7.02,7.02,0,0,1,.71.03V-6.32a4.955,4.955,0,0,1-.71.04h-.97a4.8,4.8,0,0,1,.04-.51h-1.3a3.581,3.581,0,0,1,.03.51h-.91a4.9,4.9,0,0,1-.73-.04v1.09c.2-.02.43-.03.72-.03h.93Zm2.67,2.18a4.694,4.694,0,0,1,.04-.71c-.24.02-.34.02-.79.02h-2.84c-.3,0-.38,0-.74-.02a4.041,4.041,0,0,1,.04.68V-.74a5.926,5.926,0,0,1-.05.81h1.28V-.46h2.32A4.21,4.21,0,0,1-13.21.73h.1c.05,0,.17,0,.36.01h.21A2.931,2.931,0,0,0-11.28.56c.29-.15.42-.44.42-.95v-6.6a10.405,10.405,0,0,1,.05-1.21,7.493,7.493,0,0,1-1.1.05h-5.88a8.012,8.012,0,0,1-1.1-.05c.04.47.05.77.05,1.8a22.344,22.344,0,0,1-.34,4.81,4.487,4.487,0,0,1-.63,1.44A4.46,4.46,0,0,1-18.75.92c.92-1.56,1.17-3.01,1.17-6.84V-6.99h5.45v6.3c0,.19-.04.21-.43.21h-.23a5.135,5.135,0,0,1-.03-.64Zm-3.07.34h1.85v.69h-1.85Zm7.98-6.03a2.175,2.175,0,0,1-.02.35c-.02.18-.06.58-.13,1.21-.08.72-.14,1.82-.14,2.67,0,.21.01.51.02.87.01.53.01.53.01.57a1.036,1.036,0,0,1-.01.16l1.43-.02v-.15A4.5,4.5,0,0,1-5.46-5.79a1.4,1.4,0,0,1,1-.47c.79,0,1.23.75,1.23,2.09,0,2.22-1.16,3.23-3.96,3.45A4.99,4.99,0,0,1-6.5.73,9.383,9.383,0,0,0-4.44.18a4.209,4.209,0,0,0,2.7-4.19,4.561,4.561,0,0,0-.54-2.43A2.3,2.3,0,0,0-4.3-7.69,2.414,2.414,0,0,0-5.95-7a4.035,4.035,0,0,0-.89,1.32A13.661,13.661,0,0,1-6.4-8.15Zm9.46.16a8.724,8.724,0,0,1-.16,1A20.852,20.852,0,0,0,1-3.15,18.982,18.982,0,0,0,1.26-.1c.03.23.04.31.05.49L2.76.32C2.75.18,2.75.13,2.75.03a7.8,7.8,0,0,1,.82-3.01l-.88-.36-.19.48c-.05.12-.05.12-.18.51a19.429,19.429,0,0,1,.79-5.56ZM4.02-5.64c.15.01.23.01.28.02a14.346,14.346,0,0,0,1.61.08,21.317,21.317,0,0,0,2.65-.18,1.623,1.623,0,0,1,.21-.01L8.7-7.18a11.663,11.663,0,0,1-2.74.27,7.283,7.283,0,0,1-1.92-.17Zm.66,1.49a3.635,3.635,0,0,0-.93,2.14,1.828,1.828,0,0,0,.3,1.02A2.919,2.919,0,0,0,6.6-.06,12.078,12.078,0,0,0,8.7-.25c.22-.03.28-.04.44-.06l-.1-1.51a7.371,7.371,0,0,1-2.43.39c-.92,0-1.43-.28-1.43-.78a2.526,2.526,0,0,1,.7-1.41Zm8.9-.68a.176.176,0,0,1,.06-.01c.13,0,.13,0,.29.01.43.03,1.32.06,1.68.06.22,0,.39,0,.68-.01.03,1.06.05,1.51.06,1.85a3,3,0,0,0-.72-.08c-1.32,0-2.19.71-2.19,1.79S14.28.52,15.66.52c1.27,0,2.07-.56,2.07-1.44a1.156,1.156,0,0,0-.01-.17A6.027,6.027,0,0,1,19.01-.06l.55-1.44c-.11-.07-.14-.09-.29-.19a8.073,8.073,0,0,0-1.53-.87c-.08-1.28-.09-1.5-.1-2.31a11.426,11.426,0,0,0,1.27-.2,2.458,2.458,0,0,1,.39-.06l-.05-1.36a8.472,8.472,0,0,1-1.62.33,11.373,11.373,0,0,1,.07-1.83H16.22a2.552,2.552,0,0,1,.04.52c.01.67.01.67.01,1.41-.34.01-.52.01-.8.01A8.847,8.847,0,0,1,13.6-6.2Zm2.8,3.19a.931.931,0,0,1,.01.21c0,.5-.25.72-.83.72-.49,0-.79-.2-.79-.52,0-.34.35-.56.88-.56A1.8,1.8,0,0,1,16.38-1.64ZM11.5-8.03a5.582,5.582,0,0,1-.12.85c-.2,1.08-.2,1.08-.24,1.38a17.933,17.933,0,0,0-.19,2.69A20.238,20.238,0,0,0,11.22.17c.03.21.03.27.04.4L12.69.5c-.01-.18-.02-.28-.02-.32a7.909,7.909,0,0,1,.9-3.05l-.85-.34c-.16.32-.23.5-.45,1.04,0-.16.01-.55.01-.75a19.145,19.145,0,0,1,.13-1.93,13.968,13.968,0,0,1,.66-3.04ZM-26.44,8.69a4.467,4.467,0,0,1-2.55.7,4.872,4.872,0,0,1,.54.69,10.452,10.452,0,0,1-1.12-.05v1.18c.32-.03.67-.05,1.12-.05h5.54v2.28c0,.17-.1.22-.42.22-.06,0-.18,0-.44-.01-.01-.17-.01-.24-.01-.3V12.3a6.007,6.007,0,0,1,.04-.79,7.312,7.312,0,0,1-.82.03H-27.6c-.32,0-.55-.01-.79-.03a5.438,5.438,0,0,1,.04.76v1.41a5.692,5.692,0,0,1-.05.86h1.3v-.48h2.87a2.17,2.17,0,0,1,.17.74c.55.02.73.02.88.02,1.23,0,1.56-.25,1.56-1.16v-2.5h.13c.41,0,.79.02,1.12.05V10.03a9.4,9.4,0,0,1-1.12.05h-.1c.14-.2.25-.35.55-.74a5.207,5.207,0,0,1-2.81-.65h1.05c.48,0,.79.01,1.12.04V8.19h1.13a4.525,4.525,0,0,1-.05-.77V6.89a5.258,5.258,0,0,1,.04-.76c-.34.03-.64.04-1.14.04h-2.7a2.854,2.854,0,0,1,.05-.64h-1.41a3.6,3.6,0,0,1,.04.64h-2.55c-.51,0-.81-.01-1.15-.04a5.53,5.53,0,0,1,.04.76v.53a4.6,4.6,0,0,1-.05.77h1.13v.54a10.168,10.168,0,0,1,1.06-.04Zm-.47,1.39a3.34,3.34,0,0,0,1.79-1.14,3.778,3.778,0,0,0,1.86,1.14Zm5.06-2.82v.43c-.28.02-.44.03-.82.03H-24.6a2.863,2.863,0,0,0,.06-.46Zm-3.94,0a2.316,2.316,0,0,1-.06.46h-1.49a6.581,6.581,0,0,1-.8-.04V7.26Zm-1.32,5.23H-25v.63h-2.11Zm9.2-6.71a2.175,2.175,0,0,1-.02.35c-.02.18-.06.58-.13,1.21-.08.72-.14,1.82-.14,2.67,0,.21.01.51.02.87.01.53.01.53.01.57a1.036,1.036,0,0,1-.01.16l1.43-.02v-.15a4.5,4.5,0,0,1,1.29-3.23,1.4,1.4,0,0,1,1-.47c.79,0,1.23.75,1.23,2.09,0,2.22-1.16,3.23-3.96,3.45a4.99,4.99,0,0,1,.69,1.45,9.382,9.382,0,0,0,2.06-.55,4.209,4.209,0,0,0,2.7-4.19,4.561,4.561,0,0,0-.54-2.43A2.3,2.3,0,0,0-14.3,6.31,2.414,2.414,0,0,0-15.95,7a4.035,4.035,0,0,0-.89,1.32,13.661,13.661,0,0,1,.44-2.47Zm12.1.82a6.718,6.718,0,0,1-1.04-.06V7.7c.27-.02.56-.03,1-.03h1.4a3.418,3.418,0,0,1-.21.43h-.77c-.47,0-.69-.01-.94-.03.02.23.04.6.04.91v3.03c0,.34-.01.73-.03.95.42-.01.72-.02.9-.02h3.62c.09,0,.45.01.52.01.17.01.17.01.25.01a8.693,8.693,0,0,1-.04-.94V8.99a7.228,7.228,0,0,1,.04-.92,8.165,8.165,0,0,1-.87.03H-3.33c.08-.15.11-.21.21-.43H-1.5c.37,0,.65.01.99.04V6.54a5.568,5.568,0,0,1-.99.06h-.51c.16-.22.34-.51.52-.82l-1.3-.26A5.328,5.328,0,0,1-3.36,6.6h-.8A7.864,7.864,0,0,0-4.8,5.52L-6,5.83a7.863,7.863,0,0,1,.51.77Zm.69,2.44h2.78v.42H-5.12Zm0,1.27h2.78v.4H-5.12Zm-.01,1.24h2.78v.42H-5.13ZM-9.64,6.56A10.623,10.623,0,0,1-7.88,8.45l.97-.94A10.761,10.761,0,0,0-8.69,5.68Zm.08,4.03a3.7,3.7,0,0,1,.65-.05h.49V12.5a4.451,4.451,0,0,1-1.35.87l.57,1.36a1.793,1.793,0,0,1,.28-.22,6.963,6.963,0,0,0,1.12-.94,2.365,2.365,0,0,0,1.05.77,7.578,7.578,0,0,0,2.71.29c.84,0,1.68-.01,3.48-.06a4.763,4.763,0,0,1,.35-1.36,29.606,29.606,0,0,1-3.66.2,8.591,8.591,0,0,1-2.54-.24,1.346,1.346,0,0,1-.78-.63V10.42a9.8,9.8,0,0,1,.04-1.11,5.53,5.53,0,0,1-.76.04h-.84a4.392,4.392,0,0,1-.81-.05ZM1.89,5.97a5.757,5.757,0,0,1,.04.75c0,.3-.01.91-.04,2.29-.03,1.32-.04,1.97-.04,2.42A5.772,5.772,0,0,0,2,12.86a2.294,2.294,0,0,0,.9,1.21,3.491,3.491,0,0,0,1.85.45,3.919,3.919,0,0,0,3.06-1.28,6.185,6.185,0,0,0,1.23-2.69,5.467,5.467,0,0,1-1.46-.91,6.433,6.433,0,0,1-.42,1.74,2.453,2.453,0,0,1-2.33,1.7,1.44,1.44,0,0,1-1.25-.5c-.19-.28-.24-.62-.24-1.59,0-1.73.12-4.4.22-4.99Zm8.96,2.68c.09,0,.12-.01.19-.01l1.07.03h.28a22.03,22.03,0,0,1-1.75,5.29l1.54.57c.05-.18.13-.41.23-.69.46-1.32.57-1.65.87-2.74a24.128,24.128,0,0,0,.58-2.48,11.3,11.3,0,0,0,1.41-.15c.36-.06.36-.06.55-.08l-.05-1.37a10.5,10.5,0,0,1-1.67.28c.03-.2.04-.22.08-.49a7.017,7.017,0,0,1,.2-.97L12.8,5.71v.17a11.363,11.363,0,0,1-.17,1.48c-.25.01-.26.01-.33.01a7.883,7.883,0,0,1-1.43-.1Zm8.1.02c-.63-.01-.67-.01-.92-.01a14.148,14.148,0,0,0-3.15.32l.1,1.31a12.158,12.158,0,0,1,2.71-.27,10.684,10.684,0,0,1,1.29.07Zm-4.07,2.16a3.058,3.058,0,0,0-.77,1.82,1.486,1.486,0,0,0,.74,1.3,3.942,3.942,0,0,0,2.07.43,11.322,11.322,0,0,0,1.91-.17c.25-.03.33-.04.51-.06l-.1-1.48a7.3,7.3,0,0,1-2.24.39c-.97,0-1.43-.23-1.43-.7,0-.33.11-.57.51-1.1Zm6.05-4.3a5.313,5.313,0,0,1,.04.67c.06,3.03.2,4.3.61,5.32.42,1.04,1.01,1.57,1.74,1.57.92,0,1.57-.89,2.1-2.85a4.919,4.919,0,0,1-1.18-1.08,8.365,8.365,0,0,1-.53,1.78c-.11.27-.23.41-.36.41-.51,0-.88-1.77-.88-4.16a11.736,11.736,0,0,1,.09-1.65Zm5.02,1.01a8.845,8.845,0,0,1,1.44,2.56A10.208,10.208,0,0,1,28,13.09l1.51-.56a10.247,10.247,0,0,0-2.28-5.59ZM-30.62,21.05a10.621,10.621,0,0,1-1.88.36v-.49a6.986,6.986,0,0,1,.06-1.16h-1.48A7.653,7.653,0,0,1-33.86,21v.5a.981.981,0,0,1-.2.01c-.37.01-.4.01-.49.01a6.647,6.647,0,0,1-1.26-.09l.01,1.33c.11-.01.2-.01.25-.01h.17c.52.02.54.02.63.02.13,0,.4-.01.9-.02v1.37a5.693,5.693,0,0,0-1.47.86,2.254,2.254,0,0,0-.89,1.58,1.67,1.67,0,0,0,.84,1.38,3.322,3.322,0,0,0,1.78.57,1.078,1.078,0,0,0,.92-.41c.14-.2.17-.41.17-1.16V25.06a5.658,5.658,0,0,1,1.73-.27c1.05,0,1.7.5,1.7,1.29a.9.9,0,0,1-.87.98c-.46,0-.66-.31-.66-1.03a3.011,3.011,0,0,1,.05-.55,4.932,4.932,0,0,1-1.32.54,1.875,1.875,0,0,0-.01.21c0,1.44.67,2.24,1.88,2.24a2.315,2.315,0,0,0,2.38-2.39,2.394,2.394,0,0,0-1.01-1.98,3.743,3.743,0,0,0-2.12-.54,6.719,6.719,0,0,0-1.76.21V22.68c.46-.05.73-.09,1.23-.17a6.348,6.348,0,0,1,.71-.11Zm-3.23,5.67c0,.33-.04.41-.19.41a1.136,1.136,0,0,1-.55-.19.485.485,0,0,1-.28-.39c0-.33.41-.75,1.02-1.05Zm6.68-4.21a8.555,8.555,0,0,0-2-2.15l-1.1.78a8.783,8.783,0,0,1,1.99,2.25Zm5.35,2.32h-1.23a7.076,7.076,0,0,1-.9-.04c.02.25.03.52.03.89v1.91a9.909,9.909,0,0,1-.06,1.26h1.34v-.41h3.41v.41h1.35a10.859,10.859,0,0,1-.06-1.33V25.85a8.276,8.276,0,0,1,.05-1.06,6.977,6.977,0,0,1-.9.04h-1.78v-.91h2.06c.38,0,.75.02,1.05.05V22.7a8.781,8.781,0,0,1-1.1.05h-2.01a6.283,6.283,0,0,1,.04-.92h-1.33a7.83,7.83,0,0,1,.04,1.02Zm-.82,1.19h3.41v1.24h-3.41Zm.4-5.6h-2.18c-.48,0-.88-.02-1.25-.05.03.35.04.72.04,1.51,0,3.43-.2,4.7-.92,5.91a5.8,5.8,0,0,1,1.05,1.05c.91-1.52,1.17-3.1,1.17-7.22h5.78c.47,0,.97.02,1.31.05V20.36a10.419,10.419,0,0,1-1.33.06h-2.35v-.33a2.258,2.258,0,0,1,.05-.58h-1.42a2.328,2.328,0,0,1,.05.56Zm11.77.13a6.4,6.4,0,0,1,.93,1.35l.87-.44a5.663,5.663,0,0,0-.92-1.32Zm1.23-.53a7.219,7.219,0,0,1,.91,1.31l.86-.45a5.9,5.9,0,0,0-.92-1.27Zm-.6,2.33a6.54,6.54,0,0,1,.7,1.28,9.638,9.638,0,0,1,.74,2.26l1.38-.67a10.072,10.072,0,0,0-1.59-3.45Zm-6.3,1.23c.29-.08.97-.2,1.68-.3a15.066,15.066,0,0,1-1.95,4.57l1.39.75c.06-.13.07-.15.16-.34a22.1,22.1,0,0,0,1.83-5.09,4.9,4.9,0,0,1,.5-.03c.36,0,.52.04.65.17.18.16.25.42.25.9a9.625,9.625,0,0,1-.27,2.28c-.12.4-.27.56-.52.56a4.311,4.311,0,0,1-1.42-.38,4.545,4.545,0,0,1,.13,1.07,3.956,3.956,0,0,1-.02.45,5.246,5.246,0,0,0,1.53.28,1.386,1.386,0,0,0,1.17-.45c.51-.55.81-1.94.81-3.73a2.626,2.626,0,0,0-.47-1.84,1.931,1.931,0,0,0-1.56-.58c-.15,0-.29.01-.53.02.03-.12.03-.13.07-.34.14-.82.22-1.25.23-1.29a2.46,2.46,0,0,1,.07-.29l-1.55-.15a.989.989,0,0,1,.01.15,13.436,13.436,0,0,1-.25,2.02c-.51.08-1.71.19-2.01.19h-.06Zm10.21-.93c.09,0,.12-.01.19-.01l1.07.03h.28a22.03,22.03,0,0,1-1.75,5.29l1.54.57c.05-.18.13-.41.23-.69.46-1.32.57-1.65.87-2.74a24.128,24.128,0,0,0,.58-2.48,11.3,11.3,0,0,0,1.41-.15c.36-.06.36-.06.55-.08l-.05-1.37a10.5,10.5,0,0,1-1.67.28c.03-.2.04-.22.08-.49a7.017,7.017,0,0,1,.2-.97l-1.58-.13v.17a11.363,11.363,0,0,1-.17,1.48c-.25.01-.26.01-.33.01a7.883,7.883,0,0,1-1.43-.1Zm8.1.02c-.63-.01-.67-.01-.92-.01a14.148,14.148,0,0,0-3.15.32l.1,1.31a12.158,12.158,0,0,1,2.71-.27,10.684,10.684,0,0,1,1.29.07ZM-1.9,24.83a3.058,3.058,0,0,0-.77,1.82,1.486,1.486,0,0,0,.74,1.3,3.942,3.942,0,0,0,2.07.43,11.322,11.322,0,0,0,1.91-.17c.25-.03.33-.04.51-.06l-.1-1.48a7.3,7.3,0,0,1-2.24.39c-.97,0-1.43-.23-1.43-.7,0-.33.11-.57.51-1.1ZM9.28,19.58a4.414,4.414,0,0,1-.77.85,23.374,23.374,0,0,1-2.32,1.94,6.573,6.573,0,0,0-.89.73,1.311,1.311,0,0,0-.35.86,1.566,1.566,0,0,0,.14.62,2.6,2.6,0,0,0,.76.76,30.785,30.785,0,0,1,2.6,2.14,8.779,8.779,0,0,1,1.31,1.38l1.22-1.25c-.13-.1-.19-.15-.3-.25a36.968,36.968,0,0,0-3.05-2.51c-.97-.7-.97-.7-.97-.84,0-.11.05-.16.36-.39,1.12-.85,1.9-1.46,2.41-1.93a9.792,9.792,0,0,1,1.25-1.09Zm5.25,3.36a3.378,3.378,0,0,1,.47-.03,28.45,28.45,0,0,0,3.54-.23c.04.08.04.08.13.24a4.945,4.945,0,0,0,.35.64,6.258,6.258,0,0,0,.46.71,4.873,4.873,0,0,0-1.63-.24,3.748,3.748,0,0,0-2.63.81,1.992,1.992,0,0,0-.66,1.47,2.03,2.03,0,0,0,.66,1.47,4.43,4.43,0,0,0,2.88.74,9.645,9.645,0,0,0,2.41-.3l.84-.21-.19-1.52a7.155,7.155,0,0,1-3.07.67,3.1,3.1,0,0,1-1.73-.37.692.692,0,0,1-.26-.55c0-.62.74-.98,2-.98a4.579,4.579,0,0,1,1.51.22,1.654,1.654,0,0,1,.7.44l1.39-.6c-.31-.43-.75-1.09-1.04-1.56-.11-.19-.34-.61-.69-1.27.75-.13.75-.13,1.35-.26a7.44,7.44,0,0,1,.78-.14l-.16-1.42a14.207,14.207,0,0,1-2.46.57,6.646,6.646,0,0,1-.49-1.51l-1.54.19c.09.19.43,1.02.61,1.49-.8.09-1.87.16-2.57.16-.38,0-.79-.02-1.07-.05Zm12.03-3.25a25.8,25.8,0,0,1-1.07,3.28c-1.68,4.72-1.68,4.72-1.84,5.06l1.55.48a11.708,11.708,0,0,1,.82-2.3c.43-.87.96-1.36,1.47-1.36a.408.408,0,0,1,.4.22,1.254,1.254,0,0,1,.07.51v.1c-.01.33-.01.68-.01.74a2.064,2.064,0,0,0,.42,1.48,1.843,1.843,0,0,0,1.44.53,2.63,2.63,0,0,0,2.15-1.07,5.379,5.379,0,0,0,.85-2.17,4.091,4.091,0,0,1-1.34-.87,5.943,5.943,0,0,1-.36,1.67c-.26.65-.64.99-1.11.99a.665.665,0,0,1-.46-.14c-.15-.14-.18-.28-.18-1.06,0-.47-.01-.71-.02-.9a1.708,1.708,0,0,0-.26-.95,1.39,1.39,0,0,0-1.13-.54,1.9,1.9,0,0,0-1.35.59l.71-1.77c.44-1.12.44-1.12.49-1.25a7.717,7.717,0,0,1,.4-.9Zm9.14,6.14c-.01-.25-.02-.35-.02-.46s0-.12.03-.72l.17-3.29c.02-.52.06-.99.1-1.28H34.03c.04.34.08.83.1,1.28l.17,3.29c.03.58.03.58.03.71,0,.11-.01.22-.02.47Zm.16,2.38V26.59H34.15v1.62Z" transform="translate(1711.135 1933.872) rotate(-11)" fill="#fff"/>
  </g>
</svg>
