<svg xmlns="http://www.w3.org/2000/svg" width="128.804" height="80.536" viewBox="0 0 128.804 80.536">
  <g id="Group_207020" data-name="Group 207020" transform="translate(-836.764 -1278.089)">
    <path id="bg" d="M-40.5,162.949l9.728-15.229-45.825-9.056,5.046-49.7,88.266-6.549L52.21,123.665,22.222,158.3l-36.592-7.41Z" transform="translate(913.357 1195.676)" fill="#f9b"/>
    <path id="Path_386833" data-name="Path 386833" d="M-43.14-7.97a8.208,8.208,0,0,1,.06,1.13.66.66,0,0,1-.01.14l-.04,5.35a2.4,2.4,0,0,1-.1.92l.76.9a2.332,2.332,0,0,1,.6-.17,8.141,8.141,0,0,0,6.05-3.8,4.946,4.946,0,0,1-1.14-1.22A6.071,6.071,0,0,1-38.9-2.46a6.647,6.647,0,0,1-2.67,1.13l.06-5.38a8.565,8.565,0,0,1,.07-1.24Zm9.61,2.46a10.364,10.364,0,0,1,.9,2.5l1.34-.41a11.639,11.639,0,0,0-.99-2.45Zm2.18-.43a11.75,11.75,0,0,1,.9,2.43l1.31-.4a9.888,9.888,0,0,0-.97-2.37Zm3.44-.14a5.328,5.328,0,0,1-.18,1.15,5.63,5.63,0,0,1-2.23,3.47,7.108,7.108,0,0,1-1.76.92A4.328,4.328,0,0,1-31.13.65a7.77,7.77,0,0,0,3.18-2.53,9.236,9.236,0,0,0,1.31-3.31,3.537,3.537,0,0,1,.15-.56ZM-15.56-.77a22.314,22.314,0,0,0-3.25-2.77A13.033,13.033,0,0,0-17.3-6.26a1.644,1.644,0,0,1,.33-.56l-.77-.8a1.5,1.5,0,0,1-.84.12l-3.41.06h-.19A7.447,7.447,0,0,1-23.4-7.5l.02,1.52a9.008,9.008,0,0,1,1.4-.09l2.92-.05c-.23.51-.4.87-.53,1.09a9.23,9.23,0,0,1-2.62,2.89A9.036,9.036,0,0,1-24.43-.92,4.522,4.522,0,0,1-23.47.41a11.505,11.505,0,0,0,3.73-2.79A17.809,17.809,0,0,1-16.77.53Zm1.62-5.61a10.565,10.565,0,0,1,2.63,2.07l1.01-1.31a14.011,14.011,0,0,0-2.66-1.94Zm.48,6.66a3.649,3.649,0,0,1,.5-.14c.19-.04.19-.04.44-.09A12.7,12.7,0,0,0-9.61-.99,8.611,8.611,0,0,0-5.7-5.37,5.44,5.44,0,0,1-6.97-6.53,8.661,8.661,0,0,1-7.98-4.54a6.213,6.213,0,0,1-2.94,2.45,9.56,9.56,0,0,1-2.98.73ZM1.31-7.45A6.4,6.4,0,0,1,2.24-6.1l.87-.44a5.663,5.663,0,0,0-.92-1.32Zm1.23-.53a7.219,7.219,0,0,1,.91,1.31l.86-.45a5.9,5.9,0,0,0-.92-1.27Zm-.6,2.33a6.54,6.54,0,0,1,.7,1.28,9.638,9.638,0,0,1,.74,2.26l1.38-.67A10.072,10.072,0,0,0,3.17-6.23Zm-6.3,1.23c.29-.08.97-.2,1.68-.3A15.066,15.066,0,0,1-4.63-.15L-3.24.6c.06-.13.07-.15.16-.34A22.1,22.1,0,0,0-1.25-4.83a4.9,4.9,0,0,1,.5-.03c.36,0,.52.04.65.17.18.16.25.42.25.9A9.625,9.625,0,0,1-.12-1.51c-.12.4-.27.56-.52.56a4.311,4.311,0,0,1-1.42-.38A4.545,4.545,0,0,1-1.93-.26a3.956,3.956,0,0,1-.02.45A5.246,5.246,0,0,0-.42.47,1.386,1.386,0,0,0,.75.02c.51-.55.81-1.94.81-3.73a2.626,2.626,0,0,0-.47-1.84A1.931,1.931,0,0,0-.47-6.13c-.15,0-.29.01-.53.02.03-.12.03-.13.07-.34.14-.82.22-1.25.23-1.29a2.46,2.46,0,0,1,.07-.29l-1.55-.15a.989.989,0,0,1,.01.15,13.436,13.436,0,0,1-.25,2.02c-.51.08-1.71.19-2.01.19h-.06ZM7.91-8.32a8,8,0,0,1-.27,1.67c-.19.01-.38.02-.44.02a7.453,7.453,0,0,1-1.4-.1v1.36h.38c.34.02.34.02.45.02h.12c.24-.01.24-.01.54-.01A13.292,13.292,0,0,1,5.41-1.49l1.37.76c.06-.13.06-.13.19-.38.38-.72.47-.9.7-1.39A19.9,19.9,0,0,0,8.76-5.4c.8-.07,1.21-.11,1.56-.16a2.388,2.388,0,0,1,.31-.04L10.6-6.98a7.113,7.113,0,0,1-1.51.26c.02-.1.02-.1.06-.25.07-.35.12-.57.14-.66a3,3,0,0,1,.14-.54ZM14.57-5.8a15.467,15.467,0,0,0-2.91-1.34l-.71,1.16a13.054,13.054,0,0,1,2.98,1.42Zm-.06,4.54c-.08-.06-.08-.06-.17-.13-.17-.14-.26-.21-.39-.3a6.866,6.866,0,0,0-1.51-.87,9.636,9.636,0,0,1-.09-1.35,3.032,3.032,0,0,1,.13-.99l-1.39-.07a6.29,6.29,0,0,0-.08,1.11,9.111,9.111,0,0,0,.05.97,4.315,4.315,0,0,0-.73-.06,2.963,2.963,0,0,0-1.07.15A1.779,1.779,0,0,0,7.99-1.12c0,1.07.9,1.78,2.27,1.78a2.369,2.369,0,0,0,1.85-.68,1.6,1.6,0,0,0,.34-1.07A5.915,5.915,0,0,1,13.87.08Zm-3.42-.36a1.516,1.516,0,0,1,.02.28c0,.49-.29.74-.89.74-.53,0-.84-.22-.84-.58s.37-.59.92-.59A2.118,2.118,0,0,1,11.09-1.62Zm9.97-6.8a4.414,4.414,0,0,1-.77.85,23.374,23.374,0,0,1-2.32,1.94,6.573,6.573,0,0,0-.89.73,1.311,1.311,0,0,0-.35.86,1.566,1.566,0,0,0,.14.62,2.6,2.6,0,0,0,.76.76,30.785,30.785,0,0,1,2.6,2.14A8.779,8.779,0,0,1,21.54.86L22.76-.39c-.13-.1-.19-.15-.3-.25a36.968,36.968,0,0,0-3.05-2.51c-.97-.7-.97-.7-.97-.84,0-.11.05-.16.36-.39,1.12-.85,1.9-1.46,2.41-1.93A9.792,9.792,0,0,1,22.46-7.4Zm4.73,2.86c.38-.07.92-.14,1.47-.19,2.23-.17,2.28-.17,3.27-.28a3.678,3.678,0,0,0-2.11,3.24A2.729,2.729,0,0,0,30-.23a6.409,6.409,0,0,0,2.42.61,2.277,2.277,0,0,1,.35.06l.21-1.62c-.12.01-.19.01-.25.01a6.525,6.525,0,0,1-1.48-.23,1.561,1.561,0,0,1-1.3-1.52,3.115,3.115,0,0,1,1.81-2.49,4.607,4.607,0,0,1,2.13-.61,1.1,1.1,0,0,1,.24.02l-.08-1.53a5.894,5.894,0,0,1-1.12.09c-2.75.12-4.47.2-5.16.25-1.42.09-1.48.09-1.67.09-.04,0-.16,0-.39-.01ZM35.93-3.05c.18.02.28.04.39.06.52.11.87.16,1.35.22-.03.43-.03.53-.03.78A2.26,2.26,0,0,0,38.71.14a3.682,3.682,0,0,0,1.9.45A3.719,3.719,0,0,0,42.93-.1,2.409,2.409,0,0,0,43.92-2a3.268,3.268,0,0,0-.87-2.19,4.378,4.378,0,0,1-1.48.29,2.429,2.429,0,0,1,.87,1.68c0,.91-.68,1.43-1.87,1.43a1.739,1.739,0,0,1-1.17-.35,1.175,1.175,0,0,1-.34-.94c0-.19.01-.41.03-.6.35.01.43.01.54.01a12.453,12.453,0,0,0,1.54-.1,2.669,2.669,0,0,1,.32-.03l.03-1.37a7.544,7.544,0,0,1-1.99.22c-.07,0-.19,0-.35-.01.07-.55.1-.75.17-1.23h.15a14.2,14.2,0,0,0,1.51-.06c.58-.05.58-.05.73-.06l.05-1.4a9.573,9.573,0,0,1-2.23.23,7.856,7.856,0,0,1,.31-1.58L38.29-8.2v.12a10.846,10.846,0,0,1-.17,1.55,6.941,6.941,0,0,1-1.81-.35L36.2-5.56c.15.02.2.03.35.06a10.573,10.573,0,0,0,1.41.24c-.1.63-.1.63-.17,1.22a6.83,6.83,0,0,1-1.75-.37ZM-32.32,10.41a10.351,10.351,0,0,1,.04-1.12,4.384,4.384,0,0,1-.77.05h-.76a4.805,4.805,0,0,1-.81-.05v1.29a3.7,3.7,0,0,1,.65-.05h.4v2.05a4.209,4.209,0,0,1-1.25.84l.57,1.36a9.934,9.934,0,0,0,1.36-1.09c.71.84,1.41,1.05,3.52,1.05,1.7,0,3.34-.03,3.89-.07a5.284,5.284,0,0,1,.34-1.37,36.731,36.731,0,0,1-4.07.21,7.471,7.471,0,0,1-2.28-.2,1.583,1.583,0,0,1-.83-.67v-.62a4.945,4.945,0,0,1,.73,1.01,5.531,5.531,0,0,0,.54-1.09,4.682,4.682,0,0,1,.23,1.13,2.55,2.55,0,0,0,.38.02c.71,0,1-.13,1.15-.51a15.2,15.2,0,0,0,.28-3.53c0-.26.01-.48.03-.69-.26.02-.48.03-.87.03h-.68V8.37l.01-.68h.89c.18,0,.25,0,.41.01a2.7,2.7,0,0,1-.2.25,3.624,3.624,0,0,1,.88.55v.69a3.91,3.91,0,0,1,.7-.05h.81a2.858,2.858,0,0,1-.46.46h-.29a2.189,2.189,0,0,1,.04.46h-.33a4.352,4.352,0,0,1-.79-.05v1.2a4.867,4.867,0,0,1,.79-.04h.33v.75c0,.14-.04.18-.18.18a4.57,4.57,0,0,1-.85-.07,3.846,3.846,0,0,1,.26,1.09c.31.01.47.01.64.01,1,0,1.33-.22,1.33-.92V11.17h.47a4.551,4.551,0,0,1,.74.04V10.02a4.835,4.835,0,0,1-.76.04h-.45V9.87a9.3,9.3,0,0,0,.94-.96,2.712,2.712,0,0,1,.23-.24l-.5-.61a3,3,0,0,1-.53.03h-1.7c.15-.25.18-.3.27-.47h1.65c.33,0,.59.01.82.03V6.42a4.648,4.648,0,0,1-.82.05h-1.15c.16-.42.26-.69.31-.8l-1.3-.21a5.339,5.339,0,0,1-.69,1.92V6.5a5.631,5.631,0,0,1-.79.04h-.07v-.2a3.372,3.372,0,0,1,.06-.78h-1.36a3.581,3.581,0,0,1,.06.78v.2h-.14a5.5,5.5,0,0,1-.93-.05v.66a12.045,12.045,0,0,0-1.46-1.52l-.96.91a9.721,9.721,0,0,1,1.69,1.9l.76-.72c.1-.01.24-.02.52-.03-.02,2.46-.14,3.19-.69,4.09Zm2.25-.91a17.54,17.54,0,0,1-.13,2.13c-.05.29-.11.35-.34.35a2.856,2.856,0,0,1-.51-.06,8.107,8.107,0,0,0,.47-2.42Zm12.32-3.28a5.908,5.908,0,0,1,.77,1.41l.81-.34a5.548,5.548,0,0,0-.77-1.38Zm1.13-.44a6.484,6.484,0,0,1,.76,1.37l.79-.35a5.877,5.877,0,0,0-.77-1.33Zm-7.64,2.08c.12-.02.15-.02.3-.04a8.581,8.581,0,0,0,1.73-.22,5.258,5.258,0,0,0-1.84,3.83,3.353,3.353,0,0,0,.59,1.95A2.886,2.886,0,0,0-21,14.55a3.185,3.185,0,0,0,2.61-1.29,4.263,4.263,0,0,0,.76-2.64,6.527,6.527,0,0,0-.14-1.29,6.382,6.382,0,0,0,1.43,1.91l.22.22.74-1.42A6.456,6.456,0,0,1-17.19,8.1a6.879,6.879,0,0,1-.82-1.79l-1.44.4a8.048,8.048,0,0,1,.51,2.95,5.56,5.56,0,0,1-.37,2.23,1.83,1.83,0,0,1-1.71,1.18,1.539,1.539,0,0,1-1.57-1.7,4.458,4.458,0,0,1,1.24-2.84,4.957,4.957,0,0,1,1.24-1.09l-.74-1.29a10.826,10.826,0,0,1-2.94.32,2.584,2.584,0,0,1-.5-.03Zm10.81-1.92a8.724,8.724,0,0,1-.16,1A20.852,20.852,0,0,0-14,10.85a18.982,18.982,0,0,0,.26,3.05c.03.23.04.31.05.49l1.45-.07c-.01-.14-.01-.19-.01-.29a7.8,7.8,0,0,1,.82-3.01l-.88-.36-.19.48c-.05.12-.05.12-.18.51a19.429,19.429,0,0,1,.79-5.56Zm2.47,2.42c.15.01.23.01.28.02a14.346,14.346,0,0,0,1.61.08,21.317,21.317,0,0,0,2.65-.18,1.623,1.623,0,0,1,.21-.01L-6.3,6.82a11.663,11.663,0,0,1-2.74.27,7.283,7.283,0,0,1-1.92-.17Zm.66,1.49a3.635,3.635,0,0,0-.93,2.14,1.828,1.828,0,0,0,.3,1.02,2.919,2.919,0,0,0,2.55.93,12.078,12.078,0,0,0,2.1-.19c.22-.03.28-.04.44-.06l-.1-1.51a7.371,7.371,0,0,1-2.43.39c-.92,0-1.43-.28-1.43-.78a2.526,2.526,0,0,1,.7-1.41ZM1.72,9.76v3.51c0,.21-.04.23-.43.23-.25,0-.83-.04-1.34-.1a4.494,4.494,0,0,1,.34,1.33c.42.01.62.01.91.01a2.722,2.722,0,0,0,1.44-.2c.29-.17.4-.44.4-.99V9.76H3.4a11.377,11.377,0,0,1,1.23.06V8.5a9.557,9.557,0,0,1-1.27.06H.02c-.44,0-.92-.02-1.22-.05l-1.07-.75a7.3,7.3,0,0,1-2.45,2.55,4.761,4.761,0,0,1,.56,1.31,4.4,4.4,0,0,0,.81-.74c-.01.64-.01.74-.01,1.16v1.51a11.219,11.219,0,0,1-.06,1.3h1.41a11.078,11.078,0,0,1-.06-1.28V9.66a5.688,5.688,0,0,0,.55-.7c.12-.17.16-.23.25-.34v1.2A12.23,12.23,0,0,1,.01,9.76ZM-2.41,5.45a2.61,2.61,0,0,1-.45.62A6.427,6.427,0,0,1-4.7,7.43a4.213,4.213,0,0,1,.71,1.15A9.2,9.2,0,0,0-1.9,6.91c.05-.05.25-.27.61-.65ZM-.88,7.27A11.51,11.51,0,0,1,.35,7.21H3.04a11.122,11.122,0,0,1,1.16.06V5.95a9.11,9.11,0,0,1-1.19.06H.35A9.486,9.486,0,0,1-.88,5.95ZM6.38,8.28c.17-.01.25-.01.4-.01a27.334,27.334,0,0,0,2.96-.13c.05.12.07.15.16.35.07.15.1.21.16.32a20.426,20.426,0,0,1-2.86.18,5.684,5.684,0,0,1-.96-.05l.05,1.28c.18-.02.26-.02.44-.03a34.953,34.953,0,0,0,3.86-.25c.06.09.06.09.13.21.16.26.17.28.29.45a2.489,2.489,0,0,0,.2.26,7.227,7.227,0,0,0-1.62-.16,4.842,4.842,0,0,0-2.04.36A1.779,1.779,0,0,0,6.4,12.64a1.7,1.7,0,0,0,.38,1.07,3.6,3.6,0,0,0,2.86.89,11.4,11.4,0,0,0,2.73-.33,6.905,6.905,0,0,1,.68-.15l-.21-1.45a8.252,8.252,0,0,1-3.14.64,6.072,6.072,0,0,1-1.03-.09c-.45-.11-.68-.3-.68-.59,0-.5.68-.78,1.93-.78a4.75,4.75,0,0,1,2.2.43l1.17-.69a10.316,10.316,0,0,1-1.32-1.84c.2-.04.24-.05.7-.14.68-.15,1.08-.23,1.21-.25l-.12-1.28a13.575,13.575,0,0,1-2.34.56c-.16-.33-.17-.35-.31-.67.32-.04,1.2-.22,2.38-.47l-.12-1.25a16.3,16.3,0,0,1-2.7.58,4.914,4.914,0,0,1-.36-1.13l-1.49.2a3.026,3.026,0,0,1,.21.46,3.222,3.222,0,0,0,.13.3c.1.24.1.24.13.32-.4.05-1.33.09-1.91.09-.42,0-.76-.01-1.07-.04Zm9.47.37c.09,0,.12-.01.19-.01l1.07.03h.28a22.03,22.03,0,0,1-1.75,5.29l1.54.57c.05-.18.13-.41.23-.69.46-1.32.57-1.65.87-2.74a24.128,24.128,0,0,0,.58-2.48,11.3,11.3,0,0,0,1.41-.15c.36-.06.36-.06.55-.08l-.05-1.37a10.5,10.5,0,0,1-1.67.28c.03-.2.04-.22.08-.49a7.016,7.016,0,0,1,.2-.97L17.8,5.71v.17a11.363,11.363,0,0,1-.17,1.48c-.25.01-.26.01-.33.01a7.883,7.883,0,0,1-1.43-.1Zm8.1.02c-.63-.01-.67-.01-.92-.01a14.148,14.148,0,0,0-3.15.32l.1,1.31a12.158,12.158,0,0,1,2.71-.27,10.684,10.684,0,0,1,1.29.07Zm-4.07,2.16a3.058,3.058,0,0,0-.77,1.82,1.486,1.486,0,0,0,.74,1.3,3.942,3.942,0,0,0,2.07.43,11.322,11.322,0,0,0,1.91-.17c.25-.03.33-.04.51-.06l-.1-1.48a7.3,7.3,0,0,1-2.24.39c-.97,0-1.43-.23-1.43-.7,0-.33.11-.57.51-1.1ZM31.06,5.58a4.414,4.414,0,0,1-.77.85,23.374,23.374,0,0,1-2.32,1.94,6.573,6.573,0,0,0-.89.73,1.311,1.311,0,0,0-.35.86,1.566,1.566,0,0,0,.14.62,2.6,2.6,0,0,0,.76.76,30.785,30.785,0,0,1,2.6,2.14,8.779,8.779,0,0,1,1.31,1.38l1.22-1.25c-.13-.1-.19-.15-.3-.25a36.968,36.968,0,0,0-3.05-2.51c-.97-.7-.97-.7-.97-.84,0-.11.05-.16.36-.39,1.12-.85,1.9-1.46,2.41-1.93A9.792,9.792,0,0,1,32.46,6.6Zm-58.15,14.1a8,8,0,0,1-.27,1.67c-.19.01-.38.02-.44.02a7.453,7.453,0,0,1-1.4-.1v1.36h.38c.34.02.34.02.45.02h.12c.24-.01.24-.01.54-.01a13.292,13.292,0,0,1-1.88,3.87l1.37.76c.06-.13.06-.13.19-.38.38-.72.47-.9.7-1.39a19.9,19.9,0,0,0,1.09-2.9c.8-.07,1.21-.11,1.56-.16a2.388,2.388,0,0,1,.31-.04l-.03-1.38a7.113,7.113,0,0,1-1.51.26c.02-.1.02-.1.06-.25.07-.35.12-.57.14-.66a3,3,0,0,1,.14-.54Zm6.66,2.52a15.467,15.467,0,0,0-2.91-1.34l-.71,1.16a13.054,13.054,0,0,1,2.98,1.42Zm-.06,4.54c-.08-.06-.08-.06-.17-.13-.17-.14-.26-.21-.39-.3a6.866,6.866,0,0,0-1.51-.87,9.635,9.635,0,0,1-.09-1.35,3.032,3.032,0,0,1,.13-.99l-1.39-.07a6.29,6.29,0,0,0-.08,1.11,9.111,9.111,0,0,0,.05.97,4.315,4.315,0,0,0-.73-.06,2.963,2.963,0,0,0-1.07.15,1.779,1.779,0,0,0-1.27,1.68c0,1.07.9,1.78,2.27,1.78a2.369,2.369,0,0,0,1.85-.68,1.6,1.6,0,0,0,.34-1.07,5.915,5.915,0,0,1,1.42,1.17Zm-3.42-.36a1.516,1.516,0,0,1,.02.28c0,.49-.29.74-.89.74-.53,0-.84-.22-.84-.58s.37-.59.92-.59A2.118,2.118,0,0,1-23.91,26.38Zm5.45-1.72a6.251,6.251,0,0,1,1.2-.35,12.026,12.026,0,0,1,2.6-.38,2.419,2.419,0,0,1,.91.14,1,1,0,0,1,.67.96,1.7,1.7,0,0,1-1.02,1.52,6.7,6.7,0,0,1-2.8.58h-.15a3.907,3.907,0,0,1,.51,1.36,9.431,9.431,0,0,0,2.22-.4c1.68-.51,2.65-1.62,2.65-3.03a2.48,2.48,0,0,0-.38-1.38,2.763,2.763,0,0,0-2.49-1.04,15.2,15.2,0,0,0-3.12.41,7.245,7.245,0,0,1-1.09.19Zm9.4-2.2h.09c.08,0,.18,0,.33.01.84.06.9.07,1,.07h.44A15.459,15.459,0,0,1-8.5,25.6l1.44.48a1.52,1.52,0,0,1,.69-.55,4.611,4.611,0,0,1,2.11-.48c.98,0,1.54.31,1.54.86,0,.73-.89,1.19-2.29,1.19a8.264,8.264,0,0,1-2.64-.48,6.081,6.081,0,0,1,.14,1.49,9.765,9.765,0,0,0,2.56.34c2.3,0,3.78-.99,3.78-2.53,0-1.34-1.07-2.12-2.9-2.12a4.732,4.732,0,0,0-2.36.55,11.953,11.953,0,0,0,.68-1.79c1.13-.03,1.92-.08,2.91-.18s.99-.1,1.27-.12l-.06-1.44a18.08,18.08,0,0,1-3.78.41c.23-.89.35-1.36.37-1.44l-1.58-.12a8.859,8.859,0,0,1-.26,1.58,10.672,10.672,0,0,1-2.16-.17Zm11.01-.47a9.143,9.143,0,0,1,.55,1.48,12.019,12.019,0,0,1-1.45.42l.4,1.23a9.557,9.557,0,0,1,1.38-.51,33.257,33.257,0,0,1,.94,4.25l1.39-.3a7.734,7.734,0,0,1-.25-.88c-.42-1.77-.44-1.83-.62-2.49-.2-.71-.2-.71-.26-.94.52-.15.8-.23.83-.24a7.056,7.056,0,0,1,1.5-.21c.55,0,.87.25.87.68,0,.49-.41.78-1.11.78a3.047,3.047,0,0,1-1.35-.33A4.427,4.427,0,0,1,5,26.26a4.545,4.545,0,0,0,1.27.2,2.55,2.55,0,0,0,1.53-.47,1.739,1.739,0,0,0,.75-1.51,1.786,1.786,0,0,0-2.01-1.83,2.3,2.3,0,0,0-.36.02c.01-.73.02-.98.05-1.25H4.92a10.466,10.466,0,0,1,.05,1.4c-.48.1-.73.16-1.27.32-.05-.21-.06-.22-.1-.36-.15-.46-.15-.46-.17-.52a4.958,4.958,0,0,1-.14-.62Zm10.42-.88a23.571,23.571,0,0,0,4.89.61l.19-1.46c-.25.01-.43.01-.5.01a13.829,13.829,0,0,1-4.13-.57Zm-.82,3.39a14.349,14.349,0,0,1,4.04-.69,2.016,2.016,0,0,1,1.02.21.9.9,0,0,1,.42.79,1.791,1.791,0,0,1-.78,1.42,6.255,6.255,0,0,1-3.49.95,3.893,3.893,0,0,1,.61,1.47,8.677,8.677,0,0,0,3.27-.91,3.454,3.454,0,0,0,1.99-2.97,2.251,2.251,0,0,0-.69-1.68,3.187,3.187,0,0,0-2.16-.66,18.66,18.66,0,0,0-3.32.33,8.076,8.076,0,0,1-1.24.17ZM25.7,25.89c-.01-.25-.02-.35-.02-.46s0-.12.03-.73l.17-3.29c.02-.52.06-.99.1-1.28H24.03c.04.34.08.83.1,1.28l.17,3.29c.03.59.03.59.03.72,0,.11-.01.22-.02.47Zm.16,2.38V26.65H24.15v1.62Z" transform="matrix(0.996, 0.087, -0.087, 0.996, 902.037, 1304.75)" fill="#fff"/>
  </g>
</svg>
