<svg xmlns="http://www.w3.org/2000/svg" xmlns:xlink="http://www.w3.org/1999/xlink" width="46.719" height="65.859" viewBox="0 0 46.719 65.859">
  <defs>
    <linearGradient id="linear-gradient" x2="1" y2="1" gradientUnits="objectBoundingBox">
      <stop offset="0" stop-color="#99e"/>
      <stop offset="1" stop-color="#e2a1c4"/>
    </linearGradient>
  </defs>
  <path id="Path_378110" data-name="Path 378110" d="M17.227-60.937l-18.516,20a20.233,20.233,0,0,1,7.734,3.75,17.523,17.523,0,0,1,4.961,6.367,19.161,19.161,0,0,1,1.758,8.164A22.285,22.285,0,0,1,9.727-10.7,25.64,25.64,0,0,1,.469-1.836a24.6,24.6,0,0,1-12.383,3.32A20.112,20.112,0,0,1-24.336-2.383Q-29.492-6.25-29.492-11.8a7.825,7.825,0,0,1,1.6-5,5.847,5.847,0,0,1,4.258-2.266,12.25,12.25,0,0,0-.391,2.969A15.287,15.287,0,0,0-22.07-8.477a14.779,14.779,0,0,0,5.313,5.508,14.212,14.212,0,0,0,7.5,2.031A16.458,16.458,0,0,0-.781-3.359,18.212,18.212,0,0,0,5.742-9.883a16.458,16.458,0,0,0,2.422-8.477,16.982,16.982,0,0,0-2.07-8.2,19.019,19.019,0,0,0-5.7-6.445,21.12,21.12,0,0,0-8.242-3.555L10.508-56.8H-6.758q-5,0-7.109,1.328t-4.3,5.7H-19.8l5.859-14.609A13.44,13.44,0,0,0-9.57-63.359q3.2.312,8.281.313H16.68Z" transform="translate(29.492 64.375)" fill="url(#linear-gradient)"/>
</svg>
