<svg xmlns="http://www.w3.org/2000/svg" xmlns:xlink="http://www.w3.org/1999/xlink" width="1920" height="290" viewBox="0 0 1920 290">
  <defs>
    <clipPath id="clip-path">
      <rect id="mask" width="1920" height="290"/>
    </clipPath>
    <linearGradient id="linear-gradient" x1="1" y1="0.529" x2="0" y2="0.524" gradientUnits="objectBoundingBox">
      <stop offset="0" stop-color="#fff"/>
      <stop offset="0.512" stop-color="#fff"/>
      <stop offset="1" stop-color="#fff" stop-opacity="0"/>
    </linearGradient>
    <linearGradient id="linear-gradient-2" x1="0" y1="0.529" x2="1" y2="0.524" xlink:href="#linear-gradient"/>
    <linearGradient id="linear-gradient-3" x2="1" y2="1" gradientUnits="objectBoundingBox">
      <stop offset="0" stop-color="#e6e9fd"/>
      <stop offset="1" stop-color="#fdf2fb"/>
    </linearGradient>
    <linearGradient id="linear-gradient-4" x1="0.5" x2="0.5" y2="1" gradientUnits="objectBoundingBox">
      <stop offset="0" stop-color="#c6ceff"/>
      <stop offset="1" stop-color="#f7b6ca"/>
    </linearGradient>
    <linearGradient id="linear-gradient-5" x2="1" y2="1" gradientUnits="objectBoundingBox">
      <stop offset="0" stop-color="#99e"/>
      <stop offset="1" stop-color="#e2a1c4"/>
    </linearGradient>
  </defs>
  <g id="title" transform="translate(0 -1348.348)">
    <g id="line" transform="translate(0 1348.348)">
      <g id="Mask_Group_195063" data-name="Mask Group 195063" clip-path="url(#clip-path)">
        <path id="Path_169490" data-name="Path 169490" d="M0,2.339C267.382,12.345,233.424,22.267,340.946,17.99S594.5-2.464,706.361,2.339s172.957,26.492,307.372,23.773,158.068-8.629,262.139-14.479,249.625,3.854,352.943,6.355,145.268-7.047,230.87-15.65,117.747,9.295,117.747,9.295" transform="matrix(-0.996, 0.087, -0.087, -0.996, 1948.344, 83.311)" fill="none" stroke="#b1aaee" stroke-width="1"/>
        <path id="Path_169491" data-name="Path 169491" d="M1977.432,24.009C1710.049,14,1744.008,4.081,1636.485,8.358S1382.93,28.812,1271.071,24.009,1098.114-2.484,963.7.235,805.631,8.864,701.56,14.714,451.935,10.86,348.617,8.358,203.348,15.4,117.747,24.009,0,14.713,0,14.713" transform="matrix(0.995, -0.105, 0.105, 0.995, -22.434, 246.607)" fill="none" stroke="#c7a6dc" stroke-width="1" opacity="0.705"/>
        <path id="Path_169492" data-name="Path 169492" d="M0,.1c151.352-1.8,372.927,22.164,405.735,28.4S614.413,67.228,646.78,68.2s253,10.727,286.289,8.594,310.712-29.428,332.864-31.508,274.683-38.834,309.49-39.4S1725.524,9.913,1804.4,28.5s149.813,51.293,176.668,55.109" transform="matrix(-0.995, 0.105, -0.105, -0.995, 1967.048, 83.387)" fill="none" stroke="#c1a7e1" stroke-width="1" opacity="0.504"/>
        <path id="Path_169493" data-name="Path 169493" d="M0,85.11C82.423,72.5,485.856,14.093,606.729,5.407s340.049-5.566,413.972,0,301.469,46.711,364.619,48.281,343.931-1.236,401.142-7.785S1994.6,14.124,1994.6,14.124" transform="matrix(-0.998, 0.07, -0.07, -0.998, 1950.28, 114.791)" fill="none" stroke="#ec9fb9" stroke-width="1" opacity="0.699"/>
        <rect id="gra" width="600" height="290" transform="translate(1320)" fill="url(#linear-gradient)"/>
        <rect id="gra-2" data-name="gra" width="600" height="290" fill="url(#linear-gradient-2)"/>
      </g>
    </g>
    <circle id="bg" cx="120" cy="120" r="120" transform="translate(840 1353)" fill="url(#linear-gradient-3)"/>
    <path id="Path_378098" data-name="Path 378098" d="M-79.512-7.393l95.325,92.41-32.536-81.8Z" transform="translate(903.187 1355.74)" fill="url(#linear-gradient-4)"/>
    <path id="Path_378127" data-name="Path 378127" d="M13.281-14.3,8.516-.078a39.843,39.843,0,0,1-7.656.7A78.68,78.68,0,0,1-7.891.078Q-16.641-.859-20.7-.859A47.663,47.663,0,0,0-32.109.625V-1.562Q-27.031-5-21.094-9.609t12.5-10.312A98.351,98.351,0,0,0,1.758-30.391,35.076,35.076,0,0,0,7.3-39.336a23.6,23.6,0,0,0,1.758-8.945q0-6.328-3.242-10.117a10.793,10.793,0,0,0-8.633-3.789,13.613,13.613,0,0,0-9.3,3.516,10.725,10.725,0,0,0-3.984,8.281,7.1,7.1,0,0,0,1.289,4.18,6.212,6.212,0,0,0,3.32,2.461,4.184,4.184,0,0,1-3.906,2.188,5.576,5.576,0,0,1-4.258-1.8,6.375,6.375,0,0,1-1.68-4.531q0-6.172,6.484-11.406A21.939,21.939,0,0,1-.781-64.531q7.5,0,12.07,4.375t4.57,11.563A21.525,21.525,0,0,1,13.242-38.2,46.554,46.554,0,0,1,4.453-27.422Q-1.094-22.031-14.3-12.344q-6.016,4.531-7.734,5.859a41.289,41.289,0,0,1,6.8-.547q2.813,0,5.391.234l6.328.469q2.656.156,3.906.156A11.805,11.805,0,0,0,7.344-8.047a15.907,15.907,0,0,0,4.766-6.25Z" transform="translate(960 1466.799)" fill="url(#linear-gradient-5)"/>
  </g>
</svg>
