<svg xmlns="http://www.w3.org/2000/svg" xmlns:xlink="http://www.w3.org/1999/xlink" width="47.969" height="65.156" viewBox="0 0 47.969 65.156">
  <defs>
    <linearGradient id="linear-gradient" x2="1" y2="1" gradientUnits="objectBoundingBox">
      <stop offset="0" stop-color="#99e"/>
      <stop offset="1" stop-color="#e2a1c4"/>
    </linearGradient>
  </defs>
  <path id="Path_378109" data-name="Path 378109" d="M13.281-14.3,8.516-.078a39.843,39.843,0,0,1-7.656.7A78.68,78.68,0,0,1-7.891.078Q-16.641-.859-20.7-.859A47.663,47.663,0,0,0-32.109.625V-1.562Q-27.031-5-21.094-9.609t12.5-10.312A98.351,98.351,0,0,0,1.758-30.391,35.076,35.076,0,0,0,7.3-39.336a23.6,23.6,0,0,0,1.758-8.945q0-6.328-3.242-10.117a10.793,10.793,0,0,0-8.633-3.789,13.613,13.613,0,0,0-9.3,3.516,10.725,10.725,0,0,0-3.984,8.281,7.1,7.1,0,0,0,1.289,4.18,6.212,6.212,0,0,0,3.32,2.461,4.184,4.184,0,0,1-3.906,2.188,5.576,5.576,0,0,1-4.258-1.8,6.375,6.375,0,0,1-1.68-4.531q0-6.172,6.484-11.406A21.939,21.939,0,0,1-.781-64.531q7.5,0,12.07,4.375t4.57,11.563A21.525,21.525,0,0,1,13.242-38.2,46.554,46.554,0,0,1,4.453-27.422Q-1.094-22.031-14.3-12.344q-6.016,4.531-7.734,5.859a41.289,41.289,0,0,1,6.8-.547q2.813,0,5.391.234l6.328.469q2.656.156,3.906.156A11.805,11.805,0,0,0,7.344-8.047a15.907,15.907,0,0,0,4.766-6.25Z" transform="translate(32.109 64.531)" fill="url(#linear-gradient)"/>
</svg>
