<svg xmlns="http://www.w3.org/2000/svg" xmlns:xlink="http://www.w3.org/1999/xlink" width="34.98" height="48.926" viewBox="0 0 34.98 48.926">
  <defs>
    <linearGradient id="linear-gradient" x2="1" y2="1" gradientUnits="objectBoundingBox">
      <stop offset="0" stop-color="#99e"/>
      <stop offset="1" stop-color="#e2a1c4"/>
    </linearGradient>
  </defs>
  <path id="Path_378115" data-name="Path 378115" d="M-7.383-26.191a17.809,17.809,0,0,1-3.838-4.746,10.592,10.592,0,0,1-1.084-4.8,11.312,11.312,0,0,1,1.816-6.27,12.765,12.765,0,0,1,5.01-4.453,15.348,15.348,0,0,1,7.119-1.641,15.048,15.048,0,0,1,6.533,1.377,11.2,11.2,0,0,1,4.512,3.691,9.053,9.053,0,0,1,1.611,5.3A10.957,10.957,0,0,1,12.92-32.4a15.5,15.5,0,0,1-3.955,4.6,20.593,20.593,0,0,1-5.977,3.311l.586.469a26.09,26.09,0,0,1,5.654,5.6,9.987,9.987,0,0,1,1.494,5.537A12.312,12.312,0,0,1,6.064-3.135,17.261,17.261,0,0,1-5.508.82q-6.738,0-10.957-3.428a10.909,10.909,0,0,1-4.219-8.877,12.743,12.743,0,0,1,3.574-8.672A22.142,22.142,0,0,1-7.383-26.191Zm1.113.938a14.39,14.39,0,0,0-7.266,4.746,12.03,12.03,0,0,0-2.754,7.793A11.575,11.575,0,0,0-14.648-6.68a12.154,12.154,0,0,0,4.424,4.365A12,12,0,0,0-4.1-.7,10.514,10.514,0,0,0,3.4-3.516a9.322,9.322,0,0,0,2.988-7.09q0-4.57-4.629-8.5A75.884,75.884,0,0,0-6.27-25.254Zm8.027-.234A11.762,11.762,0,0,0,6.035-28.1a13.367,13.367,0,0,0,3.105-4.277,11.659,11.659,0,0,0,1.113-4.893,8.995,8.995,0,0,0-2.725-6.709A9.08,9.08,0,0,0,.938-46.641,10.776,10.776,0,0,0-3.9-45.527,9.1,9.1,0,0,0-7.471-42.48a7.245,7.245,0,0,0-1.318,4.16Q-8.789-32.461,1.758-25.488Z" transform="translate(20.684 48.105)" fill="url(#linear-gradient)"/>
</svg>
