<svg xmlns="http://www.w3.org/2000/svg" xmlns:xlink="http://www.w3.org/1999/xlink" width="375" height="209.999" viewBox="0 0 375 209.999">
  <defs>
    <clipPath id="clip-path">
      <rect id="mask" width="375" height="92.092"/>
    </clipPath>
    <linearGradient id="linear-gradient" x1="1" y1="0.529" x2="0" y2="0.524" gradientUnits="objectBoundingBox">
      <stop offset="0" stop-color="#fff"/>
      <stop offset="1" stop-color="#fff" stop-opacity="0"/>
    </linearGradient>
    <linearGradient id="linear-gradient-2" x1="0" y1="0.529" x2="1" y2="0.524" xlink:href="#linear-gradient"/>
    <linearGradient id="linear-gradient-3" x2="1" y2="1" gradientUnits="objectBoundingBox">
      <stop offset="0" stop-color="#e6e9fd"/>
      <stop offset="1" stop-color="#fdf2fb"/>
    </linearGradient>
    <linearGradient id="linear-gradient-4" x2="1" y2="1" gradientUnits="objectBoundingBox">
      <stop offset="0" stop-color="#99e"/>
      <stop offset="1" stop-color="#e2a1c4"/>
    </linearGradient>
    <linearGradient id="linear-gradient-5" x1="0.5" x2="0.5" y2="1" gradientUnits="objectBoundingBox">
      <stop offset="0" stop-color="#c6ceff"/>
      <stop offset="1" stop-color="#f7b6ca"/>
    </linearGradient>
  </defs>
  <g id="title" transform="translate(-0.5 24)">
    <g id="line" transform="translate(0.5 29.954)">
      <g id="Mask_Group_195063" data-name="Mask Group 195063" clip-path="url(#clip-path)">
        <path id="Path_169490" data-name="Path 169490" d="M0,21.007c52.365.33,45.6,3.832,66.742,1.337s49.975-9.167,71.875-8.834,33.66,6.552,60.067,4.265,31.111-4.41,51.6-7.367,48.946-1.429,69.195-1.734S348.057,4.9,364.947,1.268s23.008,1.693,23.008,1.693" transform="matrix(-0.996, 0.087, -0.087, -0.996, 382.327, 46.643)" fill="none" stroke="#b1aaee" stroke-width="1"/>
        <path id="Path_169491" data-name="Path 169491" d="M388.74,1.643c-52.453.234-45.649-3.335-66.848-.616s-50.121,9.69-72.057,9.593-33.675-6.18-60.142-3.612-31.194,4.737-51.733,7.91-49.039,1.954-69.325,2.475-28.656,4.075-45.6,7.883S0,23.833,0,23.833" transform="translate(-6.572 59.256) rotate(-6)" fill="none" stroke="#c7a6dc" stroke-width="1" opacity="0.705"/>
        <path id="Path_169492" data-name="Path 169492" d="M0,18.477c29.786-2.494,73.054,2.27,79.426,3.825s40.544,9.595,46.9,9.491,49.616.177,56.189-.921,61.475-13.254,65.857-14.194S302.878.908,309.73.286,339.2-.347,354.472,4.528,383.28,18.844,388.513,19.71" transform="matrix(-0.995, 0.105, -0.105, -0.995, 386.118, 44.825)" fill="none" stroke="#c1a7e1" stroke-width="1" opacity="0.504"/>
        <path id="Path_169493" data-name="Path 169493" d="M0,39.467c16.255-4.7,95.787-26.643,119.541-30.424s66.665-4.657,81.1-3.522,58.663,12.241,71.021,12.2,67.389-3.318,78.653-5.88S391.36,0,391.36,0" transform="matrix(-0.998, 0.07, -0.07, -0.998, 382.508, 48.862)" fill="none" stroke="#ec9fb9" stroke-width="1" opacity="0.699"/>
        <rect id="gra" width="100" height="92.092" transform="translate(275)" fill="url(#linear-gradient)"/>
        <rect id="gra-2" data-name="gra" width="100" height="92.092" fill="url(#linear-gradient-2)"/>
      </g>
    </g>
    <circle id="bg" cx="100" cy="100" r="100" transform="translate(87.5 -14.001)" fill="url(#linear-gradient-3)"/>
    <path id="Path_378196" data-name="Path 378196" d="M-7.383-26.191a17.809,17.809,0,0,1-3.838-4.746,10.592,10.592,0,0,1-1.084-4.8,11.312,11.312,0,0,1,1.816-6.27,12.765,12.765,0,0,1,5.01-4.453,15.348,15.348,0,0,1,7.119-1.641,15.048,15.048,0,0,1,6.533,1.377,11.2,11.2,0,0,1,4.512,3.691,9.053,9.053,0,0,1,1.611,5.3A10.957,10.957,0,0,1,12.92-32.4a15.5,15.5,0,0,1-3.955,4.6,20.593,20.593,0,0,1-5.977,3.311l.586.469a26.09,26.09,0,0,1,5.654,5.6,9.987,9.987,0,0,1,1.494,5.537A12.312,12.312,0,0,1,6.064-3.135,17.261,17.261,0,0,1-5.508.82q-6.738,0-10.957-3.428a10.909,10.909,0,0,1-4.219-8.877,12.743,12.743,0,0,1,3.574-8.672A22.142,22.142,0,0,1-7.383-26.191Zm1.113.938a14.39,14.39,0,0,0-7.266,4.746,12.03,12.03,0,0,0-2.754,7.793A11.575,11.575,0,0,0-14.648-6.68a12.154,12.154,0,0,0,4.424,4.365A12,12,0,0,0-4.1-.7,10.514,10.514,0,0,0,3.4-3.516a9.322,9.322,0,0,0,2.988-7.09q0-4.57-4.629-8.5A75.884,75.884,0,0,0-6.27-25.254Zm8.027-.234A11.762,11.762,0,0,0,6.035-28.1a13.367,13.367,0,0,0,3.105-4.277,11.659,11.659,0,0,0,1.113-4.893,8.995,8.995,0,0,0-2.725-6.709A9.08,9.08,0,0,0,.938-46.641,10.776,10.776,0,0,0-3.9-45.527,9.1,9.1,0,0,0-7.471-42.48a7.245,7.245,0,0,0-1.318,4.16Q-8.789-32.461,1.758-25.488Z" transform="translate(187.5 86.5)" fill="url(#linear-gradient-4)"/>
    <path id="Path_378097" data-name="Path 378097" d="M-83.687,14.622l59.4,46.977L-48.08,3.539Z" transform="translate(182.291 -27.539)" fill="url(#linear-gradient-5)"/>
  </g>
</svg>
