<svg xmlns="http://www.w3.org/2000/svg" xmlns:xlink="http://www.w3.org/1999/xlink" width="375" height="209.999" viewBox="0 0 375 209.999">
  <defs>
    <clipPath id="clip-path">
      <rect id="mask" width="375" height="92.092"/>
    </clipPath>
    <linearGradient id="linear-gradient" y1="0.529" x2="1" y2="0.524" gradientUnits="objectBoundingBox">
      <stop offset="0" stop-color="#fff"/>
      <stop offset="1" stop-color="#fff" stop-opacity="0"/>
    </linearGradient>
    <linearGradient id="linear-gradient-2" x1="1" y1="0.529" x2="0" y2="0.524" xlink:href="#linear-gradient"/>
    <linearGradient id="linear-gradient-3" x2="1" y2="1" gradientUnits="objectBoundingBox">
      <stop offset="0" stop-color="#e6e9fd"/>
      <stop offset="1" stop-color="#fdf2fb"/>
    </linearGradient>
    <linearGradient id="linear-gradient-4" x2="1" y2="1" gradientUnits="objectBoundingBox">
      <stop offset="0" stop-color="#99e"/>
      <stop offset="1" stop-color="#e2a1c4"/>
    </linearGradient>
    <linearGradient id="linear-gradient-5" x1="0.5" x2="0.5" y2="1" gradientUnits="objectBoundingBox">
      <stop offset="0" stop-color="#c6ceff"/>
      <stop offset="1" stop-color="#f7b6ca"/>
    </linearGradient>
  </defs>
  <g id="title" transform="translate(-0.5 24)">
    <g id="line" transform="translate(0.5 29.954)">
      <g id="Mask_Group_195063" data-name="Mask Group 195063" clip-path="url(#clip-path)">
        <path id="Path_169490" data-name="Path 169490" d="M0,2.228C52.365,1.9,45.6-1.6,66.742.891s49.975,9.167,71.875,8.834,33.66-6.552,60.067-4.265,31.111,4.41,51.6,7.367,48.946,1.429,69.195,1.734,28.582,3.773,45.472,7.406,23.008-1.693,23.008-1.693" transform="matrix(0.996, 0.087, -0.087, 0.996, -5.302, 23.496)" fill="none" stroke="#b1aaee" stroke-width="1"/>
        <path id="Path_169491" data-name="Path 169491" d="M388.74,25.018c-52.453-.234-45.649,3.335-66.848.616s-50.121-9.69-72.057-9.593-33.675,6.18-60.142,3.612-31.194-4.737-51.733-7.91S88.921,9.79,68.636,9.269s-28.656-4.075-45.6-7.883S0,2.829,0,2.829" transform="matrix(-0.995, -0.105, 0.105, -0.995, 378.786, 85.772)" fill="none" stroke="#c7a6dc" stroke-width="1" opacity="0.705"/>
        <path id="Path_169492" data-name="Path 169492" d="M0,13.317c29.786,2.494,73.054-2.27,79.426-3.825S119.97-.1,126.323,0s49.616-.177,56.189.921,61.475,13.254,65.857,14.194,54.509,15.771,61.361,16.393,29.466.633,44.741-4.242S383.28,12.95,388.513,12.085" transform="matrix(0.995, 0.105, -0.105, 0.995, -7.795, 13.205)" fill="none" stroke="#c1a7e1" stroke-width="1" opacity="0.504"/>
        <path id="Path_169493" data-name="Path 169493" d="M0,0C16.255,4.7,95.787,26.643,119.541,30.424s66.665,4.657,81.1,3.522S259.3,21.7,271.662,21.744s67.389,3.318,78.653,5.88S391.36,39.467,391.36,39.467" transform="matrix(0.998, 0.07, -0.07, 0.998, -4.754, 9.491)" fill="none" stroke="#ec9fb9" stroke-width="1" opacity="0.699"/>
        <rect id="gra" width="100" height="92.092" fill="url(#linear-gradient)"/>
        <rect id="gra-2" data-name="gra" width="100" height="92.092" transform="translate(275)" fill="url(#linear-gradient-2)"/>
      </g>
    </g>
    <circle id="bg" cx="100" cy="100" r="100" transform="translate(87.5 -14.001)" fill="url(#linear-gradient-3)"/>
    <path id="Path_378195" data-name="Path 378195" d="M-5.977-2.578-14.59,1.758-14,.527q6.094-12.48,9.961-19.336A206.037,206.037,0,0,1,11.309-42.6H-3.4a11.171,11.171,0,0,0-5.449,1.025A10.416,10.416,0,0,0-12.3-37.324h-1.055L-8.965-48.4a15.507,15.507,0,0,0,3.9.908q2.021.205,5.713.205H16v1.172l-.762,1q-5.625,7.148-8.76,12.07A96.246,96.246,0,0,0,.41-21.8a89.167,89.167,0,0,0-3.984,9.785A68.074,68.074,0,0,0-5.977-2.578Z" transform="translate(187.5 86.5)" fill="url(#linear-gradient-4)"/>
    <path id="Path_378097" data-name="Path 378097" d="M-24.291,14.622-83.687,61.6-59.9,3.539Z" transform="translate(301.687 -27.539)" fill="url(#linear-gradient-5)"/>
  </g>
</svg>
