<svg xmlns="http://www.w3.org/2000/svg" width="46.167" height="50.064" viewBox="0 0 46.167 50.064">
  <g id="Group_193184" data-name="Group 193184" transform="translate(2 2.064)">
    <path id="Path_9281" data-name="Path 9281" d="M1117.664,432.009q-3.075-.459-6.165-.771V408.1a3.265,3.265,0,0,0-.371-1.538,3.147,3.147,0,0,0-.588-.783,3.242,3.242,0,0,0-.371-.31,3.339,3.339,0,0,0-.85-.441,3.4,3.4,0,0,0-.514-.132,3.161,3.161,0,0,0-3.1,1.186l-8.548,10.836-8.548-10.836a3.243,3.243,0,0,0-5.788,2.017v23.222q-2.666.291-5.322.684a1.174,1.174,0,0,0-1,1.158v7.687a1.176,1.176,0,0,0,1.356,1.153q4.934-.723,9.9-1.082l6.846,8.679a3.258,3.258,0,0,0,4.574.543,3.294,3.294,0,0,0,.542-.543l3.314-4.2,3.573-4.527q5.367.356,10.7,1.132a1.176,1.176,0,0,0,1.356-1.153v-7.687A1.174,1.174,0,0,0,1117.664,432.009Z" transform="translate(-1076.5 -404.845)" fill="#fff" stroke="#fff" stroke-linecap="round" stroke-linejoin="round" stroke-width="4"/>
    <g id="Group_1962" data-name="Group 1962" transform="translate(6.306)">
      <path id="Path_9282" data-name="Path 9282" d="M1097.907,416.922l-8.561-10.836a3.248,3.248,0,0,0-5.8,2.017v24.979a4.582,4.582,0,0,0,.986,2.838l10.811,13.684a3.263,3.263,0,0,0,5.121,0l10.811-13.684a4.58,4.58,0,0,0,.986-2.838V408.1a3.248,3.248,0,0,0-5.8-2.017Z" transform="translate(-1083.55 -404.845)" fill="#ffc200"/>
    </g>
    <g id="Group_1963" data-name="Group 1963" transform="translate(20.646)">
      <path id="Path_9283" data-name="Path 9283" d="M1108.09,406.086l-8.56,10.836v33.923a3.245,3.245,0,0,0,2.56-1.241L1112.9,435.92a4.58,4.58,0,0,0,.986-2.838V408.1A3.248,3.248,0,0,0,1108.09,406.086Z" transform="translate(-1099.53 -404.845)" fill="#5dc200"/>
    </g>
    <path id="Path_9284" data-name="Path 9284" d="M1117.31,445.439a135.146,135.146,0,0,0-39.454,0,1.178,1.178,0,0,1-1.356-1.161v-7.743a1.18,1.18,0,0,1,1-1.166,135.128,135.128,0,0,1,40.161,0,1.18,1.18,0,0,1,1,1.166v7.743A1.178,1.178,0,0,1,1117.31,445.439Z" transform="translate(-1076.5 -408.256)" fill="#595757"/>
    <g id="Group_1964" data-name="Group 1964" transform="translate(4.027 28.94)">
      <path id="Path_9285" data-name="Path 9285" d="M1085.115,440.769c.062.646-.425,1.035-1.258,1.117l-2.533.25-.342-3.587,2.386-.236c.777-.077,1.327.2,1.384.785a.781.781,0,0,1-.689.89C1084.616,439.97,1085.059,440.184,1085.115,440.769Zm-3.393-.768,1.7-.167c.474-.047.781-.186.744-.581s-.365-.465-.839-.419l-1.7.168Zm2.767.768c-.039-.405-.368-.5-.9-.45l-1.821.18.1,1.066,1.82-.179C1084.222,441.333,1084.527,441.173,1084.489,440.769Z" transform="translate(-1080.982 -437.664)" fill="#fff"/>
      <path id="Path_9286" data-name="Path 9286" d="M1086.981,441.643l-.253-3.593.606-.044.253,3.593Z" transform="translate(-1081.566 -437.632)" fill="#fff"/>
      <path id="Path_9287" data-name="Path 9287" d="M1093.209,440.453a2.266,2.266,0,0,1-1.959,1.011c-1.4.067-2.267-.613-2.322-1.8s.748-1.949,2.135-2.016a2.4,2.4,0,0,1,1.856.628l-.479.384a1.621,1.621,0,0,0-1.347-.472c-1,.048-1.589.54-1.547,1.445s.686,1.339,1.7,1.291a1.539,1.539,0,0,0,1.36-.643l-.019-.411-1.479.07-.024-.53,2.067-.1Z" transform="translate(-1081.803 -437.592)" fill="#fff"/>
      <path id="Path_9288" data-name="Path 9288" d="M1095.063,441.241l-.076-3.6.607-.013.078,3.6Z" transform="translate(-1082.427 -437.59)" fill="#fff"/>
      <path id="Path_9289" data-name="Path 9289" d="M1101.275,437.6l-.013,3.6-.537,0-2.759-2.85-.011,2.841-.588,0,.014-3.6.649,0,2.643,2.743.01-2.732Z" transform="translate(-1082.675 -437.586)" fill="#fff"/>
      <path id="Path_9290" data-name="Path 9290" d="M1107.344,437.791l-.14,3.6-.536-.021-2.66-2.951-.111,2.84-.587-.024.139-3.6.649.027,2.547,2.838.106-2.732Z" transform="translate(-1083.29 -437.591)" fill="#fff"/>
      <path id="Path_9291" data-name="Path 9291" d="M1112.814,441.242l-.039.538-3.521-.264.261-3.594,3.471.261-.039.539-2.87-.216-.069.96,2.414.181-.04.54-2.414-.182-.075,1.016Z" transform="translate(-1083.913 -437.623)" fill="#fff"/>
      <path id="Path_9292" data-name="Path 9292" d="M1117.66,442.293l-.954-1.421-1.486-.165-.139,1.3-.6-.067.384-3.583,2.4.265c.821.09,1.384.557,1.3,1.3a1.12,1.12,0,0,1-1.157,1l1,1.457Zm-.631-1.919c.5.056.864-.07.912-.515s-.278-.648-.782-.7l-1.758-.194-.13,1.218Z" transform="translate(-1084.444 -437.67)" fill="#fff"/>
    </g>
  </g>
</svg>
