<svg xmlns="http://www.w3.org/2000/svg" xmlns:xlink="http://www.w3.org/1999/xlink" width="264.492" height="261.652" viewBox="0 0 264.492 261.652">
  <defs>
    <linearGradient id="linear-gradient" x2="1" y2="1" gradientUnits="objectBoundingBox">
      <stop offset="0" stop-color="#e6e9fd"/>
      <stop offset="1" stop-color="#fdf2fb"/>
    </linearGradient>
    <linearGradient id="linear-gradient-2" x1="0.5" x2="0.5" y2="1" gradientUnits="objectBoundingBox">
      <stop offset="0" stop-color="#c6ceff"/>
      <stop offset="1" stop-color="#f7b6ca"/>
    </linearGradient>
    <linearGradient id="linear-gradient-3" x2="1" y2="1" gradientUnits="objectBoundingBox">
      <stop offset="0" stop-color="#99e"/>
      <stop offset="1" stop-color="#e2a1c4"/>
    </linearGradient>
  </defs>
  <g id="Group_207053" data-name="Group 207053" transform="translate(-823.408 -1331.348)">
    <circle id="bg" cx="120" cy="120" r="120" transform="translate(840 1353)" fill="url(#linear-gradient)"/>
    <path id="Path_378098" data-name="Path 378098" d="M-79.512-7.393l95.325,92.41-32.536-81.8Z" transform="translate(939.841 1338.74)" fill="url(#linear-gradient-2)"/>
    <path id="Path_378107" data-name="Path 378107" d="M-84.053-21.631H-96.211l-.1.244A43.887,43.887,0,0,1-104.146-8.74,31.746,31.746,0,0,1-114.937-.806a32.109,32.109,0,0,1-13.11,2.661A27.338,27.338,0,0,1-136.592.635l1.563-3.76A24.555,24.555,0,0,0-123.945-.244a21.043,21.043,0,0,0,15.039-6.445,29.3,29.3,0,0,0,4.663-5.884,60.564,60.564,0,0,0,4.077-8.813l.1-.244H-105l.342-1.66h5.176l.1-.293.342-.83q1.66-4.639,2.979-9.082t3.223-12.061q1.807-7.129,2.588-11.523l5.078-2.295a4.656,4.656,0,0,0-.635-.122q-.244-.024-.586-.073a195.222,195.222,0,0,0-21.094-1.367,48.691,48.691,0,0,0-9.155.708,17.032,17.032,0,0,0-5.884,2.173q-3.418,2.2-3.418,5.518,0,6.885,17.188,7.813l-3.271,3.467q-6.982-.439-11.206-3.345a8.727,8.727,0,0,1-4.224-7.446q0-6.006,7.568-9.668,6.4-3.076,18.848-3.076,3.32,0,8.569.391t10.864,1q5.615.61,9.326,1.294l.879.146-2.2,4.395-.879-.146q-4.346-.781-10.156-1.611l-.342-.049-.049.293q-.244,1.221-1.343,5.835T-88.3-45.605q-.83,3.027-1.758,6.274t-2,6.47q-1.855,5.713-3.467,9.57h11.816ZM-49.395-7.568l.879.732A22.987,22.987,0,0,1-54.424-1.05a11.577,11.577,0,0,1-6.2,1.782A8.157,8.157,0,0,1-66.973-1.9a9.991,9.991,0,0,1-2.393-6.982A19.4,19.4,0,0,1-67.046-17.8a23.987,23.987,0,0,1,5.811-7.471,10.775,10.775,0,0,1,6.909-2.954,4.722,4.722,0,0,1,3.3,1.172,3.9,3.9,0,0,1,1.294,3.027q0,3.76-4.1,7.52a33.915,33.915,0,0,1-11.182,6.4,7.138,7.138,0,0,0-.049.879,8.046,8.046,0,0,0,1.855,5.493,6.062,6.062,0,0,0,4.785,2.124,7.877,7.877,0,0,0,4.443-1.44A21.471,21.471,0,0,0-49.395-7.568ZM-65.02-11.279A26.215,26.215,0,0,0-56.914-16.5a17.823,17.823,0,0,0,3.076-4.2,8.924,8.924,0,0,0,1.172-4.053q0-2.295-2.1-2.295-3.174,0-6.421,5A24,24,0,0,0-65.02-11.279ZM-7.607-28.857-12.2-10.986A20.265,20.265,0,0,0-12.93-6.4a4.9,4.9,0,0,0,.635,2.539,1.828,1.828,0,0,0,1.563,1.074q1.416,0,4.688-3.467l.684.684-.537.635A44.234,44.234,0,0,1-9.878-.757a4.016,4.016,0,0,1-2.417,1.2A3.288,3.288,0,0,1-15-1.2,6.424,6.424,0,0,1-16.152-4.98a46.432,46.432,0,0,1,1.172-7.08l.391-1.855a36.244,36.244,0,0,1-4.834,8.057Q-24.5.586-29.141.586a5.338,5.338,0,0,1-4.395-2,8.319,8.319,0,0,1-1.611-5.371,20.887,20.887,0,0,1,2.612-9.619,26.6,26.6,0,0,1,6.494-8.276q3.882-3.247,7.544-3.247A6.473,6.473,0,0,1-12.734-25.1l.537-1.855Zm-5.615,6.25A5.652,5.652,0,0,0-15.2-25.513a5.168,5.168,0,0,0-3.2-1.05,7.294,7.294,0,0,0-4.541,1.978,19.616,19.616,0,0,0-4.395,5.493,31.936,31.936,0,0,0-2.612,6.152A19.526,19.526,0,0,0-31-7.373a6.932,6.932,0,0,0,.952,3.906,3.074,3.074,0,0,0,2.71,1.416,7.344,7.344,0,0,0,4.688-2.1,25.329,25.329,0,0,0,4.834-6.006,22.56,22.56,0,0,0,2.295-4.492q.83-2.246,1.855-6.25ZM16.7-26.074,12.988-9.814A20.808,20.808,0,0,0,12.4-6.006a4.506,4.506,0,0,0,.83,2.832A2.641,2.641,0,0,0,15.43-2.1a4.169,4.169,0,0,0,2.417-.757,24.975,24.975,0,0,0,3.345-3.149l.586-.586.732.732A30.639,30.639,0,0,1,17.7-.9,6.344,6.344,0,0,1,13.916.537,4.789,4.789,0,0,1,10.181-1,5.774,5.774,0,0,1,8.789-5.029,28.611,28.611,0,0,1,9.521-10.4L12.7-26.074H8.008l.342-1.66h4.688l2.734-13.184,4.688-1.855L17.041-27.734h7.91l-.342,1.66Zm28.506-2.49-4.736,18.9a18.243,18.243,0,0,0-.635,4.3,3.6,3.6,0,0,0,1.074,2.734,3.865,3.865,0,0,0,2.783,1.025q4.15,0,8.643-6.787l.2-.293q.1-.488.146-.781l3.076-17.09,4.785-2L56.24-12.5a25.6,25.6,0,0,0-1.074,6.348A5.248,5.248,0,0,0,55.7-3.613a1.6,1.6,0,0,0,1.416.977q1.514,0,4.834-3.613l.781.684-.488.537a46.8,46.8,0,0,1-4.1,4.419A3.874,3.874,0,0,1,55.7.537,3.053,3.053,0,0,1,53.14-1a6.645,6.645,0,0,1-1.05-3.833q0-.732.049-1.367Q47.061.537,42.08.537A5.481,5.481,0,0,1,38.1-.9a5.087,5.087,0,0,1-1.489-3.833,23.814,23.814,0,0,1,.537-4.541l3.32-17.285Zm30.215,14.7a29.654,29.654,0,0,0,5.615-9.473,6.88,6.88,0,0,1-3.955-6.3,5.1,5.1,0,0,1,.928-3.174,2.831,2.831,0,0,1,2.344-1.221,2.8,2.8,0,0,1,2.393,1.343,6.019,6.019,0,0,1,.928,3.491,12.224,12.224,0,0,1-.537,3.369,9.616,9.616,0,0,0,2.393.342,7.163,7.163,0,0,0,4.98-1.758h2.344l-.342.684a93.232,93.232,0,0,0-5.786,12.671q-2.271,6.226-2.271,9.3a2.979,2.979,0,0,0,.586,1.88,1.742,1.742,0,0,0,1.416.757q2,0,6.445-4.248l.781.879a34.724,34.724,0,0,1-4.248,3.76A7.994,7.994,0,0,1,84.6.488a3.764,3.764,0,0,1-3-1.27,5.12,5.12,0,0,1-1.1-3.467q0-3.662,2.832-9.277,1.025-2.1,2.637-4.785t4.053-6.4l.488-.684a10.854,10.854,0,0,1-3.1,2.075,8.885,8.885,0,0,1-3.394.61,7.656,7.656,0,0,1-1.855-.244A30.02,30.02,0,0,1,76.3-13.086Zm6.689-12.4a13.369,13.369,0,0,0,.2-2.051,5.405,5.405,0,0,0-.562-2.686,1.65,1.65,0,0,0-1.44-.977,1.07,1.07,0,0,0-.854.464,1.794,1.794,0,0,0-.366,1.147Q79.082-28.076,82.109-26.27Zm44.912,18.7.879.732a22.987,22.987,0,0,1-5.908,5.786,11.577,11.577,0,0,1-6.2,1.782A8.157,8.157,0,0,1,109.443-1.9a9.991,9.991,0,0,1-2.393-6.982A19.4,19.4,0,0,1,109.37-17.8a23.987,23.987,0,0,1,5.811-7.471,10.775,10.775,0,0,1,6.909-2.954,4.722,4.722,0,0,1,3.3,1.172,3.9,3.9,0,0,1,1.294,3.027q0,3.76-4.1,7.52a33.915,33.915,0,0,1-11.182,6.4,7.138,7.138,0,0,0-.049.879A8.046,8.046,0,0,0,113.2-3.735a6.062,6.062,0,0,0,4.785,2.124,7.877,7.877,0,0,0,4.443-1.44A21.471,21.471,0,0,0,127.021-7.568ZM111.4-11.279A26.215,26.215,0,0,0,119.5-16.5a17.823,17.823,0,0,0,3.076-4.2,8.924,8.924,0,0,0,1.172-4.053q0-2.295-2.1-2.295-3.174,0-6.421,5A24,24,0,0,0,111.4-11.279Z" transform="translate(960 1466.799)" fill="url(#linear-gradient-3)"/>
  </g>
</svg>
