<svg xmlns="http://www.w3.org/2000/svg" xmlns:xlink="http://www.w3.org/1999/xlink" width="32.461" height="49.277" viewBox="0 0 32.461 49.277">
  <defs>
    <linearGradient id="linear-gradient" x2="1" y2="1" gradientUnits="objectBoundingBox">
      <stop offset="0" stop-color="#99e"/>
      <stop offset="1" stop-color="#e2a1c4"/>
    </linearGradient>
  </defs>
  <path id="Path_378113" data-name="Path 378113" d="M-12.48-21.738Q-7.324-31.758,1-31.758a9.459,9.459,0,0,1,7.5,3.223q2.813,3.223,2.813,8.672A20.588,20.588,0,0,1,9.785-12.1,23.476,23.476,0,0,1,5.742-5.42,20.7,20.7,0,0,1-.088-.732,13.985,13.985,0,0,1-6.8,1.055a10.363,10.363,0,0,1-8.7-4.072q-3.135-4.072-3.135-11.4a36.586,36.586,0,0,1,2.168-12.158,41.477,41.477,0,0,1,5.742-11.016,30.448,30.448,0,0,1,8.145-7.734,16.861,16.861,0,0,1,9.082-2.9,8.18,8.18,0,0,1,5.273,1.641,5.162,5.162,0,0,1,2.051,4.219,4.737,4.737,0,0,1-1.289,3.252,4.089,4.089,0,0,1-3.164,1.436,6.69,6.69,0,0,1-.937-.059,8.11,8.11,0,0,0,1.172-4.043,4.637,4.637,0,0,0-1.23-3.516A4.988,4.988,0,0,0,4.8-46.465,10.764,10.764,0,0,0-2.432-43.33a27.454,27.454,0,0,0-6.182,8.877,47.245,47.245,0,0,0-2.607,6.8A32.11,32.11,0,0,0-12.48-21.738ZM-13.887-9.961q0,9.668,6.973,9.668A9.05,9.05,0,0,0-.674-3.164,20.245,20.245,0,0,0,4.16-10.9a28.1,28.1,0,0,0,1.816-9.9,10.362,10.362,0,0,0-1.67-6.357,5.766,5.766,0,0,0-4.893-2.2q-5.156,0-8.848,5.215a25.608,25.608,0,0,0-3.135,6.826A24.958,24.958,0,0,0-13.887-9.961Z" transform="translate(18.633 48.223)" fill="url(#linear-gradient)"/>
</svg>
