<svg xmlns="http://www.w3.org/2000/svg" xmlns:xlink="http://www.w3.org/1999/xlink" width="81.197" height="33.123" viewBox="0 0 81.197 33.123">
  <defs>
    <linearGradient id="linear-gradient" x1="0.5" x2="0.5" y2="1" gradientUnits="objectBoundingBox">
      <stop offset="0" stop-color="#c1c19c"/>
      <stop offset="1" stop-color="#868359"/>
    </linearGradient>
    <filter id="Path_370757" x="61.872" y="0" width="19.325" height="33.123" filterUnits="userSpaceOnUse">
      <feOffset dx="1" dy="1" input="SourceAlpha"/>
      <feGaussianBlur result="blur"/>
      <feFlood flood-opacity="0.161"/>
      <feComposite operator="in" in2="blur"/>
      <feComposite in="SourceGraphic"/>
    </filter>
    <filter id="Path_370756" x="0" y="4.749" width="60.787" height="28.089" filterUnits="userSpaceOnUse">
      <feOffset dx="1" dy="1" input="SourceAlpha"/>
      <feGaussianBlur result="blur-2"/>
      <feFlood flood-opacity="0.161"/>
      <feComposite operator="in" in2="blur-2"/>
      <feComposite in="SourceGraphic"/>
    </filter>
  </defs>
  <g id="Group_193693" data-name="Group 193693" transform="translate(-96.629 -26.252)">
    <g transform="matrix(1, 0, 0, 1, 96.63, 26.25)" filter="url(#Path_370757)">
      <g id="Path_370757-2" data-name="Path 370757" transform="translate(52.37 81.63)" stroke-linecap="round" stroke-linejoin="round" fill="url(#linear-gradient)">
        <path d="M 25.21000671386719 -50.50191116333008 C 24.37253761291504 -50.50191116333008 23.58970832824707 -50.52477264404297 22.88327789306641 -50.56986236572266 C 22.20428848266602 -50.61320114135742 21.53070831298828 -50.64981079101562 20.8812370300293 -50.67867279052734 C 20.24004745483398 -50.70717239379883 19.52315711975098 -50.72162246704102 18.7504768371582 -50.72162246704102 C 17.97686767578125 -50.72162246704102 17.23688697814941 -50.70713043212891 16.55106735229492 -50.67855072021484 C 15.85829734802246 -50.64969253540039 15.15562725067139 -50.61309051513672 14.46257781982422 -50.56978225708008 C 13.74199771881104 -50.52474212646484 12.96700763702393 -50.50191116333008 12.15913772583008 -50.50191116333008 C 11.56254768371582 -50.50191116333008 11.18246746063232 -50.75677108764648 10.96865749359131 -50.9705696105957 C 10.58130741119385 -51.35793304443359 10.49999809265137 -51.76007080078125 10.49999809265137 -52.02922058105469 C 10.49999809265137 -52.37913131713867 10.63655757904053 -53.22940063476562 11.9014778137207 -53.56671142578125 C 12.98803806304932 -53.8526496887207 13.88739776611328 -54.11865234375 14.57775783538818 -54.35816192626953 C 15.09870719909668 -54.53890228271484 15.47102737426758 -54.77633285522461 15.68436717987061 -55.06388092041016 C 15.88613796234131 -55.33583068847656 15.99278736114502 -55.80596160888672 15.99278736114502 -56.4234504699707 L 15.99278736114502 -73.20941925048828 C 15.99278736114502 -73.57595062255859 15.87540721893311 -73.67377471923828 15.82527732849121 -73.71553802490234 C 15.6020975112915 -73.90151977539062 15.28986740112305 -74.03774261474609 14.89725780487061 -74.12039184570312 C 14.39602756500244 -74.22591400146484 13.84390735626221 -74.29296112060547 13.25621795654297 -74.31967926025391 L 13.2291374206543 -74.32090759277344 L 13.20214748382568 -74.3236083984375 C 12.78905773162842 -74.36491394042969 12.40593719482422 -74.47269439697266 12.06344795227051 -74.64394378662109 C 11.48873805999756 -74.93132019042969 11.15913772583008 -75.44952392578125 11.15913772583008 -76.065673828125 C 11.15913772583008 -76.38042449951172 11.25980758666992 -76.97556304931641 11.93400764465332 -77.42503356933594 C 12.2824182510376 -77.65729522705078 12.68398380279541 -77.79969787597656 13.12808513641357 -77.8485107421875 C 14.38692378997803 -78.04521942138672 15.52513790130615 -78.29283142089844 16.51141738891602 -78.58454895019531 C 17.38479804992676 -78.84288024902344 18.26982688903809 -79.41605377197266 19.14192771911621 -80.28816223144531 C 19.3591480255127 -80.50537109375 19.64928817749023 -80.625 19.95889854431152 -80.625 L 20.06874847412109 -80.625 C 20.40485763549805 -80.625 20.71623802185059 -80.53688812255859 20.99424743652344 -80.36312866210938 C 21.45300674438477 -80.07643127441406 21.67847442626953 -79.57217407226562 21.58262252807617 -79.06201934814453 C 21.52989959716797 -78.65888214111328 21.48954963684082 -78.21581268310547 21.46260833740234 -77.74435424804688 C 21.43452835083008 -77.25298309326172 21.4202880859375 -76.70298004150391 21.4202880859375 -76.10961151123047 L 21.4202880859375 -55.89615249633789 C 21.4202880859375 -55.22434234619141 21.5611572265625 -54.9312629699707 21.64512825012207 -54.81636047363281 C 21.79150772094727 -54.61605072021484 22.12205696105957 -54.42424011230469 22.57588768005371 -54.27625274658203 C 23.21684455871582 -54.06724548339844 24.1280689239502 -53.81805801391602 25.28442001342773 -53.53554916381836 C 25.57745933532715 -53.48106002807617 25.85850524902344 -53.36910247802734 26.1203784942627 -53.20244979858398 C 26.56829833984375 -52.91744232177734 26.82519721984863 -52.47379302978516 26.82519721984863 -51.98528289794922 C 26.82519721984863 -51.24693298339844 26.32576751708984 -50.50191116333008 25.21000671386719 -50.50191116333008 Z" stroke="none"/>
        <path d="M 25.21000671386719 -51.50191116333008 C 25.62013816833496 -51.50191116333008 25.82519721984863 -51.66303253173828 25.82519721984863 -51.98528289794922 C 25.82519721984863 -52.13175201416016 25.74463844299316 -52.25625991821289 25.5835075378418 -52.35879135131836 C 25.42238807678223 -52.46132278442383 25.25394821166992 -52.52724075317383 25.07817840576172 -52.5565299987793 C 23.87708854675293 -52.84947967529297 22.93964767456055 -53.10581207275391 22.26586723327637 -53.32551956176758 C 21.59208679199219 -53.54523086547852 21.11604690551758 -53.84550094604492 20.83773803710938 -54.22634124755859 C 20.5594367980957 -54.60717010498047 20.4202880859375 -55.16377258300781 20.4202880859375 -55.89615249633789 L 20.4202880859375 -76.10961151123047 C 20.4202880859375 -76.72480773925781 20.43493843078613 -77.28873443603516 20.46423721313477 -77.8013916015625 C 20.49352836608887 -78.31404876708984 20.53746795654297 -78.79010009765625 20.5960578918457 -79.22952270507812 C 20.62535858154297 -79.34669494628906 20.58141708374023 -79.44190979003906 20.46423721313477 -79.51514434814453 C 20.3470573425293 -79.58837890625 20.2152271270752 -79.625 20.06874847412109 -79.625 C 20.03945732116699 -79.625 20.00283813476562 -79.625 19.95889854431152 -79.625 C 19.91495704650879 -79.625 19.87833786010742 -79.6103515625 19.84903717041016 -79.5810546875 C 18.85301780700684 -78.58502960205078 17.83501815795898 -77.93321990966797 16.79504776000977 -77.62561798095703 C 15.75507736206055 -77.31802368164062 14.57595729827881 -77.06169891357422 13.25768756866455 -76.85662841796875 C 12.96474742889404 -76.82733917236328 12.70841789245605 -76.73944854736328 12.48870754241943 -76.59297943115234 C 12.26898765563965 -76.44650268554688 12.15913772583008 -76.27072906494141 12.15913772583008 -76.065673828125 C 12.15913772583008 -75.83131408691406 12.27631759643555 -75.65554809570312 12.51067733764648 -75.53836059570312 C 12.74502754211426 -75.42118072509766 13.00868797302246 -75.34793853759766 13.30163764953613 -75.31864929199219 C 13.94612789154053 -75.28935241699219 14.54666805267334 -75.21611785888672 15.10326766967773 -75.09893798828125 C 15.65987777709961 -74.98175811767578 16.11394691467285 -74.77668762207031 16.46547698974609 -74.48374938964844 C 16.81701850891113 -74.19078826904297 16.99278831481934 -73.76602172851562 16.99278831481934 -73.20941925048828 L 16.99278831481934 -56.4234504699707 C 16.99278831481934 -55.57390213012695 16.82434844970703 -54.92209243774414 16.48745727539062 -54.46802139282227 C 16.15055847167969 -54.01395034790039 15.62325763702393 -53.66241073608398 14.90552806854248 -53.41340255737305 C 14.1878080368042 -53.16440200805664 13.27233791351318 -52.8934211730957 12.15913772583008 -52.60047149658203 C 11.71970748901367 -52.48329162597656 11.49999809265137 -52.29288101196289 11.49999809265137 -52.02922058105469 C 11.49999809265137 -51.91204071044922 11.5585880279541 -51.79486083984375 11.67576789855957 -51.67768096923828 C 11.79294776916504 -51.56050109863281 11.95406723022461 -51.50191116333008 12.15913772583008 -51.50191116333008 C 12.95009803771973 -51.50191116333008 13.69711780548096 -51.52389144897461 14.40019798278809 -51.56783294677734 C 15.10326766967773 -51.61177062988281 15.80634784698486 -51.64839172363281 16.50942802429199 -51.67768096923828 C 17.21249771118164 -51.70698165893555 17.95951843261719 -51.72162246704102 18.7504768371582 -51.72162246704102 C 19.54144859313965 -51.72162246704102 20.26649856567383 -51.70698165893555 20.92562675476074 -51.67768096923828 C 21.58476829528809 -51.64839172363281 22.25854682922363 -51.61177062988281 22.94697761535645 -51.56783294677734 C 23.63540840148926 -51.52389144897461 24.38974761962891 -51.50191116333008 25.21000671386719 -51.50191116333008 M 25.21000671386719 -49.50191116333008 C 24.35137748718262 -49.50191116333008 23.54712677001953 -49.52546310424805 22.81958770751953 -49.57189178466797 C 22.14699745178223 -49.61482238769531 21.47990798950195 -49.65108108520508 20.83683776855469 -49.67965316772461 C 20.21035766601562 -49.70750045776367 19.5084171295166 -49.72162246704102 18.7504768371582 -49.72162246704102 C 17.99068832397461 -49.72162246704102 17.26470756530762 -49.70742034912109 16.59270858764648 -49.67941284179688 C 15.9068078994751 -49.65084075927734 15.21112728118896 -49.6146125793457 14.52494812011719 -49.57172012329102 C 13.78369808197021 -49.5254020690918 12.98772811889648 -49.50191116333008 12.15913772583008 -49.50191116333008 C 11.42655754089355 -49.50191116333008 10.75264739990234 -49.77237319946289 10.26155757904053 -50.26346969604492 C 9.77045726776123 -50.75456237792969 9.499998092651367 -51.38165283203125 9.499998092651367 -52.02922058105469 C 9.499998092651367 -52.96323013305664 10.06317806243896 -54.11144256591797 11.64381790161133 -54.53293991088867 C 11.64592742919922 -54.53350067138672 11.64803791046143 -54.53406143188477 11.65014743804932 -54.53462219238281 C 12.70894718170166 -54.81325149536133 13.58365726470947 -55.07175064086914 14.24999809265137 -55.30292129516602 C 14.70799732208252 -55.46182250976562 14.84897804260254 -55.6161994934082 14.8812780380249 -55.65974044799805 C 14.88031101226807 -55.65915298461914 14.99278736114502 -55.84024047851562 14.99278736114502 -56.4234504699707 L 14.99278736114502 -73.05394744873047 C 14.91783237457275 -73.08399200439453 14.81944751739502 -73.11485290527344 14.69124794006348 -73.14183807373047 C 14.24274730682373 -73.23625946044922 13.74465751647949 -73.29644012451172 13.21080780029297 -73.32070922851562 C 13.17469787597656 -73.32236480712891 13.13863754272461 -73.32498168945312 13.10266780853271 -73.32856750488281 C 12.56804752349854 -73.38201904296875 12.06793785095215 -73.52365112304688 11.61621761322021 -73.74951934814453 C 10.70382785797119 -74.20574951171875 10.15913772583008 -75.07160186767578 10.15913772583008 -76.065673828125 C 10.15913772583008 -76.94139099121094 10.60386753082275 -77.74011993408203 11.37930774688721 -78.257080078125 C 11.85609817504883 -78.57492828369141 12.3992977142334 -78.77082824707031 12.99474143981934 -78.83980560302734 C 14.20161437988281 -79.02916717529297 15.28919792175293 -79.26587677001953 16.22778701782227 -79.54348754882812 C 16.93942832946777 -79.75398254394531 17.68198776245117 -80.24242401123047 18.43482780456543 -80.99526214599609 C 18.84091758728027 -81.40135955810547 19.38217735290527 -81.625 19.95889854431152 -81.625 L 20.06874847412109 -81.625 C 20.58774757385254 -81.625 21.09105682373047 -81.48188018798828 21.52425765991211 -81.21112060546875 C 22.33232116699219 -80.70613098144531 22.73158073425293 -79.81452941894531 22.57067489624023 -78.90532684326172 C 22.52280616760254 -78.53340911865234 22.48593139648438 -78.12399291992188 22.46097755432129 -77.68730926513672 C 22.4339771270752 -77.21484375 22.4202880859375 -76.68404388427734 22.4202880859375 -76.10961151123047 L 22.4202880859375 -55.89615249633789 C 22.4202880859375 -55.63270950317383 22.44783592224121 -55.48142242431641 22.46616554260254 -55.40993118286133 C 22.52508926391602 -55.37216186523438 22.65194892883301 -55.30326843261719 22.88590812683105 -55.22698211669922 C 23.49857330322266 -55.02719879150391 24.37680625915527 -54.78706741333008 25.49699592590332 -54.51302719116211 C 25.90557479858398 -54.43319702148438 26.29547309875488 -54.27634048461914 26.65724754333496 -54.04611968994141 C 27.39947700500488 -53.57382202148438 27.82519721984863 -52.82266998291016 27.82519721984863 -51.98528289794922 C 27.82519721984863 -50.75120162963867 26.9268970489502 -49.50191116333008 25.21000671386719 -49.50191116333008 Z" stroke="none" fill="#fff"/>
      </g>
    </g>
    <g transform="matrix(1, 0, 0, 1, 96.63, 26.25)" filter="url(#Path_370756)">
      <g id="Path_370756-2" data-name="Path 370756" transform="translate(1.37 42.94)" fill="url(#linear-gradient)">
        <path d="M 54.205810546875 -12.10117435455322 C 53.36064147949219 -12.10117435455322 52.58753204345703 -12.4275541305542 51.97006225585938 -13.04501438140869 C 51.35259246826172 -13.66249370574951 51.02621078491211 -14.43560409545898 51.02621078491211 -15.28076457977295 C 51.02621078491211 -16.16509437561035 51.35492324829102 -16.95505332946777 51.97681045532227 -17.56525421142578 C 52.59350967407227 -18.17034339904785 53.36428070068359 -18.49017333984375 54.205810546875 -18.49017333984375 C 55.0860595703125 -18.49017333984375 55.87356948852539 -18.16808319091797 56.48320007324219 -17.55872344970703 C 57.09294128417969 -16.94921493530273 57.41522216796875 -16.16151428222656 57.41522216796875 -15.28076457977295 C 57.41522216796875 -14.43916416168213 57.09525299072266 -13.66834449768066 56.48990249633789 -13.0516242980957 C 55.87953948974609 -12.42983436584473 55.0897216796875 -12.10117435455322 54.205810546875 -12.10117435455322 Z M 23.14219093322754 -12.17675399780273 C 22.71207046508789 -12.17675399780273 22.1821117401123 -12.36835384368896 21.37015151977539 -12.81742382049561 C 20.63766479492188 -13.22255420684814 19.92232322692871 -13.87747478485107 19.24341773986816 -14.76449584960938 C 18.99069976806641 -15.04797744750977 18.61133193969727 -15.48502063751221 18.11507225036621 -16.06440353393555 C 17.6070613861084 -16.65749359130859 17.00070190429688 -17.36070442199707 16.31285095214844 -18.15450477600098 C 15.62028121948242 -18.95374488830566 14.88335132598877 -19.80543327331543 14.10203170776367 -20.70956420898438 C 13.32097148895264 -21.6134147644043 12.54158115386963 -22.51557350158691 11.76389122009277 -23.41606330871582 C 10.99216175079346 -24.30964469909668 10.24784088134766 -25.16546440124512 9.551590919494629 -25.95977401733398 C 8.8526611328125 -26.75713348388672 8.232211112976074 -27.46658325195312 7.707461357116699 -28.06841468811035 C 7.581582069396973 -28.21278381347656 7.463003635406494 -28.34849548339844 7.351850032806396 -28.47540855407715 C 7.344578266143799 -27.73655700683594 7.339048862457275 -26.93243217468262 7.335331439971924 -26.07092475891113 L 7.316441535949707 -21.64873504638672 C 7.310091495513916 -20.14989471435547 7.30687141418457 -18.72281455993652 7.30687141418457 -17.40713500976562 C 7.30687141418457 -16.96334457397461 7.419101238250732 -16.59576416015625 7.649981498718262 -16.28337478637695 C 7.905788898468018 -15.93724632263184 8.451622009277344 -15.76069068908691 8.868393898010254 -15.67325115203857 C 9.292573928833008 -15.59391117095947 9.631387710571289 -15.48916816711426 9.903871536254883 -15.35317420959473 C 10.43518161773682 -15.0880241394043 10.73993110656738 -14.61270427703857 10.73993110656738 -14.04912376403809 C 10.73993110656738 -13.48581409454346 10.3840913772583 -13.00556373596191 9.811271667480469 -12.79580402374268 C 9.515851020812988 -12.68761444091797 9.185391426086426 -12.63502407073975 8.801031112670898 -12.63502407073975 C 8.151521682739258 -12.63502407073975 7.655981540679932 -12.65143394470215 7.286071300506592 -12.68520450592041 C 6.957601547241211 -12.71518421173096 6.657461166381836 -12.74000453948975 6.393981456756592 -12.75896453857422 C 6.147731304168701 -12.77667427062988 5.810571193695068 -12.78565406799316 5.391911506652832 -12.78565406799316 C 4.977131366729736 -12.78565406799316 4.626481533050537 -12.77513408660889 4.349711418151855 -12.75439453125 C 4.057881355285645 -12.73250389099121 3.763781309127808 -12.7063045501709 3.475621461868286 -12.676513671875 C 3.139771461486816 -12.64179420471191 2.74618124961853 -12.62491416931152 2.272351264953613 -12.62491416931152 C 1.908011317253113 -12.62491416931152 1.574621319770813 -12.67855453491211 1.281451344490051 -12.78433418273926 C 0.5899413228034973 -13.03386402130127 0.3435613512992859 -13.59606456756592 0.3435613512992859 -14.0390043258667 C 0.3435613512992859 -14.5860538482666 0.6352613568305969 -15.05391407012939 1.143871307373047 -15.32264423370361 C 1.386381864547729 -15.45077800750732 1.699305891990662 -15.56660270690918 2.100082397460938 -15.67654418945312 C 2.476086378097534 -15.79318332672119 2.72686767578125 -15.97299575805664 2.888591289520264 -16.2416934967041 C 3.100051403045654 -16.59299468994141 3.231431245803833 -17.04559326171875 3.279091358184814 -17.58693504333496 L 3.279881238937378 -17.5958137512207 L 3.280821323394775 -17.60468482971191 C 3.369861364364624 -18.44433403015137 3.462121248245239 -19.57488441467285 3.555041313171387 -20.96491432189941 C 3.648271322250366 -22.35977363586426 3.733071327209473 -23.94627380371094 3.807071447372437 -25.68035316467285 C 3.880811452865601 -27.40812492370605 3.918201446533203 -29.21687316894531 3.918201446533203 -31.05636405944824 C 3.918201446533203 -31.94076347351074 3.726601362228394 -32.55202484130859 3.348731279373169 -32.87317276000977 C 2.834911346435547 -33.30987548828125 2.155161380767822 -33.67113494873047 1.328381299972534 -33.94693374633789 L 1.314361333847046 -33.95160293579102 L 1.300491333007812 -33.95669555664062 C 1.135471343994141 -34.01721572875977 0.9096513390541077 -34.12126541137695 0.5898313522338867 -34.28414535522461 C -0.2468686550855637 -34.71027374267578 -0.3717986643314362 -35.34999465942383 -0.3717986643314362 -35.69340515136719 C -0.3717986643314362 -36.33030319213867 0.004461349453777075 -36.84852600097656 0.6101613640785217 -37.04582595825195 C 0.9080513715744019 -37.14284515380859 1.179961323738098 -37.18999481201172 1.441491365432739 -37.18999481201172 L 1.455421328544617 -37.18999481201172 L 1.469351291656494 -37.18960571289062 C 2.040481328964233 -37.1736946105957 2.555841445922852 -37.15814590454102 3.00110125541687 -37.14340591430664 C 3.448731422424316 -37.12859344482422 3.883541345596313 -37.11121368408203 4.293421268463135 -37.09173583984375 C 4.693071365356445 -37.0727424621582 5.127841472625732 -37.05576324462891 5.585651397705078 -37.04126358032227 C 6.037881374359131 -37.02693557739258 6.571351528167725 -37.01967239379883 7.17125129699707 -37.01967239379883 C 7.728041172027588 -37.01967239379883 8.08894157409668 -36.8050537109375 8.293661117553711 -36.62501525878906 C 8.455102920532227 -36.48303985595703 8.607495307922363 -36.31129455566406 8.747095108032227 -36.11405944824219 C 8.980972290039062 -35.82902526855469 9.359635353088379 -35.37580108642578 9.873431205749512 -34.76595306396484 C 10.40889167785645 -34.13041305541992 11.04222106933594 -33.37279510498047 11.75583171844482 -32.51414489746094 C 12.46591091156006 -31.65970420837402 13.23882102966309 -30.73629379272461 14.05308151245117 -29.76954460144043 C 14.8707914352417 -28.7986946105957 15.69706153869629 -27.81396484375 16.50892066955566 -26.84271430969238 C 17.32016181945801 -25.87223434448242 18.09625053405762 -24.94609451293945 18.81565093994141 -24.09002494812012 C 19.53411102294922 -23.23507499694824 20.16838073730469 -22.48514366149902 20.70086097717285 -21.86104393005371 C 20.87238502502441 -21.66000747680664 21.02890968322754 -21.4767951965332 21.17007064819336 -21.31183242797852 C 21.17158889770508 -21.51455497741699 21.17336273193359 -21.73153495788574 21.17539215087891 -21.96247482299805 C 21.1833610534668 -22.87205505371094 21.19143104553223 -23.92527389526367 21.19958114624023 -25.12211418151855 C 21.20769119262695 -26.31135368347168 21.21010208129883 -27.58422470092773 21.20675086975098 -28.9053840637207 C 21.20342826843262 -30.22081565856934 21.19517707824707 -31.54756927490234 21.1822509765625 -32.84938812255859 C 21.17321968078613 -33.00287246704102 21.12471580505371 -33.17211151123047 20.8654613494873 -33.36974334716797 C 20.53317642211914 -33.62304306030273 20.18765068054199 -33.78718185424805 19.80952453613281 -33.87129974365234 C 19.41835784912109 -33.94482803344727 19.05373573303223 -34.04948043823242 18.72557067871094 -34.18241500854492 C 17.79366111755371 -34.55989456176758 17.69305229187012 -35.25950241088867 17.69305229187012 -35.54277420043945 C 17.69305229187012 -35.77721405029297 17.77745056152344 -36.56279373168945 18.86341094970703 -36.82843399047852 C 19.21184158325195 -36.91366577148438 19.55798149108887 -36.95687484741211 19.89222145080566 -36.95687484741211 C 20.23359107971191 -36.95687484741211 20.54260063171387 -36.95523452758789 20.81069183349609 -36.9520149230957 C 21.07637214660645 -36.94880294799805 21.3321418762207 -36.94551467895508 21.57804107666016 -36.94214248657227 C 21.81795120239258 -36.9388427734375 22.06700134277344 -36.93717575073242 22.31826210021973 -36.93717575073242 C 22.82233047485352 -36.93717575073242 23.2324104309082 -36.94269561767578 23.53711128234863 -36.95356369018555 C 23.84545135498047 -36.96458435058594 24.18667221069336 -36.98137283325195 24.55126190185547 -37.00347518920898 C 24.94976043701172 -37.02762222290039 25.47166061401367 -37.03936386108398 26.14679145812988 -37.03936386108398 C 26.55715179443359 -37.03936386108398 26.8980712890625 -36.9844856262207 27.18903160095215 -36.87158584594727 C 27.75016212463379 -36.65384292602539 28.08516120910645 -36.18793487548828 28.08516120910645 -35.62527465820312 C 28.08516120910645 -35.12993621826172 27.84366607666016 -34.25424575805664 26.22718238830566 -33.95157241821289 C 25.29249572753906 -33.77015686035156 25.04625511169434 -33.5721321105957 25.02124214172363 -33.55013275146484 C 24.96146965026855 -33.49756240844727 24.88551712036133 -33.31610870361328 24.86445617675781 -32.97665786743164 C 24.86408042907715 -32.60655975341797 24.85660171508789 -32.0091667175293 24.84222221374512 -31.20014381408691 C 24.82759094238281 -30.37740325927734 24.81356048583984 -29.40208435058594 24.8005313873291 -28.30128479003906 C 24.78743171691895 -27.19607353210449 24.7700309753418 -26.0185546875 24.74882125854492 -24.80140495300293 C 24.72770118713379 -23.59006500244141 24.71368217468262 -22.3773250579834 24.70716094970703 -21.19688415527344 C 24.70065116882324 -20.01433372497559 24.69734191894531 -18.93679428100586 24.69734191894531 -17.99422454833984 C 24.69734191894531 -17.48709487915039 24.71829223632812 -16.98771476745605 24.75962066650391 -16.50997352600098 C 24.80319213867188 -16.00624465942383 24.84324073791504 -15.56086444854736 24.878662109375 -15.18619441986084 C 24.91782188415527 -14.77185440063477 24.93685150146484 -14.47060394287109 24.93685150146484 -14.26521396636963 C 24.93685150146484 -13.53447437286377 24.75817108154297 -13.01125431060791 24.39060211181641 -12.6656436920166 C 24.05039215087891 -12.34579372406006 23.61871147155762 -12.17675399780273 23.14219093322754 -12.17675399780273 Z M 38.54626083374023 -12.29863452911377 C 37.07190322875977 -12.29863452911377 35.71792221069336 -12.64403438568115 34.52194213867188 -13.32522392272949 C 33.32501983642578 -14.00694370269775 32.36059188842773 -14.95965385437012 31.65545082092285 -16.15688323974609 C 30.9482421875 -17.35761451721191 30.58965110778809 -18.73292350769043 30.58965110778809 -20.24460411071777 C 30.58965110778809 -21.37213325500488 30.81123161315918 -22.47599411010742 31.24823188781738 -23.52553367614746 C 31.6800422668457 -24.56259346008301 32.29228973388672 -25.51082420349121 33.0679817199707 -26.34391403198242 C 33.84947967529297 -27.1832332611084 34.77434158325195 -27.85831451416016 35.81686019897461 -28.35038375854492 C 36.87850189208984 -28.85146331787109 38.03264236450195 -29.10553359985352 39.24724960327148 -29.10553359985352 C 40.77318954467773 -29.10553359985352 42.17257308959961 -28.73419380187988 43.40653228759766 -28.0018138885498 C 44.62567138671875 -27.27825355529785 45.61081314086914 -26.31021499633789 46.33459091186523 -25.12457466125488 C 47.06962203979492 -23.92046356201172 47.44231033325195 -22.58644485473633 47.44231033325195 -21.15955352783203 C 47.44231033325195 -19.64788436889648 47.10872268676758 -18.20512390136719 46.45080947875977 -16.8713436126709 C 45.77885055541992 -15.50913429260254 44.77028274536133 -14.39536380767822 43.45310211181641 -13.56096363067627 C 42.13080978393555 -12.72334384918213 40.47992324829102 -12.29863452911377 38.54626083374023 -12.29863452911377 Z M 38.68783950805664 -25.89144325256348 C 38.29655075073242 -25.89144325256348 37.94658279418945 -25.83112335205078 37.64766311645508 -25.7121639251709 C 37.39171981811523 -25.61031341552734 37.14432144165039 -25.41338348388672 36.91229248046875 -25.12684440612793 L 36.90785980224609 -25.12137413024902 L 36.90335083007812 -25.11596488952637 C 36.58547973632812 -24.7345142364502 36.36904144287109 -24.213134765625 36.26004028320312 -23.56631469726562 C 36.13046264648438 -22.79743385314941 36.06476211547852 -21.9500732421875 36.06476211547852 -21.04778480529785 C 36.06476211547852 -20.06945419311523 36.2277717590332 -19.12208366394043 36.54926300048828 -18.23200416564941 C 36.86037063598633 -17.37068367004395 37.28274154663086 -16.66745376586914 37.80465316772461 -16.14187431335449 C 38.24746322631836 -15.6959342956543 38.70416259765625 -15.4882345199585 39.24192047119141 -15.4882345199585 C 39.75687026977539 -15.4882345199585 40.19407272338867 -15.58113384246826 40.57852172851562 -15.77224445343018 C 40.91266250610352 -15.93834400177002 41.17344284057617 -16.20210456848145 41.37576293945312 -16.57860374450684 C 41.58965301513672 -16.97296333312988 41.73834991455078 -17.49367332458496 41.81957244873047 -18.12967491149902 C 41.91117095947266 -18.84695434570312 41.95762252807617 -19.59129333496094 41.95762252807617 -20.34201431274414 C 41.95762252807617 -21.36484336853027 41.79827117919922 -22.33032417297363 41.48398971557617 -23.21165466308594 C 41.18309020996094 -24.05546379089355 40.76560974121094 -24.74039459228516 40.24314117431641 -25.24742317199707 C 39.79038238525391 -25.68680381774902 39.29618072509766 -25.89144325256348 38.68783950805664 -25.89144325256348 Z" stroke="none"/>
        <path d="M 54.205810546875 -13.10117435455322 C 54.8267822265625 -13.10117435455322 55.35026168823242 -13.31815433502197 55.77625274658203 -13.75212383270264 C 56.20222091674805 -14.18609428405762 56.41522216796875 -14.69563388824463 56.41522216796875 -15.28076457977295 C 56.41522216796875 -15.9020938873291 56.20222091674805 -16.4256534576416 55.77625274658203 -16.85146331787109 C 55.35026168823242 -17.27726364135742 54.8267822265625 -17.49017333984375 54.205810546875 -17.49017333984375 C 53.62069320678711 -17.49017333984375 53.11114120483398 -17.27726364135742 52.67716979980469 -16.85146331787109 C 52.24320220947266 -16.4256534576416 52.02621078491211 -15.9020938873291 52.02621078491211 -15.28076457977295 C 52.02621078491211 -14.69563388824463 52.24320220947266 -14.18609428405762 52.67716979980469 -13.75212383270264 C 53.11114120483398 -13.31815433502197 53.62069320678711 -13.10117435455322 54.205810546875 -13.10117435455322 M 23.14219093322754 -13.17675399780273 C 23.36361122131348 -13.17675399780273 23.55141067504883 -13.24922370910645 23.70559120178223 -13.39417457580566 C 23.85976219177246 -13.53913402557373 23.93685150146484 -13.82947444915771 23.93685150146484 -14.26521396636963 C 23.93685150146484 -14.4373140335083 23.91893196105957 -14.71293449401855 23.88310050964355 -15.09208393096924 C 23.84726142883301 -15.47122383117676 23.80734062194824 -15.91513442993164 23.76334190368652 -16.42379379272461 C 23.71934127807617 -16.93245315551758 23.69734191894531 -17.45592498779297 23.69734191894531 -17.99422454833984 C 23.69734191894531 -18.94305419921875 23.70062065124512 -20.01245498657227 23.70718193054199 -21.2024040222168 C 23.7137508392334 -22.39235496520996 23.72768211364746 -23.59783363342285 23.74897193908691 -24.81883430480957 C 23.7702522277832 -26.03983497619629 23.78746223449707 -27.20459365844727 23.80060195922852 -28.31311416625977 C 23.813720703125 -29.42162322998047 23.82765197753906 -30.38989448547363 23.84238052368164 -31.21791458129883 C 23.85710144042969 -32.04592514038086 23.86447143554688 -32.64178466796875 23.86447143554688 -33.0055046081543 C 23.89640045166016 -33.60623550415039 24.06185150146484 -34.0380744934082 24.36080169677734 -34.3010139465332 C 24.65975189208984 -34.5639533996582 25.21942138671875 -34.77490234375 26.0398120880127 -34.93386459350586 C 26.7367115020752 -35.06374359130859 27.08516120910645 -35.29420471191406 27.08516120910645 -35.62527465820312 C 27.08516120910645 -35.76791381835938 26.99920082092285 -35.87259292602539 26.8272819519043 -35.93930435180664 C 26.65536117553711 -36.00601577758789 26.42853164672852 -36.03936386108398 26.14679145812988 -36.03936386108398 C 25.49814224243164 -36.03936386108398 24.98647117614746 -36.02801513671875 24.61176109313965 -36.00530242919922 C 24.23705101013184 -35.98259353637695 23.89072227478027 -35.9655647277832 23.57279205322266 -35.95420455932617 C 23.25486183166504 -35.94285583496094 22.8366813659668 -35.93717575073242 22.31826210021973 -35.93717575073242 C 22.06100082397461 -35.93717575073242 21.8096809387207 -35.93886566162109 21.56431198120117 -35.94223403930664 C 21.31894111633301 -35.94560241699219 21.063720703125 -35.94888305664062 20.79866218566895 -35.95208358764648 C 20.53360176086426 -35.95527267456055 20.2314510345459 -35.95687484741211 19.89222145080566 -35.95687484741211 C 19.63674163818359 -35.95687484741211 19.37301063537598 -35.92360305786133 19.10102081298828 -35.85707473754883 C 18.82904052734375 -35.79054260253906 18.69305229187012 -35.68577575683594 18.69305229187012 -35.54277420043945 C 18.69305229187012 -35.36393356323242 18.82904052734375 -35.21942520141602 19.10102081298828 -35.1092529296875 C 19.37301063537598 -34.99907302856445 19.67560195922852 -34.91311264038086 20.00879096984863 -34.85137557983398 C 20.53324127197266 -34.73746490478516 21.02088165283203 -34.50868225097656 21.47170066833496 -34.16502380371094 C 21.92252159118652 -33.82136535644531 22.15929222106934 -33.39280319213867 22.1820011138916 -32.87935256958008 C 22.19513130187988 -31.56254386901855 22.2033805847168 -30.23873329162598 22.20675086975098 -28.90791320800781 C 22.21012115478516 -27.57708358764648 22.20772171020508 -26.3128833770752 22.19956207275391 -25.11530494689941 C 22.1914005279541 -23.917724609375 22.18333053588867 -22.86385345458984 22.17535209655762 -21.95369338989258 C 22.16736221313477 -21.04352378845215 22.16337203979492 -20.36028480529785 22.16337203979492 -19.90396499633789 C 22.14740180969238 -19.47318458557129 22.04042053222656 -19.25780487060547 21.84242057800293 -19.25780487060547 C 21.72603225708008 -19.25780487060547 21.59421157836914 -19.33551406860352 21.44695091247559 -19.49092483520508 C 21.29969215393066 -19.64634323120117 21.18384170532227 -19.76947402954102 21.09939193725586 -19.86031341552734 C 20.86377143859863 -20.13176345825195 20.47735214233398 -20.58232498168945 19.94013214111328 -21.21198463439941 C 19.40290069580078 -21.84164428710938 18.77289199829102 -22.58654403686523 18.05008125305176 -23.44667434692383 C 17.3272705078125 -24.30680465698242 16.55780220031738 -25.22503471374512 15.74167156219482 -26.20137405395508 C 14.92555141448975 -27.17771339416504 14.10773181915283 -28.15236473083496 13.28823089599609 -29.12533378601074 C 12.46873092651367 -30.09830474853516 11.70157146453857 -31.01485443115234 10.98675155639648 -31.87498474121094 C 10.27192115783691 -32.73511505126953 9.645901679992676 -33.48400497436523 9.108671188354492 -34.12164306640625 C 8.571451187133789 -34.75929260253906 8.185030937194824 -35.22200393676758 7.949411392211914 -35.50977325439453 C 7.848991394042969 -35.65560531616211 7.743611335754395 -35.77705383300781 7.633251190185547 -35.87410354614258 C 7.52290153503418 -35.97115325927734 7.368901252746582 -36.01967239379883 7.17125129699707 -36.01967239379883 C 6.558091163635254 -36.01967239379883 6.019001483917236 -36.02703475952148 5.553991317749023 -36.04176330566406 C 5.088971138000488 -36.05649566650391 4.652961254119873 -36.07352447509766 4.24596118927002 -36.09286499023438 C 3.838961362838745 -36.11220550537109 3.412981271743774 -36.12923431396484 2.968011379241943 -36.14395523071289 C 2.523041248321533 -36.15868377685547 2.014201402664185 -36.17403411865234 1.441491365432739 -36.18999481201172 C 1.288201332092285 -36.18999481201172 1.114331364631653 -36.1583251953125 0.9198813438415527 -36.09499359130859 C 0.7254313230514526 -36.03165435791016 0.6282013654708862 -35.89778518676758 0.6282013654708862 -35.69340515136719 C 0.6282013654708862 -35.489013671875 0.7666813731193542 -35.3162956237793 1.043631315231323 -35.17524337768555 C 1.320581316947937 -35.03420257568359 1.520981311798096 -34.94096374511719 1.644821405410767 -34.89554595947266 C 2.597911357879639 -34.57761383056641 3.381751298904419 -34.15748596191406 3.996331453323364 -33.63515472412109 C 4.61091136932373 -33.11283493041992 4.918201446533203 -32.25323486328125 4.918201446533203 -31.05636405944824 C 4.918201446533203 -29.19417381286621 4.880861282348633 -27.38795471191406 4.806161403656006 -25.63771438598633 C 4.731471538543701 -23.88747406005859 4.647021293640137 -22.30764389038086 4.552811145782471 -20.89822387695312 C 4.458601474761963 -19.48880386352539 4.366081237792969 -18.35580444335938 4.275241374969482 -17.49922370910645 C 4.213851451873779 -16.80196380615234 4.0372314453125 -16.21088409423828 3.745371341705322 -15.72600364685059 C 3.453521251678467 -15.24111366271973 2.997991323471069 -14.90446376800537 2.378801345825195 -14.71604442596436 C 2.045251369476318 -14.62520408630371 1.789321303367615 -14.53267383575439 1.611021399497986 -14.43846416473389 C 1.432711362838745 -14.34425449371338 1.343561291694641 -14.21110439300537 1.343561291694641 -14.0390043258667 C 1.343561291694641 -13.89636421203613 1.435991406440735 -13.7916841506958 1.620861291885376 -13.72497367858887 C 1.805741310119629 -13.65826416015625 2.022901296615601 -13.62491416931152 2.272351264953613 -13.62491416931152 C 2.707381248474121 -13.62491416931152 3.074201345443726 -13.64034366607666 3.372791290283203 -13.67121410369873 C 3.671391248703003 -13.7020845413208 3.972111463546753 -13.72888374328613 4.274971485137939 -13.75159454345703 C 4.577831268310547 -13.77429389953613 4.950141429901123 -13.78565406799316 5.391911506652832 -13.78565406799316 C 5.836531162261963 -13.78565406799316 6.19447135925293 -13.77589416503906 6.465751171112061 -13.75638389587402 C 6.737021446228027 -13.73686408996582 7.040761470794678 -13.71175384521484 7.376971244812012 -13.68106365203857 C 7.713181495666504 -13.65037441253662 8.187870979309082 -13.63502407073975 8.801031112670898 -13.63502407073975 C 9.063611030578613 -13.63502407073975 9.285741806030273 -13.66829395294189 9.467411041259766 -13.73482418060303 C 9.649091720581055 -13.80135440826416 9.739931106567383 -13.90612411499023 9.739931106567383 -14.04912376403809 C 9.739931106567383 -14.22796440124512 9.645721435546875 -14.36439418792725 9.457301139831543 -14.45842456817627 C 9.268881797790527 -14.55246448516846 9.008081436157227 -14.63034439086914 8.674880981445312 -14.69209384918213 C 7.814751148223877 -14.87057399749756 7.205051422119141 -15.20288372039795 6.845781326293945 -15.68901443481445 C 6.486501216888428 -16.17513465881348 6.30687141418457 -16.74784469604492 6.30687141418457 -17.40713500976562 C 6.30687141418457 -18.72962379455566 6.310061454772949 -20.14489364624023 6.316451549530029 -21.65296363830566 C 6.322831153869629 -23.16102409362793 6.329131126403809 -24.6351146697998 6.335341453552246 -26.07523345947266 C 6.341551303863525 -27.51534461975098 6.352641582489014 -28.77866363525391 6.368611335754395 -29.86517333984375 C 6.368611335754395 -29.99504470825195 6.389721393585205 -30.14345359802246 6.431951522827148 -30.3104133605957 C 6.50488805770874 -30.59882736206055 6.678497314453125 -30.63327217102051 6.932541370391846 -30.43655395507812 C 7.039521217346191 -30.35369491577148 7.152621269226074 -30.23314476013184 7.271851539611816 -30.07488441467285 C 7.536911487579346 -29.78072357177734 7.933361530303955 -29.33096504211426 8.461181640625 -28.72560501098633 C 8.989001274108887 -28.12025451660156 9.603141784667969 -27.41803359985352 10.30359172821045 -26.61893463134766 C 11.00404167175293 -25.81983375549316 11.74309158325195 -24.97008323669434 12.52071094512939 -24.0696849822998 C 13.29834175109863 -23.16927337646484 14.07766151428223 -22.26718330383301 14.85866165161133 -21.3634147644043 C 15.63966178894043 -20.45964431762695 16.37630081176758 -19.6082935333252 17.0685920715332 -18.80937385559082 C 17.7608814239502 -18.01045417785645 18.36287117004395 -17.31230354309082 18.87455177307129 -16.71493339538574 C 19.38622093200684 -16.11756324768066 19.76643180847168 -15.67978382110596 20.01517105102539 -15.4015941619873 C 20.61947059631348 -14.60604381561279 21.23245048522949 -14.03634452819824 21.8541316986084 -13.69250392913818 C 22.47581100463867 -13.34867382049561 22.90516090393066 -13.17675399780273 23.14219093322754 -13.17675399780273 M 38.54626083374023 -13.29863452911377 C 40.29561996459961 -13.29863452911377 41.75284957885742 -13.66767406463623 42.91796112060547 -14.40573406219482 C 44.08308029174805 -15.1438045501709 44.96175003051758 -16.11313438415527 45.55398178100586 -17.31372451782227 C 46.14620208740234 -18.51432418823242 46.44231033325195 -19.7962646484375 46.44231033325195 -21.15955352783203 C 46.44231033325195 -22.40575408935547 46.12189102172852 -23.55374336242676 45.48106002807617 -24.60353469848633 C 44.8402099609375 -25.65332412719727 43.97858047485352 -26.49944496154785 42.89614105224609 -27.14187431335449 C 41.81371307373047 -27.7843132019043 40.597412109375 -28.10553359985352 39.24724960327148 -28.10553359985352 C 38.17634201049805 -28.10553359985352 37.1751708984375 -27.88570404052734 36.24370956420898 -27.44606399536133 C 35.31225967407227 -27.00641441345215 34.49764251708984 -26.41188430786133 33.79985046386719 -25.6624641418457 C 33.1020622253418 -24.91304397583008 32.55924224853516 -24.07260322570801 32.17140197753906 -23.14115333557129 C 31.78357124328613 -22.20970344543457 31.58965110778809 -21.24418449401855 31.58965110778809 -20.24460411071777 C 31.58965110778809 -18.90757369995117 31.89880180358887 -17.71416473388672 32.51711273193359 -16.66437339782715 C 33.13541030883789 -15.61458396911621 33.96866989135742 -14.79117393493652 35.01686096191406 -14.19416427612305 C 36.0650520324707 -13.59714412689209 37.24151992797852 -13.29863452911377 38.54626083374023 -13.29863452911377 M 38.68783950805664 -26.89144325256348 C 39.55258178710938 -26.89144325256348 40.30316162109375 -26.58265495300293 40.93955993652344 -25.96505355834961 C 41.57596969604492 -25.34745407104492 42.0714111328125 -24.5416145324707 42.4258918762207 -23.54753494262695 C 42.78038024902344 -22.55345344543457 42.95762252807617 -21.48494338989258 42.95762252807617 -20.34201431274414 C 42.95762252807617 -19.54539489746094 42.90892028808594 -18.76572418212891 42.8115119934082 -18.00300407409668 C 42.714111328125 -17.24027442932129 42.52915191650391 -16.6076831817627 42.25662994384766 -16.10523414611816 C 41.95573043823242 -15.54530429840088 41.54474258422852 -15.13581371307373 41.02366256713867 -14.876784324646 C 40.50258255004883 -14.61775398254395 39.90867233276367 -14.4882345199585 39.24192047119141 -14.4882345199585 C 38.43892288208008 -14.4882345199585 37.72330093383789 -14.80457401275635 37.09506225585938 -15.43725395202637 C 36.46681976318359 -16.06992340087891 35.97138214111328 -16.88827323913574 35.60873031616211 -17.89229393005371 C 35.24608993530273 -18.89630317687988 35.06476211547852 -19.94813346862793 35.06476211547852 -21.04778480529785 C 35.06476211547852 -22.01010322570801 35.13449096679688 -22.90501403808594 35.27394104003906 -23.73249435424805 C 35.41339111328125 -24.55998420715332 35.7004508972168 -25.23452377319336 36.1351318359375 -25.75614356994629 C 36.47791290283203 -26.17946434020996 36.85882186889648 -26.47451400756836 37.27789306640625 -26.64128494262695 C 37.69696044921875 -26.80806350708008 38.16694259643555 -26.89144325256348 38.68783950805664 -26.89144325256348 M 54.205810546875 -11.10117435455322 C 53.08966064453125 -11.10117435455322 52.07204055786133 -11.52883434295654 51.26296234130859 -12.33791446685791 C 50.45387268066406 -13.14699363708496 50.02621078491211 -14.16462421417236 50.02621078491211 -15.28076457977295 C 50.02621078491211 -16.43972396850586 50.45853042602539 -17.47650337219238 51.27643966674805 -18.27903366088867 C 52.08398056030273 -19.07137489318848 53.09694290161133 -19.49017333984375 54.205810546875 -19.49017333984375 C 55.35696029663086 -19.49017333984375 56.38891983032227 -19.06686401367188 57.19015121459961 -18.26599502563477 C 57.99161148071289 -17.46482467651367 58.41522216796875 -16.43257331848145 58.41522216796875 -15.28076457977295 C 58.41522216796875 -14.17174434661865 57.99623107910156 -13.15869426727295 57.20355987548828 -12.35112380981445 C 56.40085983276367 -11.53339385986328 55.36426162719727 -11.10117435455322 54.205810546875 -11.10117435455322 Z M 23.14219093322754 -11.17675399780273 C 22.52300071716309 -11.17675399780273 21.8693904876709 -11.39856433868408 20.88618087768555 -11.94234371185303 C 20.02875900268555 -12.41656303405762 19.23854637145996 -13.13153457641602 18.47237777709961 -14.12666606903076 C 18.2137393951416 -14.41744327545166 17.84743118286133 -14.83965492248535 17.35558128356934 -15.41388416290283 C 16.84882164001465 -16.00551414489746 16.24372100830078 -16.7072639465332 15.5571117401123 -17.49962425231934 C 14.86426162719727 -18.2991943359375 14.12703132629395 -19.15122413635254 13.34540176391602 -20.05572319030762 C 12.56427097320557 -20.95964431762695 11.78483104705811 -21.86188316345215 11.00707149505615 -22.76244354248047 C 10.23693180084229 -23.6541748046875 9.494231224060059 -24.50813484191895 8.799591064453125 -25.30060386657715 C 8.640384674072266 -25.48223304748535 8.485191345214844 -25.65936851501465 8.334317207336426 -25.83165740966797 L 8.316431045532227 -21.64450454711914 C 8.310091018676758 -20.14706420898438 8.30687141418457 -18.72140502929688 8.30687141418457 -17.40713500976562 C 8.30687141418457 -17.12099266052246 8.382173538208008 -16.97693061828613 8.449641227722168 -16.88393020629883 C 8.468356132507324 -16.86767959594727 8.617623329162598 -16.74886894226074 9.063708305358887 -16.65405464172363 C 9.575265884399414 -16.55756187438965 9.996411323547363 -16.42461967468262 10.35044097900391 -16.2479248046875 C 11.22046089172363 -15.81374454498291 11.73993110656738 -14.99174404144287 11.73993110656738 -14.04912376403809 C 11.73993110656738 -13.0548038482666 11.13267135620117 -12.21475410461426 10.15514087677002 -11.85678386688232 C 9.753331184387207 -11.70964431762695 9.297740936279297 -11.63502407073975 8.801031112670898 -11.63502407073975 C 8.120881080627441 -11.63502407073975 7.59559154510498 -11.65279388427734 7.19516134262085 -11.68934440612793 C 6.873041152954102 -11.71875381469727 6.579331398010254 -11.74304389953613 6.322211265563965 -11.7615442276001 C 6.099761486053467 -11.77754402160645 5.786741256713867 -11.78565406799316 5.391911506652832 -11.78565406799316 C 5.001961231231689 -11.78565406799316 4.676461219787598 -11.77607440948486 4.424451351165771 -11.75718402862549 C 4.14198112487793 -11.73600387573242 3.857321262359619 -11.71064376831055 3.578461408615112 -11.68181419372559 C 3.208101272583008 -11.64352416992188 2.780871391296387 -11.62491416931152 2.272351264953613 -11.62491416931152 C 1.791961312294006 -11.62491416931152 1.344371318817139 -11.69852447509766 0.9420413374900818 -11.84369373321533 C -0.04394865036010742 -12.19949436187744 -0.6564386487007141 -13.04067420959473 -0.6564386487007141 -14.0390043258667 C -0.6564386487007141 -14.95536422729492 -0.1580686569213867 -15.7657642364502 0.6767113208770752 -16.20681381225586 C 0.980377733707428 -16.36726570129395 1.353771924972534 -16.50776100158691 1.817285299301147 -16.63589286804199 C 1.933643221855164 -16.67327117919922 2.005763530731201 -16.71409606933594 2.031811237335205 -16.75737380981445 C 2.164241313934326 -16.97738456726074 2.248731374740601 -17.28598403930664 2.282951354980469 -17.67463493347168 L 2.286391258239746 -17.71014404296875 C 2.374081373214722 -18.53695487976074 2.465211391448975 -19.65446472167969 2.55726146697998 -21.03161430358887 C 2.64997124671936 -22.41849327087402 2.734321355819702 -23.99689483642578 2.807981252670288 -25.72298431396484 C 2.881121397018433 -27.43662452697754 2.918201446533203 -29.23102378845215 2.918201446533203 -31.05636405944824 C 2.918201446533203 -31.74480438232422 2.77622127532959 -32.04738235473633 2.701141357421875 -32.11118316650391 C 2.285191297531128 -32.46470260620117 1.716871380805969 -32.76317596435547 1.011951327323914 -32.99831390380859 L 0.9561513662338257 -33.01785278320312 C 0.7500313520431519 -33.09344482421875 0.4971013367176056 -33.20916366577148 0.1360213458538055 -33.39304351806641 C -1.224878668785095 -34.08614349365234 -1.371798634529114 -35.23264312744141 -1.371798634529114 -35.69340515136719 C -1.371798634529114 -36.76167297363281 -0.7154086232185364 -37.66574478149414 0.3004413545131683 -37.99664306640625 C 0.6943913698196411 -38.12495422363281 1.078261375427246 -38.18999481201172 1.441491365432739 -38.18999481201172 L 1.497201323509216 -38.18921279907227 C 2.070071458816528 -38.17325592041016 2.587191343307495 -38.15765380859375 3.034181356430054 -38.14286422729492 C 3.486571311950684 -38.12789535522461 3.926231384277344 -38.11031341552734 4.340891361236572 -38.09061431884766 C 4.735291481018066 -38.07186508178711 5.164741516113281 -38.05509567260742 5.617311477661133 -38.04076385498047 C 6.059041500091553 -38.02676391601562 6.58186149597168 -38.01967239379883 7.17125129699707 -38.01967239379883 C 8.03978157043457 -38.01967239379883 8.62014102935791 -37.66959381103516 8.954061508178711 -37.37592315673828 C 9.165172576904297 -37.19027328491211 9.36237621307373 -36.97086334228516 9.54118537902832 -36.7227897644043 C 9.773665428161621 -36.43992614746094 10.14227771759033 -35.99889755249023 10.63820171356201 -35.41026306152344 C 11.17508125305176 -34.77303314208984 11.80987167358398 -34.01367568969727 12.52490139007568 -33.15329360961914 C 13.23359107971191 -32.30054473876953 14.00508117675781 -31.37882423400879 14.81793117523193 -30.41375350952148 C 15.63644123077393 -29.44195365905762 16.46352195739746 -28.45626449584961 17.27618217468262 -27.48406410217285 C 18.08685111999512 -26.51425361633301 18.86238098144531 -25.58878326416016 19.58123207092285 -24.73337364196777 C 19.79216575622559 -24.48236465454102 19.99578857421875 -24.24047088623047 20.19169425964355 -24.00818061828613 C 20.19432258605957 -24.36660194396973 20.19696235656738 -24.74018669128418 20.19961166381836 -25.12893486022949 C 20.20769119262695 -26.3150634765625 20.21009063720703 -27.58479499816895 20.20676040649414 -28.90285491943359 C 20.2036075592041 -30.14502906799316 20.19607925415039 -31.39730644226074 20.18434715270996 -32.62905502319336 C 19.99788856506348 -32.75883102416992 19.80773544311523 -32.84524917602539 19.6059627532959 -32.89207458496094 C 19.15665626525879 -32.97769546508789 18.73435592651367 -33.09991836547852 18.35011100769043 -33.25557327270508 C 17.31253051757812 -33.67586517333984 16.69305229187012 -34.5308952331543 16.69305229187012 -35.54277420043945 C 16.69305229187012 -36.36585235595703 17.19923210144043 -37.45083236694336 18.62580108642578 -37.7997932434082 C 19.05192184448242 -37.90402221679688 19.47800064086914 -37.95687484741211 19.89222145080566 -37.95687484741211 C 20.23758125305176 -37.95687484741211 20.55065155029297 -37.95521545410156 20.82273101806641 -37.95194244384766 C 21.08901214599609 -37.94872283935547 21.34534072875977 -37.9454345703125 21.59178161621094 -37.94204330444336 C 21.8271312713623 -37.93881225585938 22.07155227661133 -37.93717575073242 22.31826210021973 -37.93717575073242 C 22.81049156188965 -37.93717575073242 23.20856094360352 -37.94247436523438 23.50144195556641 -37.95293426513672 C 23.80151176452637 -37.96365356445312 24.13439178466797 -37.98004531860352 24.49077224731445 -38.00164413452148 C 24.90959167480469 -38.02702331542969 25.45128059387207 -38.03936386108398 26.14679145812988 -38.03936386108398 C 26.68312072753906 -38.03936386108398 27.14237213134766 -37.96232223510742 27.55078125 -37.80385589599609 C 28.49722099304199 -37.43660354614258 29.08516120910645 -36.60182571411133 29.08516120910645 -35.62527465820312 C 29.08516120910645 -34.78425598144531 28.66308212280273 -34.02273559570312 27.9271411895752 -33.53598403930664 C 27.52526664733887 -33.27018737792969 27.03011322021484 -33.08472061157227 26.41352653503418 -32.96907806396484 C 26.1682243347168 -32.92133712768555 25.99002265930176 -32.87528991699219 25.86405563354492 -32.83696746826172 C 25.8623104095459 -32.45815277099609 25.85507011413574 -31.9139347076416 25.84206199645996 -31.18236351013184 C 25.82746124267578 -30.3615837097168 25.8134708404541 -29.38827323913574 25.80046081542969 -28.28944396972656 C 25.7873420715332 -27.18237495422363 25.76991081237793 -26.00297355651855 25.74867057800293 -24.78398323059082 C 25.72761154174805 -23.57657432556152 25.71365165710449 -22.36785316467285 25.70715141296387 -21.19136428833008 C 25.70064163208008 -20.01064491271973 25.69734191894531 -18.93496322631836 25.69734191894531 -17.99422454833984 C 25.69734191894531 -17.51573371887207 25.717041015625 -17.04535484313965 25.75590133666992 -16.59615325927734 C 25.79924201965332 -16.09505462646484 25.83906173706055 -15.65234375 25.87422180175781 -15.28030395507812 C 25.91695213317871 -14.82815456390381 25.93685150146484 -14.50562381744385 25.93685150146484 -14.26521396636963 C 25.93685150146484 -13.25773429870605 25.64709091186523 -12.47444438934326 25.07561111450195 -11.93710422515869 C 24.55403137207031 -11.44675445556641 23.867431640625 -11.17675399780273 23.14219093322754 -11.17675399780273 Z M 38.54626083374023 -11.29863452911377 C 36.89618301391602 -11.29863452911377 35.37568283081055 -11.68812370300293 34.02701187133789 -12.45629405975342 C 32.67647171020508 -13.22550392150879 31.58866119384766 -14.29982376098633 30.79380226135254 -15.64938449859619 C 29.99479103088379 -17.00598335266113 29.58965110778809 -18.55203437805176 29.58965110778809 -20.24460411071777 C 29.58965110778809 -21.5047550201416 29.83708190917969 -22.73794364929199 30.32505226135254 -23.9099235534668 C 30.80265045166016 -25.05693435668945 31.47926139831543 -26.10510444641113 32.33611297607422 -27.02535438537598 C 33.20458984375 -27.95809364318848 34.23207092285156 -28.70815467834473 35.39002227783203 -29.25471496582031 C 36.58616256713867 -29.81928443908691 37.8839111328125 -30.10553359985352 39.24724960327148 -30.10553359985352 C 40.95528030395508 -30.10553359985352 42.52638244628906 -29.68706321716309 43.91691970825195 -28.86176490783691 C 45.27783966064453 -28.05405426025391 46.37844085693359 -26.97198486328125 47.1881217956543 -25.64561462402344 C 48.02033996582031 -24.28229331970215 48.44231033325195 -22.77297401428223 48.44231033325195 -21.15955352783203 C 48.44231033325195 -19.49313354492188 48.07401275634766 -17.90153503417969 47.34764099121094 -16.42896461486816 C 46.59319305419922 -14.89952373504639 45.46293258666992 -13.65037441253662 43.98823165893555 -12.7162036895752 C 42.50334167480469 -11.77557373046875 40.67240142822266 -11.29863452911377 38.54626083374023 -11.29863452911377 Z M 38.68783950805664 -24.89144325256348 C 38.42374038696289 -24.89144325256348 38.19818115234375 -24.8549747467041 38.01743316650391 -24.78303337097168 C 37.92531967163086 -24.74638366699219 37.80885314941406 -24.64499473571777 37.689453125 -24.49754333496094 L 37.67158126831055 -24.47578430175781 C 37.46848297119141 -24.23206329345703 37.32534027099609 -23.87016487121582 37.24613189697266 -23.4001350402832 C 37.12578201293945 -22.68599319458008 37.06476211547852 -21.89455413818359 37.06476211547852 -21.04778480529785 C 37.06476211547852 -20.18561363220215 37.20775985717773 -19.3525447845459 37.48979187011719 -18.57171440124512 C 37.75105285644531 -17.84840393066406 38.09572219848633 -17.26795387268066 38.51423263549805 -16.84649467468262 C 38.82688140869141 -16.5316333770752 39.04874038696289 -16.48823356628418 39.24192047119141 -16.48823356628418 C 39.59884262084961 -16.48823356628418 39.89044189453125 -16.54694366455078 40.13339233398438 -16.6677131652832 C 40.23187255859375 -16.7166633605957 40.36196136474609 -16.80458450317383 40.49489974975586 -17.05196380615234 L 40.49856948852539 -17.05877494812012 C 40.60366058349609 -17.25252342224121 40.74605178833008 -17.61756324768066 40.82762145996094 -18.25634384155273 C 40.91388320922852 -18.93178367614746 40.95762252807617 -19.63349342346191 40.95762252807617 -20.34201431274414 C 40.95762252807617 -21.25007438659668 40.81781005859375 -22.10255432128906 40.54207992553711 -22.87576484680176 C 40.29312133789062 -23.57395362854004 39.95823287963867 -24.13043403625488 39.54672241210938 -24.52978324890137 C 39.28202056884766 -24.78666496276855 39.0331916809082 -24.89144325256348 38.68783950805664 -24.89144325256348 Z" stroke="none" fill="#fff"/>
      </g>
    </g>
  </g>
</svg>
