<svg xmlns="http://www.w3.org/2000/svg" xmlns:xlink="http://www.w3.org/1999/xlink" width="1920" height="290" viewBox="0 0 1920 290">
  <defs>
    <clipPath id="clip-path">
      <rect id="mask" width="1920" height="290"/>
    </clipPath>
    <linearGradient id="linear-gradient" x1="1" y1="0.529" x2="0" y2="0.524" gradientUnits="objectBoundingBox">
      <stop offset="0" stop-color="#fff"/>
      <stop offset="0.512" stop-color="#fff"/>
      <stop offset="1" stop-color="#fff" stop-opacity="0"/>
    </linearGradient>
    <linearGradient id="linear-gradient-2" x1="0" y1="0.529" x2="1" y2="0.524" xlink:href="#linear-gradient"/>
    <linearGradient id="linear-gradient-3" x2="1" y2="1" gradientUnits="objectBoundingBox">
      <stop offset="0" stop-color="#e6e9fd"/>
      <stop offset="1" stop-color="#fdf2fb"/>
    </linearGradient>
    <linearGradient id="linear-gradient-4" x1="0.5" x2="0.5" y2="1" gradientUnits="objectBoundingBox">
      <stop offset="0" stop-color="#c6ceff"/>
      <stop offset="1" stop-color="#f7b6ca"/>
    </linearGradient>
    <linearGradient id="linear-gradient-5" x2="1" y2="1" gradientUnits="objectBoundingBox">
      <stop offset="0" stop-color="#99e"/>
      <stop offset="1" stop-color="#e2a1c4"/>
    </linearGradient>
  </defs>
  <g id="title" transform="translate(0 -1348.348)">
    <g id="line" transform="translate(0 1348.348)">
      <g id="Mask_Group_195063" data-name="Mask Group 195063" clip-path="url(#clip-path)">
        <path id="Path_169490" data-name="Path 169490" d="M0,2.339C267.382,12.345,233.424,22.267,340.946,17.99S594.5-2.464,706.361,2.339s172.957,26.492,307.372,23.773,158.068-8.629,262.139-14.479,249.625,3.854,352.943,6.355,145.268-7.047,230.87-15.65,117.747,9.295,117.747,9.295" transform="matrix(-0.996, 0.087, -0.087, -0.996, 1948.344, 83.311)" fill="none" stroke="#b1aaee" stroke-width="1"/>
        <path id="Path_169491" data-name="Path 169491" d="M1977.432,24.01C1710.049,14,1744.008,4.082,1636.485,8.359S1382.93,28.813,1271.071,24.01,1098.114-2.483,963.7.236,805.631,8.865,701.56,14.714,451.935,10.861,348.617,8.359s-145.268,7.047-230.87,15.651S0,14.714,0,14.714" transform="translate(-22.434 246.606) rotate(-6)" fill="none" stroke="#c7a6dc" stroke-width="1" opacity="0.705"/>
        <path id="Path_169492" data-name="Path 169492" d="M0,.1c151.352-1.8,372.927,22.164,405.735,28.4S614.413,67.228,646.78,68.2s253,10.727,286.289,8.594,310.712-29.428,332.864-31.508,274.683-38.834,309.49-39.4S1725.524,9.913,1804.4,28.5s149.813,51.293,176.668,55.109" transform="matrix(-0.995, 0.105, -0.105, -0.995, 1967.048, 83.387)" fill="none" stroke="#c1a7e1" stroke-width="1" opacity="0.504"/>
        <path id="Path_169493" data-name="Path 169493" d="M0,85.11C82.423,72.5,485.856,14.093,606.729,5.407s340.049-5.566,413.972,0,301.469,46.711,364.619,48.281,343.931-1.236,401.142-7.785S1994.6,14.124,1994.6,14.124" transform="matrix(-0.998, 0.07, -0.07, -0.998, 1950.28, 114.791)" fill="none" stroke="#ec9fb9" stroke-width="1" opacity="0.699"/>
        <rect id="gra" width="600" height="290" transform="translate(1320)" fill="url(#linear-gradient)"/>
        <rect id="gra-2" data-name="gra" width="600" height="290" fill="url(#linear-gradient-2)"/>
      </g>
    </g>
    <circle id="bg" cx="120" cy="120" r="120" transform="translate(840 1353)" fill="url(#linear-gradient-3)"/>
    <path id="Path_378098" data-name="Path 378098" d="M15.813-7.393l-95.325,92.41,32.536-81.8Z" transform="translate(1092.187 1355.74)" fill="url(#linear-gradient-4)"/>
    <path id="Path_378138" data-name="Path 378138" d="M-9.844-34.922a23.745,23.745,0,0,1-5.117-6.328,14.122,14.122,0,0,1-1.445-6.406,15.083,15.083,0,0,1,2.422-8.359A17.02,17.02,0,0,1-7.3-61.953a20.464,20.464,0,0,1,9.492-2.187A20.063,20.063,0,0,1,10.9-62.3a14.933,14.933,0,0,1,6.016,4.922,12.071,12.071,0,0,1,2.148,7.07A14.609,14.609,0,0,1,17.227-43.2a20.662,20.662,0,0,1-5.273,6.133,27.458,27.458,0,0,1-7.969,4.414l.781.625q5.547,4.375,7.539,7.461A13.316,13.316,0,0,1,14.3-17.187,16.417,16.417,0,0,1,8.086-4.18Q1.875,1.094-7.344,1.094q-8.984,0-14.609-4.57a14.546,14.546,0,0,1-5.625-11.836,16.991,16.991,0,0,1,4.766-11.562A29.522,29.522,0,0,1-9.844-34.922Zm1.484,1.25a19.186,19.186,0,0,0-9.687,6.328,16.04,16.04,0,0,0-3.672,10.391,15.434,15.434,0,0,0,2.188,8.047,16.206,16.206,0,0,0,5.9,5.82A16,16,0,0,0-5.469-.937a14.019,14.019,0,0,0,10-3.75,12.429,12.429,0,0,0,3.984-9.453q0-6.094-6.172-11.328A101.178,101.178,0,0,0-8.359-33.672Zm10.7-.312a15.683,15.683,0,0,0,5.7-3.477,17.823,17.823,0,0,0,4.141-5.7,15.545,15.545,0,0,0,1.484-6.523,11.993,11.993,0,0,0-3.633-8.945A12.106,12.106,0,0,0,1.25-62.187,14.368,14.368,0,0,0-5.2-60.7a12.133,12.133,0,0,0-4.766,4.063,9.661,9.661,0,0,0-1.758,5.547Q-11.719-43.281,2.344-33.984Z" transform="translate(960 1466.799)" fill="url(#linear-gradient-5)"/>
  </g>
</svg>
