<svg xmlns="http://www.w3.org/2000/svg" xmlns:xlink="http://www.w3.org/1999/xlink" width="375" height="209.999" viewBox="0 0 375 209.999">
  <defs>
    <clipPath id="clip-path">
      <rect id="mask" width="375" height="92.092"/>
    </clipPath>
    <linearGradient id="linear-gradient" y1="0.529" x2="1" y2="0.524" gradientUnits="objectBoundingBox">
      <stop offset="0" stop-color="#fff"/>
      <stop offset="1" stop-color="#fff" stop-opacity="0"/>
    </linearGradient>
    <linearGradient id="linear-gradient-2" x1="1" y1="0.529" x2="0" y2="0.524" xlink:href="#linear-gradient"/>
    <linearGradient id="linear-gradient-3" x2="1" y2="1" gradientUnits="objectBoundingBox">
      <stop offset="0" stop-color="#e6e9fd"/>
      <stop offset="1" stop-color="#fdf2fb"/>
    </linearGradient>
    <linearGradient id="linear-gradient-4" x2="1" y2="1" gradientUnits="objectBoundingBox">
      <stop offset="0" stop-color="#99e"/>
      <stop offset="1" stop-color="#e2a1c4"/>
    </linearGradient>
    <linearGradient id="linear-gradient-5" x1="0.5" x2="0.5" y2="1" gradientUnits="objectBoundingBox">
      <stop offset="0" stop-color="#c6ceff"/>
      <stop offset="1" stop-color="#f7b6ca"/>
    </linearGradient>
  </defs>
  <g id="title" transform="translate(-0.5 24)">
    <g id="line" transform="translate(0.5 29.953)">
      <g id="Mask_Group_195063" data-name="Mask Group 195063" transform="translate(0 0.001)" clip-path="url(#clip-path)">
        <path id="Path_169490" data-name="Path 169490" d="M0,2.228C52.365,1.9,45.6-1.6,66.742.891s49.975,9.167,71.875,8.834,33.66-6.552,60.067-4.265,31.111,4.41,51.6,7.367,48.946,1.429,69.195,1.734,28.582,3.773,45.472,7.406,23.008-1.693,23.008-1.693" transform="matrix(0.996, 0.087, -0.087, 0.996, -5.302, 23.496)" fill="none" stroke="#b1aaee" stroke-width="1"/>
        <path id="Path_169491" data-name="Path 169491" d="M388.74,25.018c-52.453-.234-45.649,3.335-66.848.616s-50.121-9.69-72.057-9.593-33.675,6.18-60.142,3.612-31.194-4.737-51.733-7.91S88.921,9.79,68.636,9.268s-28.656-4.075-45.6-7.883S0,2.828,0,2.828" transform="matrix(-0.995, -0.105, 0.105, -0.995, 378.786, 85.772)" fill="none" stroke="#c7a6dc" stroke-width="1" opacity="0.705"/>
        <path id="Path_169492" data-name="Path 169492" d="M0,13.317c29.786,2.494,73.054-2.27,79.426-3.825S119.97-.1,126.323,0s49.616-.177,56.189.921,61.475,13.254,65.857,14.194,54.509,15.771,61.361,16.393,29.466.633,44.741-4.242S383.28,12.95,388.513,12.085" transform="matrix(0.995, 0.105, -0.105, 0.995, -7.795, 13.205)" fill="none" stroke="#c1a7e1" stroke-width="1" opacity="0.504"/>
        <path id="Path_169493" data-name="Path 169493" d="M0,0C16.255,4.7,95.787,26.643,119.541,30.424s66.665,4.657,81.1,3.522S259.3,21.7,271.662,21.744s67.389,3.318,78.653,5.88S391.36,39.467,391.36,39.467" transform="matrix(0.998, 0.07, -0.07, 0.998, -4.754, 9.491)" fill="none" stroke="#ec9fb9" stroke-width="1" opacity="0.699"/>
        <rect id="gra" width="100" height="92.092" fill="url(#linear-gradient)"/>
        <rect id="gra-2" data-name="gra" width="100" height="92.092" transform="translate(275)" fill="url(#linear-gradient-2)"/>
      </g>
    </g>
    <circle id="bg" cx="100" cy="100" r="100" transform="translate(87.5 -14.001)" fill="url(#linear-gradient-3)"/>
    <path id="Path_378184" data-name="Path 378184" d="M-14.121-27.012l6.8-20.332A22.559,22.559,0,0,1-3.4-47.7q2.344,0,5.859.352,3.164.234,4.512.234a8.468,8.468,0,0,0,3.955-.791,5.072,5.072,0,0,0,2.256-2.432h1.172l-2.812,8.086a18.311,18.311,0,0,1-3.984.352q-2.754,0-5.391-.176l-4.512-.352q-.762-.059-2.168-.059a19.429,19.429,0,0,0-2.812.234l-3.34,9.668a15.657,15.657,0,0,1,4.98-.82A14.826,14.826,0,0,1,1.9-31.406a14.5,14.5,0,0,1,5.391,5.42A15.111,15.111,0,0,1,9.258-18.34a19.012,19.012,0,0,1-1.523,7.588A19.685,19.685,0,0,1,3.545-4.541,19.911,19.911,0,0,1-2.725-.322,18.832,18.832,0,0,1-10.254,1.23a12.57,12.57,0,0,1-7.91-2.314,7.308,7.308,0,0,1-2.988-6.064,6.084,6.084,0,0,1,1.2-3.838,3.724,3.724,0,0,1,3.076-1.553,8.061,8.061,0,0,0-.645,3.047,8.373,8.373,0,0,0,2.725,6.328A9.619,9.619,0,0,0-7.91-.586,12.826,12.826,0,0,0-.937-2.578a14.207,14.207,0,0,0,5.01-5.449,15.329,15.329,0,0,0,1.846-7.324A13.481,13.481,0,0,0,4.277-22a12.463,12.463,0,0,0-4.57-4.717,11.981,11.981,0,0,0-6.27-1.758,12.652,12.652,0,0,0-6.211,1.816Z" transform="translate(187.5 86.5)" fill="url(#linear-gradient-4)"/>
    <path id="Path_378097" data-name="Path 378097" d="M-24.291,14.622-83.687,61.6-59.9,3.539Z" transform="translate(301.687 -27.539)" fill="url(#linear-gradient-5)"/>
  </g>
</svg>
