<svg xmlns="http://www.w3.org/2000/svg" xmlns:xlink="http://www.w3.org/1999/xlink" width="375" height="209.999" viewBox="0 0 375 209.999">
  <defs>
    <clipPath id="clip-path">
      <rect id="mask" width="375" height="92.092"/>
    </clipPath>
    <linearGradient id="linear-gradient" x1="1" y1="0.529" x2="0" y2="0.524" gradientUnits="objectBoundingBox">
      <stop offset="0" stop-color="#fff"/>
      <stop offset="1" stop-color="#fff" stop-opacity="0"/>
    </linearGradient>
    <linearGradient id="linear-gradient-2" x1="0" y1="0.529" x2="1" y2="0.524" xlink:href="#linear-gradient"/>
    <linearGradient id="linear-gradient-3" x2="1" y2="1" gradientUnits="objectBoundingBox">
      <stop offset="0" stop-color="#e6e9fd"/>
      <stop offset="1" stop-color="#fdf2fb"/>
    </linearGradient>
    <linearGradient id="linear-gradient-4" x2="1" y2="1" gradientUnits="objectBoundingBox">
      <stop offset="0" stop-color="#99e"/>
      <stop offset="1" stop-color="#e2a1c4"/>
    </linearGradient>
    <linearGradient id="linear-gradient-5" x1="0.5" x2="0.5" y2="1" gradientUnits="objectBoundingBox">
      <stop offset="0" stop-color="#c6ceff"/>
      <stop offset="1" stop-color="#f7b6ca"/>
    </linearGradient>
  </defs>
  <g id="title" transform="translate(-0.5 24)">
    <g id="line" transform="translate(0.5 29.954)">
      <g id="Mask_Group_195063" data-name="Mask Group 195063" clip-path="url(#clip-path)">
        <path id="Path_169490" data-name="Path 169490" d="M0,21.007c52.365.33,45.6,3.832,66.742,1.337s49.975-9.167,71.875-8.834,33.66,6.552,60.067,4.265,31.111-4.41,51.6-7.367,48.946-1.429,69.195-1.734S348.057,4.9,364.947,1.268s23.008,1.693,23.008,1.693" transform="matrix(-0.996, 0.087, -0.087, -0.996, 382.327, 46.643)" fill="none" stroke="#b1aaee" stroke-width="1"/>
        <path id="Path_169491" data-name="Path 169491" d="M388.74,1.643c-52.453.234-45.649-3.335-66.848-.616s-50.121,9.69-72.057,9.593-33.675-6.18-60.142-3.612-31.194,4.737-51.733,7.91-49.039,1.954-69.325,2.475-28.656,4.075-45.6,7.883S0,23.833,0,23.833" transform="translate(-6.572 59.256) rotate(-6)" fill="none" stroke="#c7a6dc" stroke-width="1" opacity="0.705"/>
        <path id="Path_169492" data-name="Path 169492" d="M0,18.477c29.786-2.494,73.054,2.27,79.426,3.825s40.544,9.595,46.9,9.491,49.616.177,56.189-.921,61.475-13.254,65.857-14.194S302.878.908,309.73.286,339.2-.347,354.472,4.528,383.28,18.844,388.513,19.71" transform="matrix(-0.995, 0.105, -0.105, -0.995, 386.118, 44.825)" fill="none" stroke="#c1a7e1" stroke-width="1" opacity="0.504"/>
        <path id="Path_169493" data-name="Path 169493" d="M0,39.467c16.255-4.7,95.787-26.643,119.541-30.424s66.665-4.657,81.1-3.522,58.663,12.241,71.021,12.2,67.389-3.318,78.653-5.88S391.36,0,391.36,0" transform="matrix(-0.998, 0.07, -0.07, -0.998, 382.508, 48.862)" fill="none" stroke="#ec9fb9" stroke-width="1" opacity="0.699"/>
        <rect id="gra" width="100" height="92.092" transform="translate(275)" fill="url(#linear-gradient)"/>
        <rect id="gra-2" data-name="gra" width="100" height="92.092" fill="url(#linear-gradient-2)"/>
      </g>
    </g>
    <circle id="bg" cx="100" cy="100" r="100" transform="translate(87.5 -14.001)" fill="url(#linear-gradient-3)"/>
    <path id="Path_378194" data-name="Path 378194" d="M-12.48-21.738Q-7.324-31.758,1-31.758a9.459,9.459,0,0,1,7.5,3.223q2.813,3.223,2.813,8.672A20.588,20.588,0,0,1,9.785-12.1,23.476,23.476,0,0,1,5.742-5.42,20.7,20.7,0,0,1-.088-.732,13.985,13.985,0,0,1-6.8,1.055a10.363,10.363,0,0,1-8.7-4.072q-3.135-4.072-3.135-11.4a36.586,36.586,0,0,1,2.168-12.158,41.477,41.477,0,0,1,5.742-11.016,30.448,30.448,0,0,1,8.145-7.734,16.861,16.861,0,0,1,9.082-2.9,8.18,8.18,0,0,1,5.273,1.641,5.162,5.162,0,0,1,2.051,4.219,4.737,4.737,0,0,1-1.289,3.252,4.089,4.089,0,0,1-3.164,1.436,6.69,6.69,0,0,1-.937-.059,8.11,8.11,0,0,0,1.172-4.043,4.637,4.637,0,0,0-1.23-3.516A4.988,4.988,0,0,0,4.8-46.465,10.764,10.764,0,0,0-2.432-43.33a27.454,27.454,0,0,0-6.182,8.877,47.245,47.245,0,0,0-2.607,6.8A32.11,32.11,0,0,0-12.48-21.738ZM-13.887-9.961q0,9.668,6.973,9.668A9.05,9.05,0,0,0-.674-3.164,20.245,20.245,0,0,0,4.16-10.9a28.1,28.1,0,0,0,1.816-9.9,10.362,10.362,0,0,0-1.67-6.357,5.766,5.766,0,0,0-4.893-2.2q-5.156,0-8.848,5.215a25.608,25.608,0,0,0-3.135,6.826A24.958,24.958,0,0,0-13.887-9.961Z" transform="translate(187.5 86.5)" fill="url(#linear-gradient-4)"/>
    <path id="Path_378097" data-name="Path 378097" d="M-83.687,14.622l59.4,46.977L-48.08,3.539Z" transform="translate(182.291 -27.539)" fill="url(#linear-gradient-5)"/>
  </g>
</svg>
