<svg xmlns="http://www.w3.org/2000/svg" xmlns:xlink="http://www.w3.org/1999/xlink" width="1920" height="290" viewBox="0 0 1920 290">
  <defs>
    <clipPath id="clip-path">
      <rect id="mask" width="1920" height="290"/>
    </clipPath>
    <linearGradient id="linear-gradient" y1="0.529" x2="1" y2="0.524" gradientUnits="objectBoundingBox">
      <stop offset="0" stop-color="#fff"/>
      <stop offset="0.512" stop-color="#fff"/>
      <stop offset="1" stop-color="#fff" stop-opacity="0"/>
    </linearGradient>
    <linearGradient id="linear-gradient-2" x1="1" y1="0.529" x2="0" y2="0.524" xlink:href="#linear-gradient"/>
    <linearGradient id="linear-gradient-3" x2="1" y2="1" gradientUnits="objectBoundingBox">
      <stop offset="0" stop-color="#e6e9fd"/>
      <stop offset="1" stop-color="#fdf2fb"/>
    </linearGradient>
    <linearGradient id="linear-gradient-4" x1="0.5" x2="0.5" y2="1" gradientUnits="objectBoundingBox">
      <stop offset="0" stop-color="#c6ceff"/>
      <stop offset="1" stop-color="#f7b6ca"/>
    </linearGradient>
    <linearGradient id="linear-gradient-5" x2="1" y2="1" gradientUnits="objectBoundingBox">
      <stop offset="0" stop-color="#99e"/>
      <stop offset="1" stop-color="#e2a1c4"/>
    </linearGradient>
  </defs>
  <g id="title" transform="translate(0 -1348.348)">
    <g id="line" transform="translate(0 1348.348)">
      <g id="Mask_Group_195063" data-name="Mask Group 195063" clip-path="url(#clip-path)">
        <path id="Path_169490" data-name="Path 169490" d="M0,24.008C267.382,14,233.424,4.081,340.946,8.358S594.5,28.811,706.361,24.008,879.318-2.484,1013.733.235,1171.8,8.864,1275.872,14.713,1525.5,10.86,1628.815,8.358s145.268,7.047,230.87,15.65,117.747-9.295,117.747-9.295" transform="matrix(0.996, 0.087, -0.087, 0.996, -26.048, 57.063)" fill="none" stroke="#b1aaee" stroke-width="1"/>
        <path id="Path_169491" data-name="Path 169491" d="M1977.432,2.339c-267.382,10.006-233.424,19.928-340.946,15.651S1382.93-2.464,1271.071,2.339,1098.114,28.832,963.7,26.113,805.631,17.484,701.56,11.634,451.935,15.488,348.617,17.99,203.348,10.943,117.747,2.339,0,11.634,0,11.634" transform="matrix(-0.995, -0.105, 0.105, -0.995, 1939.68, 272.81)" fill="none" stroke="#c7a6dc" stroke-width="1" opacity="0.705"/>
        <path id="Path_169492" data-name="Path 169492" d="M0,83.512c151.352,1.8,372.927-22.164,405.735-28.4s208.678-38.729,241.045-39.7,253-10.727,286.289-8.594,310.712,29.428,332.864,31.508,274.683,38.834,309.49,39.4,150.1-4.029,228.979-22.615S1954.216,3.816,1981.071,0" transform="matrix(0.995, 0.105, -0.105, 0.995, -38.308, 0.236)" fill="none" stroke="#c1a7e1" stroke-width="1" opacity="0.504"/>
        <path id="Path_169493" data-name="Path 169493" d="M0,0C82.423,12.609,485.856,71.018,606.729,79.7s340.049,5.566,413.972,0,301.469-46.711,364.619-48.281,343.931,1.236,401.142,7.785S1994.6,70.986,1994.6,70.986" transform="matrix(0.998, 0.07, -0.07, 0.998, -24.343, 29.888)" fill="none" stroke="#ec9fb9" stroke-width="1" opacity="0.699"/>
        <rect id="gra" width="600" height="290" fill="url(#linear-gradient)"/>
        <rect id="gra-2" data-name="gra" width="600" height="290" transform="translate(1320)" fill="url(#linear-gradient-2)"/>
      </g>
    </g>
    <circle id="bg" cx="120" cy="120" r="120" transform="translate(840 1353)" fill="url(#linear-gradient-3)"/>
    <path id="Path_378098" data-name="Path 378098" d="M-79.512-7.393l95.325,92.41-32.536-81.8Z" transform="translate(885.187 1355.74)" fill="url(#linear-gradient-4)"/>
    <path id="Path_378132" data-name="Path 378132" d="M-18.828-36.016l9.063-27.109a30.079,30.079,0,0,1,5.234-.469q3.125,0,7.813.469,4.219.312,6.016.313a11.291,11.291,0,0,0,5.273-1.055,6.763,6.763,0,0,0,3.008-3.242h1.563l-3.75,10.781a24.415,24.415,0,0,1-5.312.469q-3.672,0-7.187-.234l-6.016-.469q-1.016-.078-2.891-.078a25.906,25.906,0,0,0-3.75.313l-4.453,12.891a20.876,20.876,0,0,1,6.641-1.094A19.768,19.768,0,0,1,2.539-41.875a19.336,19.336,0,0,1,7.188,7.227,20.148,20.148,0,0,1,2.617,10.2,25.349,25.349,0,0,1-2.031,10.117A26.247,26.247,0,0,1,4.727-6.055,26.548,26.548,0,0,1-3.633-.43a25.11,25.11,0,0,1-10.039,2.07q-6.562,0-10.547-3.086A9.744,9.744,0,0,1-28.2-9.531a8.112,8.112,0,0,1,1.6-5.117,4.965,4.965,0,0,1,4.1-2.07,10.749,10.749,0,0,0-.859,4.063,11.164,11.164,0,0,0,3.633,8.438,12.825,12.825,0,0,0,9.18,3.438,17.1,17.1,0,0,0,9.3-2.656A18.942,18.942,0,0,0,5.43-10.7a20.439,20.439,0,0,0,2.461-9.766A17.975,17.975,0,0,0,5.7-29.336,16.618,16.618,0,0,0-.391-35.625,15.974,15.974,0,0,0-8.75-37.969a16.869,16.869,0,0,0-8.281,2.422Z" transform="translate(960 1466.799)" fill="url(#linear-gradient-5)"/>
  </g>
</svg>
