<svg xmlns="http://www.w3.org/2000/svg" xmlns:xlink="http://www.w3.org/1999/xlink" width="240" height="261.652" viewBox="0 0 240 261.652">
  <defs>
    <linearGradient id="linear-gradient" x2="1" y2="1" gradientUnits="objectBoundingBox">
      <stop offset="0" stop-color="#e6e9fd"/>
      <stop offset="1" stop-color="#fdf2fb"/>
    </linearGradient>
    <linearGradient id="linear-gradient-2" x1="0.5" x2="0.5" y2="1" gradientUnits="objectBoundingBox">
      <stop offset="0" stop-color="#c6ceff"/>
      <stop offset="1" stop-color="#f7b6ca"/>
    </linearGradient>
    <linearGradient id="linear-gradient-3" x2="1" y2="1" gradientUnits="objectBoundingBox">
      <stop offset="0" stop-color="#99e"/>
      <stop offset="1" stop-color="#e2a1c4"/>
    </linearGradient>
  </defs>
  <g id="Group_207053" data-name="Group 207053" transform="translate(-840 -1331.348)">
    <circle id="bg" cx="120" cy="120" r="120" transform="translate(840 1353)" fill="url(#linear-gradient)"/>
    <path id="Path_378098" data-name="Path 378098" d="M15.813-7.393l-95.325,92.41,32.536-81.8Z" transform="translate(1049.836 1338.74)" fill="url(#linear-gradient-2)"/>
    <path id="Path_378093" data-name="Path 378093" d="M-49.98-21.631-54.619,0h-3.125A38.21,38.21,0,0,0-63.53-11.182a38.733,38.733,0,0,0-9.009-8.936,55.238,55.238,0,0,1-7.422,9.277,50.955,50.955,0,0,1-8.716,7.031A41.949,41.949,0,0,1-98.271.732a31.617,31.617,0,0,1-9.766,1.611,17.842,17.842,0,0,1-2.832-.244l1.563-3.711a37.881,37.881,0,0,0,3.906.293q13.379,0,23.828-10.449a57.244,57.244,0,0,0,4.37-4.956,78.853,78.853,0,0,0,4.614-6.567q5.322-8.35,9.082-15.625l4.59-8.838q5.42-10.4,8.35-14.087t5.811-3.687a3.331,3.331,0,0,1,1.636.391,2.675,2.675,0,0,1,1.1,1.147,3.618,3.618,0,0,1,.391,1.685,11.981,11.981,0,0,1-.244,2q-.244,1.758-.293,1.9l-7.471,35.107h3.467l-.342,1.66Zm-4.59,0H-71.611l.2.146a53,53,0,0,1,7.471,6.836,58.411,58.411,0,0,1,6.1,8.4Zm-15.723-1.66h16.064l6.934-33.2q.342-1.611.342-1.66a6.186,6.186,0,0,0,.293-1.758q0-1.221-1.074-1.221-1.318,0-3.174,2.783t-6.445,11.426q-.684,1.318-2.783,5.322-1.758,3.174-1.9,3.516l-4.687,8.545Q-69.658-24.219-70.293-23.291Zm50.234-43.018,5.176-2.49L-28.945-8.594q8.789-19.629,17.236-19.629a5.341,5.341,0,0,1,3.052.9,5.919,5.919,0,0,1,2.1,2.661A9.285,9.285,0,0,1-5.8-20.947,22.911,22.911,0,0,1-7.559-12.72,27.628,27.628,0,0,1-12-4.98Q-16.787.83-22.549.83A9.967,9.967,0,0,1-26.016.22a17.131,17.131,0,0,1-3.711-2.026L-33.145.244ZM-28.945-4.98q2.2,4.59,6.3,4.59A7.573,7.573,0,0,0-17.2-2.93,22.262,22.262,0,0,0-12.734-10.3a37.824,37.824,0,0,0,1.855-5.933,24.179,24.179,0,0,0,.732-5.1q0-4.59-3.223-4.59-2.148,0-4.883,2.637a34.285,34.285,0,0,0-5.493,7.349A77.717,77.717,0,0,0-28.945-4.98ZM8.2-9.375a18.245,18.245,0,0,1,2.368-8.765,21,21,0,0,1,6.128-7.1,12.92,12.92,0,0,1,7.666-2.734,8.6,8.6,0,0,1,6.616,2.71A9.892,9.892,0,0,1,33.5-18.262,19.224,19.224,0,0,1,31.177-9.18a21.053,21.053,0,0,1-6.1,7.2A12.752,12.752,0,0,1,17.432.83a8.588,8.588,0,0,1-6.689-2.808A10.606,10.606,0,0,1,8.2-9.375ZM29.1-20.117a7.789,7.789,0,0,0-1.44-4.834,4.432,4.432,0,0,0-3.687-1.9,6.746,6.746,0,0,0-3.931,1.318A12.808,12.808,0,0,0,16.6-21.68,29.292,29.292,0,0,0,13.7-14.844,24.966,24.966,0,0,0,12.549-7.91a9.375,9.375,0,0,0,1.416,5.566A4.7,4.7,0,0,0,18.018-.391q4.248,0,7.471-5.908a29.462,29.462,0,0,0,2.637-6.787A28.052,28.052,0,0,0,29.1-20.117Zm28.311-8.447-4.736,18.9a18.243,18.243,0,0,0-.635,4.3,3.6,3.6,0,0,0,1.074,2.734A3.865,3.865,0,0,0,55.9-1.611q4.15,0,8.643-6.787l.2-.293q.1-.488.146-.781l3.076-17.09,4.785-2L68.447-12.5a25.6,25.6,0,0,0-1.074,6.348,5.248,5.248,0,0,0,.537,2.539,1.6,1.6,0,0,0,1.416.977q1.514,0,4.834-3.613l.781.684-.488.537a46.8,46.8,0,0,1-4.1,4.419A3.874,3.874,0,0,1,67.91.537,3.053,3.053,0,0,1,65.347-1,6.645,6.645,0,0,1,64.3-4.834q0-.732.049-1.367Q59.268.537,54.287.537A5.481,5.481,0,0,1,50.308-.9a5.087,5.087,0,0,1-1.489-3.833,23.814,23.814,0,0,1,.537-4.541l3.32-17.285Zm39.541,2.49L93.242-9.814a20.808,20.808,0,0,0-.586,3.809,4.506,4.506,0,0,0,.83,2.832,2.641,2.641,0,0,0,2.2,1.074A4.169,4.169,0,0,0,98.1-2.856a24.975,24.975,0,0,0,3.345-3.149l.586-.586.732.732A30.639,30.639,0,0,1,97.954-.9,6.344,6.344,0,0,1,94.17.537,4.789,4.789,0,0,1,90.435-1a5.774,5.774,0,0,1-1.392-4.028,28.611,28.611,0,0,1,.732-5.371l3.174-15.674H88.262l.342-1.66h4.688l2.734-13.184,4.688-1.855L97.295-27.734h7.91l-.342,1.66Z" transform="translate(960 1466.799)" fill="url(#linear-gradient-3)"/>
  </g>
</svg>
