<svg xmlns="http://www.w3.org/2000/svg" xmlns:xlink="http://www.w3.org/1999/xlink" width="35.508" height="51.563" viewBox="0 0 35.508 51.563">
  <defs>
    <linearGradient id="linear-gradient" x2="1" y2="1" gradientUnits="objectBoundingBox">
      <stop offset="0" stop-color="#99e"/>
      <stop offset="1" stop-color="#e2a1c4"/>
    </linearGradient>
  </defs>
  <path id="Path_378112" data-name="Path 378112" d="M-14.121-27.012l6.8-20.332A22.559,22.559,0,0,1-3.4-47.7q2.344,0,5.859.352,3.164.234,4.512.234a8.468,8.468,0,0,0,3.955-.791,5.072,5.072,0,0,0,2.256-2.432h1.172l-2.812,8.086a18.311,18.311,0,0,1-3.984.352q-2.754,0-5.391-.176l-4.512-.352q-.762-.059-2.168-.059a19.429,19.429,0,0,0-2.812.234l-3.34,9.668a15.657,15.657,0,0,1,4.98-.82A14.826,14.826,0,0,1,1.9-31.406a14.5,14.5,0,0,1,5.391,5.42A15.111,15.111,0,0,1,9.258-18.34a19.012,19.012,0,0,1-1.523,7.588A19.685,19.685,0,0,1,3.545-4.541,19.911,19.911,0,0,1-2.725-.322,18.832,18.832,0,0,1-10.254,1.23a12.57,12.57,0,0,1-7.91-2.314,7.308,7.308,0,0,1-2.988-6.064,6.084,6.084,0,0,1,1.2-3.838,3.724,3.724,0,0,1,3.076-1.553,8.061,8.061,0,0,0-.645,3.047,8.373,8.373,0,0,0,2.725,6.328A9.619,9.619,0,0,0-7.91-.586,12.826,12.826,0,0,0-.937-2.578a14.207,14.207,0,0,0,5.01-5.449,15.329,15.329,0,0,0,1.846-7.324A13.481,13.481,0,0,0,4.277-22a12.463,12.463,0,0,0-4.57-4.717,11.981,11.981,0,0,0-6.27-1.758,12.652,12.652,0,0,0-6.211,1.816Z" transform="translate(21.152 50.332)" fill="url(#linear-gradient)"/>
</svg>
