<svg xmlns="http://www.w3.org/2000/svg" width="200" height="110" viewBox="0 0 200 110">
  <g id="fukidashi" transform="translate(-16.307 -19.723)">
    <g id="bg" transform="translate(-511.5 -6683.5)" fill="#f9b">
      <path d="M 625.2843627929688 6812.2880859375 L 609.7285766601562 6799.0224609375 L 609.5641479492188 6798.88232421875 L 609.3493041992188 6798.90576171875 L 562.6806030273438 6804.05078125 L 528.5125122070312 6758.056640625 L 604.912841796875 6703.73974609375 L 727.13330078125 6716.53369140625 L 703.3976440429688 6786.91796875 L 628.7045288085938 6796.6875 L 628.3482666015625 6796.73388671875 L 628.27880859375 6797.08642578125 L 625.2843627929688 6812.2880859375 Z" stroke="none"/>
      <path d="M 605.0486450195312 6704.25634765625 L 529.2183837890625 6758.16796875 L 562.910888671875 6803.5224609375 L 609.72412109375 6798.361328125 L 610.052978515625 6798.64208984375 L 624.9588623046875 6811.353515625 L 627.9271240234375 6796.28466796875 L 628.6397094726562 6796.19140625 L 703.0234985351562 6786.462890625 L 726.4598388671875 6716.9658203125 L 605.0486450195312 6704.25634765625 M 604.7770385742188 6703.22265625 L 727.8067016601562 6716.1015625 L 703.771728515625 6787.37353515625 L 628.7694091796875 6797.18310546875 L 625.60986328125 6813.22265625 L 609.4041137695312 6799.40283203125 L 562.4502563476562 6804.5791015625 L 527.8067016601562 6757.94482421875 L 604.7770385742188 6703.22265625 Z" stroke="none" fill="#fff"/>
    </g>
    <text id="圧倒的な_EYS会員数" data-name="圧倒的な
EYS会員数" transform="translate(115.384 64.915) rotate(-7)" fill="#fff" font-size="18" font-family="YuGothicUI-Regular, Yu Gothic UI" letter-spacing="0.1em"><tspan x="-37.395" y="0">圧倒的な</tspan><tspan y="0" font-family="SegoeUI, Segoe UI"></tspan><tspan font-family="SegoeUI, Segoe UI"><tspan x="-45.809" y="24">EYS</tspan><tspan y="24" font-family="YuGothicUI-Regular, Yu Gothic UI">会員数</tspan></tspan></text>
  </g>
</svg>
