<svg xmlns="http://www.w3.org/2000/svg" xmlns:xlink="http://www.w3.org/1999/xlink" width="150.073" height="152.813" viewBox="0 0 150.073 152.813">
  <defs>
    <clipPath id="clip-path">
      <rect id="Rectangle_109814" data-name="Rectangle 109814" width="150.263" height="147.473" fill="none"/>
    </clipPath>
  </defs>
  <g id="Group_206833" data-name="Group 206833" transform="matrix(-0.017, 1, -1, -0.017, 150.073, 2.574)">
    <g id="Group_206832" data-name="Group 206832" clip-path="url(#clip-path)">
      <path id="Path_450883" data-name="Path 450883" d="M124.537,158.729a17.581,17.581,0,0,0,1.669-8.206A8.541,8.541,0,0,0,122,143.6c-2.8-1.441-6.2-.738-9.173.281-1.854.634-3.8,1.488-4.792,3.178a8.876,8.876,0,0,0-.831,4.52,177.965,177.965,0,0,0,1.15,20.495,29.246,29.246,0,0,0-8.892-17.332,5.578,5.578,0,0,0-3.537-1.858c-1.61-.016-2.933,1.2-4.072,2.339l-9.376,9.366a22.707,22.707,0,0,0-4.861,6.135c-1.113,2.375-1.308,5.354.184,7.511,1.666,2.407,4.865,3.149,7.782,3.385a40.6,40.6,0,0,0,20.9-3.936,27.347,27.347,0,0,0-3.858,26.7c1.007,2.494,2.511,4.951,4.889,6.208,3.377,1.785,7.673.646,10.725-1.651a16.362,16.362,0,0,0,1.718-24.662c9.711.348,19.677-2.216,27.413-8.1,2.2-1.676,4.4-4.092,3.967-6.827-.444-2.81-3.438-4.441-6.2-5.119-5.589-1.369-11.537-.591-16.98,1.276-3.971,1.363-7.638,4.213-11.6,5.3,2.919-3.986,6.009-7.4,7.976-12.075" transform="translate(-34.387 -63.984)" fill="#ddf"/>
      <path id="Path_450884" data-name="Path 450884" d="M53.6,117.049c-1.586-2.654-3.466-5.33-6.26-6.654-2.892-1.37-6.266-1.064-9.442-.669-4.242.527-8.534,1.176-12.433,2.925s-7.418,4.749-8.9,8.759c-.459,1.244-.65,2.808.281,3.753,1.027,1.043,2.808.738,4.085,1.455,2.011,1.131,1.833,4.186.637,6.159s-3.1,3.513-3.956,5.654c-1.579,3.931,1.058,8.54,4.749,10.621s8.111,2.275,12.346,2.418L53,152.09c3.658.124,7.828.041,10.262-2.692a8.493,8.493,0,0,0,1.523-7.436,22.672,22.672,0,0,0-2.682-6.174,41.249,41.249,0,0,1-2.457-6.131A76.674,76.674,0,0,0,53.6,117.049" transform="translate(-7.254 -49.022)" fill="#ffe5ee"/>
      <path id="Path_450885" data-name="Path 450885" d="M55.441,80.247c2.422-3.816,5.922-6.814,9.5-9.578S72.246,65.291,75.348,62c1.4-1.487,2.746-3.565,1.943-5.446a4.43,4.43,0,0,0-2.469-2.149c-3.355-1.418-7.309-.691-10.51,1.045s-5.8,4.378-8.35,6.981c-.779-4.182-1.614-8.5-4.035-12a7.288,7.288,0,0,0-2.955-2.672c-2.943-1.271-6.5.869-7.77,3.811s-.807,6.336.018,9.434,1.994,6.157,2.077,9.361a13.461,13.461,0,0,0-5.032-7.079,25.333,25.333,0,0,0-7.94-3.8c-1.2-.369-2.58-.668-3.656-.018-1.619.978-1.489,3.386-.8,5.146,1.641,4.172,5.154,7.322,8.856,9.85S42.453,79.083,45.858,82a21.855,21.855,0,0,1,3.854,4.23c.416.608,2.054,4.915,2.395,5,.514.123.669-4.355.844-5.116a18.91,18.91,0,0,1,2.49-5.862" transform="translate(-11.376 -21.236)" fill="#ddf"/>
      <path id="Path_450886" data-name="Path 450886" d="M125.118,101.851l.1.011c3.416-1.2,7.02-.939,10.571-.814a27.776,27.776,0,0,0,5.413-.21,17.536,17.536,0,0,0,8.936-4.3.338.338,0,0,0-.078-.572c-4.21-1.841-8.956-3.008-13.513-1.827a18.419,18.419,0,0,0-5.808,2.859c-1.8,1.243-3.485,2.651-5.362,3.775a16.5,16.5,0,0,1-4.741,2.042,11.4,11.4,0,0,1-2.679.165,41.6,41.6,0,0,0-4.266-1.134,32.981,32.981,0,0,0-7.088-.691,22.3,22.3,0,0,1,7.162-3.282l0,0,.115.022.008,0c3.723.737,7.956,1.1,11.429-.74,3.051-1.614,4.912-4.734,5.832-7.969a37.942,37.942,0,0,0,1.1-6.536.358.358,0,0,0-.61-.278.139.139,0,0,0-.2.061c-.027.09-.056.178-.083.268a.277.277,0,0,0-.114.209c-.008.073-.019.145-.027.218a6.3,6.3,0,0,1-.583,1.289,7.771,7.771,0,0,1-1.417,1.662,14.473,14.473,0,0,1-4.18,2.422,36.914,36.914,0,0,0-4.526,2.1,20.069,20.069,0,0,0-3.62,2.741,21.026,21.026,0,0,0-3.226,3.943c-.533.16-1.061.329-1.583.513a16.447,16.447,0,0,0-5.941,3.371,30.925,30.925,0,0,0-3.744.321,36.116,36.116,0,0,0-5.982,1.453c4.607-2.5,9.113-5.378,12.063-9.813a17.342,17.342,0,0,0,2.087-4.284c.071-.221-.089-.52-.359-.459-.129.03-.255.067-.383.1l-.067.017A22.164,22.164,0,0,0,96.2,98.8a21.173,21.173,0,0,0-1.993,4.58.387.387,0,0,0,.011.25l-.261.149-.081.086c-.709.284-1.412.582-2.106.9a58.029,58.029,0,0,0-8.8,5.029,13.761,13.761,0,0,1-1.46.492,25.285,25.285,0,0,0,2.413-1.971,29.656,29.656,0,0,0,3.466-3.76,31.442,31.442,0,0,0,4.849-9.02,30.037,30.037,0,0,0,1.6-10.071,5.705,5.705,0,0,0-.363-2.386,2.3,2.3,0,0,0-2.02-1.22,13.525,13.525,0,0,0-5,.467,15.4,15.4,0,0,0-8.189,5.531c-.182.244-.347.5-.513.757-.191-.4-.38-.794-.586-1.182a22.117,22.117,0,0,0-4.434-5.979,6.025,6.025,0,0,0-3.231-1.867,3.446,3.446,0,0,0-2.925,1.423,17,17,0,0,0-1.98,3.182,24.811,24.811,0,0,0-1.589,3.746,19.189,19.189,0,0,0-.923,7.4c-.016-.072-.036-.141-.051-.213a22.076,22.076,0,0,1-.451-3.933,21.761,21.761,0,0,1,1.207-7.73,24.494,24.494,0,0,1,2.342-4.76c1.914-1.793,4.358-2.881,6.4-4.509a10.288,10.288,0,0,0,3.848-6.542,10.041,10.041,0,0,0-.3-4.332.292.292,0,0,0-.383-.152,19.126,19.126,0,0,0-8.787,10.839,18.412,18.412,0,0,0-.771,3.684,26.622,26.622,0,0,0-2.7,4.968,21.8,21.8,0,0,0-1.537,7.762,22.507,22.507,0,0,0,.377,4.423,20.341,20.341,0,0,0,.891,3.334,13.59,13.59,0,0,1-1.253-2.05,16.079,16.079,0,0,1-1.174-3.4,26.045,26.045,0,0,1-.425-7.691c.008-.1.018-.206.027-.31a.336.336,0,0,0,.129-.476,20.812,20.812,0,0,1,1.82-5.106,27.669,27.669,0,0,0,2.237-5.257A13.724,13.724,0,0,0,61.585,62.75a11.955,11.955,0,0,0-4.08-3.794l-.045-.111c0-.009-.011-.011-.015-.019l0-.011q-.033-.1-.063-.2a.376.376,0,0,0-.281-.269.225.225,0,0,0-.211.089l-.035.06-.015.127,0,.056a.15.15,0,0,0,.006.021.1.1,0,0,0-.064.126c.225.9.465,1.8.6,2.725a19.232,19.232,0,0,1,.2,2.731,47.215,47.215,0,0,1-.368,5.454c-.364,3.308-.783,6.684-.193,9.993a12.608,12.608,0,0,0,1.862,4.8,28.75,28.75,0,0,0,.383,7.8,16.872,16.872,0,0,0,1.256,3.812,12.869,12.869,0,0,0,1.041,1.809l-.071-.019c-.391-.027-.782-.039-1.174-.038a31.789,31.789,0,0,1-6.606-4.7c.115-.287.224-.577.323-.87a16.382,16.382,0,0,0,.823-6.444,7.683,7.683,0,0,0-.681-3.057,2.121,2.121,0,0,0-1.143-1.012c0-.008,0-.015.006-.023a.314.314,0,0,0,.113-.488,18.369,18.369,0,0,0,.432-3.716,22.315,22.315,0,0,0-1.917-9.542,21.384,21.384,0,0,0-1.12-2.167A12.129,12.129,0,0,0,49.21,63.92,3.124,3.124,0,0,0,47.3,62.762a1.972,1.972,0,0,0-1.715.748,4.45,4.45,0,0,0-.791,1.817c-.2.821-.334,1.662-.456,2.5a38.078,38.078,0,0,0-.049,10.547c.036.27.084.54.127.81a27.483,27.483,0,0,1-1.5-4.853,25.366,25.366,0,0,1-.471-6.035,23.648,23.648,0,0,1,1.018-5.954,28.6,28.6,0,0,1,2.569-5.724c.535-.938,1.084-1.868,1.622-2.8.279-.485.561-.97.819-1.466a2.742,2.742,0,0,0,.331-1.063,1.06,1.06,0,0,0-1.058-1.214c1.861-1.271,3.846-2.39,5.739-3.537a30.942,30.942,0,0,0,6.082-4.54c.736-.744,1.934-1.837,1.677-3.011-.252-1.148-1.574-1.414-2.554-1.6a17.842,17.842,0,0,0-6.654.054,12.973,12.973,0,0,0,1.385-1.294A13.364,13.364,0,0,0,55.9,32.364a13.1,13.1,0,0,0,.7-2.1,2.649,2.649,0,0,0,0-2.01c-.444-.706-1.473-.57-2.188-.549a17.567,17.567,0,0,0-2.611.276,16.942,16.942,0,0,0-2.852.8q-.7.258-1.366.579a5.242,5.242,0,0,0-1.309.755c-.325-.5-.656-1-1-1.478a7.132,7.132,0,0,0-1.534-1.646,2.917,2.917,0,0,0-1.987-.606,3.863,3.863,0,0,0-2.077,1.066A18.373,18.373,0,0,0,36.2,31.518a19.2,19.2,0,0,0-1.268,2.353c-.132.293-.262.592-.38.9a41.839,41.839,0,0,1,.639-6.55c.242-1.579.486-3.168.593-4.763l.03-.1.1-.037A7.822,7.822,0,0,1,37.724,22.2c.666-.288,1.36-.5,2.04-.747a13.044,13.044,0,0,0,3.8-2.183A13.258,13.258,0,0,0,48.4,8.848a9.4,9.4,0,0,0-.234-2.268c0-.087.014-.173.016-.26,0-.233-.222-.491-.474-.355-4.973,2.669-9.436,7.062-11.3,12.481a16.016,16.016,0,0,0-.6,2.246l0,.019c-.011-.175-.017-.35-.034-.525-.018-.2-.046-.393-.071-.589l.015-.268c.063-1.071.094-2.143.071-3.216A19.981,19.981,0,0,0,34.9,10.4a13.066,13.066,0,0,0-2.638-4.717,16.466,16.466,0,0,0-4.01-3.18A36.292,36.292,0,0,0,22.912.01a.157.157,0,0,0-.182.24l0,0L22.7.294a.3.3,0,0,0-.24.362c.6,3.309,1.237,6.712,3.117,9.569a10.989,10.989,0,0,0,3.262,3.228,38.892,38.892,0,0,1,4.146,2.576,5.777,5.777,0,0,1,1.838,2.578c.063.317.118.636.163.957a25.432,25.432,0,0,0-.139,2.814c-.024,1.416-.089,2.842-.21,4.251-.03.353-.068.705-.109,1.057l0-.057a13.7,13.7,0,0,0-.651-3.039,13.847,13.847,0,0,0-3.244-5.315,14.059,14.059,0,0,0-1.272-1.153,5.062,5.062,0,0,0-1.487-.913l-.055,0-.029-.1c-.039-.116-.163-.088-.216-.009-.093-.057-.222.078-.14.166.044.046.085.095.128.142a18.142,18.142,0,0,0,.421,2.675,21.744,21.744,0,0,0,.743,2.776,17.067,17.067,0,0,0,2.848,4.982c.652.823,1.344,1.615,2.047,2.394.015.1.033.206.046.31q.135,1.032.174,2.074c.013.352.015.7.013,1.056a6.373,6.373,0,0,0,.078,1.061.221.221,0,0,0,.172.168c.014.175.034.349.054.524a15.112,15.112,0,0,0-6.36-6.6c-1.317-.729-3.425-1.572-4.551-.062a3.849,3.849,0,0,0-.555,2.391,21.375,21.375,0,0,0,2.223,9.139l-.01-.01a26.247,26.247,0,0,0-2.22-1.779,25.638,25.638,0,0,0-4.936-2.753,3.042,3.042,0,0,0-2.513-.242,2.066,2.066,0,0,0-1.02,1.8,8.047,8.047,0,0,0,.359,2.486,17.135,17.135,0,0,0,.884,2.555,18.353,18.353,0,0,0,7.379,8.181c3.368,2.076,7.112,3.459,10.452,5.582q.544.346,1.076.728a31.705,31.705,0,0,0-6.624-2.208q-3.256-.805-6.465-1.753c-4.466-3.4-9.1-6.858-14.6-8.343a14.192,14.192,0,0,0-4.517-.594l-.055.028c-.088-.071-.221.042-.188.155s.075.226.114.339l0,.1.048.047a12.48,12.48,0,0,0,1.912,3.232,16.924,16.924,0,0,0,3.04,3.015,16.684,16.684,0,0,0,8.49,3.342,17.02,17.02,0,0,0,5.447-.341.355.355,0,0,0,.279-.362l.025-.014q2.251.685,4.525,1.284c1.292.339,2.6.656,3.89,1.025a16.512,16.512,0,0,0-3.962.2,24.155,24.155,0,0,0-4.8,1.353.251.251,0,0,0-.3.081C14.8,55.592,9.773,60.175,4.9,62.562A14.786,14.786,0,0,1,.28,64.049a.332.332,0,0,0-.151.587,5.148,5.148,0,0,0,.889.434,11.179,11.179,0,0,0,1.634.693,14.031,14.031,0,0,0,2.405.6,15.318,15.318,0,0,0,5.1-.05,15.646,15.646,0,0,0,9.7-6.244,9.229,9.229,0,0,0,1.241-2.124,26.181,26.181,0,0,1,3.46-1.1A19.757,19.757,0,0,1,31.86,56.5a19.822,19.822,0,0,1,2.231.961A12.493,12.493,0,0,1,37.428,59.9a9.806,9.806,0,0,1,1.267,1.621c.031.049.057.1.087.151.091.259.183.518.272.777a14.988,14.988,0,0,0,.712,1.875.237.237,0,0,0,.194.129c.139.582.259,1.168.355,1.758.1.613.2,1.222.257,1.842a.092.092,0,0,0,.1.088c.259,1.318.588,2.625.941,3.913a42.609,42.609,0,0,0-2.372-4.86,15.107,15.107,0,0,0-3.34-4.186,4.739,4.739,0,0,0-2.3-1.171,1.956,1.956,0,0,0-2.011.967,5.357,5.357,0,0,0-.5,2.371c-.033.535-.046,1.07-.05,1.6a3.927,3.927,0,0,0-.515-.624,4.665,4.665,0,0,0-3-1.292,12.539,12.539,0,0,0-4.13.643q-2.108.575-4.211,1.161c-1.365.378-2.742.727-4.1,1.143A5.177,5.177,0,0,0,12.324,69.5a5.659,5.659,0,0,0-.809,3.475,13.389,13.389,0,0,0,.506,3.446,13.841,13.841,0,0,0,3.972,6.448q-.543.208-1.082.424c-1.224.492-2.465.977-3.654,1.549a4.349,4.349,0,0,0-2.377,2.216c-.853,2.284.953,4.789,2.486,6.316a16.532,16.532,0,0,0,3.849,2.805l0,0,0,0A21.186,21.186,0,0,0,17.5,97.234a22.006,22.006,0,0,0,10.821,1.315,26.573,26.573,0,0,0-10.23,9.021c-.786,1.189-1.695,2.755-1.193,4.23.57,1.671,2.653,1.588,4.088,1.536a19.348,19.348,0,0,0,10.047-3.295c3.057-2.062,5.273-5.37,8.692-6.893a16.318,16.318,0,0,0,5.755-1.346A15.238,15.238,0,0,0,49.8,98.921a3.269,3.269,0,0,0,.309-.235.184.184,0,0,0,.06-.115,16.07,16.07,0,0,0,2.258-2.848c1.1.463,2.238.843,3.369,1.235a1.926,1.926,0,0,0,.451.306c.285.164.577.316.871.461.2.1.411.185.619.271-.409.07-.817.161-1.22.267a28,28,0,0,0-4.909,1.425,48.287,48.287,0,0,0-9.068,4.851q-.8.526-1.582,1.069a44.625,44.625,0,0,0-10.072,5.228,64.893,64.893,0,0,1-10.62,5.993,24.972,24.972,0,0,1-4.78,1.384c-.555.033-1.111.05-1.668.038a.177.177,0,0,0-.161.257.116.116,0,0,0-.065.164c-.155.06-.065.289.089.279,1.131-.076,2.251-.14,3.385-.1s2.249.151,3.371.256a24.148,24.148,0,0,0,6.61.017c4.308-.794,7.191-4.149,9.727-7.453.988-1.287,1.973-2.592,3.074-3.785A19.866,19.866,0,0,0,38.259,115a6.751,6.751,0,0,0-1.432.911q-.738.526-1.433,1.107a21.483,21.483,0,0,0-2.547,2.508,20.876,20.876,0,0,0-2.14,2.982c-.657,1.111-1.136,2.317-1.8,3.422a6.063,6.063,0,0,1-1.39,1.661,5,5,0,0,1-1.9.85.12.12,0,0,0-.008.235.222.222,0,0,0,.182.32c.121.015.243.022.364.032l.009.006a15.562,15.562,0,0,0,2.545.147,19.955,19.955,0,0,0,2.482-.147,11.07,11.07,0,0,0,4.016-1.255,7.489,7.489,0,0,0,2.9-2.847,9.882,9.882,0,0,0,1.166-4.015,18.61,18.61,0,0,0,0-2.855,20.221,20.221,0,0,0-.312-2.928.316.316,0,0,0-.123-.195c.092-1.143.193-2.285.4-3.414a12.012,12.012,0,0,1,1.928-4.947l.012-.01a83.1,83.1,0,0,1,7.835-4.606,39.8,39.8,0,0,1,6.2-2.539c.171-.04.34-.088.512-.125a24.06,24.06,0,0,1,4.417-.519c.156.038.313.063.47.1.154.068.31.132.463.2.276.13.556.251.835.374a27.26,27.26,0,0,0-10.373,2.893,29.061,29.061,0,0,0-5.135,3.232c-1.358,1.072-3.123,2.614-2.553,4.56.518,1.771,2.626,2.635,4.144,3.339A33.4,33.4,0,0,0,54.06,115.6a32.863,32.863,0,0,0,4.868.814,15.526,15.526,0,0,0-1.948,4.331,17.279,17.279,0,0,0-.653,5.587,17.489,17.489,0,0,0,2.421,8.077,7.526,7.526,0,0,0,1.6,2.1c1.6,1.286,3.543.017,4.974-.892a27.586,27.586,0,0,0,4.224-3.312,30.608,30.608,0,0,0,3.026-3.354,7.571,7.571,0,0,0,.815,3.065,24.678,24.678,0,0,0,2.778,4.786,22.885,22.885,0,0,0,3.768,4.064,4.67,4.67,0,0,0,2.444,1.18,3.819,3.819,0,0,0,2.445-.693c2.933-1.927,3.659-5.88,3.622-9.13a30.527,30.527,0,0,0-.923-6.976,18.274,18.274,0,0,0,6.255.119,26.261,26.261,0,0,0,6.21-1.662,32.63,32.63,0,0,0,4.979-2.542,15.9,15.9,0,0,0,1.8-1.082,14.87,14.87,0,0,0,1.25-.994,11.373,11.373,0,0,0,1.993-1.828,4.4,4.4,0,0,0,1.059-2.325,3.172,3.172,0,0,0-.039-.839.277.277,0,0,0-.065-.294,3.949,3.949,0,0,0-.659-1.335,8.1,8.1,0,0,0-2.044-1.806,19.3,19.3,0,0,0-2.6-1.452,24.209,24.209,0,0,0-11.883-1.985,33.747,33.747,0,0,0-6.463,1.137c-.679.185-1.352.393-2.02.611,1.8-1.068,3.636-2.086,5.532-2.986a42.342,42.342,0,0,1,10.369-3.473,31.194,31.194,0,0,1,9.156-.332,16.7,16.7,0,0,1,5.754,4.747.141.141,0,0,0-.023.132c.908,2.838.3,5.807.053,8.7a15.288,15.288,0,0,0,.124,4.258,14.235,14.235,0,0,0,1.471,3.936,41.152,41.152,0,0,0,2.634,4.117c.226.324.643,0,.549-.325-.913-3.1.544-6.256,1.16-9.26a10.168,10.168,0,0,0,.045-4.59,9.52,9.52,0,0,0-1.806-3.479,23.1,23.1,0,0,0-3.25-3.211l-.108-.06a15.692,15.692,0,0,0-2.193-2.5,14.96,14.96,0,0,0-3.391-2.333c.31.045.62.087.93.141a45.252,45.252,0,0,1,9.782,2.991,17.726,17.726,0,0,1,2.908,2.906,27.259,27.259,0,0,1,2.8,4.713,20.781,20.781,0,0,0,2.719,4.412,9.048,9.048,0,0,0,4.624,2.834,15.063,15.063,0,0,0,6.188.114c1.094-.178,2.175-.425,3.253-.683.395-.094,1.044-.128,1.176-.6a.628.628,0,0,0-.154-.572,16.243,16.243,0,0,0-2.131-4.1,18.259,18.259,0,0,0-12.639-7.693c-1.618-.231-3.273-.315-4.9-.531-.457-.22-.91-.448-1.371-.66-1.539-.707-3.106-1.361-4.7-1.944a12.359,12.359,0,0,0,3.574-1.1c.57-.2,1.136-.435,1.694-.687m4.664-3.445a23.53,23.53,0,0,1,5.651-3.259,15.335,15.335,0,0,1,6.813-.719,22.549,22.549,0,0,1,4.9,1.116,30.092,30.092,0,0,0-3.736-.14,30.52,30.52,0,0,0-6.592.861,30.865,30.865,0,0,0-6.29,2.266c-1.124.55-2.221,1.156-3.326,1.743.876-.615,1.732-1.254,2.582-1.869m-.335,1.258a32.9,32.9,0,0,1,6.34-2.549,31.6,31.6,0,0,1,6.561-1.07,37.128,37.128,0,0,1,6.909.361,16.92,16.92,0,0,1-7.94,3.742c-3.54.623-7.135.032-10.7.219a16.3,16.3,0,0,0-3.542.534c.805-.412,1.6-.836,2.371-1.237m-.659-6.691a10.4,10.4,0,0,1-3.26,3.344,11.251,11.251,0,0,1-5.079,1.515,35.5,35.5,0,0,1-5.733-.227c1.273-.352,2.556-.677,3.821-1.019a26.933,26.933,0,0,0,6.37-2.427,13.755,13.755,0,0,0,4.758-4.411,14.455,14.455,0,0,0,1.229-2.323,16.606,16.606,0,0,1-2.105,5.548m-8.077-1.819c2.823-1.7,6.266-2.344,8.771-4.566a8.168,8.168,0,0,0,1.421-1.637,12.941,12.941,0,0,1-6.06,8.466c-3.121,1.881-6.723,2.605-10.208,3.585a18.788,18.788,0,0,1,6.077-5.848M71.771,65.967A17.809,17.809,0,0,1,74.4,64.023c-1.892,4.591-5.365,8.269-8.25,12.237-.115.158-.228.319-.342.48a18.636,18.636,0,0,1,5.96-10.773m-1.109,5.056a31.042,31.042,0,0,0,3.989-7.033l0-.044a9.707,9.707,0,0,1-.935,6.891c-1.274,2.322-3.527,3.713-5.664,5.147A21.673,21.673,0,0,0,65.786,77.7c1.522-2.293,3.274-4.454,4.875-6.674m-9.846-8.38a12.857,12.857,0,0,1,2.206,4.971,13.216,13.216,0,0,1-.133,5.9A26.549,26.549,0,0,1,60.7,78.658c-.328.659-.663,1.337-.953,2.031.155-1.473.3-2.947.391-4.426A42.068,42.068,0,0,0,58.918,63.29,30.825,30.825,0,0,0,57.767,59.6a15.362,15.362,0,0,1,3.048,3.041m-3.5,12.338c.112-3.479.81-6.918.774-10.4a22.576,22.576,0,0,0-.159-2.588c.113.384.221.769.322,1.157q.535,2.055.864,4.155a42.627,42.627,0,0,1,.488,8.516c-.114,2.523-.434,5.053-.639,7.581a16.134,16.134,0,0,1-1.65-8.417M36.91,19.058a17.619,17.619,0,0,1,1.639-3.625A23.474,23.474,0,0,1,44,9.228a25.5,25.5,0,0,1,3.451-2.341c-.313,2.828-2.262,5.163-4.317,7.018C40.818,16,38.17,17.86,36.523,20.576a14.838,14.838,0,0,1,.387-1.518m-.621,3.027c2.089-4.522,7.7-6.968,10.37-11.163a10.473,10.473,0,0,0,1.08-2.207,12.776,12.776,0,0,1-.163,2.335,12.55,12.55,0,0,1-1.592,4.426,12.971,12.971,0,0,1-6.366,5.385c-.733.288-1.493.516-2.206.854a5.2,5.2,0,0,0-1.169.725c.014-.119.034-.236.047-.354M30.5,13.657A12.678,12.678,0,0,1,26.761,10.7a13.976,13.976,0,0,1-2.214-4.134A34.583,34.583,0,0,1,23.26,1.25c.687.776,1.457,1.491,2.177,2.228Q26.8,4.874,28.1,6.336a34.2,34.2,0,0,1,4.482,6.232,22.875,22.875,0,0,1,1.684,3.913A12.469,12.469,0,0,0,30.5,13.657M29.389,6.6c-.957-1.153-1.976-2.252-3.02-3.328C25.579,2.456,24.782,1.6,23.918.843c2.68,1.291,5.42,2.618,7.49,4.791,2.538,2.664,3.484,6.29,3.651,9.882.018.387.024.774.026,1.162A28.787,28.787,0,0,0,29.389,6.6m.466,17.547A17.208,17.208,0,0,1,28.607,20.7c-.236-.916-.373-1.869-.6-2.791A23.854,23.854,0,0,1,33.4,28.984a23.005,23.005,0,0,1-3.546-4.838m3.794,3.088a22.825,22.825,0,0,0-3.277-6.862,22.076,22.076,0,0,0-1.839-2.289c.105.078.21.157.311.24a14.573,14.573,0,0,1,1.117.994A13.342,13.342,0,0,1,31.8,21.657a13.649,13.649,0,0,1,1.98,5.6c.029.247.049.5.066.743-.063-.257-.121-.515-.194-.77M2.311,44.306a32.641,32.641,0,0,1,3.83.652,23.887,23.887,0,0,1,3.867,1.365,39.7,39.7,0,0,1,7.069,4.3c.743.541,1.476,1.1,2.2,1.657-3.1-.971-6.17-2.054-9.192-3.279a25.615,25.615,0,0,1-7.449-4.136l-.33-.557M11.627,52.7A16.17,16.17,0,0,1,4.72,47.917a18.842,18.842,0,0,1-1.675-2.389,21.969,21.969,0,0,0,5.564,3.338c2.754,1.21,5.577,2.282,8.423,3.257,1.143.392,2.295.763,3.449,1.122a16.306,16.306,0,0,1-8.854-.547M1.38,64.525C6.607,63.4,10.5,59.042,15.738,57.9a9.551,9.551,0,0,1,4.016-.073c-.137.058-.275.116-.411.175-4.175,1.838-8.014,4.4-12.291,6.016-1.751.662-3.861,1.167-5.673.506m18.107-5.1a14.964,14.964,0,0,1-1.3,1.715A14.44,14.44,0,0,1,5.776,65.9a16.066,16.066,0,0,1-2.365-.442,10.021,10.021,0,0,0,2.409-.374,32.279,32.279,0,0,0,6.094-2.606c2.7-1.392,5.373-2.93,8.178-4.125-.191.361-.381.725-.6,1.069M49.741,98.189a6.308,6.308,0,0,0-.477-1.581,12.391,12.391,0,0,0-.923-1.868,12.571,12.571,0,0,0-1.248-1.726c-.226-.263-.466-.513-.711-.759-.1-.1-.22-.251-.351-.372a10.067,10.067,0,0,0,2.09-1.64,11.431,11.431,0,0,1,1.573,4.026,14.608,14.608,0,0,1,.076,3.89l-.029.029m-.312.308a33.921,33.921,0,0,1-6.5.457,22.8,22.8,0,0,1-6.074-.809,8.816,8.816,0,0,1-2.507-1.213.4.4,0,0,0,.036-.147,7.908,7.908,0,0,1,1.18-.922c2-1.271,4.392-1.734,6.634-2.387a17.3,17.3,0,0,0,3.348-1.323,5.4,5.4,0,0,0,.42.37,9.628,9.628,0,0,1,.751.78,12.478,12.478,0,0,1,2.147,3.475c.222.541.348,1.148.61,1.672l-.049.046M32.361,62.8a28.021,28.021,0,0,1,3.747,5.087,42.7,42.7,0,0,1,2.667,5.771c1.47,3.789,2.695,7.711,4.75,11.24a20.552,20.552,0,0,0,3.06,4.08,2.258,2.258,0,0,1-.6.6A21.96,21.96,0,0,1,38.95,82.49,48.743,48.743,0,0,1,33.8,70.374a26.237,26.237,0,0,1-1.621-7.335,1.469,1.469,0,0,1,.186-.237m14.325.668a14.15,14.15,0,0,1,3.775,5.888,24.237,24.237,0,0,1,1.173,7.867c.013,1.474-.072,2.945-.091,4.418a14.147,14.147,0,0,0-2.29,2.84c-.021.034-.041.071-.062.107.015-.134.03-.268.045-.4a42.794,42.794,0,0,0,.224-4.968,47.184,47.184,0,0,0-1.251-9.993,42.722,42.722,0,0,0-1.625-5.454.257.257,0,0,0-.166-.164,1.225,1.225,0,0,1,.268-.138m-.648.538a41.142,41.142,0,0,1,2.615,9.536,43.64,43.64,0,0,1,.3,9.959c-.042.494-.1.986-.162,1.476-.07.052-.14.1-.214.151a2.955,2.955,0,0,1-.844-.086c-.148-.475-.286-.954-.4-1.441a36.4,36.4,0,0,1-.749-4.428c-.356-3.145-.38-6.314-.463-9.475a44.443,44.443,0,0,0-.341-5.289,2.461,2.461,0,0,1,.257-.435.311.311,0,0,0,.006.031m4.01,30.155a12.462,12.462,0,0,0-1.64-4.238,10.234,10.234,0,0,0,1.243-1.738,6.459,6.459,0,0,0,.382,1.014,11.871,11.871,0,0,1,.4,1.26,13.1,13.1,0,0,1,.35,2.431,16.731,16.731,0,0,1-.5,4.717c-.039.043-.075.088-.114.131a10.872,10.872,0,0,0-.123-3.577M51.121,92.9a16.8,16.8,0,0,0-.379-2.6c-.084-.388-.182-.775-.289-1.157a3.285,3.285,0,0,0-.483-1.213.185.185,0,0,0-.148-.062c.042-.08.088-.158.128-.238a12.122,12.122,0,0,0,.949-3.1,3.523,3.523,0,0,1,.629-1.622,1.668,1.668,0,0,1,.5-.406c.211.964.456,1.907.584,2.89a19.212,19.212,0,0,1,.164,3.1,21.915,21.915,0,0,1-1.907,8.122,14.114,14.114,0,0,0,.248-3.72m-2.93-29.1a6.543,6.543,0,0,1,1.457,1.742A20.117,20.117,0,0,1,50.814,67.6a21.437,21.437,0,0,1,1.6,4.411,21.8,21.8,0,0,1,.625,5.185,25.77,25.77,0,0,1-.4,4.1,3.463,3.463,0,0,0-.444.182.41.41,0,0,0-.087-.061c.055-1.231.056-2.472.033-3.7a34.481,34.481,0,0,0-.328-4.365,18.75,18.75,0,0,0-2.344-7A10.98,10.98,0,0,0,46.985,63.4a1.782,1.782,0,0,1,1.206.4m-3.435,6.258a27.255,27.255,0,0,1,.727-4.825c.025-.091.055-.184.084-.278.055,1.407.127,2.814.158,4.222.035,1.646.039,3.292.07,4.939a46.845,46.845,0,0,0,.883,9.165c.108.492.232.984.365,1.473a2.607,2.607,0,0,1-.635-.525c-.047-.055-.088-.112-.129-.169a37.625,37.625,0,0,1-1.523-14m3.367-18.7a3.514,3.514,0,0,1-.465,1.1c-.264.483-.536.962-.811,1.439-.513.891-1.039,1.775-1.53,2.678a27.133,27.133,0,0,0-2.355,5.556,25.906,25.906,0,0,0-.9,9.253q-.3-1.125-.555-2.262a23.563,23.563,0,0,1,3.3-14.06A24.514,24.514,0,0,1,48,50.96a.319.319,0,0,0,.057-.092.686.686,0,0,1,.07.492M60.538,39.083c.185.573-.26,1.161-.606,1.572a16.165,16.165,0,0,1-1.217,1.287c-3.461,3.3-7.932,5.181-11.749,8-.366.27-.715.558-1.066.844a32.588,32.588,0,0,1,2.985-2.721c2.482-1.987,5.364-3.507,7.6-5.788a11.69,11.69,0,0,0,2.64-4c.105.023.213.038.317.065.419.108.947.3,1.093.751M14.87,37.6a1.9,1.9,0,0,1,.359-1.295c.477,2.007,2.179,3.613,3.581,5.013,1.7,1.7,3.478,3.337,5.279,4.935,3.262,2.894,6.64,5.672,9.757,8.726-1.433-1.085-2.935-2.078-4.453-3.04-1.98-1.254-4-2.447-5.929-3.772a32.313,32.313,0,0,1-5.415-4.443A14.1,14.1,0,0,1,15.84,40.7a9.337,9.337,0,0,1-.97-3.107m11.943,4.722-.027-.031a22.779,22.779,0,0,1-.222-6.726c.007-.068.017-.141.026-.211,0,.168,0,.335,0,.5a12.991,12.991,0,0,0,.523,3.232,22.367,22.367,0,0,0,2.866,5.927c1.25,1.932,2.658,3.756,3.907,5.689a32.9,32.9,0,0,1,2.467,4.556c-.161-.227-.323-.453-.492-.674a54.482,54.482,0,0,0-5.029-5.267,18.576,18.576,0,0,1-2.347-2.773,11.371,11.371,0,0,1-1.524-3.465c-.05-.2-.091-.4-.134-.593a.143.143,0,0,0-.016-.16m.845-9.09a56.891,56.891,0,0,1,3.14,5.057,52.823,52.823,0,0,1,2.577,5.752c1.561,4.069,3,8.188,4.475,12.289.5,1.376.975,2.753,1.406,4.146-.087-.157-.185-.306-.283-.456-.258-.626-.545-1.241-.854-1.844-.052-.131-.1-.263-.153-.393-.43-1.056-.931-2.083-1.429-3.109s-1.03-2.034-1.611-3.014c-2.306-3.885-5.569-7.242-7.15-11.534a14.036,14.036,0,0,1-.838-3.6,10.766,10.766,0,0,1-.01-1.829c.023-.291.068-.576.119-.861a1.552,1.552,0,0,1,.613-.6m2.6.6A43.081,43.081,0,0,1,35.8,44.217a62.639,62.639,0,0,1,3.064,12.165c.125.8.231,1.592.329,2.39-.205-.549-.413-1.1-.618-1.644-.784-2.1-1.546-4.208-2.342-6.3-1.542-4.053-2.949-8.163-4.878-12.056a30.684,30.684,0,0,0-3.478-5.616,1.308,1.308,0,0,1,.161-.055,3.111,3.111,0,0,1,2.175.6.233.233,0,0,0,.045.132M39.359,61c-.008-.022-.017-.042-.025-.063a.224.224,0,0,0,.047-.05c.03.1.057.2.087.305-.035-.061-.068-.124-.1-.184Zm.386-.713c-.115-1.1-.253-2.193-.407-3.283-.3-2.144-.687-4.277-1.186-6.385a52.373,52.373,0,0,0-4.032-11.4A39.952,39.952,0,0,0,31.3,34.457a22.353,22.353,0,0,1,7.814,11.18,35.616,35.616,0,0,1,1.012,15.8c-.124-.382-.249-.763-.383-1.142m7.887-26.438q.236.491.441.993c.616,5.822-2.833,11.112-5.116,16.214-.387.864-.754,1.748-1.067,2.648,0-.1.009-.194.008-.29a12.468,12.468,0,0,0-.189-2.073,30.43,30.43,0,0,1,.9-4.412,32.739,32.739,0,0,1,1.719-4.721c.715-1.575,1.6-3.065,2.295-4.652a12.741,12.741,0,0,0,.855-2.662c.062-.324.124-.683.157-1.047M43.084,51.489c.608-1.347,1.321-2.653,1.993-3.97a34.5,34.5,0,0,0,3.283-8.213,15.036,15.036,0,0,0,.339-2.574,10.191,10.191,0,0,1,.311,3.133c-.206,3.267-2.036,6.146-3.808,8.791a37.862,37.862,0,0,0-3,5.047c.269-.746.554-1.486.883-2.214m6.627-12.614a.418.418,0,0,0,.171-.023,17.348,17.348,0,0,1,2-.55,8.171,8.171,0,0,1-.667,3.308,15.931,15.931,0,0,1-1.95,3.273c-1.23,1.646-2.669,3.128-3.927,4.751l.235-.344c1.883-2.757,3.837-5.756,4.114-9.175a10.151,10.151,0,0,0,.023-1.241M42.531,54.218c.321-.659.69-1.3,1.073-1.928-.194.374-.366.758-.524,1.149q-.289.378-.55.779M58.593,38.16c-.967,2.857-3.417,4.936-5.786,6.653-1.315.953-2.678,1.837-3.953,2.846-.756.6-1.481,1.236-2.18,1.9.082-.089.159-.185.246-.271.476-.475,1-.9,1.462-1.387.508-.533,1.076-1,1.616-1.5q.759-.7,1.494-1.436a27.605,27.605,0,0,0,2.648-3.011,17.784,17.784,0,0,0,2.185-3.936.165.165,0,0,0,.011-.083c.422.018.843.044,1.263.091.33.037.663.081.993.135m-2.6-.237a17.959,17.959,0,0,1-4.5,6.729c-.5.519-1.01,1.025-1.525,1.528-.475.464-.929.969-1.432,1.4a18.471,18.471,0,0,0-1.455,1.4c-.483.517-1.035.962-1.514,1.483a19.139,19.139,0,0,0-1.492,1.852c-.1.1-.2.194-.29.3,2.1-3.868,6.03-6.574,7.853-10.656a9.911,9.911,0,0,0,.908-3.781,17.9,17.9,0,0,1,3.448-.254m-8.418-7.58c.374-.188.755-.361,1.141-.525a16.9,16.9,0,0,1,2.268-.781,19.412,19.412,0,0,1,2.407-.483q.565-.075,1.135-.114a5.3,5.3,0,0,1,1.236-.026c.731.132.385,1.2.272,1.686a12.2,12.2,0,0,1-.641,1.947,13.139,13.139,0,0,1-2.155,3.463,14.991,14.991,0,0,1-2.464,2.219q-.568.152-1.126.339A13.814,13.814,0,0,0,48.548,34.2s0-.009-.007-.013a25.539,25.539,0,0,0-1.848-3.421,8.421,8.421,0,0,0,.878-.423M44.6,28.915c.465.627.895,1.284,1.318,1.939.47.727.927,1.483,1.34,2.265,0,.109,0,.217,0,.327a8.389,8.389,0,0,1-.147,1.291,12.226,12.226,0,0,1-.77,2.449c-.673,1.6-1.57,3.088-2.3,4.658a33.589,33.589,0,0,0-2.591,8.378c-.077-.279-.158-.558-.255-.837l-.042-.057q-.123-.669-.276-1.331-.141-2.038-.147-4.083a70.072,70.072,0,0,1,.756-10.831q.233-1.526.532-3.04c.188-.953.419-1.9.6-2.851a2.238,2.238,0,0,1,.462.209A5.5,5.5,0,0,1,44.6,28.915m-2.249-1.791a40.173,40.173,0,0,0-1.1,5.183c-.3,1.826-.552,3.665-.717,5.508a68.386,68.386,0,0,0-.228,7.864l-.02-.081c-.366-1.541-.71-3.088-1-4.643-.3-1.592-.552-3.2-.709-4.808a22.37,22.37,0,0,1-.119-4.7,5.95,5.95,0,0,1,1.148-2.98,6.024,6.024,0,0,1,1.481-1.147,2.012,2.012,0,0,1,1.265-.194m-6.888,7.309a17.778,17.778,0,0,1,1.054-2.078,18.467,18.467,0,0,1,1.926-2.665,13.372,13.372,0,0,0-.428,5.284A62.349,62.349,0,0,0,39.46,44.6a24.326,24.326,0,0,0-4.82-7.986l0-.026-.011-.029c.328-.688.54-1.422.842-2.123m-11.674.711a20.384,20.384,0,0,1-.418-2.756,7.944,7.944,0,0,1,.049-2.546,1.609,1.609,0,0,1,1.636-1.3,5.007,5.007,0,0,1,2.23.71,15.415,15.415,0,0,1,3.875,2.912,18.2,18.2,0,0,1,2.65,3.582c-.3-.288-.6-.571-.912-.84a14.444,14.444,0,0,0-2.951-2.058,2.863,2.863,0,0,0-2.759-.083.1.1,0,0,0-.16.025c-.017.039-.029.079-.045.118a2.212,2.212,0,0,0-.272.251,4.994,4.994,0,0,0-.858,3.015,28.859,28.859,0,0,0-.023,3.938c.011.16.034.318.052.477l-.014-.012-.038-.03-.035-.037-.008-.023a20.813,20.813,0,0,1-2-5.346m-7.51.837a8.108,8.108,0,0,1,2.511.951A25.458,25.458,0,0,1,21.257,38.3a35.064,35.064,0,0,1,4.186,3.185l.02.054a.46.46,0,0,0,.131.175.259.259,0,0,0,.174.062l.314.294a12.85,12.85,0,0,0,2.2,5.3c1.5,2.055,3.525,3.626,5.293,5.431a24.373,24.373,0,0,1,3.846,5.165c-.35-.4-.714-.786-1.07-1.151-1.7-1.744-3.493-3.394-5.311-5.014-3.652-3.254-7.5-6.291-11.033-9.677-.959-.919-1.925-1.847-2.789-2.858a9.642,9.642,0,0,1-1.818-3.11,1.292,1.292,0,0,1,.887-.171m1.109,8.57a16.371,16.371,0,0,1-1.85-3.787,13.257,13.257,0,0,0,1.424,2.174,27.584,27.584,0,0,0,5.006,4.719c3.3,2.486,6.895,4.54,10.225,6.977-2.03-1.136-4.17-2.1-6.234-3.153-3.327-1.7-6.472-3.764-8.572-6.93M40.839,64.977a21.654,21.654,0,0,1-.069-2.938c.114-.722.2-1.451.274-2.176.007-.063.011-.126.018-.19a13.283,13.283,0,0,1,3.5-6.909,9.766,9.766,0,0,1,1.9-1.475,7.841,7.841,0,0,1,.712-.389,25.261,25.261,0,0,0-6.05,16.229c-.1-.619-.193-1.241-.254-1.865-.006-.1-.014-.191-.025-.287M35.28,63.3a13.661,13.661,0,0,1,3.284,3.955,57.031,57.031,0,0,1,4.394,10.27c1.054,3.021,2.078,6.065,3.379,8.989.134.361.281.717.425,1.073,0,.006,0,.01,0,.017a4.067,4.067,0,0,0,.088.618,1.488,1.488,0,0,1-.115.475,27.576,27.576,0,0,1-5.174-8.836c-1.542-3.915-2.649-8.025-4.669-11.739a28.379,28.379,0,0,0-4.025-5.634l.009,0a2.9,2.9,0,0,1,2.406.816m-3.5,1.028a4.453,4.453,0,0,1,.15-.742,22.352,22.352,0,0,0,1.2,5.91c.647,2.221,1.317,4.438,2.125,6.607a30.285,30.285,0,0,0,6.462,10.85,19.394,19.394,0,0,0,3.668,2.939l-.139.045A4.161,4.161,0,0,1,43.53,90c-.313-.046-.624-.107-.933-.173-.123-.026-.242-.054-.36-.075a13.115,13.115,0,0,1-1.116-.9c-1.667-1.5-3.019-3.318-4.7-4.812a.2.2,0,0,0,0-.162,18.353,18.353,0,0,0-1.154-1.959,34.2,34.2,0,0,1-2.351-5.845c-.039-.491-.086-.982-.152-1.47s-.151-.984-.25-1.473a2.491,2.491,0,0,0-.5-1.292.1.1,0,0,0-.024-.012c-.1-.706-.191-1.415-.249-2.126a26.882,26.882,0,0,1,.035-5.372M31.49,81.241c.1.055.2.109.3.166-.142-.047-.286-.089-.43-.131.045-.009.088-.024.132-.035m2.225.606.01.015-.089-.059c.011-.006.024-.01.035-.017.014.02.029.04.044.061m-4.127-15.72a3.469,3.469,0,0,1,1.47,1.771v.068a32,32,0,0,0,.675,5.646c.119.562.258,1.119.406,1.674.019.17.045.339.062.51l-.015.09c0,.12.013.24.017.36-.13-.248-.256-.5-.388-.746a27.58,27.58,0,0,0-4.826-6.939,11.356,11.356,0,0,0-3.425-2.389,21.575,21.575,0,0,1,2.186-.521,5.473,5.473,0,0,1,3.838.476m-7.569.487c.383-.108.766-.219,1.15-.329a15.779,15.779,0,0,1,3.273,2.334,18.98,18.98,0,0,1,2.657,3.2A47.339,47.339,0,0,1,32.324,77.8c.013.108.02.215.035.322.006.25,0,.5-.017.745-.844-1.1-1.717-2.18-2.646-3.212a30.448,30.448,0,0,0-7.2-6,17.812,17.812,0,0,0-4.481-1.928l.107-.029c1.3-.361,2.6-.719,3.9-1.084m-7.394,2.113a28.472,28.472,0,0,1,3.109-.925.077.077,0,0,0,.048.051,24.452,24.452,0,0,1,4.19,1.868,24.2,24.2,0,0,1,3.689,2.651,43.806,43.806,0,0,1,6.465,7.252l.055.077a1.145,1.145,0,0,1-.792.763,29.144,29.144,0,0,0-4.64-1.9c-1.924-.611-3.89-1.075-5.859-1.513a17,17,0,0,1-5.466-1.874,6.217,6.217,0,0,1-3-4.242c.01-.038.018-.076.03-.113a3.359,3.359,0,0,1,2.169-2.1m-1.6,8.473a12.962,12.962,0,0,1-.728-3.1,10.255,10.255,0,0,1-.028-2.4,6.02,6.02,0,0,0,2.022,3.2,11.972,11.972,0,0,0,4.965,2.272c1.977.509,3.977.915,5.936,1.5a32.349,32.349,0,0,1,5.478,2.126,9.769,9.769,0,0,1-1.041-.015c-.174-.008-.349,0-.523,0a20.138,20.138,0,0,0-6.3.11,34.506,34.506,0,0,0-6.085,1.7l-.066-.086a13.033,13.033,0,0,1-3.633-5.3m-1.663,8.388c1.128-.57,2.326-1.025,3.5-1.5A40.181,40.181,0,0,1,22.5,81.675c4.392-.829,9.165-.386,12.8,2.349.027.025.047.056.076.08l.065.032c.16.124.321.246.476.379,1.476,1.268,2.7,2.789,4.1,4.138a.149.149,0,0,0,.072.111,2.62,2.62,0,0,1,.247.188l.006.006a2.812,2.812,0,0,1,.918,1.576c-1.163-.321-2.308-.706-3.441-1.12-2.481-.907-4.909-1.949-7.381-2.879-4.6-1.732-9.538-3.1-14.479-2.2a13.253,13.253,0,0,0-6.369,2.923,3.558,3.558,0,0,1,1.774-1.669M9.4,88.032a2.469,2.469,0,0,1,.048-.3.141.141,0,0,0,.072-.031c3.529-2.894,8.326-3.562,12.727-2.9,4.9.733,9.391,2.9,13.993,4.623-1.684-.429-3.381-.81-5.092-1.116a45.364,45.364,0,0,0-14.257-.618,28.41,28.41,0,0,0-7.253,1.88A3.773,3.773,0,0,1,9.4,88.032M9.724,89.8a32.557,32.557,0,0,1,6.513-1.673,39.148,39.148,0,0,1,7.05-.3,64.478,64.478,0,0,1,14.373,2.615c1.178.328,2.354.678,3.544.951a.638.638,0,0,0-.026.063,1,1,0,0,0-.022.425,2.574,2.574,0,0,1-.209.412c-2.834-.132-5.716-.961-8.44-1.389a54.885,54.885,0,0,0-13.754-.4,52.857,52.857,0,0,0-7.694,1.311.332.332,0,0,0-.084.04c-.145-.183-.289-.368-.422-.561A7.947,7.947,0,0,1,9.724,89.8m1.715,2.6a55.543,55.543,0,0,1,13.59-1.582,54.831,54.831,0,0,1,6.93.511c2.329.322,4.618.888,6.95,1.193.385.05.772.087,1.159.116-2.823.326-5.631.762-8.416,1.329-1.768.36-3.518.791-5.268,1.233a41.5,41.5,0,0,1-5.21,1.063,17.911,17.911,0,0,1-4.021.052,18.047,18.047,0,0,1-4.185-2.471A13,13,0,0,1,11.438,92.4m7.854,4.7c-.371-.114-.739-.242-1.106-.376a25.252,25.252,0,0,0,7.4-.9c1.774-.422,3.541-.872,5.327-1.242s3.584-.677,5.39-.928q1.8-.251,3.608-.416l-.3.131a20.41,20.41,0,0,0-3.4,1.225,9.516,9.516,0,0,0-2.639,1.879.333.333,0,0,0-.207.014,21.162,21.162,0,0,1-14.079.609m-1.029,11.483a25.5,25.5,0,0,1,6.322-6.913A26,26,0,0,1,31.829,97.8c-1.929,1.3-3.785,2.71-5.585,4.175a78.906,78.906,0,0,0-6.048,5.449c-.929.931-1.816,1.9-2.672,2.891a6.025,6.025,0,0,1,.739-1.739m-.807,2.168c1.858-1.877,3.736-3.739,5.712-5.492a76.428,76.428,0,0,1,6.277-4.993c.922-.659,1.865-1.286,2.811-1.908a5.911,5.911,0,0,0-.445,1.3c-.008.039-.012.079-.019.118-.22.409-.445.816-.683,1.214a25.758,25.758,0,0,1-2.468,3.461,25.655,25.655,0,0,1-6.489,5.438,32.492,32.492,0,0,1-4.307,2.091c-.02.008-.026.024-.038.038a1.651,1.651,0,0,1-.35-1.268m.531,1.441a23.526,23.526,0,0,0,7.5-4.131,28.064,28.064,0,0,0,5.846-6.348c.137-.206.264-.417.4-.627.007.088.012.178.024.266a.4.4,0,0,0,.671.216.151.151,0,0,0,.064.223,15.28,15.28,0,0,0,3.959,1.178,16.881,16.881,0,0,0-5.964,3.606c-2.247,1.9-4.362,4.064-7.084,5.295a10.673,10.673,0,0,1-2.365.764c-.158.007-.316.022-.475.025a4.592,4.592,0,0,1-2.4-.344,1.56,1.56,0,0,1-.168-.123m14.245-3.9a18.8,18.8,0,0,1-9.189,4.156l-.027,0a14.809,14.809,0,0,0,3.417-1.923c2.371-1.746,4.371-3.962,6.873-5.533a11.721,11.721,0,0,1,4.5-1.748.256.256,0,0,0,.181-.108c.22.013.441.024.662.028-2.467,1.194-4.332,3.375-6.419,5.125m1.872-6.244a15.266,15.266,0,0,1-1.5-.537.137.137,0,0,0-.132.01.373.373,0,0,0,.073-.283,4.375,4.375,0,0,1,.185-1.9,10.622,10.622,0,0,0,.648-1.348,6.607,6.607,0,0,1,.641-.823l.1-.026a.3.3,0,0,0,.049-.022,9.149,9.149,0,0,0,4.779,1.933,33.286,33.286,0,0,0,6.819.319c.9-.047,1.8-.134,2.691-.251l-.07.036c-.5.24-1.019.457-1.542.651a17.918,17.918,0,0,1-3.329.878,18.709,18.709,0,0,1-6.816-.153,19.954,19.954,0,0,1-3.746-1.172c-.117-.05-.183.123-.074.179a17.872,17.872,0,0,0,13.658.872q.484-.16.958-.348c-.336.226-.679.442-1.035.639A16.307,16.307,0,0,1,34.1,102.042M51.41,96.177a19.176,19.176,0,0,0,1.407-4.141,21.722,21.722,0,0,0,.408-6.236,16.264,16.264,0,0,0-.533-3.233.167.167,0,0,0,.151-.117l.015-.047.034.008c.87.318,1.068,1.566,1.195,2.353a15.419,15.419,0,0,1-.294,6.185,15.974,15.974,0,0,1-2.383,5.228M25.1,115.011c3.547-1.995,6.859-4.381,10.444-6.31,1.042-.561,2.108-1.077,3.2-1.537-4.445,3.157-8.824,6.431-13.842,8.635a31.273,31.273,0,0,1-5.212,1.779,37.09,37.09,0,0,0,5.414-2.567m7.756.241a11.832,11.832,0,0,1-5.3,3.117,20.359,20.359,0,0,1-6.585.177c-.809-.07-1.618-.142-2.429-.193,5.093-.8,9.863-3.276,14.162-6.1,2.1-1.382,4.147-2.869,6.206-4.335-2.069,2.4-3.757,5.135-6.056,7.335M26.879,128.5a4.936,4.936,0,0,0,1.688-1.3,17.064,17.064,0,0,0,1.98-3.465,20.65,20.65,0,0,1,4.621-5.909,19.257,19.257,0,0,1,1.621-1.287c.3-.21.6-.409.907-.6.162-.1.336-.191.5-.291-.033.347-.065.692-.1,1.03a14.719,14.719,0,0,1-1.871,6.453,11.535,11.535,0,0,1-4.161,3.906,12.136,12.136,0,0,1-5.188,1.467M38.8,120.113a10.364,10.364,0,0,1-.873,4.066c-1.187,2.57-3.75,3.89-6.441,4.333a17.427,17.427,0,0,1-1.824.193,11.968,11.968,0,0,0,8.787-10.075c.072-.45.127-.9.177-1.355.017.121.036.242.049.362a17.535,17.535,0,0,1,.125,2.477m71.579-5.9a2.733,2.733,0,0,1-.054,1.12,8.377,8.377,0,0,1-.993.586,7.01,7.01,0,0,1-1.343.451,9.745,9.745,0,0,1-2.872.183,59.724,59.724,0,0,1-6.07-.843A120.432,120.432,0,0,1,87.3,113.064c-1.526-.422-3.044-.875-4.555-1.347,3.4-.034,6.8-.39,10.2-.541a42.273,42.273,0,0,1,11.7.823,23.353,23.353,0,0,1,5.747,2.209m-17.877.965c2.043.43,4.094.829,6.155,1.163a62.887,62.887,0,0,0,6.258.817,10.342,10.342,0,0,0,3.263-.246,6.406,6.406,0,0,0,1.478-.585c-.3.386-.586.783-.91,1.147a13.832,13.832,0,0,1-1.454,1.395l-.3.209-.023-.023a8.844,8.844,0,0,0-4.785-1.246c-1.86-.039-3.718.115-5.579.089a25.385,25.385,0,0,1-10.839-2.169,15.731,15.731,0,0,1-2.446-1.473c-.618-.455-1.187-.965-1.758-1.474q-.266-.349-.54-.691a110.484,110.484,0,0,0,11.476,3.086m10.064,6.346a18.277,18.277,0,0,1-5.828.789,38.773,38.773,0,0,1-5.614-.437,12.545,12.545,0,0,1-5.4-1.955,33.867,33.867,0,0,0-3.1-5.673,15.083,15.083,0,0,0,2.2,1.509,19.131,19.131,0,0,0,4.675,1.884,27.861,27.861,0,0,0,5.8.821c1.9.088,3.8,0,5.707-.045a9.961,9.961,0,0,1,5.456,1.036l-.22.153c-.494.344-1,.672-1.508.992a14,14,0,0,1-2.165.927m-42.562,13.5a15.8,15.8,0,0,1-1.222-2.077c4.431-6.208,8.866-12.639,14.913-17.4a40.15,40.15,0,0,1,4.09-2.829c-.695,1.384-1.388,2.765-2.169,4.108q-1.494,2.569-3.184,5.009A66.917,66.917,0,0,1,64.751,131c-1.472,1.47-3.019,2.861-4.587,4.229-.054-.071-.106-.142-.156-.214M92.619,82.859a2.661,2.661,0,0,1,.705,2.186,30.786,30.786,0,0,1-5.832,18.338,31.415,31.415,0,0,1-3.541,4.159q-.988.971-2.057,1.857c-.44.364-.893.71-1.346,1.058-.068,0-.136,0-.2,0l-.13-.155a46.367,46.367,0,0,0,6.149-9.617,40.6,40.6,0,0,0,3.514-11.614,42.948,42.948,0,0,0,.434-6.612,3.8,3.8,0,0,1,2.308.4m-2.643-.384a41.488,41.488,0,0,1-1.6,11.764,43.11,43.11,0,0,1-4.812,11.051,38.477,38.477,0,0,1-3.271,4.475,13.831,13.831,0,0,0,.738-1.968,30.778,30.778,0,0,0,2.467-8.147,33.473,33.473,0,0,0,.213-9.705,32.732,32.732,0,0,0-1.08-5.166,14.91,14.91,0,0,1,2.821-1.412,14.443,14.443,0,0,1,4.527-.891M78.106,89.313a14.289,14.289,0,0,1,4.138-4.3,33.6,33.6,0,0,1-.05,18.745c-.232.778-.5,1.547-.779,2.31a24.558,24.558,0,0,0-1.227-11.333,48.535,48.535,0,0,0-2.087-5.42ZM71.4,81.281c3.824,3,6,7.65,7.661,12.1a31.863,31.863,0,0,1,1.988,7.834,18.6,18.6,0,0,1-.759,7.66c-.114.357-.251.706-.4,1.051l-.055-.065c.366-4.048-.642-8.119-1.9-11.942a73.9,73.9,0,0,0-5.025-11.755,59.758,59.758,0,0,0-3.473-5.814,4.052,4.052,0,0,1,1.96.933m-3.142-.723a2.049,2.049,0,0,1,.651-.2c1.1,1.76,2.21,3.5,3.208,5.32s1.935,3.694,2.787,5.6q1.29,2.88,2.321,5.867a50.386,50.386,0,0,1,1.8,6.288,23.359,23.359,0,0,1,.5,6.047,101.342,101.342,0,0,1-7.127-9.244,38.2,38.2,0,0,1-5.312-11.284,17.364,17.364,0,0,1-.625-6.5,4.953,4.953,0,0,1,1.8-1.9m-2.165,2.5.063-.1a15.555,15.555,0,0,0,.434,5.09,33.011,33.011,0,0,0,1.971,5.9,53.432,53.432,0,0,0,6.718,11c1.358,1.781,2.773,3.519,4.19,5.252,0,.052-.012.1-.017.157a.4.4,0,0,0-.141.053c-.142,0-.283-.008-.424-.01-.443-.432-.9-.849-1.362-1.252-.8-.7-1.62-1.364-2.452-2.019-1.641-1.291-3.3-2.553-4.877-3.928-3.01-2.63-5.736-5.792-6.541-9.821a10.586,10.586,0,0,1,.7-6.546c.032-.07-.038-.116-.1-.1a26.566,26.566,0,0,1,1.836-3.672m-2.9,7.053c.01-.046.023-.092.034-.138a13.171,13.171,0,0,0,1.984,8.032c2.158,3.566,5.434,6.2,8.65,8.766.951.758,1.9,1.515,2.832,2.3.486.411.952.841,1.416,1.274a14.426,14.426,0,0,1-5.7-2.17,27.985,27.985,0,0,1-5.876-4.43,13.313,13.313,0,0,1-3.388-6.287,16.784,16.784,0,0,1,.045-7.348m-.346,9.265a.333.333,0,0,0,.084,0l.011.033c-.034,0-.067,0-.1,0a.3.3,0,0,0,.006-.039m.262.451a13.317,13.317,0,0,0,1.642,2.976,22,22,0,0,0,5.768,5.084,21.639,21.639,0,0,0,5.642,2.865,60.5,60.5,0,0,1-8.047-1.324,57.167,57.167,0,0,1-10.639-3.706,57.715,57.715,0,0,1-5.435-2.866,30.418,30.418,0,0,1,9.678-2.814c.466-.055.926-.152,1.391-.215m-11.7,3.353a54.731,54.731,0,0,0,10.306,4.89,58.164,58.164,0,0,0,11.132,2.711c1.4.194,2.815.328,4.229.4-3.429,1.165-7.164.965-10.738.7a40.4,40.4,0,0,1-6.43-.854,24.6,24.6,0,0,1-5.722-2.249c-1.031-.545-2.025-1.152-3-1.785s-1.912-1.316-2.9-1.916a.078.078,0,0,0-.05-.009,28.41,28.41,0,0,1,2.563-1.574c.2-.11.411-.21.616-.316m-6.929,5.77a4.429,4.429,0,0,1,1.561-2.186,24.139,24.139,0,0,1,2.119-1.642.069.069,0,0,0,.023.086c.821.635,1.706,1.2,2.572,1.774s1.754,1.124,2.651,1.654a24.944,24.944,0,0,0,5.634,2.537,35.956,35.956,0,0,0,6.506,1.105,55.167,55.167,0,0,0,6.272.384,17.913,17.913,0,0,0,5.854-.945q-.916.507-1.861.954a26.068,26.068,0,0,1-9.227.794c-2.352-.174-4.684-.545-7.008-.934s-4.674-.78-7.012-1.168c-2.636-.438-5.272-.876-7.915-1.271a.089.089,0,0,0-.07.018,1.945,1.945,0,0,1-.1-1.16m11.89,6.4a32.846,32.846,0,0,1-5.962-1.615c-.961-.361-1.907-.767-2.83-1.218a9.756,9.756,0,0,1-2.25-1.371,2.887,2.887,0,0,1-.655-.833c4.733.9,9.487,1.688,14.235,2.5,4.512.768,9.106,1.525,13.689.964.366-.045.73-.108,1.093-.174-.573.225-1.154.427-1.739.618l-.022.006c-.618.155-1.235.311-1.848.484-.374.105-.745.22-1.117.332-.172.038-.342.082-.514.118a32.4,32.4,0,0,1-8.649.593.217.217,0,0,0-.353-.049l-.022.029q-1.534-.118-3.056-.379m3.114,1.106a33.3,33.3,0,0,0,5.606-.054,24.83,24.83,0,0,0-4.846,2.644,15.833,15.833,0,0,0-2.818,2.55c0-.013,0-.025.008-.038a20.076,20.076,0,0,1,2.05-5.1m-2.089,5.291a.154.154,0,0,0,.244.034,19.654,19.654,0,0,1,5.423-3.932,31.342,31.342,0,0,1,4.66-1.813q1.4-.251,2.78-.62c-.936.554-1.855,1.137-2.747,1.756a45.884,45.884,0,0,0-7.525,6.542,38.428,38.428,0,0,0-3.1,3.828,16.849,16.849,0,0,1,.265-5.795m-.21,6.122A46.385,46.385,0,0,1,71.7,115.434c.771-.414,1.551-.812,2.343-1.185q.371-.146.737-.3a45.734,45.734,0,0,0-5,4.383,76.372,76.372,0,0,0-7.614,9.155c-1.22,1.691-2.377,3.425-3.532,5.16a17.14,17.14,0,0,1-1.454-4.783m13.17,2.562a28.09,28.09,0,0,1-3.755,3.4q-1.011.761-2.09,1.424a5.553,5.553,0,0,1-2.553,1.072,2.042,2.042,0,0,1-1.623-.884,64.084,64.084,0,0,0,8.269-8.052,73.454,73.454,0,0,0,7.158-9.644,59.5,59.5,0,0,0,3.028-5.38c-.037.219-.073.438-.114.657a.343.343,0,0,0-.292.265c-.317,1.326-.527,2.686-.746,4.033a33.29,33.29,0,0,1-7.28,13.108m7.328,7.251a24.861,24.861,0,0,1-3.282-4.862,16.207,16.207,0,0,1-1.145-2.6,3.83,3.83,0,0,1-.159-1.946A33.325,33.325,0,0,0,76,123.535c.379-.748.725-1.513,1.049-2.286-.029.224-.062.447-.09.671q-.526,4.281-.781,8.591c-.1,1.651-.125,3.3-.127,4.954,0,.18.275.223.285.035a154.795,154.795,0,0,1,1.771-17.086c.412-1.253.759-2.528,1.049-3.816.046.806.093,1.611.127,2.415.079,1.847.154,3.694.211,5.541q.172,5.633.172,11.27c0,1.971-.013,3.941,0,5.912-.058-.054-.119-.108-.176-.162a24.893,24.893,0,0,1-1.811-1.9m3.951,3.471a5.926,5.926,0,0,1-1.605-1.084c.2-3.729.222-7.467.211-11.2s-.076-7.5-.231-11.242c-.059-1.434-.1-2.876-.184-4.313.956,3.109,1.7,6.283,2.351,9.467.391,1.905.756,3.816,1.121,5.726.372,1.948.731,3.9.945,5.875a29.987,29.987,0,0,1,.055,6.483,2.838,2.838,0,0,1-2.663.291m2.908-.453c.607-3.834.036-7.724-.622-11.52-.678-3.91-1.369-7.826-2.282-11.689q-.394-1.666-.862-3.314c.294.8.588,1.6.875,2.4q.915,2.565,1.776,5.149t1.637,5.194a53.663,53.663,0,0,1,1.371,5.383,17.695,17.695,0,0,1,.239,5.747,8.032,8.032,0,0,1-.751,1.262,6.175,6.175,0,0,1-1.38,1.385m3.072-10.636a17.027,17.027,0,0,1-.488,6.87c.029-.4.04-.8.038-1.2a18.607,18.607,0,0,0-.2-2.627,44.642,44.642,0,0,0-1.243-5.393c-.989-3.584-2.042-7.153-3.247-10.67-.332-.968-.669-1.935-1.019-2.9-.067-.184-.136-.368-.2-.551a33.1,33.1,0,0,1,6.366,16.47m1.347-5.091c-.513-.033-1.026-.07-1.538-.115a35.15,35.15,0,0,0-1.052-3.358c-.13-.35-.269-.7-.411-1.042a10.563,10.563,0,0,0,4.218,1.823,32.857,32.857,0,0,0,5.819.63,21.777,21.777,0,0,0,5.217-.389c-.049.023-.1.049-.146.071a25.2,25.2,0,0,1-12.107,2.379m-6.726-14.086c.982-.329,1.938-.735,2.92-1.068a37.564,37.564,0,0,1,6.1-1.535,25.659,25.659,0,0,1,11.849.706,19.263,19.263,0,0,1,5.178,2.52,5.729,5.729,0,0,1,1.769,1.779,26.492,26.492,0,0,0-10.075-2.672,78.563,78.563,0,0,0-12.469.322q-2.935.226-5.875.371l.018-.006a.157.157,0,0,0,.1-.169l.324-.2c.051-.016.1-.029.153-.046m23.483-20.1a21.55,21.55,0,0,1,2.778-1.187c-.1.108-.208.216-.312.316q-.737.711-1.471,1.423-1.493,1.448-2.984,2.9-2.941,2.846-5.853,5.723-.817.811-1.631,1.627c-.252.253-.5.5-.749.764-.051.054-.1.107-.156.159a21.711,21.711,0,0,1,10.379-11.722M95.125,103.1a2.168,2.168,0,0,0,.475-.373c.253-.228.5-.462.744-.7l1.473-1.416,2.994-2.876q2.95-2.831,5.934-5.625.84-.784,1.684-1.565l.844-.781c.118-.109.241-.217.361-.327-1.924,5.178-6.463,8.819-11.043,11.642-1.143.7-2.308,1.376-3.476,2.042Zm26.3,10.839c.746,2.755-.312,5.527-.962,8.216.022-.977.023-1.954-.006-2.931a28.871,28.871,0,0,0-.7-5.786,18.663,18.663,0,0,0-1.634-4.4,10.857,10.857,0,0,1,3.3,4.9m-4.764-6.19.072.062c.11.167.226.331.329.5a21.961,21.961,0,0,1,2.691,10.441c.05,1.11.05,2.22.031,3.33a27.676,27.676,0,0,0,.008,3.041,2.482,2.482,0,0,0-.151.764,17.153,17.153,0,0,1-2.746-5.808c-.62-2.854.116-5.718.2-8.583a10.96,10.96,0,0,0-.44-3.752m13-.542a21.287,21.287,0,0,1,5.327,1.285,18.021,18.021,0,0,1,7.527,5.865,16.88,16.88,0,0,1,1.763,2.992,49.322,49.322,0,0,0-8.851-6.119q-1.309-.723-2.644-1.395c-.972-.573-1.976-1.1-2.966-1.626q-1.263-.671-2.541-1.313c.794.11,1.59.2,2.385.311m-1.412,1.363q1.6.73,3.179,1.508c.693.375,1.393.736,2.108,1.061a53.2,53.2,0,0,1,9.36,6.057q.53.44,1.045.9.268.238.531.482c.031.029.168.177.292.3l-.314.076c-.285.068-.57.136-.855.2-.51.117-1.021.228-1.534.328a16.359,16.359,0,0,1-6.046.223,8.549,8.549,0,0,1-4.67-2.417,17.778,17.778,0,0,1-2.752-4.153,34.326,34.326,0,0,0-2.583-4.438,16.3,16.3,0,0,0-1.556-1.8c1.258.572,2.539,1.1,3.794,1.674" transform="translate(0 0)" fill="#5f5c7c"/>
      <path id="Path_450887" data-name="Path 450887" d="M90.927,98.08a1.773,1.773,0,0,0-2.047-.533,1.734,1.734,0,0,0-.989,1.038c-.035.056-.067.113-.1.171a2.587,2.587,0,0,0-.387.934,1.5,1.5,0,0,0,.22,1.174,1.3,1.3,0,0,0,1,.508,1.569,1.569,0,0,0,.451-.057,1.971,1.971,0,0,0,.256-.015,2.389,2.389,0,0,0,1.678-1.086,1.823,1.823,0,0,0-.079-2.134" transform="translate(-39.154 -43.657)" fill="#dedefc"/>
      <path id="Path_450888" data-name="Path 450888" d="M92.594,105.844a1,1,0,0,0-.1-.107.944.944,0,0,0-.263-.289,1.1,1.1,0,0,0-.211-.114.286.286,0,0,0-.283-.126c-.046.008-.094.028-.142.042s-.068,0-.1,0a1.14,1.14,0,0,0-.966,1.028,1.252,1.252,0,0,0,.695,1.227,1.16,1.16,0,0,0,1.347-.3,1.081,1.081,0,0,0,.025-1.36" transform="translate(-40.566 -47.146)" fill="#dedefc"/>
      <path id="Path_450889" data-name="Path 450889" d="M87.763,107.276a1.119,1.119,0,0,0-.1-.352c-.012-.024-.031-.04-.045-.063a.8.8,0,0,0-.172-.329.951.951,0,0,0-.8-.336.762.762,0,0,0-.144.035,1.117,1.117,0,0,0-.3.065,1.09,1.09,0,0,0-.592.578.956.956,0,0,0,.087.9.933.933,0,0,0,.208.449,1.036,1.036,0,0,0,.689.351,1.091,1.091,0,0,0,.76-.217,1.2,1.2,0,0,0,.416-1.08" transform="translate(-38.329 -47.589)" fill="#dedefc"/>
      <path id="Path_450890" data-name="Path 450890" d="M96.258,102.982a.369.369,0,0,0,.027-.067.411.411,0,0,0-.007-.051c0-.012.007-.022.006-.034a.21.21,0,0,0-.015-.11c0-.012-.012-.02-.015-.031s-.009-.03-.012-.04l0,.008a.115.115,0,0,1-.008-.019v0l-.055-.092a.311.311,0,0,0-.038-.038h0a.322.322,0,0,0-.043-.041h0l-.045-.028a.264.264,0,0,0-.142-.05H95.8a.686.686,0,0,0-.106.03h0l-.092.054a.421.421,0,0,0-.129.17,1.1,1.1,0,0,0-.031.119.042.042,0,0,0,0,.012.789.789,0,0,0,0,.125l.03.106a.318.318,0,0,0,.094.132.217.217,0,0,0,.087.066.325.325,0,0,0,.159.056.486.486,0,0,0,.122,0h.012l.007,0a.589.589,0,0,0,.1-.03.278.278,0,0,0,.188-.2l.013-.023s0-.01,0-.016" transform="translate(-42.768 -45.883)" fill="#dedefc"/>
      <path id="Path_450891" data-name="Path 450891" d="M96.133,217.02a1.746,1.746,0,0,0-.951-1.039,1.924,1.924,0,0,0-.435-.135.945.945,0,0,0-.4-.237,1.283,1.283,0,0,0-1.206.365,1.655,1.655,0,0,0-.261.2,2.768,2.768,0,0,0-.435.565,2.306,2.306,0,0,0-.318.6,1.054,1.054,0,0,0-.14.485,2.172,2.172,0,0,0,.069,1.509,1.637,1.637,0,0,0,1.332.93,2.851,2.851,0,0,0,2.6-1.7,2.087,2.087,0,0,0,.147-1.546" transform="translate(-41.177 -96.604)" fill="#dedefc"/>
      <path id="Path_450892" data-name="Path 450892" d="M97.672,226.764a1.5,1.5,0,0,0-.308-.661.983.983,0,0,0-.852-1.05,1,1,0,0,0-.224.009.326.326,0,0,0-.4-.014,2.347,2.347,0,0,0-.972,1.242c-.014.026-.032.051-.045.078a4.218,4.218,0,0,0-.276.737,3.018,3.018,0,0,0-.15.8,1.31,1.31,0,0,0,1.015,1.4,1.692,1.692,0,0,0,1.63-.732,2.373,2.373,0,0,0,.58-1.811" transform="translate(-42.325 -100.825)" fill="#dedefc"/>
      <path id="Path_450893" data-name="Path 450893" d="M92.442,226.85c-.006-.03-.016-.058-.024-.087a.852.852,0,0,0-.085-.358.9.9,0,0,0-.405-.407.337.337,0,0,0-.25-.194.744.744,0,0,0-.493.12c-.023.013-.036.024-.054.036l-.017.006-.014.008.013-.008a1.282,1.282,0,0,0-.2.1,1.083,1.083,0,0,0-.447,1.025.978.978,0,0,0,.816.864,1.061,1.061,0,0,0,1-.437.927.927,0,0,0,.16-.669" transform="translate(-40.538 -101.188)" fill="#dedefc"/>
      <path id="Path_450894" data-name="Path 450894" d="M91.715,226.024l.006,0-.077.046h0c.023-.014.047-.028.071-.041" transform="translate(-41.069 -101.288)" fill="#dedefc"/>
      <path id="Path_450895" data-name="Path 450895" d="M89.138,223.782a.443.443,0,0,0-.045-.076l-.061-.06-.007,0-.013-.01-.027-.02-.054-.04a.356.356,0,0,0-.173-.071h-.1a.359.359,0,0,0-.168.072.4.4,0,0,0-.135.238.4.4,0,0,0,.073.264.358.358,0,0,0,.145.11l.065.02.031.01.016,0a.367.367,0,0,0,.189.024.33.33,0,0,0,.157-.068.367.367,0,0,0,.126-.223.333.333,0,0,0-.025-.173" transform="translate(-39.595 -100.159)" fill="#dedefc"/>
      <path id="Path_450896" data-name="Path 450896" d="M176.725,229.854a1.306,1.306,0,0,0-1.137-.865,2.325,2.325,0,0,0-1.227.3,2.448,2.448,0,0,0-.243.054,2.615,2.615,0,0,0-.568.069,1.5,1.5,0,0,0-1.068.773,1.04,1.04,0,0,0-.049.686,1.542,1.542,0,0,0,.969,1.69,1.34,1.34,0,0,0,.458.247,1.761,1.761,0,0,0,1.477-.228,2.469,2.469,0,0,0,1.3-1.271,2,2,0,0,0,.092-1.456" transform="translate(-77.257 -102.617)" fill="#dedefc"/>
      <path id="Path_450897" data-name="Path 450897" d="M178.259,238.749a2.154,2.154,0,0,0-.372-.824l0,0a.745.745,0,0,0-.5-.445.353.353,0,0,0-.193-.125.384.384,0,0,0-.368.1.243.243,0,0,0-.358.189,2.54,2.54,0,0,0,.022.357c-.008.022-.018.043-.025.065a1.545,1.545,0,0,0-.179.92,1.936,1.936,0,0,0,.168.8.915.915,0,0,0,.764.51.773.773,0,0,0,.324-.065.918.918,0,0,0,.709-.559,1.425,1.425,0,0,0,.014-.921" transform="translate(-78.995 -106.36)" fill="#dedefc"/>
      <path id="Path_450898" data-name="Path 450898" d="M173.966,237.852c0-.009,0-.017,0-.026a.317.317,0,0,0-.025-.116.927.927,0,0,0-.062-.1l-.027-.045-.106-.175a.231.231,0,0,0-.091-.076.24.24,0,0,0-.115-.041h-.083a.236.236,0,0,0-.11.042.157.157,0,0,0-.062.049.228.228,0,0,0-.067.1c-.007.027-.014.053-.021.08a.31.31,0,0,0,.023.16l.1.177.026.045a.961.961,0,0,0,.062.1.314.314,0,0,0,.089.077l.022.014a.631.631,0,0,0,.067.039q.038.012.076.02h.073a.2.2,0,0,0,.1-.037.136.136,0,0,0,.055-.042.2.2,0,0,0,.059-.086c.007-.025.014-.05.02-.076a.658.658,0,0,0,0-.081" transform="translate(-77.614 -106.329)" fill="#dedefc"/>
      <path id="Path_450899" data-name="Path 450899" d="M15.93,149.081a1.781,1.781,0,0,0-1.821-1.9,2.078,2.078,0,0,0-1.291.477,2.128,2.128,0,0,0-1,2.142,1.617,1.617,0,0,0,.323.7,1.458,1.458,0,0,0,.752.729,2.043,2.043,0,0,0,2.254-.829,2.031,2.031,0,0,0,.783-1.322" transform="translate(-5.282 -65.958)" fill="#ffe5ee"/>
      <path id="Path_450900" data-name="Path 450900" d="M12.817,157.272a.7.7,0,0,0-.3-.551.887.887,0,0,0-.7-.138,1.209,1.209,0,0,0-.9.939,1.089,1.089,0,0,0,.473,1.1,1.048,1.048,0,0,0,.7.169,1.051,1.051,0,0,0,.885-.9.968.968,0,0,0-.165-.618" transform="translate(-4.885 -70.16)" fill="#ffe5ee"/>
      <path id="Path_450901" data-name="Path 450901" d="M9.55,155.661l-.043-.073-.058-.057a.255.255,0,0,0-.079-.044l-.024-.009L9.3,155.46c-.041-.015-.086-.023-.128-.034l-.049-.012a.237.237,0,0,0-.124.012.234.234,0,0,0-.109.052l-.057.058a.235.235,0,0,0-.052.112.162.162,0,0,0-.01.084.238.238,0,0,0,.023.121l.041.07a.311.311,0,0,0,.129.1l.046.019a.437.437,0,0,0,.045.018l.047.013.024.007.05.013a.247.247,0,0,0,.127.01.343.343,0,0,0,.082-.024.236.236,0,0,0,.1-.07.243.243,0,0,0,.07-.1c.007-.027.014-.055.021-.082a.309.309,0,0,0-.023-.164" transform="translate(-3.929 -69.645)" fill="#ffe5ee"/>
      <path id="Path_450902" data-name="Path 450902" d="M28.446,187.53a4.708,4.708,0,0,0-1.163.148,4.22,4.22,0,0,0-1.651.7,3.231,3.231,0,0,0-1.131,1.311.974.974,0,0,0-.158.627.755.755,0,0,0,.545.606c.017.009.028.022.045.03a1.43,1.43,0,0,0,.965,0,3.709,3.709,0,0,0,.719-.312c.031-.013.065-.026.095-.04a2.778,2.778,0,0,0,1.2-1c.045-.051.084-.105.126-.158a.047.047,0,0,0,.01-.008,2.08,2.08,0,0,0,.517-.674.872.872,0,0,0,.031-.157,4.833,4.833,0,0,0,.21-.458.452.452,0,0,0-.36-.616" transform="translate(-10.905 -84.039)" fill="#ffe5ee"/>
      <path id="Path_450903" data-name="Path 450903" d="M28.113,195.042a.882.882,0,0,0-1.188.007,1.8,1.8,0,0,0-.368.5l-.016.031c-.013.022-.024.045-.036.069a1.831,1.831,0,0,0-.142.321,1.239,1.239,0,0,0-.016.774.97.97,0,0,0,.348.473.859.859,0,0,0,.741.134.869.869,0,0,0,.491-.367,1.581,1.581,0,0,0,.193-.438,2.243,2.243,0,0,0,.073-.369,1.511,1.511,0,0,0,.15-.454.8.8,0,0,0-.231-.683" transform="translate(-11.783 -87.304)" fill="#ffe5ee"/>
    </g>
  </g>
</svg>
