<svg xmlns="http://www.w3.org/2000/svg" xmlns:xlink="http://www.w3.org/1999/xlink" width="146.501" height="168.767" viewBox="0 0 146.501 168.767">
  <defs>
    <clipPath id="clip-path">
      <rect id="Rectangle_109813" data-name="Rectangle 109813" width="89.631" height="143.482" fill="none"/>
    </clipPath>
  </defs>
  <g id="Group_206831" data-name="Group 206831" transform="matrix(0.883, -0.469, 0.469, 0.883, 0, 42.079)">
    <g id="Group_206830" data-name="Group 206830" clip-path="url(#clip-path)">
      <path id="Path_450868" data-name="Path 450868" d="M52.188,57.379a32.156,32.156,0,0,0,8.277-23.562c-.136-2.049-.593-4.3-2.236-5.529-1.616-1.212-3.846-1.048-5.848-.788-1.723.223-3.576.543-4.78,1.794-1.542,1.6-1.476,4.109-1.288,6.323.582,6.841,1.474,13.915,5.08,19.757" transform="translate(-23.727 -14.024)" fill="#ffe5ee"/>
      <path id="Path_450869" data-name="Path 450869" d="M70.507,144.248A12.13,12.13,0,0,0,65.3,146.1a6.793,6.793,0,0,0-2.983,4.524c-.315,2.314.857,4.561,2.183,6.483a11.909,11.909,0,0,0,4.907,4.516c3.5,1.456,7.541-.082,10.67-2.222s5.89-4.914,9.406-6.333c-2.7,2.888-5.355,5.938-6.894,9.583s-1.822,8.021.153,11.449,6.564,5.415,10.136,3.716c3.092-1.471,4.6-5.1,4.824-8.519.374-5.686-2.006-11.151-4.335-16.352,2.655,2.839,5.363,5.719,8.729,7.664s7.548,2.85,11.184,1.479a11.9,11.9,0,0,0,6.555-6.724,18.856,18.856,0,0,0,.99-9.5,17.678,17.678,0,0,0-2.357-7.145,10.567,10.567,0,0,0-5.793-4.631c-3.769-1.112-7.844.446-11.066,2.695a26.952,26.952,0,0,0-5.193,4.756,65.637,65.637,0,0,0-3.866,5.924c-1.448,2.143-3.357.711-5.255-.084a48.2,48.2,0,0,0-7.715-2.592,24.842,24.842,0,0,0-9.071-.533" transform="translate(-31.965 -68.649)" fill="#ffe5ee"/>
      <path id="Path_450870" data-name="Path 450870" d="M53.738,87.427a5.861,5.861,0,0,0-3.22-3.274c-2.1-.654-4.324.73-5.74,2.418a13.245,13.245,0,0,0-1.153,14.954c.583.965,1.325,2.079.9,3.124-.456,1.125-1.919,1.346-3.129,1.45a43.553,43.553,0,0,0-20.307,7.1,7.8,7.8,0,0,0-2.977,2.988A5.458,5.458,0,0,0,19.75,122.3a10.569,10.569,0,0,0,6.266,2.266c5.141.392,10.222-1.165,15.053-2.964,3.445-1.283,6.848-2.7,10.4-3.677,1.733-.477,3.522-.636,5.253-1.071.938-.236,1.918-.687,1.658-1.781-.222-.938-1.176-1.782-1.642-2.609a10.54,10.54,0,0,1-1.049-4.217A99.051,99.051,0,0,1,55.6,98.126c.007-3.636-.252-7.376-1.862-10.7" transform="translate(-9.101 -43.119)" fill="#ddf"/>
      <path id="Path_450871" data-name="Path 450871" d="M124.358,254.41c.032,2.493-.02,5.108-1.231,7.288a9.379,9.379,0,0,1-7.561,4.427,4.744,4.744,0,0,1-2.8-.491,4.655,4.655,0,0,1-1.856-2.886,13.461,13.461,0,0,1,.418-7.653,27.943,27.943,0,0,1,3.61-6.856,60.856,60.856,0,0,1,3.812-5.007q1.031-1.22,2.126-2.384c.462-.491,1.474-1.939,2.153-1.918a35.638,35.638,0,0,1,1,7.657c.2,2.6.3,5.214.33,7.824" transform="translate(-56.746 -122.666)" fill="#ddf"/>
      <path id="Path_450872" data-name="Path 450872" d="M133.951,225.088a43.806,43.806,0,0,0,9.9,19.414,13.43,13.43,0,0,0,3.265,2.824,5.813,5.813,0,0,0,4.17.734,5.639,5.639,0,0,0,3.9-4.408,10.371,10.371,0,0,0-.856-6.052,18.165,18.165,0,0,0-19.57-10.9" transform="translate(-68.77 -115.56)" fill="#ddf"/>
      <path id="Path_450873" data-name="Path 450873" d="M53.881,171.11a1.072,1.072,0,0,0-.132-.071c-.009,0-.016-.011-.024-.015l-.009,0a.843.843,0,0,0-.136-.042.713.713,0,0,0-.071-.017c-.016,0-.03-.01-.046-.011s-.038,0-.058,0a.847.847,0,0,0-.9.75.943.943,0,0,0,.343.776.808.808,0,0,0,.845.11.947.947,0,0,0,.531-.7.812.812,0,0,0-.341-.784" transform="translate(-26.955 -87.767)" fill="#5f5c7c"/>
      <path id="Path_450874" data-name="Path 450874" d="M50.464,182.661l.013-.01-.009.005,0,0" transform="translate(-25.908 -93.773)" fill="#5f5c7c"/>
      <path id="Path_450875" data-name="Path 450875" d="M50.183,180.943a1.077,1.077,0,0,0-.446-.326.18.18,0,0,0-.188-.1c-.028.006-.053.02-.08.028a1.109,1.109,0,0,0-.2-.012.807.807,0,0,0-.292.081,1.011,1.011,0,0,0-.667.592,1,1,0,0,0,.191,1.023,1.068,1.068,0,0,0,.981.359,1.16,1.16,0,0,0,.824-.643.971.971,0,0,0-.127-1.007" transform="translate(-24.77 -92.678)" fill="#5f5c7c"/>
      <path id="Path_450876" data-name="Path 450876" d="M50.416,182.3h0" transform="translate(-25.883 -93.593)" fill="#5f5c7c"/>
      <path id="Path_450877" data-name="Path 450877" d="M57.156,183.982a1.078,1.078,0,0,0-.154-.607,2.824,2.824,0,0,0-.177-.273.362.362,0,0,0-.384-.123.343.343,0,0,0-.237.227.666.666,0,0,0-.326.161.855.855,0,0,0-.107,1.112.776.776,0,0,0,1.129.15.729.729,0,0,0,.245-.587c0-.02.01-.04.011-.06" transform="translate(-28.552 -93.935)" fill="#5f5c7c"/>
      <path id="Path_450878" data-name="Path 450878" d="M89.41,81.873a1.105,1.105,0,0,0-.612-.337.965.965,0,0,0-1.085.571,1.012,1.012,0,0,0-.05.209c-.006.031-.006.064-.009.1-.178.1-.354.2-.53.292q-.82.428-1.68.775a19.2,19.2,0,0,1-3.469,1.029c-.2.039-.4.07-.6.1A12.859,12.859,0,0,0,84,82.8a15.866,15.866,0,0,0,1.509-1.518c.226-.262.472-.534.681-.826a.921.921,0,0,0,.768-.184.859.859,0,0,0,.268-.429.778.778,0,0,0,.1-.568.917.917,0,0,0-.465-.587.946.946,0,0,0-1.216.277,1.056,1.056,0,0,0-.2.676.841.841,0,0,0,.219.513c-.194.249-.379.507-.581.739a16.284,16.284,0,0,1-1.5,1.525,22.51,22.51,0,0,1-3.2,2.329,20.243,20.243,0,0,1-5.741-.162q-1.169-.2-2.313-.52c-.169-.076-.337-.158-.508-.231a21.264,21.264,0,0,0,3.886-1.33A24.147,24.147,0,0,0,88.032,69.894q.29-.7.529-1.427a5.537,5.537,0,0,0,.359-1.6A2.357,2.357,0,0,0,87.3,64.633a10.461,10.461,0,0,0-3.169-.6,20.722,20.722,0,0,0-3.565.036,24.869,24.869,0,0,0-12.821,5.338c-.326.255-.641.524-.957.792l.018-.051a.106.106,0,0,0,.1-.107c0-.088.022-.171.034-.256.134-.365.273-.73.414-1.1.345-.381.621-.839.931-1.246.119-.156.246-.306.367-.459.093-.091.186-.181.279-.268a30,30,0,0,1,3.474-2.746c2.418-1.664,4.991-3.087,7.427-4.723.422-.283.946-.642,1.033-1.188a.993.993,0,0,0-.838-1.079,5.22,5.22,0,0,0-1.873-.024,9.4,9.4,0,0,0-1.888.427,13.322,13.322,0,0,0-6.346,4.922c-.4.547-.759,1.114-1.1,1.689.15-.736.274-1.478.357-2.228.288-.82.547-1.65.834-2.47a15.5,15.5,0,0,1,4.3-4.246c2.126-1.545,4.6-3.177,5.68-5.682a3.229,3.229,0,0,0-.33-3.547,3.405,3.405,0,0,0-3.391-.833c-2.614.711-4.1,3.338-4.97,5.706a49.072,49.072,0,0,0-1.4,4.725c-.2.783-.393,1.572-.569,2.365-.005-.155-.008-.31-.016-.465a.326.326,0,0,0-.009-.214,31.235,31.235,0,0,0-.453-3.8A35.941,35.941,0,0,0,67.4,47.861q-.465-1.328-1.016-2.624c-.179-.421-.366-.839-.559-1.255a3.827,3.827,0,0,0-.577-.976,1.443,1.443,0,0,0-1.974-.191,3.246,3.246,0,0,0-1.035,1.951A10.879,10.879,0,0,0,68.753,57.5a25.17,25.17,0,0,1-.261,5.254,22.924,22.924,0,0,1-.786,3.3c-.407.829-.784,1.672-1.141,2.526.018-.11.037-.224.053-.331a13.484,13.484,0,0,0,.092-3.125,13.751,13.751,0,0,0-2.016-6.012,13.13,13.13,0,0,0-2.342-2.788.282.282,0,0,0-.425.116c-1.059,1.864-.509,4.157.367,5.973,1.031,2.136,2.615,4.087,2.944,6.5a5.211,5.211,0,0,1-.177,2.31c-.058-.194-.115-.389-.183-.581q-.273-.772-.583-1.529-.61-1.485-1.328-2.924A43.85,43.85,0,0,0,55.5,55.61c-1.236-1.291-2.889-3.256-4.89-2.3a3.415,3.415,0,0,0-.35.2c.154-.407.316-.812.506-1.21a24.439,24.439,0,0,1,1.869-3.217c.563-.828,1.174-1.62,1.8-2.4a2.959,2.959,0,0,0,.562-.53c.653-.543,1.256-1.169,1.873-1.737q1.189-1.095,2.382-2.186a44.664,44.664,0,0,0,4.213-4.273c2.249-2.695,4.016-6.079,3.749-9.684A8.576,8.576,0,0,0,65.3,23.293c-.065-.187-.135-.373-.214-.556a.181.181,0,0,0-.152-.108,1.188,1.188,0,0,0-1.08-.251c-.858.246-1.406,1.232-1.776,1.978a16.344,16.344,0,0,0-1.235,5.958,26.542,26.542,0,0,1-1.082,5.819,27.316,27.316,0,0,1-2.237,5.11,29.779,29.779,0,0,1-1.716,2.688q-.461.647-.953,1.27a4.992,4.992,0,0,0-.9,1.309.21.21,0,0,0,0,.084c-.478.6-.946,1.207-1.385,1.836a25.463,25.463,0,0,0-2.036,3.432c-.269.554-.536,1.134-.764,1.729a11.01,11.01,0,0,0,.116-2.22,15.315,15.315,0,0,0-2.139-6.648,26.315,26.315,0,0,0-1.874-2.965,3.711,3.711,0,0,0-2.342-1.629,4.461,4.461,0,0,0-3.037,1,13.73,13.73,0,0,0-2.145,1.846,16.011,16.011,0,0,0-4.18,9.3.229.229,0,0,0-.033.02c.006-.4.023-.8.068-1.2a16.862,16.862,0,0,1,1.218-4.665,18.934,18.934,0,0,1,1.015-2.053A25.442,25.442,0,0,1,42.5,38.6c5.755-4.106,13.129-7.361,15.923-14.364a14.426,14.426,0,0,0,.985-5.605,15.79,15.79,0,0,0-.338-2.954,11.779,11.779,0,0,0-.769-2.491l.049-.08c.079-.144-.072-.251-.2-.229a.169.169,0,0,0-.18-.051.266.266,0,0,0-.334.274c0,.1,0,.2,0,.3a27.126,27.126,0,0,1-2.04,2.176c-.874.821-1.81,1.576-2.758,2.31-1.912,1.482-3.91,2.863-5.69,4.508A31.417,31.417,0,0,0,39.53,34.416c-.5,1.284-.94,2.588-1.362,3.9q-.312.969-.61,1.942a10.328,10.328,0,0,0-.523,2.007l.008.119-.01.015a17.584,17.584,0,0,0-2.142,2.941,13.991,13.991,0,0,0-.972,2.09c.384-1.769.821-3.525,1.336-5.261A73.861,73.861,0,0,1,39.228,31.9,65.448,65.448,0,0,0,43.35,21.727,29.7,29.7,0,0,0,44.3,11.387a30.484,30.484,0,0,0-1.04-5.739,28.91,28.91,0,0,0-.951-2.829c-.18-.454-.368-.905-.575-1.347-.217-.462-.493-.89-.745-1.334-.157-.275-.6-.1-.465.2.035.075.065.152.1.228-.586,2.105-.956,4.279-1.334,6.43-.4,2.282-.723,4.579-.931,6.887a56.43,56.43,0,0,0-.224,6.8c.065,2.115.254,4.224.3,6.339a29.856,29.856,0,0,1-.1,3.565c-.056.591-.138,1.18-.249,1.764a13.946,13.946,0,0,0-.349,1.747v.012c-.94,2.258-1.807,4.544-2.533,6.885a62.01,62.01,0,0,0-2.363,10.6c-.154-.438-.309-.876-.458-1.315-.8-2.366-1.583-4.74-2.249-7.15q-.559-2.026-1.013-4.084c2.154-4.213,4.309-8.507,5.161-13.2a20.108,20.108,0,0,0,.13-6.865,5.878,5.878,0,0,0-1.242-3.069,2.884,2.884,0,0,0-2.565-1c-.055.01-.1.028-.157.041l-.087-.005a9.43,9.43,0,0,0-6.7,6.855c-.949,3.687.157,7.528,1.576,10.936.919,2.208,1.987,4.353,2.809,6.6a.32.32,0,0,0,.376.217c.1.45.211.9.326,1.348.639,2.506,1.4,4.978,2.233,7.426.77,2.268,1.581,4.535,2.486,6.755-.071-.08-.147-.153-.219-.232-2.261-5.251-6.911-9.044-11.021-12.879a47.875,47.875,0,0,1-4.73-4.948c-.019-.045-.036-.091-.054-.136a.3.3,0,0,0-.105-.436l-.091-.061c-.081-.218-.155-.44-.221-.667a15.689,15.689,0,0,1-.5-2.587,45.45,45.45,0,0,1-.159-5.394c.023-3.413-.125-6.86-1.86-9.895A13.75,13.75,0,0,0,11.53,14.24a.205.205,0,0,0-.155-.127c-.106-.088-.211-.178-.319-.262a.3.3,0,0,0-.369-.014.246.246,0,0,0-.226.248c0,.31,0,.619-.005.927a12.621,12.621,0,0,0-2.415,8.335,16.222,16.222,0,0,0,4.11,9.678,20.427,20.427,0,0,0,4.133,3.613c.1.127.2.251.3.377.015.024.026.05.042.074s.024.017.037.026c3.185,3.993,7.4,7.073,10.987,10.72a31.041,31.041,0,0,1,4.387,5.452,8.169,8.169,0,0,0-1.347-1c-.913-.573-1.864-1.086-2.825-1.572a44.118,44.118,0,0,0-6.2-2.557c-.84-.275-1.689-.52-2.542-.747a1.063,1.063,0,0,0-.569-.483c-.237-.126-.48-.242-.729-.344-.272-.112-.549-.209-.83-.295a9.811,9.811,0,0,0-.929-.569c-.418-.24-.836-.476-1.262-.7q-1.288-.685-2.626-1.268A33.129,33.129,0,0,0,6.695,41.9c-.645-.154-1.292-.273-1.943-.38a.87.87,0,0,0-.42-.713.9.9,0,0,0-.174-.178.878.878,0,0,0-.823-.116,1,1,0,0,0,.053,1.908,1.026,1.026,0,0,0,1.313-.6c1.434.347,2.857.79,4.241,1.273a38.991,38.991,0,0,1,5.251,2.272c.336.176.665.363,1,.55-.214-.02-.428-.04-.643-.044a3.374,3.374,0,0,0-1.619.238.184.184,0,0,0-.063.063c-1.417-.177-2.842-.3-4.273-.337q-1.86-.054-3.72.042a19.968,19.968,0,0,0-2.918.287.888.888,0,0,0-.334-.467.862.862,0,0,0-.436-.149,1.1,1.1,0,0,0-.35-.037.917.917,0,0,0-.773.63,1.1,1.1,0,0,0-.046.533.944.944,0,0,0,.223.473,1.047,1.047,0,0,0,.275.211.979.979,0,0,0,.254.088.966.966,0,0,0,.452,0,1.04,1.04,0,0,0,.476-.242.994.994,0,0,0,.289-.516c.816-.036,1.633-.147,2.444-.2,1.1-.071,2.2-.112,3.3-.106,1.5.009,3,.1,4.5.254a44.446,44.446,0,0,1-6.9,2.5,1.03,1.03,0,0,0-.392-.338.853.853,0,0,0-.992.216.791.791,0,0,0-.224.152.881.881,0,0,0-.285.559.861.861,0,0,0,.174.593,1.059,1.059,0,0,0,1,.377,1.1,1.1,0,0,0,.87-.835.859.859,0,0,0-.01-.429,40.739,40.739,0,0,0,7.981-2.649c.253.034.507.062.759.1A45.618,45.618,0,0,1,26.654,50.6c.1.045.191.095.288.141a16.079,16.079,0,0,0-8.645-.426,15.651,15.651,0,0,0-3.15,1.073,6.8,6.8,0,0,0-2.768,1.94C11.1,55.138,12.308,57.463,13.441,59A20.7,20.7,0,0,0,24.19,66.156a22.078,22.078,0,0,0-9.737,3.688c-1.263.853-2.982,1.965-3.073,3.661a3.987,3.987,0,0,0,2.792,3.657,19.957,19.957,0,0,0,5.092,1.1,34.79,34.79,0,0,0,5.289.22,35.592,35.592,0,0,0,8.559-1.354c-.138.094-.276.187-.411.287A6.922,6.922,0,0,0,29.787,81.5c-.37,1.99.751,3.868,1.91,5.386a16.245,16.245,0,0,0,3.953,3.737,11.813,11.813,0,0,0,9.639,1.687c-1.638.95-3.325,1.82-5.047,2.615-.234-.007-.487.033-.693.038-.373.009-.746.009-1.119,0-.745-.017-1.491-.062-2.233-.137a29.814,29.814,0,0,1-4.388-.78c-.163-.042-.235.233-.075.288A22.858,22.858,0,0,0,36.185,95.4q1.138.152,2.284.191c.094,0,.187,0,.281,0q-2.42,1.042-4.915,1.882c-1.307.439-2.624.844-3.957,1.2-.136.036-.11.253.033.222q2.574-.555,5.08-1.352l-.044.054-.563.692c-.375.463-.725.943-1.071,1.427-.114.16.106.407.257.254.428-.43.851-.86,1.252-1.315l.591-.672.294-.337a.635.635,0,0,0,.227-.418q2.15-.726,4.237-1.625a.982.982,0,0,0,.507-.144.224.224,0,0,0,.091-.123c.977-.438,1.944-.9,2.9-1.4.5-.26.989-.534,1.479-.809-.732.729-1.463,1.46-2.175,2.21A37.871,37.871,0,0,0,39.8,99.081a20.081,20.081,0,0,1-6.1,3.726c-1.461.647-2.915,1.3-4.305,2.091a32.954,32.954,0,0,0-7.638,5.956.319.319,0,0,0-.039.326,1.726,1.726,0,0,0,.59.75l.122.077a3.4,3.4,0,0,0,2.54.119,17.244,17.244,0,0,0,3.994-1.706,29.586,29.586,0,0,0,6.712-5.585c.706-.758,1.389-1.535,2.066-2.319a16.294,16.294,0,0,0-1.44,5.721c-.625,1.162-1.213,2.346-1.815,3.518l-2.146,4.176c-.711,1.384-1.433,2.763-2.132,4.154a13.768,13.768,0,0,0-1.425,3.908,6.046,6.046,0,0,0,.8,4.325.339.339,0,0,0,.531-.005,27.613,27.613,0,0,0,6.034-14.4,22.205,22.205,0,0,0,.06-3.895l.049-.094c.016,2,.25,4,.455,5.987.145,1.4.274,2.812.292,4.224s-.149,2.8-.25,4.2c-.014.19.263.284.335.09a11.119,11.119,0,0,0,.531-3.6,32.3,32.3,0,0,0-.16-3.65c-.22-2.47-.595-4.935-.619-7.419,0-.343,0-.685.018-1.025l.055-.114a16.781,16.781,0,0,0,6.079,12.6c.225.187.619-.1.466-.366C41,116.517,42.071,111.2,40.072,106.7a8.426,8.426,0,0,0-2.052-2.925,17.435,17.435,0,0,1,.526-1.684,22.46,22.46,0,0,1,1.923-3.13c.156-.192.305-.389.443-.6.53-.69,1.089-1.358,1.67-2.006,1.066-1.188,2.2-2.315,3.322-3.447.181-.182.366-.365.551-.547l.14-.083a24.4,24.4,0,0,0-2.993,13.49,8.772,8.772,0,0,0,.769,3.284.372.372,0,0,0,.242.433,4.358,4.358,0,0,0,2.56,1.9c2.2.6,4.556-.191,6.463-1.286,4.22-2.425,7-6.782,8.645-11.271a44.224,44.224,0,0,1-.9,5.637,41.232,41.232,0,0,1-1.43,4.878c-.449.418-.875.857-1.347,1.252a18.7,18.7,0,0,1-1.585,1.179c-1.144.766-2.353,1.428-3.559,2.091a32.693,32.693,0,0,0-6.325,4.23,25.375,25.375,0,0,0-7.387,11.925,25.094,25.094,0,0,0-.759,3.86,19,19,0,0,0-.119,3.235c-.1.155-.207.3-.3.466-.237.408.318.848.582.5a.193.193,0,0,0,.213-.187l0-.136.034-.053.081-.079c.139-.217.279-.431.419-.646a18.6,18.6,0,0,1,4.385-3.966,71.281,71.281,0,0,0,5.926-4.215,28.986,28.986,0,0,0,8.035-11.3,25.494,25.494,0,0,0,1.6-6.115c.208-.509.409-1.02.6-1.538.053-.067.11-.131.16-.2a.327.327,0,0,0,.027-.322c.43-1.238.8-2.5,1.116-3.769a37.258,37.258,0,0,0,.906-5.275c.094-.995.138-1.986.146-2.979.084-.281.163-.563.237-.848q.093.512.185,1.023c.192,2.975.486,5.949.91,8.9a.329.329,0,0,0-.059.272,8.334,8.334,0,0,0,.243.949c.076.492.163.982.245,1.473q.071,2.375-.03,4.751c-.036.84-.1,1.679-.174,2.516-.057.672-.165,1.356-.214,2.035a19.49,19.49,0,0,1-2.647,3.39c-2.858,3.031-6.311,5.941-7.047,10.28a6.355,6.355,0,0,0,1.323,5.39,3.615,3.615,0,0,0,2.373,1.18,4.4,4.4,0,0,0,2.673-.8,10.092,10.092,0,0,0,3.541-4.926,27.625,27.625,0,0,0,1.491-6.379,52.357,52.357,0,0,0,.406-9.8,49.2,49.2,0,0,0,3.216,8.448q.858,1.726,1.878,3.366a9.912,9.912,0,0,0,1.9,2.374,3.558,3.558,0,0,0,2.532.949,3.313,3.313,0,0,0,2.469-1.612,9.174,9.174,0,0,0,.883-6.623A11.528,11.528,0,0,0,75.8,117.6c-3.322-3.229-8.42-4.958-10.45-9.393a7.47,7.47,0,0,1-.272-.7c-.04-.688-.094-1.375-.156-2.062.118.2.245.389.379.575a20.434,20.434,0,0,0,1.959,2.205,36.77,36.77,0,0,0,4.322,3.848,25.188,25.188,0,0,0,2.712,1.769c.19.107.39-.141.312-.317a22.689,22.689,0,0,0-7.162-9.059q-.662-.49-1.361-.929a7.562,7.562,0,0,0-1.463-.787c-.1-.768-.215-1.535-.348-2.3-.04-.233-.086-.464-.128-.7-.132-1.417-.262-2.834-.423-4.249-.013-.109-.026-.219-.038-.328.218.35.445.7.679,1.034A25.412,25.412,0,0,0,66.3,98.677a28.6,28.6,0,0,0,4.609,4.151,27.555,27.555,0,0,0,5.407,3.039c1.884.791,4.322,1.315,5.87-.405,1.186-1.318,1.257-3.336,1.084-5.006a23.455,23.455,0,0,0-1.5-6.138,18.7,18.7,0,0,0-7.534-9.253,19.455,19.455,0,0,0,8.84-.182c.759.315,1.524.607,2.3.883a.993.993,0,0,0-.064.4.83.83,0,0,0,.306.563.923.923,0,0,0,.515.2,1.01,1.01,0,0,0,.99-.539.768.768,0,0,0,.075-.3,1,1,0,0,0-.064-.414.869.869,0,0,0-.245-.337.64.64,0,0,0-.184-.111.9.9,0,0,0-.135-.075.822.822,0,0,0-.649.007.976.976,0,0,0-.15.1c-.643-.206-1.291-.4-1.942-.575.474-.138.944-.289,1.406-.462a19.076,19.076,0,0,0,1.961-.862c.2-.1.416-.213.628-.329a.985.985,0,0,0,.241.286.955.955,0,0,0,.706.192,1.013,1.013,0,0,0,.618-.36,1.032,1.032,0,0,0,.244-.6.926.926,0,0,0-.22-.672M78.964,45.946c1.107.839.961,2.277.418,3.4-1.125,2.338-3.486,3.831-5.5,5.322a18.636,18.636,0,0,0-3.141,2.791c.346-.811.713-1.612,1.124-2.392A32.393,32.393,0,0,1,76.144,48.8c.884-1.009,1.838-1.943,2.814-2.86ZM70.254,56.34q.505-2.115,1.154-4.192c.727-2.31,1.747-4.9,3.962-6.173a3.353,3.353,0,0,1,3.336-.187,33.563,33.563,0,0,0-8.629,12.062c-.106.253-.208.509-.31.765.151-.76.307-1.52.487-2.275m-7.062-5.506a10.322,10.322,0,0,1-.511-4.6,7.661,7.661,0,0,1,.524-2.193,1.3,1.3,0,0,1,.9-.8,3.255,3.255,0,0,0-.563,1.563,5.676,5.676,0,0,0,.5,2.738c.431,1.049.976,2.056,1.476,3.073l1.5,3.047.865,1.758c.191.388.362.814.569,1.207a10.31,10.31,0,0,1-5.26-5.791m5.062,4.139-.891-1.747-1.871-3.668a12.087,12.087,0,0,1-1.515-3.688,3.761,3.761,0,0,1,.108-1.565,2.719,2.719,0,0,1,.324-.72c.052-.079.107-.155.16-.231a.983.983,0,0,1,.239.231,4.786,4.786,0,0,1,.47.906q.285.626.552,1.258.515,1.208.957,2.445a37.335,37.335,0,0,1,1.431,5.076c.159.779.273,1.565.367,2.352l-.331-.649m11.8,2.574a.374.374,0,0,1,.265.526,1.4,1.4,0,0,1-.507.556c-.284.211-.586.4-.882.6-2.315,1.529-4.718,2.924-6.969,4.549q-.85.613-1.663,1.278.618-.674,1.259-1.325a28.326,28.326,0,0,1,5.162-4.149c1.078-.672,2.205-1.274,3.334-1.857a.1.1,0,0,0,0-.174m-4.757.819a9.235,9.235,0,0,1,3.686-.928,3.116,3.116,0,0,1,1.065.108.085.085,0,0,0-.071,0,32,32,0,0,0-5.743,3.462,33.261,33.261,0,0,0-5.061,4.451c-.319.348-.621.711-.924,1.073,1.514-3.392,3.562-6.511,7.047-8.167M59.826,38.032a24.2,24.2,0,0,0,1.343-4.948c.311-1.98.254-4,.618-5.975a9.418,9.418,0,0,1,.977-2.875,3.421,3.421,0,0,1,1-1.246.871.871,0,0,1,.746-.088.257.257,0,0,0-.032.4q.23.229.436.477a20.484,20.484,0,0,1,.426,2.673A15.8,15.8,0,0,1,62.3,37.067a51.022,51.022,0,0,1-4.637,5.321,27.877,27.877,0,0,0,2.159-4.356M57.333,43.4a65.566,65.566,0,0,0,5.17-5.759,17.233,17.233,0,0,0,3.1-6.72,16.123,16.123,0,0,0,.315-4.111,15.678,15.678,0,0,0-.2-1.841,8.444,8.444,0,0,1,.97,2.946,10.255,10.255,0,0,1-.716,5.031C64.62,36.438,61.9,39.1,59.235,41.622L57.2,43.544c.044-.047.087-.1.132-.143m.492-25.15a15.561,15.561,0,0,0,.454-2.548,8.96,8.96,0,0,0,.027-1.2c.094.339.183.679.255,1.023a16.261,16.261,0,0,1,.331,2.625,14.087,14.087,0,0,1-.745,5.27,18.48,18.48,0,0,1-6.137,7.985c-3.78,3.044-8.416,5.277-12.218,8.371.5-.557,1-1.1,1.529-1.631,4.875-4.912,10.919-8.889,14.449-14.993a19.85,19.85,0,0,0,2.055-4.9M38.868,39.005c.371-1.158.76-2.31,1.178-3.452a47.345,47.345,0,0,1,2.922-6.543,24.022,24.022,0,0,1,4.241-5.682,62.824,62.824,0,0,1,5.634-4.571,23.344,23.344,0,0,0,4.776-4.523c-.019.425-.051.85-.086,1.267a15.232,15.232,0,0,1-.386,2.349,18.834,18.834,0,0,1-1.717,4.381,32.384,32.384,0,0,1-6.515,8.021c-3.52,3.338-7.5,6.465-10.532,10.295.159-.515.319-1.029.484-1.542M40.846,1.084c.24.563.471,1.131.7,1.7q.485,1.2.866,2.442a29.6,29.6,0,0,1,1.087,5.14,29.836,29.836,0,0,1-.539,10.322A40.874,40.874,0,0,1,40.707,27.3q.081-.312.16-.621a49.184,49.184,0,0,0,1.177-6.192,53.54,53.54,0,0,0,.05-12.54A47.763,47.763,0,0,0,40.814,1.3c.01-.072.022-.143.032-.215M39.672,8.1c.323-2.114.762-4.217,1.071-6.334a53.645,53.645,0,0,1,1.25,11.686,51.9,51.9,0,0,1-1.584,12.318c-.283,1.138-.608,2.265-.966,3.381-.184.575-.379,1.142-.565,1.712a26.877,26.877,0,0,0,.148-2.72c.008-2.123-.167-4.24-.27-6.359A68.4,68.4,0,0,1,39.672,8.1M33.434,18.07A16.676,16.676,0,0,1,33.7,24.6a37.537,37.537,0,0,1-4.071,11.7q.329-1.064.618-2.14c.391-1.459.742-2.929,1.03-4.412a57.067,57.067,0,0,0,1.011-9.06c.027-.839.036-1.68.033-2.52,0-.666.015-1.354-.043-2.024a3.631,3.631,0,0,1,1.157,1.925m-9.017,9.982c-.757-3.329-.535-6.909,1.691-9.648a10.173,10.173,0,0,1,2.764-2.329,9.736,9.736,0,0,0-1.222,3.567,38.185,38.185,0,0,0-.733,7.005,50.961,50.961,0,0,0,.939,10.222c-1.261-2.9-2.735-5.724-3.439-8.817m4.345,9.259a54.589,54.589,0,0,1-.981-7.9,41.414,41.414,0,0,1,.217-6.7q.195-1.664.542-3.3a7.827,7.827,0,0,1,.943-2.742,1.821,1.821,0,0,1,2.175-.866,2.328,2.328,0,0,1,.317.148c-.016.632.031,1.269.038,1.9q.012,1.142-.028,2.282c-.053,1.509-.171,3.016-.341,4.517a57.241,57.241,0,0,1-1.672,8.845q-.341,1.231-.736,2.446-.2.607-.409,1.211c-.019.055-.042.11-.064.166M10.117,28.786A13.927,13.927,0,0,1,9.07,19.228a12.613,12.613,0,0,1,1.4-3.339c0,.257,0,.513.018.772.048.872.1,1.744.179,2.615.145,1.7.339,3.387.625,5.065a29.626,29.626,0,0,0,3.2,9.6c.152.27.314.532.476.793a18.245,18.245,0,0,1-4.848-5.944m2.26-3.288a54.025,54.025,0,0,1-.79-5.659c-.088-.952-.16-1.906-.23-2.861-.014-.19-.033-.379-.05-.568,2.306,5,2.416,10.663,3.667,15.98.126.535.27,1.067.424,1.595A27.957,27.957,0,0,1,12.378,25.5m3.95,9.958c-.082-.216-.162-.433-.235-.651q-.369-1.109-.642-2.245c-.353-1.45-.611-2.92-.844-4.393a77.44,77.44,0,0,0-1.58-8.855,20.318,20.318,0,0,0-1.781-4.429,12.667,12.667,0,0,1,4.267,7.632c.567,3.459.048,6.978.457,10.449a16.38,16.38,0,0,0,.563,2.8c-.071-.1-.136-.2-.206-.3M22.42,111.1a32.534,32.534,0,0,1,7.16-5.633c2.533-1.467,5.356-2.409,7.848-3.944-1.558,1.254-3.137,2.485-4.762,3.65-2.075,1.489-4.264,2.832-6.464,4.127-1.188.7-2.4,1.355-3.611,2.011a1.193,1.193,0,0,1-.172-.211m3.759-.076a6.226,6.226,0,0,1-2.908.619A80.767,80.767,0,0,0,35.5,103.51c.673-.533,1.33-1.084,1.978-1.646-3.182,3.71-6.645,7.386-11.294,9.166m3.935,12.747a12.67,12.67,0,0,0-.259,1.989A6.9,6.9,0,0,0,29.9,127.5l-.011.015c-1.2-2.31-.09-5.066,1-7.217,1.351-2.671,2.743-5.322,4.116-7.982.12-.233.244-.465.365-.7-.236.687-.495,1.364-.8,2.03-.517,1.142-1.107,2.249-1.691,3.358a26.6,26.6,0,0,0-2.766,6.769m1.943.572a26.528,26.528,0,0,1-1.72,2.56l-.009-.065a7.452,7.452,0,0,1-.041-.966,10.68,10.68,0,0,1,.184-1.724,17.2,17.2,0,0,1,1.059-3.469c.932-2.265,2.2-4.368,3.227-6.588a20.706,20.706,0,0,0,1.064-2.71,29.222,29.222,0,0,1-3.765,12.963m7.29-17.507A14.451,14.451,0,0,1,40.374,110c.506,2.36.6,4.785,1.1,7.147a16.231,16.231,0,0,0,.426,1.6l-.065-.1q-.439-.7-.84-1.416a21.75,21.75,0,0,1-1.344-2.895,24.255,24.255,0,0,1-1.445-6.269q-.087-.912-.108-1.829c-.01-.442,0-.886-.006-1.328a8.984,8.984,0,0,1,1.255,1.93m-1.09,4.084a27.9,27.9,0,0,0,2.133,6.183c.191.4.4.787.611,1.172a16.463,16.463,0,0,1-3.432-12.093c.036-.3.083-.6.136-.9a17.554,17.554,0,0,0,.075,2.362,24.94,24.94,0,0,0,.477,3.274m1.17,25.041c.022-.525.052-1.05.109-1.574a24.232,24.232,0,0,1,.639-3.456,25.414,25.414,0,0,1,2.65-6.419,24.6,24.6,0,0,1,4.363-5.5,29.112,29.112,0,0,1,6.075-4.2c1.33-.729,2.672-1.441,3.945-2.267q.809-.525,1.566-1.126c-2.61,3.081-5.43,5.964-8.221,8.887a69.277,69.277,0,0,0-8.3,10.1,29.647,29.647,0,0,0-2.826,5.552M54.7,122.73a27.923,27.923,0,0,1-4.563,5.179,54.623,54.623,0,0,1-5.8,4.165c-.63.423-1.254.864-1.86,1.328,1.062-1.271,2.206-2.471,3.379-3.639,2.411-2.4,4.943-4.687,7.176-7.259a39.842,39.842,0,0,0,5.721-8.7A29.3,29.3,0,0,1,54.7,122.73m3.488-9.219a39.5,39.5,0,0,1-5.154,7.95,100.551,100.551,0,0,1-7.069,7.218c-1.337,1.307-2.652,2.641-3.867,4.064-.53.621-1.053,1.268-1.547,1.937a38.173,38.173,0,0,1,5.376-8.645c2.846-3.532,6.1-6.7,9.2-10,1.367-1.454,2.712-2.934,3.956-4.5-.282.665-.576,1.325-.894,1.974m-1.581,23.794c-1.468-1.186-1.791-3.316-1.512-5.079.662-4.18,4.177-7.034,6.921-9.925a24.248,24.248,0,0,0,2.012-2.367A27.475,27.475,0,0,1,61,124.578c-1.961,2.582-4.041,5.349-4.275,8.7a7.927,7.927,0,0,0,.218,2.578,5,5,0,0,0,.968,2.037,2.739,2.739,0,0,1-1.3-.592m8.844-12.874a37.976,37.976,0,0,1-1.119,6.432,14.061,14.061,0,0,1-2.282,4.886c-.708-5.226,2.569-9.925,3.642-14.9-.042,1.2-.119,2.39-.241,3.578m8.926,6.34a6.021,6.021,0,0,1-1.926-1.926,30.134,30.134,0,0,1-1.87-3.166,50.232,50.232,0,0,1-4.239-11.571V114.1c2.082,4.037,6.254,7.234,7.984,11.456a8.879,8.879,0,0,1,.621,5.152.279.279,0,0,0,.191.339,2.562,2.562,0,0,1-.762-.27m-1.288-14.435a13.431,13.431,0,0,1,4.51,5.01A10.505,10.505,0,0,1,78.367,128a4.555,4.555,0,0,1-1.49,2.641,2.143,2.143,0,0,1-1.61.424.339.339,0,0,0,.353-.273c.643-3.139-.727-6.254-2.525-8.761-1.984-2.765-4.574-5.079-6.235-8.076-.186-.336-.357-.686-.517-1.041a5.852,5.852,0,0,0-.314-1.435,5.638,5.638,0,0,0-.445-.9c-.04-.215-.081-.429-.12-.644,1.852,2.7,5.024,4.5,7.628,6.407m-7.907-3.929.014.062c0,.027-.011.054-.016.08h0c0-.047,0-.094,0-.141m1.534-7.69a23.379,23.379,0,0,1,2.241,1.79,21.319,21.319,0,0,1,3.662,4.307A19.947,19.947,0,0,1,73.84,113c-.1-.059-.19-.126-.287-.187-.625-.623-1.3-1.2-1.927-1.816q-1.32-1.287-2.57-2.641-1.22-1.328-2.38-2.711-.589-.7-1.162-1.42-.2-.251-.4-.5c.537.327,1.091.634,1.607.994m-1.615-.169q.588.705,1.194,1.4,1.21,1.382,2.485,2.706,1.247,1.295,2.538,2.548c.093.09.187.182.28.272a32.611,32.611,0,0,1-2.708-2.263c-.864-.807-1.7-1.648-2.493-2.523a8.154,8.154,0,0,1-1.585-2.31c-.007-.067-.013-.134-.02-.2.1.126.206.251.309.376m0,13.671c.168-.317.326-.64.464-.974a21.126,21.126,0,0,1-.328,3.12,28.21,28.21,0,0,1-1.168,3.892,44.254,44.254,0,0,0-2.5,7.747,11.843,11.843,0,0,0,0,4.3l-.018.02a4.848,4.848,0,0,1-3,1.6.254.254,0,0,0-.009-.2c-.167-.34-.389-.646-.553-.988a5.775,5.775,0,0,1-.391-1.069,7.26,7.26,0,0,1-.191-2.293,10.765,10.765,0,0,1,1.4-4.428c1.563-2.842,3.907-5.175,5.355-8.089a11.671,11.671,0,0,0,.944-2.634m22.5-49.3a22.841,22.841,0,0,1-6.429,9.205,23.176,23.176,0,0,1-9.936,5.138c-.177.04-.353.083-.53.126a35.467,35.467,0,0,0-6.2-1.582,34.77,34.77,0,0,0,19.591-9.382,30.682,30.682,0,0,0,3.819-4.35c-.106.3-.224.595-.317.846M88.12,67.4a41.084,41.084,0,0,1-3.708,4.327,34.419,34.419,0,0,1-15.766,8.734,34.511,34.511,0,0,1-6.776.923.27.27,0,0,0-.036.009l-.506-.07c.255-.306.516-.606.787-.9a5.949,5.949,0,0,1,1.059-.68A15.276,15.276,0,0,1,66.467,78.7a53.117,53.117,0,0,0,6.264-1.845,49.6,49.6,0,0,0,11.585-6.142c1.4-1,3.15-2.2,3.859-3.859a2.72,2.72,0,0,1-.056.547M63.108,79.441c.452-.422.913-.834,1.393-1.221a33.191,33.191,0,0,1,5.04-3.3c3.781-2.054,7.779-3.709,11.7-5.468q1.847-.828,3.69-1.664c.614-.28,1.228-.56,1.838-.849.3-.143.609-.28.908-.43a5.253,5.253,0,0,1-1.2,1.889,17.81,17.81,0,0,1-2.185,1.781,48.74,48.74,0,0,1-5.623,3.529,51.711,51.711,0,0,1-12.308,4.68,15.734,15.734,0,0,0-3.25,1.055M87.377,65.5a1.82,1.82,0,0,1,.523.457.286.286,0,0,0-.028.042c-.353.124-.7.272-1.044.417q-.842.355-1.679.723-1.674.734-3.343,1.48-3.292,1.469-6.584,2.94a57.871,57.871,0,0,0-10.658,5.792,24.959,24.959,0,0,0-2.184,1.786,19.723,19.723,0,0,1,1.771-2.125,34.81,34.81,0,0,1,4.841-4.323,38.2,38.2,0,0,1,11.6-5.781A46.721,46.721,0,0,1,87.377,65.5m-25.1-8.483a12.851,12.851,0,0,1,4.045,10.75,14.043,14.043,0,0,1-.28,1.657c-.018.08-.041.16-.062.239a6.666,6.666,0,0,0-.069-.76,26.826,26.826,0,0,0-.895-5.285,31.086,31.086,0,0,0-2.741-6.6l0,0m3.015,9.771c-.992-2.256-2.757-4.178-3.252-6.645a5.531,5.531,0,0,1,.03-2.518,24.744,24.744,0,0,1,2.61,6.087,26.4,26.4,0,0,1,.734,3.388c-.041-.1-.078-.212-.123-.312m1.873,4.177a25.259,25.259,0,0,1,11.684-5.849,19.873,19.873,0,0,1,6.683-.151,7.075,7.075,0,0,1,1.4.322,31.084,31.084,0,0,0-5.74,1.075A38.5,38.5,0,0,0,75,68.66a39.3,39.3,0,0,0-10.832,7.587,15.647,15.647,0,0,0-3.256,3.988c-.261-1.629.783-3.3,1.749-4.543a32.9,32.9,0,0,1,4.5-4.73m-2.758.021a6.751,6.751,0,0,0,.418.845c-.058.117-.121.232-.192.344a.371.371,0,0,0-.026.066c-.649.658-1.278,1.335-1.874,2.04a15.605,15.605,0,0,0-1.994,2.815c-.091-.083-.277-.057-.283.093a1.814,1.814,0,0,1-.1.528.2.2,0,0,0-.171.035c-.059.04-.122.071-.183.108-.023-.888-.023-1.776.009-2.663a27.193,27.193,0,0,1,1.022-6.344c.283-1.011.612-2.01.964-3A49.3,49.3,0,0,1,64.4,70.983M60.087,82.651l-.021-.017a.872.872,0,0,0-.045-.114h0c.021.043.042.086.062.129m-.04-3.637.038-.034c-.01.058-.02.115-.027.174,0-.046-.008-.093-.011-.14m-3.2-15.575a35.494,35.494,0,0,1,.4-4.659c.393.478.779.961,1.152,1.454a44.124,44.124,0,0,1,3.41,5.267,27.362,27.362,0,0,0-1.857,6.123,32,32,0,0,0-.626,6.555c-.03.011-.062.018-.092.028a43.231,43.231,0,0,1-1.6-5.833,41.219,41.219,0,0,1-.779-8.936M50.783,54.18a1.744,1.744,0,0,1,1.424-.226,5.714,5.714,0,0,1,2.172,1.654c.839.839,1.639,1.717,2.406,2.621a.309.309,0,0,0-.016.047,46.3,46.3,0,0,0-.256,9.09,42,42,0,0,0,1.708,8.918c.207.681.438,1.353.685,2.018a4.611,4.611,0,0,1-.857.119c-.4-.482-.786-.971-1.155-1.478a33.33,33.33,0,0,1-3-5.009A32.407,32.407,0,0,1,50.783,54.18m-.945.853,0,0c.079-.1.165-.2.255-.29A33.439,33.439,0,0,0,51.22,65.858a35.064,35.064,0,0,0,4.915,10.651c.448.65.92,1.29,1.416,1.912a5.626,5.626,0,0,1-1.132-.164,8.364,8.364,0,0,1-1.793-.719c-.286-.149-.562-.32-.85-.466l-.112-.056a21.613,21.613,0,0,1-2-2.087,19.848,19.848,0,0,1-1.507-2.076,15.8,15.8,0,0,1-1.18-3.173,23.76,23.76,0,0,1-.111-9.75c.268-1.644.65-3.264.971-4.9m2.555,21.93a28.146,28.146,0,0,0-3.1-1.307,20.231,20.231,0,0,0-9.886-.988c.3-.152.6-.3.894-.462q1.307-.712,2.551-1.532a12.7,12.7,0,0,0,2.336-1.808l.059-.114.018-.007.019,0,.12-.021a.524.524,0,0,0,.282-.136c.526.226,1.059.431,1.6.61.38.126.764.231,1.152.326a19.661,19.661,0,0,0,1.573,2.647,22.018,22.018,0,0,0,2.378,2.8M49.329,55.795c-.284,1.177-.527,2.365-.74,3.555a33.356,33.356,0,0,0-.561,5.285,21.043,21.043,0,0,0,.468,4.9,17.4,17.4,0,0,1-1.07-4.392,16.4,16.4,0,0,1,.284-5.25,13.109,13.109,0,0,1,1.6-4.1.122.122,0,0,0,.023,0m-6.07-14.885a1.938,1.938,0,0,1,1.05.356,7.932,7.932,0,0,1,1.866,2.3c2.18,3.357,3.892,7.481,2.634,11.46-.1.148-.191.3-.278.449a14.63,14.63,0,0,0-1.151,2.514,16.471,16.471,0,0,0-.883,5.5,18.107,18.107,0,0,0,1.065,5.948,6.148,6.148,0,0,1-.318-.608c-.407-.9-.706-1.847-1.031-2.776-.731-2.09-1.477-4.182-2.08-6.313A42.063,42.063,0,0,1,42.4,47.191a29.129,29.129,0,0,1,.283-3.324q.117-.81.278-1.613c.091-.45.2-.9.3-1.344m-1.786.535c.037-.021.073-.046.111-.067a3.634,3.634,0,0,1,1.3-.452,16.03,16.03,0,0,0-.545,2.483,28.759,28.759,0,0,0-.328,3.083,35.566,35.566,0,0,0,.221,6.157,49.853,49.853,0,0,0,1.29,6.585c.578,2.214,1.187,4.417,1.913,6.588.372,1.112.707,2.259,1.188,3.33a6.627,6.627,0,0,0,.467.87l-.137-.054a5.079,5.079,0,0,0-.84-.607,24.507,24.507,0,0,1-3.153-3.489A22.8,22.8,0,0,1,40.1,44.462c.393-1.041.92-2.007,1.373-3.017m-3.528,3.267A13.081,13.081,0,0,1,40.356,42.2c-.255.533-.477,1.085-.686,1.623a23.82,23.82,0,0,0-.944,3.049A23.659,23.659,0,0,0,44.5,68.319c-.1-.065-.2-.126-.291-.192-.209-.142-.414-.291-.621-.436-.711-.656-1.413-1.323-2.087-2.017a22.986,22.986,0,0,1-4.1-5.515,16.38,16.38,0,0,1-1.056-11.9,14.409,14.409,0,0,1,1.594-3.549m-1.93,3.52a17.736,17.736,0,0,0-.816,5.117A13.6,13.6,0,0,0,35.282,55c-.062-.22-.125-.441-.182-.663-.063-.246-.111-.509-.163-.772a16,16,0,0,1,1.077-5.331m-6.692,4.385a15.178,15.178,0,0,1,4.2,3.632c.054.135.116.266.166.4.032.086.118.075.168.024.2.271.4.546.586.83q.08.364.175.724c-1.349-.946-2.675-1.926-3.926-3q-1.266-1.089-2.433-2.288-.574-.59-1.121-1.206c-.055-.062-.109-.129-.163-.2a13.99,13.99,0,0,1,2.35,1.079m-3.391-1.4c.238.3.524.586.772.862q.57.634,1.168,1.242,1.18,1.2,2.459,2.293A30.032,30.032,0,0,0,34.78,58.8a17.149,17.149,0,0,0,1.07,2.688c-1.077-.431-2.164-.838-3.235-1.283q-1.947-.808-3.845-1.727a66.349,66.349,0,0,1-7.5-4.267c-1.35-.889-2.644-1.848-3.946-2.8a.29.29,0,0,0-.041-.019,15.39,15.39,0,0,1,8.652-.176M14.221,52.754a14.032,14.032,0,0,1,2.617-1.217.306.306,0,0,0,.086.4,57.1,57.1,0,0,0,7.237,4.782A63.681,63.681,0,0,0,32,60.509a36.986,36.986,0,0,0,4.08,1.421c.041.076.084.151.126.227a8.3,8.3,0,0,0,1.525,2.824c-.578-.115-1.162-.208-1.736-.315-.965-.18-1.928-.367-2.889-.567-1.936-.4-3.86-.863-5.758-1.419a37.129,37.129,0,0,1-9.905-4.386,26.242,26.242,0,0,1-4.587-3.819.358.358,0,0,0-.1-.071,3.11,3.11,0,0,1,1.471-1.65m1.315,7.424a15.227,15.227,0,0,1-1.96-2.423,5.3,5.3,0,0,1-.925-2.525c5.045,5.32,12.428,7.73,19.428,9.139,1.122.226,2.247.431,3.374.626.873.151,1.762.338,2.651.436a12.636,12.636,0,0,0,1.5,1.387,56.869,56.869,0,0,1-13.039-.941,22.122,22.122,0,0,1-11.03-5.7m9.6,6.282.049-.018c4.646,1.241,9.51,1.319,14.294,1.267.443,0,.886-.012,1.329-.018q.227.15.459.294c-.849.059-1.688.212-2.528.345q-1.391.22-2.781.444-2.814.45-5.629.889a40.213,40.213,0,0,1-9.253.7,15.487,15.487,0,0,1-4.491-1.006,25.974,25.974,0,0,1,8.552-2.9m-12.765,6.2a5.632,5.632,0,0,1,1.645-1.636c.588-.443,1.2-.843,1.831-1.224a18.976,18.976,0,0,0,9.191,1.1c3.445-.316,6.857-1.025,10.266-1.6q1.615-.27,3.231-.542a28.048,28.048,0,0,0,3.006-.585A20.565,20.565,0,0,0,43.5,69.47a55.688,55.688,0,0,1-11.624,3.99,49.959,49.959,0,0,1-12.518,1.114,64.449,64.449,0,0,1-7.08-.727.292.292,0,0,0-.152.016,2.056,2.056,0,0,1,.246-1.2m14.114,4.915a33.975,33.975,0,0,1-9.955-.546c-1.527-.313-3.352-.753-4.135-2.26a2.758,2.758,0,0,1-.131-.3,46.917,46.917,0,0,0,12.575.508,52.381,52.381,0,0,0,12.429-2.591,43.178,43.178,0,0,0,6.487-2.765c.378.212.76.415,1.149.6a3.056,3.056,0,0,0-.349.173,2.1,2.1,0,0,0-.539.48c-.433.3-.854.618-1.291.916q-1.007.686-2.063,1.3a34.621,34.621,0,0,1-4.525,2.181,35.067,35.067,0,0,1-9.652,2.3m6.272.868a13.662,13.662,0,0,1,4.755-2.486,18.684,18.684,0,0,1,10.719.158,27.2,27.2,0,0,1,5.389,2.3q.671.372,1.322.773A26.764,26.764,0,0,0,57.9,81.125l.173.118a34.473,34.473,0,0,0-4.453-1.391,47.7,47.7,0,0,0-5.5-1.028A50.264,50.264,0,0,0,37.1,78.664a47.027,47.027,0,0,0-5.406.846,8.056,8.056,0,0,1,1.065-1.067m-1.578,1.78a50.663,50.663,0,0,1,21.589,0c1.747.382,3.464.879,5.18,1.379-3.223-.233-6.461.432-9.661.761a65.158,65.158,0,0,1-11.512.109c-2.063-.154-4.127-.3-6.189-.472a4.078,4.078,0,0,1,.593-1.78m2.237,7.355c-.091-.1-.188-.19-.276-.29a9.066,9.066,0,0,1-2.532-4.55c3.711.277,7.415.442,11.138.434,1.891,0,3.782-.073,5.666-.238,1.857-.164,3.7-.452,5.547-.679a39,39,0,0,1,5.144-.33c-.625.264-1.242.546-1.841.863-1.331.451-2.631,1.013-3.941,1.511q-2.35.893-4.715,1.743c-1.545.552-3.095,1.1-4.662,1.59a18.281,18.281,0,0,1-4.728.926,9.26,9.26,0,0,1-4.635-.959.229.229,0,0,0-.164-.021m3.6,2.861A13.622,13.622,0,0,1,34.4,88.552a12.925,12.925,0,0,0,7.686-.183c1.635-.456,3.238-1.033,4.838-1.6S50.119,85.621,51.7,85c.8-.313,1.623-.618,2.435-.942a23.875,23.875,0,0,0-5.1,4.631c-.06.057-.124.111-.184.168-.348.315-.71.643-1.038,1-.271.235-.547.464-.833.682-.162.124-.327.242-.493.361l-.049.036a10.516,10.516,0,0,1-9.421-.5m7.336,16.486a21.065,21.065,0,0,1,.2-7.252,24,24,0,0,1,2.416-6.887,22.738,22.738,0,0,1,1.88-2.94c.132-.132.259-.269.394-.4q1.109-1.069,2.31-2.038c1.266-1.02,2.613-1.927,3.964-2.829a8.318,8.318,0,0,1,2.517-.676,67.544,67.544,0,0,0-5.786,7.879,70.715,70.715,0,0,0-5.592,10.761c-.745,1.823-1.439,3.685-2.01,5.575a7.642,7.642,0,0,1-.3-1.195m1.637,3.2a3.6,3.6,0,0,1-.908-1.039A83.361,83.361,0,0,1,49.4,98.013a73.353,73.353,0,0,1,6.25-10.423c.9-1.259,1.846-2.487,2.826-3.686.052,0,.1,0,.156.007a1.055,1.055,0,0,0,.351.1,1.1,1.1,0,0,0,.155,0,2.674,2.674,0,0,1,.316.118,52.132,52.132,0,0,1-2.269,9.768,46.485,46.485,0,0,1-5.627,11.378,52.218,52.218,0,0,1-4.344,5.454,3.724,3.724,0,0,1-1.222-.6m7.923-.978a10.016,10.016,0,0,1-5.05,1.781,5.776,5.776,0,0,1-.835-.034A49.364,49.364,0,0,0,54.816,100.7a48.836,48.836,0,0,0,4.264-12.032,41.726,41.726,0,0,0,.672-4.391A4.023,4.023,0,0,1,61.1,85.631a19.2,19.2,0,0,1,.213,7.4,30.974,30.974,0,0,1-3.969,10.53c-.518.9-1.062,1.779-1.622,2.651-.58.9-1.217,1.776-1.769,2.7a.308.308,0,0,0-.04.232m8.374-14.127c-.072.8-.136,1.6-.268,2.391-.03.181-.067.361-.1.541a22.183,22.183,0,0,1-6.829,10.347c.32-.492.628-.995.937-1.49q.75-1.2,1.455-2.434a44.139,44.139,0,0,0,2.595-5.241A23.461,23.461,0,0,0,61.855,88c-.038-.4-.095-.788-.16-1.179a11.855,11.855,0,0,1,.731,3.875,32.59,32.59,0,0,1-.142,4.32m9.966,7.86a29.065,29.065,0,0,1-8.271-8.355c-.142-.216-.283-.428-.428-.637A16.228,16.228,0,0,0,62.2,84.168c.619.575,1.238,1.149,1.829,1.752,1.344,1.372,2.619,2.812,3.826,4.3a60.741,60.741,0,0,1,6.389,9.491q.761,1.423,1.447,2.883.342.73.666,1.469c.188.428.361.868.582,1.28a23.866,23.866,0,0,1-4.688-2.472m8.522,2.759a4.385,4.385,0,0,1-3.1-.037c-.143-.045-.285-.1-.427-.147a14.892,14.892,0,0,0-1.024-2.578q-.6-1.339-1.269-2.648c-.871-1.71-1.814-3.386-2.814-5.025a57.833,57.833,0,0,0-7.054-9.231c-.65-.7-1.31-1.386-1.99-2.054q1.285.853,2.518,1.783a54.64,54.64,0,0,1,4.752,4.04,50.445,50.445,0,0,1,7.865,9.579,64.051,64.051,0,0,1,3.219,5.864,2.544,2.544,0,0,1-.671.453m1.541-1.837a3.469,3.469,0,0,1-.707,1.221,47.644,47.644,0,0,0-6.181-10.325,52.416,52.416,0,0,0-8.8-8.992q-1.379-1.1-2.832-2.1c-.232-.161-.465-.323-.7-.484.413.025.825.058,1.237.095.656.265,1.307.541,1.948.841a40.981,40.981,0,0,1,5.205,2.936,36.687,36.687,0,0,1,8.888,8.176A12.339,12.339,0,0,1,82.246,98.5a10.443,10.443,0,0,1,.068,5.3m-2-10.981a21.916,21.916,0,0,1,1.565,4.121q-.212-.4-.445-.775A29.45,29.45,0,0,0,77.269,91.1a38.634,38.634,0,0,0-9.893-7.234c-.2-.1-.4-.193-.6-.291.605.106,1.214.194,1.823.254.358.075.717.147,1.077.2a.261.261,0,0,0,.255.116c.166-.015.332-.037.5-.059.495.18.985.373,1.469.589a16.788,16.788,0,0,1,4.963,3.337,18.219,18.219,0,0,1,3.455,4.8" transform="translate(0 0)" fill="#5f5c7c"/>
      <path id="Path_450879" data-name="Path 450879" d="M46.374,70.164a1,1,0,0,0-.7-.581c-.012,0-.022,0-.034,0a.446.446,0,0,0-.375-.013.622.622,0,0,0-.421.25,1.283,1.283,0,0,0-.175.812,1.322,1.322,0,0,0,.758,1.245.836.836,0,0,0,.832-.173,1.02,1.02,0,0,0,.335-.738,1.642,1.642,0,0,0-.219-.8" transform="translate(-22.931 -35.7)" fill="#e2d6d3"/>
      <path id="Path_450880" data-name="Path 450880" d="M49.523,76.881a.971.971,0,0,0-.043-.17.372.372,0,0,0-.025-.065.9.9,0,0,0-.226-.287.63.63,0,0,0-.106-.068.667.667,0,0,0-.116-.059.846.846,0,0,0-.366-.046.743.743,0,0,0-.173.045.764.764,0,0,0-.162.09.5.5,0,0,0-.073.066l-.006,0a.413.413,0,0,0-.059.045.951.951,0,0,0-.215.279.367.367,0,0,0-.029.067.911.911,0,0,0-.044.179.8.8,0,0,0,.044.354.372.372,0,0,0,.024.059,1.029,1.029,0,0,0,.091.15l.008.008a.522.522,0,0,0,.045.054s0,.008.005.012a.25.25,0,0,0,.1.082l.006,0,.015.012a.851.851,0,0,0,.217.111,1.171,1.171,0,0,0,.173.043,1.046,1.046,0,0,0,.183,0,.408.408,0,0,0,.064-.008.879.879,0,0,0,.177-.054.709.709,0,0,0,.2-.13.788.788,0,0,0,.211-.281.868.868,0,0,0,.075-.243.413.413,0,0,0,.007-.065,1.174,1.174,0,0,0,0-.185" transform="translate(-24.579 -39.112)" fill="#e2d6d3"/>
      <path id="Path_450881" data-name="Path 450881" d="M45.993,76.055l-.014-.03-.006-.014,0,0-.041-.069a.333.333,0,0,0-.132-.1l-.074-.039a.236.236,0,0,0-.125-.021.231.231,0,0,0-.121.023.239.239,0,0,0-.1.07.236.236,0,0,0-.069.1c-.007.027-.015.055-.021.082a.314.314,0,0,0,.023.163l.041.07a.321.321,0,0,0,.128.1l.074.036a.312.312,0,0,0,.193.018l.035-.007a.265.265,0,0,0,.127-.055.2.2,0,0,0,.066-.079.2.2,0,0,0,.036-.1.271.271,0,0,0-.02-.14" transform="translate(-23.25 -38.904)" fill="#e2d6d3"/>
      <path id="Path_450882" data-name="Path 450882" d="M66.351,83.064a.938.938,0,0,0-.511-.51c-.024-.01-.05-.015-.075-.022a.635.635,0,0,0-.122-.073l-.008,0a.3.3,0,0,0-.168-.125.27.27,0,0,0-.3.114.789.789,0,0,0-.294.149,1.324,1.324,0,0,0-.36.558,1.538,1.538,0,0,0-.106.653.9.9,0,0,0,.342.629.988.988,0,0,0,.692.19,1.12,1.12,0,0,0,.918-.781,1.156,1.156,0,0,0-.012-.779" transform="translate(-33.067 -42.264)" fill="#e2d6d3"/>
    </g>
  </g>
</svg>
