<svg xmlns="http://www.w3.org/2000/svg" xmlns:xlink="http://www.w3.org/1999/xlink" width="370" height="91.999" viewBox="0 0 370 91.999"><defs><linearGradient id="a" x1="0.5" x2="0.5" y2="1" gradientUnits="objectBoundingBox"><stop offset="0" stop-color="#97f"/><stop offset="1" stop-color="#89f"/></linearGradient></defs><g transform="translate(-336.317 -162)"><g transform="translate(396.477 162)"><path d="M334.956,181.557H277.924a3.961,3.961,0,0,1-3.979-3.942l3.979-31.535a3.961,3.961,0,0,1,3.979-3.942H327a3.961,3.961,0,0,1,3.979,3.942l-.331,2.956H304.781v10.707a7.5,7.5,0,0,0-10.079,3.088,7.357,7.357,0,0,0,3.117,9.986,7.5,7.5,0,0,0,10.079-3.088,7.338,7.338,0,0,0,.845-2.954h.016v-13.8H330.2l-2.41,21.483,7.162,7.1Z" transform="translate(-273.945 -142.138)" fill="url(#a)"/><g transform="translate(69.83 16.26)"><path d="M359.4,181.3a1.2,1.2,0,0,1-1.309-1.479l1.527-12.318a4.519,4.519,0,0,0-.763-3.277,3.861,3.861,0,0,0-3.382-1.4,4.919,4.919,0,0,0-3.73,1.4,5.644,5.644,0,0,0-1.575,3.277l-1.527,12.318a1.588,1.588,0,0,1-1.675,1.479h-1.492a1.2,1.2,0,0,1-1.309-1.479l1.527-12.318a9.643,9.643,0,0,1,1.092-3.4,10.326,10.326,0,0,1,9.208-5.468,9.01,9.01,0,0,1,3.691.713,7.235,7.235,0,0,1,4.16,4.755,8.391,8.391,0,0,1,.251,3.4l-1.527,12.318a1.588,1.588,0,0,1-1.675,1.479Z" transform="translate(-344.146 -158.638)" fill="url(#a)"/><path d="M381.9,181.311a1.233,1.233,0,0,1-1.039-.443,1.3,1.3,0,0,1-.276-.986c.024-.2-.035-.319-.178-.37a.42.42,0,0,0-.445.173,5.889,5.889,0,0,1-2.253,1.527,8.872,8.872,0,0,1-3.38.591,7.223,7.223,0,0,1-3.1-.642,5.99,5.99,0,0,1-2.261-1.822,7.484,7.484,0,0,1-1.29-2.833,10.228,10.228,0,0,1-.148-3.623l.544-4.384a10.648,10.648,0,0,1,3.482-6.627,11.213,11.213,0,0,1,3.257-2,10.386,10.386,0,0,1,3.921-.739h7.411a1.2,1.2,0,0,1,1.309,1.478l-2.381,19.215a1.588,1.588,0,0,1-1.675,1.479Zm.675-17.492c.041-.328-.105-.493-.437-.493h-3.73a5.528,5.528,0,0,0-4.043,1.527,6.007,6.007,0,0,0-1.819,3.646l-.6,4.878a3.862,3.862,0,0,0,.74,3.054,3.612,3.612,0,0,0,2.962,1.183,5.684,5.684,0,0,0,2.371-.467,5.606,5.606,0,0,0,1.772-1.256,6.505,6.505,0,0,0,1.187-1.75,6.733,6.733,0,0,0,.571-2Z" transform="translate(-344.269 -158.645)" fill="url(#a)"/><path d="M392.23,171.325a1.2,1.2,0,0,1-1.309-1.477l.153-1.232a1.586,1.586,0,0,1,1.675-1.479h7.958a1.2,1.2,0,0,1,1.309,1.479l-.153,1.232a1.583,1.583,0,0,1-1.675,1.477Z" transform="translate(-344.393 -158.762)" fill="url(#a)"/><path d="M406.471,181.311a1.2,1.2,0,0,1-1.309-1.479l1.558-12.565a9.441,9.441,0,0,1,2.815-5.864,8.462,8.462,0,0,1,6.1-2.266h1.79a1.2,1.2,0,0,1,1.309,1.478l-.152,1.232a1.586,1.586,0,0,1-1.676,1.478h-1.492a3.808,3.808,0,0,0-2.953,1.157,5.314,5.314,0,0,0-1.3,3.03l-1.527,12.318a1.588,1.588,0,0,1-1.675,1.479Z" transform="translate(-344.468 -158.645)" fill="url(#a)"/><path d="M433.151,181.311a1.23,1.23,0,0,1-1.039-.443,1.293,1.293,0,0,1-.276-.986c.025-.2-.035-.319-.177-.37a.421.421,0,0,0-.446.173,5.893,5.893,0,0,1-2.252,1.527,8.873,8.873,0,0,1-3.381.591,7.223,7.223,0,0,1-3.1-.642,6,6,0,0,1-2.261-1.822,7.484,7.484,0,0,1-1.29-2.833,10.227,10.227,0,0,1-.148-3.623l.544-4.384a10.662,10.662,0,0,1,3.481-6.627,11.206,11.206,0,0,1,3.258-2,10.377,10.377,0,0,1,3.92-.739h7.411a1.2,1.2,0,0,1,1.31,1.478l-2.382,19.215a1.586,1.586,0,0,1-1.675,1.479Zm.675-17.492q.061-.492-.436-.493h-3.73a5.53,5.53,0,0,0-4.045,1.527A6.013,6.013,0,0,0,423.8,168.5l-.6,4.878a3.854,3.854,0,0,0,.74,3.054,3.609,3.609,0,0,0,2.961,1.183,5.477,5.477,0,0,0,4.144-1.724,6.5,6.5,0,0,0,1.186-1.75,6.7,6.7,0,0,0,.571-2Z" transform="translate(-344.539 -158.645)" fill="url(#a)"/><path d="M443.478,171.325a1.194,1.194,0,0,1-1.308-1.477l.152-1.232A1.586,1.586,0,0,1,444,167.137h7.958a1.2,1.2,0,0,1,1.308,1.479l-.152,1.232a1.585,1.585,0,0,1-1.676,1.477Z" transform="translate(-344.663 -158.762)" fill="url(#a)"/><path d="M472.474,160.616a1.585,1.585,0,0,1,1.675-1.478h1.492a1.2,1.2,0,0,1,1.309,1.478l-1.527,12.318a9.94,9.94,0,0,1-1.068,3.4,10.064,10.064,0,0,1-5.239,4.756,10.109,10.109,0,0,1-3.844.714,8.815,8.815,0,0,1-3.667-.714,7.468,7.468,0,0,1-2.622-1.923,7.15,7.15,0,0,1-1.489-2.833,8.7,8.7,0,0,1-.225-3.4l1.527-12.318a1.585,1.585,0,0,1,1.675-1.478h1.492a1.2,1.2,0,0,1,1.309,1.478l-1.527,12.318a4.651,4.651,0,0,0,.712,3.276,3.721,3.721,0,0,0,3.333,1.4,4.671,4.671,0,0,0,3.656-1.4,5.857,5.857,0,0,0,1.5-3.276Z" transform="translate(-344.743 -158.645)" fill="url(#a)"/><path d="M493.9,181.3a1.2,1.2,0,0,1-1.31-1.479l1.527-12.318a4.518,4.518,0,0,0-.762-3.277,3.863,3.863,0,0,0-3.383-1.4,4.921,4.921,0,0,0-3.73,1.4,5.655,5.655,0,0,0-1.575,3.277l-1.527,12.318a1.586,1.586,0,0,1-1.674,1.479h-1.492a1.2,1.2,0,0,1-1.31-1.479l1.527-12.318a9.644,9.644,0,0,1,1.093-3.4,10.377,10.377,0,0,1,2.216-2.833,10.5,10.5,0,0,1,3.122-1.922,10.316,10.316,0,0,1,3.869-.713,9,9,0,0,1,3.69.713,7.232,7.232,0,0,1,4.161,4.755,8.392,8.392,0,0,1,.25,3.4l-1.527,12.318a1.586,1.586,0,0,1-1.674,1.479Z" transform="translate(-344.856 -158.638)" fill="url(#a)"/><path d="M511.609,181.8a10.593,10.593,0,0,1-4.438-.912,9.915,9.915,0,0,1-5.453-6.16,10.515,10.515,0,0,1-.362-4.509,12.147,12.147,0,0,1,1.479-4.507,14.116,14.116,0,0,1,6.98-6.16,12.231,12.231,0,0,1,4.665-.911,10.606,10.606,0,0,1,4.438.911,9.908,9.908,0,0,1,5.453,6.16,10.513,10.513,0,0,1,.361,4.507,12.127,12.127,0,0,1-1.478,4.509,14.1,14.1,0,0,1-6.98,6.16A12.211,12.211,0,0,1,511.609,181.8Zm.519-4.189a7.429,7.429,0,0,0,2.933-.59,8.849,8.849,0,0,0,2.483-1.578,8.4,8.4,0,0,0,1.806-2.34,8.3,8.3,0,0,0,.9-2.883,7.28,7.28,0,0,0-.189-2.881,6.025,6.025,0,0,0-1.227-2.34,6.271,6.271,0,0,0-2.092-1.577,6.4,6.4,0,0,0-2.787-.591,7.4,7.4,0,0,0-2.932.591,8.81,8.81,0,0,0-2.484,1.577,8.4,8.4,0,0,0-1.806,2.34,8.31,8.31,0,0,0-.905,2.881,7.277,7.277,0,0,0,.19,2.883,6,6,0,0,0,1.227,2.34,6.257,6.257,0,0,0,2.093,1.578A6.405,6.405,0,0,0,512.128,177.607Z" transform="translate(-344.975 -158.638)" fill="url(#a)"/></g><g transform="translate(83.565)"><path d="M366.174,144.726V145.8c0,4.078-2.1,6.145-6.622,6.145h-1.36v-1.04h1.336c3.973,0,5.548-1.714,5.548-5.188v-.993h-7.122v-1.063h7.122V142.15h1.1v1.513h1.873v1.063Z" transform="translate(-357.954 -142.138)" fill="url(#a)"/><path d="M393.954,143.382V142.33h9.974v1.051Zm3.067,8.6h-2.315v-1.051h2.266c3.783,0,5.786-.851,5.786-4.2v-.673h-8.78v-1.041h9.95v1.643C403.928,150.7,401.482,151.986,397.021,151.986Z" transform="translate(-358.144 -142.141)" fill="url(#a)"/><path d="M433.1,151.971h-1.646v-1.052H433.1c3.269,0,5.679-.911,5.679-4.48v-2.269h-7.671v3.652h-1.074V143.13h4.343v-.992h1.074v.992h4.414v3.356C439.869,150.565,437.221,151.971,433.1,151.971Z" transform="translate(-358.335 -142.138)" fill="url(#a)"/><path d="M466.315,147.71v-1.123h9.293v1.123Z" transform="translate(-358.526 -142.203)" fill="url(#a)"/><path d="M502,151.983v-1.075a8.506,8.506,0,0,0,7.945-8.722h1.146C511.094,146.4,508.7,151.275,502,151.983Z" transform="translate(-358.715 -142.139)" fill="url(#a)"/></g></g><g transform="translate(336.317 218.805)"><g transform="translate(100.375)"><path d="M367.005,193.084a1.961,1.961,0,0,1-1.567-.6,2.013,2.013,0,0,1-.4-1.647l2.288-18.721a6.942,6.942,0,0,0-1.143-4.98Q364.7,165,361.119,165a7.317,7.317,0,0,0-5.591,2.133,8.625,8.625,0,0,0-2.36,4.98l-2.288,18.721a2.531,2.531,0,0,1-.8,1.647,2.46,2.46,0,0,1-1.711.6h-2.236a1.961,1.961,0,0,1-1.567-.6,2.013,2.013,0,0,1-.4-1.647l2.288-18.721a14.8,14.8,0,0,1,1.637-5.167,15.471,15.471,0,0,1,8-7.226,15.259,15.259,0,0,1,5.8-1.084,13.342,13.342,0,0,1,5.533,1.084,11.209,11.209,0,0,1,3.966,2.92,11.335,11.335,0,0,1,2.269,4.306,12.924,12.924,0,0,1,.376,5.167l-2.288,18.721a2.531,2.531,0,0,1-.8,1.647,2.461,2.461,0,0,1-1.711.6Z" transform="translate(-344.146 -158.638)" fill="url(#a)"/><path d="M389.118,192.836a1.837,1.837,0,0,1-1.558-.674,1.99,1.99,0,0,1-.413-1.5c.036-.3-.052-.485-.267-.562s-.438.013-.666.264a8.822,8.822,0,0,1-3.377,2.321,13.133,13.133,0,0,1-5.066.9,10.7,10.7,0,0,1-4.653-.975,9,9,0,0,1-3.389-2.769,11.448,11.448,0,0,1-1.934-4.306,15.755,15.755,0,0,1-.222-5.505l.815-6.663a16.1,16.1,0,0,1,1.72-5.541,15.816,15.816,0,0,1,3.5-4.53,16.766,16.766,0,0,1,4.881-3.033,15.377,15.377,0,0,1,5.877-1.123h11.107a1.967,1.967,0,0,1,1.567.6,2.025,2.025,0,0,1,.4,1.647l-3.569,29.2a2.531,2.531,0,0,1-.8,1.647,2.46,2.46,0,0,1-1.711.6Zm1.012-26.584c.061-.5-.158-.749-.654-.749h-5.591a8.222,8.222,0,0,0-6.06,2.321,9.178,9.178,0,0,0-2.727,5.541l-.906,7.413a5.931,5.931,0,0,0,1.109,4.641,5.378,5.378,0,0,0,4.44,1.8,8.149,8.149,0,0,0,6.209-2.619,9.886,9.886,0,0,0,1.779-2.66,10.336,10.336,0,0,0,.856-3.033Z" transform="translate(-332.715 -158.389)" fill="url(#a)"/><path d="M392.891,173.5a1.966,1.966,0,0,1-1.565-.6,2.019,2.019,0,0,1-.4-1.647l.23-1.872a2.527,2.527,0,0,1,.8-1.647,2.469,2.469,0,0,1,1.713-.6H405.6a1.968,1.968,0,0,1,1.567.6,2.031,2.031,0,0,1,.4,1.647l-.23,1.872a2.53,2.53,0,0,1-.8,1.647,2.477,2.477,0,0,1-1.713.6Z" transform="translate(-321.194 -154.408)" fill="url(#a)"/><path d="M407.133,192.836a1.961,1.961,0,0,1-1.567-.6,2.013,2.013,0,0,1-.4-1.647l2.335-19.1a14.427,14.427,0,0,1,4.219-8.911,12.584,12.584,0,0,1,9.142-3.443h2.683a1.967,1.967,0,0,1,1.567.6,2.025,2.025,0,0,1,.4,1.647l-.228,1.872a2.539,2.539,0,0,1-.8,1.647,2.468,2.468,0,0,1-1.713.6h-2.236a5.667,5.667,0,0,0-4.426,1.758,8.133,8.133,0,0,0-1.941,4.605l-2.288,18.721a2.531,2.531,0,0,1-.8,1.647,2.461,2.461,0,0,1-1.712.6Z" transform="translate(-314.204 -158.389)" fill="url(#a)"/><path d="M440.367,192.836a1.833,1.833,0,0,1-1.556-.674,1.984,1.984,0,0,1-.414-1.5c.037-.3-.052-.485-.265-.562s-.438.013-.668.264a8.828,8.828,0,0,1-3.375,2.321,13.136,13.136,0,0,1-5.067.9,10.7,10.7,0,0,1-4.653-.975,9.014,9.014,0,0,1-3.389-2.769,11.447,11.447,0,0,1-1.934-4.306,15.756,15.756,0,0,1-.222-5.505l.815-6.663a16.074,16.074,0,0,1,1.722-5.541,15.786,15.786,0,0,1,3.5-4.53,16.756,16.756,0,0,1,4.882-3.033,15.364,15.364,0,0,1,5.875-1.123h11.107a1.965,1.965,0,0,1,1.567.6,2.031,2.031,0,0,1,.4,1.647l-3.571,29.2a2.537,2.537,0,0,1-.8,1.647,2.467,2.467,0,0,1-1.713.6Zm1.012-26.584q.092-.748-.653-.749h-5.591a8.225,8.225,0,0,0-6.062,2.321,9.186,9.186,0,0,0-2.727,5.541l-.9,7.413a5.919,5.919,0,0,0,1.109,4.641,5.372,5.372,0,0,0,4.438,1.8A8.155,8.155,0,0,0,437.2,184.6a9.887,9.887,0,0,0,1.777-2.66,10.3,10.3,0,0,0,.856-3.033Z" transform="translate(-307.559 -158.389)" fill="url(#a)"/></g><g transform="translate(0 7.741)"><g style="isolation:isolate"><g style="isolation:isolate"><path d="M123.506,455.175a16.146,16.146,0,0,0-2.734.144l.189-1.539H118.3a11.821,11.821,0,0,0,.407-2.148l.263-2.147a18.219,18.219,0,0,0,.15-2.177,30.913,30.913,0,0,0,3.164.116H129.8l.082-.669a9.012,9.012,0,0,0,.049-1.828h3.555a9.334,9.334,0,0,0-.368,1.828l-.081.669h7.917c1.474,0,2.229-.029,3.222-.116a17.4,17.4,0,0,0-.375,2.118l-.27,2.206a16.123,16.123,0,0,0-.147,2.148h-2.658l-.189,1.539a16.049,16.049,0,0,0-2.727-.144H132c-.143.929-.143.929-.253,1.6h5.4a18.026,18.026,0,0,0,2.586-.116l-.337,2.758a18.407,18.407,0,0,0-2.558-.116h-5.577c-.175.726-.233.958-.423,1.568h9.016a20.051,20.051,0,0,0,2.994-.145l-.373,3.048a24.522,24.522,0,0,0-3.1-.174h-7.369a8.207,8.207,0,0,0,2.389,2.438A16.06,16.06,0,0,0,139.248,468c.7.2,1.571.378,3.126.669a13.541,13.541,0,0,0-1.886,3.134,25.347,25.347,0,0,1-5.2-1.683,12.852,12.852,0,0,1-6.175-5.516,13.632,13.632,0,0,1-4.776,4.558,21.025,21.025,0,0,1-7.371,2.613,8.35,8.35,0,0,0-1.162-3.019,19.346,19.346,0,0,0,6.487-1.771,10.193,10.193,0,0,0,4.085-3.4h-6.387a26.813,26.813,0,0,0-3.113.174l.373-3.048a18.229,18.229,0,0,0,2.9.145h7.571c.183-.552.28-.871.452-1.568h-4.884a19.287,19.287,0,0,0-2.614.116l.337-2.758a17.837,17.837,0,0,0,2.586.116h5.086c.127-.813.127-.813.223-1.6Zm5.745-2.556a13.9,13.9,0,0,0,.112-1.858h3.352a10.134,10.134,0,0,0-.343,1.858h5.751c1.1,0,1.564-.028,2.294-.087l.291-2.38H121.895l-.291,2.38a19.543,19.543,0,0,0,2.215.087Z" transform="translate(-115.806 -444.578)" fill="#191a1a"/><path d="M160.666,452.433a10.383,10.383,0,0,1,1.4,1.335,14.022,14.022,0,0,0,1-1.045,9.668,9.668,0,0,0-1.586-1.219l1.589-1.887a12.031,12.031,0,0,1,1.5,1.161,18.54,18.54,0,0,0,1.072-1.915h-2.716a26.8,26.8,0,0,1-4.941,5.2,9.007,9.007,0,0,0-.705-2.032l-1.662,3.193a7.992,7.992,0,0,1,1.5,3.774,7.67,7.67,0,0,1-.039,2.206c-.251,2.061-1.084,3.426-2.393,3.976a5.405,5.405,0,0,1-2.059.291H152.2c.224-1.83.212-2.206-.158-2.962a9.5,9.5,0,0,0,1.088.088c.75,0,1.136-.552,1.278-1.713a7.874,7.874,0,0,0-.1-2.468,6.852,6.852,0,0,0-1.47-3.106,27.53,27.53,0,0,0,2.929-6.706h-2.341l-2.384,19.509c-.189,1.538-.283,2.786-.325,3.6h-3.15a30.283,30.283,0,0,0,.614-3.6l2.395-19.6a24.419,24.419,0,0,0,.228-2.816,12.1,12.1,0,0,0,1.923.116h3.5a12.136,12.136,0,0,0,2.094-.116l1.243,1.655a4.577,4.577,0,0,0-.521.959c-.238.523-.745,1.6-1.179,2.554a18.077,18.077,0,0,0,4.074-5.2,3.283,3.283,0,0,0,.453-1.1l2.977.465a4.832,4.832,0,0,0-.539.87c-.036.059-.036.059-.223.406h1.445a21.081,21.081,0,0,0,2.38-.087,11.393,11.393,0,0,0,1.981,5.545,15.1,15.1,0,0,0,2.4-2.845h-2.282a11.224,11.224,0,0,0-1.253.087l.351-2.873a11.206,11.206,0,0,0,1.719.116h1.994a9.778,9.778,0,0,0,1.951-.116l1.16,1.857a15.355,15.355,0,0,0-1.148,1.6,28.683,28.683,0,0,1-3.383,4.034,12.668,12.668,0,0,0,4.2,2.961,12.57,12.57,0,0,0-1.9,3.048,17.358,17.358,0,0,1-3.376-2.642l-.206,1.684a11.874,11.874,0,0,0-1.752-.087H163.5a13.57,13.57,0,0,0-1.629.087l.2-1.6a23.2,23.2,0,0,1-3.591,2.671,6.3,6.3,0,0,0-1.271-2.381,23.729,23.729,0,0,0,2.929-1.974,6.048,6.048,0,0,0-1.289-1.276Zm.96,12.483a22.061,22.061,0,0,1-5.787,6.213,7.3,7.3,0,0,0-1.8-2.264c2.918-1.887,3.737-2.671,5.309-5.138Zm-1.334-1.858a17.019,17.019,0,0,0-2.557.116l.369-3.019a18.034,18.034,0,0,0,2.669.145h10.808a15.273,15.273,0,0,0,2.763-.145l-.373,3.048a22.877,22.877,0,0,0-2.7-.145H167l-.688,5.631c-.277,2.265-1.035,2.787-3.982,2.787-.491,0-1.3-.028-2.359-.087a7.946,7.946,0,0,0-.343-3.106,17.426,17.426,0,0,0,2.963.349c.665,0,.827-.146.9-.726l.592-4.848Zm9.538-7.113a14.868,14.868,0,0,1-2.76-5.08,17.91,17.91,0,0,1-3.77,5.08h6.53Zm.953,7.809a10.574,10.574,0,0,0,3.648,4.674,14.345,14.345,0,0,0-2.021,2.584,15.1,15.1,0,0,1-4.283-6.1Z" transform="translate(-116.972 -444.566)" fill="#191a1a"/><path d="M180.954,470.311c.035-.523.027-.7.021-1.365a50.439,50.439,0,0,1,.31-8.679,59.3,59.3,0,0,1,2.572-11.35,20.814,20.814,0,0,0,.764-2.7l3.765.406A44.109,44.109,0,0,0,185.5,455.3a50.964,50.964,0,0,0-1.219,6.416c-.078.639-.135.871-.252,1.6A34.1,34.1,0,0,1,186,459.483l2.184,1.045c-2,3.367-3.395,6.735-3.647,8.8-.021.173-.049.406-.066.783Zm13.711-11.466c-1.651,1.684-2.41,2.932-2.563,4.18-.2,1.655,1.281,2.525,4.287,2.525a21.451,21.451,0,0,0,7.013-1.1l-.162,3.686a10.35,10.35,0,0,0-1.206.175,36.646,36.646,0,0,1-6.049.551c-3.583,0-5.8-.813-6.858-2.525a4.49,4.49,0,0,1-.519-2.846c.23-1.886,1.335-3.832,3.389-5.979Zm-3.594-9.609a20.048,20.048,0,0,0,5.289.464,32.939,32.939,0,0,0,7.956-.783l-.256,3.513c-.234.028-.675.087-2.084.26a52.588,52.588,0,0,1-6.227.349,33.437,33.437,0,0,1-5.162-.319Z" transform="translate(-118.197 -444.619)" fill="#191a1a"/></g></g><g transform="translate(253.15 0.785)" style="isolation:isolate"><g style="isolation:isolate"><path d="M365.6,456.477a16.128,16.128,0,0,0,3.074-.552,42.59,42.59,0,0,1,9.078-1.219c3.294,0,5.4.958,6.458,2.961a6.117,6.117,0,0,1,.611,3.745c-.472,3.861-3.571,7-8.343,8.447a30.088,30.088,0,0,1-6.4,1.1,8.325,8.325,0,0,0-.838-3.31h.432a26.422,26.422,0,0,0,4.157-.435,11.515,11.515,0,0,0,5.067-1.974,5.407,5.407,0,0,0,2.532-3.919c.277-2.264-1.25-3.484-4.314-3.484a33.917,33.917,0,0,0-7.738,1.132,20.1,20.1,0,0,0-3.473.987Z" transform="translate(-365.604 -445.679)" fill="#191a1a"/><path d="M391.109,449.293c.633.029.951.029,1.094.029.52,0,.52,0,4.8-.29,1.629-.086,6.459-.348,14.509-.726a16.964,16.964,0,0,0,3.358-.289l-.251,3.715a4.387,4.387,0,0,0-.6-.029,14.082,14.082,0,0,0-5.914,1.568c-3.9,1.916-6.426,4.819-6.784,7.751a4.206,4.206,0,0,0,3.265,4.732,16.428,16.428,0,0,0,4.213.755c.029,0,.29,0,.582-.029l-1,3.948a5.807,5.807,0,0,0-.961-.175,15.712,15.712,0,0,1-6.528-1.915,6.791,6.791,0,0,1-3.277-7,11.718,11.718,0,0,1,3.583-6.851,15.116,15.116,0,0,1,4.371-2.9c-2.384.348-3.522.436-9.849.9a43.467,43.467,0,0,0-4.868.58Z" transform="translate(-366.531 -445.462)" fill="#191a1a"/><path d="M423.46,446.862a16.853,16.853,0,0,0,2.9.144c1.734,0,4.32-.116,5.406-.26a2.411,2.411,0,0,0,1.2-.349l2.042,1.975a5.04,5.04,0,0,0-.756,1.218c-.188.349-2.6,5.69-2.973,6.59a21.3,21.3,0,0,1,6.163,1.829,33.22,33.22,0,0,0,.945-5.37,8.753,8.753,0,0,0,.072-1.54l3.624.145a10.006,10.006,0,0,0-.412,1.945,50.945,50.945,0,0,1-1.272,6.155c.869.465,2.059,1.132,2.89,1.655a8.857,8.857,0,0,0,1.245.7l-1.769,3.832a24.836,24.836,0,0,0-3.658-2.7,16.2,16.2,0,0,1-3.775,5.108,19.878,19.878,0,0,1-4.763,3.281,8.753,8.753,0,0,0-2.311-2.613,16.07,16.07,0,0,0,4.852-3.049,13.952,13.952,0,0,0,3.1-4.3,19.808,19.808,0,0,0-6.257-2,44.439,44.439,0,0,1-3.734,7.141c-1.3,1.858-2.707,2.759-4.3,2.759-2.66,0-4.336-2.352-3.95-5.516a8.5,8.5,0,0,1,4.36-6.358,11.2,11.2,0,0,1,5.631-1.393c1.032-2.293,1.514-3.4,2.563-6.066-1.488.116-2.186.144-5.032.26a22.93,22.93,0,0,0-2.3.175Zm-.822,13.818a4.669,4.669,0,0,0-1.439,2.787c-.146,1.19.374,2.148,1.154,2.148.549,0,1.046-.523,1.87-1.829a43.528,43.528,0,0,0,2.472-4.848A6.513,6.513,0,0,0,422.638,460.679Z" transform="translate(-367.525 -445.41)" fill="#191a1a"/><path d="M450.957,450.109a22.412,22.412,0,0,0,3.84.26c.347,0,.666,0,1.333-.029a37.655,37.655,0,0,0,1.091-4.441,4,4,0,0,0,.036-.523l3.771.347a18.383,18.383,0,0,0-.889,2.787c-.244.813-.295.988-.491,1.655a25.505,25.505,0,0,0,5.048-.87l-.263,3.338c-.235.029-.235.029-.943.145a41.039,41.039,0,0,1-4.814.61c-.538,1.8-1.637,4.877-2.711,7.519-1.206,3.019-1.876,4.471-4.411,9.608l-3.468-1.422a70.409,70.409,0,0,0,7.082-15.619,2.491,2.491,0,0,1-.379.029h-1.676c-.145,0-.434,0-.922-.029-.516-.029-.921-.029-1.152-.029a4.377,4.377,0,0,0-.552.029Zm12.956,11.263c-1.333,1.452-1.769,2.177-1.893,3.193-.181,1.48,1.171,2.235,4.061,2.235a23.309,23.309,0,0,0,6.691-1.075L472.6,469.3c-.527.057-.762.087-1.441.2a34.487,34.487,0,0,1-5.431.464,10.865,10.865,0,0,1-5.667-1.16,3.668,3.668,0,0,1-1.615-3.571c.188-1.539.9-2.845,2.752-5.022Zm9.047-3.8a29.339,29.339,0,0,0-3.616-.2,32.293,32.293,0,0,0-7.731.842l.13-3.193a38.328,38.328,0,0,1,8.724-.929c.78,0,1.04,0,2.858.029Z" transform="translate(-368.632 -445.377)" fill="#191a1a"/><path d="M480.538,463.417c.1-.61.167-.9.21-1.248.039-.32.039-.32.169-2.09l.8-9.87c.1-1.276.19-2.728.173-3.542h4.739c-.182.785-.483,2.293-.694,3.542l-1.611,9.87c-.267,1.713-.267,1.713-.316,2.119a10.341,10.341,0,0,0-.092,1.219Zm-1.182,6.358.486-3.977h4.189l-.486,3.977Z" transform="translate(-369.78 -445.419)" fill="#191a1a"/></g></g></g></g></g></svg>