<svg xmlns="http://www.w3.org/2000/svg" xmlns:xlink="http://www.w3.org/1999/xlink" width="299.445" height="267.947" viewBox="0 0 299.445 267.947">
  <defs>
    <linearGradient id="linear-gradient" y1="0.5" x2="1.213" y2="0.5" gradientUnits="objectBoundingBox">
      <stop offset="0" stop-color="#8ff"/>
      <stop offset="1" stop-color="#d8f"/>
    </linearGradient>
    <filter id="S" x="9.375" y="3.943" width="23" height="34" filterUnits="userSpaceOnUse">
      <feOffset dy="2" input="SourceAlpha"/>
      <feGaussianBlur stdDeviation="2.5" result="blur"/>
      <feFlood flood-opacity="0.102"/>
      <feComposite operator="in" in2="blur"/>
      <feComposite in="SourceGraphic"/>
    </filter>
    <filter id="Path_374" x="72.821" y="68.947" width="199.108" height="199" filterUnits="userSpaceOnUse">
      <feOffset input="SourceAlpha"/>
      <feGaussianBlur stdDeviation="4" result="blur-2"/>
      <feFlood flood-opacity="0.161"/>
      <feComposite operator="in" in2="blur-2"/>
      <feComposite in="SourceGraphic"/>
    </filter>
  </defs>
  <g id="chart" transform="translate(-475.125 -1294.557)">
    <g id="title" transform="translate(475.145 1293.957)">
      <g id="Group_425" data-name="Group 425" transform="translate(0)">
        <g id="Component_3_1" data-name="Component 3 – 1" transform="translate(46.435 16.584)">
          <text id="体験での評価" transform="translate(50.42 18.459)" fill="#222" font-size="21" font-family="YuGothic-Bold, Yu Gothic" font-weight="700" letter-spacing="0.1em"><tspan x="-50.075" y="0">体験</tspan><tspan y="0" font-size="13" letter-spacing="0.05em">での評価</tspan></text>
        </g>
        <g id="Component_5" data-name="Component 5" transform="translate(163.495 22.437)">
          <text id="_全6件_" data-name="(全6件)" transform="translate(24.36 10.606)" fill="#222" font-size="13" font-family="SegoeUI, Segoe UI" letter-spacing="0.1em"><tspan x="-23.027" y="0">(</tspan><tspan y="0" font-family="YuGothicUI-Regular, Yu Gothic UI">全</tspan><tspan y="0">6</tspan><tspan y="0" font-family="YuGothicUI-Regular, Yu Gothic UI">件</tspan><tspan y="0">)</tspan></text>
        </g>
        <g id="star" transform="translate(-0.02 0.599)">
          <path id="star-2" data-name="star" d="M20.227.374,13.906,11.752,0,14.28,10.114,24.394,7.585,37.036l12.642-6.321,11.378,6.321L29.077,24.394,39.191,14.28,25.284,11.752Z" transform="translate(0 -0.374)" fill="url(#linear-gradient)"/>
          <g transform="matrix(1, 0, 0, 1, 0, 0)" filter="url(#S)">
            <text id="S-2" data-name="S" transform="translate(20.87 24.44)" fill="#fff" font-size="14" font-family="SegoeUI-Bold, Segoe UI" font-weight="700"><tspan x="-3.924" y="0">S</tspan></text>
          </g>
          <text id="_5.0" data-name="5.0" transform="translate(18.875 51.443)" fill="#9be" font-size="14" font-family="SegoeUI-BoldItalic, Segoe UI" font-weight="700" font-style="italic"><tspan x="-9.963" y="0">5.0</tspan></text>
        </g>
      </g>
    </g>
    <g id="legend" transform="translate(528.503 1354.558)">
      <text id="コスパ" transform="translate(28.27 78.932)" fill="#222" font-size="11" font-family="YuGothicUI-Regular, Yu Gothic UI"><tspan x="-24.89" y="0">コスパ</tspan></text>
      <text id="カリキュラム" transform="translate(53 191.199)" fill="#222" font-size="11" font-family="YuGothicUI-Regular, Yu Gothic UI"><tspan x="-47.287" y="0">カリキュラム</tspan></text>
      <text id="講師" transform="translate(187.049 191.199)" fill="#222" font-size="11" font-family="YuGothicUI-Regular, Yu Gothic UI"><tspan x="0" y="0">講師</tspan></text>
      <text id="予約_システム" data-name="予約
システム" transform="translate(212.067 78.932)" fill="#222" font-size="11" font-family="YuGothicUI-Regular, Yu Gothic UI"><tspan x="0" y="0">予約</tspan><tspan y="0" font-family="SegoeUI, Segoe UI"></tspan><tspan x="0" y="14">システム</tspan></text>
      <text id="設備" transform="translate(116.443 8)" fill="#222" font-size="11" font-family="YuGothicUI-Regular, Yu Gothic UI"><tspan x="-11" y="0">設備</tspan></text>
    </g>
    <g id="chart-2" data-name="chart" transform="translate(79 355.504)">
      <g id="Group_26" data-name="Group 26" transform="translate(480.946 1020)">
        <g transform="matrix(1, 0, 0, 1, -84.82, -80.95)" filter="url(#Path_374)">
          <path id="Path_374-2" data-name="Path 374" d="M87.352-.006c48.489,0,88.2,39.689,88.2,88.148s-39.714,86.852-88.2,86.852S.446,136.6.446,88.142,38.863-.006,87.352-.006Z" transform="translate(84.37 80.95)" fill="#fff"/>
        </g>
      </g>
      <g id="Group_1089" data-name="Group 1089" transform="translate(484.593 1020)">
        <g id="Group_1088" data-name="Group 1088" transform="translate(0)">
          <g id="Group_505" data-name="Group 505" transform="translate(81.689)">
            <line id="Line_6" data-name="Line 6" y1="87.554" transform="translate(1.946)" fill="none" stroke="#000" stroke-miterlimit="10" stroke-width="0.5"/>
            <g id="Group_29" data-name="Group 29" transform="translate(0 17.187)">
              <g id="Group_28" data-name="Group 28">
                <line id="Line_7" data-name="Line 7" x2="3.891" transform="translate(0 53.181)" fill="none" stroke="#000" stroke-miterlimit="10" stroke-width="0.5"/>
                <line id="Line_8" data-name="Line 8" x2="3.891" transform="translate(0 35.022)" fill="none" stroke="#000" stroke-miterlimit="10" stroke-width="0.5"/>
                <line id="Line_9" data-name="Line 9" x2="3.891" transform="translate(0 18.159)" fill="none" stroke="#000" stroke-miterlimit="10" stroke-width="0.5"/>
                <line id="Line_10" data-name="Line 10" x2="3.891" fill="none" stroke="#000" stroke-miterlimit="10" stroke-width="0.5"/>
              </g>
            </g>
          </g>
          <g id="Group_506" data-name="Group 506" transform="translate(166.067 58.321) rotate(72)">
            <line id="Line_6-2" data-name="Line 6" y1="87.554" transform="translate(1.946 0)" fill="none" stroke="#000" stroke-miterlimit="10" stroke-width="0.5"/>
            <g id="Group_29-2" data-name="Group 29" transform="translate(0 17.187)">
              <g id="Group_28-2" data-name="Group 28" transform="translate(0 0)">
                <line id="Line_7-2" data-name="Line 7" x2="3.891" transform="translate(0 53.181)" fill="none" stroke="#000" stroke-miterlimit="10" stroke-width="0.5"/>
                <line id="Line_8-2" data-name="Line 8" x2="3.891" transform="translate(0 35.022)" fill="none" stroke="#000" stroke-miterlimit="10" stroke-width="0.5"/>
                <line id="Line_9-2" data-name="Line 9" x2="3.891" transform="translate(0 18.159)" fill="none" stroke="#000" stroke-miterlimit="10" stroke-width="0.5"/>
                <line id="Line_10-2" data-name="Line 10" x2="3.891" transform="translate(0 0)" fill="none" stroke="#000" stroke-miterlimit="10" stroke-width="0.5"/>
              </g>
            </g>
          </g>
          <g id="Group_507" data-name="Group 507" transform="matrix(-0.309, 0.951, -0.951, -0.309, 84.472, 85.376)">
            <line id="Line_6-3" data-name="Line 6" y2="87.555" transform="translate(1.946 0)" fill="none" stroke="#000" stroke-miterlimit="10" stroke-width="0.5"/>
            <g id="Group_29-3" data-name="Group 29" transform="translate(0 17.187)">
              <g id="Group_28-3" data-name="Group 28" transform="translate(0 0)">
                <line id="Line_7-3" data-name="Line 7" x2="3.891" fill="none" stroke="#000" stroke-miterlimit="10" stroke-width="0.5"/>
                <line id="Line_8-3" data-name="Line 8" x2="3.891" transform="translate(0 18.16)" fill="none" stroke="#000" stroke-miterlimit="10" stroke-width="0.5"/>
                <line id="Line_9-3" data-name="Line 9" x2="3.891" transform="translate(0 35.022)" fill="none" stroke="#000" stroke-miterlimit="10" stroke-width="0.5"/>
                <line id="Line_10-3" data-name="Line 10" x2="3.891" transform="translate(0 53.182)" fill="none" stroke="#000" stroke-miterlimit="10" stroke-width="0.5"/>
              </g>
            </g>
          </g>
          <g id="Group_508" data-name="Group 508" transform="matrix(-0.819, 0.574, -0.574, -0.819, 136.232, 157.673)">
            <line id="Line_6-4" data-name="Line 6" y1="87.554" transform="translate(1.946 0)" fill="none" stroke="#000" stroke-miterlimit="10" stroke-width="0.5"/>
            <g id="Group_29-4" data-name="Group 29" transform="translate(0 17.187)">
              <g id="Group_28-4" data-name="Group 28" transform="translate(0 0)">
                <line id="Line_7-4" data-name="Line 7" x2="3.891" transform="translate(0 53.181)" fill="none" stroke="#000" stroke-miterlimit="10" stroke-width="0.5"/>
                <line id="Line_8-4" data-name="Line 8" x2="3.891" transform="translate(0 35.022)" fill="none" stroke="#000" stroke-miterlimit="10" stroke-width="0.5"/>
                <line id="Line_9-4" data-name="Line 9" x2="3.891" transform="translate(0 18.159)" fill="none" stroke="#000" stroke-miterlimit="10" stroke-width="0.5"/>
                <line id="Line_10-4" data-name="Line 10" x2="3.891" transform="translate(0)" fill="none" stroke="#000" stroke-miterlimit="10" stroke-width="0.5"/>
              </g>
            </g>
          </g>
          <g id="Group_509" data-name="Group 509" transform="matrix(0.819, 0.574, -0.574, 0.819, 82.551, 85.953)">
            <line id="Line_6-5" data-name="Line 6" y2="87.554" transform="translate(1.946 0)" fill="none" stroke="#000" stroke-miterlimit="10" stroke-width="0.5"/>
            <g id="Group_29-5" data-name="Group 29" transform="translate(0 17.187)">
              <g id="Group_28-5" data-name="Group 28" transform="translate(0 0)">
                <line id="Line_7-5" data-name="Line 7" x2="3.891" transform="translate(0 0)" fill="none" stroke="#000" stroke-miterlimit="10" stroke-width="0.5"/>
                <line id="Line_8-5" data-name="Line 8" x2="3.891" transform="translate(0 18.159)" fill="none" stroke="#000" stroke-miterlimit="10" stroke-width="0.5"/>
                <line id="Line_9-5" data-name="Line 9" x2="3.891" transform="translate(0 35.022)" fill="none" stroke="#000" stroke-miterlimit="10" stroke-width="0.5"/>
                <line id="Line_10-5" data-name="Line 10" x2="3.891" transform="translate(0 53.181)" fill="none" stroke="#000" stroke-miterlimit="10" stroke-width="0.5"/>
              </g>
            </g>
          </g>
        </g>
        <g id="Group_510" data-name="Group 510" transform="translate(81.149 84.96)">
          <rect id="Rectangle_46" data-name="Rectangle 46" width="4.972" height="5.08" transform="translate(0)" fill="#dfdfdf" stroke="#000" stroke-miterlimit="10" stroke-width="0.5"/>
          <rect id="Rectangle_47" data-name="Rectangle 47" width="4.972" height="5.08" transform="translate(0)" fill="#dfdfdf" stroke="#000" stroke-miterlimit="10" stroke-width="0.5"/>
          <rect id="Rectangle_48" data-name="Rectangle 48" width="4.972" height="5.08" transform="translate(0)" fill="#dfdfdf" stroke="#000" stroke-miterlimit="10" stroke-width="0.5"/>
          <rect id="Rectangle_49" data-name="Rectangle 49" width="4.972" height="5.08" transform="translate(0)" fill="#dfdfdf" stroke="#000" stroke-miterlimit="10" stroke-width="0.5"/>
          <rect id="Rectangle_50" data-name="Rectangle 50" width="4.972" height="5.08" transform="translate(0)" fill="#dfdfdf" stroke="#000" stroke-miterlimit="10" stroke-width="0.5"/>
        </g>
      </g>
      <g id="Group_1090" data-name="Group 1090" transform="translate(517.091 1034.971)">
        <rect id="Rectangle_51" data-name="Rectangle 51" width="5.188" height="5.188" transform="translate(49.291 0)" stroke="#000" stroke-miterlimit="10" stroke-width="0.5"/>
        <rect id="Rectangle_55" data-name="Rectangle 55" width="5.188" height="5.188" transform="translate(0 53.181)"/>
        <rect id="Rectangle_53" data-name="Rectangle 53" width="5.188" height="5.188" transform="translate(79.123 112.199)"/>
        <rect id="Rectangle_54" data-name="Rectangle 54" width="5.188" height="5.188" transform="translate(9.08 128.413)" stroke="#000" stroke-miterlimit="10" stroke-width="0.5"/>
        <rect id="Rectangle_52" data-name="Rectangle 52" width="5.188" height="5.188" transform="translate(115.442 47.993)"/>
      </g>
      <g id="Group_1087" data-name="Group 1087" transform="translate(498.748 1037.694)" opacity="0.596">
        <path id="Path_374-3" data-name="Path 374" d="M69.662-.006a70.506,70.506,0,0,1,70.249,70.3c0,38.649-31.63,69.27-70.249,69.27A68.746,68.746,0,0,1,.446,70.3C.446,31.648,31.043-.006,69.662-.006Z" transform="translate(-0.446 0.006)" fill="#9be" opacity="0.2"/>
        <g id="Group_1076" data-name="Group 1076" transform="translate(17.694 17.694)" opacity="0.4">
          <path id="Path_374-4" data-name="Path 374" d="M52.705-.006a53.185,53.185,0,0,1,53.039,52.984c0,29.128-23.881,52.205-53.039,52.205A51.858,51.858,0,0,1,.446,52.978C.446,23.85,23.547-.006,52.705-.006Z" transform="translate(-0.446 0.006)" fill="#9be"/>
        </g>
        <g id="Group_1082" data-name="Group 1082" transform="translate(33.618 33.618)" opacity="0.6">
          <path id="Path_374-5" data-name="Path 374" d="M35.667-.006A35.836,35.836,0,0,1,71.414,35.686c0,19.622-16.095,35.167-35.746,35.167A34.942,34.942,0,0,1,.446,35.686,35.388,35.388,0,0,1,35.667-.006Z" transform="translate(-0.446 0.006)" fill="#9be"/>
        </g>
        <g id="Group_1077" data-name="Group 1077" transform="translate(53.082 53.082)">
          <path id="Path_374-6" data-name="Path 374" d="M17.549-.006A17.388,17.388,0,0,1,34.908,17.3,17.172,17.172,0,0,1,17.549,34.347,16.954,16.954,0,0,1,.446,17.3,17.17,17.17,0,0,1,17.549-.006Z" transform="translate(-0.446 0.006)" fill="#659df2"/>
        </g>
      </g>
      <path id="Path_415" data-name="Path 415" d="M1015.641,29.382,1064.8-24.241l67.485,48.089-36.705,64.166-71.905,16.6Z" transform="translate(-496.021 1061.968)" fill="none" stroke="#000" stroke-width="0.5"/>
    </g>
  </g>
</svg>
