<svg xmlns="http://www.w3.org/2000/svg" xmlns:xlink="http://www.w3.org/1999/xlink" width="319.641" height="53.008" viewBox="0 0 319.641 53.008">
  <defs>
    <linearGradient id="linear-gradient" x2="1" y2="1" gradientUnits="objectBoundingBox">
      <stop offset="0" stop-color="#99e"/>
      <stop offset="1" stop-color="#e2a1c4"/>
    </linearGradient>
  </defs>
  <path id="Path_378129" data-name="Path 378129" d="M-132.066,0h-3.75l.156-.937q.7-4.922,1.641-9.824t2.148-9.668l3.594-14.258q-.234.469-.371.8t-.176.41l-1.445,3.633q-1.445,3.516-3.828,8.535t-4.18,8.34Q-145.816.781-151.91.781a4.038,4.038,0,0,1-3.184-1.348,5.2,5.2,0,0,1-1.191-3.574,28.075,28.075,0,0,1,.859-5.117l6.25-27.461,1.016-4.492a29.513,29.513,0,0,0,.781-5.742q0-4.023-2.344-4.023-2.734,0-4.531,5.2a72.075,72.075,0,0,0-3.2,13.2l-3.047-2.109a35.438,35.438,0,0,1,4.18-12.578q2.891-4.766,6.328-4.766a4.1,4.1,0,0,1,3.711,2.363,13.541,13.541,0,0,1,1.328,6.582,61.538,61.538,0,0,1-1.914,12.578l-4.8,20.977-.391,1.8a13.086,13.086,0,0,0-.469,3.164,3.107,3.107,0,0,0,.684,2.09,2.146,2.146,0,0,0,1.7.8q1.8,0,4.023-2.109a32.149,32.149,0,0,0,4.844-6.348q2.617-4.238,6.094-11.387a166.206,166.206,0,0,0,7.813-19.336q1.992-5.82,2.773-9.18l3.4-1.406-7.7,34.023Q-130.895-8.672-132.066,0Zm14.719-2.5,2.188-2.578q1.719,4.063,5.469,4.063a4.772,4.772,0,0,0,3.34-1.27,3.89,3.89,0,0,0,1.387-2.949,3.285,3.285,0,0,0-.664-2.07,23.123,23.123,0,0,0-3.164-2.891,19.477,19.477,0,0,1-3.105-2.949,4.039,4.039,0,0,1-.8-2.48,5.877,5.877,0,0,1,1.074-3.4,7.944,7.944,0,0,1,2.871-2.52,7.948,7.948,0,0,1,3.789-.957,4.831,4.831,0,0,1,2.949.879,2.681,2.681,0,0,1,1.191,2.246,2.449,2.449,0,0,1-1.523,2.461,4.463,4.463,0,0,0-1.387-2.871,4.246,4.246,0,0,0-2.949-1.035,4.124,4.124,0,0,0-2.793,1.035,3.071,3.071,0,0,0-1.191,2.363q0,1.641,2.031,3.242l2.266,1.836q3.32,2.617,3.32,5.352A6.875,6.875,0,0,1-104.2-3.184a8.32,8.32,0,0,1-3.125,2.832A8.7,8.7,0,0,1-111.488.7,7.091,7.091,0,0,1-117.348-2.5Zm43.156-3.555.7.586A18.389,18.389,0,0,1-78.215-.84,9.262,9.262,0,0,1-83.176.586a6.526,6.526,0,0,1-5.078-2.109,7.993,7.993,0,0,1-1.914-5.586,15.52,15.52,0,0,1,1.855-7.129,19.189,19.189,0,0,1,4.648-5.977,8.62,8.62,0,0,1,5.527-2.363,3.778,3.778,0,0,1,2.637.938,3.118,3.118,0,0,1,1.035,2.422q0,3.008-3.281,6.016a27.132,27.132,0,0,1-8.945,5.117,5.711,5.711,0,0,0-.039.7,6.437,6.437,0,0,0,1.484,4.395,4.849,4.849,0,0,0,3.828,1.7,6.3,6.3,0,0,0,3.555-1.152A17.177,17.177,0,0,0-74.191-6.055Zm-12.5-2.969a20.972,20.972,0,0,0,6.484-4.18,14.258,14.258,0,0,0,2.461-3.359,7.139,7.139,0,0,0,.938-3.242q0-1.836-1.68-1.836-2.539,0-5.137,4A19.2,19.2,0,0,0-86.691-9.023Zm23.9-2.07A23.723,23.723,0,0,0-58.3-18.672a5.5,5.5,0,0,1-3.164-5.039,4.083,4.083,0,0,1,.742-2.539,2.265,2.265,0,0,1,1.875-.977,2.241,2.241,0,0,1,1.914,1.074,4.815,4.815,0,0,1,.742,2.793,9.78,9.78,0,0,1-.43,2.7,7.693,7.693,0,0,0,1.914.273A5.73,5.73,0,0,0-50.723-21.8h1.875l-.273.547A74.586,74.586,0,0,0-53.75-11.113a24.405,24.405,0,0,0-1.816,7.441,2.383,2.383,0,0,0,.469,1.5,1.394,1.394,0,0,0,1.133.605q1.6,0,5.156-3.4l.625.7a27.779,27.779,0,0,1-3.4,3.008A6.4,6.4,0,0,1-55.449.391a3.011,3.011,0,0,1-2.4-1.016A4.1,4.1,0,0,1-58.73-3.4a17.483,17.483,0,0,1,2.266-7.422q.82-1.68,2.109-3.828t3.242-5.117l.391-.547a8.683,8.683,0,0,1-2.48,1.66,7.108,7.108,0,0,1-2.715.488,6.125,6.125,0,0,1-1.484-.2,24.016,24.016,0,0,1-4.687,7.891Zm5.352-9.922a10.7,10.7,0,0,0,.156-1.641,4.324,4.324,0,0,0-.449-2.148,1.32,1.32,0,0,0-1.152-.781.856.856,0,0,0-.684.371,1.435,1.435,0,0,0-.293.918Q-59.863-22.461-57.441-21.016Zm30.813-19.3-.508-.859q5.117-4.023,5.43-6.914a2.416,2.416,0,0,1-1.8.82,1.855,1.855,0,0,1-1.367-.547,1.855,1.855,0,0,1-.547-1.367,3,3,0,0,1,.859-2.148,2.639,2.639,0,0,1,1.953-.9,2.351,2.351,0,0,1,1.816.742,2.942,2.942,0,0,1,.684,2.07,8.007,8.007,0,0,1-1.777,4.453A20.435,20.435,0,0,1-26.629-40.312ZM-13.082-2.5l2.188-2.578q1.719,4.063,5.469,4.063a4.772,4.772,0,0,0,3.34-1.27A3.89,3.89,0,0,0-.7-5.234,3.285,3.285,0,0,0-1.363-7.3,23.122,23.122,0,0,0-4.527-10.2a19.477,19.477,0,0,1-3.105-2.949,4.039,4.039,0,0,1-.8-2.48,5.877,5.877,0,0,1,1.074-3.4,7.944,7.944,0,0,1,2.871-2.52A7.948,7.948,0,0,1-.7-22.5a4.831,4.831,0,0,1,2.949.879,2.681,2.681,0,0,1,1.191,2.246,2.449,2.449,0,0,1-1.523,2.461A4.463,4.463,0,0,0,.531-19.785,4.246,4.246,0,0,0-2.418-20.82a4.124,4.124,0,0,0-2.793,1.035A3.071,3.071,0,0,0-6.4-17.422q0,1.641,2.031,3.242l2.266,1.836q3.32,2.617,3.32,5.352A6.875,6.875,0,0,1,.063-3.184,8.32,8.32,0,0,1-3.062-.352,8.7,8.7,0,0,1-7.223.7,7.091,7.091,0,0,1-13.082-2.5Zm50.1-18.75,3.516-1.6v1.016q.117,5.7.664,11.992.312,3.281.547,4.863a6.933,6.933,0,0,0,.547,2.129.955.955,0,0,0,.859.547q1.445,0,5.156-5.508,3.32-4.844,3.32-8.945a7.039,7.039,0,0,0-.352-2.4,5.488,5.488,0,0,0-1.328-1.934l2.93-2.734a7.014,7.014,0,0,1,1.367,4.375q0,5.2-6.172,13.711A34.748,34.748,0,0,1,44.09-1.133,11.247,11.247,0,0,1,42.508.137a2.272,2.272,0,0,1-1.191.371,1.463,1.463,0,0,1-1.367-.742,8.106,8.106,0,0,1-.664-2.812ZM64.395-7.5a14.6,14.6,0,0,1,1.895-7.012,16.8,16.8,0,0,1,4.9-5.684,10.336,10.336,0,0,1,6.133-2.187,6.882,6.882,0,0,1,5.293,2.168,7.913,7.913,0,0,1,2.012,5.605,15.379,15.379,0,0,1-1.855,7.266,16.843,16.843,0,0,1-4.883,5.762A10.2,10.2,0,0,1,71.777.664a6.87,6.87,0,0,1-5.352-2.246A8.485,8.485,0,0,1,64.395-7.5Zm16.719-8.594a6.231,6.231,0,0,0-1.152-3.867,3.545,3.545,0,0,0-2.949-1.523,5.4,5.4,0,0,0-3.145,1.055,10.246,10.246,0,0,0-2.754,3.086,23.433,23.433,0,0,0-2.324,5.469,19.973,19.973,0,0,0-.918,5.547A7.5,7.5,0,0,0,69-1.875,3.763,3.763,0,0,0,72.246-.312q3.4,0,5.977-4.727a23.569,23.569,0,0,0,2.109-5.43A22.442,22.442,0,0,0,81.113-16.094Zm23.664-22.07a2.218,2.218,0,0,1,1.641.625,2.218,2.218,0,0,1,.625,1.641,2.229,2.229,0,0,1-.664,1.641,2.183,2.183,0,0,1-1.6.664,2.206,2.206,0,0,1-1.6-.7,2.206,2.206,0,0,1-.7-1.6,2.183,2.183,0,0,1,.664-1.6A2.229,2.229,0,0,1,104.777-38.164Zm-1.133,15.313L100.207-10a20.476,20.476,0,0,0-.859,5.078,4.2,4.2,0,0,0,.43,2.031,1.279,1.279,0,0,0,1.133.781q1.211,0,3.867-2.891l.625.547-.391.43A37.442,37.442,0,0,1,101.73-.488,3.1,3.1,0,0,1,99.777.43,2.442,2.442,0,0,1,97.727-.8a5.316,5.316,0,0,1-.84-3.066,23,23,0,0,1,.469-3.711L99.816-21.25ZM131.762-5.859a19.735,19.735,0,0,1-4.629,4.9,8.6,8.6,0,0,1-4.98,1.543,6.285,6.285,0,0,1-4.9-2.109,7.873,7.873,0,0,1-1.895-5.469,15.767,15.767,0,0,1,1.836-7.148,18.588,18.588,0,0,1,4.707-6.016,8.8,8.8,0,0,1,5.527-2.383,4.127,4.127,0,0,1,2.891,1,3.442,3.442,0,0,1,1.094,2.676,4.5,4.5,0,0,1-1.152,2.91,3.253,3.253,0,0,1-2.48,1.387,1.457,1.457,0,0,1-1.055-.469,4.2,4.2,0,0,0,2.539-4.219,2.392,2.392,0,0,0-.566-1.7,1.962,1.962,0,0,0-1.5-.605,4.67,4.67,0,0,0-2.91,1.172,12.573,12.573,0,0,0-2.754,3.262,19.067,19.067,0,0,0-2.012,4.453,16.279,16.279,0,0,0-.723,4.785A7.534,7.534,0,0,0,120.16-3.2a4.3,4.3,0,0,0,3.594,1.8,6.557,6.557,0,0,0,3.711-1.211,17.2,17.2,0,0,0,3.75-3.711Zm26.672-.2.7.586A18.389,18.389,0,0,1,154.41-.84,9.262,9.262,0,0,1,149.449.586a6.526,6.526,0,0,1-5.078-2.109,7.993,7.993,0,0,1-1.914-5.586,15.519,15.519,0,0,1,1.855-7.129,19.189,19.189,0,0,1,4.648-5.977,8.62,8.62,0,0,1,5.527-2.363,3.778,3.778,0,0,1,2.637.938,3.118,3.118,0,0,1,1.035,2.422q0,3.008-3.281,6.016a27.132,27.132,0,0,1-8.945,5.117,5.71,5.71,0,0,0-.039.7,6.437,6.437,0,0,0,1.484,4.395,4.849,4.849,0,0,0,3.828,1.7,6.3,6.3,0,0,0,3.555-1.152A17.177,17.177,0,0,0,158.434-6.055Zm-12.5-2.969a20.972,20.972,0,0,0,6.484-4.18,14.258,14.258,0,0,0,2.461-3.359,7.139,7.139,0,0,0,.938-3.242q0-1.836-1.68-1.836-2.539,0-5.137,4A19.2,19.2,0,0,0,145.934-9.023Z" transform="translate(160.504 52.227)" fill="url(#linear-gradient)"/>
</svg>
