<svg xmlns="http://www.w3.org/2000/svg" width="75.071" height="12.025" viewBox="0 0 75.071 12.025">
  <path id="logo" d="M-428.047,10000.8l.238-.861a.785.785,0,0,1,1.032-.534,8.677,8.677,0,0,0,2.319.472c.879,0,1.832-.364,1.832-1.664,0-.941-.743-1.5-2.272-2.184-1.652-.74-2.786-1.394-2.786-3.256,0-2.545,2.043-3.271,3.574-3.271a7.913,7.913,0,0,1,2.3.356.878.878,0,0,1,.545,1.089l-.254.8a5.9,5.9,0,0,0-2.392-.622c-.836,0-1.925.288-1.925,1.546,0,.879.848,1.3,1.968,1.832,1.712.816,3.138,1.589,3.138,3.6,0,2.561-1.729,3.424-3.637,3.424A9.931,9.931,0,0,1-428.047,10000.8Zm-13.712,0,.241-.861a.784.784,0,0,1,1.032-.534,8.651,8.651,0,0,0,2.319.472c.876,0,1.832-.364,1.832-1.664,0-.941-.743-1.5-2.272-2.184-1.652-.74-2.789-1.394-2.789-3.256,0-2.545,2.046-3.271,3.574-3.271a7.941,7.941,0,0,1,2.3.356.88.88,0,0,1,.545,1.089l-.256.8a5.888,5.888,0,0,0-2.392-.622c-.833,0-1.925.288-1.925,1.546,0,.879.848,1.3,1.97,1.832,1.712.816,3.135,1.589,3.135,3.6,0,2.561-1.727,3.424-3.635,3.424A9.945,9.945,0,0,1-441.759,10000.8Zm51.029.529a.852.852,0,0,1-.851-.849v-9.932a.855.855,0,0,1,.851-.852h4.616a.834.834,0,0,1,.851.812.836.836,0,0,1-.851.811H-388.9a.854.854,0,0,0-.853.851v1.569a.855.855,0,0,0,.853.851h2.249a.822.822,0,0,1,.853.78.82.82,0,0,1-.853.778H-388.9a.856.856,0,0,0-.853.854v1.857a.855.855,0,0,0,.853.851h3.115a.834.834,0,0,1,.851.812.832.832,0,0,1-.851.808Zm-8.183,0a.85.85,0,0,1-.848-.849v-9.932a.853.853,0,0,1,.848-.852h.148a.854.854,0,0,1,.851.852v8.311a.853.853,0,0,0,.851.849h3.07a.834.834,0,0,1,.851.813.83.83,0,0,1-.851.808Zm-7.558,0a.853.853,0,0,1-.853-.849v-3.434a3.321,3.321,0,0,0-.469-1.561l-3.361-5.081c-.259-.389-.088-.708.382-.708h.525a1.706,1.706,0,0,1,1.3.724l2.194,3.552a.478.478,0,0,0,.886-.008l2.111-3.539a1.672,1.672,0,0,1,1.288-.729h.479c.467,0,.638.319.379.708l-3.374,5.065a3.306,3.306,0,0,0-.472,1.562v3.448a.852.852,0,0,1-.851.849Zm-9.44,0a.852.852,0,0,1-.851-.849v-8.312a.851.851,0,0,0-.851-.849h-1.6a.834.834,0,0,1-.851-.811.833.833,0,0,1,.851-.812h6.78a.833.833,0,0,1,.851.812.834.834,0,0,1-.851.811h-1.614a.851.851,0,0,0-.851.849v8.313a.852.852,0,0,1-.851.849Zm-31.694,0a.852.852,0,0,1-.851-.849v-3.434a3.321,3.321,0,0,0-.469-1.561l-3.361-5.081c-.259-.389-.088-.708.379-.708h.527a1.711,1.711,0,0,1,1.3.724l2.194,3.552a.476.476,0,0,0,.884-.008l2.113-3.539a1.663,1.663,0,0,1,1.285-.729h.482c.467,0,.635.319.379.708l-3.376,5.065a3.335,3.335,0,0,0-.472,1.562v3.448a.851.851,0,0,1-.851.849Zm-11.544,0a.852.852,0,0,1-.851-.849v-9.932a.855.855,0,0,1,.851-.852h4.616a.835.835,0,0,1,.851.812.836.836,0,0,1-.851.811h-2.784a.853.853,0,0,0-.851.851v1.569a.855.855,0,0,0,.851.851h2.254a.819.819,0,0,1,.848.78.817.817,0,0,1-.848.778h-2.254a.855.855,0,0,0-.851.854v1.857a.855.855,0,0,0,.851.851h3.117a.834.834,0,0,1,.851.812.832.832,0,0,1-.851.808Zm26.893-4.33a.81.81,0,0,1-.851-.758.81.81,0,0,1,.851-.758h2.176a.812.812,0,0,1,.851.758.811.811,0,0,1-.851.758Z" transform="translate(460 -9989.501)" fill="#fff"/>
</svg>
