<svg xmlns="http://www.w3.org/2000/svg" width="23.998" height="18" viewBox="0 0 23.998 18">
  <path id="icon" d="M2418.777,19717.369a5.616,5.616,0,0,1-.094-8.107c2.192-2.137,2.43-5.363.525-7.215l1.054-1.045,7.988,7.75-1.064,1.035a4.629,4.629,0,0,0-3.563-1.242,6.094,6.094,0,0,0-3.875,1.752.765.765,0,0,1-.064.059,4.188,4.188,0,0,0,.054,6.043,4.5,4.5,0,0,0,6.226-.049l9.591-9.314a2.889,2.889,0,0,1,3.994,0l1.45,1.41-1.064,1.039-1.455-1.41v0a1.346,1.346,0,0,0-1.861,0l.01-.02-9.591,9.309a6.031,6.031,0,0,1-8.26.006Zm2.816-9.9a7.35,7.35,0,0,1,1.935-.381,8.1,8.1,0,0,1,.871,0l-2.415-2.346A6.724,6.724,0,0,1,2421.593,19707.471Zm-.985,8.1a3.166,3.166,0,0,1-.139-4.568l1.069,1.035a1.734,1.734,0,0,0,0,2.5,1.858,1.858,0,0,0,2.579,0l7.681-7.469,1.069,1.035-7.686,7.463a3.4,3.4,0,0,1-4.573,0Z" transform="translate(-2417 -19701.002)" fill="#7e9dd8"/>
</svg>
