<svg xmlns="http://www.w3.org/2000/svg" width="41.362" height="52" viewBox="0 0 41.362 52">
  <g id="logo_dance" transform="translate(-105.456 -454.736)">
    <path id="txt" d="M87.9-15.318a11.8,11.8,0,0,0,4.373-3.288,32.007,32.007,0,0,1,3.288,3.277L96.8-16.545a38.224,38.224,0,0,0-3.65-3.167,11.223,11.223,0,0,0,2.017-4.548h-7.5v1.4H93.2a11.085,11.085,0,0,1-6.17,6.324Zm14.27-8.209a9.268,9.268,0,0,0,.614-1.271l-1.556-.252A7.8,7.8,0,0,1,97.661-20.8l.986,1.085a9.465,9.465,0,0,0,2.608-2.455h3.672c-1.085,4.022-3.507,5.042-6.62,5.491l.6,1.326c5.82-.789,7.321-4.636,7.891-8.176Zm5.754,2.685v1.556h9.71v-1.556ZM121.214-24.4h-1.491v2.915c0,3.7-1.14,4.8-1.743,5.381l1.184,1.03a5.784,5.784,0,0,0,1.7-3.135,16.5,16.5,0,0,0,.351-3.5Zm2.981-.34h-1.458v9.316c3.036-.044,5.042-2.159,5.655-5.206l-1.359-.581a6.522,6.522,0,0,1-.888,2.466,3.565,3.565,0,0,1-1.951,1.567Z" transform="translate(18.426 521.813)" fill="#78c"/>
    <path id="logo_EYS" d="M-10969.839-262.8l.29-.31a2.489,2.489,0,0,0,1.748.635c.832,0,1.32-.261,1.32-.689s-.508-.522-1.438-.6-1.8-.28-1.8-.96c0-.65.816-1.019,1.738-1.019a2.652,2.652,0,0,1,1.763.616l-.326.275a2.017,2.017,0,0,0-1.417-.507c-.616-.005-1.335.167-1.335.621,0,.428.649.517,1.462.581,1.049.084,1.778.286,1.778.965,0,.635-.645,1.1-1.768,1.1A3.028,3.028,0,0,1-10969.839-262.8Zm-4.176.666v-1.206l-1.732-2.24h.5l1.447,1.866,1.438-1.866h.492l-1.729,2.24v1.206Zm-6.985,0v-3.447h3.284v.384h-2.871v1.118h2.434v.384h-2.434v1.177h2.92v.384Z" transform="translate(11099.608 743.319)" fill="#444"/>
    <path id="mark" d="M17.62,18.02a2.787,2.787,0,0,1-2.249-.972s0,0,0,0,0,0,0,0L13.7,15.676a.279.279,0,1,0-.355.431l1.435,1.18a3.267,3.267,0,0,1-2.237,1.236,3.437,3.437,0,0,1-2.452-1.284l-.271-2.232a.279.279,0,1,0-.553.067l.266,2.205c-1.5,1.77-3.006,1.772-4.687.176l1.428-1.7a.279.279,0,1,0-.428-.36L4.267,17.28c-.865.806-1.611,1.158-2.22,1.042A2.175,2.175,0,0,1,.684,17.068a5.425,5.425,0,0,0,3.032-2.306,5.31,5.31,0,0,1,.614-.836A12.917,12.917,0,0,1,7.057,11.6a.273.273,0,0,0,.13-.226,8.22,8.22,0,0,1,.341-1.961C7.957,9.2,8.2,8.677,8.5,8.4l1.532.772c.06.03.143.071.239.11a35.165,35.165,0,0,1,3.2,4.651.28.28,0,0,0,.065.077A12.582,12.582,0,0,0,19.031,16.7a2.289,2.289,0,0,1-1.411,1.32M6.159,8.359a4.386,4.386,0,0,0,.993.588.277.277,0,0,0,.085-.017,23.709,23.709,0,0,1,.348-2.473c-.082.011-.164.027-.249.046a.28.28,0,0,1-.157-.536l1.007-.359a.225.225,0,0,0,.155-.244l-.176-1.7a2.849,2.849,0,0,1-1.491,1.4c.2,1.679.034,2.764-.515,3.3M5.4,5.087c-.058-.4-.106-.74-.145-.961a1.288,1.288,0,0,1,.285-1.273,1.529,1.529,0,0,1,1.447-.372,2.1,2.1,0,0,1,.865.383A2.287,2.287,0,0,1,6.284,4.609a.278.278,0,0,0-.193.3,4.51,4.51,0,0,1-.23,2.937c-.167-.666-.343-1.9-.466-2.764M7.106,1.9a.1.1,0,0,0-.034.034,2.525,2.525,0,0,1,.657.214l1.186-.624a.283.283,0,0,1,.251,0l.471.223a.284.284,0,0,1,.145.165l.5,1.522c.058-.061.111-.123.167-.187l.164-.712a.265.265,0,0,0-.01-.156L10.041.781A.271.271,0,0,0,9.8.6L9.355.561a.489.489,0,0,0-.321.081Zm7.033,4.627-.858-.639a.8.8,0,0,0-.143-.323A.738.738,0,0,0,12.38,5.3c-.374.072-.9.594-1.747,1.529-.048.051-.092.1-.13.144l-.353-.2.056-2.5a5.985,5.985,0,0,0,.626-.628,15.514,15.514,0,0,0,2.5,1.274Zm.619,1.68a.419.419,0,0,0,.08-.3l-.128-.254L13.194,6.516l-.44.718L14.17,8.288a.42.42,0,0,0,.587-.086M9.517,4.111a3.961,3.961,0,0,1-.672.385l-.031.014-.147-1.42a.819.819,0,0,0-.391-.6l.778-.408.237.113L9.84,3.856c-.106.091-.213.176-.324.254m.118.595L9.6,6.451a3.3,3.3,0,0,0-.949-.48A.792.792,0,0,0,8.9,5.307l-.022-.219a4.3,4.3,0,0,0,.686-.335h0l.075-.046M8.053,7.04c-.068.4-.145.857-.2,1.247a1.893,1.893,0,0,1,.474-.456A.28.28,0,0,1,8.6,7.821l1.689.851c.515.259.759.232,1-.115l1.416-2.3c.051-.1.118-.472-.213-.4-.014,0-.162.042-.611.477-.287.28-.6.626-.829.878-.116.128-.215.239-.287.315a.279.279,0,0,1-.341.049c-.455-.261-.906-.5-1.353-.8a2.047,2.047,0,0,0-.911-.331c-.029.182-.065.386-.1.6m5.085,3.5L13.08,8.174l-.621-.462-.705,1.144a1.137,1.137,0,0,1-.684.521,36.041,36.041,0,0,1,2.86,4.229q.518.414,1.041.766l-1.8-3.714a.277.277,0,0,1-.029-.116m6.557,5.816a.282.282,0,0,0-.2-.144,10.746,10.746,0,0,1-3.631-1.295L13.7,10.467,13.65,8.6a1.154,1.154,0,0,0,.768.332.978.978,0,0,0,.754-1.605L13.783,4.58a.287.287,0,0,0-.147-.133A14.869,14.869,0,0,1,11.051,3.13l.109-.481a.814.814,0,0,0-.027-.468L10.568.594A.832.832,0,0,0,9.843.039L9.4,0a1.044,1.044,0,0,0-.669.17L6.8,1.426a.646.646,0,0,0-.292.457,1.884,1.884,0,0,0-1.384.592A1.823,1.823,0,0,0,4.7,4.22c.039.215.087.554.143.947a14.652,14.652,0,0,0,.674,3.355,3.046,3.046,0,0,0,.693.553,3.592,3.592,0,0,0,.725.389,8.776,8.776,0,0,0-.3,1.744,13.559,13.559,0,0,0-2.725,2.345,6.026,6.026,0,0,0-.669.909,4.864,4.864,0,0,1-3.032,2.16.281.281,0,0,0-.184.391c.531,1.108,1.157,1.716,1.916,1.859a3.066,3.066,0,0,0,2.52-1.014C6.3,19.6,8.137,19.694,9.841,17.779c1.813,1.778,3.647,1.739,5.371-.131,1.888,1.564,3.458,1.208,4.491-1.042a.283.283,0,0,0-.007-.249" transform="translate(116.051 454.736)" fill="#78c" fill-rule="evenodd"/>
    <path id="txt-2" data-name="txt" d="M4.551-20.67a9.894,9.894,0,0,1,2.378,1.523A9.221,9.221,0,0,1,2.49-17.152l.745,1.282c6.214-1.458,7.332-5.918,7.694-8.088L9.165-23.7l-.088-.362H6.4a11.636,11.636,0,0,0,.636-1.3L5.461-25.58A7.718,7.718,0,0,1,1.8-21.306l.954,1.085a10.013,10.013,0,0,0,2.806-2.532H9.176a7.627,7.627,0,0,1-1.228,2.51,10.626,10.626,0,0,0-2.51-1.425Zm5.809-3.595A10.8,10.8,0,0,0,9.8-25.832l-.9.175c.263.811.285.9.471,1.567Zm1.512-.132a8.735,8.735,0,0,0-.548-1.523l-.932.186a12.569,12.569,0,0,1,.526,1.523Zm4.811,1.107A13.055,13.055,0,0,0,13.242-24.8l-.68,1.26a14.63,14.63,0,0,1,3.343,1.633Zm-3.507,7.255c4.329-.57,7.124-2.137,8.834-7.387l-1.425-.68c-1.545,5.074-4.329,6.192-7.891,6.455Zm10.215.164a11.8,11.8,0,0,0,4.373-3.288,32.005,32.005,0,0,1,3.288,3.277L32.29-17.1a38.225,38.225,0,0,0-3.65-3.167,11.223,11.223,0,0,0,2.017-4.548h-7.5v1.4H28.7a11.085,11.085,0,0,1-6.17,6.324Z" transform="translate(108.771 510.806)" fill="#78c"/>
  </g>
</svg>
