<svg xmlns="http://www.w3.org/2000/svg" width="52.109" height="48" viewBox="0 0 52.109 48">
  <g id="logo_tea" transform="translate(-133.775 -304)">
    <path id="txt" d="M1.184-18.47c.333-.1.525-.166.755-.256v1.344H5.92v3.8H7.533v-3.8h4.032v-1.344c.115.038.179.064.717.23l.678-1.664c-3.533-.6-4.8-1.971-5.427-2.624H5.882A10.447,10.447,0,0,1,.57-20.108Zm1.2-.422a12.321,12.321,0,0,0,4.352-2.7,9.769,9.769,0,0,0,4.352,2.7H7.533v-1.357H5.92v1.357Zm.87-5.914H.724v1.51H3.258v.986H4.82V-23.3H8.608v.986H10.17V-23.3h2.56v-1.51H10.17v-.845H8.608v.845H4.82v-.845H3.258Zm.563,7.642a8.126,8.126,0,0,1-3.085,2.15l1.088,1.254A8.56,8.56,0,0,0,5-16.294ZM12.7-15.039A9.932,9.932,0,0,1,9.773-17.2l-1.28.883a11.433,11.433,0,0,0,3.059,2.547Zm4.621-8.038h3.3a3.243,3.243,0,0,1-.192.6H18.042v6.413h7.424v-6.413H21.984a4.34,4.34,0,0,0,.294-.6h3.878v-1.344H24.263c.141-.218.422-.678.589-1.011l-1.638-.294a7.439,7.439,0,0,1-.563,1.306H20.717a7.8,7.8,0,0,0-.691-1.318l-1.472.4c.09.154.346.614.525.922H17.325v.96a9.419,9.419,0,0,0-1.971-2.074l-1.1,1.037a11.161,11.161,0,0,1,1.869,2.214l1.2-1.075ZM23.9-19.7v.755H19.6V-19.7Zm0-1.638v.717H19.6v-.717Zm0,3.315v.794H19.6v-.794Zm-9.741-1.293h1.152v3.059a6.881,6.881,0,0,1-1.306.909l.653,1.754a8.923,8.923,0,0,0,1.83-1.728,3.544,3.544,0,0,0,3.392,1.408h6.144l.307-1.5H19.962c-.666,0-2.714,0-3.11-1.472v-3.942H14.164Zm19.827,5.709A10.909,10.909,0,0,0,36.7-15.743a10.571,10.571,0,0,0,2.189,2.15l.934-1.549A11.842,11.842,0,0,1,37.69-17.1a11.926,11.926,0,0,0,1.318-5.158H39.6v-1.613H36.525c.141-.742.218-1.293.269-1.7l-1.51-.128a12.81,12.81,0,0,1-1.267,4.211v-.87h-.73a13.469,13.469,0,0,0,1.446-2.381L33.4-25.356a12.3,12.3,0,0,1-.717,1.4v-.73H31.252v-.96H29.805v.96H27.9v1.357h1.907v.973H27.6v1.37h2.483a11.766,11.766,0,0,1-2.65,1.651l.7,1.357A14.059,14.059,0,0,0,29.7-18.93h1.779a3.856,3.856,0,0,1-.781.73h-.346v.832c-1.549.128-2.138.154-2.854.192l.1,1.459c.435-.026,2.368-.2,2.752-.23v.563c0,.282-.051.358-.4.358H28.615l.269,1.434h1.7c.973,0,1.229-.333,1.229-1.19V-16.1c1.5-.179,1.843-.23,2.317-.32v-1.357c-.576.09-1.114.154-2.317.282v-.23a8.579,8.579,0,0,0,1.574-1.254V-20.2H31.3c.5-.461.691-.666.819-.794h1.587c-.09.141-.154.218-.358.486l1.075,1.331c.128-.166.2-.294.41-.589a9.781,9.781,0,0,0,.986,2.65,7.778,7.778,0,0,1-2.842,2.048Zm3.533-8.653a10.193,10.193,0,0,1-.781,3.738,9.148,9.148,0,0,1-.909-3.123c.064-.154.128-.32.243-.614Zm-5.235-1.1c-.154.218-.346.474-.794,1h-.307v-1Zm19.622,4.3A11.646,11.646,0,0,0,49.8-21.286h.73v-1.331H42.8v1.331h1.152a11.222,11.222,0,0,1-.589,1.178c-.294,0-1.766,0-1.894-.013l.115,1.357c2.611,0,3.162-.026,4.25-.064v.858H41.7v1.37h4.134v1.165H40.647V-14H52.679v-1.434H47.456V-16.6h4.173v-1.37H47.456v-.909c1.728-.1,1.843-.115,2.458-.179a9.024,9.024,0,0,1,.691.947Zm-3.853-1.715c.23.179.384.294.678.538-1.011.077-2.714.115-3.686.128a12.4,12.4,0,0,0,.64-1.178h3.149Zm-2.227-4.019H40.98v3.021h1.613v-1.613h8.141v1.613h1.613v-3.021h-4.89v-.9H45.831Z" transform="translate(133.205 365.58)" fill="#9d7"/>
    <path id="logo_EYS" d="M-10967.968-262.3l.34-.362a2.908,2.908,0,0,0,2.042.742c.97,0,1.541-.3,1.541-.8s-.595-.61-1.682-.7-2.1-.327-2.1-1.121c0-.759.956-1.19,2.03-1.19a3.105,3.105,0,0,1,2.062.719l-.378.322a2.373,2.373,0,0,0-1.663-.592c-.717-.006-1.556.2-1.556.725,0,.5.759.6,1.708.678,1.229.1,2.077.334,2.077,1.127,0,.742-.751,1.288-2.063,1.288A3.543,3.543,0,0,1-10967.968-262.3Zm-4.878.778v-1.409l-2.024-2.616h.585l1.688,2.18,1.684-2.18h.57l-2.016,2.616v1.409Zm-8.156,0v-4.025h3.835v.448h-3.352v1.305h2.839v.449h-2.839v1.375h3.407v.449Z" transform="translate(11131.841 597.047)" fill="#444"/>
    <path id="mark" d="M20.313,13.363H15.624v-.978A5.6,5.6,0,0,0,17.3,10.424,3.361,3.361,0,0,0,20.34,7.193,3.4,3.4,0,0,0,16.829,3.93a3.746,3.746,0,0,0-1.057.151,6.134,6.134,0,0,0-.833-.556,1.178,1.178,0,0,0-.888-1.954h-.433a1.965,1.965,0,0,0-3.851,0H9.335a1.178,1.178,0,0,0-.887,1.954,5.823,5.823,0,0,0-2.1,1.946L5.318,4.439a.393.393,0,0,0-.278-.115H2.261a.393.393,0,0,0-.278.671L5.56,8.571a4.945,4.945,0,0,0,2.2,3.828v.964h-4.6a.393.393,0,0,0-.393.393v7.318a.393.393,0,0,0,.393.393H5.124v1.179a.393.393,0,0,0,.393.393H8.661a.393.393,0,0,0,.393-.393V21.468h5.363v1.179a.393.393,0,0,0,.393.393h3.144a.393.393,0,0,0,.393-.393V21.468h1.965a.393.393,0,0,0,.393-.393V13.757a.393.393,0,0,0-.393-.393Zm-.758-6.17a2.525,2.525,0,0,1-1.908,2.362,5.044,5.044,0,0,0-1.173-4.817,2.647,2.647,0,0,1,3.081,2.455M11.694.786a1.181,1.181,0,0,1,1.112.786H10.582A1.181,1.181,0,0,1,11.694.786M9.336,2.358h4.716a.393.393,0,0,1,0,.786H9.336a.393.393,0,0,1,0-.786m-3,6.019A.393.393,0,0,0,6.22,8.12L3.21,5.11H4.878L6.161,6.392a.393.393,0,0,0,.629-.1A5.065,5.065,0,0,1,9.417,3.93h4.555a4.716,4.716,0,0,1,3.083,4.258,4.455,4.455,0,0,1-1.948,3.6H8.27A4.2,4.2,0,0,1,6.334,8.377Zm2.215,4.2h6.289v.786H8.55Zm-.281,9.676H5.91v-.786H8.268Zm9.293,0H15.2v-.786h2.358Zm2.358-1.572H3.552V14.15H19.92Z" transform="translate(148.547 304)" fill="#9d7"/>
  </g>
</svg>
