<svg xmlns="http://www.w3.org/2000/svg" width="58.368" height="52" viewBox="0 0 58.368 52">
  <g id="logo_flower" transform="translate(-520.497 -449.478)">
    <path id="logo_EYS" d="M-10968.675-262.488l.318-.343a2.756,2.756,0,0,0,1.931.7c.919,0,1.458-.288,1.458-.761s-.561-.576-1.587-.663-1.991-.31-1.991-1.06c0-.718.9-1.125,1.921-1.125a2.928,2.928,0,0,1,1.945.68l-.358.3a2.23,2.23,0,0,0-1.567-.56c-.68-.006-1.472.185-1.472.685,0,.473.716.571,1.614.641,1.157.092,1.963.316,1.963,1.066,0,.7-.712,1.218-1.951,1.218A3.341,3.341,0,0,1-10968.675-262.488Zm-4.614.736v-1.332l-1.912-2.474h.55l1.6,2.061,1.591-2.061h.543l-1.909,2.474v1.332Zm-7.711,0v-3.806h3.626v.424h-3.171v1.234h2.688v.424h-2.687v1.3h3.226v.424Z" transform="translate(11523.439 739.707)" fill="#444"/>
    <path id="icon" d="M3.789,21.6a.429.429,0,0,1-.3-.112.408.408,0,0,1-.083-.31c0-.016.03-.188.16-.911C3.909,18.38,4.7,13.957,4.7,13A12.4,12.4,0,0,0,3.446,9.262a.347.347,0,0,1,0-.381.339.339,0,0,1,.306-.188h1.55A15.448,15.448,0,0,0,4.85,7.181a.361.361,0,0,1-.058-.016l-.037-.01a1.239,1.239,0,0,1-1,.514,1.331,1.331,0,0,1-.993-.509,1.02,1.02,0,0,1-.3.054,2.03,2.03,0,0,1-1.4-.666,1.885,1.885,0,0,1-.607-1.7A1.242,1.242,0,0,1,0,3.814,1.325,1.325,0,0,1,.517,2.82a1.84,1.84,0,0,1,.608-1.705A2.152,2.152,0,0,1,2.52.466a1.116,1.116,0,0,1,.308.04A1.244,1.244,0,0,1,3.823,0a1.328,1.328,0,0,1,1,.511,1.488,1.488,0,0,1,.3-.031,1.519,1.519,0,0,1,.337.038,2.529,2.529,0,0,1,1.065.632,2.38,2.38,0,0,1,.631,1.063,1.153,1.153,0,0,1,.011.64,1.244,1.244,0,0,1,.508,1,1.333,1.333,0,0,1-.512,1,1.84,1.84,0,0,1-.608,1.706,2.4,2.4,0,0,1-.842.543c.2.6.346,1.11.461,1.6h4.549c.058-.265.116-.576.183-.97a.368.368,0,0,1-.042-.044.332.332,0,0,0-.026-.028,1.243,1.243,0,0,1-1.123-.073,1.327,1.327,0,0,1-.589-.947,1.015,1.015,0,0,1-.288-.11,2.032,2.032,0,0,1-.863-1.3A1.888,1.888,0,0,1,8.33,3.451a1.243,1.243,0,0,1,.148-1.111,1.329,1.329,0,0,1,.952-.588A1.841,1.841,0,0,1,10.83.6a2.846,2.846,0,0,1,.6-.066A1.574,1.574,0,0,1,12.6.96a1.228,1.228,0,0,1,.483-.1,1.25,1.25,0,0,1,.633.173,1.328,1.328,0,0,1,.591.952,1.527,1.527,0,0,1,.544.335,2.529,2.529,0,0,1,.589,1.09,2.394,2.394,0,0,1-.007,1.236,1.152,1.152,0,0,1-.32.556,1.24,1.24,0,0,1-.077,1.115,1.331,1.331,0,0,1-.956.592,1.84,1.84,0,0,1-1.4,1.148,2.382,2.382,0,0,1-1,.032c-.035.15-.085.354-.15.6h6.286a.389.389,0,0,1,.308.19.438.438,0,0,1,0,.377s-.01.024-.072.16A10.843,10.843,0,0,0,16.865,13c0,.96.8,5.381,1.136,7.27.13.723.16.894.16.92a.3.3,0,0,1-.08.3.421.421,0,0,1-.288.113Zm13.378-.76c-.066-.452-.16-.926-.269-1.471-.169-.844-.379-1.891-.59-3.393H8.789c-.567,1.329-1.084,2.5-1.54,3.529q-.314.71-.588,1.335Zm-11.281,0c.069-.16.19-.44.351-.806.4-.905,1.054-2.411,1.747-4.058H6.772a24.673,24.673,0,0,1-.99,4.038c-.1.323-.187.6-.249.826Zm-1.076,0c.106-.44.232-.84.365-1.265a19.011,19.011,0,0,0,.819-3.6H5.161c-.205,1.632-.419,2.72-.591,3.6-.092.468-.172.876-.23,1.266Zm3.506-5.658c.872-2.095,1.542-3.813,1.992-5.107l.066-.2c.057-.168.106-.313.149-.454H6.292a24.533,24.533,0,0,1,.54,5.76Zm-2.28,0a22.95,22.95,0,0,0-.543-5.76H4.44l.091.227A11.779,11.779,0,0,1,5.538,13a9.4,9.4,0,0,1-.114.993c-.047.336-.1.737-.158,1.189Zm10.154,0A20.4,20.4,0,0,1,16.042,13a11.538,11.538,0,0,1,1.1-3.577H11.327a26.394,26.394,0,0,1-.913,2.591c-.422,1.068-.844,2.106-1.29,3.167ZM11.761,7.258a1.566,1.566,0,0,0,.649-.026,1.146,1.146,0,0,0,.831-.562l-.021-.013a3.3,3.3,0,0,1-1.092-1.237.711.711,0,0,1-.116.042c-.051.619-.152,1.219-.251,1.8m-.736-1.9a2.35,2.35,0,0,0-1.061.908l-.05.082a.475.475,0,0,0,.8.468l.043-.074a2.585,2.585,0,0,0,.268-1.384m-7.3-.273a2.572,2.572,0,0,0-.432,1.326v.1A.475.475,0,0,0,4.221,6.5V6.414a2.53,2.53,0,0,0-.493-1.331M1.6,6.019a1.134,1.134,0,0,0,.87.405H2.5V6.412A3.445,3.445,0,0,1,3,4.84a.9.9,0,0,1-.232-.232,3.2,3.2,0,0,1-1.57.5H1.182a1.138,1.138,0,0,0,.312.822V5.9ZM4.639,4.673c.269.543.485,1.094.694,1.627l.016.04a1.587,1.587,0,0,0,.544-.356,1.133,1.133,0,0,0,.421-.91H6.289a3.3,3.3,0,0,1-1.572-.5.782.782,0,0,1-.078.1m8.12.24a2.847,2.847,0,0,0,.9,1.08l.084.05a.546.546,0,0,0,.135.017.5.5,0,0,0,.418-.227.463.463,0,0,0-.085-.589.149.149,0,0,1-.074-.08,2.883,2.883,0,0,0-1.175-.28l-.04-.058v.056a.4.4,0,0,0-.16.034m-4.047.136a1.139,1.139,0,0,0,.568.813l.006-.01a3.449,3.449,0,0,1,1.233-1.1.909.909,0,0,1-.08-.318h-.084a3.207,3.207,0,0,1-1.52-.384l-.012-.007a1.14,1.14,0,0,0-.12.986l-.035.015Zm2.56-.956a.461.461,0,1,0,.651-.187.475.475,0,0,0-.242-.068.459.459,0,0,0-.392.227Zm1.75.047a3.308,3.308,0,0,1,1.477.388l.021.013a.387.387,0,0,0,.1-.192,1.332,1.332,0,0,0,.008-.8,2.006,2.006,0,0,0-.391-.713.387.387,0,0,0-.18-.12l-.012.02a3.3,3.3,0,0,1-1.236,1.092.9.9,0,0,1,.08.315c.04,0,.083,0,.124,0ZM1.069,3.388a.429.429,0,0,0-.339.487.5.5,0,0,0,.38.471h.084a2.378,2.378,0,0,0,1.341-.513,3.161,3.161,0,0,0-1.341-.445Zm2.224.462a.48.48,0,1,0,0-.008l-.056.009Zm1.7-.035a2.836,2.836,0,0,0,1.332.465h.1a.5.5,0,0,0,.366-.463.464.464,0,0,0-.376-.46H6.4a.166.166,0,0,1-.1-.032,2.535,2.535,0,0,0-1.312.49M9.072,2.771a.5.5,0,0,0,.085.595l.072.04a2.848,2.848,0,0,0,1.19.288.429.429,0,0,0,.224-.038,3.142,3.142,0,0,0-.92-1.072L9.612,2.52A.374.374,0,0,0,9.478,2.5a.448.448,0,0,0-.4.271Zm3.475-.931A2.558,2.558,0,0,0,12.3,3.2a2.789,2.789,0,0,0,1.086-.9l.05-.084a.5.5,0,0,0-.21-.552.465.465,0,0,0-.586.08l-.033.052a.1.1,0,0,1-.06.04M10.132,1.9a3.293,3.293,0,0,1,1.091,1.236.909.909,0,0,1,.318-.08,3.2,3.2,0,0,1,.38-1.6l.009-.015a.886.886,0,0,0-.52-.169.574.574,0,0,0-.064,0,1.687,1.687,0,0,0-.408.052,1.143,1.143,0,0,0-.817.569ZM4.486,2.86a.887.887,0,0,1,.231.231,3.2,3.2,0,0,1,1.57-.5h.025A.394.394,0,0,0,6.3,2.378a1.336,1.336,0,0,0-.406-.69,1.99,1.99,0,0,0-.694-.41.683.683,0,0,0-.153-.021h0a.3.3,0,0,0-.062.006v.025a3.3,3.3,0,0,1-.5,1.572M1.193,2.594a3.3,3.3,0,0,1,1.572.5A.883.883,0,0,1,3,2.859a3.2,3.2,0,0,1-.5-1.57V1.267a.379.379,0,0,0-.064-.005V1.205l-.006.056a1.3,1.3,0,0,0-.84.421,1.146,1.146,0,0,0-.41.911Zm2.038-1.3a2.372,2.372,0,0,0,.51,1.3,3.161,3.161,0,0,0,.444-1.341v-.1A.5.5,0,0,0,3.72.792l0-.056V.792a.466.466,0,0,0-.456.376.168.168,0,0,1-.03.124" transform="translate(541.104 449.478)" fill="#aaf"/>
    <path id="txt" d="M59.8,24.454h.878v.729H59.226v1.008h1.457v.759H59.8v.988h3.484v.539H59.306v1.1h3.983v1.178h1.218V29.575h4v-1.1h-4v-.539h3.524V26.95h-.888v-.759H68.59V25.183H67.142v-.729h.888V23.5H59.8Zm3.484.749H61.871v-.749h1.418Zm0,1.747H61.871v-.779h1.418ZM65.954,25.2H64.507v-.749h1.447Zm0,1.747H64.507v-.779h1.447Zm2.635-5.1H66.374V21.31H65.116v.539h-2.4V21.31H61.492v.539H59.226v1.058h2.266v.429H62.72v-.429h2.4v.429h1.258v-.429H68.59Zm3.584,1.487h2.576a2.517,2.517,0,0,1-.15.469H72.732v5h5.79v-5H75.807a3.38,3.38,0,0,0,.23-.469h3.025V22.288H77.584c.11-.17.329-.529.459-.789l-1.278-.23a5.777,5.777,0,0,1-.439,1.018H74.819a6.087,6.087,0,0,0-.539-1.028l-1.148.309c.07.12.27.479.409.719H72.173v.749a7.35,7.35,0,0,0-1.537-1.617l-.859.809a8.7,8.7,0,0,1,1.457,1.727l.938-.839ZM77.3,26.561H73.95v-.589H77.3Zm0-1.308H73.95v-.559H77.3Zm0,2.645H73.95v-.619H77.3Zm-7.6-1.627h.9v2.386a5.357,5.357,0,0,1-1.018.709l.509,1.368a6.961,6.961,0,0,0,1.428-1.348,2.764,2.764,0,0,0,2.645,1.1h4.792l.24-1.168H74.23c-.519,0-2.116,0-2.426-1.148V25.093h-2.1Zm17.569-1.947c.01-1.188-.08-2.446-2.625-2.446-2.056,0-2.625.679-2.625,1.917a1.553,1.553,0,0,0,.749,1.487,2.062,2.062,0,0,0-1.477,2.3c0,2.146,1.6,2.326,3.154,2.326a3.214,3.214,0,0,0,2.216-.519l.429.439h1.8l-1.278-1.248a2.556,2.556,0,0,0,.409-1.627v-.809H86.738v.589a1.963,1.963,0,0,1-.11.908L83.8,24.654c-.3-.309-.439-.469-.439-.779,0-.449.24-.749,1.238-.749,1.338,0,1.328.539,1.328,1.2ZM85.71,28.388a2.195,2.195,0,0,1-1.328.289c-1.537,0-1.767-.549-1.767-1.168a1.225,1.225,0,0,1,.988-1.338Z" transform="translate(475.621 459.624)" fill="#aaf"/>
    <path id="txt-2" data-name="txt" d="M90.213,22.318v1.288h6.409c-.309,1.877-.908,4.622-5.61,5.391l.569,1.258c5.85-1.108,6.439-5.4,6.618-7.936Zm10.023.928H107.1V22h-6.868Zm-.709,1.118v1.248h6.579c-.319,1.467-1.018,3.264-5.411,3.464l.389,1.238c5.231-.449,6.259-2.825,6.6-5.95Zm9.733-2.176v3.873h1.408V23.446h4.941c-.03,1.9-.08,5.071-5.231,5.64l.519,1.248c3.873-.589,5.131-2.536,5.57-3.614a10.772,10.772,0,0,0,.589-3.314V22.188ZM118.3,26.74h8.845V25.323H118.3Zm15.7,3.983a8.508,8.508,0,0,0,2.116-1.667,8.245,8.245,0,0,0,1.707,1.677l.729-1.208A9.24,9.24,0,0,1,136.892,28a9.3,9.3,0,0,0,1.028-4.023h.459V22.717h-2.4c.11-.579.17-1.008.21-1.328l-1.178-.1a9.988,9.988,0,0,1-.988,3.284V23.9h-.569a10.5,10.5,0,0,0,1.128-1.857l-1.038-.479a9.582,9.582,0,0,1-.559,1.088v-.569h-1.118V21.33h-1.128v.749h-1.487v1.058h1.487V23.9h-1.717v1.068h1.937a9.172,9.172,0,0,1-2.066,1.288l.549,1.058a10.956,10.956,0,0,0,1.218-.739h1.388a3.011,3.011,0,0,1-.609.569h-.27v.649c-1.208.1-1.667.12-2.226.15l.08,1.138c.339-.02,1.847-.16,2.146-.18v.439c0,.22-.04.28-.309.28h-1.048l.21,1.118h1.328c.759,0,.958-.26.958-.928V28.777c1.168-.14,1.438-.18,1.807-.25V27.469c-.449.07-.868.12-1.807.22v-.18a6.7,6.7,0,0,0,1.228-.978v-.948h-1.627c.389-.359.539-.519.639-.619h1.238c-.07.11-.12.17-.28.379l.839,1.038c.1-.13.16-.23.319-.459a7.619,7.619,0,0,0,.769,2.066,6.065,6.065,0,0,1-2.216,1.6Zm2.755-6.748a7.955,7.955,0,0,1-.609,2.915,7.129,7.129,0,0,1-.709-2.436c.05-.12.1-.25.19-.479Zm-4.083-.859c-.12.17-.27.369-.619.779h-.24v-.779Zm15.3,3.354a9.086,9.086,0,0,0-1.647-1.737h.569V23.7h-6.029v1.038h.9a8.74,8.74,0,0,1-.459.918c-.23,0-1.378,0-1.477-.01l.09,1.058c2.036,0,2.466-.02,3.314-.05v.669h-3.224v1.068h3.224V29.3H139.2v1.118h9.384V29.3h-4.073v-.908h3.254V27.319h-3.254v-.709c1.348-.08,1.438-.09,1.917-.14a7.015,7.015,0,0,1,.539.739Zm-3-1.338c.18.14.3.23.529.419-.789.06-2.116.09-2.875.1a9.708,9.708,0,0,0,.5-.918h2.456ZM143.241,22h-3.783v2.356h1.258V23.1h6.349v1.258h1.258V22h-3.813v-.7h-1.268Z" transform="translate(430.284 470.745)" fill="#aaf"/>
  </g>
</svg>
