<svg xmlns="http://www.w3.org/2000/svg" width="60" height="26.746" viewBox="0 0 60 26.746">
  <g id="logo_engineer" transform="translate(-112 -1206.998)">
    <path id="logo_地球住所エンジニア村" d="M0,6.859a6.859,6.859,0,1,1,6.859,6.859A6.86,6.86,0,0,1,0,6.859Zm6.859,5.715A5.7,5.7,0,0,0,9.146,12.1V10.93A1.213,1.213,0,0,0,7.933,9.717H1.915A5.707,5.707,0,0,0,6.859,12.575ZM1.144,6.859a5.713,5.713,0,0,0,.263,1.716H7.933a2.353,2.353,0,0,1,2.356,2.356v.493a5.7,5.7,0,0,0,2.286-4.565c0-.1-.01-.194-.014-.29L11.137,5.146a1.144,1.144,0,0,0-1.617,0L7.9,6.762A2.286,2.286,0,0,1,4,5.146V1.915A5.706,5.706,0,0,0,1.144,6.859Zm4-5.453v3.74A1.143,1.143,0,0,0,7.1,5.954L8.713,4.336a2.288,2.288,0,0,1,3.232,0l.071.072a5.712,5.712,0,0,0-6.872-3ZM49.683,11.26a6.5,6.5,0,0,0,.532-1.838,24.536,24.536,0,0,0,.137-3.067V4.511h4.478v4.2a20.922,20.922,0,0,0,.6-5.981,15.7,15.7,0,0,0,4.028-.768l.417,1.514a15.635,15.635,0,0,1-2.887.615q-.021.823-.043,1.229H60V6.849h-.834v5.1H57.542v-5.1h-.7A10.822,10.822,0,0,1,56.17,9.8a7.39,7.39,0,0,1-1.383,2.13l-1.2-1.076A6.378,6.378,0,0,0,54.8,8.813H51.967a8.631,8.631,0,0,1-.768,3.337Zm2.327-4.083v.264h1.415V5.893H52.011ZM39.664,12.04V7.5a6.385,6.385,0,0,1-.681.933L38.5,6.453a8.737,8.737,0,0,0,1.185-1.976,12.833,12.833,0,0,0,.757-2.513l1.6.274a12.877,12.877,0,0,1-.714,2.689V12.04ZM32.3,11.963,32.212,10.5q-.417.318-1.076.768l-.582-.812q-1.229.373-2.678.658l-.154-1.471q.153-.033.944-.186V7.112h-.779V5.641h.779V4.149h-.889V2.634h3.3v.549h2.557V1.844H35.3V3.183h1q-.91-.593-.922-.6l.735-.988a19.193,19.193,0,0,1,1.756,1.185l-.3.406h.483V4.609H35.3v.373a13.957,13.957,0,0,0,.516,1.394,15.424,15.424,0,0,0,.976-1.526l1.317.626a13.738,13.738,0,0,1-1.57,2.371,12.476,12.476,0,0,0,1.734,2.415l-1.13,1.273A12.852,12.852,0,0,1,35.3,8.407V10.02q0,.5-.011.79a2.188,2.188,0,0,1-.088.543.984.984,0,0,1-.17.362.79.79,0,0,1-.319.187,1.7,1.7,0,0,1-.477.1q-.253.016-.7.016Q33.309,12.017,32.3,11.963Zm-.077-1.471q.845.056,1.076.055t.291-.061a.845.845,0,0,0,.049-.39V9.263A16.366,16.366,0,0,1,32.222,10.492Zm-1.1-1.1a16.162,16.162,0,0,0,1.844-1.547l.67.768V6.75l-.988.867a22.58,22.58,0,0,0-1.58-1.7v1.2H30.2V9.1q.483-.132.889-.263Zm2.513-2.854V4.609H30.894V4.149H30.2V5.641h.867v.011l.944-.79A20.629,20.629,0,0,1,33.638,6.541ZM22.5,11.924a5.275,5.275,0,0,1-.763-.082,2,2,0,0,1-.511-.148.662.662,0,0,1-.269-.28A1.069,1.069,0,0,1,20.83,11q-.021-.214-.022-.6V6.135l-.889.176-.077-.691h-.472V9.395q.362-.121.966-.34l.044,1.471a20.735,20.735,0,0,1-3.435,1.087l-.154-1.526q.066-.011.4-.088l.516-.121V5.619h-.856V4.193H17.7V2.184h1.668V4.193h.911v.45l.527-.11V2.546h1.624V4.214l.581-.11V2h1.46V3.808l2.436-.472v.856A21.475,21.475,0,0,1,26.746,7.5q-.164.873-.593,1l1.1.252q-.033.637-.06,1.01a5.093,5.093,0,0,1-.115.757,3.61,3.61,0,0,1-.17.576,1.042,1.042,0,0,1-.307.378,1.442,1.442,0,0,1-.428.258,3.566,3.566,0,0,1-.631.131,6.6,6.6,0,0,1-.829.066q-.4.005-1.092.005T22.5,11.924Zm-.071-6.118v4.236q0,.319.219.373a10.213,10.213,0,0,0,1.471.055h.472a2.291,2.291,0,0,0,.352-.033,1.3,1.3,0,0,0,.269-.06.646.646,0,0,0,.17-.148A.506.506,0,0,0,25.517,10q.022-.1.066-.352a3.688,3.688,0,0,0,.055-.466c.007-.146.018-.359.033-.637q-.153,0-.768-.022l-.319-1.482q.1,0,.3.016c.132.011.216.016.252.016a.129.129,0,0,0,.093-.027.578.578,0,0,0,.06-.214,4.082,4.082,0,0,0,.044-.549q.011-.362.022-1.064l-.878.175V9.307h-1.46V5.685Zm19.294,5.97v-1.47H44.58V8.473H42.2V7.046H44.58V5.454H41.837V3.973h4.84a23.654,23.654,0,0,0-3.4-.724l.439-1.438a21.3,21.3,0,0,1,3.994.911l-.439,1.251h1.679V5.454H46.325V7.046H48.6V8.473H46.325v1.833h2.744v1.47Zm8.242-7.968V2.327h4.95V3.808Z" transform="translate(112 1206.998)" fill="#222"/>
    <path id="logo_地球住所エンジニア村-2" data-name="logo_地球住所エンジニア村" d="M162.145,13.485V9.457a7.208,7.208,0,0,1-.966,2.019l-.834-1.482a10.483,10.483,0,0,0,1.526-3.523h-1.141V4.99h1.416V3.454H163.8V4.99h1.032V6.472h-.779q.757,1.218,1.415,2.381l-1.009.911q-.351-.735-.659-1.339v5.06ZM166.1,13.4l-.088-1.471q1.262.055,1.712.055a1.271,1.271,0,0,0,.532-.06q.082-.06.082-.39V6.472h-3.062V4.99h3.062V3.454h1.745V4.99h.8V6.472h-.8v4.983q0,.5-.017.79a2.2,2.2,0,0,1-.1.543.824.824,0,0,1-.2.362,1.026,1.026,0,0,1-.373.187,2.212,2.212,0,0,1-.549.1q-.291.016-.807.016Q167.545,13.452,166.1,13.4ZM131.5,11.344a14.279,14.279,0,0,0,2.892-.494A5.918,5.918,0,0,0,136.4,9.83a4.793,4.793,0,0,0,1.322-1.647,9.748,9.748,0,0,0,.768-2.447l1.679.274a8.37,8.37,0,0,1-2.584,5.071,10.413,10.413,0,0,1-5.811,1.942Zm19.8.242a4.187,4.187,0,0,0,1.345-.976,3.213,3.213,0,0,0,.636-1.416,12.36,12.36,0,0,0,.192-2.48h1.767a13.625,13.625,0,0,1-.28,3.095,4.4,4.4,0,0,1-.905,1.877A5.766,5.766,0,0,1,152.245,13Zm-29.457-.614a8.83,8.83,0,0,0,4.812-1.685,7.032,7.032,0,0,0,2.234-4.132l1.679.373a8.277,8.277,0,0,1-2.651,5.076,10.114,10.114,0,0,1-5.8,2.091Zm19.02,1.471V10.708H149.8v1.734Zm-28.864,0V10.85h3.424V6.087h-3.1V4.5h8.056V6.087H117.29V10.85h3.424v1.592Zm53.185-4.818L166.666,7a32.359,32.359,0,0,1,1.328,3.249l-1.482.538A24.436,24.436,0,0,0,165.185,7.624Zm-9.361.582A4.9,4.9,0,0,0,157.9,5.923h-7.09V4.375h9V5.923a5.9,5.9,0,0,1-1.092,2.008,7,7,0,0,1-1.805,1.6Zm-24.759-.055.318-1.526q1.942.329,3.655.7l-.329,1.526Q132.951,8.469,131.064,8.151Zm-9.45-2.48.845-1.592q1.6.725,3.425,1.7l-.889,1.591Q123.162,6.394,121.614,5.671Zm9.976-.143.329-1.559q1.756.3,3.731.7l-.329,1.57Q133.039,5.769,131.59,5.528Zm10.042.7V4.5h7.4V6.23Zm-4.247-2.349,1.031-.516q.45.845.834,1.613l-1.032.494Q137.868,4.748,137.385,3.881Zm1.646-.154,1.053-.526q.505.922.856,1.646l-1.054.5Q139.295,4.21,139.031,3.728Z" transform="translate(0.56 1220.259)" fill="#222"/>
  </g>
</svg>
