<svg xmlns="http://www.w3.org/2000/svg" xmlns:xlink="http://www.w3.org/1999/xlink" width="135.605" height="30" viewBox="0 0 135.605 30">
  <defs>
    <linearGradient id="linear-gradient" x1="1" y1="0.5" x2="0" y2="0.5" gradientUnits="objectBoundingBox">
      <stop offset="0" stop-color="#8af"/>
      <stop offset="1" stop-color="#c9f"/>
    </linearGradient>
  </defs>
  <path id="logo" d="M446.44,151.444a7.542,7.542,0,0,1-2.561-1.893,7.625,7.625,0,0,1-1.551-2.795,8.071,8.071,0,0,1-.273-3.432,9.322,9.322,0,0,1,1.115-3.43,10.675,10.675,0,0,1,5.263-4.688,9.14,9.14,0,0,1,3.517-.693,7.925,7.925,0,0,1,3.346.693,7.519,7.519,0,0,1,4.112,4.688,8.073,8.073,0,0,1,.272,3.43,9.291,9.291,0,0,1-1.115,3.432,10.663,10.663,0,0,1-5.262,4.688,9.127,9.127,0,0,1-3.517.694A7.917,7.917,0,0,1,446.44,151.444Zm2.908-13.294a6.614,6.614,0,0,0-1.873,1.2,6.493,6.493,0,0,0-2.045,3.974,5.592,5.592,0,0,0,.143,2.194,4.585,4.585,0,0,0,.926,1.781,4.723,4.723,0,0,0,1.578,1.2,4.789,4.789,0,0,0,2.1.45,5.552,5.552,0,0,0,2.212-.45,6.666,6.666,0,0,0,1.872-1.2,6.5,6.5,0,0,0,2.043-3.975,5.594,5.594,0,0,0-.143-2.193,4.6,4.6,0,0,0-.925-1.781,4.716,4.716,0,0,0-1.577-1.2,4.784,4.784,0,0,0-2.1-.45A5.527,5.527,0,0,0,449.347,138.151Zm-37.088,13.443a5.631,5.631,0,0,1-1.977-1.463,5.462,5.462,0,0,1-1.123-2.157,6.67,6.67,0,0,1-.169-2.587l1.151-9.375a1.261,1.261,0,0,1,.4-.825,1.244,1.244,0,0,1,.861-.3h1.125a.989.989,0,0,1,.788.3,1.009,1.009,0,0,1,.2.825l-1.151,9.375a3.564,3.564,0,0,0,.537,2.493,2.8,2.8,0,0,0,2.514,1.069,3.5,3.5,0,0,0,2.756-1.069,4.478,4.478,0,0,0,1.131-2.493l1.151-9.375a1.261,1.261,0,0,1,.4-.825,1.242,1.242,0,0,1,.861-.3h1.125a.989.989,0,0,1,.788.3,1.012,1.012,0,0,1,.2.825l-1.151,9.375a7.63,7.63,0,0,1-.806,2.587,7.768,7.768,0,0,1-1.633,2.157,7.66,7.66,0,0,1-2.317,1.463,7.554,7.554,0,0,1-2.9.544A6.591,6.591,0,0,1,412.259,151.594Zm-29.35.056a4.536,4.536,0,0,1-1.705-1.387,5.74,5.74,0,0,1-.973-2.156,7.865,7.865,0,0,1-.111-2.757l.41-3.337a8.022,8.022,0,0,1,.866-2.775,7.9,7.9,0,0,1,1.758-2.269,8.435,8.435,0,0,1,2.456-1.519,7.758,7.758,0,0,1,2.956-.563h5.588a.991.991,0,0,1,.788.3,1.011,1.011,0,0,1,.2.825l-1.8,14.625a1.267,1.267,0,0,1-.4.825,1.245,1.245,0,0,1-.862.3h-1.125a.924.924,0,0,1-.783-.338.991.991,0,0,1-.208-.751c.018-.149-.026-.243-.134-.281s-.221.007-.336.132a4.438,4.438,0,0,1-1.7,1.162,6.626,6.626,0,0,1-2.549.45A5.4,5.4,0,0,1,382.909,151.65Zm2.368-12.412a4.591,4.591,0,0,0-1.372,2.775l-.456,3.713a2.953,2.953,0,0,0,.558,2.324,2.708,2.708,0,0,0,2.233.9,4.112,4.112,0,0,0,3.124-1.312,4.939,4.939,0,0,0,.894-1.332,5.141,5.141,0,0,0,.431-1.519l.778-6.337q.046-.375-.329-.375h-2.812A4.147,4.147,0,0,0,385.277,139.238Zm-40.8,12.412a4.523,4.523,0,0,1-1.705-1.387,5.716,5.716,0,0,1-.973-2.156,7.863,7.863,0,0,1-.112-2.757l.41-3.337a8.06,8.06,0,0,1,.865-2.775,7.92,7.92,0,0,1,1.76-2.269,8.422,8.422,0,0,1,2.456-1.519,7.758,7.758,0,0,1,2.957-.563h5.588a.99.99,0,0,1,.788.3,1.011,1.011,0,0,1,.2.825l-1.8,14.625a1.266,1.266,0,0,1-.4.825,1.239,1.239,0,0,1-.861.3h-1.125a.924.924,0,0,1-.784-.338.99.99,0,0,1-.208-.751c.018-.149-.026-.243-.134-.281s-.22.007-.335.132a4.44,4.44,0,0,1-1.7,1.162,6.626,6.626,0,0,1-2.549.45A5.4,5.4,0,0,1,344.472,151.65Zm2.367-12.412a4.59,4.59,0,0,0-1.372,2.775l-.456,3.713a2.957,2.957,0,0,0,.558,2.324,2.712,2.712,0,0,0,2.234.9,4.253,4.253,0,0,0,1.788-.356,4.21,4.21,0,0,0,1.336-.957,4.96,4.96,0,0,0,.9-1.332,5.165,5.165,0,0,0,.43-1.519l.778-6.337q.046-.375-.329-.375h-2.813A4.147,4.147,0,0,0,346.84,139.238Zm89.68,12.525a.987.987,0,0,1-.788-.3,1.011,1.011,0,0,1-.2-.825l1.151-9.375a3.462,3.462,0,0,0-.574-2.494,2.9,2.9,0,0,0-2.551-1.068,3.692,3.692,0,0,0-2.812,1.068,4.321,4.321,0,0,0-1.187,2.494l-1.152,9.375a1.261,1.261,0,0,1-.4.825,1.241,1.241,0,0,1-.861.3H426.02a.988.988,0,0,1-.789-.3,1.011,1.011,0,0,1-.2-.825l1.152-9.375a7.384,7.384,0,0,1,.824-2.588,7.78,7.78,0,0,1,4.025-3.619,7.726,7.726,0,0,1,2.918-.543,6.741,6.741,0,0,1,2.782.543,5.494,5.494,0,0,1,3.138,3.619,6.442,6.442,0,0,1,.188,2.588l-1.151,9.375a1.258,1.258,0,0,1-.4.825,1.24,1.24,0,0,1-.861.3Zm-65.624,0a.989.989,0,0,1-.788-.3,1.006,1.006,0,0,1-.2-.825l1.174-9.563a7.212,7.212,0,0,1,2.122-4.462,6.349,6.349,0,0,1,4.6-1.725h1.35a.991.991,0,0,1,.788.3,1.011,1.011,0,0,1,.2.825l-.115.938a1.264,1.264,0,0,1-.4.825,1.242,1.242,0,0,1-.861.3h-1.125a2.857,2.857,0,0,0-2.227.88,4.063,4.063,0,0,0-.976,2.307l-1.152,9.375a1.262,1.262,0,0,1-.4.825,1.239,1.239,0,0,1-.861.3Zm-35.249,0a.988.988,0,0,1-.788-.3,1,1,0,0,1-.2-.825l1.151-9.375a3.462,3.462,0,0,0-.575-2.494,2.9,2.9,0,0,0-2.55-1.068,3.692,3.692,0,0,0-2.812,1.068,4.312,4.312,0,0,0-1.187,2.494l-1.152,9.375a1.264,1.264,0,0,1-.4.825,1.24,1.24,0,0,1-.861.3h-1.125a.988.988,0,0,1-.788-.3,1.006,1.006,0,0,1-.2-.825l1.152-9.375a7.386,7.386,0,0,1,.824-2.588,7.77,7.77,0,0,1,4.026-3.619,7.719,7.719,0,0,1,2.917-.543,6.748,6.748,0,0,1,2.784.543A5.491,5.491,0,0,1,339,138.674a6.427,6.427,0,0,1,.189,2.588l-1.151,9.375a1.266,1.266,0,0,1-.4.825,1.239,1.239,0,0,1-.861.3Zm63.005-7.688a.992.992,0,0,1-.788-.3,1,1,0,0,1-.2-.825l.115-.938a1.267,1.267,0,0,1,.4-.825,1.247,1.247,0,0,1,.863-.3h6a.99.99,0,0,1,.788.3,1.006,1.006,0,0,1,.2.825l-.115.938a1.264,1.264,0,0,1-.4.825,1.248,1.248,0,0,1-.862.3Zm-38.436,0a.991.991,0,0,1-.788-.3,1,1,0,0,1-.2-.825l.115-.938a1.261,1.261,0,0,1,.4-.825,1.245,1.245,0,0,1,.862-.3h6a.992.992,0,0,1,.789.3,1.016,1.016,0,0,1,.2.825l-.115.938a1.26,1.26,0,0,1-.4.825,1.246,1.246,0,0,1-.861.3Zm82.325-15.262a6.454,6.454,0,0,0,5.99-6.639h.864a7.176,7.176,0,0,1-6.854,7.457Zm-80.471.818v-.8h1.708c2.853,0,4.363-.648,4.363-3.193v-.512h-6.62v-.792h7.5v1.25c0,3.068-1.844,4.048-5.208,4.048Zm27.567-.009v-.8h1.241c2.464,0,4.282-.693,4.282-3.409v-1.727h-5.784v2.78h-.81v-3.571h3.275v-.755h.81v.755h3.328v2.554c0,3.1-2,4.174-5.1,4.174Zm-54.954-.018v-.791h1.007c3,0,4.183-1.3,4.183-3.949v-.756H334.5V123.3h5.37v-1.152h.828V123.3h1.413v.809H340.7v.819c0,3.1-1.583,4.677-4.992,4.677Zm81.091-3.274v-.855h7.007v.855ZM361.5,123.082v-.8h7.52v.8Z" transform="translate(-324.146 -122.138)" fill="url(#linear-gradient)"/>
</svg>
