<svg xmlns="http://www.w3.org/2000/svg" xmlns:xlink="http://www.w3.org/1999/xlink" width="80.557" height="40" viewBox="0 0 80.557 40">
  <defs>
    <linearGradient id="linear-gradient" x1="1" y1="0.5" x2="0" y2="0.5" gradientUnits="objectBoundingBox">
      <stop offset="0" stop-color="#0cb"/>
      <stop offset="1" stop-color="#6de"/>
    </linearGradient>
  </defs>
  <g id="logo_SQeT" transform="translate(71.95 9.086)">
    <path id="Path_451024" data-name="Path 451024" d="M32.138,23.126a11.619,11.619,0,1,1,4.516-2.274l6.438,6.438-1.377,1.345L35.02,21.973c-.288.16-.577.32-.865.449l6.886,6.886L39.7,30.686ZM19.293,11.787a9.849,9.849,0,1,0,9.833-9.865A9.815,9.815,0,0,0,19.293,11.787Zm53.1,17.521V6.886h-.961V29.308H69.507V6.886H55.466V4.965H80.557V6.886H74.311V29.308ZM0,23.233,1.57,22.08a7.986,7.986,0,0,0,5.509,2.178c3.267,0,6.118-1.922,6.118-4.933a4.771,4.771,0,0,0-3.235-4.8l-4-1.057A3.905,3.905,0,0,1,3.331,9.652c0-2.466,2.178-4.068,4.645-4.068a5.446,5.446,0,0,1,3.844,1.57L10.346,8.4a3.5,3.5,0,0,0-2.466-.9A2.374,2.374,0,0,0,5.221,9.78,1.84,1.84,0,0,0,6.6,11.638l4.036,1.153c2.883.7,4.516,3.588,4.516,6.406,0,4.2-3.748,6.983-7.976,6.983A9.546,9.546,0,0,1,0,23.233Zm50.341,1.945V12.74h-.961V25.178H47.459V10.818h15.4v8.435h-10.6v4h10.6V25.18Zm1.922-7.847h8.729V12.74H52.263ZM2.242,21.407l1.569-1.153a5.252,5.252,0,0,0,3.235,1.121c1.89,0,3.267-.865,3.267-2.21a1.905,1.905,0,0,0-1.377-1.89l-4-1.153C2.05,15.417.417,12.567.417,9.748c0-4.26,3.555-7.047,7.5-7.047A8.307,8.307,0,0,1,14.062,5.3L12.524,6.545A6.43,6.43,0,0,0,7.88,4.623c-2.947,0-5.541,2.018-5.541,5.029a4.756,4.756,0,0,0,3.267,4.741l4,1.057a3.959,3.959,0,0,1,2.627,3.844c0,2.434-2.4,4-5.189,4A6.713,6.713,0,0,1,2.242,21.407Zm18.012-9.62a8.889,8.889,0,1,1,8.872,8.873A8.9,8.9,0,0,1,20.254,11.787Zm1.89,0A6.967,6.967,0,1,0,29.095,4.8,6.945,6.945,0,0,0,22.144,11.787ZM55.466,4V2.082H80.557V4Z" transform="translate(-71.95 0.229)" fill="url(#linear-gradient)"/>
    <path id="Path_451025" data-name="Path 451025" d="M-60.217-6.02A14.109,14.109,0,0,0-62.31-8.165a9.319,9.319,0,0,0,1.256-2.967h-5.269v1.293h3.4A6.95,6.95,0,0,1-66.906-6.11l.83,1.136a8.55,8.55,0,0,0,2.96-2.145,12.524,12.524,0,0,1,1.846,2.048Zm17.354,1.158a4.449,4.449,0,0,0,2.287-4.073h1.749v-1.278h-3.767a10.357,10.357,0,0,0,.4-1.031l-1.263-.4A8.956,8.956,0,0,1-45.441-8.24l1.106.747a7.717,7.717,0,0,0,1.084-1.442h1.308a3.39,3.39,0,0,1-2.018,3.146Zm19.776-4.522a10.306,10.306,0,0,1,.9,1.629l.972-.531a11.067,11.067,0,0,0-.927-1.644Zm1.5-.389a9.058,9.058,0,0,1,.867,1.667l.987-.508a9.554,9.554,0,0,0-.882-1.667Zm2.653-.262c-.254,2.272-1.143,3.55-3.4,4.178l.845.934a5.26,5.26,0,0,0,3.729-4.888Zm23,2.145A18.162,18.162,0,0,0,.934-9.712v-1.868H-.419v6.622H.934V-8.277a15.091,15.091,0,0,1,2.392,1.54Z" transform="translate(-0.27 2.563)" fill="#888"/>
  </g>
</svg>
