<svg xmlns="http://www.w3.org/2000/svg" width="128.739" height="29" viewBox="0 0 128.739 29">
  <path id="logo_otolier" d="M-11393.885-299.712c0-5.525,7.115-9.61,10.9-9.61a2.207,2.207,0,0,1,2.5,2.119c0,3.177-4.388,4.54-8.325,4.692-2.989,3.177-3.258,4.159-3.258,4.653s.574.643,1.329.643c3.593,0,8.291-3.481,10.784-6.659h.53c-3.065,3.9-7.875,7.114-11.468,7.114A2.737,2.737,0,0,1-11393.885-299.712Zm8.819-7.04-3.367,3.785c3.254,0,6.583-2.5,6.583-5.031,0-.53-.3-.872-.642-.872C-11383.1-308.87-11383.734-308.228-11385.065-306.752Zm-23.113,7.53a5.041,5.041,0,0,1,1.43-3.216l5.679-6.432h4.314l-8.853,9.988c-.642.759-.758.946-.758,1.137a.574.574,0,0,0,.644.53c1.4,0,3.859-1.628,9.191-6.584l.383.152c-5.906,5.677-8.133,6.888-9.726,6.888A2.264,2.264,0,0,1-11408.179-299.221ZM-11424.6-301c0-1.437.984-3.026,2.27-4.54,9.047-10.631,18.012-18.009,21.8-18.009.978,0,1.278.833,1.278,1.589,0,2.952-6.73,10.669-17.026,14.909l-5.181,6.316c-1.212,1.44-1.327,2.083-1.327,2.46,0,.682.682,1.059,1.44,1.059,2.989,0,7.793-4.314,9.612-6.584l.528.229c-2.652,2.948-7.191,6.81-9.989,6.81C-11423.319-296.761-11424.6-298.049-11424.6-301Zm16.12-15.284-7.187,8.4h.069c6.891-2.8,15.895-10.669,15.895-14,0-.756-.379-1.211-.984-1.211C-11402.2-323.1-11405.573-319.652-11408.484-316.284Zm-36.933,16.078c0-3.517,5.68-9.116,10.292-9.116a3.351,3.351,0,0,1,3.028,1.134,2.13,2.13,0,0,1,.909-.226,1.273,1.273,0,0,1,1.323,1.363c0,1.134-.53,2.041-2.156,4.011a3.065,3.065,0,0,0,1.517.226,5.159,5.159,0,0,0,2.8-1.363v.53a5.152,5.152,0,0,1-3.183,1.285,2.732,2.732,0,0,1-1.438-.3c-2.346,2.5-5.6,5.9-9.308,5.9C-11444.511-296.761-11445.417-298.5-11445.417-300.206Zm8.666-6.016c-4.127,4.049-6.393,6.206-6.393,7.8,0,.681.528,1.211,1.511,1.211,3.256,0,6.354-2.951,8.779-5.6a2.343,2.343,0,0,1-1.325-2.005,4.254,4.254,0,0,1,1.626-3.142,1.227,1.227,0,0,0-.986-.452C-11434.37-308.415-11434.824-308.114-11436.751-306.222Zm-24.176,7.114c0-1.285.572-2.231,2.117-3.933l7.113-7.721h-2.649l.31-.452h2.753l4.737-5.147h4.459l-4.693,5.147h2.729l-.3.452h-2.834l-10.48,11.5c-.913.985-.988,1.324-.988,1.589,0,.19.154.455.607.455,1.666,0,4.656-2.118,9.31-6.433l.376.152c-3.218,3.139-7.456,6.736-10.066,6.736A2.264,2.264,0,0,1-11460.927-299.108Zm-27.852-4.844c0-9.381,14.232-20.809,26.3-20.809,3.67,0,7.149,1.815,7.149,5.825,0,2.422-1.056,3.71-2.8,5.451l-.373-.152c1.9-1.97,2.723-3.329,2.723-5.451,0-3.63-3.7-5.218-6.508-5.218-8.4,0-24.215,15.891-24.215,22.549,0,3.707,2.117,4.54,4.768,4.54,11.58,0,21.414-12.106,21.414-17.479,0-2.422-1.285-4.162-4.049-4.162-4.082,0-9.572,4.085-9.572,8.286a2.263,2.263,0,0,0,2.424,2.535c2.91,0,6.58-4.618,7.109-7.114h.229c0,3.481-3.1,7.566-7.076,7.566-1.815,0-3.143-.794-3.143-2.987,0-4.579,5.834-8.741,10.068-8.741a4.2,4.2,0,0,1,4.464,4.54c0,6.658-11.122,18.012-21.565,18.012C-11486.433-296.761-11488.778-299.561-11488.778-303.952Zm108.368,6.736,10.438-11.654h4.318l-5.187,5.525.075.074a10.75,10.75,0,0,1,3.6-1.363c.752-1.663,2.947-4.689,4.992-4.689.453,0,1.133.226,1.133.907,0,2.5-3.705,3.555-5.679,4.163-.142.148-.142.452-.142.83a1.253,1.253,0,0,0,1.281,1.211,4.818,4.818,0,0,0,3.707-2.344l.376.226c-1.06,1.324-2.16,2.574-4.007,2.574a1.6,1.6,0,0,1-1.819-1.437,4.462,4.462,0,0,1,.079-.985,10.926,10.926,0,0,0-5.637,3.407l-3.218,3.555Zm-15.738-16.876a2.519,2.519,0,0,1,2.415-2.193,1.5,1.5,0,0,1,1.668,1.437,2.525,2.525,0,0,1-2.421,2.193A1.5,1.5,0,0,1-11396.148-314.092Z" transform="translate(11489.278 325.261)" fill="#875835" stroke="rgba(0,0,0,0)" stroke-width="1"/>
</svg>
