<svg id="logo_Kids_dance" xmlns="http://www.w3.org/2000/svg" width="176.8" height="40" viewBox="0 0 176.8 40">
  <path id="Path_6393" data-name="Path 6393" d="M70.713,48.537H68.2v1.95h4.42v1H67.08V44.92h5.3v1.011H68.2v1.631h2.511Z" transform="translate(-7.781 -11.693)" fill="#231815"/>
  <path id="Path_6394" data-name="Path 6394" d="M81.712,44.92,79.06,48.466v3.023H77.9V48.466L75.25,44.92h1.423l1.874,2.535,1.874-2.535Z" transform="translate(-8.729 -11.693)" fill="#231815"/>
  <path id="Path_6395" data-name="Path 6395" d="M89.705,46.442a3.529,3.529,0,0,0-2.378-.762c-.787,0-1.476.248-1.476.94s.972.745,1.962.816c1.176.08,3.023.2,3.023,2.03,0,1.587-1.326,2.207-2.891,2.207A5.128,5.128,0,0,1,84.41,50.29l.681-.78A4.237,4.237,0,0,0,88.008,50.7c.972,0,1.768-.337,1.768-1.082s-.751-.993-1.9-1.082c-1.441-.106-3.085-.222-3.085-1.773s1.432-2.021,2.652-2.021a5.144,5.144,0,0,1,3.023.949Z" transform="translate(-9.792 -11.673)" fill="#231815"/>
  <path id="Path_6396" data-name="Path 6396" d="M94.12,48.86h2.546v1.011H94.12Z" transform="translate(-10.918 -12.14)" fill="#231815"/>
  <path id="Path_6397" data-name="Path 6397" d="M101.333,48.174l3.421-3.254h1.388l-2.652,2.518,3.262,4.051h-1.459l-2.652-3.3-1.308,1.232v2.066H100.21V44.92h1.123Z" transform="translate(-11.624 -11.693)" fill="#231815"/>
  <path id="Path_6398" data-name="Path 6398" d="M110.215,44.39a.637.637,0,0,1,.663.6.619.619,0,0,1-.663.594.611.611,0,0,1-.645-.594.62.62,0,0,1,.645-.6Zm-.513,7.039V46.571h1.034v4.858Z" transform="translate(-12.71 -11.633)" fill="#231815"/>
  <path id="Path_6399" data-name="Path 6399" d="M117.633,51.431a3.484,3.484,0,0,1-.071-.674,2,2,0,0,1-1.591.824,2.589,2.589,0,0,1,0-5.168,2.128,2.128,0,0,1,1.494.656V44.41H118.5v5.7a7,7,0,0,0,.088,1.339Zm-2.891-2.447c0,1.028.6,1.693,1.326,1.693a1.872,1.872,0,0,0,1.4-.683V48a2.013,2.013,0,0,0-1.4-.674C115.326,47.327,114.742,47.983,114.742,48.984Z" transform="translate(-13.171 -11.635)" fill="#231815"/>
  <path id="Path_6400" data-name="Path 6400" d="M125.754,48.006a4.066,4.066,0,0,0-1.768-.5c-.522,0-.981.177-.981.567s.751.541,1.185.559c.884,0,2.307.124,2.307,1.534,0,1.152-1,1.684-2.272,1.684a4.191,4.191,0,0,1-2.4-.745l.389-.78a3.856,3.856,0,0,0,2.007.665c.716,0,1.246-.257,1.246-.727s-.743-.612-1.273-.647c-1.017-.053-2.219-.151-2.219-1.427s1.052-1.543,2-1.543a4.931,4.931,0,0,1,2.2.559Z" transform="translate(-14.131 -11.889)" fill="#231815"/>
  <path id="Path_6401" data-name="Path 6401" d="M0,32.852V21.478H5.3a6.239,6.239,0,0,1,4.738,1.7,6,6,0,0,1-.08,8.05A6.248,6.248,0,0,1,5.3,32.852ZM5.154,30.29a2.885,2.885,0,0,0,2.263-.745A3.081,3.081,0,0,0,8.3,27.187a3.179,3.179,0,0,0-.884-2.3A2.789,2.789,0,0,0,5.074,24H3.067v6.25Z" transform="translate(0 -9.031)" fill="#231815"/>
  <path id="Path_6402" data-name="Path 6402" d="M15.85,32.854l5.3-11.374h2.519l5.26,11.374h-3.35l-.734-1.773H19.775l-.707,1.773Zm4.9-4.113h3.129L22.365,25.1h-.106Z" transform="translate(-1.839 -9.033)" fill="#231815"/>
  <path id="Path_6403" data-name="Path 6403" d="M45.052,21.48V32.854H42.48l-5-6.206h0v6.206H34.4V21.48h2.555l5.021,6.206h0V21.48Z" transform="translate(-3.99 -9.033)" fill="#231815"/>
  <path id="Path_6404" data-name="Path 6404" d="M63.3,30.841a9,9,0,0,1-5.923,2.314,6.037,6.037,0,1,1-.088-12.066,9.459,9.459,0,0,1,5.658,1.95l-1.821,1.986a5.887,5.887,0,0,0-3.456-1.356,3.364,3.364,0,0,0-3.456,3.484,3.408,3.408,0,0,0,3.536,3.484,5.819,5.819,0,0,0,3.7-1.72Z" transform="translate(-5.926 -8.989)" fill="#231815"/>
  <path id="Path_6405" data-name="Path 6405" d="M76.019,28.288h-4v2H79.1v2.562H69V21.48h9.724v2.562h-6.7v1.773h4Z" transform="translate(-8.004 -9.033)" fill="#231815"/>
  <path id="Path_6406" data-name="Path 6406" d="M84.09,32.854l5.3-11.374h1.423l5.3,11.374H94.389L92.85,29.441H87.184l-1.529,3.413Zm3.633-4.637h4.588l-2.245-4.965H89.96Z" transform="translate(-9.754 -9.033)" fill="#231815"/>
  <path id="Path_6407" data-name="Path 6407" d="M111.949,30.847a7.768,7.768,0,0,1-5.437,2.261,5.984,5.984,0,0,1-.071-11.968,7.749,7.749,0,0,1,5.189,1.95L110.614,24.1a6.24,6.24,0,0,0-4.137-1.613,4.645,4.645,0,1,0,.053,9.282,6.18,6.18,0,0,0,4.42-1.915Z" transform="translate(-11.659 -8.995)" fill="#231815"/>
  <path id="Path_6408" data-name="Path 6408" d="M115.77,32.854l5.3-11.374H122.5l5.3,11.374h-1.644l-1.547-3.413h-5.666l-1.52,3.413Zm3.624-4.637h4.588l-2.237-4.965h-.106Z" transform="translate(-13.429 -9.033)" fill="#231815"/>
  <path id="Path_6409" data-name="Path 6409" d="M133.08,32.852V21.478h5.039a5.657,5.657,0,0,1,4.323,1.587,6.094,6.094,0,0,1-.088,8.289,5.577,5.577,0,0,1-4.234,1.5Zm4.986-1.339a4.068,4.068,0,0,0,3.1-1.1,4.582,4.582,0,0,0,1.273-3.262,4.44,4.44,0,0,0-1.22-3.183,4.051,4.051,0,0,0-3.156-1.152h-3.474v8.7Z" transform="translate(-15.437 -9.032)" fill="#231815"/>
  <path id="Path_6410" data-name="Path 6410" d="M156.011,27.544h-4.579v3.972h8v1.339H149.92V21.48h9.114v1.348h-7.6V26.2h4.579Z" transform="translate(-17.391 -9.033)" fill="#231815"/>
  <path id="Path_6411" data-name="Path 6411" d="M174.921,32.854V24.228h-.088l-4.1,6.915h-.309l-4.1-6.915h-.088v8.626H164.79V21.48h1.6l4.234,7.154h0l4.243-7.154h1.6V32.854Z" transform="translate(-19.116 -9.033)" fill="#231815"/>
  <path id="Path_6412" data-name="Path 6412" d="M192.43,21.48l-4.65,6.046v5.319h-1.512V27.526L181.61,21.48h1.909l3.536,4.7,3.536-4.7Z" transform="translate(-21.067 -9.033)" fill="#231815"/>
  <rect id="Rectangle_323" data-name="Rectangle 323" width="2.113" height="7.119" transform="translate(0 0)" fill="#e95513"/>
  <path id="Path_6413" data-name="Path 6413" d="M84.833,7.44H82.72L86.8,14.568h2.113Z" transform="translate(-9.596 -7.44)" fill="#ea6da4"/>
  <path id="Path_6414" data-name="Path 6414" d="M199.232,7.44h-2.113l-3.739,7.128h2.113Z" transform="translate(-22.432 -7.44)" fill="#8dc21f"/>
  <rect id="Rectangle_324" data-name="Rectangle 324" width="2.113" height="7.119" transform="translate(30.365 28.112)" fill="#f5ab18"/>
  <rect id="Rectangle_325" data-name="Rectangle 325" width="2.113" height="7.119" transform="translate(145.02 28.112)" fill="#2ca6e0"/>
</svg>
