<svg xmlns="http://www.w3.org/2000/svg" width="134.337" height="40" viewBox="0 0 134.337 40">
  <g id="logo_tea" transform="translate(-170.775 -304)">
    <path id="txt" d="M1.637-13.118c.578-.178.911-.289,1.311-.444v2.333H9.859v6.6h2.8v-6.6h7v-2.333c.2.067.311.111,1.244.4l1.178-2.889c-6.133-1.044-8.333-3.422-9.422-4.556H9.792C7.9-18.54,4.57-16.873.57-15.962Zm2.089-.733a21.391,21.391,0,0,0,7.556-4.689c1.044,1.133,2.889,3.022,7.556,4.689H12.659v-2.356h-2.8v2.356ZM5.237-24.118H.837V-21.5h4.4v1.711H7.948V-21.5h6.578v1.711h2.711V-21.5h4.444v-2.622H17.237v-1.467H14.526v1.467H7.948v-1.467H5.237Zm.978,13.267A14.108,14.108,0,0,1,.859-7.118L2.748-4.94a14.86,14.86,0,0,0,5.511-4.4ZM21.637-7.162a17.243,17.243,0,0,1-5.089-3.756L14.326-9.384a19.849,19.849,0,0,0,5.311,4.422Zm8.022-13.956h5.733a5.63,5.63,0,0,1-.333,1.044H30.9V-8.94H43.792V-20.073H37.748a7.536,7.536,0,0,0,.511-1.044h6.733v-2.333H41.7c.244-.378.733-1.178,1.022-1.756l-2.844-.511a12.914,12.914,0,0,1-.978,2.267H35.548a13.547,13.547,0,0,0-1.2-2.289l-2.556.689c.156.267.6,1.067.911,1.6H29.659v1.667a16.353,16.353,0,0,0-3.422-3.6l-1.911,1.8A19.377,19.377,0,0,1,27.57-19.74l2.089-1.867Zm11.422,5.867v1.311H33.614v-1.311Zm0-2.844v1.244H33.614V-18.1Zm0,5.756v1.378H33.614V-12.34ZM24.17-14.584h2v5.311A11.945,11.945,0,0,1,23.9-7.7l1.133,3.044a15.492,15.492,0,0,0,3.178-3C29.77-5.207,32.281-5.207,34.1-5.207H44.77l.533-2.6H34.237c-1.156,0-4.711,0-5.4-2.556v-6.844H24.17ZM58.592-4.673A18.939,18.939,0,0,0,63.3-8.384a18.353,18.353,0,0,0,3.8,3.733L68.726-7.34a20.559,20.559,0,0,1-3.711-3.4C66.1-12.629,66.97-15.318,67.3-19.7h1.022v-2.8H62.992c.244-1.289.378-2.244.467-2.956l-2.622-.222a22.24,22.24,0,0,1-2.2,7.311v-1.511H57.37a23.382,23.382,0,0,0,2.511-4.133L57.57-25.073a21.357,21.357,0,0,1-1.244,2.422v-1.267H53.837v-1.667H51.326v1.667H48.014v2.356h3.311v1.689H47.5V-17.5h4.311a20.426,20.426,0,0,1-4.6,2.867l1.222,2.356a24.4,24.4,0,0,0,2.711-1.644h3.089a6.694,6.694,0,0,1-1.356,1.267h-.6v1.444c-2.689.222-3.711.267-4.956.333L47.5-8.34c.756-.044,4.111-.356,4.778-.4v.978c0,.489-.089.622-.689.622H49.259l.467,2.489h2.956c1.689,0,2.133-.578,2.133-2.067V-9.007c2.6-.311,3.2-.4,4.022-.556v-2.356c-1,.156-1.933.267-4.022.489v-.4a14.894,14.894,0,0,0,2.733-2.178v-2.111H53.926c.867-.8,1.2-1.156,1.422-1.378H58.1c-.156.244-.267.378-.622.844l1.867,2.311c.222-.289.356-.511.711-1.022a16.981,16.981,0,0,0,1.711,4.6,13.5,13.5,0,0,1-4.933,3.556ZM64.726-19.7a17.7,17.7,0,0,1-1.356,6.489,15.883,15.883,0,0,1-1.578-5.422c.111-.267.222-.556.422-1.067Zm-9.089-1.911c-.267.378-.6.822-1.378,1.733h-.533v-1.733ZM89.7-14.14a20.219,20.219,0,0,0-3.667-3.867H87.3v-2.311H73.881v2.311h2a19.484,19.484,0,0,1-1.022,2.044c-.511,0-3.067,0-3.289-.022l.2,2.356c4.533,0,5.489-.044,7.378-.111v1.489H71.97v2.378h7.178v2.022h-9v2.489H91.037V-7.851H81.97V-9.873h7.244v-2.378H81.97v-1.578c3-.178,3.2-.2,4.267-.311a15.665,15.665,0,0,1,1.2,1.644Zm-6.689-2.978c.4.311.667.511,1.178.933-1.756.133-4.711.2-6.4.222A21.531,21.531,0,0,0,78.9-18.007H84.37ZM79.148-24.1H70.726v5.244h2.8v-2.8H87.659v2.8h2.8V-24.1H81.97v-1.556H79.148Z" transform="translate(214.075 345.488)" fill="#9d7"/>
    <path id="logo_EYS" d="M-10958.37-259.77l.588-.629a5.046,5.046,0,0,0,3.544,1.288c1.687,0,2.676-.529,2.676-1.4,0-.848-1.028-1.058-2.917-1.218-1.866-.16-3.652-.569-3.652-1.947,0-1.318,1.656-2.066,3.524-2.066a5.373,5.373,0,0,1,3.574,1.248l-.661.559a4.09,4.09,0,0,0-2.874-1.028c-1.247-.01-2.7.339-2.7,1.258,0,.868,1.317,1.048,2.965,1.178,2.127.17,3.6.58,3.6,1.957,0,1.288-1.307,2.236-3.583,2.236A6.139,6.139,0,0,1-10958.37-259.77Zm-8.468,1.351v-2.446l-3.514-4.542h1.009l2.935,3.784,2.914-3.784h1l-3.507,4.542v2.446Zm-14.162,0v-6.988h6.66v.779h-5.823v2.266h4.934v.779h-4.934v2.386h5.921v.779Z" transform="translate(11195.645 574.184)" fill="#444"/>
    <path id="mark" d="M33.89,23.2H25.75V21.5a9.718,9.718,0,0,0,2.916-3.4,5.835,5.835,0,0,0,5.273-5.611,5.9,5.9,0,0,0-6.1-5.664,6.5,6.5,0,0,0-1.836.263,10.65,10.65,0,0,0-1.445-.965A2.045,2.045,0,0,0,23.021,2.73H22.27a3.412,3.412,0,0,0-6.687,0h-.751a2.045,2.045,0,0,0-1.54,3.393A10.109,10.109,0,0,0,9.653,9.5L7.858,7.706a.683.683,0,0,0-.483-.2H2.55a.682.682,0,0,0-.483,1.165l6.21,6.21A8.585,8.585,0,0,0,12.1,21.527V23.2H4.109a.683.683,0,0,0-.682.682V36.588a.683.683,0,0,0,.682.682H7.52v2.047A.683.683,0,0,0,8.2,40h5.459a.683.683,0,0,0,.682-.682V37.27h9.31v2.047a.683.683,0,0,0,.682.682H29.8a.683.683,0,0,0,.682-.682V37.27H33.89a.683.683,0,0,0,.682-.682V23.883a.683.683,0,0,0-.682-.682ZM32.574,12.488a4.384,4.384,0,0,1-3.313,4.1,8.757,8.757,0,0,0-2.036-8.363,4.6,4.6,0,0,1,5.349,4.262M18.927,1.365a2.051,2.051,0,0,1,1.93,1.365H17a2.05,2.05,0,0,1,1.93-1.365M14.833,4.094h8.188a.682.682,0,0,1,0,1.365H14.833a.682.682,0,0,1,0-1.365M9.623,14.543a.682.682,0,0,0-.2-.446L4.2,8.871h2.9L9.321,11.1a.683.683,0,0,0,1.092-.176,8.794,8.794,0,0,1,4.561-4.1h7.907a8.187,8.187,0,0,1,5.352,7.392A7.735,7.735,0,0,1,24.85,20.47H12.982a7.287,7.287,0,0,1-3.36-5.928Zm3.845,7.293H24.386V23.2H13.468Zm-.488,16.8H8.886V37.27H12.98Zm16.134,0H25.02V37.27h4.094Zm4.094-2.729H4.792V24.565H33.208Z" transform="translate(168.907 304)" fill="#9d7"/>
  </g>
</svg>
