<svg xmlns="http://www.w3.org/2000/svg" width="158.458" height="50" viewBox="0 0 158.458 50">
  <g id="logo" transform="translate(0 -0.001)">
    <g id="Group_297" data-name="Group 297" transform="translate(57.818 20.276)">
      <g id="Group_295" data-name="Group 295">
        <g id="Group_292" data-name="Group 292" transform="translate(0 0.872)">
          <path id="Path_4254" data-name="Path 4254" d="M140.387,59.564a16.489,16.489,0,0,1-3.676.33,13.035,13.035,0,0,1-3.275-.352c-.423-.119-2.086-.612-2.086-2.3a3.024,3.024,0,0,1,2.13-2.782.953.953,0,0,1,.977.885c0,.282-.211.519-.555.814-.577.493-.6.718-.6.907,0,.964,1.99,1.012,3.028,1.012a17.189,17.189,0,0,0,3.156-.269,3.768,3.768,0,0,1,.823-.128.787.787,0,0,1,.9.872C141.215,59.163,140.977,59.4,140.387,59.564Zm-7.36-7.492a.858.858,0,0,1-1.012-.907c0-.92.66-.92,1.109-.92.128,0,1.708.035,2.038.035.634,0,3.948-.07,4.063-.07.506,0,1.144.057,1.144.872,0,.577-.233.731-1.012,1.237-.295.2-1.6,1.1-1.871,1.259a1.428,1.428,0,0,1-.66.211.922.922,0,0,1-.929-.872c0-.282.163-.458.519-.717.084-.048.458-.247.533-.308C135.9,51.988,134.088,52.072,133.027,52.072Z" transform="translate(-131.35 -49.255)" fill="#727171"/>
          <path id="Path_4255" data-name="Path 4255" d="M164.964,50.686a.919.919,0,0,1,.964,1c0,.718-.506.858-1.259.99a19.309,19.309,0,0,0-4.758,1.378c-.436.211-1.66.85-1.66,1.9,0,.942.731,1.307,2.874,1.307a16.737,16.737,0,0,0,2.9-.269,7.35,7.35,0,0,1,.836-.092.839.839,0,0,1,.942.955c0,.647-.343.823-.823.942a19.4,19.4,0,0,1-3.579.282c-1.932,0-5.159-.141-5.159-2.945a3.441,3.441,0,0,1,1.461-2.769,11.835,11.835,0,0,1,1.814-1.026,14.218,14.218,0,0,0-.471-2.06,4,4,0,0,1-.224-1c0-.612.568-.823,1.048-.823.836,0,.907.365,1.131,1.545.084.379.246,1.329.282,1.659A16.891,16.891,0,0,1,164.964,50.686Z" transform="translate(-145.284 -48.27)" fill="#727171"/>
          <path id="Path_4256" data-name="Path 4256" d="M185.539,53.384c.343,0,1.4-.022,1.99-.057.106-.013.295-.022.387-.022a.8.8,0,0,1,.907.85c0,.8-.577.836-1.144.872-.365.022-1.981.062-2.311.07-.022.295-.035.563-.035.92,0,.85.189,1.519,2.064,1.519,1.756,0,2.368-.555,2.368-1.906a3.608,3.608,0,0,0-.176-1.109,2.629,2.629,0,0,1-.176-.717c0-.533.555-.753.977-.753a.978.978,0,0,1,.964.625,4.568,4.568,0,0,1,.387,2.06c0,2.932-1.743,3.618-4.371,3.618-2.6,0-3.948-.885-3.948-3.367,0-.141.013-.295.048-.885-.471,0-1.144,0-1.391-.035a.739.739,0,0,1-.709-.836.8.8,0,0,1,.92-.85c.211,0,1.118.013,1.307.013l.119-1.294c-.352,0-1.391-.013-1.615-.057a.784.784,0,0,1-.528-.814.825.825,0,0,1,.955-.85l1.329.022.048-.612c.035-.423.084-.977.99-.977.59,0,1.1.233,1.012,1.026l-.057.568c.176,0,1.5-.013,2.72-.07.154,0,.823-.035.964-.035a.8.8,0,0,1,.92.85c0,.8-.634.836-.955.858-1.545.07-2.439.084-3.83.092Z" transform="translate(-159.352 -48.471)" fill="#727171"/>
          <path id="Path_4257" data-name="Path 4257" d="M209.548,54.013h-.638c-.26,0-.387-.057-.458-.246-.423.352-.625.409-.766.409a.543.543,0,0,1-.506-.563c0-.26.176-.365.414-.493a2.053,2.053,0,0,0,.717-.59h-.625c-.128,0-.506,0-.506-.423s.365-.423.506-.423H209.5V51.39h-1.461c-.132,0-.471,0-.471-.4s.295-.423.471-.423H209.5c0-.141,0-.308.427-.387a.214.214,0,0,1-.106-.224h-1.91a.617.617,0,0,1-.718-.66c0-.59.4-.66.718-.66h1.91c0-.246,0-.59.823-.59a1.489,1.489,0,0,1,.709.128c.211.128.211.247.211.458h2.4c0-.247,0-.59.836-.59s.885.295.885.59h1.919a.616.616,0,0,1,.718.66c0,.59-.414.66-.718.66h-1.919c0,.1,0,.2-.2.282a.438.438,0,0,1,.238.379h.449c.625,0,1.189,0,1.189.872,0,.106-.022.555-.022.647a7.347,7.347,0,0,0-.022.744c0,.533.022.709.141.709.07,0,.106-.084.141-.224a.275.275,0,0,1,.295-.2.645.645,0,0,1,.625.709,2.374,2.374,0,0,1-.436,1.272.9.9,0,0,1-.885.365.322.322,0,0,1,.273.343c0,.269-.176.365-.449.365h-8.469c-.141,0-.484,0-.484-.352s.282-.379.484-.379h8.469c-.365-.07-.731-.282-.885-1.237-.154.387-.4.555-.66.555-.2,0-.282-.057-.634-.365a4.907,4.907,0,0,1-.647.744.756.756,0,0,1-.506.225.949.949,0,0,1-.836-.59c-.07.273-.295.317-.823.365-.048,0-4.028.308-4.336.308a.47.47,0,0,1-.506-.528c0-.506.352-.519.6-.533.273,0,1.519-.048,1.77-.048v-.361Zm7.091,3.407a11.029,11.029,0,0,1,1,.563.626.626,0,0,1,.295.541.884.884,0,0,1-.814.885c-.2,0-.365-.084-.92-.449-1.686.084-2.108.106-3.4.141-1.215.022-4.512.07-4.547.07-.33,0-.779,0-.779-.612,0-.176.084-.555.423-.612.119-.022,1.061-.013,1.285-.013a5.672,5.672,0,0,0,.343-.519h-1.778c-.154,0-.555-.013-.555-.458s.423-.458.555-.458h10.023a.471.471,0,0,1,.555.471c0,.449-.436.449-.555.449Zm-6.158-4.89H209.35a3.209,3.209,0,0,1-.4.709h.6c0-.189,0-.484.7-.484.092,0,.163.013.238.013V52.53Zm.431,1.778c.211,0,1.25-.057,1.483-.057a.4.4,0,0,1,.4.2.61.61,0,0,1,.163-.308c.084-.1.506-.533.59-.638-.343-.224-.458-.33-.458-.555a.662.662,0,0,1,.625-.673.756.756,0,0,1,.352.084c.022-.141.048-.26.07-.471h-.33c-.247,0-.718-.048-.718-.647a.615.615,0,0,1,.718-.634h.423a.5.5,0,0,1,.163-.308c-.163-.013-.436-.048-.436-.352h-2.4c0,.247-.189.33-.682.352a.265.265,0,0,1,.1.26h1.461c.141,0,.471.013.471.423s-.352.4-.471.4H210.97v.295h1.765c.141,0,.506,0,.506.423s-.379.423-.506.423H211.52c0,.163.013.246.07.282a.708.708,0,0,0,.374.048c.163,0,.189,0,.238-.07a.37.37,0,0,1,.352-.189c.224,0,.519.119.519.387a.555.555,0,0,1-.33.493,1.851,1.851,0,0,1-.673.048c.057.471-.308.484-.471.484h-.7v.3Zm.766,3.112a5.1,5.1,0,0,1-.387.506c1.426,0,2.993-.013,3.288-.022a.429.429,0,0,1-.1-.282.669.669,0,0,1,.035-.2h-2.839Zm3.984-5.524a6.872,6.872,0,0,1-.246,1.285,3.121,3.121,0,0,1,.673.555c-.022-.33-.022-1.1-.022-1.413,0-.352,0-.423-.224-.423h-.18Z" transform="translate(-173.801 -48.04)" fill="#f0844a"/>
          <path id="Path_4258" data-name="Path 4258" d="M238.872,51.932a1,1,0,0,1-.449-.084,4.265,4.265,0,0,1-.8,1.461v5.361c0,.379-.084.753-.85.753s-.779-.541-.779-.753V55.052a.622.622,0,0,1-.365.119.921.921,0,0,1-.788-1,1.1,1.1,0,0,1,.352-.823,11.016,11.016,0,0,0,1.426-1.567c.458-.717.555-.858.9-.858a.887.887,0,0,1,.612.238c-.022-.7.224-.894.744-.894h.836V48.921c0-.59.282-.731.836-.731a.631.631,0,0,1,.709.731v1.343h.964c.577,0,.74.269.74.885a1.352,1.352,0,0,1-.07.458.645.645,0,0,1,.541-.176H245.5c.365,0,.753.07.753.942,0,.176-.035.731-.493.744h-.224V57.9c0,1.461-.414,1.461-1.875,1.461a1.226,1.226,0,0,1-.85-.189,1.179,1.179,0,0,1-.295-.814.739.739,0,0,1,.484-.779,2.333,2.333,0,0,1,.541-.022c.295,0,.308-.022.308-.308V53.116h-.379c-.295,0-.814,0-.814-.85a1.12,1.12,0,0,1,.106-.493c-.084.07-.176.163-.555.163h-.964v6.735c0,.563-.26.731-.823.731a.632.632,0,0,1-.717-.731V51.932Zm-.625-2.826c0,.2,0,.436-.955,1.413-.379.387-1.061,1.061-1.461,1.061a1.026,1.026,0,0,1-.872-1.048c0-.4.141-.506.577-.814a6.179,6.179,0,0,0,1.259-1.153c.26-.282.379-.33.612-.33A.9.9,0,0,1,238.247,49.106Zm1.153,4.287a20.787,20.787,0,0,1-.269,3.508c-.119.718-.176,1.012-.66,1.012a.645.645,0,0,1-.74-.66,7.331,7.331,0,0,1,.2-1.109,14.735,14.735,0,0,0,.247-2.487c.022-.634.022-.709.141-.823a.619.619,0,0,1,.493-.163C239.369,52.671,239.4,53.028,239.4,53.393Zm5.762-4.842a.843.843,0,1,1,0,1.686h-1.413a.776.776,0,0,1-.766-.365c-.092.33-.555.379-.66.379-.343,0-.387-.128-.634-.731-.048-.084-.211-.471-.246-.555a.794.794,0,0,1-.035-.224c0-.343.387-.506.638-.506.282,0,.436.119.85,1.061a.742.742,0,0,1,.858-.744Zm-2.214,5.3c.189,1.391.308,2.65.308,3a.663.663,0,0,1-.7.766c-.66,0-.682-.484-.7-.85-.022-.788-.084-1.721-.128-2.271-.022-.2-.119-1.118-.119-1.259,0-.119,0-.568.6-.568C242.785,52.671,242.821,52.922,242.948,53.851Z" transform="translate(-189.285 -48.124)" fill="#f0844a"/>
          <path id="Path_4259" data-name="Path 4259" d="M265.825,49.427a.742.742,0,0,1,.8-.577,1.565,1.565,0,0,1,.7.154.618.618,0,0,1,.352.612,5.792,5.792,0,0,1-.233,1.285,4.069,4.069,0,0,1,1.721.2c1.2.533,1.4,2.192,1.4,3.394,0,3.367-.66,4.877-2.65,4.877a3.944,3.944,0,0,1-1.792-.423.773.773,0,0,1-.493-.753c0-.119.048-.929.766-.929a1.471,1.471,0,0,1,.625.154,2.179,2.179,0,0,0,.731.154c.493,0,.647-.247.8-.964a11.322,11.322,0,0,0,.2-2.346c0-1.2-.176-1.673-1.294-1.673-.141,0-.282.013-.449.022a38.239,38.239,0,0,1-1.932,5.586c-.423.933-.753,1.026-1.061,1.026a1.079,1.079,0,0,1-1.1-.9c0-.295.106-.484.423-1.07a21.879,21.879,0,0,0,1.721-4.477c-.436.048-1.25.141-1.285.141a.787.787,0,0,1-.858-.894c0-.753.484-.85.709-.885a14.326,14.326,0,0,1,1.884-.154C265.552,50.734,265.777,49.567,265.825,49.427Zm4.287,1.567a.7.7,0,0,1-.176-.471.772.772,0,0,1,.33-.612.965.965,0,0,1,.568-.176c.211,0,.519.022,1.1.59a5.484,5.484,0,0,1,1.413,2.606,9.683,9.683,0,0,1,.246,1.99c0,.247,0,.99-1.048.99a.761.761,0,0,1-.858-.823c-.07-1.039-.176-2.676-1.048-3.557Z" transform="translate(-205.005 -48.493)" fill="#727171"/>
          <path id="Path_4260" data-name="Path 4260" d="M291.467,52.455l-1.329.084a.862.862,0,0,1-1.048-.885c0-.788.625-.872.955-.885l1.461-.07c.013-.233.035-1.034.07-1.188.07-.387.343-.66.92-.66s.955.224.955.872c0,.154-.013.273-.084,1.294V51.1a4.486,4.486,0,0,1,2.826-1.285,2.252,2.252,0,0,1,1.756.717,2.107,2.107,0,0,1,.423,1.426,11.9,11.9,0,0,1-.528,2.883,8.209,8.209,0,0,0-.246,1.554c0,.106,0,.7.577.7a1.055,1.055,0,0,0,.317-.048,1.521,1.521,0,0,1,.634-.163.779.779,0,0,1,.731.872c0,1.153-1.51,1.237-1.91,1.237a2.24,2.24,0,0,1-1.9-.858,2.552,2.552,0,0,1-.33-1.426,12,12,0,0,1,.246-2.1c.07-.365.423-2.025.423-2.32,0-.506-.282-.6-.563-.6a4.287,4.287,0,0,0-2.571,1.756c-.022.59-.022,2.522-.022,3.253,0,.247.022,1.391.022,1.615,0,.414,0,1.144-.907,1.144-.955,0-.955-.625-.955-1.237,0-.858.013-1.708.022-2.557a9.37,9.37,0,0,1-1.012,1.461.752.752,0,0,1-.541.233,1,1,0,0,1-.99-.929c0-.379.141-.519.634-1.048a15,15,0,0,0,1.954-2.509v-.418Z" transform="translate(-219.532 -48.493)" fill="#727171"/>
          <path id="Path_4261" data-name="Path 4261" d="M317,60.7c.106,0,.436.022.568.035.233.022.458.022.682.022,1.294,0,3.438-.154,3.438-2.311a1.746,1.746,0,0,0-1.968-1.862,9.967,9.967,0,0,0-2.826.506,5.082,5.082,0,0,1-1.4.387.876.876,0,0,1-.836-.964c0-.634.387-.788.929-.955a15.266,15.266,0,0,1,4.147-.647,3.934,3.934,0,0,1,2.91,1.026,3.607,3.607,0,0,1,.885,2.487,3.7,3.7,0,0,1-1.638,3.24,8,8,0,0,1-3.913.823c-1.061,0-1.862-.035-1.862-.907A.791.791,0,0,1,317,60.7Z" transform="translate(-233.964 -51.886)" fill="#727171"/>
          <path id="Path_4262" data-name="Path 4262" d="M340.314,49.912c0,.119-.084,1.659-.084,1.9-.084,1.58-.106,2.1-.106,3.345,0,1.215.048,2.4,2.086,2.4,2.108,0,3.042-.968,3.359-2.676.128-.7.211-1.189,1-1.189.176,0,1.061.022,1.061.85a5.49,5.49,0,0,1-1.1,3.028,5,5,0,0,1-4.265,1.792c-1.954,0-2.9-.555-3.486-1.369-.33-.449-.577-1-.577-3.156,0-.766.084-4.934.092-5.053.048-.506.224-.885,1.039-.885A.873.873,0,0,1,340.314,49.912Z" transform="translate(-247.154 -48.521)" fill="#727171"/>
        </g>
        <g id="Group_293" data-name="Group 293" transform="translate(16.392)">
          <circle id="Ellipse_108" data-name="Ellipse 108" cx="0.986" cy="0.986" r="0.986" transform="translate(0 1.162)" fill="#e2537d"/>
          <circle id="Ellipse_109" data-name="Ellipse 109" cx="1.483" cy="1.483" r="1.483" transform="translate(2.126)" fill="#8fc31f"/>
        </g>
        <g id="Group_294" data-name="Group 294" transform="translate(95.546)">
          <circle id="Ellipse_110" data-name="Ellipse 110" cx="0.986" cy="0.986" r="0.986" transform="translate(0 1.162)" fill="#00a3a8"/>
          <circle id="Ellipse_111" data-name="Ellipse 111" cx="1.483" cy="1.483" r="1.483" transform="translate(2.126)" fill="#e56c74"/>
        </g>
      </g>
      <g id="Group_296" data-name="Group 296" transform="translate(29.484 15.798)">
        <path id="Path_4263" data-name="Path 4263" d="M199.818,89.356V87.67h2.135a.641.641,0,0,0,.643-.643h0a.641.641,0,0,0-.643-.643h-2.135V84.8h2.342a.641.641,0,0,0,.643-.643h0a.641.641,0,0,0-.643-.643h-3.086a.743.743,0,0,0-.744.744V89.9a.743.743,0,0,0,.744.744h3.174A.641.641,0,0,0,202.89,90h0a.641.641,0,0,0-.643-.643h-2.43Z" transform="translate(-198.33 -82.823)" fill="#8fc31f"/>
        <path id="Path_4264" data-name="Path 4264" d="M214.727,83.344a.739.739,0,0,0-.982.321l-1.294,2.452-1.294-2.452a.74.74,0,0,0-.982-.321.691.691,0,0,0-.3.955l1.831,3.372v2.21a.755.755,0,0,0,1.505,0v-2.21l1.831-3.372A.705.705,0,0,0,214.727,83.344Z" transform="translate(-204.743 -82.688)" fill="#008ccf"/>
        <path id="Path_4265" data-name="Path 4265" d="M225.7,87.684a.812.812,0,0,1,.467,1.241c-.445.616-1.62.374-2.038.2-.33-.141-.938-.251-1.189.229a.628.628,0,0,0,.343.828,3.675,3.675,0,0,0,1.77.387,3.388,3.388,0,0,0,2-.559,2,2,0,0,0,.753-1.567,1.679,1.679,0,0,0-.828-1.611,3.531,3.531,0,0,0-.942-.414c-.4-.114-.687-.216-1.021-.326a.8.8,0,0,1-.621-.678.7.7,0,0,1,.1-.453c.414-.616,1.444-.4,1.77-.242.308.145.938.2,1.167-.251a.606.606,0,0,0-.282-.806,3.358,3.358,0,0,0-1.686-.361,2.971,2.971,0,0,0-1.866.528,2.03,2.03,0,0,0-.7,1.567,1.64,1.64,0,0,0,.731,1.483,2.931,2.931,0,0,0,1.065.484C225.071,87.464,225.41,87.6,225.7,87.684Z" transform="translate(-212.073 -82.706)" fill="#6452a0"/>
        <path id="Path_4266" data-name="Path 4266" d="M240.7,92.141H237.94a.662.662,0,0,1-.66-.66h0a.662.662,0,0,1,.66-.66H240.7a.662.662,0,0,1,.66.66h0A.665.665,0,0,1,240.7,92.141Z" transform="translate(-220.135 -86.916)" fill="#e56c74"/>
        <path id="Path_4267" data-name="Path 4267" d="M266.29,87.675v4.081a.736.736,0,0,1-.735.735h0a.736.736,0,0,1-.735-.735V87.675a.736.736,0,0,1,.735-.735h0A.736.736,0,0,1,266.29,87.675Z" transform="translate(-235.552 -84.743)" fill="#ee782b"/>
        <path id="Path_4268" data-name="Path 4268" d="M249.728,88.844a3.857,3.857,0,0,0-.471-1.47c-.33-.7-.713-1.338-.841-1.585a.59.59,0,0,1,.057-.731.562.562,0,0,1,.66-.092,1.071,1.071,0,0,1,.313.2c.282.273.471.537.669.726a1.835,1.835,0,0,0,1.184.629,1.669,1.669,0,0,0,.911-.246,3.479,3.479,0,0,0,.8-.612,3.678,3.678,0,0,1,.876-.647.489.489,0,0,1,.568.1c.37.387-.013.863-.238,1.166a3.519,3.519,0,0,1-.731.713c-.357.269-.713.449-.845.735a.96.96,0,0,0-.048.651.9.9,0,0,0,.313.506c.4.348,1.607,1.1,1.818,1.536a.4.4,0,0,1-.035.493.766.766,0,0,1-.607.106,5.392,5.392,0,0,1-.876-.269,7.273,7.273,0,0,0-1.435-.48.72.72,0,0,0-.414.225c-.29.273-.572.722-.739.889-.264.26-.6.753-.955.489-.37-.273-.229-.96-.1-1.536A6.082,6.082,0,0,0,249.728,88.844Z" transform="translate(-226.314 -83.601)" fill="#00976d"/>
        <circle id="Ellipse_112" data-name="Ellipse 112" cx="0.876" cy="0.876" r="0.876" transform="translate(29.127)" fill="#deb125"/>
        <circle id="Ellipse_113" data-name="Ellipse 113" cx="0.916" cy="0.916" r="0.916" transform="translate(24.14 0.475)" fill="#3a89b0"/>
        <path id="Path_4269" data-name="Path 4269" d="M274.344,82.06a.736.736,0,0,0-.735.735v1.615a2.579,2.579,0,0,0-1.4-.392,2.91,2.91,0,1,0,0,5.819,2.6,2.6,0,0,0,1.431-.414.734.734,0,0,0,1.439-.2V82.8A.736.736,0,0,0,274.344,82.06Zm-2.152,6.308a1.435,1.435,0,1,1,1.435-1.435A1.435,1.435,0,0,1,272.192,88.368Z" transform="translate(-238.06 -82.012)" fill="#d14f97"/>
        <path id="Path_4270" data-name="Path 4270" d="M284.8,89.864a1.349,1.349,0,0,1-.594-.506,1.44,1.44,0,0,1-.242-.845,1.73,1.73,0,0,1,1.946-1.673,2.02,2.02,0,0,1,1.747.568.612.612,0,0,1-.022.682.75.75,0,0,1-.757.18,2.476,2.476,0,0,0-.872-.2c-.352,0-.6.119-.6.418s.643.462.982.568a2.737,2.737,0,0,1,.916.445,1.629,1.629,0,0,1,.075,2.474,2.049,2.049,0,0,1-1.369.467c-1.294,0-1.866-.291-2.038-.585a.574.574,0,0,1,0-.511.693.693,0,0,1,.722-.379,7.483,7.483,0,0,0,1.048.251c.6,0,.74-.3.74-.453,0-.2-.132-.357-.612-.511A6.029,6.029,0,0,1,284.8,89.864Z" transform="translate(-246.239 -84.687)" fill="#00a3a8"/>
      </g>
    </g>
    <path id="Path_4271" data-name="Path 4271" d="M38.974,36.066A2.576,2.576,0,0,1,36.531,34.7a3.37,3.37,0,0,0-4.463-1.673h0a3.37,3.37,0,0,0-1.673,4.463l3.526,7.756a.522.522,0,0,0,.7.26L39.251,43.4l1.021-.467,2.544-1.153a.522.522,0,0,0,.26-.7l-1.659-3.645A2.582,2.582,0,0,0,38.974,36.066Zm-3.79,8.5-.806.365a.084.084,0,0,1-.114-.044L32.855,41.8l.731-.33.951,2.091a.089.089,0,0,0,.114.044l.154-.07.418.92A.084.084,0,0,1,35.184,44.571Zm1.228-.559-.806.365a.084.084,0,0,1-.114-.044l-.418-.92.154-.07a.089.089,0,0,0,.044-.114l-.951-2.091.5-.224L35.769,43a.089.089,0,0,0,.114.044l.154-.07.418.92A.087.087,0,0,1,36.412,44.011Zm1.228-.555-.806.365a.084.084,0,0,1-.114-.044l-.418-.92.154-.07a.089.089,0,0,0,.044-.114l-.951-2.091.5-.224L37,42.449a.089.089,0,0,0,.114.044l.154-.07.418.92A.09.09,0,0,1,37.64,43.457Zm1.224-.559-.806.365a.084.084,0,0,1-.114-.044l-.418-.92.154-.07a.089.089,0,0,0,.044-.114l-.951-2.091.5-.224.951,2.091a.089.089,0,0,0,.114.044l.154-.07.418.92A.085.085,0,0,1,38.864,42.9Zm1.228-.559-.806.365a.084.084,0,0,1-.114-.044l-.418-.92.154-.07a.089.089,0,0,0,.044-.114L38,39.464l.5-.224.951,2.091a.089.089,0,0,0,.114.044l.154-.07.418.92A.087.087,0,0,1,40.092,42.339Zm1.224-.559-.806.365A.084.084,0,0,1,40.4,42.1l-.418-.92.154-.07A.089.089,0,0,0,40.175,41l-.951-2.091.5-.224.951,2.091a.089.089,0,0,0,.114.044l.154-.07.418.92A.084.084,0,0,1,41.315,41.78Zm1.272-.673a.084.084,0,0,1-.044.114l-.806.365a.084.084,0,0,1-.114-.044l-.418-.92.154-.07a.089.089,0,0,0,.044-.114l-.951-2.091.731-.33Z" transform="translate(-16.846 -18.317)" fill="#6452a0"/>
    <circle id="Ellipse_114" data-name="Ellipse 114" cx="1.902" cy="1.902" r="1.902" transform="translate(27.534 25.368)" fill="#eedaa5"/>
    <circle id="Ellipse_115" data-name="Ellipse 115" cx="1.004" cy="1.004" r="1.004" transform="translate(31.438 27.886)" fill="#deb125"/>
    <circle id="Ellipse_116" data-name="Ellipse 116" cx="1.523" cy="1.523" r="1.523" transform="translate(31.002 23.137)" fill="#cb688e"/>
    <circle id="Ellipse_117" data-name="Ellipse 117" cx="2.685" cy="2.685" r="2.685" transform="translate(7.545 12.911)" fill="#f0cbd6"/>
    <circle id="Ellipse_118" data-name="Ellipse 118" cx="3.31" cy="3.31" r="3.31" transform="translate(3.02 19.25)" fill="#f2e293"/>
    <circle id="Ellipse_119" data-name="Ellipse 119" cx="2.703" cy="2.703" r="2.703" transform="translate(33.806 24.955)" fill="#f0cbd6"/>
    <circle id="Ellipse_120" data-name="Ellipse 120" cx="1.73" cy="1.73" r="1.73" transform="translate(43.882 21.997)" fill="#e9e491"/>
    <circle id="Ellipse_121" data-name="Ellipse 121" cx="1.752" cy="1.752" r="1.752" transform="translate(3.433 28.054)" fill="#f0cbd6"/>
    <circle id="Ellipse_122" data-name="Ellipse 122" cx="2.227" cy="2.227" r="2.227" transform="translate(11.788 25.505)" fill="#e56c74"/>
    <circle id="Ellipse_123" data-name="Ellipse 123" cx="2.135" cy="2.135" r="2.135" transform="translate(12.906 9.381)" fill="#deb125"/>
    <circle id="Ellipse_124" data-name="Ellipse 124" cx="1.976" cy="1.976" r="1.976" transform="translate(28.572 8.501)" fill="#e56c74"/>
    <circle id="Ellipse_125" data-name="Ellipse 125" cx="1.69" cy="1.69" r="1.69" transform="translate(0 23.933)" fill="#cb688e"/>
    <circle id="Ellipse_126" data-name="Ellipse 126" cx="2.408" cy="2.408" r="2.408" transform="translate(0.581 13.849)" fill="#da3915"/>
    <path id="Path_4272" data-name="Path 4272" d="M56.45,34.157A20.244,20.244,0,0,1,61.4,31.9a15.477,15.477,0,0,1,2.786-.6,10.543,10.543,0,0,1,3.8.141,9.358,9.358,0,0,1,3.235,1.382c1.483.955,1.836,1.743,3,2.491a6.256,6.256,0,0,0,3.271,1.1,4.672,4.672,0,0,0,4.3-2.223,3.242,3.242,0,0,0,.44-1.7,3.979,3.979,0,0,0-1.321-2.852,8.871,8.871,0,0,0-2.756-1.739A15.312,15.312,0,0,0,72.468,26.7,21.025,21.025,0,0,0,61.8,29.957,32.8,32.8,0,0,0,56.45,34.157Z" transform="translate(-31.602 -14.946)" fill="#f0844a"/>
    <path id="Path_4273" data-name="Path 4273" d="M62.3,44.8a12.623,12.623,0,0,1,4.472-1.871,7.868,7.868,0,0,1,2.5-.079,7,7,0,0,1,1.4.348,4.684,4.684,0,0,1,2.808,2.091,1.885,1.885,0,0,1-.207,1.809,1.423,1.423,0,0,1-1.034.717,2.176,2.176,0,0,1-1.378-.475,18.665,18.665,0,0,1-1.47-1.25,13.521,13.521,0,0,0-1.554-1.237,3.169,3.169,0,0,0-.911-.352,7.856,7.856,0,0,0-2.3-.194A7.773,7.773,0,0,0,62.3,44.8Z" transform="translate(-34.877 -23.952)" fill="#f0844a"/>
    <path id="Path_4274" data-name="Path 4274" d="M34.064,16.662a22.249,22.249,0,0,0,.264-8.7,11.22,11.22,0,0,0-1.853-4.428A8.73,8.73,0,0,0,29.521.96,6.883,6.883,0,0,0,26.106.005a2.523,2.523,0,0,0-1.382.484A3.442,3.442,0,0,0,23.46,3.333a4.681,4.681,0,0,0,.854,2.579,2.44,2.44,0,0,0,1.118.9,24.846,24.846,0,0,1,2.729.964A11.466,11.466,0,0,1,30.9,9.443,8.107,8.107,0,0,1,32.312,11a8.874,8.874,0,0,1,1.061,1.954A11.7,11.7,0,0,1,34.064,16.662Z" transform="translate(-13.133)" fill="#f0844a"/>
    <g id="Group_299" data-name="Group 299" transform="translate(22.589 3.195)">
      <g id="Group_298" data-name="Group 298">
        <path id="Path_4275" data-name="Path 4275" d="M54.324,14.039a2.191,2.191,0,0,1,.295-.062,1.735,1.735,0,0,1,1.875,1.629,1.957,1.957,0,0,1-.982,1.924l.506,1.505a2.434,2.434,0,0,1,.07.348,1.32,1.32,0,0,1-1.118,1.532,1.3,1.3,0,0,1-1.558-.867.9.9,0,0,1,.581-1.074.756.756,0,0,1,.88.629.7.7,0,0,1-.682.823c.057.255.519.295.726.247a1.106,1.106,0,0,0,.92-1.272,2.4,2.4,0,0,0-.132-.546l-.418-1.184a2.449,2.449,0,0,1-.7.189,2.631,2.631,0,0,1-2.813-2.227c-.308-1.47.744-2.729,1.545-3.79a7.055,7.055,0,0,1-.44-1.659c-.088-.691.044-2.148.735-2.509.295-.163,1.074,1.294,1.166,2.139a4.161,4.161,0,0,1-.88,2.984ZM54.4,17a1.48,1.48,0,0,1-1.162-1.272,1.7,1.7,0,0,1,.858-1.6l-.379-1.118A3.976,3.976,0,0,0,52.37,15.98,2.016,2.016,0,0,0,55.2,17.424l-.832-2.469a1.136,1.136,0,0,0-.647,1.144.916.916,0,0,0,.709.744M54.386,9.21a.456.456,0,0,0-.48-.431c-.621.211-.709,1.338-.651,1.888a3.931,3.931,0,0,0,.255.942A3.149,3.149,0,0,0,54.386,9.21Zm1.052,8.1a1.416,1.416,0,0,0,.581-1.382,1.248,1.248,0,0,0-1.4-1.039Z" transform="translate(-51.545 -7.483)" fill="#008ccf"/>
        <path id="Path_4276" data-name="Path 4276" d="M54.628,20.881a1.618,1.618,0,0,1-1.026-.22,1.288,1.288,0,0,1-.594-.8,1.068,1.068,0,0,1,.7-1.281.833.833,0,0,1,.669.123.973.973,0,0,1,.423.643.833.833,0,0,1-.216.74.956.956,0,0,1-.255.194.776.776,0,0,0,.3,0,.934.934,0,0,0,.788-1.087,2.378,2.378,0,0,0-.123-.506v0l-.357-1.017a2.883,2.883,0,0,1-.568.136,2.544,2.544,0,0,1-1.915-.55,3.082,3.082,0,0,1-.779-3.847,10.151,10.151,0,0,1,1.109-1.686c.035-.044.066-.088.1-.132a7.067,7.067,0,0,1-.414-1.611,4.607,4.607,0,0,1,.079-1.439,1.816,1.816,0,0,1,.748-1.246A.3.3,0,0,1,53.6,7.3a2.384,2.384,0,0,1,.691.933,4.35,4.35,0,0,1,.436,1.329,4.332,4.332,0,0,1-.858,3.037l.343,1.008a.992.992,0,0,1,.158-.026,1.726,1.726,0,0,1,1.281.343,2.125,2.125,0,0,1,.788,1.435,2.086,2.086,0,0,1-.946,2.012l.467,1.387a1.972,1.972,0,0,1,.075.379,1.484,1.484,0,0,1-.255,1.109,1.719,1.719,0,0,1-.995.612Zm-.775-1.976a.158.158,0,0,0-.048.009.723.723,0,0,0-.453.867.941.941,0,0,0,.44.585c.031.018.062.035.1.053a.374.374,0,0,1-.092-.18l-.053-.233.238.026a.536.536,0,0,0,.37-.18.486.486,0,0,0,.123-.445.61.61,0,0,0-.273-.414A.494.494,0,0,0,53.854,18.905Zm.317-2.086a1.264,1.264,0,0,1-.907-.37,1.635,1.635,0,0,1-.427-.924,1.873,1.873,0,0,1,.823-1.695l-.238-.7a3.5,3.5,0,0,0-1.109,2.606,1.618,1.618,0,0,0,.651,1.127,1.981,1.981,0,0,0,1.8.238l-.713-2.117a.961.961,0,0,0-.383.863v0a.75.75,0,0,0,.585.6m.37-1.629.669,1.963a1.243,1.243,0,0,0,.33-1.052,1.168,1.168,0,0,0-.436-.709A1.031,1.031,0,0,0,54.62,14.825Zm-.242-.335a1.423,1.423,0,0,1,1.58,1.18v0a1.521,1.521,0,0,1-.057.744A1.62,1.62,0,0,0,56.09,15.4a1.812,1.812,0,0,0-.656-1.206,1.343,1.343,0,0,0-1.012-.277h-.013a1.819,1.819,0,0,0-.269.057l-.1.031-.092.048a1.527,1.527,0,0,0-.77,1.422h0a1.308,1.308,0,0,0,.158.484c0-.022-.009-.048-.013-.07a1.31,1.31,0,0,1,.748-1.325l.084-.04,0-.009.035,0,.062-.026,0,.018.106-.013C54.364,14.494,54.373,14.49,54.377,14.49Zm-1.1-2.857,0,.009-.057.075-.158.211c-.762,1-1.624,2.144-1.356,3.442a2.879,2.879,0,0,0,.445,1.052,2.081,2.081,0,0,1-.189-.647,4.1,4.1,0,0,1,1.391-3.1l.119-.136h0l.057-.075A3.969,3.969,0,0,0,54.382,9.6a1.411,1.411,0,0,0-.031-.18,3.612,3.612,0,0,1-.946,2.073Zm-.088-1.215a3.255,3.255,0,0,0,.145.616,3.7,3.7,0,0,0,.475-.823,2.245,2.245,0,0,0,.172-1.2h0c-.018-.106-.1-.3-.273-.291a.953.953,0,0,0-.453.691A3.175,3.175,0,0,0,53.193,10.418ZM53.44,7.61a1.512,1.512,0,0,0-.546,1,4.222,4.222,0,0,0-.075,1.321c0,.04.009.079.018.123.013-.594.172-1.457.784-1.664l.018,0,.018,0a.546.546,0,0,1,.361.075c-.022-.048-.044-.088-.066-.128A1.862,1.862,0,0,0,53.44,7.61Z" transform="translate(-51.317 -7.256)" fill="#008ccf"/>
      </g>
    </g>
    <path id="Path_4277" data-name="Path 4277" d="M93.369,54.87a17.4,17.4,0,0,1,3.165-.092l-1.3-1.312-3.61-3.632c-.224-.2.418-.229.784-.995A1.219,1.219,0,1,0,90.331,47.7a1.837,1.837,0,0,0,.022,1.95l0,0,3.557,3.583c-1.765,1.021-2.8.035-3.561-.854A2.712,2.712,0,0,0,93.369,54.87Z" transform="translate(-50.42 -26.213)" fill="#00976d"/>
    <g id="Group_300" data-name="Group 300" transform="translate(10.402 20.936)">
      <path id="Path_4278" data-name="Path 4278" d="M23.878,48.44l.136.568.4,1.659a.748.748,0,0,0-.383.062.5.5,0,1,0,.4.876A.6.6,0,0,0,24.811,51h0l-.383-1.6,1.831-.656.273,1.136a.748.748,0,0,0-.383.062.5.5,0,1,0,.4.876.6.6,0,0,0,.387-.607h0l-.493-2.06L26.3,47.56Zm2.329.07-1.831.656-.062-.251,1.827-.682Z" transform="translate(-23.632 -47.56)" fill="#00a8b5"/>
    </g>
    <g id="Group_301" data-name="Group 301" transform="translate(33.674 5.406)">
      <path id="Path_4279" data-name="Path 4279" d="M81.166,18.42l.321-1.03.9-2.866a1.3,1.3,0,0,0,.665.26,1.031,1.031,0,0,0,1.224-.748c.057-.484-.4-.933-1.021-1a1.086,1.086,0,0,0-1.184.594h0l-1.14,3.632-3.535-.647.889-2.83a1.3,1.3,0,0,0,.665.26,1.031,1.031,0,0,0,1.224-.748c.057-.484-.4-.933-1.021-1a1.089,1.089,0,0,0-1.184.59h0L76.83,16.47l-.33,1.056Z" transform="translate(-76.5 -12.279)" fill="#00a8b5"/>
    </g>
    <g id="Group_302" data-name="Group 302" transform="translate(6.924 26.733)">
      <path id="Path_4280" data-name="Path 4280" d="M15.73,61.073,18,63.265a1.145,1.145,0,0,0-.453.409.881.881,0,0,0,.106,1.224.878.878,0,0,0,1.158-.4.926.926,0,0,0,0-1.131h0L16.069,60.73Z" transform="translate(-15.73 -60.73)" fill="#3a89b0"/>
    </g>
    <path id="Path_4281" data-name="Path 4281" d="M51.705,53.516a4.555,4.555,0,0,0-1.285,2.5c.343-.484,1.7-.3,2.5-.911a2.021,2.021,0,0,0,.673-.867L54.8,53.38,58.691,50.1a.533.533,0,0,0-.647-.845l-4.186,2.888-1.144.946A2.049,2.049,0,0,0,51.705,53.516Zm1.743.4L53,53.318l.942-.779.511.673ZM52.41,55l.119-.282a.123.123,0,0,0-.128-.167l-.282.035a.121.121,0,0,1-.128-.167l.11-.264a.123.123,0,0,0-.128-.167l-.317.04a1.924,1.924,0,0,1,.26-.242,1.726,1.726,0,0,1,.748-.339l.568.744a1.668,1.668,0,0,1-.524.629A1.389,1.389,0,0,1,52.41,55Z" transform="translate(-28.226 -27.523)" fill="#00a3a8"/>
    <path id="Path_4282" data-name="Path 4282" d="M49.484,92.45l1.382,1.012a11.593,11.593,0,0,1-2.936,3.882c-2.153,1.924-5.973,4.411-12.933,4.411a24.684,24.684,0,0,1-5.916-.594,15.906,15.906,0,0,1-7.417-3.794,11.318,11.318,0,0,1-1.8-2.056,6.126,6.126,0,0,1-.59-1.039l1.114-.8a19.635,19.635,0,0,0,5.366,4.081,20.248,20.248,0,0,0,9.279,2.249,18.124,18.124,0,0,0,9.42-2.883A19.709,19.709,0,0,0,49.484,92.45Z" transform="translate(-10.788 -51.754)" fill="#727171"/>
    <circle id="Ellipse_127" data-name="Ellipse 127" cx="2.144" cy="2.144" r="2.144" transform="translate(15.948 33.591)" fill="#727171"/>
    <circle id="Ellipse_128" data-name="Ellipse 128" cx="2.144" cy="2.144" r="2.144" transform="translate(26.781 33.111)" fill="#727171"/>
    <circle id="Ellipse_129" data-name="Ellipse 129" cx="0.999" cy="0.999" r="0.999" transform="translate(19.298 27.006)" fill="#f0cbd6"/>
  </g>
</svg>
