<svg xmlns="http://www.w3.org/2000/svg" xmlns:xlink="http://www.w3.org/1999/xlink" width="43.406" height="43.357" viewBox="0 0 43.406 43.357">
  <defs>
    <linearGradient id="linear-gradient" y1="0.712" x2="1" y2="0.233" gradientUnits="objectBoundingBox">
      <stop offset="0" stop-color="#f88"/>
      <stop offset="1" stop-color="#ff4079"/>
    </linearGradient>
  </defs>
  <path id="Path_232809" data-name="Path 232809" d="M-353.645,17524a21.661,21.661,0,0,1,0-30.654,21.726,21.726,0,0,1,30.7,0,21.66,21.66,0,0,1,0,30.654,21.645,21.645,0,0,1-15.348,6.355A21.645,21.645,0,0,1-353.645,17524Zm1.537-29.125a19.5,19.5,0,0,0,0,27.6,19.532,19.532,0,0,0,27.621,0,19.5,19.5,0,0,0,0-27.6,19.5,19.5,0,0,0-13.811-5.707A19.5,19.5,0,0,0-352.108,17494.877Zm15.08,27.711a1.4,1.4,0,0,1-.525-.3l-14.369-14.361a1.147,1.147,0,0,1-.3-.516.8.8,0,0,1,0-.484,1.074,1.074,0,0,1,.172-.379c.578-.283,2.726-1.182,10.636-3.84,8.879-2.965,11.195-3.725,11.572-3.828a.792.792,0,0,1,.52,0,1.084,1.084,0,0,1,.506.277,1.068,1.068,0,0,1,.286.508.878.878,0,0,1,0,.52c-.11.371-.864,2.693-3.824,11.582-2.635,7.91-3.533,10.059-3.814,10.641a1.431,1.431,0,0,1-.377.18.91.91,0,0,1-.241.035A1.391,1.391,0,0,1-337.027,17522.588Z" transform="translate(360 -17487)" fill="url(#linear-gradient)"/>
</svg>
