<svg xmlns="http://www.w3.org/2000/svg" width="199.856" height="40" viewBox="0 0 199.856 40">
  <g id="logo_dance" transform="translate(-134.572 -454.736)">
    <path id="txt" d="M7.534-14.977A20.622,20.622,0,0,1,12.491-11.8,19.22,19.22,0,0,1,3.239-7.644L4.793-4.971C17.746-8.01,20.076-17.307,20.83-21.831l-3.678.548-.183-.754H11.395a24.253,24.253,0,0,0,1.325-2.719l-3.29-.457A16.087,16.087,0,0,1,1.8-16.3l1.988,2.262a20.872,20.872,0,0,0,5.848-5.277h7.539a15.9,15.9,0,0,1-2.559,5.231,22.149,22.149,0,0,0-5.231-2.97ZM19.642-22.47a22.509,22.509,0,0,0-1.165-3.267l-1.873.366c.548,1.691.594,1.873.982,3.267Zm3.153-.274a18.207,18.207,0,0,0-1.142-3.175l-1.942.388a26.2,26.2,0,0,1,1.1,3.175Zm10.029,2.307A27.212,27.212,0,0,0,25.65-23.59l-1.416,2.627a30.5,30.5,0,0,1,6.968,3.4ZM25.513-5.314c9.024-1.188,14.849-4.455,18.413-15.4l-2.97-1.416C37.735-11.551,31.932-9.22,24.508-8.672ZM46.8-4.971a24.6,24.6,0,0,0,9.115-6.853,66.712,66.712,0,0,1,6.853,6.831L65.354-7.53a79.679,79.679,0,0,0-7.607-6.6,23.393,23.393,0,0,0,4.2-9.481H46.325v2.924H57.861A23.105,23.105,0,0,1,45-7.507Zm21.7,0a24.6,24.6,0,0,0,9.115-6.853,66.71,66.71,0,0,1,6.853,6.831L87.057-7.53a79.678,79.678,0,0,0-7.607-6.6,23.393,23.393,0,0,0,4.2-9.481H68.027v2.924H79.564A23.105,23.105,0,0,1,66.7-7.507ZM98.251-22.082a19.316,19.316,0,0,0,1.279-2.65l-3.244-.525a16.258,16.258,0,0,1-7.425,8.864l2.056,2.262a19.73,19.73,0,0,0,5.437-5.117h7.653C101.746-10.865,96.7-8.741,90.21-7.8L91.466-5.04c12.131-1.645,15.26-9.663,16.448-17.042Zm11.994,5.6v3.244h20.241v-3.244Zm27.711-7.425h-3.107v6.077c0,7.722-2.376,10.006-3.632,11.217l2.467,2.147A12.057,12.057,0,0,0,137.225-11a34.386,34.386,0,0,0,.731-7.288Zm6.214-.708h-3.038V-5.2c6.328-.091,10.509-4.5,11.788-10.851l-2.833-1.211a13.594,13.594,0,0,1-1.85,5.14,7.431,7.431,0,0,1-4.066,3.267Z" transform="translate(181.51 496.742)" fill="#78c"/>
    <path id="logo_EYS" d="M-10957.737-259.6l.605-.647a5.186,5.186,0,0,0,3.642,1.324c1.733,0,2.751-.544,2.751-1.437,0-.872-1.057-1.088-3-1.252-1.916-.164-3.754-.585-3.754-2,0-1.355,1.706-2.124,3.622-2.124a5.518,5.518,0,0,1,3.674,1.283l-.677.574a4.2,4.2,0,0,0-2.956-1.057c-1.28-.01-2.782.349-2.782,1.294,0,.893,1.356,1.078,3.052,1.211,2.188.174,3.7.6,3.7,2.012,0,1.324-1.346,2.3-3.687,2.3A6.312,6.312,0,0,1-10957.737-259.6Zm-8.705,1.389v-2.515l-3.61-4.67h1.037l3.012,3.89,3-3.89h1.024l-3.6,4.67v2.515Zm-14.562,0V-265.4h6.85v.8h-5.985v2.33h5.071v.8h-5.071v2.453h6.087v.8Z" transform="translate(11164.313 724.485)" fill="#444"/>
    <path id="mark" d="M36.727,37.561c-1.3.27-2.88-.41-4.688-2.025,0,0-.005,0-.01-.008s0-.005,0-.008l-3.46-2.845a.582.582,0,1,0-.74.9l2.991,2.46c-1.551,1.672-3.117,2.539-4.663,2.575-1.642.039-3.364-.862-5.111-2.677l-.564-4.653a.581.581,0,1,0-1.153.139l.554,4.6c-3.118,3.689-6.265,3.693-9.769.367l2.976-3.54a.582.582,0,1,0-.891-.749l-3.3,3.925c-1.8,1.68-3.359,2.413-4.628,2.173-1.042-.2-2-1.074-2.84-2.616a11.307,11.307,0,0,0,6.32-4.808,11.069,11.069,0,0,1,1.279-1.743,26.925,26.925,0,0,1,5.685-4.843.57.57,0,0,0,.272-.471,17.135,17.135,0,0,1,.71-4.087c.893-.445,1.405-1.537,2.034-2.117l3.193,1.61c.126.063.3.148.5.23a73.3,73.3,0,0,1,6.672,9.694.583.583,0,0,0,.136.16A26.227,26.227,0,0,0,39.668,34.81c-.856,1.6-1.843,2.523-2.941,2.751M12.837,17.423a9.141,9.141,0,0,0,2.07,1.226.578.578,0,0,0,.176-.036,49.42,49.42,0,0,1,.725-5.155c-.171.023-.342.055-.519.1a.583.583,0,0,1-.327-1.117l2.1-.748a.47.47,0,0,0,.322-.508l-.368-3.539a5.939,5.939,0,0,1-3.107,2.912c.423,3.5.07,5.762-1.073,6.869M11.246,10.6c-.121-.826-.222-1.541-.3-2a2.684,2.684,0,0,1,.594-2.653,3.188,3.188,0,0,1,3.016-.776,4.371,4.371,0,0,1,1.8.8A4.767,4.767,0,0,1,13.1,9.607a.58.58,0,0,0-.4.636c.413,3.056.247,5.141-.478,6.122-.348-1.388-.715-3.951-.972-5.761M14.811,3.95a.208.208,0,0,0-.07.07,5.263,5.263,0,0,1,1.37.446l2.473-1.3a.589.589,0,0,1,.524-.01l.982.465a.591.591,0,0,1,.3.343l1.047,3.171c.121-.127.232-.256.347-.39l.342-1.485a.552.552,0,0,0-.02-.325L20.93,1.628a.566.566,0,0,0-.5-.386L19.5,1.17a1.02,1.02,0,0,0-.67.169ZM29.47,13.594l-1.788-1.331a1.673,1.673,0,0,0-.3-.674,1.538,1.538,0,0,0-1.581-.533c-.781.151-1.883,1.237-3.641,3.188-.1.107-.191.207-.272.3l-.735-.416.116-5.2a12.474,12.474,0,0,0,1.3-1.31,32.337,32.337,0,0,0,5.212,2.655Zm1.289,3.5a.874.874,0,0,0,.166-.63l-.267-.53L27.5,13.582l-.916,1.5,2.951,2.2A.876.876,0,0,0,30.76,17.1M19.837,8.568a8.258,8.258,0,0,1-1.4.8l-.065.028-.307-2.96a1.708,1.708,0,0,0-.816-1.254l1.622-.851.493.235,1.148,3.47c-.221.19-.443.367-.675.53m.247,1.24L20,13.446a6.874,6.874,0,0,0-1.979-1,1.65,1.65,0,0,0,.519-1.385L18.5,10.6a8.964,8.964,0,0,0,1.43-.7h0c.05-.032.106-.064.156-.1m-3.3,4.867c-.141.838-.3,1.786-.413,2.6a3.947,3.947,0,0,1,.987-.95.583.583,0,0,1,.564-.023l3.52,1.773c1.073.54,1.581.483,2.075-.24l2.951-4.793c.107-.2.245-.984-.443-.842-.03.007-.337.087-1.274.994-.6.583-1.249,1.3-1.727,1.831-.242.267-.448.5-.6.657a.582.582,0,0,1-.71.1c-.948-.544-1.889-1.051-2.82-1.659a4.267,4.267,0,0,0-1.9-.69c-.06.38-.136.8-.211,1.241m10.6,7.3-.121-4.935-1.294-.964L24.5,18.457a2.369,2.369,0,0,1-1.425,1.086,75.125,75.125,0,0,1,5.962,8.816q1.08.863,2.17,1.6l-3.762-7.742a.577.577,0,0,1-.06-.241M41.053,34.1a.588.588,0,0,0-.423-.3,22.4,22.4,0,0,1-7.569-2.7l-4.512-9.279-.1-3.9a2.4,2.4,0,0,0,1.6.692,2.039,2.039,0,0,0,1.571-3.346l-2.9-5.721a.6.6,0,0,0-.307-.278,30.993,30.993,0,0,1-5.388-2.743l.227-1a1.7,1.7,0,0,0-.055-.976L22.028,1.237A1.735,1.735,0,0,0,20.517.08L19.59.008A2.176,2.176,0,0,0,18.2.361L14.177,2.972a1.347,1.347,0,0,0-.609.952A3.927,3.927,0,0,0,10.682,5.16,3.8,3.8,0,0,0,9.8,8.8c.081.447.181,1.155.3,1.974.4,2.838.914,6.4,1.4,6.993a6.349,6.349,0,0,0,1.445,1.153,7.488,7.488,0,0,0,1.511.811,18.293,18.293,0,0,0-.619,3.635,28.262,28.262,0,0,0-5.68,4.889,12.56,12.56,0,0,0-1.395,1.9,10.138,10.138,0,0,1-6.32,4.5.585.585,0,0,0-.383.816c1.108,2.31,2.412,3.577,3.993,3.874s3.3-.4,5.252-2.114c3.829,3.633,7.659,3.828,11.21-.164,3.779,3.706,7.6,3.625,11.194-.273,3.936,3.26,7.209,2.517,9.362-2.171a.589.589,0,0,0-.016-.519" transform="translate(134.572 454.736)" fill="#78c" fill-rule="evenodd"/>
  </g>
</svg>
