<svg xmlns="http://www.w3.org/2000/svg" width="200.588" height="40" viewBox="0 0 200.588 40">
  <g id="logo_art" transform="translate(-137.766 -613.29)">
    <path id="txt" d="M2.3-4.777a15.476,15.476,0,0,0,9.044-9.378,14.928,14.928,0,0,0,9.089,9.489L22.14-7.532c-4.356-1.644-7.889-4.156-9.178-10.111h8.689v-2.844H12.562c0-.111.022-.378.022-.444v-4.689H9.607v5.133H.851v2.844H9.407A12.943,12.943,0,0,1,.54-7.621ZM32.007-22.754A19.312,19.312,0,0,1,30.1-14.421,15.289,15.289,0,0,1,22.673-7.31l1.978,2.622a17.694,17.694,0,0,0,8.867-11.156A17.788,17.788,0,0,0,42.384-4.71l1.889-2.667c-1.333-.667-5.378-2.667-7.311-6.889a21.3,21.3,0,0,1-1.911-8.578v-2.689H32.007ZM55.651-5.643c5.822-.4,9.956-2.867,9.956-9.444,0-5.578-3.556-8.889-9.311-8.889-6.267,0-10.489,4.156-10.489,9.978,0,3.222,1.511,6.578,4.511,6.578,2.556,0,3.978-2.333,4.356-2.978,1.844-3.111,2.267-8.156,2.489-10.822,4.333.333,5.244,3.467,5.244,5.978,0,5.444-3.711,6.578-7.689,6.756ZM54.207-21.088C53.7-14.154,52.14-10.443,50.5-10.443c-.533,0-1.778-.511-1.778-3.311C48.718-16.754,49.984-20.132,54.207-21.088ZM67.962-12.91v2.333H74.94C73.34-8.643,70.1-7.8,67.429-7.354L68.54-4.621c3.733-.889,7.667-2.511,9.378-5.778.622,1.311,3.067,4.556,9.156,5.689l1.4-2.644C84.162-8.043,82.451-9,80.851-10.577H87.9V-12.91H78.851A10.667,10.667,0,0,0,79.1-14.4h9.222v-2.289H79.229v-1.267h7.622v-2.089H79.229v-1.178h8.578v-2.333H83.3a10.608,10.608,0,0,0,.867-1.867l-3.178-.289a16.106,16.106,0,0,1-.822,2.156H75.74a8.712,8.712,0,0,0-.867-2.156l-2.978.422a9.46,9.46,0,0,1,.822,1.733H68.162v2.333h8.311v1.178H69.007v2.089h7.467v1.267H67.518V-14.4h8.844a6.443,6.443,0,0,1-.289,1.489ZM95.3-18.888h2.956V-4.666h2.511V-18.888h3.267V-21.51h-3.267v-4.044H98.207v4.044H95.3v1.889l-2.311-.933a13.6,13.6,0,0,1-3.622,5.289l.778,3.4c.467-.422.8-.733,1.2-1.156v8.356h2.6V-16.6a18.226,18.226,0,0,0,1.356-3Zm5.711-5.822a14.99,14.99,0,0,1,1.422,3.111l2-1.022a10.975,10.975,0,0,0-1.6-2.978ZM96.3-7.532c.933-2.311,1.156-6.511,1.133-9.156H95.384a22.534,22.534,0,0,1-1.156,7.444ZM104.229-19v2.622H106.7v8.289c0,.622-.289.644-.844.644h-2.178l.444,2.778h3.067c2.156,0,2.156-1.244,2.156-2.2v-9.511h1.333V-19Zm-13.756-.489a14.173,14.173,0,0,0,4.4-5.467l-2.489-.756a10.223,10.223,0,0,1-2.978,3.467Zm14.089-5.378V-22.2h5.756v-2.667Zm.067,16.156a52.175,52.175,0,0,0-.867-8.022l-2.111.222a58,58,0,0,1,.533,8.044Zm18.4,4.044a18.938,18.938,0,0,0,4.711-3.711,18.353,18.353,0,0,0,3.8,3.733l1.622-2.689a20.56,20.56,0,0,1-3.711-3.4c1.089-1.889,1.956-4.578,2.289-8.956h1.022v-2.8h-5.333c.244-1.289.378-2.244.467-2.956l-2.622-.222a22.24,22.24,0,0,1-2.2,7.311v-1.511h-1.267A23.382,23.382,0,0,0,124.318-24l-2.311-1.067a21.356,21.356,0,0,1-1.244,2.422V-23.91h-2.489v-1.667h-2.511v1.667h-3.311v2.356h3.311v1.689H111.94v2.378h4.311a20.425,20.425,0,0,1-4.6,2.867l1.222,2.356a24.4,24.4,0,0,0,2.711-1.644h3.089a6.694,6.694,0,0,1-1.356,1.267h-.6V-11.2c-2.689.222-3.711.267-4.956.333l.178,2.533c.756-.044,4.111-.356,4.778-.4v.978c0,.489-.089.622-.689.622H113.7l.467,2.489h2.956c1.689,0,2.133-.578,2.133-2.067V-9c2.6-.311,3.2-.4,4.022-.556V-11.91c-1,.156-1.933.267-4.022.489v-.4A14.893,14.893,0,0,0,121.984-14V-16.11h-3.622c.867-.8,1.2-1.156,1.422-1.378h2.756c-.156.244-.267.378-.622.844l1.867,2.311c.222-.289.356-.511.711-1.022a16.982,16.982,0,0,0,1.711,4.6A13.5,13.5,0,0,1,121.273-7.2Zm6.133-15.022a17.7,17.7,0,0,1-1.356,6.489,15.882,15.882,0,0,1-1.578-5.422c.111-.267.222-.556.422-1.067ZM120.073-21.6c-.267.378-.6.822-1.378,1.733h-.533V-21.6ZM153.7-14.132A20.219,20.219,0,0,0,150.029-18H151.3V-20.31H137.873V-18h2a19.479,19.479,0,0,1-1.022,2.044c-.511,0-3.067,0-3.289-.022l.2,2.356c4.533,0,5.489-.044,7.378-.111v1.489h-7.178v2.378h7.178v2.022h-9v2.489h20.889V-7.843h-9.067V-9.866h7.244v-2.378h-7.244v-1.578c3-.178,3.2-.2,4.267-.311a15.664,15.664,0,0,1,1.2,1.644Zm-6.689-2.978c.4.311.667.511,1.178.933-1.756.133-4.711.2-6.4.222A21.538,21.538,0,0,0,142.9-18h5.467Zm-3.867-6.978h-8.422v5.244h2.8v-2.8h14.133v2.8h2.8v-5.244h-8.489v-1.556H143.14Z" transform="translate(183.325 656.993)" fill="#8ce"/>
    <path id="logo_EYS" d="M-10958.369-259.77l.588-.629a5.042,5.042,0,0,0,3.543,1.288c1.688,0,2.676-.529,2.676-1.4,0-.848-1.027-1.058-2.915-1.218-1.868-.16-3.655-.569-3.655-1.947,0-1.318,1.658-2.066,3.525-2.066a5.372,5.372,0,0,1,3.574,1.248l-.659.559a4.093,4.093,0,0,0-2.876-1.028c-1.247-.01-2.705.339-2.705,1.258,0,.869,1.318,1.048,2.967,1.178,2.126.17,3.6.58,3.6,1.957,0,1.288-1.309,2.236-3.584,2.236A6.136,6.136,0,0,1-10958.369-259.77Zm-8.469,1.351v-2.446l-3.514-4.542h1.008l2.936,3.784,2.914-3.784h1l-3.5,4.542v2.446Zm-14.161,0v-6.988h6.658v.779h-5.823v2.266h4.935v.779h-4.935v2.386h5.924v.779Z" transform="translate(11164.864 883.474)" fill="#444"/>
    <path id="mark" d="M24,37.44a6.513,6.513,0,0,1-3.422-.98,6.646,6.646,0,0,1-3.3-5.782V25.3a5.185,5.185,0,0,0-3.752-4.932l-.144.974a2.277,2.277,0,0,1-.721,1.314V39.34a.678.678,0,0,1-.679.66H8.311a.681.681,0,0,1-.7-.656V22.62a2.343,2.343,0,0,1-.681-1.31l-.188-1.159a6.874,6.874,0,0,1-5.533-2.89,6.693,6.693,0,0,1-.367-7.088A19.457,19.457,0,1,1,27.052,36.667a6.323,6.323,0,0,1-3.028.774ZM13.871,18.973a6.6,6.6,0,0,1,4.807,6.29V30.68a5.319,5.319,0,0,0,2.6,4.61,5.166,5.166,0,0,0,5.121.159,18.12,18.12,0,1,0-24.341-24.7,5.439,5.439,0,0,0,.985,6.463,5.165,5.165,0,0,0,3.508,1.5A13.121,13.121,0,0,1,8.712,9.163l.924-1.285.131-.132a.71.71,0,0,1,.592-.342A.659.659,0,0,1,10.7,7.5a.686.686,0,0,1,.226.226l.052.086L11.759,9A13.477,13.477,0,0,1,13.9,18.7ZM11.219,38.681v-15.4H9.01l0,15.4ZM9.959,9.787a12.053,12.053,0,0,0-1.953,8.721l.281,2.614a.936.936,0,0,0,.93.8l.017.1v-.1H11.04a.885.885,0,0,0,.9-.83l.4-2.458A12,12,0,0,0,10.4,9.913l-.274-.4ZM25.6,31.342a4.35,4.35,0,1,1,4.351-4.35,4.4,4.4,0,0,1-4.351,4.35ZM25.6,24A2.993,2.993,0,1,0,28.6,27,3.036,3.036,0,0,0,25.6,24m-.721-5.937a3.228,3.228,0,1,1,3.227-3.226,3.237,3.237,0,0,1-3.227,3.226m0-5.056a1.828,1.828,0,1,0,1.829,1.828,1.831,1.831,0,0,0-1.829-1.828Zm-8.936-.761a2.727,2.727,0,0,1-2.717-2.689,2.746,2.746,0,1,1,2.746,2.689Zm.023-4.093a1.351,1.351,0,1,0,.006,0Z" transform="translate(137.766 613.29)" fill="#8ce"/>
  </g>
</svg>
