<svg xmlns="http://www.w3.org/2000/svg" xmlns:xlink="http://www.w3.org/1999/xlink" width="193.433" height="34" viewBox="0 0 193.433 34">
  <defs>
    <linearGradient id="linear-gradient" y1="0.712" x2="1" y2="0.233" gradientUnits="objectBoundingBox">
      <stop offset="0" stop-color="#f88"/>
      <stop offset="1" stop-color="#ff4079"/>
    </linearGradient>
  </defs>
  <g id="logo" transform="translate(-394.432 -1965.467)">
    <path id="Path_12724" data-name="Path 12724" d="M-274.046,17500.9v-11.369l-5.334,5.434a.916.916,0,0,1-.558.109.892.892,0,0,1-.558-.131c-.378-.381-1.3-1.3-2.772-2.768l-2.562-2.539v11.291c0,.627-.078.7-.713.7a1.077,1.077,0,0,1-.592-.1,1.066,1.066,0,0,1-.1-.588v-13.158c0-.621.056-.687.691-.687a1.077,1.077,0,0,1,.579.121q.529.533,5,4.961l1.059,1.061,1.056-1.061c2.971-2.957,4.6-4.582,4.978-4.965.04-.051.2-.117.558-.117.657.006.7.092.706.7l.012,13.137c0,.6-.056.715-.737.729C-273.925,17501.648-274.033,17501.592-274.046,17500.9Zm-27.069-.209a6.712,6.712,0,0,1-2.679-2.668,7.306,7.306,0,0,1-.976-3.645,7.372,7.372,0,0,1,.988-3.666,6.594,6.594,0,0,1,2.695-2.658,7.518,7.518,0,0,1,3.63-.961,7.478,7.478,0,0,1,3.624.961,6.685,6.685,0,0,1,2.713,2.666,7.262,7.262,0,0,1,1,3.658,7.332,7.332,0,0,1-.976,3.645,6.7,6.7,0,0,1-2.683,2.668,7.529,7.529,0,0,1-3.683.967A7.455,7.455,0,0,1-301.115,17500.689Zm.8-11.473a5.556,5.556,0,0,0-2.246,2.205,5.9,5.9,0,0,0-.784,2.932,5.925,5.925,0,0,0,.777,2.922,5.622,5.622,0,0,0,2.215,2.191,5.982,5.982,0,0,0,2.927.768,6,6,0,0,0,2.918-.768,5.521,5.521,0,0,0,2.221-2.2,5.913,5.913,0,0,0,.765-2.912,5.926,5.926,0,0,0-.781-2.932,5.543,5.543,0,0,0-2.255-2.205,6.08,6.08,0,0,0-2.868-.736A6.091,6.091,0,0,0-300.319,17489.217Zm-46.491,11.682v-11.369l-5.334,5.434a.917.917,0,0,1-.558.109.885.885,0,0,1-.557-.131c-.378-.381-1.3-1.3-2.775-2.768l-2.559-2.539v11.291c0,.627-.077.7-.712.7a1.067,1.067,0,0,1-.592-.1,1.083,1.083,0,0,1-.105-.588v-13.158c0-.621.059-.687.691-.687a1.076,1.076,0,0,1,.579.121q.53.533,5,4.961l1.059,1.061,1.059-1.061c2.971-2.957,4.6-4.582,4.978-4.965.037-.051.2-.117.557-.117.657.006.7.092.7.7l.015,13.141c0,.6-.056.715-.737.729C-346.691,17501.648-346.8,17501.592-346.809,17500.9Zm92.34.742a.77.77,0,0,1-.375-.1.532.532,0,0,1-.223-.221.858.858,0,0,1-.1-.26c.136-.387.709-1.781,3.122-6.613,2.71-5.416,3.426-6.824,3.55-7.039a.565.565,0,0,1,.242-.236.7.7,0,0,1,.362-.107.72.72,0,0,1,.362.1.556.556,0,0,1,.239.242c.124.215.846,1.623,3.571,7.049,2.428,4.818,3.008,6.205,3.144,6.6a.8.8,0,0,1-.1.26.528.528,0,0,1-.223.217.85.85,0,0,1-.375.1Zm1.152-1.426h10.857l-5.427-11.064Zm-15.017.74v-13.186c0-.592.049-.672.712-.678h7.728a3.9,3.9,0,0,1,2.76,1.2,3.667,3.667,0,0,1,1.208,2.723,3.8,3.8,0,0,1-1.2,2.863,3.939,3.939,0,0,1-2.853,1.182l-2.2.029c-.558,0-.666-.023-.672-.74,0-.664.09-.7.706-.7l1.67-.02a3.282,3.282,0,0,0,2.472-.842,2.335,2.335,0,0,0,.66-1.74c0-.387-.152-2.533-3.218-2.533h-6.359v12.416a1.023,1.023,0,0,1-.105.59,1.079,1.079,0,0,1-.613.113C-268.294,17501.629-268.334,17501.553-268.334,17500.955Zm-44.356.674c-5.058,0-7.319-2.244-7.326-7.277,0-5.018,2.243-7.26,7.27-7.26l4.445.014c.678.008.7.133.706.682,0,.693-.111.711-.691.711l-4.5.006c-3.692,0-5.811,2.139-5.811,5.861,0,3.707,2.15,5.85,5.895,5.875h4.389c.7.014.7.154.7.676,0,.664-.087.713-.681.713Zm-23.163,0c-.471,0-.582,0-.582-.756l-.028-6.324-4.761-5.656-.09-.074a1.53,1.53,0,0,1-.654-1.049v-.127a.786.786,0,0,1,.084-.453.977.977,0,0,1,.619-.139,1.034,1.034,0,0,1,.62.121c.183.18.923.988,3.8,4.449l1.155,1.393,1.155-1.393c3.029-3.646,3.7-4.371,3.85-4.508a1.121,1.121,0,0,1,.626-.113,1.04,1.04,0,0,1,.619.133.765.765,0,0,1,.087.455v.123a1.56,1.56,0,0,1-.657,1.059l-.084.068-4.931,5.73-.016,6.369c-.012.6-.093.682-.731.691Zm115.534-.029c-.672-.008-.691-.1-.691-.654,0-.66.1-.66.623-.66l6.7-.045c3.358-.02,3.72-1.836,3.72-2.617s-.362-2.6-3.7-2.6h-2.215c-4.516-.008-5.123-1.99-5.123-3.926,0-2.021.607-4.014,5.126-4.023h6.619c.626.01.7.082.7.711,0,.705-.108.705-.629.711l-6.694-.018c-3.355.041-3.736,1.83-3.748,2.6.022.8.421,2.537,3.7,2.537h2.218c4.547.018,5.17,2.07,5.179,4.078,0,1.91-.613,3.889-5.17,3.908Zm-15.968,0c-.672-.008-.691-.1-.691-.654,0-.66.1-.66.623-.66l6.7-.045c3.358-.02,3.72-1.836,3.72-2.617s-.359-2.6-3.7-2.6h-2.215c-4.513-.008-5.123-1.99-5.123-3.926,0-2.021.61-4.014,5.126-4.023h6.619c.629.01.7.082.706.711,0,.705-.108.705-.632.711l-6.694-.018c-3.355.041-3.736,1.83-3.745,2.6.022.8.421,2.537,3.7,2.537h2.221c4.544.018,5.167,2.07,5.179,4.078,0,1.91-.616,3.889-5.17,3.908Z" transform="translate(796.398 -15504.533)" fill="#555"/>
    <path id="Path_12725" data-name="Path 12725" d="M-355.022,17516.018a17.009,17.009,0,0,1,0-24.047,17.018,17.018,0,0,1,24.044,0,17.009,17.009,0,0,1,0,24.047A16.949,16.949,0,0,1-343,17521,16.949,16.949,0,0,1-355.022,17516.018Zm1.2-22.842a15.305,15.305,0,0,0,0,21.643,15.292,15.292,0,0,0,21.636,0,15.305,15.305,0,0,0,0-21.643,15.258,15.258,0,0,0-10.818-4.482A15.258,15.258,0,0,0-353.818,17493.176Zm11.813,21.729a1.113,1.113,0,0,1-.411-.232l-11.255-11.262a.923.923,0,0,1-.236-.406.632.632,0,0,1,0-.381.884.884,0,0,1,.135-.3c.453-.223,2.135-.928,8.331-3.012,6.955-2.326,8.769-2.918,9.064-3.006a.723.723,0,0,1,.408,0,.881.881,0,0,1,.4.221.835.835,0,0,1,.224.4.68.68,0,0,1,0,.4c-.086.3-.677,2.115-3,9.088-2.064,6.2-2.767,7.887-2.988,8.346a1.166,1.166,0,0,1-.3.139.6.6,0,0,1-.189.027A1.141,1.141,0,0,1-342.005,17514.9Z" transform="translate(754.432 -15521.53)" fill="url(#linear-gradient)"/>
    <path id="Path_377900" data-name="Path 377900" d="M3.713-8.008a.552.552,0,0,1-.564-.609v-2.426H6.015a.418.418,0,0,0,.463-.429c0-.271-.192-.406-.463-.406H3.149V-13.92a.552.552,0,0,1,.564-.609H6.669a.4.4,0,0,0,.451-.417.4.4,0,0,0-.451-.417H3.454c-.981,0-1.354.395-1.354,1.41v5.37c0,1.015.372,1.41,1.354,1.41h3.52A.4.4,0,0,0,7.425-7.6c0-.271-.181-.406-.451-.406Zm7.694-2.55v2.922a.5.5,0,0,0,.53.542.5.5,0,0,0,.53-.542v-2.956l2.55-4.118a.494.494,0,0,0,.068-.259.541.541,0,0,0-.542-.474.482.482,0,0,0-.395.214L12.005-11.55,9.873-15.217a.5.5,0,0,0-.406-.226.544.544,0,0,0-.575.451.625.625,0,0,0,.068.293ZM19.5-10.93c1.139.327,1.613.722,1.613,1.512A1.463,1.463,0,0,1,19.53-7.861a2.333,2.333,0,0,1-1.963-.97.471.471,0,0,0-.372-.192.547.547,0,0,0-.53.474.652.652,0,0,0,.158.372A3.262,3.262,0,0,0,19.53-6.993a2.424,2.424,0,0,0,2.64-2.414c0-1.388-.711-2.019-2.256-2.471l-.384-.113c-1.128-.327-1.568-.666-1.568-1.478,0-.79.53-1.218,1.421-1.218a1.831,1.831,0,0,1,1.534.79.434.434,0,0,0,.361.158.532.532,0,0,0,.53-.542.45.45,0,0,0-.135-.338,3.021,3.021,0,0,0-2.29-.925,2.189,2.189,0,0,0-2.459,2.076c0,1.309.643,1.986,2.177,2.426Zm4.84.35a.409.409,0,0,0-.384.44.409.409,0,0,0,.384.44h2.787a.409.409,0,0,0,.384-.44.409.409,0,0,0-.384-.44Zm6.532-.981v-3.351a.483.483,0,0,0-.519-.53.486.486,0,0,0-.53.53v7.277a.5.5,0,0,0,.53.542.492.492,0,0,0,.519-.542v-2.741l.767-.767,3.046,3.87a.452.452,0,0,0,.406.181.54.54,0,0,0,.53-.5.5.5,0,0,0-.124-.338L32.3-11.81l2.583-2.73a.6.6,0,0,0,.181-.429.554.554,0,0,0-.553-.474.433.433,0,0,0-.35.181Zm6.746,3.994a.445.445,0,0,0,.5.474.445.445,0,0,0,.5-.474V-12.3a.445.445,0,0,0-.5-.474.445.445,0,0,0-.5.474Zm.508-7.886a.691.691,0,0,0-.711.7.694.694,0,0,0,.711.711.691.691,0,0,0,.7-.711A.689.689,0,0,0,38.122-15.454Zm7.66.384a.44.44,0,0,0-.5-.474.427.427,0,0,0-.485.474v3.012a1.871,1.871,0,0,0-1.478-.79c-1.534,0-2.561,1.094-2.561,2.888,0,1.9,1.038,2.944,2.459,2.944A1.781,1.781,0,0,0,44.857-8.1a5.077,5.077,0,0,0,.169.711.376.376,0,0,0,.395.293c.3,0,.53-.135.53-.35a1.464,1.464,0,0,0-.045-.3,8.156,8.156,0,0,1-.124-1.6ZM44.8-9.926c0,1.309-.711,2.132-1.467,2.132-.9,0-1.557-.688-1.557-2.166,0-1.388.677-2.076,1.546-2.076a1.674,1.674,0,0,1,1.478.914ZM50-9.61c.891.192,1.117.474,1.117.925,0,.542-.372.9-1.139.9a1.743,1.743,0,0,1-1.444-.609.386.386,0,0,0-.338-.169.439.439,0,0,0-.429.395.491.491,0,0,0,.124.327,2.63,2.63,0,0,0,2.087.824c1.331,0,2.076-.7,2.076-1.67s-.485-1.478-1.636-1.715l-.384-.079c-.891-.181-1.139-.372-1.139-.891,0-.451.417-.722.993-.722a1.532,1.532,0,0,1,1.23.519.427.427,0,0,0,.327.135.463.463,0,0,0,.429-.44.41.41,0,0,0-.135-.316,2.564,2.564,0,0,0-1.85-.654c-1.128,0-1.918.6-1.918,1.478s.429,1.41,1.67,1.681Zm4.885-4.546a.414.414,0,0,0-.417.44.414.414,0,0,0,.429.429l6.735-.079c.248,0,.361.045.361.147a.51.51,0,0,1-.113.271,11.424,11.424,0,0,1-3.125,3.125,14.142,14.142,0,0,0-1.376-1.094.572.572,0,0,0-.327-.113.4.4,0,0,0-.417.395.486.486,0,0,0,.226.384,17.48,17.48,0,0,1,2.956,2.82.56.56,0,0,0,.429.237.431.431,0,0,0,.429-.44.66.66,0,0,0-.169-.406A15.625,15.625,0,0,0,59.365-9.26,13.015,13.015,0,0,0,62.738-12.6,1.413,1.413,0,0,0,63-13.344c0-.508-.44-.88-1.241-.869ZM69.507-6.823a.426.426,0,0,0,.451.429.426.426,0,0,0,.451-.429v-5.133a.446.446,0,0,0-.53-.451,15.542,15.542,0,0,0,2.4-2.617.463.463,0,0,0,.1-.293.471.471,0,0,0-.474-.44.474.474,0,0,0-.395.214,14.911,14.911,0,0,1-5.641,4.795.51.51,0,0,0-.338.451.408.408,0,0,0,.429.395.6.6,0,0,0,.293-.079A16.716,16.716,0,0,0,69.53-12.1a.572.572,0,0,0-.023.147Zm12.527-2.2c0,.395-.158.519-.7.519H76.021a.4.4,0,0,0-.406.429.4.4,0,0,0,.406.429H81.5c.959,0,1.433-.429,1.433-1.185v-4.31c0-.756-.474-1.185-1.433-1.185H76.2a.4.4,0,0,0-.406.429.4.4,0,0,0,.406.429h5.133c.542,0,.7.124.7.519Zm5.054-5.7a.553.553,0,0,0-.327-.1.441.441,0,0,0-.451.429.435.435,0,0,0,.2.361A12.128,12.128,0,0,1,88.137-12.6a.527.527,0,0,0,.372.181.475.475,0,0,0,.463-.474.574.574,0,0,0-.181-.395A9.9,9.9,0,0,0,87.088-14.721Zm6.453,1.354a12.052,12.052,0,0,1-6.43,5.46.5.5,0,0,0-.361.451.446.446,0,0,0,.463.44.767.767,0,0,0,.214-.034,13.144,13.144,0,0,0,6.916-5.866.5.5,0,0,0,.079-.271.453.453,0,0,0-.463-.44A.472.472,0,0,0,93.541-13.367Zm10.932-.023a1.221,1.221,0,0,0,1.23-1.241,1.218,1.218,0,0,0-1.23-1.23,1.221,1.221,0,0,0-1.241,1.23A1.223,1.223,0,0,0,104.473-13.389Zm0-1.974a.7.7,0,0,1,.733.733.7.7,0,0,1-.733.733.7.7,0,0,1-.733-.733A.7.7,0,0,1,104.473-15.364Zm-6.092,2.414A10.435,10.435,0,0,1,96.124-8.9a.55.55,0,0,0-.181.384.429.429,0,0,0,.44.417.587.587,0,0,0,.406-.192,11.443,11.443,0,0,0,2.471-4.389.885.885,0,0,0,.023-.158.438.438,0,0,0-.463-.44A.449.449,0,0,0,98.381-12.949Zm3.486.124A17.693,17.693,0,0,1,104.36-8.55a.523.523,0,0,0,.474.361.5.5,0,0,0,.485-.519.647.647,0,0,0-.056-.271,17.633,17.633,0,0,0-2.685-4.355.524.524,0,0,0-.384-.192.436.436,0,0,0-.44.417A.431.431,0,0,0,101.867-12.825Zm6.656-1.94a.421.421,0,0,0-.417.44.405.405,0,0,0,.429.417l4.163-.068c.259-.011.395.034.395.192a.685.685,0,0,1-.068.248,10.986,10.986,0,0,1-5.347,5.663.482.482,0,0,0-.3.44.431.431,0,0,0,.429.44.593.593,0,0,0,.259-.068,12.979,12.979,0,0,0,3.813-2.967A17.344,17.344,0,0,1,114.8-7.2a.563.563,0,0,0,.44.237.491.491,0,0,0,.485-.5.613.613,0,0,0-.158-.395,16.62,16.62,0,0,0-3.17-2.82,10.717,10.717,0,0,0,1.534-2.7,1.618,1.618,0,0,0,.124-.6c0-.575-.44-.88-1.23-.869Z" transform="translate(451.243 1982.147)" fill="#555"/>
  </g>
</svg>
