<svg id="logo_Kids_art" xmlns="http://www.w3.org/2000/svg" width="146.375" height="40" viewBox="0 0 146.375 40">
  <g id="Group_185280" data-name="Group 185280">
    <path id="Path_191658" data-name="Path 191658" d="M117.9,20.66a2.816,2.816,0,1,0,.665,3.928A2.818,2.818,0,0,0,117.9,20.66Z" transform="translate(-87.371 -15.509)" fill="#73c9c8" style="isolation: isolate"/>
    <path id="Path_191659" data-name="Path 191659" d="M113.371,78.326a2.816,2.816,0,1,0,.665,3.928A2.818,2.818,0,0,0,113.371,78.326Z" transform="translate(-83.883 -59.918)" fill="#f986ae" style="isolation: isolate"/>
    <path id="Path_191660" data-name="Path 191660" d="M49.428,15.859a1.854,1.854,0,1,0,.438,2.587A1.856,1.856,0,0,0,49.428,15.859Z" transform="translate(-35.809 -11.949)" fill="#fea326" style="isolation: isolate"/>
    <path id="Path_191661" data-name="Path 191661" d="M39.826,66.636a2.642,2.642,0,1,0,.624,3.685A2.644,2.644,0,0,0,39.826,66.636Z" transform="translate(-27.457 -50.94)" fill="#fc743f"/>
    <path id="Path_191662" data-name="Path 191662" d="M98.529,52.487A1.985,1.985,0,1,0,99,55.256,1.986,1.986,0,0,0,98.529,52.487Z" transform="translate(-73.463 -40.138)" fill="#92ce4c" style="isolation: isolate"/>
    <path id="Path_191663" data-name="Path 191663" d="M46.785,105.223l-2.26-.533-.841-2.162-1.2,1.983-2.318.134,1.515,1.759-.59,2.245,2.141-.9,1.952,1.255-.192-2.313Z" transform="translate(-30.929 -78.957)" fill="#92ce4c" style="isolation: isolate"/>
    <path id="Path_191664" data-name="Path 191664" d="M145.107,48.856l-2.4-.4-1.026-2.2L140.56,48.4l-2.414.3,1.7,1.735-.464,2.386,2.177-1.083,2.126,1.179-.358-2.4Z" transform="translate(-106.387 -35.617)" fill="#fea326" style="isolation: isolate"/>
    <path id="Path_191665" data-name="Path 191665" d="M80.284,2.726,77.775,2.3,76.7,0,75.527,2.254,73,2.565,74.783,4.38l-.486,2.5,2.277-1.133L78.8,6.976l-.374-2.515Z" transform="translate(-56.219)" fill="#f986ae" style="isolation: isolate"/>
    <path id="Path_191666" data-name="Path 191666" d="M66.153,47.867l3.735-4.59-5.346-.535Z" transform="translate(-49.704 -32.916)" fill="#a976b7"/>
    <path id="Path_191667" data-name="Path 191667" d="M82.362,110.62l1.12,7.358,5.016-4.528Z" transform="translate(-63.428 -85.189)" fill="#fc743f"/>
    <path id="Path_191668" data-name="Path 191668" d="M18.045,64.55A18.046,18.046,0,0,1,7.474,31.879L9.807,35.1a14.067,14.067,0,1,0,19.9,19.267l3.3,2.227A18.037,18.037,0,0,1,18.045,64.55Z" transform="translate(0 -24.55)" fill="#8c8c8c"/>
    <rect id="Rectangle_106852" data-name="Rectangle 106852" width="5.175" height="5.175" transform="matrix(0.643, -0.766, 0.766, 0.643, 31.594, 25.694)" fill="#a976b7"/>
    <rect id="Rectangle_106853" data-name="Rectangle 106853" width="4.445" height="4.445" transform="matrix(0.996, -0.087, 0.087, 0.996, 16.396, 18.112)" fill="#73c9c8" style="isolation: isolate"/>
  </g>
  <g id="Group_185283" data-name="Group 185283" transform="translate(51.473 6.141)">
    <g id="Group_185281" data-name="Group 185281" style="isolation: isolate">
      <path id="Path_191669" data-name="Path 191669" d="M232.835,38.874h-5.528v3.567h6.174v2.786H223.9V30.2h9.273V32.99h-5.862v3.121h5.528Z" transform="translate(-223.897 -29.401)" fill="#73c9c8" style="isolation: isolate"/>
      <path id="Path_191670" data-name="Path 191670" d="M281.19,45.227V39.075L276.442,30.2h3.879l1.538,3.611c.468,1.092.78,1.895,1.159,2.875h.045c.334-.936.691-1.805,1.137-2.875l1.516-3.611h3.812l-4.949,8.76v6.263Z" transform="translate(-264.362 -29.401)" fill="#fea326" style="isolation: isolate"/>
      <path id="Path_191671" data-name="Path 191671" d="M342.089,40.905a8.666,8.666,0,0,0,3.767.936c1.56,0,2.385-.646,2.385-1.627,0-.936-.713-1.471-2.519-2.117-2.5-.869-4.124-2.251-4.124-4.436,0-2.564,2.14-4.525,5.684-4.525a9.206,9.206,0,0,1,3.834.758l-.758,2.742a7.138,7.138,0,0,0-3.143-.714c-1.471,0-2.184.669-2.184,1.449,0,.958.847,1.382,2.786,2.117,2.653.981,3.9,2.363,3.9,4.48,0,2.519-1.939,4.658-6.063,4.658a9.831,9.831,0,0,1-4.257-.914Z" transform="translate(-314.385 -28.579)" fill="#92ce4c" style="isolation: isolate"/>
      <path id="Path_191672" data-name="Path 191672" d="M406.086,65.2v2.251h-5.84V65.2Z" transform="translate(-359.704 -56.356)" fill="#fc743f"/>
      <path id="Path_191673" data-name="Path 191673" d="M441.255,30.2h3.365v6.643h.067c.334-.58.691-1.115,1.025-1.65l3.41-4.993h4.169l-4.971,6.4,5.238,8.626h-3.968l-3.678-6.486-1.293,1.582v4.9h-3.365Z" transform="translate(-391.286 -29.401)" fill="#f986ae" style="isolation: isolate"/>
      <path id="Path_191674" data-name="Path 191674" d="M509.8,29.205A1.7,1.7,0,0,1,507.97,30.9a1.706,1.706,0,1,1,.022-3.41A1.7,1.7,0,0,1,509.8,29.205Zm-3.5,13.931v-10.9h3.388v10.9Z" transform="translate(-441.307 -27.311)" fill="#fea326" style="isolation: isolate"/>
      <path id="Path_191675" data-name="Path 191675" d="M547.937,26.713V39.285c0,1.226.044,2.519.089,3.254h-3.009l-.156-1.6h-.044a3.806,3.806,0,0,1-3.411,1.85c-2.586,0-4.658-2.207-4.658-5.6-.022-3.678,2.273-5.8,4.882-5.8A3.32,3.32,0,0,1,544.5,32.62h.044V26.713Zm-3.388,9.54a5.506,5.506,0,0,0-.044-.6,2.036,2.036,0,0,0-1.984-1.672c-1.538,0-2.341,1.382-2.341,3.1,0,1.85.914,3.009,2.318,3.009a1.984,1.984,0,0,0,1.962-1.627,2.88,2.88,0,0,0,.089-.78Z" transform="translate(-464.825 -26.713)" fill="#92ce4c" style="isolation: isolate"/>
      <path id="Path_191676" data-name="Path 191676" d="M601.433,55.254a6.621,6.621,0,0,0,2.92.825c1.025,0,1.449-.357,1.449-.914s-.334-.825-1.6-1.248c-2.251-.758-3.121-1.984-3.1-3.277,0-2.028,1.738-3.566,4.436-3.566a7.309,7.309,0,0,1,3.076.624l-.6,2.341a5.35,5.35,0,0,0-2.362-.624c-.825,0-1.293.334-1.293.892,0,.512.423.78,1.761,1.248,2.073.713,2.942,1.761,2.964,3.366,0,2.028-1.6,3.522-4.725,3.522a7.716,7.716,0,0,1-3.522-.758Z" transform="translate(-514.176 -42.393)" fill="#a976b7"/>
    </g>
    <g id="Group_185282" data-name="Group 185282" transform="translate(16.493 22.599)" style="isolation: isolate">
      <path id="Path_191677" data-name="Path 191677" d="M297.624,130.949,297,133h-1.364l2.32-7.239h1.686L302,133h-1.418l-.655-2.052Zm2.073-1-.569-1.783c-.14-.44-.258-.934-.365-1.353h-.021c-.107.419-.215.924-.344,1.353l-.559,1.783Z" transform="translate(-295.637 -125.59)" fill="#8c8c8c"/>
      <path id="Path_191678" data-name="Path 191678" d="M328.7,135.788c0-.709-.011-1.213-.043-1.686h1.149l.043,1h.043a1.56,1.56,0,0,1,1.429-1.117,1.382,1.382,0,0,1,.311.032v1.246a1.827,1.827,0,0,0-.387-.043,1.165,1.165,0,0,0-1.181,1,2.256,2.256,0,0,0-.043.408v2.707H328.7Z" transform="translate(-321.069 -131.922)" fill="#8c8c8c"/>
      <path id="Path_191679" data-name="Path 191679" d="M347.934,128V129.5h1.257v.988h-1.257v2.309c0,.634.172.967.677.967a1.957,1.957,0,0,0,.516-.064l.021,1.009a2.9,2.9,0,0,1-.956.129,1.529,1.529,0,0,1-1.138-.43,2.084,2.084,0,0,1-.408-1.461v-2.459h-.752V129.5h.752v-1.182Z" transform="translate(-334.339 -127.317)" fill="#8c8c8c"/>
      <path id="Path_191680" data-name="Path 191680" d="M380.884,132.605c-.183-.183-.354-.365-.569-.6a3.05,3.05,0,0,1-2.041.72,2.125,2.125,0,0,1-2.4-2.041,2.338,2.338,0,0,1,1.4-2.094v-.032a2.333,2.333,0,0,1-.58-1.45,1.889,1.889,0,0,1,2.03-1.858,1.64,1.64,0,0,1,1.794,1.622c0,.752-.43,1.364-1.493,1.89l-.011.043c.5.58,1.063,1.224,1.461,1.654a5.251,5.251,0,0,0,.655-1.922h1.181a5.409,5.409,0,0,1-1.128,2.717c.4.44.795.88,1.246,1.353Zm-1.2-1.343c-.44-.462-1.128-1.224-1.8-2.008a1.478,1.478,0,0,0-.741,1.213,1.256,1.256,0,0,0,1.332,1.278A1.68,1.68,0,0,0,379.681,131.263Zm-1.794-4.285a1.724,1.724,0,0,0,.526,1.16c.612-.386.967-.72.967-1.224a.741.741,0,0,0-.72-.817A.8.8,0,0,0,377.888,126.977Z" transform="translate(-357.432 -125.194)" fill="#8c8c8c"/>
      <path id="Path_191681" data-name="Path 191681" d="M420.811,125.678a13.352,13.352,0,0,1,2.1-.15,4.406,4.406,0,0,1,2.954.838A3.237,3.237,0,0,1,427,129.029a3.746,3.746,0,0,1-1.128,2.878,4.833,4.833,0,0,1-3.276.989,14.4,14.4,0,0,1-1.783-.1Zm1.321,6.133a4.934,4.934,0,0,0,.731.032,2.479,2.479,0,0,0,2.738-2.771,2.3,2.3,0,0,0-2.567-2.514,4.234,4.234,0,0,0-.9.075Z" transform="translate(-392.034 -125.41)" fill="#8c8c8c"/>
      <path id="Path_191682" data-name="Path 191682" d="M453.934,137.088a1.421,1.421,0,0,0,1.611,1.353A3.93,3.93,0,0,0,457,138.2l.194.913a4.926,4.926,0,0,1-1.826.322,2.474,2.474,0,0,1-2.7-2.642,2.59,2.59,0,0,1,2.556-2.814,2.274,2.274,0,0,1,2.256,2.545,3.229,3.229,0,0,1-.043.559Zm2.3-.924a1.125,1.125,0,0,0-1.085-1.278,1.292,1.292,0,0,0-1.214,1.278Z" transform="translate(-416.567 -131.922)" fill="#8c8c8c"/>
      <path id="Path_191683" data-name="Path 191683" d="M478.707,138.119a2.941,2.941,0,0,0,1.342.376c.58,0,.838-.236.838-.58s-.215-.537-.859-.763c-1.02-.354-1.45-.913-1.439-1.525a1.75,1.75,0,0,1,1.976-1.643,3.074,3.074,0,0,1,1.385.311l-.258.935a2.344,2.344,0,0,0-1.106-.3c-.472,0-.73.225-.73.548s.247.494.913.73c.945.344,1.385.827,1.4,1.6,0,.945-.741,1.633-2.126,1.633a3.37,3.37,0,0,1-1.59-.366Z" transform="translate(-436.422 -131.922)" fill="#8c8c8c"/>
      <path id="Path_191684" data-name="Path 191684" d="M502.117,125.734a.742.742,0,1,1-.741-.72A.7.7,0,0,1,502.117,125.734Zm-1.407,6.691v-5.231h1.332v5.231Z" transform="translate(-453.507 -125.014)" fill="#8c8c8c"/>
      <path id="Path_191685" data-name="Path 191685" d="M518.219,134.1c-.022.354-.043.784-.043,1.5v2.964a2.52,2.52,0,0,1-2.792,3.007,3.7,3.7,0,0,1-1.826-.419l.29-1a3.163,3.163,0,0,0,1.525.4,1.39,1.39,0,0,0,1.5-1.579v-.451h-.022a1.766,1.766,0,0,1-1.525.773,2.32,2.32,0,0,1-2.223-2.556,2.5,2.5,0,0,1,2.373-2.76,1.647,1.647,0,0,1,1.515.816h.021l.054-.7Zm-1.364,2.094a1.284,1.284,0,0,0-.043-.354,1.1,1.1,0,0,0-1.074-.848c-.741,0-1.289.644-1.289,1.708,0,.892.451,1.611,1.278,1.611a1.128,1.128,0,0,0,1.074-.795,2.273,2.273,0,0,0,.054-.473Z" transform="translate(-463.111 -131.922)" fill="#8c8c8c"/>
      <path id="Path_191686" data-name="Path 191686" d="M542.621,135.659c0-.6-.011-1.106-.043-1.557h1.16l.064.784h.032a1.887,1.887,0,0,1,1.665-.9c.913,0,1.858.591,1.858,2.245v3.1h-1.321v-2.954c0-.752-.279-1.321-1-1.321a1.109,1.109,0,0,0-1.031.773,1.352,1.352,0,0,0-.054.429v3.072h-1.332Z" transform="translate(-485.808 -131.922)" fill="#8c8c8c"/>
    </g>
  </g>
</svg>
