<svg xmlns="http://www.w3.org/2000/svg" xmlns:xlink="http://www.w3.org/1999/xlink" width="45.34" height="58.981" viewBox="0 0 45.34 58.981">
  <defs>
    <linearGradient id="linear-gradient" x1="-0.196" y1="0.119" x2="0.5" y2="1" gradientUnits="objectBoundingBox">
      <stop offset="0" stop-color="#d8b"/>
      <stop offset="0.719" stop-color="#7ae"/>
      <stop offset="1" stop-color="#77c9dd"/>
    </linearGradient>
  </defs>
  <g id="EYS-Kids音楽-v" transform="translate(0 0)">
    <circle id="dot_LL" data-name="dot LL" cx="2.595" cy="2.595" r="2.595" transform="translate(13.418 9.505)" fill="#d8b"/>
    <circle id="dot_L" data-name="dot L" cx="1.483" cy="1.483" r="1.483" transform="translate(11.564 3.574)" fill="#ec8"/>
    <circle id="dot_M" data-name="dot M" cx="1.853" cy="1.853" r="1.853" transform="translate(16.754 4.686)" fill="#e97"/>
    <circle id="dot_S" data-name="dot S" cx="0.741" cy="0.741" r="0.741" transform="translate(13.789 0.609)" fill="#7c8"/>
    <path id="mark-2" d="M33.891,34.367a9.874,9.874,0,0,1-1.885-.281,9.917,9.917,0,0,1-3.412-1.592,9.844,9.844,0,0,1-3.77-10.358A9.874,9.874,0,0,1,27.678,17.3a9.844,9.844,0,0,1,9.1-2.344c.131.033.263.069.394.107l.425,1.166a8.908,8.908,0,1,0,5.329,5.466h0L38.4,9.258a4.857,4.857,0,0,0,.9-.069l4.442,12.2h0a9.819,9.819,0,0,1,.216,5.509A9.883,9.883,0,0,1,41.1,31.742a9.894,9.894,0,0,1-6.708,2.637C34.227,34.38,34.059,34.376,33.891,34.367Zm.187-1.429a8.377,8.377,0,1,1,3.755-16.05l.434,1.194c-.191-.11-.391-.215-.594-.309a7.513,7.513,0,1,0,3.937,4.4h0L36.805,8.966a4.918,4.918,0,0,0,1.02.253l4.607,12.656h0A8.381,8.381,0,0,1,34.509,32.95c-.144,0-.288-.005-.431-.012Zm-6.105-5.99a6.98,6.98,0,0,1,11.418-7.4L34.4,5.855A4.361,4.361,0,0,1,37.01.265h0A4.361,4.361,0,0,1,42.6,2.871h0A4.361,4.361,0,0,1,40,8.461h0a4.359,4.359,0,0,1-4.126-.621l5.218,14.334a6.978,6.978,0,1,1-13.114,4.774Z" transform="translate(-10.474 0)" fill="url(#linear-gradient)"/>
    <path id="ja" d="M7.378,75.109c.194,0,.27.076.27.27v.83H2.277v-.83c0-.194.076-.27.27-.27ZM7.648,77v.951c0,.194-.076.269-.27.269H2.55c-.194,0-.269-.075-.269-.269V77ZM1.382,78.128c0,.647.259.906.905.906H7.625c.647,0,.906-.259.906-.906V75.193c0-.637-.259-.9-.906-.9H2.287c-.646,0-.905.259-.905.9Zm5.283-7.1a12.3,12.3,0,0,1-.517,1.65H3.732c-.14-.571-.336-1.231-.474-1.65ZM5.434,69.675a.426.426,0,0,0-.372-.474.383.383,0,0,0-.1,0,.426.426,0,0,0-.474.372.439.439,0,0,0,0,.1v.539H1.067a.369.369,0,0,0-.41.324.359.359,0,0,0,0,.086.369.369,0,0,0,.324.409.359.359,0,0,0,.086,0h1.24a15.035,15.035,0,0,1,.485,1.65H.413A.365.365,0,0,0,0,73a.335.335,0,0,0,0,.1.361.361,0,0,0,.318.4.347.347,0,0,0,.091,0H9.427a.362.362,0,0,0,.409-.308.373.373,0,0,0,0-.091.365.365,0,0,0-.314-.41.382.382,0,0,0-.1,0H7.109a13.082,13.082,0,0,0,.517-1.65H8.877a.368.368,0,0,0,.41-.324.355.355,0,0,0,0-.085.369.369,0,0,0-.324-.41.36.36,0,0,0-.086,0H5.438Zm10.127,1.552a.194.194,0,0,1,.169-.215.21.21,0,0,1,.046,0h2.07a.194.194,0,0,1,.215.169.21.21,0,0,1,0,.046v.712h-2.5Zm2.5,1.477v.744a.194.194,0,0,1-.169.215.21.21,0,0,1-.046,0h-2.07a.194.194,0,0,1-.215-.169.21.21,0,0,1,0-.046V72.7Zm-.829,1.757h.992a.616.616,0,0,0,.668-.558.582.582,0,0,0,0-.109v-2.9a.616.616,0,0,0-.558-.669.719.719,0,0,0-.111,0H17.159a2.189,2.189,0,0,0,.183-.658.4.4,0,0,0-.425-.368l-.017,0c-.27,0-.378.119-.464.421a5.62,5.62,0,0,1-.2.6h-.82a.615.615,0,0,0-.668.558.6.6,0,0,0,0,.111v2.9a.615.615,0,0,0,.557.669.6.6,0,0,0,.111,0h.958v.7H12.435a.384.384,0,0,0-.422.342.429.429,0,0,0,0,.09.381.381,0,0,0,.336.421.426.426,0,0,0,.085,0h3.138a10.327,10.327,0,0,1-2.706,1.791c-.388.183-.669.259-.839.356a.391.391,0,0,0-.194.345.435.435,0,0,0,.393.473l.028,0a9.255,9.255,0,0,0,4.119-2.577v2.434a.387.387,0,0,0,.336.431.382.382,0,0,0,.1,0,.386.386,0,0,0,.431-.336.382.382,0,0,0,0-.1V76.424A10.039,10.039,0,0,0,21.3,78.948a.457.457,0,0,0,.454-.46v-.025c0-.224-.172-.378-.485-.5A10.45,10.45,0,0,1,18,76.015h3.224a.38.38,0,0,0,.421-.335.355.355,0,0,0,0-.085.384.384,0,0,0-.331-.43.363.363,0,0,0-.09,0H17.235Zm-4.4-4.453a.463.463,0,0,0-.442.464c0,.13.044.237.248.4q.483.375.927.8c.151.172.237.237.388.237a.463.463,0,0,0,.442-.464c0-.194-.076-.291-.3-.507-.237-.247-.938-.927-1.261-.927Zm1.294,2.5a.833.833,0,0,0-.453.224,14.471,14.471,0,0,1-1.262.876c-.27.172-.324.27-.324.431a.437.437,0,0,0,.41.431c.442,0,1.746-1.046,1.822-1.11a.492.492,0,0,0,.224-.41.433.433,0,0,0-.418-.445ZM20.8,69.934a.541.541,0,0,0-.41.223c-.27.291-.528.528-.839.808-.259.215-.336.28-.336.474a.444.444,0,0,0,.442.442c.345,0,1.014-.7,1.337-1.057.162-.183.259-.291.259-.474A.458.458,0,0,0,20.8,69.934Zm.733,3.99c0-.224-.14-.346-.41-.539a5.515,5.515,0,0,0-1.51-.839.472.472,0,0,0-.464.479v.006a.408.408,0,0,0,.259.356,9.784,9.784,0,0,1,1.231.8c.215.172.291.224.464.224a.475.475,0,0,0,.43-.485Zm5.478-4.248a.387.387,0,0,0-.336-.431.378.378,0,0,0-.1,0,.386.386,0,0,0-.431.336.382.382,0,0,0,0,.1v.6H24.739a.361.361,0,0,0-.4.318.378.378,0,0,0,0,.092.358.358,0,0,0,.312.4.369.369,0,0,0,.087,0h1.412v.992H24.2a.369.369,0,0,0-.411.32.354.354,0,0,0,0,.1.365.365,0,0,0,.314.41.382.382,0,0,0,.1,0h2.318a8.023,8.023,0,0,1-1.046.873h-.528c-.215,0-.388.056-.388.356a.309.309,0,0,0,.056.183c-.172.108-.54.248-.69.336a.344.344,0,0,0-.205.323.443.443,0,0,0,.41.474h0a5.855,5.855,0,0,0,1.713-.907H27.23c.087,0,.129.01.129.065a3.578,3.578,0,0,1-.55.571c-.2,0-.507,0-.507.378v.464a17.676,17.676,0,0,1-2.059.151.359.359,0,0,0-.336.378.385.385,0,0,0,.321.439.378.378,0,0,0,.088,0c.172,0,.992-.044,1.984-.162v1.045c0,.248-.119.28-.378.28-.183,0-.259-.011-.442-.011a.369.369,0,0,0-.367.37v.019c0,.5.431.5.852.5.992,0,1.218-.323,1.218-.97V76.726c.431-.056,1.164-.183,1.628-.28.28-.065.345-.194.345-.4a.416.416,0,0,0-.4-.431c-.076,0-1.326.259-1.575.3v-.1c.194-.172.485-.453.874-.83s.517-.559.517-.766c0-.183-.1-.442-.571-.442H26.766a9.472,9.472,0,0,0,.939-.874h1.207a.373.373,0,0,0,.419-.319.368.368,0,0,0,0-.091.377.377,0,0,0-.325-.421.382.382,0,0,0-.1,0h-.474a5.94,5.94,0,0,0,1.143-1.908.466.466,0,0,0-.507-.41.336.336,0,0,0-.313.224c-.129.259-.291.528-.421.755.022-.224-.065-.464-.367-.464h-.959ZM31,71.282a7.669,7.669,0,0,0,.421-1.639c0-.2-.172-.378-.474-.378-.215,0-.345.1-.453.517a11.461,11.461,0,0,1-1.466,3.591c-.14.224-.27.367-.27.517a.447.447,0,0,0,.442.453h.01c.291,0,.4-.151.8-.873a9.7,9.7,0,0,0,.82,2.868A6.146,6.146,0,0,1,28.642,78.2c-.3.14-.366.291-.366.431a.447.447,0,0,0,.43.464h0a5.7,5.7,0,0,0,2.588-1.93c.431.68,1.477,1.866,2.014,1.866a.49.49,0,0,0,.442-.474.5.5,0,0,0-.28-.41,5.086,5.086,0,0,1-1.607-1.734,10.418,10.418,0,0,0,1.2-4.259c.453,0,.723,0,.723-.442a.387.387,0,0,0-.336-.431.383.383,0,0,0-.1,0Zm-3.052-.2a.335.335,0,0,0,.224-.076,9.044,9.044,0,0,1-.851,1.067h-.31v-.992ZM32.2,72.154a11.739,11.739,0,0,1-.808,3.31,10.645,10.645,0,0,1-.679-3.31Zm8.724-2.415a.392.392,0,0,0-.334-.442.428.428,0,0,0-.108,0,.392.392,0,0,0-.442.334.381.381,0,0,0,0,.108V70.4H36.783a.69.69,0,0,0-.786.578.7.7,0,0,0,0,.2v1.369a.386.386,0,0,0,.336.431.383.383,0,0,0,.1,0,.391.391,0,0,0,.441-.335.387.387,0,0,0,0-.1V71.465c0-.129.043-.183.183-.183H44.01c.129,0,.183.056.183.183V72.5a.387.387,0,0,0,.336.431.445.445,0,0,0,.1,0,.387.387,0,0,0,.431-.336.378.378,0,0,0,0-.1V71.174a.69.69,0,0,0-.589-.778.7.7,0,0,0-.2,0H40.924Zm2.512,3.181a.38.38,0,0,0,.421-.335.355.355,0,0,0,0-.085.38.38,0,0,0-.335-.421.355.355,0,0,0-.085,0H37.582a.38.38,0,0,0-.421.335.355.355,0,0,0,0,.085.38.38,0,0,0,.335.421.356.356,0,0,0,.085,0H38.9a9.741,9.741,0,0,1-1.21,1.369c-.583.032-.8.065-.8.5a.406.406,0,0,0,.419.391l.034,0c.119,0,1.423-.043,2.7-.129V76H37.184a.38.38,0,0,0-.421.335.355.355,0,0,0,0,.085.38.38,0,0,0,.335.421.354.354,0,0,0,.085,0h2.854v1.108H36.158a.383.383,0,0,0-.422.341.364.364,0,0,0,0,.09.384.384,0,0,0,.331.43.43.43,0,0,0,.09,0h8.747a.387.387,0,0,0,.431-.336.378.378,0,0,0,0-.1A.386.386,0,0,0,45,77.945a.382.382,0,0,0-.1,0H40.914V76.834h3.021a.38.38,0,0,0,.421-.335.355.355,0,0,0,0-.085.38.38,0,0,0-.335-.421.355.355,0,0,0-.085,0H40.914v-1c.744-.056,1.445-.108,2.1-.194.129.119.28.28.345.346.162.183.259.248.431.248a.452.452,0,0,0,.431-.453c0-.194-.065-.269-.259-.485-.336-.367-.712-.755-1.1-1.154-.183-.172-.27-.237-.464-.237a.447.447,0,0,0-.431.431c0,.14.043.183.409.571-1.1.108-2.879.194-3.537.2a14.6,14.6,0,0,0,1.1-1.348Z" transform="translate(0 -29.548)" fill="#666"/>
    <path id="K" d="M18.383,96.151a.3.3,0,0,0,.32-.278v-.016a.291.291,0,0,0-.292-.289H18.4c-.081-.006-.381-.011-.692-.011s-.616.005-.714.011a.677.677,0,0,0-.735.686c-.011.344-.017,1.084-.017,1.749,0,.441,0,.845.011,1.073.022.48.332.66.834.7.07.006.387.011.7.011s.632-.005.7-.011a.318.318,0,0,0,.343-.291V99.47a.276.276,0,0,0-.273-.28h-.049c-.1.005-.452.011-.774.011-.768,0-.855-.011-.883-.262-.01-.092-.017-.218-.017-1.029,0-.115.054-.12.73-.12.207,0,.414.006.55.017h.028a.289.289,0,0,0,.291-.286.173.173,0,0,0,0-.025.274.274,0,0,0-.257-.29.257.257,0,0,0-.047,0c-.1.006-.359.006-.61.006-.67,0-.676,0-.676-.109.005-.316,0-.583.01-.714.017-.234.131-.245.676-.245C17.9,96.145,18.383,96.151,18.383,96.151Z" transform="translate(-6.935 -40.804)" fill="#77c9dd"/>
    <path id="Y" d="M23.628,99.37a.316.316,0,0,0,.311.322h.032A.31.31,0,0,0,24.3,99.4v-.017c0-.441-.005-.991-.005-1.319a.276.276,0,0,1,.065-.211c.354-.5.964-1.406,1.21-1.8a.3.3,0,0,0,.049-.158.376.376,0,0,0-.365-.338.267.267,0,0,0-.245.152,15.546,15.546,0,0,1-.986,1.541.072.072,0,0,1-.065.038.081.081,0,0,1-.065-.044c-.382-.567-.763-1.133-.991-1.531a.3.3,0,0,0-.261-.163.35.35,0,0,0-.343.332.346.346,0,0,0,.065.191c.261.393.811,1.2,1.209,1.8a.218.218,0,0,1,.055.18Z" transform="translate(-9.522 -40.803)" fill="#7ae"/>
    <path id="S" d="M32.362,98.6a1.292,1.292,0,0,0-.774-1.116c-.251-.136-.626-.311-.85-.43a.561.561,0,0,1-.343-.48.5.5,0,0,1,.562-.463.794.794,0,0,1,.625.251.347.347,0,0,0,.256.131.318.318,0,0,0,.3-.316c0-.256-.43-.615-1.182-.615a1.042,1.042,0,0,0-.479,2.016c.288.131.583.294.822.43a.719.719,0,0,1,.416.609c0,.174-.131.583-.73.583a.936.936,0,0,1-.795-.365.293.293,0,0,0-.24-.136.319.319,0,0,0-.316.311c0,.267.458.774,1.345.774A1.261,1.261,0,0,0,32.362,98.6Z" transform="translate(-12.656 -40.804)" fill="#78c"/>
    <path id="_-" data-name=" -" d="M37.971,99.322a.282.282,0,0,0,.278-.285v-.019a.277.277,0,0,0-.251-.3h-.033c-.261.006-.556.011-.839.011-.229,0-.452-.005-.642-.011h-.011a.274.274,0,0,0-.257.289v.011a.277.277,0,0,0,.249.3l.029,0c.223-.011.387-.017.55-.017.24,0,.48.011.921.017Z" transform="translate(-15.464 -42.153)" fill="#a9c"/>
    <path id="K-2" d="M42.036,99.435a.283.283,0,0,0,.3.263l.015,0c.158,0,.311-.081.311-.256v-.011c-.011-.25-.011-.491-.011-.708,0-.354.005-.642.011-.784,0-.081.06-.087.1-.087s.076-.005.114-.005a.27.27,0,0,1,.229.109c.4.463,1.318,1.449,1.5,1.64a.34.34,0,0,0,.245.109.38.38,0,0,0,.365-.36.332.332,0,0,0-.093-.223c-.093-.1-1.089-1.051-1.553-1.525a.1.1,0,0,1,0-.169c.382-.4,1.046-1.067,1.285-1.361a.269.269,0,0,0,.06-.169.365.365,0,0,0-.354-.332.269.269,0,0,0-.223.115c-.223.294-.855.991-1.247,1.416a.377.377,0,0,1-.294.159c-.131,0-.142-.06-.142-.109-.006-.136-.011-.376-.011-.67,0-.191.005-.4.011-.621V95.84a.292.292,0,0,0-.3-.284h-.016a.281.281,0,0,0-.309.252.209.209,0,0,0,0,.042c.01.414.017.991.017,1.6,0,.681-.005,1.4-.017,1.977Z" transform="translate(-17.949 -40.803)" fill="#d8b"/>
    <path id="i" d="M49.879,96.313a.38.38,0,0,0,.381-.379v-.008a.384.384,0,0,0-.381-.371.37.37,0,0,0-.381.358v.013a.361.361,0,0,0,.334.387A.322.322,0,0,0,49.879,96.313Zm.295,3.148v-.01c-.006-.3-.011-.686-.011-1.062,0-.457.005-.888.011-1.111v-.011A.268.268,0,0,0,49.9,97h-.016a.268.268,0,0,0-.293.239.286.286,0,0,0,0,.038c.006.147.006.366.006.61,0,.5-.006,1.116-.006,1.569a.271.271,0,0,0,.263.278h.026a.276.276,0,0,0,.294-.256C50.173,99.476,50.174,99.468,50.174,99.461Z" transform="translate(-21.136 -40.802)" fill="#e97"/>
    <path id="d" d="M55.718,99.386a.29.29,0,0,0-.038-.147c-.158-.3-.163-.321-.163-2.342,0-.457.006-.844.017-1.03V95.84a.27.27,0,0,0-.257-.283H55.25a.266.266,0,0,0-.278.256.212.212,0,0,0,0,.027c.006.229.017.784.017,1.416,0,.017-.006.022-.017.022a.033.033,0,0,1-.022-.006,1.124,1.124,0,0,0-.763-.294,1.308,1.308,0,0,0-1.325,1.293c0,.025,0,.05,0,.074a1.293,1.293,0,0,0,1.324,1.367,1.159,1.159,0,0,0,.861-.381c.011-.011.022-.022.028-.022s.017.011.022.033c.076.3.179.343.3.343A.313.313,0,0,0,55.718,99.386Zm-1.52-.18a.87.87,0,1,1,.784-.861A.789.789,0,0,1,54.2,99.206Z" transform="translate(-22.573 -40.803)" fill="#ec8"/>
    <path id="s-2" d="M61.472,99.9a.868.868,0,0,0-.534-.746c-.163-.087-.409-.2-.55-.267a.281.281,0,0,1-.18-.24c0-.12.1-.223.289-.223a.449.449,0,0,1,.343.131.312.312,0,0,0,.223.109.276.276,0,0,0,.272-.272c0-.213-.338-.458-.839-.458a.764.764,0,0,0-.829.73.742.742,0,0,0,.49.681c.637.289.758.393.758.567,0,.125-.115.278-.4.278a.537.537,0,0,1-.441-.191.268.268,0,0,0-.218-.115.276.276,0,0,0-.277.261c0,.18.277.556.942.556A.886.886,0,0,0,61.472,99.9Z" transform="translate(-25.44 -41.818)" fill="#7c8"/>
  </g>
</svg>
