<svg xmlns="http://www.w3.org/2000/svg" width="47.251" height="46.667" viewBox="0 0 47.251 46.667">
  <g id="logo" transform="translate(0 0)">
    <path id="Path_4271" data-name="Path 4271" d="M38.382,35.843a2.4,2.4,0,0,1-2.28-1.278A3.146,3.146,0,0,0,31.935,33h0a3.146,3.146,0,0,0-1.561,4.166l3.291,7.239a.487.487,0,0,0,.649.242l4.326-1.968.953-.435,2.375-1.076a.487.487,0,0,0,.242-.649l-1.549-3.4A2.41,2.41,0,0,0,38.382,35.843Zm-3.537,7.937-.752.341a.078.078,0,0,1-.107-.041l-1.315-2.888.682-.308.887,1.951a.083.083,0,0,0,.107.041l.144-.066.39.859A.078.078,0,0,1,34.844,43.781Zm1.146-.522-.752.341a.078.078,0,0,1-.107-.041l-.39-.859.144-.066a.083.083,0,0,0,.041-.107l-.887-1.951.464-.21.887,1.951a.083.083,0,0,0,.107.041l.144-.066.39.859A.082.082,0,0,1,35.99,43.259Zm1.146-.518-.752.341a.078.078,0,0,1-.107-.041l-.39-.859.144-.066a.083.083,0,0,0,.041-.107l-.887-1.951.464-.21.887,1.951a.083.083,0,0,0,.107.041l.144-.066.39.859A.084.084,0,0,1,37.137,42.741Zm1.142-.522-.752.341a.078.078,0,0,1-.107-.041l-.39-.859.144-.066a.083.083,0,0,0,.041-.107l-.887-1.951.464-.21.887,1.951a.083.083,0,0,0,.107.041l.144-.066.39.859A.079.079,0,0,1,38.279,42.219Zm1.146-.522-.752.341A.078.078,0,0,1,38.566,42l-.39-.859.144-.066a.083.083,0,0,0,.041-.107l-.887-1.951.464-.21.887,1.951a.083.083,0,0,0,.107.041l.144-.066.39.859A.082.082,0,0,1,39.425,41.7Zm1.142-.522-.752.341a.078.078,0,0,1-.107-.041l-.39-.859.144-.066a.083.083,0,0,0,.041-.107l-.887-1.951.464-.21.887,1.951a.083.083,0,0,0,.107.041l.144-.066.39.859A.078.078,0,0,1,40.567,41.176Zm1.187-.629a.078.078,0,0,1-.041.107L40.962,41a.078.078,0,0,1-.107-.041l-.39-.859.144-.066a.083.083,0,0,0,.041-.107l-.887-1.951.682-.308Z" transform="translate(-17.729 -19.279)" fill="#6452a0"/>
    <circle id="Ellipse_114" data-name="Ellipse 114" cx="1.775" cy="1.775" r="1.775" transform="translate(25.698 23.676)" fill="#eedaa5"/>
    <circle id="Ellipse_115" data-name="Ellipse 115" cx="0.937" cy="0.937" r="0.937" transform="translate(29.342 26.027)" fill="#deb125"/>
    <circle id="Ellipse_116" data-name="Ellipse 116" cx="1.422" cy="1.422" r="1.422" transform="translate(28.936 21.593)" fill="#cb688e"/>
    <circle id="Ellipse_117" data-name="Ellipse 117" cx="2.506" cy="2.506" r="2.506" transform="translate(7.042 12.049)" fill="#f0cbd6"/>
    <circle id="Ellipse_118" data-name="Ellipse 118" cx="3.09" cy="3.09" r="3.09" transform="translate(2.818 17.966)" fill="#f2e293"/>
    <circle id="Ellipse_119" data-name="Ellipse 119" cx="2.523" cy="2.523" r="2.523" transform="translate(31.552 23.29)" fill="#f0cbd6"/>
    <circle id="Ellipse_120" data-name="Ellipse 120" cx="1.615" cy="1.615" r="1.615" transform="translate(40.957 20.529)" fill="#e9e491"/>
    <circle id="Ellipse_121" data-name="Ellipse 121" cx="1.635" cy="1.635" r="1.635" transform="translate(3.205 26.182)" fill="#f0cbd6"/>
    <circle id="Ellipse_122" data-name="Ellipse 122" cx="2.079" cy="2.079" r="2.079" transform="translate(11.002 23.803)" fill="#e56c74"/>
    <circle id="Ellipse_123" data-name="Ellipse 123" cx="1.993" cy="1.993" r="1.993" transform="translate(12.046 8.755)" fill="#deb125"/>
    <circle id="Ellipse_124" data-name="Ellipse 124" cx="1.845" cy="1.845" r="1.845" transform="translate(26.668 7.933)" fill="#e56c74"/>
    <circle id="Ellipse_125" data-name="Ellipse 125" cx="1.578" cy="1.578" r="1.578" transform="translate(0 22.337)" fill="#cb688e"/>
    <circle id="Ellipse_126" data-name="Ellipse 126" cx="2.247" cy="2.247" r="2.247" transform="translate(0.542 12.924)" fill="#da3915"/>
    <path id="Path_4272" data-name="Path 4272" d="M56.45,33.66a18.9,18.9,0,0,1,4.618-2.108,14.446,14.446,0,0,1,2.6-.563,9.84,9.84,0,0,1,3.55.131,8.734,8.734,0,0,1,3.02,1.29c1.385.892,1.713,1.627,2.8,2.325a5.839,5.839,0,0,0,3.053,1.023,4.36,4.36,0,0,0,4.01-2.075,3.026,3.026,0,0,0,.411-1.59,3.714,3.714,0,0,0-1.233-2.662A8.279,8.279,0,0,0,76.7,27.809,14.292,14.292,0,0,0,71.4,26.7a19.623,19.623,0,0,0-9.955,3.04A30.612,30.612,0,0,0,56.45,33.66Z" transform="translate(-33.258 -15.731)" fill="#f0844a"/>
    <path id="Path_4273" data-name="Path 4273" d="M62.3,44.665a11.781,11.781,0,0,1,4.174-1.746,7.344,7.344,0,0,1,2.329-.074,6.538,6.538,0,0,1,1.306.325,4.371,4.371,0,0,1,2.621,1.951,1.759,1.759,0,0,1-.193,1.689,1.328,1.328,0,0,1-.965.67,2.031,2.031,0,0,1-1.286-.444,17.422,17.422,0,0,1-1.372-1.167,12.619,12.619,0,0,0-1.45-1.154,2.957,2.957,0,0,0-.85-.329,7.332,7.332,0,0,0-2.145-.181A7.254,7.254,0,0,0,62.3,44.665Z" transform="translate(-36.705 -25.208)" fill="#f0844a"/>
    <path id="Path_4274" data-name="Path 4274" d="M33.357,15.551A20.766,20.766,0,0,0,33.6,7.433,10.472,10.472,0,0,0,31.874,3.3,8.148,8.148,0,0,0,29.117.9,6.424,6.424,0,0,0,25.929,0a2.355,2.355,0,0,0-1.29.452A3.212,3.212,0,0,0,23.46,3.111a4.369,4.369,0,0,0,.8,2.408,2.278,2.278,0,0,0,1.044.838,23.19,23.19,0,0,1,2.547.9A10.7,10.7,0,0,1,30.4,8.813a7.567,7.567,0,0,1,1.319,1.45,8.282,8.282,0,0,1,.99,1.824A10.921,10.921,0,0,1,33.357,15.551Z" transform="translate(-13.822 -0.001)" fill="#f0844a"/>
    <g id="Group_299" data-name="Group 299" transform="translate(21.083 2.98)">
      <g id="Group_298" data-name="Group 298">
        <path id="Path_4275" data-name="Path 4275" d="M54.151,13.614a2.045,2.045,0,0,1,.275-.058,1.619,1.619,0,0,1,1.75,1.52,1.827,1.827,0,0,1-.916,1.8l.472,1.405a2.275,2.275,0,0,1,.066.325,1.232,1.232,0,0,1-1.044,1.43,1.21,1.21,0,0,1-1.454-.809.839.839,0,0,1,.542-1,.705.705,0,0,1,.822.588.657.657,0,0,1-.637.768c.053.238.485.275.678.23a1.032,1.032,0,0,0,.859-1.187,2.237,2.237,0,0,0-.123-.509L55.051,17a2.286,2.286,0,0,1-.649.177A2.455,2.455,0,0,1,51.776,15.1c-.288-1.372.694-2.547,1.442-3.537a6.585,6.585,0,0,1-.411-1.549c-.082-.645.041-2,.686-2.342.275-.152,1,1.208,1.089,2a3.883,3.883,0,0,1-.822,2.786Zm.07,2.765a1.382,1.382,0,0,1-1.085-1.187,1.585,1.585,0,0,1,.8-1.491l-.353-1.044a3.711,3.711,0,0,0-1.257,2.769,1.881,1.881,0,0,0,2.646,1.348l-.776-2.3a1.061,1.061,0,0,0-.6,1.068.855.855,0,0,0,.661.694m-.045-7.124a.426.426,0,0,0-.448-.4c-.579.2-.661,1.249-.608,1.763a3.669,3.669,0,0,0,.238.879A2.939,2.939,0,0,0,54.209,9.107Zm.982,7.564a1.321,1.321,0,0,0,.542-1.29,1.165,1.165,0,0,0-1.311-.97Z" transform="translate(-51.557 -7.495)" fill="#008ccf"/>
        <path id="Path_4276" data-name="Path 4276" d="M54.408,19.973a1.51,1.51,0,0,1-.957-.205,1.2,1.2,0,0,1-.555-.748,1,1,0,0,1,.657-1.2.777.777,0,0,1,.624.115.908.908,0,0,1,.394.6.778.778,0,0,1-.2.69.892.892,0,0,1-.238.181.725.725,0,0,0,.283,0,.872.872,0,0,0,.735-1.015,2.22,2.22,0,0,0-.115-.472v0L54.7,16.97a2.69,2.69,0,0,1-.53.127,2.374,2.374,0,0,1-1.787-.514,2.876,2.876,0,0,1-.727-3.591,9.474,9.474,0,0,1,1.035-1.574c.033-.041.062-.082.094-.123a6.6,6.6,0,0,1-.386-1.5,4.3,4.3,0,0,1,.074-1.343,1.7,1.7,0,0,1,.7-1.163.283.283,0,0,1,.271.008,2.226,2.226,0,0,1,.645.871A4.06,4.06,0,0,1,54.5,9.406a4.044,4.044,0,0,1-.8,2.835l.32.941a.927.927,0,0,1,.148-.025,1.611,1.611,0,0,1,1.2.32,1.983,1.983,0,0,1,.735,1.339,1.947,1.947,0,0,1-.883,1.878l.435,1.294a1.843,1.843,0,0,1,.07.353,1.385,1.385,0,0,1-.238,1.035,1.6,1.6,0,0,1-.928.571Zm-.723-1.845a.148.148,0,0,0-.045.008.675.675,0,0,0-.423.809.878.878,0,0,0,.411.546c.029.016.058.033.09.049a.349.349,0,0,1-.086-.168l-.049-.218.222.025a.5.5,0,0,0,.345-.168.453.453,0,0,0,.115-.415.569.569,0,0,0-.255-.386A.461.461,0,0,0,53.685,18.129Zm.3-1.947a1.18,1.18,0,0,1-.846-.345,1.526,1.526,0,0,1-.4-.863,1.748,1.748,0,0,1,.768-1.582l-.222-.653a3.271,3.271,0,0,0-1.035,2.432,1.51,1.51,0,0,0,.608,1.052,1.849,1.849,0,0,0,1.676.222l-.666-1.976a.9.9,0,0,0-.357.805v0a.7.7,0,0,0,.546.563m.345-1.52.624,1.832a1.16,1.16,0,0,0,.308-.982,1.09,1.09,0,0,0-.407-.661A.962.962,0,0,0,54.4,14.32Zm-.226-.312a1.328,1.328,0,0,1,1.475,1.1v0a1.419,1.419,0,0,1-.053.694,1.512,1.512,0,0,0,.177-.949,1.691,1.691,0,0,0-.612-1.126,1.253,1.253,0,0,0-.945-.259H54.2a1.7,1.7,0,0,0-.251.053l-.094.029-.086.045a1.426,1.426,0,0,0-.719,1.327h0a1.221,1.221,0,0,0,.148.452c0-.021-.008-.045-.012-.066a1.223,1.223,0,0,1,.7-1.237l.078-.037,0-.008.033,0L54.05,14l0,.016.1-.012C54.161,14.012,54.169,14.008,54.173,14.008ZM53.15,11.341l0,.008-.053.07-.148.2c-.711.937-1.516,2-1.265,3.213a2.688,2.688,0,0,0,.415.982,1.942,1.942,0,0,1-.177-.6,3.823,3.823,0,0,1,1.3-2.9l.111-.127h0l.053-.07a3.7,3.7,0,0,0,.789-2.67,1.313,1.313,0,0,0-.029-.168,3.371,3.371,0,0,1-.883,1.935Zm-.082-1.134a3.037,3.037,0,0,0,.136.575,3.45,3.45,0,0,0,.444-.768,2.1,2.1,0,0,0,.16-1.122h0c-.016-.1-.09-.283-.255-.271a.889.889,0,0,0-.423.645A2.963,2.963,0,0,0,53.068,10.208Zm.23-2.621a1.411,1.411,0,0,0-.509.937,3.941,3.941,0,0,0-.07,1.233c0,.037.008.074.016.115.012-.555.16-1.36.731-1.553l.016,0,.016,0a.51.51,0,0,1,.337.07c-.021-.045-.041-.082-.062-.119A1.738,1.738,0,0,0,53.3,7.586Z" transform="translate(-51.317 -7.256)" fill="#008ccf"/>
      </g>
    </g>
    <path id="Path_4277" data-name="Path 4277" d="M93.148,54.334a16.242,16.242,0,0,1,2.954-.086l-1.216-1.224-3.369-3.389c-.21-.185.39-.214.731-.928a1.138,1.138,0,1,0-1.935-1.06,1.714,1.714,0,0,0,.021,1.82l0,0,3.32,3.344c-1.647.953-2.613.033-3.324-.8A2.531,2.531,0,0,0,93.148,54.334Z" transform="translate(-53.063 -27.589)" fill="#00976d"/>
    <g id="Group_300" data-name="Group 300" transform="translate(9.709 19.539)">
      <path id="Path_4278" data-name="Path 4278" d="M23.861,48.382l.127.53.37,1.549a.7.7,0,0,0-.357.058.462.462,0,1,0,.37.818.555.555,0,0,0,.362-.567h0l-.357-1.5,1.709-.612.255,1.06a.7.7,0,0,0-.357.058.462.462,0,1,0,.37.818.555.555,0,0,0,.362-.567h0l-.46-1.923-.131-.546Zm2.173.066-1.709.612-.058-.234,1.7-.637Z" transform="translate(-23.632 -47.56)" fill="#00a8b5"/>
    </g>
    <g id="Group_301" data-name="Group 301" transform="translate(31.429 5.044)">
      <path id="Path_4279" data-name="Path 4279" d="M80.855,18.011l.3-.961.838-2.675a1.213,1.213,0,0,0,.62.242.963.963,0,0,0,1.142-.7c.053-.452-.374-.871-.953-.937a1.014,1.014,0,0,0-1.105.555h0l-1.064,3.389-3.3-.6.83-2.642a1.213,1.213,0,0,0,.62.242.963.963,0,0,0,1.142-.7c.053-.452-.374-.871-.953-.937a1.017,1.017,0,0,0-1.105.551h0l-1.052,3.352-.308.986Z" transform="translate(-76.5 -12.279)" fill="#00a8b5"/>
    </g>
    <g id="Group_302" data-name="Group 302" transform="translate(6.462 24.95)">
      <path id="Path_4280" data-name="Path 4280" d="M15.73,61.05,17.846,63.1a1.068,1.068,0,0,0-.423.382.822.822,0,0,0,.1,1.142.82.82,0,0,0,1.081-.37.864.864,0,0,0,0-1.056h0L16.046,60.73Z" transform="translate(-15.73 -60.73)" fill="#3a89b0"/>
    </g>
    <path id="Path_4281" data-name="Path 4281" d="M51.62,53.226a4.251,4.251,0,0,0-1.2,2.329c.32-.452,1.59-.283,2.329-.85a1.887,1.887,0,0,0,.629-.809l1.134-.8,3.628-3.057a.5.5,0,0,0-.6-.789l-3.907,2.7-1.068.883A1.913,1.913,0,0,0,51.62,53.226Zm1.627.37-.423-.555.879-.727.477.629Zm-.97,1.015.111-.263a.115.115,0,0,0-.119-.156l-.263.033a.113.113,0,0,1-.119-.156l.1-.247a.115.115,0,0,0-.119-.156l-.3.037a1.8,1.8,0,0,1,.242-.226,1.611,1.611,0,0,1,.7-.316l.53.694a1.556,1.556,0,0,1-.489.588A1.3,1.3,0,0,1,52.277,54.611Z" transform="translate(-29.705 -28.966)" fill="#00a3a8"/>
    <path id="Path_4282" data-name="Path 4282" d="M47.47,92.45l1.29.945a10.82,10.82,0,0,1-2.74,3.624c-2.009,1.8-5.575,4.117-12.071,4.117a23.039,23.039,0,0,1-5.522-.555A14.846,14.846,0,0,1,21.5,97.039a10.564,10.564,0,0,1-1.684-1.919,5.719,5.719,0,0,1-.551-.97l1.039-.744a18.327,18.327,0,0,0,5.008,3.809,18.9,18.9,0,0,0,8.661,2.1,16.915,16.915,0,0,0,8.792-2.691A18.4,18.4,0,0,0,47.47,92.45Z" transform="translate(-11.353 -54.468)" fill="#727171"/>
    <circle id="Ellipse_127" data-name="Ellipse 127" cx="2.001" cy="2.001" r="2.001" transform="translate(14.885 31.351)" fill="#727171"/>
    <circle id="Ellipse_128" data-name="Ellipse 128" cx="2.001" cy="2.001" r="2.001" transform="translate(24.995 30.903)" fill="#727171"/>
    <circle id="Ellipse_129" data-name="Ellipse 129" cx="0.933" cy="0.933" r="0.933" transform="translate(18.011 25.205)" fill="#f0cbd6"/>
  </g>
</svg>
