<svg xmlns="http://www.w3.org/2000/svg" width="189.57" height="15" viewBox="0 0 189.57 15">
  <path id="logo_EYS-STYLE" d="M-10895.417-203.651l1.188-1.274a10.224,10.224,0,0,0,7.177,2.607c3.421,0,5.42-1.072,5.42-2.83,0-1.718-2.082-2.143-5.905-2.466-3.778-.323-7.4-1.151-7.4-3.941,0-2.669,3.354-4.186,7.135-4.186a10.872,10.872,0,0,1,7.237,2.528l-1.336,1.131a8.285,8.285,0,0,0-5.819-2.082c-2.528-.02-5.479.687-5.479,2.548,0,1.759,2.67,2.123,6,2.384,4.307.344,7.3,1.174,7.3,3.963,0,2.607-2.648,4.528-7.257,4.528A12.425,12.425,0,0,1-10895.417-203.651Zm-39.758,0,1.188-1.274a10.227,10.227,0,0,0,7.177,2.607c3.414,0,5.42-1.072,5.42-2.83,0-1.718-2.08-2.143-5.9-2.466-3.779-.323-7.4-1.151-7.4-3.941,0-2.669,3.355-4.186,7.135-4.186a10.865,10.865,0,0,1,7.237,2.528l-1.334,1.131a8.3,8.3,0,0,0-5.823-2.082c-2.526-.02-5.479.687-5.479,2.548,0,1.759,2.672,2.123,6,2.384,4.307.344,7.3,1.174,7.3,3.963,0,2.607-2.649,4.528-7.263,4.528A12.425,12.425,0,0,1-10935.175-203.651Zm130.054,2.736v-14.151h13.484v1.577h-11.786v4.589h9.987v1.577h-9.987v4.832h11.991v1.577Zm-20.216,0v-14.151h1.7v12.575h10.836v1.577Zm-16.468,0v-4.953l-7.119-9.2h2.042l5.947,7.663,5.9-7.663h2.024l-7.1,9.2v4.953Zm-23.358,0V-213.53h-6.671v-1.536h15.061v1.536h-6.693v12.615Zm-87.158,0v-4.953l-7.115-9.2h2.04l5.946,7.663,5.9-7.663h2.022l-7.1,9.2v4.953Zm-28.681,0v-14.151h13.483v1.577h-11.785v4.589h9.985v1.577h-9.985v4.832h11.99v1.577Zm69.412-6.63V-209h8.629v1.456Z" transform="translate(10981.002 215.74)" fill="#333"/>
</svg>
