<svg xmlns="http://www.w3.org/2000/svg" width="52.207" height="41" viewBox="0 0 52.207 41">
  <path id="logo_EYS" d="M-10897.566,226.968a1.007,1.007,0,0,1-.316-.838v-2.516h-.447v-.269h.1a1.176,1.176,0,0,0,.923-.533,1.727,1.727,0,0,0,.425-1.111v-.107h.232v1.75h.787v.269h-.787v2.7a.987.987,0,0,0,.048.322.2.2,0,0,0,.217.133.348.348,0,0,0,.276-.116,2.341,2.341,0,0,0,.173-.249l.193.133a2.21,2.21,0,0,1-.39.463,1.041,1.041,0,0,1-.735.227A1.067,1.067,0,0,1-10897.566,226.968Zm-4.785.174v-.266h.529v-3.261h-.529v-.269h1.051a1.878,1.878,0,0,0,.42-.036.651.651,0,0,0,.306-.189v.707a2.779,2.779,0,0,1,.361-.4.849.849,0,0,1,.6-.2.736.736,0,0,1,.518.186.71.71,0,0,1,.2.521.711.711,0,0,1-.191.489.586.586,0,0,1-.451.206.637.637,0,0,1-.458-.179.568.568,0,0,1-.2-.428.838.838,0,0,1,.021-.2,1.272,1.272,0,0,1,.037-.128,1.891,1.891,0,0,0-.285.334,1.121,1.121,0,0,0-.15.63v2.218h.669v.266Zm-13.114-.063v-.467h2.942l-2.315-7.15h-7.235l-1.521,4.29c-.105.3-.2.613-.285.939a3.729,3.729,0,0,0-.125.9.825.825,0,0,0,.41.8,3.913,3.913,0,0,0,1.639.223h.9v.467h-8.207v-.467h1.137a2.35,2.35,0,0,0,1.857-.755,6.394,6.394,0,0,0,1.167-2.022l8.5-23.865h.942l10.13,26.642h2.656v.467Zm-6.122-8.966h6.313l-3.008-9.288Zm-8.951-3.528,1.8-19.9-13.98,19.9h-1.144l2.411-26.848h-3.391l.328-.513h12.038l-.332.513h-2.571l-1.427,16.372,8.279-11.859.437-4.513h-2.612l.323-.513h11.558l-.334.513h-2.9l-1.452,16.37,9.044-12.777a9.466,9.466,0,0,0,.791-1.346,2.838,2.838,0,0,0,.306-1.225.914.914,0,0,0-.321-.777,1.271,1.271,0,0,0-.775-.245h-1.56l.371-.513h8.284l-.331.513h-1.351a2.344,2.344,0,0,0-1.815.736,28.988,28.988,0,0,0-1.942,2.491l-16.551,23.621Zm21.783-2.249a5.981,5.981,0,0,1-2.049-4.779,10.776,10.776,0,0,1,3.561-7.724,10.789,10.789,0,0,1,7.727-3.557,6.858,6.858,0,0,1,3.8,1.085,3.5,3.5,0,0,1,1.674,3.126,4.646,4.646,0,0,1-2.452,4.126,11.239,11.239,0,0,1-6.007,1.513h-1.673a7.445,7.445,0,0,0-.819-.165c-.166.683-.326,1.356-.492,2.024a7.859,7.859,0,0,0-.244,1.859q0,2.942,3.023,2.942a5.766,5.766,0,0,0,3.822-1.247,20.24,20.24,0,0,0,2.556-2.513l.9.695a17.764,17.764,0,0,1-2.854,2.922,7.676,7.676,0,0,1-5,1.45A8.107,8.107,0,0,1-10908.756,212.336Zm6.6-13.934a10.475,10.475,0,0,0-1.227,2.269c-.315.8-.607,1.668-.882,2.593l-.408,1.554c.408.056.768.1,1.065.143a6.021,6.021,0,0,0,.817.061,3.637,3.637,0,0,0,3.472-2.37,11.167,11.167,0,0,0,.735-1.9,6.426,6.426,0,0,0,.332-1.859,1.367,1.367,0,0,0-.54-1.165,1.891,1.891,0,0,0-1.144-.387A2.553,2.553,0,0,0-10902.155,198.4Z" transform="translate(10945.753 -186.724)" fill="#272324" stroke="rgba(0,0,0,0)" stroke-width="1"/>
</svg>
