<svg xmlns="http://www.w3.org/2000/svg" xmlns:xlink="http://www.w3.org/1999/xlink" width="120" height="26.02" viewBox="0 0 120 26.02">
  <defs>
    <linearGradient id="linear-gradient" y1="0.5" x2="1" y2="0.5" gradientUnits="objectBoundingBox">
      <stop offset="0" stop-color="#e098c1"/>
      <stop offset="1" stop-color="#5185c6"/>
    </linearGradient>
  </defs>
  <g id="logo_InspiartZ" transform="translate(-0.002 0.002)">
    <path id="txt" d="M8944.523,22101.221l-.025-13.57h1.93v.629a4.49,4.49,0,0,1,2.6-.891,5.324,5.324,0,0,1,0,10.617,4.419,4.419,0,0,1-2.578-.863v4.078Zm1.93-10.539v4.039a3.654,3.654,0,0,0,2.578,1.5c1.73,0,2.988-1.484,2.988-3.52,0-2.059-1.258-3.543-2.988-3.543A3.637,3.637,0,0,0,8946.453,22090.682Zm35.707,3.574v-4.824h-1.814v-1.781h1.814v-2.605h1.93v2.605h2.771v1.781h-2.771v4.824c0,1.141.6,1.969,1.426,1.969a1.9,1.9,0,0,0,1.328-.676l.225-.289,1.412.992-.248.34a3.652,3.652,0,0,1-2.717,1.414A3.451,3.451,0,0,1,8982.16,22094.256Zm-21.332.176c0-2.145,1.611-3.574,4.012-3.574a7.641,7.641,0,0,1,2.566.492,2.1,2.1,0,0,0-2.236-2.187,2.864,2.864,0,0,0-2.062,1.02l-.156.207-1.42-.992.176-.246a4.563,4.563,0,0,1,3.463-1.762,4,4,0,0,1,4.178,4.352v6h-1.93a5.089,5.089,0,0,0,0-.629,4.041,4.041,0,0,1-2.578.891C8962.439,22098.006,8960.828,22096.572,8960.828,22094.432Zm1.93,0c0,1.137.758,1.793,2.082,1.793a3.672,3.672,0,0,0,2.578-1.5v-1.406a6.307,6.307,0,0,0-2.578-.676C8963.516,22092.639,8962.758,22093.287,8962.758,22094.432Zm-28.516,1.227-.168-.3,1.418-1,.234.4a3.184,3.184,0,0,0,2.428,1.457c1.432,0,2.088-.75,2.088-1.445,0-.645-.68-.9-2.115-1.32-1.475-.406-3.488-.988-3.488-3.1,0-1.441,1.293-2.973,3.686-2.973a4.825,4.825,0,0,1,3.529,1.746l-1.365,1.066a3.187,3.187,0,0,0-2.164-1.039c-1.143,0-1.756.617-1.756,1.2,0,.637.68.895,2.117,1.313,1.473.406,3.486.988,3.486,3.105,0,1.605-1.377,3.227-4.018,3.227A4.845,4.845,0,0,1,8934.242,22095.658Zm58.742,2.086v-1.285l7.088-10.5h-6.76v-1.781h9.344v1.285l-7.088,10.5h7.607l-.422,1.773Zm-20.461,0v-7.309c0-.215-.008-.422-.018-.605v-2.18h1.947s-.012.441,0,.516a3.639,3.639,0,0,1,2.248-.777,3.9,3.9,0,0,1,1.354.227l.637.27-.672,1.773-.687-.281a1.866,1.866,0,0,0-.631-.121,3.14,3.14,0,0,0-2.248,1.406v7.082Zm-16.061,0v-10.094h1.93v10.094Zm-26.268,0v-6.258a2.176,2.176,0,0,0-2.164-2.324,3.646,3.646,0,0,0-2.58,1.52v7.063h-1.932v-10.1l1.932.008v.613a4.442,4.442,0,0,1,2.58-.875,3.916,3.916,0,0,1,4.094,4.1v6.258Zm-12.193,0v-13.57h1.93v13.57Zm38.215-12.5a1.212,1.212,0,1,1,1.209,1.234A1.261,1.261,0,0,1,8956.217,22085.244Z" transform="translate(-8883.173 -22078.092)" fill="#231815"/>
    <path id="mark" d="M8925.576,22108.828l14.818-2.816a13.009,13.009,0,0,1-14.818,2.816Zm-7.574-11.816a13.029,13.029,0,0,1,.088-1.523l9.188,3.355-4.039,8.6A12.994,12.994,0,0,1,8918,22097.012Zm11.391,2.605,11.148,4.078-14.348,2.738Zm.957-2.039,5.867-12.488a13,13,0,0,1,6.721,17.1Zm-10.088-3.684,12.717-7.187-4.746,10.1ZM8931,22084a13.27,13.27,0,0,1,1.945.156l-13.969,7.891A13.014,13.014,0,0,1,8931,22084Z" transform="translate(-8917.999 -22083.998)" fill="url(#linear-gradient)"/>
  </g>
</svg>
