<svg xmlns="http://www.w3.org/2000/svg" width="19.913" height="20" viewBox="0 0 19.913 20">
  <path id="icon_cart" d="M-1152.272,17.625a2.152,2.152,0,0,1,2.152-2.152,2.152,2.152,0,0,1,2.152,2.152,2.152,2.152,0,0,1-2.152,2.152A2.152,2.152,0,0,1-1152.272,17.625Zm.926,0a1.227,1.227,0,0,0,1.227,1.227,1.226,1.226,0,0,0,1.226-1.227,1.226,1.226,0,0,0-1.226-1.226A1.227,1.227,0,0,0-1151.346,17.625Zm-8.817,0a2.152,2.152,0,0,1,2.153-2.152,2.152,2.152,0,0,1,2.152,2.152,2.152,2.152,0,0,1-2.152,2.152A2.153,2.153,0,0,1-1160.163,17.625Zm.9.024a1.227,1.227,0,0,0,1.25,1.2,1.226,1.226,0,0,0,1.226-1.227,1.226,1.226,0,0,0-1.226-1.226,1.227,1.227,0,0,0-1.227,1.226h-.023Zm-1.851-5.577-1.574-9.951a1.389,1.389,0,0,0-1.157-1.157l-1.782-.255a.468.468,0,0,1-.393-.532.468.468,0,0,1,.532-.393l1.782.278a2.314,2.314,0,0,1,1.944,1.921l.07.417h15.112a.452.452,0,0,1,.075.005.463.463,0,0,1,.388.527L-1147,8.877a2.8,2.8,0,0,1-2.754,2.361H-1160.3l.116.694a1.852,1.852,0,0,0,1.828,1.574h10.668a.463.463,0,0,1,.463.463.463.463,0,0,1-.463.463h-10.7A2.754,2.754,0,0,1-1161.112,12.071Zm.671-1.759h10.691a1.851,1.851,0,0,0,1.828-1.574l.81-5.415h-14.44Z" transform="translate(1166.023 0.223)" fill="#fff"/>
</svg>
