<svg xmlns="http://www.w3.org/2000/svg" xmlns:xlink="http://www.w3.org/1999/xlink" width="230.626" height="50" viewBox="0 0 230.626 50">
  <defs>
    <clipPath id="clip-path">
      <rect id="Rectangle_109868" data-name="Rectangle 109868" width="230.626" height="50" fill="none"/>
    </clipPath>
  </defs>
  <g id="logo_inspiart" transform="translate(0 0)">
    <rect id="Rectangle_109866" data-name="Rectangle 109866" width="3.71" height="26.087" transform="translate(66.934 11.695)" fill="#fff"/>
    <g id="Group_206720" data-name="Group 206720" transform="translate(0 0)">
      <g id="Group_206719" data-name="Group 206719" clip-path="url(#clip-path)">
        <path id="Path_451028" data-name="Path 451028" d="M102.317,21.572a8.6,8.6,0,0,0-4.956,1.684V22.073l-3.707-.007V41.494h3.707V27.9C98,27.1,99.883,25,102.317,25a4.172,4.172,0,0,1,4.162,4.453V41.494h3.708V29.451a7.535,7.535,0,0,0-7.87-7.879" transform="translate(-16.114 -3.711)" fill="#fff"/>
        <path id="Path_451029" data-name="Path 451029" d="M171.877,13.723a2.38,2.38,0,1,0,2.329,2.378,2.416,2.416,0,0,0-2.329-2.378" transform="translate(-29.173 -2.361)" fill="#fff"/>
        <rect id="Rectangle_109867" data-name="Rectangle 109867" width="3.708" height="19.421" transform="translate(140.851 18.361)" fill="#fff"/>
        <path id="Path_451030" data-name="Path 451030" d="M259.864,36.787l13.624-20.194V14.126H255.529V17.55H268.52L254.9,37.744v2.469h18.776l.811-3.426Z" transform="translate(-43.858 -2.43)" fill="#fff"/>
        <path id="Path_451031" data-name="Path 451031" d="M151.057,21.573a8.629,8.629,0,0,0-5,1.719V22.073h-3.708l.049,26.087H146.1V40.337a8.553,8.553,0,0,0,4.954,1.658c5.388,0,9.453-4.39,9.453-10.209s-4.065-10.212-9.453-10.212m0,17c-2.436,0-4.323-2.1-4.954-2.909V27.9c.632-.806,2.52-2.906,4.954-2.906,3.327,0,5.745,2.854,5.745,6.787s-2.418,6.785-5.745,6.785" transform="translate(-24.492 -3.712)" fill="#fff"/>
        <path id="Path_451032" data-name="Path 451032" d="M218.016,22.015a7.256,7.256,0,0,0-6.915,1.056c-.027-.147,0-1,0-1h-3.75v4.2c.024.359.042.746.042,1.174V41.493H211.1V27.873c.551-.756,2.175-2.709,4.321-2.709a3.681,3.681,0,0,1,1.208.225l1.315.553,1.3-3.412Z" transform="translate(-35.677 -3.711)" fill="#fff"/>
        <path id="Path_451033" data-name="Path 451033" d="M196.629,29.95c0-5.087-3.152-8.378-8.029-8.378a8.775,8.775,0,0,0-6.656,3.4l-.338.463,2.723,1.913.3-.4A5.514,5.514,0,0,1,188.6,25c2.558,0,4.061,1.479,4.29,4.191a15.079,15.079,0,0,0-4.924-.953c-4.612,0-7.712,2.767-7.712,6.879s3.1,6.878,7.712,6.878a7.781,7.781,0,0,0,4.954-1.715,11.43,11.43,0,0,1,0,1.216h3.708c0-.015,0-11.544,0-11.544m-3.708,5.711c-.634.8-2.533,2.909-4.954,2.909-2.543,0-4-1.258-4-3.454s1.46-3.453,4-3.453a12.474,12.474,0,0,1,4.954,1.3Z" transform="translate(-31.015 -3.711)" fill="#fff"/>
        <path id="Path_451034" data-name="Path 451034" d="M238.475,35.778l-.432.556a3.665,3.665,0,0,1-2.55,1.3c-1.588,0-2.739-1.592-2.739-3.788V24.561h5.328V21.137h-5.328v-5h-3.708v5h-3.483v3.424h3.483v9.284c0,4.179,2.711,7.212,6.447,7.212a7,7,0,0,0,5.228-2.732l.469-.641Z" transform="translate(-38.811 -2.776)" fill="#fff"/>
        <path id="Path_451035" data-name="Path 451035" d="M127.012,29.807c-2.767-.788-4.068-1.294-4.068-2.524,0-1.108,1.179-2.285,3.37-2.285a6.057,6.057,0,0,1,4.16,2l2.628-2.059a9.292,9.292,0,0,0-6.787-3.363c-4.6,0-7.077,2.943-7.077,5.71,0,4.072,3.867,5.173,6.692,5.979C128.7,34.05,130,34.555,130,35.784c0,1.342-1.254,2.786-4,2.786-2.94,0-4.657-2.8-4.67-2.82l-.45-.764-2.735,1.92.327.568c.108.183,2.671,4.521,7.528,4.521,5.063,0,7.713-3.125,7.713-6.21,0-4.069-3.87-5.171-6.7-5.977" transform="translate(-20.328 -3.712)" fill="#fff"/>
        <path id="Path_451036" data-name="Path 451036" d="M5.26,20.091,20.577,25.7,29.692,6.281Z" transform="translate(-0.905 -1.08)" fill="#fff"/>
        <path id="Path_451037" data-name="Path 451037" d="M28.666,26.535l24.2,8.854A25,25,0,0,0,39.94,2.523Z" transform="translate(-4.932 -0.434)" fill="#fff"/>
        <path id="Path_451038" data-name="Path 451038" d="M46.592,44.093,25.169,36.255,19.025,49.341Z" transform="translate(-3.274 -6.238)" fill="#fff"/>
        <path id="Path_451039" data-name="Path 451039" d="M29.129.28A25.012,25.012,0,0,0,2.285,15.453Z" transform="translate(-0.393 0)" fill="#fff"/>
        <path id="Path_451040" data-name="Path 451040" d="M17.592,56.506A24.979,24.979,0,0,0,46.07,51.084Z" transform="translate(-3.027 -8.789)" fill="#fff"/>
        <path id="Path_451041" data-name="Path 451041" d="M17.835,33.117.177,26.656a24.929,24.929,0,0,0,9.9,22.987Z" transform="translate(0 -4.586)" fill="#fff"/>
      </g>
    </g>
  </g>
</svg>
