<svg xmlns="http://www.w3.org/2000/svg" width="194.76" height="60" viewBox="0 0 194.76 60">
  <g id="logo_EYS-Kids" transform="translate(0 -0.001)">
    <g id="Group_289" data-name="Group 289" transform="translate(0 0.001)">
      <path id="Path_4242" data-name="Path 4242" d="M56.45,35.648a24.293,24.293,0,0,1,5.937-2.71,18.574,18.574,0,0,1,3.344-.724,12.652,12.652,0,0,1,4.564.169,11.229,11.229,0,0,1,3.882,1.659c1.78,1.146,2.2,2.092,3.6,2.99A7.508,7.508,0,0,0,81.7,38.347a5.606,5.606,0,0,0,5.155-2.668,3.89,3.89,0,0,0,.528-2.044A4.775,4.775,0,0,0,85.8,30.213a10.645,10.645,0,0,0-3.307-2.086A18.375,18.375,0,0,0,75.672,26.7a25.23,25.23,0,0,0-12.8,3.909A39.358,39.358,0,0,0,56.45,35.648Z" transform="translate(-26.632 -12.597)" fill="#fff"/>
      <path id="Path_4243" data-name="Path 4243" d="M62.3,45.2a15.147,15.147,0,0,1,5.367-2.245,9.442,9.442,0,0,1,3-.1,8.4,8.4,0,0,1,1.68.417,5.62,5.62,0,0,1,3.37,2.509,2.262,2.262,0,0,1-.248,2.171,1.707,1.707,0,0,1-1.241.861,2.611,2.611,0,0,1-1.653-.57,22.388,22.388,0,0,1-1.764-1.5,16.226,16.226,0,0,0-1.865-1.484,3.8,3.8,0,0,0-1.093-.423,9.427,9.427,0,0,0-2.757-.232A9.327,9.327,0,0,0,62.3,45.2Z" transform="translate(-29.392 -20.186)" fill="#fff"/>
      <path id="Path_4244" data-name="Path 4244" d="M36.185,19.994A26.7,26.7,0,0,0,36.5,9.556a13.464,13.464,0,0,0-2.224-5.314,10.477,10.477,0,0,0-3.544-3.09,8.259,8.259,0,0,0-4.1-1.146,3.028,3.028,0,0,0-1.659.581A4.13,4.13,0,0,0,23.46,4a5.617,5.617,0,0,0,1.025,3.1,2.928,2.928,0,0,0,1.342,1.078A29.813,29.813,0,0,1,29.1,9.329a13.759,13.759,0,0,1,3.286,2,9.728,9.728,0,0,1,1.7,1.865,10.649,10.649,0,0,1,1.273,2.345A14.041,14.041,0,0,1,36.185,19.994Z" transform="translate(-11.068 -0.001)" fill="#fff"/>
      <path id="Path_4245" data-name="Path 4245" d="M55.527,92.45l1.659,1.215a13.912,13.912,0,0,1-3.523,4.659c-2.583,2.308-7.168,5.293-15.519,5.293a29.623,29.623,0,0,1-7.1-.713,19.088,19.088,0,0,1-8.9-4.553,13.584,13.584,0,0,1-2.166-2.467,7.353,7.353,0,0,1-.708-1.247l1.336-.956a23.563,23.563,0,0,0,6.439,4.9,24.3,24.3,0,0,0,11.135,2.7,21.748,21.748,0,0,0,11.3-3.46A23.651,23.651,0,0,0,55.527,92.45Z" transform="translate(-9.091 -43.617)" fill="#fff"/>
      <circle id="Ellipse_81" data-name="Ellipse 81" cx="3.159" cy="3.159" r="3.159" transform="translate(28.313 28.191)" fill="#fff"/>
      <circle id="Ellipse_82" data-name="Ellipse 82" cx="2.572" cy="2.572" r="2.572" transform="translate(19.137 40.308)" fill="#fff"/>
      <circle id="Ellipse_83" data-name="Ellipse 83" cx="2.493" cy="2.493" r="2.493" transform="translate(21.81 29.052)" fill="#fff"/>
      <circle id="Ellipse_84" data-name="Ellipse 84" cx="2.419" cy="2.419" r="2.419" transform="translate(17.928 17.336)" fill="#fff"/>
      <circle id="Ellipse_85" data-name="Ellipse 85" cx="2.345" cy="2.345" r="2.345" transform="translate(35.095 31.18)" fill="#fff"/>
      <circle id="Ellipse_86" data-name="Ellipse 86" cx="2.277" cy="2.277" r="2.277" transform="translate(35.169 25.671)" fill="#fff"/>
      <circle id="Ellipse_87" data-name="Ellipse 87" cx="2.023" cy="2.023" r="2.023" transform="translate(25.978 24.076)" fill="#fff"/>
      <circle id="Ellipse_88" data-name="Ellipse 88" cx="1.199" cy="1.199" r="1.199" transform="translate(24.441 21.656)" fill="#fff"/>
      <circle id="Ellipse_89" data-name="Ellipse 89" cx="3.238" cy="3.238" r="3.238" transform="translate(15.889 23.5)" fill="#fff"/>
      <circle id="Ellipse_90" data-name="Ellipse 90" cx="3.222" cy="3.222" r="3.222" transform="translate(9.054 15.492)" fill="#fff"/>
      <circle id="Ellipse_91" data-name="Ellipse 91" cx="3.972" cy="3.972" r="3.972" transform="translate(3.624 23.098)" fill="#fff"/>
      <circle id="Ellipse_92" data-name="Ellipse 92" cx="3.243" cy="3.243" r="3.243" transform="translate(40.567 29.944)" fill="#fff"/>
      <circle id="Ellipse_93" data-name="Ellipse 93" cx="2.609" cy="2.609" r="2.609" transform="translate(48.644 30.335)" fill="#fff"/>
      <circle id="Ellipse_94" data-name="Ellipse 94" cx="2.076" cy="2.076" r="2.076" transform="translate(52.658 26.395)" fill="#fff"/>
      <circle id="Ellipse_95" data-name="Ellipse 95" cx="2.023" cy="2.023" r="2.023" transform="translate(47.223 25.623)" fill="#fff"/>
      <circle id="Ellipse_96" data-name="Ellipse 96" cx="2.572" cy="2.572" r="2.572" transform="translate(32.137 39.732)" fill="#fff"/>
      <circle id="Ellipse_97" data-name="Ellipse 97" cx="2.102" cy="2.102" r="2.102" transform="translate(4.12 33.663)" fill="#fff"/>
      <circle id="Ellipse_98" data-name="Ellipse 98" cx="2.673" cy="2.673" r="2.673" transform="translate(12.904 30.605)" fill="#fff"/>
      <circle id="Ellipse_99" data-name="Ellipse 99" cx="2.694" cy="2.694" r="2.694" transform="translate(15.487 11.256)" fill="#fff"/>
      <circle id="Ellipse_100" data-name="Ellipse 100" cx="2.778" cy="2.778" r="2.778" transform="translate(26.68 14.288)" fill="#fff"/>
      <circle id="Ellipse_101" data-name="Ellipse 101" cx="2.694" cy="2.694" r="2.694" transform="translate(33.642 9.877)" fill="#fff"/>
      <circle id="Ellipse_102" data-name="Ellipse 102" cx="3.227" cy="3.227" r="3.227" transform="translate(41.629 7.083)" fill="#fff"/>
      <circle id="Ellipse_103" data-name="Ellipse 103" cx="1.659" cy="1.659" r="1.659" transform="translate(27.637 8.969)" fill="#fff"/>
      <circle id="Ellipse_104" data-name="Ellipse 104" cx="2.028" cy="2.028" r="2.028" transform="translate(0 28.719)" fill="#fff"/>
      <circle id="Ellipse_105" data-name="Ellipse 105" cx="2.889" cy="2.889" r="2.889" transform="translate(0.697 16.617)" fill="#fff"/>
    </g>
    <g id="Group_290" data-name="Group 290" transform="translate(72.504 23.506)">
      <path id="Path_4246" data-name="Path 4246" d="M141.623,65.457V60.507h6.27a1.887,1.887,0,0,0,1.886-1.886h0a1.887,1.887,0,0,0-1.886-1.886h-6.27V52.071H148.5a1.887,1.887,0,0,0,1.886-1.886h0A1.887,1.887,0,0,0,148.5,48.3h-9.059a2.173,2.173,0,0,0-2.176,2.176v16.57a2.173,2.173,0,0,0,2.176,2.176h9.313a1.887,1.887,0,0,0,1.886-1.886h0a1.887,1.887,0,0,0-1.886-1.886h-7.126Z" transform="translate(-137.26 -46.293)" fill="#fff"/>
      <path id="Path_4247" data-name="Path 4247" d="M179.753,47.942a2.176,2.176,0,0,0-2.884.946l-3.793,7.194-3.793-7.194a2.186,2.186,0,0,0-2.884-.946,2.034,2.034,0,0,0-.9,2.794l5.367,9.894v6.487a2.215,2.215,0,0,0,4.416,0V60.63l5.367-9.894A2.032,2.032,0,0,0,179.753,47.942Z" transform="translate(-150.468 -46.019)" fill="#fff"/>
      <path id="Path_4248" data-name="Path 4248" d="M205.56,60.653a2.386,2.386,0,0,1,1.373,3.639c-1.3,1.807-4.754,1.1-5.979.586-.972-.412-2.747-.734-3.486.671a1.848,1.848,0,0,0,1,2.43,10.864,10.864,0,0,0,5.2,1.136,9.888,9.888,0,0,0,5.858-1.643,5.809,5.809,0,0,0,2.2-4.59,4.935,4.935,0,0,0-2.43-4.722,10.379,10.379,0,0,0-2.763-1.22c-1.178-.338-2.023-.634-2.995-.956a2.339,2.339,0,0,1-1.822-2A2.136,2.136,0,0,1,202,52.65c1.22-1.807,4.236-1.157,5.187-.713.9.423,2.757.581,3.428-.739a1.763,1.763,0,0,0-.829-2.361,9.933,9.933,0,0,0-4.95-1.056,8.733,8.733,0,0,0-5.472,1.542,5.979,5.979,0,0,0-2.06,4.59,4.807,4.807,0,0,0,2.15,4.347,8.664,8.664,0,0,0,3.127,1.421C203.711,60,204.709,60.4,205.56,60.653Z" transform="translate(-165.579 -46.047)" fill="#fff"/>
      <path id="Path_4249" data-name="Path 4249" d="M242.486,70.037H234.4A1.943,1.943,0,0,1,232.46,68.1h0A1.943,1.943,0,0,1,234.4,66.16h8.087a1.943,1.943,0,0,1,1.939,1.939h0A1.94,1.94,0,0,1,242.486,70.037Z" transform="translate(-182.173 -54.719)" fill="#fff"/>
      <path id="Path_4250" data-name="Path 4250" d="M304.11,58.855V70.83a2.164,2.164,0,0,1-2.155,2.155h0A2.164,2.164,0,0,1,299.8,70.83V58.855a2.164,2.164,0,0,1,2.155-2.155h0A2.157,2.157,0,0,1,304.11,58.855Z" transform="translate(-213.943 -50.256)" fill="#fff"/>
      <path id="Path_4251" data-name="Path 4251" d="M263.6,63.276a11.274,11.274,0,0,0-1.384-4.31c-.967-2.049-2.087-3.93-2.472-4.654a1.738,1.738,0,0,1,.169-2.139,1.64,1.64,0,0,1,1.933-.275,3,3,0,0,1,.914.6c.824.8,1.379,1.579,1.96,2.129a5.431,5.431,0,0,0,3.476,1.854,4.986,4.986,0,0,0,2.678-.724,9.9,9.9,0,0,0,2.329-1.8,10.876,10.876,0,0,1,2.573-1.9,1.422,1.422,0,0,1,1.669.3c1.083,1.136-.037,2.53-.7,3.418a10.439,10.439,0,0,1-2.139,2.086c-1.051.782-2.092,1.31-2.483,2.16a2.881,2.881,0,0,0-.143,1.917,2.636,2.636,0,0,0,.914,1.484c1.162,1.025,4.712,3.222,5.33,4.5a1.172,1.172,0,0,1-.1,1.447,2.241,2.241,0,0,1-1.78.312,15.524,15.524,0,0,1-2.567-.792,20.631,20.631,0,0,0-4.2-1.4,2.045,2.045,0,0,0-1.215.655c-.856.8-1.68,2.118-2.171,2.6-.771.766-1.764,2.213-2.8,1.442-1.083-.8-.671-2.81-.285-4.506A17.459,17.459,0,0,0,263.6,63.276Z" transform="translate(-194.914 -47.899)" fill="#fff"/>
      <circle id="Ellipse_106" data-name="Ellipse 106" cx="2.562" cy="2.562" r="2.562" transform="translate(85.45)" fill="#fff"/>
      <circle id="Ellipse_107" data-name="Ellipse 107" cx="2.683" cy="2.683" r="2.683" transform="translate(70.819 1.389)" fill="#fff"/>
      <path id="Path_4252" data-name="Path 4252" d="M325.536,44.76h0a2.164,2.164,0,0,0-2.155,2.155v4.743a7.654,7.654,0,0,0-4.11-1.157,8.541,8.541,0,0,0,0,17.083,7.618,7.618,0,0,0,4.2-1.215,2.16,2.16,0,0,0,2.06,1.569h0a2.164,2.164,0,0,0,2.155-2.155V46.915A2.153,2.153,0,0,0,325.536,44.76Zm-6.307,18.5a4.215,4.215,0,1,1,4.215-4.215A4.213,4.213,0,0,1,319.229,63.264Z" transform="translate(-219.1 -44.623)" fill="#fff"/>
      <path id="Path_4253" data-name="Path 4253" d="M349.094,65.309a4.056,4.056,0,0,1-1.748-1.484,4.274,4.274,0,0,1-.713-2.483c0-3.106,2.5-4.9,5.71-4.9,2.139,0,4.062.206,5.129,1.664a1.787,1.787,0,0,1-.058,2,2.24,2.24,0,0,1-2.219.533,7.176,7.176,0,0,0-2.551-.576c-1.03,0-1.764.354-1.764,1.22s1.886,1.358,2.873,1.669a8.274,8.274,0,0,1,2.689,1.3,4.786,4.786,0,0,1,.217,7.263,6.03,6.03,0,0,1-4.014,1.373c-3.793,0-5.472-.85-5.985-1.711a1.668,1.668,0,0,1-.011-1.49,2.022,2.022,0,0,1,2.118-1.1,22.657,22.657,0,0,0,3.074.739c1.775,0,2.166-.882,2.166-1.331,0-.576-.38-1.046-1.791-1.495A20.6,20.6,0,0,1,349.094,65.309Z" transform="translate(-235.965 -50.133)" fill="#fff"/>
    </g>
  </g>
</svg>
