<svg xmlns="http://www.w3.org/2000/svg" width="42.189" height="52" viewBox="0 0 42.189 52">
  <g id="logo_art" transform="translate(-103.551 -613.29)">
    <path id="txt" d="M1.385-15.551a7.453,7.453,0,0,0,4.356-4.516,7.189,7.189,0,0,0,4.377,4.57l.824-1.381a6.24,6.24,0,0,1-4.42-4.87h4.185v-1.37H6.33c0-.054.011-.182.011-.214V-25.59H4.907v2.472H.69v1.37H4.81A6.233,6.233,0,0,1,.54-16.921Zm14.309-8.658a9.3,9.3,0,0,1-.92,4.013A7.364,7.364,0,0,1,11.2-16.771l.953,1.263a8.522,8.522,0,0,0,4.27-5.373,8.567,8.567,0,0,0,4.27,5.362L21.6-16.8a7.316,7.316,0,0,1-3.521-3.318,10.256,10.256,0,0,1-.92-4.131v-1.3H15.695Zm11.387,8.241c2.8-.193,4.795-1.381,4.795-4.549,0-2.686-1.712-4.281-4.484-4.281a4.71,4.71,0,0,0-5.052,4.805c0,1.552.728,3.168,2.173,3.168a2.6,2.6,0,0,0,2.1-1.434,13.46,13.46,0,0,0,1.2-5.212,2.568,2.568,0,0,1,2.526,2.879c0,2.622-1.787,3.168-3.7,3.254Zm-.7-7.438c-.246,3.339-1,5.127-1.787,5.127-.257,0-.856-.246-.856-1.595A3.329,3.329,0,0,1,26.387-23.407Z" transform="translate(108.719 668.847)" fill="#8ce"/>
    <path id="logo_EYS" d="M-10970.1-262.865l.283-.3a2.431,2.431,0,0,0,1.707.62c.813,0,1.289-.255,1.289-.673s-.5-.51-1.4-.587-1.76-.274-1.76-.938c0-.635.8-1,1.7-1a2.584,2.584,0,0,1,1.721.6l-.317.269a1.969,1.969,0,0,0-1.385-.5c-.6,0-1.3.163-1.3.606,0,.418.635.5,1.427.567,1.026.082,1.737.279,1.737.943,0,.62-.631,1.077-1.727,1.077A2.958,2.958,0,0,1-10970.1-262.865Zm-4.078.651v-1.178l-1.691-2.188h.485l1.413,1.822,1.4-1.822h.48l-1.687,2.188v1.178Zm-6.82,0v-3.366h3.206v.375h-2.8v1.091h2.376v.375h-2.376v1.149h2.853v.375Z" transform="translate(11098.465 901.862)" fill="#444"/>
    <path id="mark" d="M11.558,18.032A3.137,3.137,0,0,1,9.91,17.56a3.2,3.2,0,0,1-1.588-2.785v-2.59A2.5,2.5,0,0,0,6.515,9.81l-.069.469a1.1,1.1,0,0,1-.347.633v8.035a.327.327,0,0,1-.327.318H4a.328.328,0,0,1-.337-.316V10.894a1.128,1.128,0,0,1-.328-.631L3.247,9.7A3.311,3.311,0,0,1,.583,8.313,3.223,3.223,0,0,1,.406,4.9a9.371,9.371,0,1,1,12.623,12.76,3.045,3.045,0,0,1-1.458.373ZM6.681,9.138A3.18,3.18,0,0,1,9,12.167v2.609A2.562,2.562,0,0,0,10.248,17a2.488,2.488,0,0,0,2.466.076A8.727,8.727,0,1,0,.991,5.177,2.62,2.62,0,0,0,1.466,8.29a2.487,2.487,0,0,0,1.689.72A6.319,6.319,0,0,1,4.2,4.413l.445-.619L4.7,3.73a.342.342,0,0,1,.285-.165.317.317,0,0,1,.164.046.331.331,0,0,1,.109.109l.025.041.377.575A6.491,6.491,0,0,1,6.7,9.006ZM5.4,18.63V11.211H4.34V18.63ZM4.8,4.714a5.8,5.8,0,0,0-.941,4.2l.135,1.259a.451.451,0,0,0,.448.383l.008.047v-.047h.87a.426.426,0,0,0,.436-.4l.194-1.184a5.78,5.78,0,0,0-.94-4.2l-.132-.191Zm7.534,10.381a2.1,2.1,0,1,1,2.1-2.1,2.117,2.117,0,0,1-2.1,2.1Zm0-3.536A1.441,1.441,0,1,0,13.772,13a1.462,1.462,0,0,0-1.441-1.442M11.983,8.7a1.554,1.554,0,1,1,1.554-1.554A1.559,1.559,0,0,1,11.983,8.7m0-2.435a.881.881,0,1,0,.881.88.882.882,0,0,0-.881-.88ZM7.68,5.9A1.313,1.313,0,0,1,6.371,4.6,1.323,1.323,0,1,1,7.694,5.9Zm.011-1.971a.649.649,0,1,0,.652.649.647.647,0,0,0-.652-.649Z" transform="translate(115.681 613.29)" fill="#8ce"/>
    <path id="txt-2" data-name="txt" d="M91.1-19.545v1.124h3.361A6.149,6.149,0,0,1,90.84-16.87l.535,1.316c1.8-.428,3.692-1.209,4.516-2.783.3.631,1.477,2.194,4.409,2.74l.674-1.274c-2.076-.332-2.9-.792-3.671-1.552H100.7v-1.124H96.341a5.138,5.138,0,0,0,.118-.717H100.9v-1.1H96.523v-.61h3.671v-1.006H96.523v-.567h4.131v-1.124H98.482a5.11,5.11,0,0,0,.417-.9l-1.53-.139a7.758,7.758,0,0,1-.4,1.038h-2.13a4.2,4.2,0,0,0-.417-1.038l-1.434.2a4.556,4.556,0,0,1,.4.835H91.193v1.124h4v.567H91.6v1.006h3.6v.61H90.883v1.1h4.26a3.1,3.1,0,0,1-.139.717Zm13.164-2.879h1.423v6.85h1.209v-6.85h1.573v-1.263h-1.573v-1.948h-1.231v1.948h-1.4v.91l-1.113-.45A6.551,6.551,0,0,1,101.4-20.68l.375,1.637c.225-.2.385-.353.578-.557v4.024h1.252v-5.747a8.777,8.777,0,0,0,.653-1.445Zm2.751-2.8a7.22,7.22,0,0,1,.685,1.5l.963-.492a5.285,5.285,0,0,0-.771-1.434Zm-2.269,8.273a13.9,13.9,0,0,0,.546-4.409H104.3a10.852,10.852,0,0,1-.557,3.585Zm3.821-5.523v1.263h1.188v3.992c0,.3-.139.31-.407.31H108.3l.214,1.338h1.477c1.038,0,1.038-.6,1.038-1.06v-4.581h.642v-1.263Zm-6.625-.235a6.826,6.826,0,0,0,2.119-2.633l-1.2-.364a4.923,4.923,0,0,1-1.434,1.67Zm6.785-2.59v1.284H111.5V-25.3Zm.032,7.781a25.126,25.126,0,0,0-.417-3.864l-1.017.107a27.929,27.929,0,0,1,.257,3.874Zm8.862,1.948a9.121,9.121,0,0,0,2.269-1.787,8.839,8.839,0,0,0,1.83,1.8l.781-1.3a9.9,9.9,0,0,1-1.787-1.637,9.972,9.972,0,0,0,1.1-4.313h.492v-1.349h-2.569c.118-.621.182-1.081.225-1.423l-1.263-.107a10.711,10.711,0,0,1-1.06,3.521V-22.9h-.61a11.261,11.261,0,0,0,1.209-1.991l-1.113-.514a10.289,10.289,0,0,1-.6,1.167v-.61h-1.2v-.8h-1.209v.8h-1.595v1.134h1.595v.813h-1.841v1.145h2.076a9.837,9.837,0,0,1-2.215,1.381l.589,1.134a11.755,11.755,0,0,0,1.306-.792h1.488a3.224,3.224,0,0,1-.653.61h-.289v.7c-1.3.107-1.787.128-2.387.161l.086,1.22c.364-.021,1.98-.171,2.3-.193v.471c0,.235-.043.3-.332.3h-1.124l.225,1.2h1.423c.813,0,1.027-.278,1.027-1v-1.1c1.252-.15,1.541-.193,1.937-.268v-1.134c-.482.075-.931.128-1.937.235v-.193a7.173,7.173,0,0,0,1.316-1.049v-1.017H115.37c.417-.385.578-.557.685-.664h1.327c-.075.118-.128.182-.3.407l.9,1.113c.107-.139.171-.246.342-.492a8.179,8.179,0,0,0,.824,2.215,6.5,6.5,0,0,1-2.376,1.712Zm2.954-7.235a8.523,8.523,0,0,1-.653,3.125,7.649,7.649,0,0,1-.76-2.611c.054-.128.107-.268.2-.514Zm-4.377-.92c-.128.182-.289.4-.664.835h-.257v-.835Zm16.193,3.6A9.738,9.738,0,0,0,130.621-22h.61v-1.113h-6.464V-22h.963a9.384,9.384,0,0,1-.492.985c-.246,0-1.477,0-1.584-.011l.1,1.134c2.183,0,2.644-.021,3.553-.054v.717h-3.457v1.145H127.3v.974h-4.335v1.2h10.06v-1.2h-4.367v-.974h3.489v-1.145h-3.489v-.76c1.445-.086,1.541-.1,2.055-.15a7.545,7.545,0,0,1,.578.792Zm-3.221-1.434c.193.15.321.246.567.45-.845.064-2.269.1-3.082.107a10.374,10.374,0,0,0,.535-.985h2.633ZM127.3-24.929h-4.056V-22.4H124.6v-1.349H131.4V-22.4h1.349v-2.526h-4.088v-.749H127.3Z" transform="translate(12.711 680.843)" fill="#8ce"/>
  </g>
</svg>
