<svg xmlns="http://www.w3.org/2000/svg" width="51.996" height="48" viewBox="0 0 51.996 48">
  <g id="logo_music" transform="translate(-132.116 -123.998)">
    <path id="txt" d="M2.224-19.77v6.251h1.6v-.564h6.213v.564h1.614V-19.77Zm7.814,1.294v.9H3.825v-.9Zm0,2.075v1H3.825v-1Zm2.908-5.56H9.935a10.593,10.593,0,0,0,.4-1.255h1.986v-1.422H7.771v-.986H6.118v.986H1.571v1.422H3.633c.1.384.154.615.269,1.255H.93v1.448H12.946ZM8.578-23.216a6.663,6.663,0,0,1-.371,1.255H5.49c-.038-.192-.167-1.127-.192-1.255Zm10.773,4.484H14.124v1.46h4.086a13.285,13.285,0,0,1-4.24,1.934l.82,1.576a15.385,15.385,0,0,0,4.56-2.793v2.985h1.563V-16.7a15.622,15.622,0,0,0,4.509,2.908l.9-1.537a15.294,15.294,0,0,1-4.138-1.947H26.14v-1.46H20.914v-.628h1.922v-5.457H20.747a6.821,6.821,0,0,0,.307-.82H19.325a3.49,3.49,0,0,1-.295.82H17.493v5.457h1.857Zm2.024-4.842v.91H18.941v-.91Zm0,1.973v.974H18.941V-21.6Zm1.486.743a9.844,9.844,0,0,1,2.575,1.9l1-1.448a12.087,12.087,0,0,0-2.729-1.781Zm-8.7-3.049a9.219,9.219,0,0,1,2.229,1.576l.91-1.294A10.431,10.431,0,0,0,15-25.15Zm2.754,1.857a11.1,11.1,0,0,1-2.985,1.422L14.355-19a13.231,13.231,0,0,0,3-1.563Zm8.122-3.19a10.959,10.959,0,0,1-1.973,1.857l1.025,1.166a12.984,12.984,0,0,0,2.062-1.973Zm9.185,11.7a10.918,10.918,0,0,0,2.716-2.139,10.579,10.579,0,0,0,2.191,2.152l.935-1.55a11.851,11.851,0,0,1-2.139-1.96A11.935,11.935,0,0,0,39.245-22.2h.589v-1.614H36.76c.141-.743.218-1.294.269-1.7l-1.512-.128a12.82,12.82,0,0,1-1.268,4.214v-.871h-.73a13.479,13.479,0,0,0,1.448-2.383L33.634-25.3a12.311,12.311,0,0,1-.717,1.4v-.73H31.482V-25.6H30.034v.961H28.126v1.358h1.909v.974h-2.2v1.371h2.485a11.774,11.774,0,0,1-2.652,1.652l.7,1.358a14.068,14.068,0,0,0,1.563-.948h1.781a3.859,3.859,0,0,1-.781.73h-.346v.833c-1.55.128-2.139.154-2.857.192l.1,1.46c.436-.026,2.37-.2,2.754-.231v.564c0,.282-.051.359-.4.359H28.843l.269,1.435h1.7c.974,0,1.23-.333,1.23-1.191v-1.319c1.5-.179,1.845-.231,2.319-.32v-1.358c-.576.09-1.114.154-2.319.282v-.231a8.585,8.585,0,0,0,1.576-1.255v-1.217H31.533c.5-.461.692-.666.82-.794h1.588c-.09.141-.154.218-.359.487l1.076,1.332c.128-.167.2-.295.41-.589a9.788,9.788,0,0,0,.986,2.652A7.784,7.784,0,0,1,33.211-15Zm3.536-8.66a10.2,10.2,0,0,1-.781,3.741,9.155,9.155,0,0,1-.91-3.126c.064-.154.128-.32.243-.615Zm-5.239-1.1c-.154.218-.346.474-.794,1h-.307v-1ZM52.157-19a11.656,11.656,0,0,0-2.114-2.229h.73v-1.332H43.036v1.332h1.153a11.233,11.233,0,0,1-.589,1.179c-.295,0-1.768,0-1.9-.013l.115,1.358c2.613,0,3.164-.026,4.253-.064v.858H41.935v1.371h4.138v1.166H40.884v1.435H52.926v-1.435H47.7v-1.166h4.176v-1.371H47.7v-.91c1.729-.1,1.845-.115,2.46-.179a9.03,9.03,0,0,1,.692.948ZM48.3-20.718c.231.179.384.295.679.538-1.012.077-2.716.115-3.689.128a12.415,12.415,0,0,0,.64-1.179h3.151ZM46.072-24.74H41.217v3.023h1.614v-1.614h8.147v1.614h1.614V-24.74H47.7v-.9H46.072Z" transform="translate(131.186 185.517)" fill="#f98"/>
    <path id="logo_EYS" d="M-10967.955-262.3l.34-.363a2.909,2.909,0,0,0,2.043.742c.974,0,1.543-.305,1.543-.806s-.594-.61-1.681-.7-2.106-.328-2.106-1.122c0-.76.955-1.191,2.031-1.191a3.1,3.1,0,0,1,2.061.72l-.381.322a2.356,2.356,0,0,0-1.656-.593c-.719-.006-1.56.2-1.56.725,0,.5.759.6,1.708.679,1.227.1,2.078.334,2.078,1.128,0,.742-.754,1.289-2.066,1.289A3.548,3.548,0,0,1-10967.955-262.3Zm-4.88.779v-1.41l-2.024-2.618h.58l1.693,2.181,1.678-2.181h.578l-2.021,2.618v1.41Zm-8.165,0v-4.028h3.84v.449h-3.357v1.306h2.846v.449h-2.846v1.376h3.416v.449Z" transform="translate(11130.382 417.067)" fill="#444"/>
    <path id="mark" d="M12.743,23.059a3.3,3.3,0,0,1,0-6.6H12.8a2.756,2.756,0,0,1,.737.1l.077.021V7.632A2.012,2.012,0,0,1,14.5,5.99a1.933,1.933,0,0,1,1.861-.147l4.6,2a1.93,1.93,0,0,1,1.175,1.789v4.144a.445.445,0,0,1-.2.379.468.468,0,0,1-.422.02L14.5,11.152v5.836l.028.018a3.232,3.232,0,0,1,1.514,2.753,3.3,3.3,0,0,1-3.3,3.3m-1.72-4.983a2.422,2.422,0,0,0-.686,1.686,2.411,2.411,0,1,0,2.411-2.41H12.74a2.391,2.391,0,0,0-1.7.7l-.018.018ZM14.945,6.754a1.121,1.121,0,0,0-.442.879V10.2l6.741,2.908V9.631a1.066,1.066,0,0,0-.172-.592,1.084,1.084,0,0,0-.47-.4l-4.6-2a1.135,1.135,0,0,0-.425-.082h-.009a1.144,1.144,0,0,0-.581.159l-.045.027ZM.476,9.968a.476.476,0,0,1,0-.952H10.993a.476.476,0,0,1,0,.952Zm0-4.293a.476.476,0,0,1,0-.952H10.993a.476.476,0,0,1,0,.952Zm0-4.722A.477.477,0,0,1,.476,0H10.993a.477.477,0,0,1,.337.813.472.472,0,0,1-.337.14Z" transform="translate(147.047 123.998)" fill="#f98"/>
  </g>
</svg>
