<svg xmlns="http://www.w3.org/2000/svg" width="48.334" height="50" viewBox="0 0 48.334 50">
  <g id="logo_ongirl_music" transform="translate(-57.427 -67.078)">
    <path id="icon" d="M2.95,16.642A2.756,2.756,0,0,1,0,14.144,2.781,2.781,0,0,1,2.975,11.62a3.3,3.3,0,0,1,2.052.707l.346.274V4.251A2.8,2.8,0,0,1,7.45,1.545L12.973.089a2.8,2.8,0,0,1,3.5,2.706V10.3A2.781,2.781,0,0,1,13.5,12.825,2.781,2.781,0,0,1,10.52,10.3,2.781,2.781,0,0,1,13.5,7.779a3.3,3.3,0,0,1,2.052.707l.346.274V2.795a2.249,2.249,0,0,0-.07-.544,2.221,2.221,0,0,0-2.708-1.6L7.591,2.111A2.223,2.223,0,0,0,5.926,4.25v9.869A2.781,2.781,0,0,1,2.95,16.642m0-4.469a2.21,2.21,0,0,0-2.4,1.946,2.21,2.21,0,0,0,2.4,1.946,2.21,2.21,0,0,0,2.4-1.946,2.21,2.21,0,0,0-2.4-1.946M13.5,8.356A2.21,2.21,0,0,0,11.1,10.3a2.21,2.21,0,0,0,2.4,1.946,2.21,2.21,0,0,0,2.4-1.946,2.21,2.21,0,0,0-2.4-1.946" transform="translate(73.359 67.078)" fill="#f9a"/>
    <path id="ON-girl" d="M-51.378-17.655a2.268,2.268,0,0,0,1.593-.6,2.261,2.261,0,0,0,.637-1.61,1.681,1.681,0,0,0-.5-1.24,1.731,1.731,0,0,0-1.274-.478,2.15,2.15,0,0,0-1.559.6,2.105,2.105,0,0,0-.648,1.576,1.759,1.759,0,0,0,.489,1.257A1.7,1.7,0,0,0-51.378-17.655Zm.41-3.527a1.344,1.344,0,0,1,.984.387,1.42,1.42,0,0,1,.4,1.013,1.828,1.828,0,0,1-.518,1.274,1.753,1.753,0,0,1-1.229.455,1.3,1.3,0,0,1-.967-.387,1.47,1.47,0,0,1-.393-1.047,1.678,1.678,0,0,1,.523-1.246A1.76,1.76,0,0,1-50.968-21.182Zm3.351,3.459.358-2.941,2.577,3.112.489-3.965h-.421l-.364,2.952-2.577-3.112-.484,3.954Zm4.426-1.57h1.251l.051-.421h-1.251Zm4.426-.368a.794.794,0,0,0-.3-.279,1.1,1.1,0,0,0-.523-.114,1.166,1.166,0,0,0-.876.347,1.51,1.51,0,0,0-.381,1.035,1.107,1.107,0,0,0,.3.8,1.015,1.015,0,0,0,.779.3,1.07,1.07,0,0,0,.455-.1.844.844,0,0,0,.336-.3l-.034.341a1.122,1.122,0,0,1-.262.722.816.816,0,0,1-.6.21.7.7,0,0,1-.489-.165.673.673,0,0,1-.188-.529v-.023h-.4v.034a1.093,1.093,0,0,0,.267.768,1.075,1.075,0,0,0,.8.279,1.227,1.227,0,0,0,.922-.341,1.637,1.637,0,0,0,.37-1.024l.279-2.3h-.41Zm-.774-.028a.647.647,0,0,1,.495.2.874.874,0,0,1,.2.569,1.124,1.124,0,0,1-.3.785.849.849,0,0,1-.58.2.659.659,0,0,1-.484-.188.816.816,0,0,1-.21-.58,1.044,1.044,0,0,1,.307-.774A.8.8,0,0,1-39.54-19.689Zm2.566-.395-.29,2.361h.41l.29-2.361Zm.023-.859a.245.245,0,0,0,.068.176.258.258,0,0,0,.193.08.3.3,0,0,0,.228-.1.311.311,0,0,0,.091-.228.253.253,0,0,0-.074-.188.24.24,0,0,0-.182-.068.311.311,0,0,0-.245.108A.334.334,0,0,0-36.952-20.943Zm1.293,4.62h.41l.3-2.559a1.093,1.093,0,0,1,.233-.66.424.424,0,0,1,.313-.125.384.384,0,0,1,.245.08l.239-.37a.608.608,0,0,0-.347-.1.662.662,0,0,0-.341.085.661.661,0,0,0-.239.228l.034-.256h-.41Zm2.911-5.547-.512,4.147h.41l.512-4.147Z" transform="translate(124.425 109.75)" fill="#666"/>
    <path id="txt" d="M-3443.577,8477.438a8.711,8.711,0,0,0,2.725-1.674,7.315,7.315,0,0,0,2.205-3.943l.062-.312h-3.381a10.6,10.6,0,0,1-2.111,2.537,1.38,1.38,0,0,0-.541-.5,8.965,8.965,0,0,0,2.163-2.651,12.349,12.349,0,0,0,.687-1.519,1.563,1.563,0,0,0,.093-.344l.665.26c.115.041.136.063.136.125,0,.083-.021.1-.219.178-.239.6-.4,1-.531,1.258h3.151l.125-.156.6.468c.073.052.1.093.1.146,0,.072-.041.105-.208.177-.031.156-.052.208-.156.666a7.854,7.854,0,0,1-3.089,4.743,11.782,11.782,0,0,1-2.049,1.186A1.41,1.41,0,0,0-3443.577,8477.438Zm-5.506-2.882a12.016,12.016,0,0,1-3.879,2.934,1.385,1.385,0,0,0-.562-.634,10.432,10.432,0,0,0,4.357-3.36,10.24,10.24,0,0,0,1.134-1.883l.281-.6-1.842.082c-2.121.094-2.257.094-3.016.135l-.073-.769c.468.01.779.01.894.01.176,0,2.038-.031,2.142-.031l1.987-.072.146-.166.634.509a.157.157,0,0,1,.073.115c0,.053-.052.093-.187.136a11.47,11.47,0,0,1-1.675,3.1,12.885,12.885,0,0,1,3.453,2.869l-.634.563A12.112,12.112,0,0,0-3449.083,8474.557Zm21.322,2.236a4.776,4.776,0,0,0,1.509-1.134c.822-.988,1.06-2.028,1.06-4.556,0-.374,0-.52-.021-.863l.791.094c.073.011.135.052.135.094,0,.063-.083.146-.2.208-.01,2.715-.136,3.62-.645,4.639a4.943,4.943,0,0,1-2.133,2.091A1.271,1.271,0,0,0-3427.76,8476.793Zm5.461.218-.572-.426a5.5,5.5,0,0,0,.125-1.934v-2.861c0-.812-.01-1.269-.031-1.559l.759.072c.125.011.177.041.177.113,0,.052-.052.1-.187.2-.01.229-.01.571-.01,1.175v4.3a10.273,10.273,0,0,0,3.317-2.6,4.609,4.609,0,0,0,.3.79,12.367,12.367,0,0,1-3.557,2.59c-.042.145-.094.208-.156.208A.284.284,0,0,1-3422.3,8477.011Zm-7.437-3.089h-5.013c-.531,0-1.218.021-1.654.042v-.749c.436.021,1.123.031,1.654.031h5.013c.479,0,1.207-.011,1.654-.031v.749C-3428.53,8473.943-3429.258,8473.922-3429.737,8473.922Zm4.272-7.266a8.475,8.475,0,0,0,1.737-.864,6.394,6.394,0,0,0,2.694-3.66c.114-.374.166-.6.3-1.176l.707.281c.084.031.135.083.135.145,0,.084-.052.126-.218.188a8.009,8.009,0,0,1-2.132,3.994,8.26,8.26,0,0,1-2.808,1.738A1.656,1.656,0,0,0-3425.465,8466.656Zm7.7-.094a8.689,8.689,0,0,0,2.725-1.674,7.31,7.31,0,0,0,2.205-3.943l.062-.311h-3.381a10.641,10.641,0,0,1-2.111,2.537,1.353,1.353,0,0,0-.541-.5,8.972,8.972,0,0,0,2.164-2.653,11.985,11.985,0,0,0,.686-1.519,1.546,1.546,0,0,0,.093-.343l.666.26c.114.043.135.063.135.125,0,.084-.021.1-.219.178-.239.6-.4,1-.53,1.258h3.151l.125-.155.6.466c.072.054.1.1.1.146,0,.072-.042.1-.208.178-.031.156-.052.207-.156.666a7.853,7.853,0,0,1-3.089,4.742,11.893,11.893,0,0,1-2.049,1.187A1.387,1.387,0,0,0-3417.761,8466.563Zm-42.4-1.352.239-.665a12.6,12.6,0,0,1,2.445.654,14.688,14.688,0,0,1,2.85,1.33l-.427.655A15.851,15.851,0,0,0-3460.156,8465.211Zm25.57,1.768-.437-.7a13.963,13.963,0,0,0,3.629-1.812,9.828,9.828,0,0,0,3.288-3.8,3.02,3.02,0,0,0,.52.614,11.726,11.726,0,0,1-2.091,2.756,11.6,11.6,0,0,1-2.891,2.06c-.457.229-.78.374-1.675.791-.041.146-.093.207-.155.207A.261.261,0,0,1-3434.586,8466.979Zm-12.364-1.113h-4.441c-.458,0-.812.01-1.363.031v-.707c.073,0,.145.011.24.011l1.123.011h3.088l.208-3.079h-2.715c-.167,0-.458.011-.863.021v-.666c.291.01.572.021.863.021h2.008c.468,0,1.2-.011,1.467-.021-.052.425-.083.759-.125,1.372l-.156,2.352h.666c.385,0,1.051-.011,1.363-.021v.707C-3446.139,8465.875-3446.492,8465.865-3446.95,8465.865Zm20.2-4.015.582-.343a5.958,5.958,0,0,1,1.082,1.716l-.7.322A6.052,6.052,0,0,0-3426.754,8461.851Zm-32.612.166.25-.654a13.631,13.631,0,0,1,3.786,1.425l-.385.666A12.225,12.225,0,0,0-3459.366,8462.017Zm23.646-.3.448-.55a8.495,8.495,0,0,1,1.747,1.342l-.562.593A8.354,8.354,0,0,0-3435.72,8461.714Zm-2.455,1.333h-5.013c-.531,0-1.217.021-1.654.04v-.747c.437.02,1.123.03,1.654.03h5.013c.479,0,1.207-.011,1.654-.03v.747C-3436.968,8463.067-3437.7,8463.047-3438.176,8463.047Zm13.761-1.978.614-.3a5.977,5.977,0,0,1,.863,1.841l-.707.271A6.582,6.582,0,0,0-3424.414,8461.069Zm-9.933-1.84.437-.561a8.642,8.642,0,0,1,1.748,1.351l-.552.594A8.251,8.251,0,0,0-3434.348,8459.229Zm-24.54-.2.24-.654a13.971,13.971,0,0,1,4.036,1.539l-.417.646A12.431,12.431,0,0,0-3458.887,8459.031Zm29.355.1.354-.426a6.69,6.69,0,0,1,1.321,1.04l-.427.457A5.979,5.979,0,0,0-3429.532,8459.136Zm.791-.812.353-.426a6.648,6.648,0,0,1,1.321,1.04l-.427.458A5.98,5.98,0,0,0-3428.741,8458.324Z" transform="translate(3517.583 -8361.005)" fill="#f9a"/>
  </g>
</svg>
