<svg xmlns="http://www.w3.org/2000/svg" width="42.924" height="52.5" viewBox="0 0 42.924 52.5">
  <g id="logo_wine" transform="translate(-133.921 -212.5)">
    <path id="txt" d="M3.33-24.056v4.244H4.872v-2.866h5.415C10.254-20.6,10.2-17.12,4.555-16.5l.569,1.367c4.244-.645,5.623-2.778,6.1-3.96a11.8,11.8,0,0,0,.645-3.632v-1.335Zm16.54,3.139A24.688,24.688,0,0,0,23.031-23.8l-1.356-.886a16.186,16.186,0,0,1-7.909,5.338l.711,1.269a16.459,16.459,0,0,0,3.851-1.772V-15.1H19.87Zm9.243-1.6a13.03,13.03,0,0,0-3.435-1.51L25-22.765a14.6,14.6,0,0,1,3.336,1.63Zm-3.5,7.242c4.321-.569,7.11-2.133,8.817-7.373l-1.422-.678c-1.542,5.065-4.321,6.18-7.876,6.443Zm9.878-1.05Z" transform="translate(135.428 268.319)" fill="#e8b"/>
    <path id="logo_EYS" d="M-10969.86-262.8l.291-.31a2.477,2.477,0,0,0,1.744.634c.83,0,1.316-.26,1.316-.688s-.508-.521-1.435-.6-1.8-.28-1.8-.958c0-.649.815-1.017,1.732-1.017a2.643,2.643,0,0,1,1.76.614l-.324.275a2.016,2.016,0,0,0-1.416-.506c-.612,0-1.33.167-1.33.619,0,.428.647.516,1.458.58,1.048.083,1.774.285,1.774.963,0,.634-.643,1.1-1.765,1.1A3.028,3.028,0,0,1-10969.86-262.8Zm-4.167.665v-1.2l-1.73-2.236h.5l1.443,1.863,1.438-1.863h.49l-1.724,2.236v1.2Zm-6.973,0v-3.44h3.278v.383h-2.865v1.116h2.43v.383h-2.43v1.175h2.915v.383Z" transform="translate(11128.924 502.076)" fill="#444"/>
    <path id="mark" d="M15.22,19.69H.318a.318.318,0,1,1,0-.635H2.2V9.643a.313.313,0,0,1,.021-.109l0-.009a.313.313,0,0,1,.065-.1l0,0L4.1,7.552V2.273a.313.313,0,0,1,.026-.125.318.318,0,0,1,.293-.195l.018,0h2.5l.018,0a.318.318,0,0,1,.318.318v5.28L8.552,8.861V7.689a.31.31,0,0,1,.021-.109l0-.009a.312.312,0,0,1,.065-.1l0,0L10.457,5.6V.319a.312.312,0,0,1,.026-.125A.317.317,0,0,1,10.775,0l.018,0h2.5l.018,0a.318.318,0,0,1,.318.318V5.6l1.722,1.774h1.929l.051.005h.007a.318.318,0,0,1,.252.265l.639,4.455a.317.317,0,0,1-.087.267l-2.6,2.659v4.029H17.8a.318.318,0,1,1,0,.635Zm-.317-.635v-4.03L12.3,12.464a.318.318,0,0,1-.092-.272l.653-4.52a.316.316,0,0,1,.176-.266l.005,0,.042-.016.019-.006.032-.005.033,0h1.3L13.087,5.949l0,0a.309.309,0,0,1-.065-.1l0-.009A.31.31,0,0,1,13,5.727V.637H11.092v5.09a.312.312,0,0,1-.02.109l0,.009a.309.309,0,0,1-.065.1l0,0L9.187,7.818V19.055Zm-6.352,0V9.772L6.735,7.9l0,0a.31.31,0,0,1-.065-.1l0-.009a.309.309,0,0,1-.021-.109V2.591H4.74V7.68a.313.313,0,0,1-.02.109l0,.009a.311.311,0,0,1-.065.1l0,0L2.834,9.772v9.283Zm6.8-4.736,2.237-2.284L17,8.008H13.45l-.594,4.116,2.234,2.195Z" transform="translate(146.265 213)" fill="#e8b" stroke="rgba(0,0,0,0)" stroke-miterlimit="10" stroke-width="1"/>
    <path id="txt-2" data-name="txt" d="M92.394-15.336a11.78,11.78,0,0,0,4.365-3.282,31.945,31.945,0,0,1,3.282,3.271l1.236-1.214a38.158,38.158,0,0,0-3.643-3.161,11.2,11.2,0,0,0,2.013-4.54H92.164v1.4h5.524A11.064,11.064,0,0,1,91.53-16.55Zm14.789-8.193A9.249,9.249,0,0,0,107.8-24.8l-1.553-.252a7.785,7.785,0,0,1-3.555,4.244l.985,1.083a9.448,9.448,0,0,0,2.6-2.45h3.665c-1.083,4.015-3.5,5.032-6.607,5.48l.6,1.324c5.809-.788,7.307-4.627,7.876-8.16Zm6.29,2.68V-19.3h9.692v-1.553ZM127.289-24.4H125.8v2.91c0,3.7-1.138,4.791-1.739,5.371l1.181,1.028a5.773,5.773,0,0,0,1.7-3.129,16.467,16.467,0,0,0,.35-3.49Zm2.975-.339H128.81v9.3c3.03-.044,5.032-2.155,5.645-5.2l-1.356-.58a6.509,6.509,0,0,1-.886,2.461,3.558,3.558,0,0,1-1.947,1.564Z" transform="translate(42.391 280.096)" fill="#e8b"/>
  </g>
</svg>
