<svg xmlns="http://www.w3.org/2000/svg" width="51.675" height="48" viewBox="0 0 51.675 48">
  <g id="logo_pottery" transform="translate(-535.774 -124)">
    <path id="txt" d="M5.679-19.675v1.255h2.1v1.933h-.7V-17.9H5.845v2.663h5.006V-17.9H9.75v1.408H9.033V-18.42h2.074v-1.255H9.033v-1.088h1.792v-1.242H7.881a5.175,5.175,0,0,0,.154-.666L6.959-22.8a1.915,1.915,0,0,0,.115-.23h4.468c0,3.406-.077,6.44-.154,7.17C11.287-15,11-15,10.352-15H9.059L9.3-13.568h1.562c.794,0,1.7,0,1.959-1.716.23-1.613.243-7.157.243-9.142h-5.4c.154-.525.2-.73.269-1.037L6.447-25.68a9.979,9.979,0,0,1-1.37,3.214,10.141,10.141,0,0,0,.4-1.319v-1.472H1.62v11.715H3.041V-23.849h1.1a14.412,14.412,0,0,1-.986,2.906,4.321,4.321,0,0,1,1.05,2.689c0,.666-.282.768-.589.768H3.144l.269,1.575h.576c1.421,0,1.652-1.242,1.652-2.049a5.324,5.324,0,0,0-1.075-3.214c.115-.269.179-.41.333-.819l.947.858a8.788,8.788,0,0,0,.909-1.293A4.8,4.8,0,0,1,5.64-20.392l.986.717Zm1.063,0a7.444,7.444,0,0,0,.653-1.088h.384v1.088Zm19.845,5.121a19.28,19.28,0,0,0-3.3-3.162l-1.191.935c.525.461.922.794,1.332,1.216-1.421.128-3.483.154-4.917.179.218-.346.768-1.191,1.524-2.65h6.735v-1.511H14.782v1.511h3.393a22.371,22.371,0,0,1-1.511,2.663c-.243.013-1.344.013-1.562.013l.243,1.613c2.7-.038,6.094-.141,9.282-.512.2.243.333.423.551.73Zm-8.95-10.294H14.782v1.472h2.855v.794H19.2v-.794h3.124v.794H23.9v-.794h2.868v-1.472H23.9v-.768H22.323v.768H19.2v-.768H17.637ZM15.729-22.3v1.434h10.1V-22.3ZM34.6-13.568a10.911,10.911,0,0,0,2.714-2.138,10.574,10.574,0,0,0,2.189,2.151L40.44-15.1A11.846,11.846,0,0,1,38.3-17.063a11.929,11.929,0,0,0,1.319-5.16h.589v-1.613H37.137c.141-.743.218-1.293.269-1.7l-1.511-.128a12.814,12.814,0,0,1-1.268,4.212v-.871H33.9a13.472,13.472,0,0,0,1.447-2.381l-1.332-.615a12.306,12.306,0,0,1-.717,1.4v-.73H31.862v-.96H30.415v.96H28.507V-23.3h1.908v.973h-2.2v1.37H30.7a11.768,11.768,0,0,1-2.65,1.652l.7,1.357a14.061,14.061,0,0,0,1.562-.947h1.78a3.857,3.857,0,0,1-.781.73h-.346v.832c-1.549.128-2.138.154-2.855.192l.1,1.46c.435-.026,2.369-.2,2.753-.23v.563c0,.282-.051.358-.4.358H29.224l.269,1.434h1.7c.973,0,1.229-.333,1.229-1.191v-1.319c1.5-.179,1.844-.23,2.317-.32v-1.357c-.576.09-1.114.154-2.317.282v-.23A8.581,8.581,0,0,0,34-18.945v-1.216H31.913c.5-.461.691-.666.819-.794H34.32c-.09.141-.154.218-.358.487l1.075,1.332c.128-.166.2-.294.41-.589a9.784,9.784,0,0,0,.986,2.65,7.78,7.78,0,0,1-2.842,2.049Zm3.534-8.655a10.2,10.2,0,0,1-.781,3.739,9.151,9.151,0,0,1-.909-3.124c.064-.154.128-.32.243-.615Zm-5.237-1.1c-.154.218-.346.474-.794,1H31.8v-1Zm19.628,4.3a11.649,11.649,0,0,0-2.113-2.228h.73v-1.332H43.41v1.332h1.152a11.227,11.227,0,0,1-.589,1.178c-.294,0-1.767,0-1.895-.013l.115,1.357c2.612,0,3.162-.026,4.251-.064v.858H42.309v1.37h4.136V-15.4H41.259v1.434H53.295V-15.4H48.071v-1.165h4.174v-1.37H48.071v-.909c1.728-.1,1.844-.115,2.458-.179a9.026,9.026,0,0,1,.691.947Zm-3.854-1.716c.23.179.384.294.679.538-1.011.077-2.714.115-3.687.128a12.407,12.407,0,0,0,.64-1.178h3.15Zm-2.228-4.02H41.592v3.022h1.613V-23.35h8.143v1.613h1.613v-3.022H48.071v-.9H46.445Z" transform="translate(534.154 185.53)" fill="#ba8"/>
    <path id="logo_EYS" d="M-10967.959-262.3l.338-.362a2.9,2.9,0,0,0,2.041.742c.975,0,1.543-.3,1.543-.805s-.592-.61-1.682-.7c-1.074-.092-2.1-.328-2.1-1.122,0-.759.955-1.19,2.029-1.19a3.1,3.1,0,0,1,2.061.719l-.381.322a2.356,2.356,0,0,0-1.656-.592c-.719-.006-1.559.2-1.559.725,0,.5.76.6,1.707.679,1.227.1,2.078.334,2.078,1.128,0,.742-.752,1.288-2.064,1.288A3.532,3.532,0,0,1-10967.959-262.3Zm-4.881.778v-1.409l-2.023-2.617h.582l1.691,2.18,1.68-2.18h.574l-2.02,2.617v1.409Zm-8.16,0v-4.027h3.838v.449h-3.354v1.306h2.842v.449h-2.842v1.375h3.412v.449Z" transform="translate(11533.845 417.054)" fill="#444"/>
    <path id="mark" d="M7.3,23.046a.36.36,0,0,1-.131-.024A11.06,11.06,0,0,1,2.437,19.6a.372.372,0,0,1,.29-.6H4.714a.3.3,0,0,0,.234-.512.3.3,0,0,0-.212-.1H1.8a.373.373,0,0,1-.322-.185,11.254,11.254,0,0,1-.535-1.051.372.372,0,0,1,.19-.49.365.365,0,0,1,.15-.032h5a.3.3,0,0,0,.292-.315.306.306,0,0,0-.294-.294H.792a.373.373,0,0,1-.355-.269A10.124,10.124,0,0,1,.187,14.7a.371.371,0,0,1,.3-.433.4.4,0,0,1,.067-.006H7.3a.3.3,0,1,0,.023-.609H.388A.371.371,0,0,1,.017,13.3C.006,13.1,0,12.892,0,12.685c0-.143,0-.287.008-.429A.37.37,0,0,1,.38,11.9H6.623a.3.3,0,0,0,0-.609H.517a.372.372,0,0,1-.372-.371.378.378,0,0,1,.005-.062c.06-.357.137-.709.229-1.048a.372.372,0,0,1,.358-.273H2.714a.3.3,0,0,0,0-.609H1.2a.372.372,0,0,1-.372-.371.368.368,0,0,1,.03-.145A11.115,11.115,0,0,1,4.252,3.986.364.364,0,0,1,4.3,3.953a2.341,2.341,0,0,0,.436-.334,1.869,1.869,0,0,0,.559-.97A2.528,2.528,0,0,0,4.54.61.372.372,0,0,1,4.825,0H17.244a.372.372,0,0,1,.37.374.374.374,0,0,1-.084.234,2.528,2.528,0,0,0-.758,2.04,1.815,1.815,0,0,0,.557.967,2.334,2.334,0,0,0,.439.336.466.466,0,0,1,.049.033,11.179,11.179,0,0,1,1.6,1.524.371.371,0,0,1-.041.524.373.373,0,0,1-.241.089h-.453a.306.306,0,0,0-.316.294.3.3,0,0,0,.294.315h1.463a.37.37,0,0,1,.316.176,11.1,11.1,0,0,1,.571,1.05.367.367,0,0,1,.015.284.371.371,0,0,1-.35.247H15.858a.3.3,0,0,0,0,.609H21.2a.369.369,0,0,1,.354.259,10.477,10.477,0,0,1,.276,1.05.372.372,0,0,1-.286.44.367.367,0,0,1-.077.008H15.183a.3.3,0,0,0,0,.609h6.48a.373.373,0,0,1,.37.343c.023.286.034.582.034.881v.167a.374.374,0,0,1-.371.366H16.2a.3.3,0,0,0,0,.608H21.59a.374.374,0,0,1,.368.424c-.05.352-.118.705-.2,1.049a.371.371,0,0,1-.362.284H17.769a.3.3,0,1,0-.023.609h3.221a.372.372,0,0,1,.346.506A11.076,11.076,0,0,1,14.9,23.022a.368.368,0,0,1-.129.024H7.3ZM3.542,19.74A10.359,10.359,0,0,0,7.38,22.307l7.33,0a10.357,10.357,0,0,0,5.7-5.365H17.771a1.047,1.047,0,1,1,0-2.095H21.1c.019-.09.037-.18.053-.271H16.2a1.047,1.047,0,0,1,0-2.094h5.129c0-.09,0-.181-.009-.272H15.182a1.047,1.047,0,0,1,0-2.095H21c-.023-.091-.048-.181-.073-.271H15.857a1.048,1.048,0,0,1,0-2.095h4.206q-.075-.136-.154-.271h-1.23a1.047,1.047,0,0,1-.343-2.037,10.371,10.371,0,0,0-.959-.852,3.073,3.073,0,0,1-.563-.433A2.558,2.558,0,0,1,16.04,2.79,2.893,2.893,0,0,1,16.506.741H5.563a2.9,2.9,0,0,1,.467,2.046,2.607,2.607,0,0,1-.773,1.366,3.118,3.118,0,0,1-.57.436A10.4,10.4,0,0,0,1.78,8.181h.935a1.048,1.048,0,0,1,0,2.095H1.028q-.032.135-.061.271H6.624a1.048,1.048,0,0,1,0,2.095H.745v.044c0,.076,0,.151,0,.228H7.3a1.047,1.047,0,0,1,0,2.095H1.006c.021.091.042.181.067.271H6.286a1.048,1.048,0,0,1,.042,2.1H1.871c.047.091.1.181.144.271h2.7a1.047,1.047,0,1,1,0,2.095Z" transform="translate(550.711 124)" fill="#ba8"/>
  </g>
</svg>
