<svg xmlns="http://www.w3.org/2000/svg" width="62.757" height="50" viewBox="0 0 62.757 50">
  <g id="logo_ON-girl_kituke" transform="translate(-53.267 -66.078)">
    <path id="icon" d="M22.753,8.022a.284.284,0,0,0-.214-.1H20.526a1.421,1.421,0,0,1-1.409-1.245L18.883,4.79A3.129,3.129,0,0,0,18.3,3.322l-.8-1.086A3.136,3.136,0,0,0,15.375.991l0,0-1.566-.9A.947.947,0,0,0,13.559,0H9.321a.94.94,0,0,0-.239.084l-1.555.9a3.136,3.136,0,0,0-2.2,1.254l-.8,1.086A3.129,3.129,0,0,0,3.941,4.79L3.706,6.68A1.421,1.421,0,0,1,2.3,7.925H.284A.284.284,0,0,0,0,8.247l.892,6.662a4.842,4.842,0,0,0,4.783,4.186h.386v3.47a.284.284,0,0,0,.284.284H16.476a.284.284,0,0,0,.284-.284v-3.47h.386a4.841,4.841,0,0,0,4.783-4.186l.892-6.662a.283.283,0,0,0-.068-.225M13.767.718l1.074.62-2.9,5.021q-.263,0-.531-.005c-.308,0-.611.005-.907.015ZM13.2.568,11.444,3.607,9.689.568ZM9.121.718l2,3.456L10.4,5.415,8.046,1.338ZM6.064,5.065V18.527H5.677a4.272,4.272,0,0,1-4.221-3.693L.608,8.493H2.3a1.981,1.981,0,0,0,1.238-.434l-.269,2.159.564.07.476-3.827h0l.2-1.6a2.56,2.56,0,0,1,.479-1.2l.8-1.086A2.566,2.566,0,0,1,7.516,1.554l2.557,4.428L9.831,6.4a16.552,16.552,0,0,0-1.953.221,4.942,4.942,0,0,0-1.247.365V5.065ZM8.456,22.281H6.631V13.908H8.456v8.372m7.737,0H9.023V13.908h7.169Zm0-8.94H6.631V11.3H8.036a1.355,1.355,0,0,0,1.035.487,1.322,1.322,0,0,0,.782-.258h.031a1.07,1.07,0,0,0,.658-.229h5.65ZM7.761,10.729H6.631v-.568h1.13a1.37,1.37,0,0,0,0,.568m1.362.485a.77.77,0,0,1-.381-.073.768.768,0,0,1,0-1.392.779.779,0,0,1,.33-.075l.051,0a1.082,1.082,0,0,0,0,1.538m.247-.769a.5.5,0,0,1,.295-.463.519.519,0,0,1,.219-.05.5.5,0,0,1,.273.083v.861a.512.512,0,0,1-.788-.43m6.822.284H10.726v-.568h5.466Zm0-1.136H10.543a1.068,1.068,0,0,0-.688-.228A1.322,1.322,0,0,0,8.5,9.235a1.34,1.34,0,0,0-.466.359H6.631V7.688s.1-.278,1.35-.509a19.982,19.982,0,0,1,3.43-.258,19.98,19.98,0,0,1,3.43.258c1.25.23,1.35.506,1.35.509Zm5.174,5.24a4.272,4.272,0,0,1-4.221,3.693H16.76V5.065h-.568V6.986a4.942,4.942,0,0,0-1.247-.365,17.665,17.665,0,0,0-2.358-.242l2.78-4.815a2.565,2.565,0,0,1,1.673,1.009l.8,1.086a2.561,2.561,0,0,1,.479,1.2l.2,1.6h0l.476,3.827.563-.07-.269-2.159a1.982,1.982,0,0,0,1.238.434h1.689Z" transform="translate(73.234 66.078)" fill="#e39597"/>
    <path id="txt" d="M9.984-20c.774,0,1.853.025,2.539.051v-.863c-.647.025-1.739.051-2.539.051H7.077v-.774h2.31c.584,0,1.472.013,2.018.038v-.838c-.546.013-1.434.038-2.018.038H7.077v-.749H9.9c.673,0,1.688.013,2.285.038v-.85c-.571.025-1.587.051-2.285.051H8.423c.216-.33.317-.5.66-1.066.241-.013.343-.063.343-.152a.178.178,0,0,0-.114-.152l-.889-.381a11.3,11.3,0,0,1-.85,1.752H5.084l.571-.381a6.172,6.172,0,0,0-1.092-1.4l-.609.444a8.835,8.835,0,0,1,.914,1.333H3.345c-.647,0-1.752-.025-2.272-.051v.85c.533-.013,1.65-.038,2.272-.038H6.252v.749H3.916c-.66,0-1.485-.025-2.031-.038v.838c.546-.025,1.371-.038,2.031-.038H6.252v.774H3.32c-.724,0-1.879-.025-2.526-.051v.863C1.479-19.979,2.622-20,3.32-20h.7A9.324,9.324,0,0,1,.54-15.841a3.529,3.529,0,0,1,.432.711,10.267,10.267,0,0,0,2.4-2.171,8.844,8.844,0,0,0,.787-1.1v3.376c0,.622-.013,1.054-.038,1.346h.9v-.47H9.654v.368h.889c-.025-.292-.038-.724-.038-1.32v-2.983c0-.406.025-.889.038-1.117-.279.013-.546.013-.914.013H4.577c.127-.267.241-.546.355-.812Zm-.33,5.09H5.021v-.673H9.654Zm0-1.434H5.021V-17H9.654Zm0-1.409H5.021v-.673H9.654Zm6.233-4.113a20.7,20.7,0,0,0,1.054-2.843c.267-.076.3-.114.3-.216,0-.076-.051-.127-.178-.178l-.85-.343a17.766,17.766,0,0,1-2.589,6.042,2.552,2.552,0,0,1,.52.787,9.788,9.788,0,0,0,1.117-1.955v4.3c0,1.168-.013,2.031-.038,2.6h.914c-.038-.6-.051-1.422-.051-2.6v-3.021c0-1.625.013-1.929.013-2.171.165-.1.241-.178.241-.241s-.076-.127-.2-.14Zm7.108.013c.013-2.4.013-2.424.025-2.843.165-.1.228-.165.228-.241s-.076-.114-.19-.127l-.99-.089c.051.368.076,1.472.076,3.3H18.654c-.571,0-1.295-.013-1.777-.038v.863c.52-.025,1.231-.038,1.777-.038h3.491v5.89c0,.457-.063.52-.5.52-.152,0-.2,0-1.231-.038a1.931,1.931,0,0,1,.241.965,3.926,3.926,0,0,0,1.968-.254c.3-.165.419-.406.419-.939,0-.127-.013-.33-.013-.571-.025-1.307-.038-2.12-.038-2.767v-2.805h.381c.5,0,1.307.025,1.777.038V-21.9c-.444.025-1.257.038-1.777.038Zm-4.95,2.272a17.4,17.4,0,0,1,1.7,2.755l.85-.546a17.06,17.06,0,0,0-1.9-2.691ZM35.232-21.35a20.384,20.384,0,0,0,2.386-.343l-.14-.876a15.546,15.546,0,0,1-2.272.355l-.076-2.234c.2-.14.267-.19.267-.279s-.1-.178-.267-.19l-.965-.038c.051.406.076.635.165,2.831-.5.063-1.993.127-2.856.127-.254,0-.609-.013-.99-.025l.013.914h.228a34.921,34.921,0,0,0,3.656-.152c.013.343.013.762.013,1.5a7.184,7.184,0,0,1-.432,3.123,4.349,4.349,0,0,1-1.993,2.056,1.58,1.58,0,0,1,.508.711A5.47,5.47,0,0,0,34.5-15.791a6.6,6.6,0,0,0,.749-3.859ZM27.717-24.7c-.038.419-.063.622-.127,1.054a25.307,25.307,0,0,0-.394,4.659,21.248,21.248,0,0,0,.394,4.455,4.673,4.673,0,0,1,.9-.254,21.023,21.023,0,0,1-.457-4.684,24.974,24.974,0,0,1,.52-4.608c.241-.1.3-.165.3-.279,0-.076-.089-.152-.216-.178Zm16.21,4.379H42.251q.248-.228.5-.5c.165-.165.317-.33.47-.5h1.168c.368,0,.9.013,1.257.025v-.774c-.355.013-.889.025-1.257.025h-.546a15.225,15.225,0,0,0,1.7-2.615c.267-.076.3-.1.3-.19,0-.063-.063-.127-.178-.178l-.749-.3a18.661,18.661,0,0,1-1.079,1.98v-.622c-.19.013-.52.013-.762.013h-.825v-1c.178-.1.241-.178.241-.254s-.076-.114-.228-.127l-.863-.089c.013.444.025.6.025,1.181v.292H40.119c-.254,0-.571,0-.762-.013v.762c.19-.013.508-.013.762-.013h1.307v1.181H40.131c-.368,0-.9-.013-1.269-.025v.774c.368-.013.9-.025,1.269-.025h2.044c-.33.343-.66.673-1,.99H40.36c-.241,0-.559,0-.749-.013v.724c.178-.013.482-.013.724-.013a16.379,16.379,0,0,1-1.587,1.054,1.791,1.791,0,0,1,.432.635,19.357,19.357,0,0,0,2.31-1.688h1.968a7.85,7.85,0,0,1-1.168,1.079l-.559-.063a7.739,7.739,0,0,1,.1,1.346c-.965.178-1.968.317-3.021.432l.381.876c.038.089.114.152.165.152.089,0,.165-.063.267-.241.355-.076,1.1-.228,2.209-.47v1.333c0,.47-.063.52-.546.52a8.184,8.184,0,0,1-.927-.038,1.911,1.911,0,0,1,.241.965c1.663-.025,2.069-.241,2.069-1.142a1.2,1.2,0,0,0-.013-.178c-.013-.444-.038-1.117-.038-1.346v-.279l.216-.051c1.561-.368,1.65-.355,2.628-.66l-.089-.724c-.9.267-1.8.5-2.742.7,0-.2.013-.393.013-.584a9.877,9.877,0,0,0,1.549-1.333l.114-.114c.368-.063.457-.114.457-.216,0-.051-.025-.089-.089-.165l-.6-.647Zm-1.676-1.714v-1.181h.825c.2,0,.482,0,.673.013a13.588,13.588,0,0,1-.9,1.168Zm7.616.292c.241,0,.571,0,.762.013v-.825c-.19.013-.52.013-.762.013H47.062a20,20,0,0,0,.482-2.3c.19-.089.267-.152.267-.228s-.063-.114-.2-.152l-.812-.19a11.868,11.868,0,0,1-2.234,6.347,3.3,3.3,0,0,1,.533.6,10.713,10.713,0,0,0,1.066-1.676,7.847,7.847,0,0,0,.152.85,13.09,13.09,0,0,0,.762,2.323c.038.076.076.14.114.216-.063.076-.127.14-.19.216a7.958,7.958,0,0,1-3.8,2.12,2.072,2.072,0,0,1,.419.736A13.427,13.427,0,0,0,45.78-14.6a6.883,6.883,0,0,0,1.866-1.434,12,12,0,0,0,2.361,2.272,2.373,2.373,0,0,1,.647-.685,9.278,9.278,0,0,1-2.488-2.234,6.406,6.406,0,0,0,.812-1.612,14.279,14.279,0,0,0,.647-3.453Zm-1.079,0a9.915,9.915,0,0,1-1.079,4.265,14.165,14.165,0,0,1-1.028-3.884c.038-.1.1-.267.14-.381ZM57-24.257H54.538c-.876,0-1.866-.025-2.526-.051.025.457.025.685.025.965v.165c0,.241-.013.6-.038.939h.927c-.013-.3-.025-.724-.025-.939v-.292h9.051v.292c0,.216-.013.635-.025.939h.927c-.025-.343-.038-.7-.038-.939v-.165c0-.279,0-.508.025-.965-.66.025-1.65.051-2.526.051H57.852v-.762c.178-.1.254-.178.254-.254s-.076-.114-.241-.127l-.876-.089c.013.165.013.622.013.812Zm3.085,3.148c.673,0,1.7.025,2.285.051v-.889c-.584.025-1.612.051-2.285.051H54.818c-.66,0-1.739-.025-2.272-.051v.889c.533-.025,1.612-.051,2.272-.051h1.092a18.78,18.78,0,0,1-.876,1.752c-.774.025-1.587.063-2.45.089l.368.914c.063.152.1.2.152.2s.1-.038.178-.114l.114-.114c.622-.063.838-.076,2.97-.254,1.307-.1,2.361-.228,3.973-.444.3.241.635.533,1.054.927L62-18.913a10.6,10.6,0,0,0-3.3-1.968l-.368.609a11.948,11.948,0,0,1,1.155.6c-1.206.114-2.424.2-3.643.267.393-.533.711-1.142,1.066-1.7Zm-3.072,6.22h-2.92c-.736,0-1.853-.025-2.526-.051v.889c.673-.025,1.79-.051,2.526-.051h6.677c.749,0,1.866.025,2.526.051v-.889c-.66.025-1.777.051-2.526.051H57.839v-1.485H60.1c.508,0,1.295.013,1.764.038V-17.2c-.47.025-1.257.038-1.764.038H57.839v-.19c0-.368,0-.432.013-.711.165-.1.241-.178.241-.254s-.076-.114-.228-.127l-.876-.076c.025.432.025.6.025,1.168v.19H54.754c-.533,0-1.282-.013-1.764-.038v.863c.482-.025,1.231-.038,1.764-.038h2.259Z" transform="translate(52.727 129.748)" fill="#e39597"/>
    <path id="ON-girl" d="M-50.992-16.726a2.767,2.767,0,0,0,1.944-.729,2.759,2.759,0,0,0,.778-1.965,2.052,2.052,0,0,0-.611-1.513,2.113,2.113,0,0,0-1.555-.583,2.624,2.624,0,0,0-1.9.729,2.569,2.569,0,0,0-.791,1.923,2.146,2.146,0,0,0,.6,1.534A2.077,2.077,0,0,0-50.992-16.726Zm.5-4.3a1.641,1.641,0,0,1,1.2.472,1.732,1.732,0,0,1,.486,1.236,2.231,2.231,0,0,1-.632,1.555,2.14,2.14,0,0,1-1.5.555,1.581,1.581,0,0,1-1.18-.472,1.8,1.8,0,0,1-.479-1.277,2.048,2.048,0,0,1,.639-1.52A2.148,2.148,0,0,1-50.492-21.03Zm4.089,4.221.437-3.589,3.145,3.8.6-4.839h-.514l-.444,3.6-3.145-3.8-.59,4.825Zm5.4-1.916h1.527l.062-.514h-1.527Zm5.4-.449a.969.969,0,0,0-.361-.34,1.347,1.347,0,0,0-.639-.139,1.423,1.423,0,0,0-1.069.423,1.843,1.843,0,0,0-.465,1.264,1.351,1.351,0,0,0,.361.979,1.239,1.239,0,0,0,.951.368,1.306,1.306,0,0,0,.555-.125,1.03,1.03,0,0,0,.41-.361l-.042.417a1.369,1.369,0,0,1-.319.882,1,1,0,0,1-.729.257.854.854,0,0,1-.6-.2.822.822,0,0,1-.229-.646v-.028h-.493v.042a1.334,1.334,0,0,0,.326.937,1.312,1.312,0,0,0,.972.34,1.5,1.5,0,0,0,1.125-.417,2,2,0,0,0,.451-1.25l.34-2.812h-.5Zm-.944-.035a.79.79,0,0,1,.6.243,1.067,1.067,0,0,1,.25.694,1.371,1.371,0,0,1-.368.958,1.036,1.036,0,0,1-.708.25.8.8,0,0,1-.59-.229A1,1,0,0,1-37.614-18a1.275,1.275,0,0,1,.375-.944A.975.975,0,0,1-36.545-19.208Zm3.131-.482-.354,2.881h.5l.354-2.881Zm.028-1.048a.3.3,0,0,0,.083.215.315.315,0,0,0,.236.1.372.372,0,0,0,.278-.118.38.38,0,0,0,.111-.278.309.309,0,0,0-.09-.229.293.293,0,0,0-.222-.083.38.38,0,0,0-.3.132A.408.408,0,0,0-33.386-20.738Zm1.578,5.638h.5l.365-3.123a1.334,1.334,0,0,1,.285-.805.518.518,0,0,1,.382-.153.468.468,0,0,1,.3.1l.292-.451a.743.743,0,0,0-.423-.118.808.808,0,0,0-.417.1.806.806,0,0,0-.292.278l.042-.312h-.5Zm3.552-6.77-.625,5.061h.5l.625-5.061Z" transform="translate(125.088 115.027)" fill="#666"/>
  </g>
</svg>
