<svg xmlns="http://www.w3.org/2000/svg" width="50.956" height="52.514" viewBox="0 0 50.956 52.514">
  <g id="logo_money" transform="translate(-497 -451.709)">
    <path id="logo_EYS" d="M-10969.9-262.812l.289-.309a2.472,2.472,0,0,0,1.737.632c.827,0,1.313-.26,1.313-.686s-.5-.519-1.431-.6-1.792-.279-1.792-.955c0-.646.813-1.013,1.729-1.013a2.632,2.632,0,0,1,1.753.612l-.322.274a2.008,2.008,0,0,0-1.411-.5c-.612-.005-1.327.166-1.327.617,0,.426.647.514,1.456.578,1.042.083,1.767.284,1.767.96,0,.632-.642,1.1-1.757,1.1A3.01,3.01,0,0,1-10969.9-262.812Zm-4.153.663v-1.2l-1.724-2.228h.5l1.438,1.856,1.431-1.856h.489l-1.72,2.228v1.2Zm-6.947,0v-3.428h3.268v.382h-2.855v1.112h2.419v.382h-2.419v1.17h2.9v.382Z" transform="translate(11496.166 741.053)" fill="#444"/>
    <path id="Path_232552" data-name="Path 232552" d="M9.043-16.423a17.269,17.269,0,0,0-1.711-1.853,9.093,9.093,0,0,0,4.2-5.483H1.86v1.384H9.348a8.2,8.2,0,0,1-3.041,3.15,16.022,16.022,0,0,0-1.9-1.439l-1.079.981a22.443,22.443,0,0,1,4.382,4.316Zm8.731-2.823a12.118,12.118,0,0,0,2.9-2.769v-1.264h-2.9V-24.63H16.3v1.352H12.88v1.352l6.017-.022a13.548,13.548,0,0,1-6.823,3.837l.643,1.253A18.635,18.635,0,0,0,16.3-18.341v3.335h1.471Zm4.36,1.264a17.66,17.66,0,0,0-3.117-1.7l-.937,1.046a15.419,15.419,0,0,1,3.183,1.929Zm.381-2.616v1.548h9.657V-20.6Z" transform="translate(505.313 507.21)" fill="#8dd"/>
    <path id="Path_232551" data-name="Path 232551" d="M-10974.674-579.543a.335.335,0,0,1-.326-.327.335.335,0,0,1,.326-.326h18.943a.336.336,0,0,1,.328.326.336.336,0,0,1-.328.327Zm.727-1.089a.335.335,0,0,1-.328-.327.335.335,0,0,1,.328-.326h17.492a.335.335,0,0,1,.326.326.335.335,0,0,1-.326.327Zm.725-1.089a.335.335,0,0,1-.326-.326.335.335,0,0,1,.326-.327h16.041a.333.333,0,0,1,.326.327.333.333,0,0,1-.326.326Zm14.953-1.415v-10.089a.335.335,0,0,1,.326-.326.336.336,0,0,1,.328.326v10.089a.336.336,0,0,1-.328.326A.335.335,0,0,1-10958.27-583.135Zm-2.9,0v-10.089a.335.335,0,0,1,.326-.326.335.335,0,0,1,.328.326v10.089a.335.335,0,0,1-.328.326A.335.335,0,0,1-10961.174-583.135Zm-8.709,0v-10.089a.335.335,0,0,1,.326-.326.335.335,0,0,1,.326.326v10.089a.335.335,0,0,1-.326.326A.335.335,0,0,1-10969.883-583.135Zm-2.9,0v-10.089a.335.335,0,0,1,.328-.326.335.335,0,0,1,.326.326v10.089a.335.335,0,0,1-.326.326A.335.335,0,0,1-10972.787-583.135Zm7.26-2.25v-.871h-1.2a.335.335,0,0,1-.328-.327.335.335,0,0,1,.328-.326h1.2v-.435h-1.2a.336.336,0,0,1-.328-.327.336.336,0,0,1,.328-.327h1.131l-1.633-2.417a.322.322,0,0,1,.086-.457.322.322,0,0,1,.457.087l1.482,2.2,1.459-2.2a.322.322,0,0,1,.457-.087.293.293,0,0,1,.086.436l-1.609,2.438h1.131a.335.335,0,0,1,.326.327.335.335,0,0,1-.326.327h-1.2v.435h1.2a.335.335,0,0,1,.326.326.335.335,0,0,1-.326.327h-1.2v.871a.335.335,0,0,1-.326.327A.333.333,0,0,1-10965.527-585.386Zm-9.146-8.6a.309.309,0,0,1-.3-.24.325.325,0,0,1,.152-.37l9.473-4.355a.3.3,0,0,1,.326,0l9.449,4.333a.341.341,0,0,1,.2.3.375.375,0,0,1-.35.327Zm1.176-.654h16.57l-8.273-3.658Z" transform="translate(11487.624 1051.222)" fill="#8dd" stroke="rgba(0,0,0,0)" stroke-miterlimit="10" stroke-width="1"/>
    <path id="Path_233382" data-name="Path 233382" d="M87.54-25.217v1.373h7.521a4.079,4.079,0,0,1-2.333,2.4l1,1.112a6.027,6.027,0,0,0,3.248-4.883Zm1.2,9.112c3.041-1.417,3.837-3.728,3.924-6.823L91.1-22.95c.011,3.728-1.243,4.894-3.3,5.7ZM102.7-23.659c.087-1.035.1-1.4.109-1.94l-1.515-.022c0,.458,0,1.112-.065,1.962H98.243V-22.3h2.834a6.214,6.214,0,0,1-3.346,5.068l1,1.079a7.906,7.906,0,0,0,3.8-6.147h2.8v.632a21.08,21.08,0,0,1-.272,3.564c-.1.316-.305.469-.828.469a9.153,9.153,0,0,1-1.7-.185l.044,1.439a16.647,16.647,0,0,0,1.995.174,1.686,1.686,0,0,0,1.831-1.188,21.555,21.555,0,0,0,.392-4.73v-1.537Zm6.4-1.6v1.308h6.823v-.316a3.232,3.232,0,0,0-.153-.992Zm8.011.828a8.685,8.685,0,0,0-.36-1.624l-.839.131a9.008,9.008,0,0,1,.316,1.646Zm-8.72,1.951v1.341h4.142l-.011.272c-.109,2.649-1.537,3.15-3.717,3.455l.61,1.319c2.136-.425,4.338-1.155,4.611-4.763l.022-.283h3.51v-1.341Zm9.951-2.082a8.914,8.914,0,0,0-.414-1.657l-.817.142a8.838,8.838,0,0,1,.381,1.679Zm8.633.1a33.593,33.593,0,0,0-7.161-.981l-.272,1.308a29.454,29.454,0,0,1,7.139,1.166Zm-.621,3.259a26.058,26.058,0,0,0-6.54-1.1l-.294,1.33a26,26,0,0,1,6.529,1.188Zm1.286,3.64a33.665,33.665,0,0,0-8.48-1.264l-.294,1.384a27.971,27.971,0,0,1,8.338,1.428Zm1.2-4.044v1.548H138.5v-1.548Z" transform="translate(409.46 520.241)" fill="#8dd"/>
  </g>
</svg>
