<svg xmlns="http://www.w3.org/2000/svg" width="42.487" height="52" viewBox="0 0 42.487 52">
  <g id="logo_hoken" transform="translate(-511.111 -636.622)">
    <path id="logo_EYS" d="M-10969.39-262.677l.3-.323a2.585,2.585,0,0,0,1.818.661c.865,0,1.373-.271,1.373-.717s-.528-.543-1.5-.625-1.875-.292-1.875-1c0-.676.852-1.06,1.809-1.06a2.748,2.748,0,0,1,1.833.641l-.337.287a2.1,2.1,0,0,0-1.474-.528c-.643-.005-1.391.174-1.391.646,0,.446.677.538,1.523.6,1.09.087,1.848.3,1.848,1,0,.661-.671,1.147-1.837,1.147A3.156,3.156,0,0,1-10969.39-262.677Zm-4.343.693v-1.255l-1.8-2.331h.516l1.506,1.942,1.5-1.942h.512l-1.8,2.331v1.255Zm-7.269,0v-3.586h3.418v.4h-2.987v1.163h2.53v.4h-2.53v1.224h3.038v.4Z" transform="translate(11505.582 923.765)" fill="#444"/>
    <path id="Path_232559" data-name="Path 232559" d="M4.012-15.33A8.472,8.472,0,0,0,6.76-18.044v3.181H8.117v-3.216a9.4,9.4,0,0,0,2.554,2.839L11.5-16.5a8.454,8.454,0,0,1-2.691-2.68h2.5v-1.289H8.117v-.946h2.611v-3.854H4.206v3.854H6.76v.946H3.567v1.289H6.1a7.816,7.816,0,0,1-2.908,2.611ZM9.36-24.042v1.414H5.585v-1.414ZM1.526-14.863H2.894v-7.822A14.088,14.088,0,0,0,3.6-25.49l-1.414-.16A9.122,9.122,0,0,1,.42-21.294l.49,1.9c.262-.274.353-.376.616-.7ZM16.92-22.081h1.517v.707H16V-17.8h1.9a3.921,3.921,0,0,1-2.816,1.688l.65,1.3a5.311,5.311,0,0,0,3.341-2.554,5.243,5.243,0,0,0,3.25,2.6l.593-1.323a4.042,4.042,0,0,1-2.737-1.71h2.167v-3.569H19.7v-.707h1.574v-.753c.49.3.741.433,1.026.582l.639-1.243a8.4,8.4,0,0,1-3.033-2.087H18.425a8.586,8.586,0,0,1-2.862,2.041c.046-.171.057-.251.125-.479v-1.231H12.267v10.388h1.266v-9.156h.958a14.667,14.667,0,0,1-.832,2.668,3.3,3.3,0,0,1,.9,2.281c0,.65-.228.707-.479.707h-.433L13.864-17h.513c.445,0,1.368,0,1.368-1.836a4.333,4.333,0,0,0-.878-2.668,11.481,11.481,0,0,0,.547-1.562l.479.832a7.042,7.042,0,0,0,1.026-.536Zm2.782,1.79h1.38v1.346H19.611a4.923,4.923,0,0,0,.091-.924Zm-1.266.342a4.626,4.626,0,0,1-.091,1H17.216v-1.346h1.22Zm-.81-3.3a7.18,7.18,0,0,0,1.528-1.38,9.755,9.755,0,0,0,1.505,1.38Z" transform="translate(520.674 691.277)" fill="#47b"/>
    <path id="Path_232558" data-name="Path 232558" d="M-10965.716-576.416a5.793,5.793,0,0,1-1.555-.794,3.466,3.466,0,0,1-1.606-2.859c0-.688-.007-1.189-.014-1.556-.02-.917-.026-1.163.256-1.445.059-.059.237-.234,1.471-.669a7.432,7.432,0,0,1,1.579-.426,7.74,7.74,0,0,1,1.54.424c1.248.44,1.415.615,1.474.673.278.28.273.522.258,1.425l0,.155c0,.353-.015.814-.015,1.421a3.474,3.474,0,0,1-1.595,2.854,5.8,5.8,0,0,1-1.567.8.354.354,0,0,1-.108.018A.4.4,0,0,1-10965.716-576.416Zm.087-6.957a12.834,12.834,0,0,0-2.413.839l-.051.024-.012.059c-.013.107-.011.341,0,.665l0,.15c.01.37.019.874.019,1.571,0,1.779,1.875,2.628,2.45,2.845l.038.015.035-.015c.576-.217,2.449-1.063,2.449-2.845,0-.547.01-.973.015-1.31l0-.363c0-.347.009-.6,0-.709l-.009-.059-.053-.025a12.973,12.973,0,0,0-2.417-.842l-.026-.006Zm-.354,4.29v-.951h-.947a.38.38,0,0,1-.382-.38.379.379,0,0,1,.382-.38h.947v-.951a.382.382,0,0,1,.382-.38.38.38,0,0,1,.38.38v.951h.951a.379.379,0,0,1,.378.38.38.38,0,0,1-.378.38h-.951v.951a.38.38,0,0,1-.38.38A.383.383,0,0,1-10965.982-579.083Zm-6.187-1.314a.394.394,0,0,1-.16-.033,4.561,4.561,0,0,1-2.669-4.135,4.318,4.318,0,0,1,4.033-4.509l.09-.008.008-.086a5.978,5.978,0,0,1,1.148-2.837,4.97,4.97,0,0,1,3.969-1.994l.146,0,.15,0a4.97,4.97,0,0,1,3.969,1.994,5.855,5.855,0,0,1,1.141,2.833l.013.087.088.007a4.492,4.492,0,0,1,2.718,1.187,4.469,4.469,0,0,1,1.316,3.322,4.547,4.547,0,0,1-2.665,4.135.378.378,0,0,1-.162.037.393.393,0,0,1-.355-.226.391.391,0,0,1,.192-.522,3.758,3.758,0,0,0,2.207-3.419,3.707,3.707,0,0,0-1.076-2.756,3.754,3.754,0,0,0-2.544-.993h-.1a.391.391,0,0,1-.387-.392,4.974,4.974,0,0,0-1.014-2.828,4.223,4.223,0,0,0-3.364-1.681c-.043,0-.084,0-.13,0s-.082,0-.128,0a4.216,4.216,0,0,0-3.361,1.682,4.993,4.993,0,0,0-1.013,2.821.4.4,0,0,1-.395.4h-.056a3.83,3.83,0,0,0-2.575.994,3.723,3.723,0,0,0-1.081,2.759,3.764,3.764,0,0,0,2.208,3.414.39.39,0,0,1,.205.219.38.38,0,0,1-.012.3.388.388,0,0,1-.355.232Z" transform="translate(11497.956 1230.623)" fill="#47b"/>
    <path id="Path_233383" data-name="Path 233383" d="M66.817-23.465a9.641,9.641,0,0,0,.639-1.323l-1.619-.262a8.115,8.115,0,0,1-3.706,4.424L63.156-19.5a9.848,9.848,0,0,0,2.714-2.554h3.82c-1.129,4.185-3.649,5.245-6.887,5.713l.627,1.38c6.055-.821,7.617-4.823,8.21-8.506Zm7.127-1v1.425h7.845v-1.425Zm-.81,2.7v1.425h7.514c-.365,1.676-1.163,3.729-6.18,3.957l.445,1.414c5.975-.513,7.15-3.227,7.537-6.8Zm14.744-3.113V-23.2H84.229v3.991h1.482v-2.6h5.827a7.711,7.711,0,0,1-.547,2.566c-.878,2.212-3.58,2.725-5.667,2.885l.49,1.448c4.014-.376,7.172-1.973,7.309-7.378l.023-.912H89.394v-1.676Zm9.464-.011v10.057h1.631v-5.622a30,30,0,0,1,4.858,2.429l.753-1.6a35.736,35.736,0,0,0-5.61-2.44V-24.89Zm5.69,2.121a9.72,9.72,0,0,0-.969-1.688l-.9.445a10.37,10.37,0,0,1,.958,1.722Zm1.585-.7a9.945,9.945,0,0,0-1-1.585l-.878.433a11.27,11.27,0,0,1,.946,1.642Z" transform="translate(448.981 703.456)" fill="#47b"/>
  </g>
</svg>
