<svg xmlns="http://www.w3.org/2000/svg" width="47.682" height="40" viewBox="0 0 47.682 40">
  <path id="logo" d="M-685-120.12h2.016v7.443l5.879-1.968.623,1.846L-685-110Zm34.886,9.362,3.63-9.643,1.857.611-3.679,9.753Zm-10.1-1.185a13.983,13.983,0,0,0,1.54-.611,9.749,9.749,0,0,0,4.669-6.33,5.9,5.9,0,0,0,.276-1.288l1.948.408a13.723,13.723,0,0,1-2.566,6.074,10.288,10.288,0,0,1-5.145,3.6Zm-13.073.665,5.173-6.47h-5.426v-1.857h9.435l-3.5,4.277a7.046,7.046,0,0,0,3.825,3.349l-.807,1.735c-2.041-.941-3.08-1.491-4.3-3.532l-2.957,3.654Zm29.337-5.915,1.857-.611,3.024,6.669-1.809.721Zm2.917-.367v-2.2h1.484v2.2Zm2.229-.886v-2.2h1.485v2.2Zm-25.755-9.438-4.942-2.823-.023.02c-.13-.109-.662-.413-2.426-1.421l-1.755-1v-12.532l7.58-4.358,4.768,2.725L-656.59-150l7.579,4.329v12.561l-6.667,3.808-.062.037-3.878,2.216-1.736.945Zm-6.8-5.667,4.945,2.822-.02,0a.532.532,0,0,1,.128.059l.04.024,2.258,1.288.1.057.064.039.051.03c.007,0,.022.011,1.655.919,0-.316,0-9.563,0-9.864Zm10.769,5.239,4.131-2.326.12-.071,4.978-2.841-9.227-4.621C-660.586-137.872-660.588-128.631-660.588-128.313Zm8.63-14.774-.11.064-.041.021-6.851,3.912,8.4,4.208v-9.006Zm-20.2,8.2,8.4-4.208-8.4-4.8Z" transform="translate(685 150)" fill="#222"/>
</svg>
