<svg xmlns="http://www.w3.org/2000/svg" width="156.629" height="32" viewBox="0 0 156.629 32">
  <path id="logo" d="M-740.993,17.984l-10.949-6.322a.115.115,0,0,1-.058-.1V-1.077a.113.113,0,0,1,.058-.1l10.72-6.19a.116.116,0,0,1,.114,0,.116.116,0,0,1,.057.1V5.244a.117.117,0,0,0,.056.1l10.836,6.256a.112.112,0,0,1,.057.1.118.118,0,0,1-.057.1l-10.722,6.189a.114.114,0,0,1-.056.015A.116.116,0,0,1-740.993,17.984Zm138.172-5.076.035-2.021a5.043,5.043,0,0,0,.741.066c.861,0,1.271-.334,1.555-1.962l-2.889-13.4h2.412c.757,4.419,1.471,8.575,1.581,10.173h.059c.242-2.165.9-5.39,1.7-10.173h2.258l-2.886,13.55c-.79,3.662-2.026,3.867-3.473,3.867A7,7,0,0,1-602.821,12.908ZM-729.535,11.58a.115.115,0,0,1-.079-.032.113.113,0,0,1-.034-.082V-1.21a.113.113,0,0,0-.059-.1l-10.975-6.338a.114.114,0,0,1-.053-.07.111.111,0,0,1,.013-.088A12.87,12.87,0,0,1-729.762-14,12.805,12.805,0,0,1-716.971-1.21a12.851,12.851,0,0,1-12.561,12.79Zm52.427-7.358V-4.264c0-2.63,1.166-4.246,3.646-4.246,3.006,0,3.566,2.049,3.566,4.318v.711h-2.263v-.943c0-1.2-.239-2.036-1.317-2.036-1.041,0-1.341.774-1.341,2.059V4.4c0,1.342.282,2.3,1.381,2.3s1.334-.906,1.334-2.293V3.567h2.282v.617c0,2.008-.347,4.546-3.677,4.546C-676.517,8.73-677.108,6.74-677.108,4.222Zm45.2,1.142V-4.408h2.25V4.778c0,1.33.372,1.9,1.22,1.9.866,0,1.4-.535,1.4-2.542v-8.54h2.248V4.844c0,1.8,0,3,.026,3.65h-2.146A10.132,10.132,0,0,1-627,7.222a2.223,2.223,0,0,1-2.37,1.473C-630.509,8.695-631.911,8.187-631.911,5.364Zm-36.438-.755V-.652c0-2.666,1.471-3.958,3.654-3.958,2.266,0,3.56,1.427,3.56,4.039V4.57c0,2.78-1.353,4.125-3.636,4.125C-667.109,8.695-668.349,7.336-668.349,4.608Zm2.256-5.289V4.686c0,1.194.381,2.012,1.365,2.012.918,0,1.338-.658,1.338-2.047V-.7c0-1.11-.332-1.915-1.348-1.915C-665.681-2.612-666.093-1.932-666.093-.68Zm-23.486,5.09V-.741c0-2.259.876-3.87,2.938-3.87a2.185,2.185,0,0,1,2.028.934V-9.01h2.25V5.022c0,1.786,0,2.762.025,3.473h-2.146c-.042-.29-.084-1-.084-1.245a2.252,2.252,0,0,1-2.266,1.445C-689.093,8.695-689.579,6.9-689.579,4.409ZM-687.323-.6V4.556c0,1.38.334,2.11,1.285,2.11,1.175,0,1.424-1.086,1.424-2.687V-.106c0-1.406-.133-2.474-1.385-2.474C-686.965-2.58-687.323-1.816-687.323-.6Zm79.088,6.639V-2.429h-1.416V-4.408h1.416V-7.537h2.241v3.129h1.7v1.979h-1.7V5.632c0,.634.1,1.182.89,1.182a3.221,3.221,0,0,0,.747-.076V8.449a3.989,3.989,0,0,1-1.5.232C-607.317,8.681-608.235,8.162-608.235,6.036Zm-4.871,2.458v-12.9h2.249v12.9Zm-4.5,0V-.878c0-1.2-.41-1.7-1.213-1.7-.982,0-1.474.506-1.474,2.547V8.495h-2.25V-.451c0-2.607,0-3.351-.024-3.958h2.146a9.577,9.577,0,0,1,.083,1.222,2.382,2.382,0,0,1,2.374-1.424c1.5,0,2.606.892,2.606,3.3v9.8Zm-18.8,0V-1.026c0-.947-.222-1.554-1.062-1.554-1.031,0-1.27.858-1.27,2.18V8.495H-641V-.946c0-1.266-.351-1.634-1.075-1.634-1.027,0-1.254.872-1.254,2.2V8.495h-2.25V-.679c0-2.473,0-3.13-.024-3.73h2.143a8.057,8.057,0,0,1,.086,1.166,2.333,2.333,0,0,1,2.242-1.369,1.92,1.92,0,0,1,2.042,1.434,2.6,2.6,0,0,1,2.438-1.434c1.342,0,2.5.65,2.5,3.157V8.495Zm-13.677,0V-1.026c0-.947-.221-1.554-1.061-1.554-1.031,0-1.27.858-1.27,2.18V8.495h-2.267V-.946c0-1.266-.35-1.634-1.075-1.634-1.027,0-1.255.872-1.255,2.2V8.495h-2.25V-.679c0-2.473,0-3.13-.025-3.73h2.146a8.361,8.361,0,0,1,.085,1.166,2.334,2.334,0,0,1,2.242-1.369,1.919,1.919,0,0,1,2.042,1.434,2.6,2.6,0,0,1,2.438-1.434c1.342,0,2.5.65,2.5,3.157V8.495Zm-43.64,0V-.878c0-1.2-.41-1.7-1.211-1.7-.983,0-1.476.506-1.476,2.547V8.495h-2.248V-.451c0-2.607,0-3.351-.026-3.958h2.146a9.426,9.426,0,0,1,.085,1.222,2.379,2.379,0,0,1,2.372-1.424c1.505,0,2.607.892,2.607,3.3v9.8Zm-13.651,0V8.214c.017-2.879,1.217-4.871,2.994-7.434,1.34-1.913,1.768-2.577,1.768-4.392,0-1.775-.233-2.52-1.269-2.52-.948,0-1.312.726-1.312,2.07v.811h-2.081v-.879c0-1.84.582-3.894,3.494-3.894,2.7,0,3.43,1.782,3.43,4.281,0,2.581-.78,3.635-2.115,5.475-1.3,1.816-2.276,3.47-2.4,4.818h4.848l-.309,1.945Zm94.281-14.813V-9.01h2.249v2.692Z" transform="translate(752 14)" fill="#333"/>
</svg>
