<svg xmlns="http://www.w3.org/2000/svg" xmlns:xlink="http://www.w3.org/1999/xlink" width="88.717" height="40" viewBox="0 0 88.717 40">
  <defs>
    <linearGradient id="linear-gradient" x1="1" y1="0.5" x2="0" y2="0.5" gradientUnits="objectBoundingBox">
      <stop offset="0" stop-color="#6cb8f0"/>
      <stop offset="1" stop-color="#d289ff"/>
    </linearGradient>
  </defs>
  <g id="logo_SQSQ" transform="translate(40.1 -18.599)">
    <path id="Path_1" data-name="Path 1" d="M-67.374-42.842A8.4,8.4,0,0,0-73.6-45.467c-3.986,0-7.583,2.819-7.583,7.129,0,2.852,1.653,5.736,4.569,6.449l4.051,1.167a1.927,1.927,0,0,1,1.393,1.912c0,1.361-1.393,2.236-3.305,2.236a5.311,5.311,0,0,1-3.273-1.134l-1.588,1.167a6.791,6.791,0,0,0,4.861,1.912c2.819,0,5.25-1.588,5.25-4.051a4.005,4.005,0,0,0-2.657-3.889l-4.051-1.069a4.812,4.812,0,0,1-3.305-4.8c0-3.046,2.625-5.088,5.606-5.088a6.505,6.505,0,0,1,4.7,1.944Zm-2.268,1.88a5.51,5.51,0,0,0-3.889-1.588c-2.5,0-4.7,1.62-4.7,4.116a3.951,3.951,0,0,0,2.657,3.856l4.051,1.069a4.826,4.826,0,0,1,3.273,4.861c0,3.046-2.884,4.991-6.19,4.991a8.081,8.081,0,0,1-5.574-2.2L-81.6-24.695a9.657,9.657,0,0,0,7.259,2.981c4.278,0,8.069-2.819,8.069-7.065,0-2.852-1.653-5.768-4.569-6.481l-4.083-1.167a1.863,1.863,0,0,1-1.393-1.88,2.4,2.4,0,0,1,2.69-2.3,3.541,3.541,0,0,1,2.5.907Zm5.4,4.688A11.88,11.88,0,0,0-52.348-24.381,11.914,11.914,0,0,0-49.3-24.8l7.648,7.648,1.361-1.393-6.967-6.967c.292-.13.583-.292.875-.454l6.773,6.74,1.393-1.361L-44.733-27.1a11.934,11.934,0,0,0,4.31-9.171A11.935,11.935,0,0,0-52.348-48.2,11.908,11.908,0,0,0-64.241-36.275Zm1.944,0a9.958,9.958,0,0,1,9.949-9.981,9.985,9.985,0,0,1,9.981,9.981,9.958,9.958,0,0,1-9.981,9.949A9.93,9.93,0,0,1-62.3-36.275Zm.972,0A8.976,8.976,0,0,0-52.348-27.3a9,9,0,0,0,9.009-8.977,9.031,9.031,0,0,0-9.009-9.009A9,9,0,0,0-61.325-36.275Zm1.912,0a7.053,7.053,0,0,1,7.032-7.065,7.081,7.081,0,0,1,7.065,7.065,7.053,7.053,0,0,1-7.065,7.032A7.026,7.026,0,0,1-59.413-36.275Zm37.375-6.568a8.4,8.4,0,0,0-6.222-2.625c-3.986,0-7.583,2.819-7.583,7.129,0,2.852,1.653,5.736,4.569,6.449l4.051,1.167a1.927,1.927,0,0,1,1.393,1.912c0,1.361-1.393,2.236-3.305,2.236a5.311,5.311,0,0,1-3.273-1.134L-34-26.542a6.791,6.791,0,0,0,4.861,1.912c2.819,0,5.25-1.588,5.25-4.051a4.005,4.005,0,0,0-2.657-3.889l-4.051-1.069a4.812,4.812,0,0,1-3.305-4.8c0-3.046,2.625-5.088,5.606-5.088a6.505,6.505,0,0,1,4.7,1.944Zm-2.268,1.88a5.51,5.51,0,0,0-3.889-1.588c-2.5,0-4.7,1.62-4.7,4.116a3.951,3.951,0,0,0,2.657,3.856l4.051,1.069a4.826,4.826,0,0,1,3.273,4.861c0,3.046-2.884,4.991-6.19,4.991a8.081,8.081,0,0,1-5.574-2.2l-1.588,1.167A9.657,9.657,0,0,0-29-21.713c4.278,0,8.069-2.819,8.069-7.065,0-2.852-1.653-5.768-4.569-6.481l-4.083-1.167a1.863,1.863,0,0,1-1.393-1.88,2.4,2.4,0,0,1,2.69-2.3,3.541,3.541,0,0,1,2.5.907Zm5.4,4.688A11.88,11.88,0,0,0-7.012-24.381,11.914,11.914,0,0,0-3.966-24.8l7.648,7.648,1.361-1.393-6.967-6.967c.292-.13.583-.292.875-.454l6.773,6.74L7.117-20.59.6-27.1a11.934,11.934,0,0,0,4.31-9.171A11.935,11.935,0,0,0-7.012-48.2,11.908,11.908,0,0,0-18.9-36.275Zm1.944,0a9.958,9.958,0,0,1,9.949-9.981,9.985,9.985,0,0,1,9.981,9.981,9.958,9.958,0,0,1-9.981,9.949A9.93,9.93,0,0,1-16.961-36.275Zm.972,0A8.976,8.976,0,0,0-7.012-27.3,9,9,0,0,0,2-36.275a9.031,9.031,0,0,0-9.009-9.009A9,9,0,0,0-15.988-36.275Zm1.912,0a7.053,7.053,0,0,1,7.032-7.065A7.081,7.081,0,0,1,.02-36.275a7.053,7.053,0,0,1-7.065,7.032A7.026,7.026,0,0,1-14.076-36.275Z" transform="translate(41.5 75.754)" fill="url(#linear-gradient)"/>
    <path id="Path_2" data-name="Path 2" d="M-65.229-5.555a14.274,14.274,0,0,0-2.117-2.17,9.429,9.429,0,0,0,1.27-3h-5.331v1.308h3.44A7.031,7.031,0,0,1-72-5.646l.839,1.149a8.65,8.65,0,0,0,2.994-2.17,12.671,12.671,0,0,1,1.868,2.072ZM-48.16-4.391c2.843-1.119,4.189-3.41,4.484-6.389h-4.393a6.97,6.97,0,0,1-1.936,2.344l1.013.87a7.769,7.769,0,0,0,1.747-1.951h1.921a5.452,5.452,0,0,1-3.75,4.023Zm26.7-1.164a14.274,14.274,0,0,0-2.117-2.17,9.428,9.428,0,0,0,1.27-3h-5.331v1.308h3.44a7.031,7.031,0,0,1-4.03,3.773l.839,1.149a8.65,8.65,0,0,0,2.994-2.17,12.671,12.671,0,0,1,1.868,2.072ZM-4.39-4.391C-1.547-5.51-.2-7.8.094-10.78H-4.3A6.97,6.97,0,0,1-6.235-8.436l1.013.87A7.769,7.769,0,0,0-3.475-9.517h1.921a5.452,5.452,0,0,1-3.75,4.023Z" transform="translate(37.083 29.379)" fill="#888"/>
  </g>
</svg>
