<svg id="logo" xmlns="http://www.w3.org/2000/svg" width="178.311" height="50" viewBox="0 0 178.311 50">
  <g id="Group_84" data-name="Group 84">
    <path id="Path_415" data-name="Path 415" d="M151.549,565.45a20.169,20.169,0,0,1,4.948-2.256,15.478,15.478,0,0,1,2.788-.6,10.508,10.508,0,0,1,3.805.143,9.334,9.334,0,0,1,3.235,1.384c1.483.955,1.836,1.742,3,2.492a6.271,6.271,0,0,0,3.268,1.1,4.665,4.665,0,0,0,4.294-2.224,3.247,3.247,0,0,0,.442-1.7,3.979,3.979,0,0,0-1.32-2.852,8.857,8.857,0,0,0-2.756-1.737A15.312,15.312,0,0,0,167.565,558a21.021,21.021,0,0,0-10.665,3.259A32.736,32.736,0,0,0,151.549,565.45Z" transform="translate(-126.702 -546.239)" fill="#51a9bd"/>
    <path id="Path_416" data-name="Path 416" d="M157.4,576.089a12.633,12.633,0,0,1,4.473-1.87,7.739,7.739,0,0,1,2.494-.077,7.293,7.293,0,0,1,1.4.346,4.7,4.7,0,0,1,2.808,2.09,1.881,1.881,0,0,1-.208,1.809,1.414,1.414,0,0,1-1.034.716,2.2,2.2,0,0,1-1.38-.474,18.461,18.461,0,0,1-1.471-1.252,13.894,13.894,0,0,0-1.552-1.238,3.29,3.29,0,0,0-.909-.353,8.023,8.023,0,0,0-4.624.3Z" transform="translate(-129.978 -555.24)" fill="#51a9bd"/>
    <path id="Path_417" data-name="Path 417" d="M129.165,547.944a22.211,22.211,0,0,0,.263-8.7,11.22,11.22,0,0,0-1.852-4.429,8.739,8.739,0,0,0-2.954-2.575,6.852,6.852,0,0,0-3.417-.954,2.51,2.51,0,0,0-1.381.483,3.441,3.441,0,0,0-1.264,2.846,4.668,4.668,0,0,0,.856,2.581,2.447,2.447,0,0,0,1.12.9,24.894,24.894,0,0,1,2.727.963A11.431,11.431,0,0,1,126,540.727a8.305,8.305,0,0,1,1.415,1.553,8.9,8.9,0,0,1,1.062,1.957A11.7,11.7,0,0,1,129.165,547.944Z" transform="translate(-108.234 -531.284)" fill="#51a9bd"/>
    <path id="Path_418" data-name="Path 418" d="M144.59,623.73l1.384,1.012a11.6,11.6,0,0,1-2.936,3.884c-2.153,1.923-5.973,4.409-12.934,4.409a24.552,24.552,0,0,1-5.916-.6,15.924,15.924,0,0,1-7.419-3.794,11.1,11.1,0,0,1-1.8-2.057,5.96,5.96,0,0,1-.59-1.038l1.115-.8a19.715,19.715,0,0,0,5.365,4.083,20.251,20.251,0,0,0,9.278,2.25,18.128,18.128,0,0,0,9.421-2.884A19.659,19.659,0,0,0,144.59,623.73Z" transform="translate(-105.893 -583.036)" fill="#5f5e5e"/>
    <circle id="Ellipse_4" data-name="Ellipse 4" cx="2.145" cy="2.145" r="2.145" transform="translate(15.947 33.589)" fill="#5f5e5e"/>
    <circle id="Ellipse_5" data-name="Ellipse 5" cx="0.745" cy="0.745" r="0.745" transform="translate(17.301 27.908)" fill="#51a9bd"/>
    <circle id="Ellipse_6" data-name="Ellipse 6" cx="1.138" cy="1.138" r="1.138" transform="translate(31.097 27.618)" fill="#0099a7"/>
    <ellipse id="Ellipse_7" data-name="Ellipse 7" cx="1.848" cy="1.827" rx="1.848" ry="1.827" transform="translate(29.69 22.251)" fill="#007cc6"/>
    <circle id="Ellipse_8" data-name="Ellipse 8" cx="0.999" cy="0.999" r="0.999" transform="translate(17.22 13.667)" fill="#589e57"/>
    <circle id="Ellipse_9" data-name="Ellipse 9" cx="2.684" cy="2.684" r="2.684" transform="translate(7.546 12.914)" fill="#74b4bf"/>
    <circle id="Ellipse_10" data-name="Ellipse 10" cx="3.309" cy="3.309" r="3.309" transform="translate(3.02 19.252)" fill="#f0de80"/>
    <circle id="Ellipse_11" data-name="Ellipse 11" cx="2.702" cy="2.702" r="2.702" transform="translate(34.037 24.958)" fill="#e0d998"/>
    <circle id="Ellipse_12" data-name="Ellipse 12" cx="1.732" cy="1.732" r="1.732" transform="translate(43.881 21.996)" fill="#d9e0da"/>
    <circle id="Ellipse_13" data-name="Ellipse 13" cx="2.145" cy="2.145" r="2.145" transform="translate(26.779 33.11)" fill="#5f5e5e"/>
    <circle id="Ellipse_14" data-name="Ellipse 14" cx="1.751" cy="1.751" r="1.751" transform="translate(3.434 28.053)" fill="#e0e3e1"/>
    <circle id="Ellipse_15" data-name="Ellipse 15" cx="1.435" cy="1.435" r="1.435" transform="translate(13.618 27.091)" fill="#87bb57"/>
    <circle id="Ellipse_16" data-name="Ellipse 16" cx="2.245" cy="2.245" r="2.245" transform="translate(12.905 9.38)" fill="#2378a2"/>
    <circle id="Ellipse_17" data-name="Ellipse 17" cx="2.244" cy="2.244" r="2.244" transform="translate(28.867 8.404)" fill="#ecde7b"/>
    <circle id="Ellipse_18" data-name="Ellipse 18" cx="1.692" cy="1.692" r="1.692" transform="translate(0 23.931)" fill="#0099a7"/>
    <circle id="Ellipse_19" data-name="Ellipse 19" cx="2.407" cy="2.407" r="2.407" transform="translate(0.584 13.848)" fill="#008759"/>
    <g id="Group_83" data-name="Group 83" transform="translate(11.93 16.26)">
      <path id="Path_419" data-name="Path 419" d="M128.415,568.566l-.876,6.183,9.511,1.347.876-6.183a.4.4,0,0,0-.339-.452l-8.72-1.235A.4.4,0,0,0,128.415,568.566Zm8.106,6.825-8.277-1.172.757-5.344,8.276,1.172Z" transform="translate(-125.191 -568.222)" fill="#c03886"/>
      <g id="Group_82" data-name="Group 82" transform="translate(0 1.191)">
        <path id="Path_420" data-name="Path 420" d="M134,585.413l-9.511-1.347-2.277,2.027h0a.75.75,0,0,0,.637.848l11.927,1.69a.75.75,0,0,0,.848-.637h0Zm-7,1.357.4-.814,3.292.466.156.893Z" transform="translate(-122.206 -578.282)" fill="#c03886"/>
        <path id="Path_421" data-name="Path 421" d="M141.544,571.518l-.713,5.035-5.118-.724,3.971-4.9,2.008.285" transform="translate(-129.767 -570.927)" fill="#c03886"/>
      </g>
    </g>
    <path id="Path_422" data-name="Path 422" d="M121.428,577.787a1.072,1.072,0,0,1-.335-.267l-2.068-2.106-.22.088-.07,2.93a1.289,1.289,0,0,1-.066.478s-.021.043-.162.13l-.083.051.112.279,1.148-.458-.116-.289-.1.033a.507.507,0,0,1-.236.044c-.031-.009-.036-.02-.037-.025a.662.662,0,0,1-.021-.241l.012-.471,1-.4.295.3a.843.843,0,0,1,.183.23.048.048,0,0,1-.007.047s-.028.044-.162.106l-.1.046.117.291,1.384-.553-.116-.29-.1.034A.385.385,0,0,1,121.428,577.787Zm-2.234-.266.026-.952.666.676Z" transform="translate(-108.159 -555.989)" fill="#cf220e"/>
    <path id="Path_423" data-name="Path 423" d="M150.881,551.944a1.607,1.607,0,0,0-.334-.5,2.043,2.043,0,0,0,.392-.462,3.389,3.389,0,0,0,.465-1.317,3.508,3.508,0,0,0-.1-1.6,1.84,1.84,0,0,0-.794-1.052,2.65,2.65,0,0,0-.979-.311l-2.32-.345-.129.866.367.055a.3.3,0,0,1,.262.216,2.658,2.658,0,0,1-.059.815l-.83,5.587a2.973,2.973,0,0,1-.167.764.3.3,0,0,1-.327.163l-.367-.055-.129.867,2.517.374a2.383,2.383,0,0,0,1.351-.1,2.047,2.047,0,0,0,.87-.869,3.866,3.866,0,0,0,.476-1.374A3.217,3.217,0,0,0,150.881,551.944Zm-.591-2.509a2.925,2.925,0,0,1-.243.829,1.144,1.144,0,0,1-.409.507,1.129,1.129,0,0,1-.76.091,2.576,2.576,0,0,1-.365-.079c-.048-.015-.094-.03-.137-.048l.474-3.19a1.325,1.325,0,0,1,.489-.014,1,1,0,0,1,.837.658A2.361,2.361,0,0,1,150.29,549.435Zm-2.049,2.211c.027,0,.057,0,.088,0,.106.006.234.021.381.043a1.242,1.242,0,0,1,.765.382,1.366,1.366,0,0,1,.33.721,2.966,2.966,0,0,1,0,.9,2.142,2.142,0,0,1-.453,1.1.99.99,0,0,1-.962.35,1.924,1.924,0,0,1-.637-.219Z" transform="translate(-123.501 -539.722)" fill="#ea6125"/>
    <path id="Path_424" data-name="Path 424" d="M116.551,592.379a2.26,2.26,0,0,1-.471.786,1.318,1.318,0,0,1-.6.3,1.446,1.446,0,0,1-.788-.018,1.216,1.216,0,0,1-.612-.444,2.326,2.326,0,0,1-.383-.866,2.9,2.9,0,0,1-.08-1.115,1.267,1.267,0,0,1,.319-.7,1.247,1.247,0,0,1,.615-.343,1.181,1.181,0,0,1,.8.065,1.671,1.671,0,0,1,.684.711l.058.1.365-.088-.521-1.667-.365.088v.123a.347.347,0,0,1-.034.171.053.053,0,0,1-.03.022.557.557,0,0,1-.13-.022,2.144,2.144,0,0,0-1-.007,2.27,2.27,0,0,0-1.058.575,2.208,2.208,0,0,0-.609,1.052,2.583,2.583,0,0,0-.005,1.27,2.387,2.387,0,0,0,.787,1.307,2.057,2.057,0,0,0,1.9.409,2.032,2.032,0,0,0,.99-.53,2.373,2.373,0,0,0,.567-1.041l.04-.14-.383-.134Z" transform="translate(-104.916 -563.651)" fill="#ec6d37"/>
    <path id="Path_425" data-name="Path 425" d="M175.823,544.575a4.613,4.613,0,0,0-1.784.326l-2.115.727.164.478.353-.122a.37.37,0,0,1,.309,0s.083.058.209.426l1.06,3.08a1.014,1.014,0,0,1,.1.442c-.015.061-.057.148-.244.213l-.353.121.164.478,2.3-.792a3,3,0,0,0,1.921-1.558,2.714,2.714,0,0,0,.038-2,2.837,2.837,0,0,0-.845-1.272A2.237,2.237,0,0,0,175.823,544.575Zm0,.976a2.483,2.483,0,0,1,.988,2.874,1.689,1.689,0,0,1-1.049.94,3.281,3.281,0,0,1-.6.131l-1.3-3.775a2.776,2.776,0,0,1,.524-.254A1.73,1.73,0,0,1,175.824,545.552Z" transform="translate(-138.108 -538.721)" fill="#bb527c"/>
    <path id="Path_426" data-name="Path 426" d="M188.931,586.218l-.011.112a2.983,2.983,0,0,1-.15.758.626.626,0,0,1-.177.262,1.375,1.375,0,0,1-.433.187l-.677.2a.385.385,0,0,1-.157.027.053.053,0,0,1-.026-.017,2.413,2.413,0,0,1-.117-.338l-.62-2.055.731-.22a.628.628,0,0,1,.324-.037.273.273,0,0,1,.144.09,2.294,2.294,0,0,1,.195.4l.066.154.381-.115-.644-2.137-.393.118.046.178a.853.853,0,0,1,.022.515c-.011.024-.069.112-.334.192l-.732.221-.664-2.2.949-.286a.992.992,0,0,1,.375-.066.369.369,0,0,1,.2.109,1.934,1.934,0,0,1,.263.451l.068.143.387-.117-.505-1.463-3.359,1.013.153.509.287-.086a.318.318,0,0,1,.268.012c.009.01.245.66.356,1.029l1.165,3.864a2,2,0,0,1,.1.435.127.127,0,0,1-.033.094l0,0a.362.362,0,0,1-.18.124l-.287.087.154.508,3.324-1-.051-1.776Z" transform="translate(-144.915 -559.273)" fill="#ce221a"/>
  </g>
  <g id="Group_85" data-name="Group 85" transform="translate(25.532 21.507)">
    <path id="Path_427" data-name="Path 427" d="M158.263,585.839l-2.41-2.826-.643-2.482.051-.013a.191.191,0,1,0-.1-.369l-1.918.5a.191.191,0,1,0,.1.369l.051-.013.643,2.482-.736,3.64a.78.78,0,0,0,.96.91l3.6-.934a.78.78,0,0,0,.4-1.261Zm-.213.626a.391.391,0,0,1-.28.266l-3.6.934a.4.4,0,0,1-.49-.465l.753-3.727-.665-2.567,1.078-.279.665,2.567,2.467,2.893A.391.391,0,0,1,158.05,586.465Z" transform="translate(-153.104 -580.143)" fill="#db5460"/>
    <path id="Path_428" data-name="Path 428" d="M155.124,593.373a.16.16,0,0,1-.2-.187l.372-1.841.283-.073-.221,1.678.324-.084.221-1.678,1.685-.436,1.218,1.429a.16.16,0,0,1-.081.259Z" transform="translate(-154.123 -586.082)" fill="#db5460"/>
  </g>
  <g id="Group_89" data-name="Group 89" transform="translate(58.689 20.274)">
    <g id="Group_86" data-name="Group 86" transform="translate(0 0.92)">
      <path id="Path_429" data-name="Path 429" d="M237.464,590.553a16.476,16.476,0,0,1-3.676.33,12.971,12.971,0,0,1-3.275-.354c-.424-.117-2.086-.612-2.086-2.3a3.02,3.02,0,0,1,2.133-2.781.952.952,0,0,1,.979.884c0,.283-.213.519-.555.813-.577.494-.6.718-.6.906,0,.966,1.991,1.014,3.027,1.014a17.218,17.218,0,0,0,3.158-.272,3.7,3.7,0,0,1,.824-.129.786.786,0,0,1,.9.872C238.29,590.152,238.053,590.388,237.464,590.553ZM230.1,583.06a.858.858,0,0,1-1.013-.907c0-.919.66-.919,1.108-.919.129,0,1.707.036,2.037.036.636,0,3.946-.07,4.065-.07.506,0,1.142.058,1.142.871,0,.577-.235.731-1.013,1.238-.294.2-1.6,1.107-1.873,1.26a1.416,1.416,0,0,1-.66.212.922.922,0,0,1-.931-.872c0-.282.165-.459.518-.719.082-.047.459-.247.53-.306C232.976,582.977,231.162,583.06,230.1,583.06Z" transform="translate(-228.428 -580.421)" fill="#5f5e5e"/>
      <path id="Path_430" data-name="Path 430" d="M262.031,581.669a.92.92,0,0,1,.966,1c0,.72-.507.861-1.261.99a19.356,19.356,0,0,0-4.76,1.379c-.435.212-1.66.848-1.66,1.9,0,.943.73,1.307,2.874,1.307a16.433,16.433,0,0,0,2.9-.27,7.24,7.24,0,0,1,.836-.094.84.84,0,0,1,.943.954c0,.648-.342.824-.825.942a19.38,19.38,0,0,1-3.581.283c-1.932,0-5.16-.142-5.16-2.946a3.453,3.453,0,0,1,1.46-2.768,11.479,11.479,0,0,1,1.815-1.024,14.287,14.287,0,0,0-.471-2.061,3.93,3.93,0,0,1-.224-1c0-.613.566-.825,1.048-.825.837,0,.908.366,1.131,1.544.082.377.247,1.331.283,1.662A17.113,17.113,0,0,1,262.031,581.669Z" transform="translate(-242.353 -579.431)" fill="#5f5e5e"/>
      <path id="Path_431" data-name="Path 431" d="M282.623,584.362c.341,0,1.4-.023,1.991-.059.105-.012.294-.024.388-.024a.8.8,0,0,1,.908.848c0,.8-.578.837-1.144.872-.364.024-1.979.059-2.309.071-.023.294-.036.565-.036.919,0,.848.189,1.52,2.062,1.52,1.755,0,2.368-.554,2.368-1.908a3.635,3.635,0,0,0-.177-1.108,2.541,2.541,0,0,1-.176-.718c0-.53.553-.754.977-.754a.984.984,0,0,1,.966.625,4.591,4.591,0,0,1,.388,2.061c0,2.934-1.743,3.616-4.37,3.616-2.6,0-3.946-.883-3.946-3.369,0-.141.011-.294.047-.883-.471,0-1.143,0-1.39-.035a.737.737,0,0,1-.707-.837.8.8,0,0,1,.919-.848c.212,0,1.12.011,1.308.011l.118-1.3c-.354,0-1.39-.011-1.615-.059a.784.784,0,0,1-.529-.813.822.822,0,0,1,.954-.848c.013,0,1.273.024,1.332.024l.047-.613c.035-.424.082-.978.99-.978.589,0,1.107.235,1.013,1.024l-.058.566c.176,0,1.5-.012,2.721-.071.153,0,.824-.036.966-.036a.8.8,0,0,1,.919.848c0,.8-.636.836-.955.86-1.543.071-2.438.083-3.828.094Z" transform="translate(-256.439 -579.626)" fill="#5f5e5e"/>
      <path id="Path_432" data-name="Path 432" d="M312.9,582.346c0,.631-.606.8-1.04.8a1.016,1.016,0,0,1-1.065-.557c-.223-.57-.3-.731-.73-.929a2.719,2.719,0,0,0-1.015-.173c-.322,0-1.709.025-1.709.928,0,.595.471.891,1.548,1.263a17.146,17.146,0,0,1,3.157,1.3,2.193,2.193,0,0,1,1.114,2.005c0,1.425-1.089,3.245-3.924,3.245-3.467,0-4.308-2.167-4.308-2.922,0-.842.916-.879,1.138-.879.743,0,.941.333.979.469.173.582.26.9.8,1.164a2.847,2.847,0,0,0,1.3.26,2.636,2.636,0,0,0,1.374-.309,1.04,1.04,0,0,0,.421-.805c0-.495-.223-.743-2.166-1.4-2.117-.7-2.588-1.015-3-1.423a2.529,2.529,0,0,1-.656-1.746,2.775,2.775,0,0,1,1.115-2.265,4.592,4.592,0,0,1,2.736-.781C311.947,579.6,312.9,581.442,312.9,582.346Z" transform="translate(-271.253 -579.524)" fill="#51a9bd"/>
      <path id="Path_433" data-name="Path 433" d="M326.247,582.085a.841.841,0,0,1-.965-.928c0-.668.346-.941.965-.941h6.191c.508,0,.953.186.953.928a.83.83,0,0,1-.953.941H330.42v7.479c0,.359-.062,1.015-1.052,1.015-.669,0-1.1-.235-1.1-1v-7.491Z" transform="translate(-282.647 -579.87)" fill="#51a9bd"/>
      <path id="Path_434" data-name="Path 434" d="M352.065,584.253c.792,0,.941.47.941.891,0,.471-.174.891-.941.891h-3.776v1.993a.369.369,0,0,0,.409.409h4.049a.935.935,0,1,1,0,1.87h-4.866c-1.2,0-1.757-.446-1.757-1.758v-6.574c0-1.324.581-1.758,1.757-1.758h4.594a.935.935,0,1,1,0,1.869H348.7a.366.366,0,0,0-.409.409v1.759Z" transform="translate(-294.314 -579.87)" fill="#51a9bd"/>
      <path id="Path_435" data-name="Path 435" d="M367.724,592.48c.644,0,.953.3.953.965,0,.52-.149.991-.953.991h-2.068a.844.844,0,0,1-.965-.966c0-.532.161-.99.965-.99Z" transform="translate(-304.709 -586.736)" fill="#51a9bd"/>
      <path id="Path_436" data-name="Path 436" d="M379.012,587.681a.364.364,0,0,0,.409.409H383a.842.842,0,0,1,.966.929c0,.668-.347.941-.966.941h-4.4c-1.2,0-1.758-.447-1.758-1.759v-7.6c0-.371.087-1,1.065-1,.792,0,1.1.347,1.1,1Z" transform="translate(-311.513 -579.524)" fill="#51a9bd"/>
      <path id="Path_437" data-name="Path 437" d="M397.3,589.539a.874.874,0,0,1-.792.694c-.52,0-1.325-.347-1.325-.916a2.031,2.031,0,0,1,.087-.507l2.86-7.788a2.013,2.013,0,0,1,3.849,0l2.86,7.788a1.576,1.576,0,0,1,.086.47c0,.706-.953.953-1.35.953s-.644-.347-.767-.694l-.606-1.646h-4.3Zm1.287-3.479h2.947l-1.176-3.207c-.112-.3-.211-.334-.3-.334s-.2.05-.31.334Z" transform="translate(-321.78 -579.524)" fill="#51a9bd"/>
      <path id="Path_438" data-name="Path 438" d="M427.607,582.309c0-.025-.012-.025-.024-.025v.012l-1.622,7.032a1.063,1.063,0,0,1-1.127.9,1.106,1.106,0,0,1-1.275-.9l-1.609-7.02c0-.013,0-.025-.025-.025a.027.027,0,0,0-.024.025l.049,2.092v4.817c0,.384-.087,1.015-1.065,1.015-.792,0-1.1-.347-1.1-1v-8.469c0-.916.545-1.164,1.449-1.164,1.189,0,1.535.322,1.658.879l1.721,7.391c.012.061.062.185.136.185.1,0,.137-.124.149-.185l1.721-7.391c.1-.408.346-.879,1.5-.879,1.4,0,1.609.508,1.609,1.164v8.456c0,.4-.074,1.015-1.065,1.015-.792,0-1.089-.359-1.089-1V584.4Z" transform="translate(-335.55 -579.524)" fill="#51a9bd"/>
      <path id="Path_439" data-name="Path 439" d="M451.939,583.714c2.2,0,3.734,1.025,3.734,2.969a3.043,3.043,0,0,1-1.543,2.921,7.2,7.2,0,0,1-3.64.743,11.013,11.013,0,0,1-2.945-.353.891.891,0,0,1-.484-.825.8.8,0,0,1,.8-.848,3.17,3.17,0,0,1,.518.082,11.137,11.137,0,0,0,2.061.224,5.644,5.644,0,0,0,2.4-.46,1.471,1.471,0,0,0,.86-1.4c0-1.355-1.59-1.4-1.991-1.4a5.148,5.148,0,0,0-3.134.99c-.118.083-.566.53-.671.589a1.265,1.265,0,0,1-.578.13c-.954,0-.954-.731-.954-1.178a30.788,30.788,0,0,1,.212-3.2.759.759,0,0,1,.861-.612c.672,0,.966.271.966.777,0,.142-.094.966-.107,1.143-.036.365-.036.542-.047.743A6.743,6.743,0,0,1,451.939,583.714Zm1.979-1.543a1,1,0,0,1-.718.165,35.384,35.384,0,0,1-4.123-.4c-1.285-.188-1.638-.33-1.638-.966,0-.094.012-.895.789-.895.247,0,1.284.212,1.5.247,1.025.13,2.05.212,3.087.248.824.035,1.39.082,1.39.942A.931.931,0,0,1,453.918,582.171Z" transform="translate(-350.438 -579.791)" fill="#5f5e5e"/>
      <path id="Path_440" data-name="Path 440" d="M472.339,580.935c0,.176-.247,1.849-.272,2.191-.094,1.037-.118,1.979-.118,2.71a25.159,25.159,0,0,0,.142,2.757c.011.165.118.883.118,1.036,0,.649-.542.767-.943.767a.765.765,0,0,1-.825-.566,15.424,15.424,0,0,1-.306-3.757,28.471,28.471,0,0,1,.377-5.219c.153-.613.471-.671,1.025-.671A.736.736,0,0,1,472.339,580.935Zm5.8,2.367c.153,0,1.084-.047,1.166-.047.389,0,.825.129.825.849,0,.754-.507.813-.837.824-.294.012-.684.035-1.1.047l.071,1.862a7.578,7.578,0,0,1,1.52.966c.448.377.459.648.459.8a.976.976,0,0,1-.895,1,.826.826,0,0,1-.553-.212c-.118-.082-.577-.507-.683-.589-.271,1.26-1.2,1.685-2.5,1.685a3.448,3.448,0,0,1-1.85-.413,2.021,2.021,0,0,1-.943-1.708c0-.966.743-2.155,2.781-2.155a4,4,0,0,1,.871.094l-.047-1.26c-.412.024-1.673.071-2.556.071-.648,0-1.178,0-1.178-.86,0-.765.542-.824.9-.824.081,0,.458.012.541,0,.354,0,1.909-.048,2.227-.059l-.048-1.1c-.977.059-1.4.082-2.191.082a2.059,2.059,0,0,1-.954-.106.814.814,0,0,1-.342-.73c0-.8.66-.8.908-.8q1.413,0,2.827-.071c.389-.023,1-.094,1.378-.094a.737.737,0,0,1,.825.826.7.7,0,0,1-.66.788Zm-2.521,4.254c-.66,0-1.167.283-1.167.765,0,.684.825.684,1.049.684,1.1,0,1.06-.577,1.013-1.26A1.911,1.911,0,0,0,475.614,587.556Z" transform="translate(-363.737 -579.851)" fill="#5f5e5e"/>
    </g>
    <g id="Group_87" data-name="Group 87" transform="translate(16.548)">
      <circle id="Ellipse_20" data-name="Ellipse 20" cx="0.985" cy="0.985" r="0.985" transform="translate(0 1.166)" fill="#8cb808"/>
      <circle id="Ellipse_21" data-name="Ellipse 21" cx="1.484" cy="1.484" r="1.484" transform="translate(2.123)" fill="#c03886"/>
    </g>
    <g id="Group_88" data-name="Group 88" transform="translate(114.531)">
      <circle id="Ellipse_22" data-name="Ellipse 22" cx="0.985" cy="0.985" r="0.985" transform="translate(0 1.166)" fill="#dda011"/>
      <circle id="Ellipse_23" data-name="Ellipse 23" cx="1.484" cy="1.484" r="1.484" transform="translate(2.123)" fill="#008759"/>
    </g>
  </g>
  <g id="Group_90" data-name="Group 90" transform="translate(97.663 36.074)">
    <path id="Path_441" data-name="Path 441" d="M318.452,620.64v-1.687h2.137a.643.643,0,0,0,.643-.643h0a.643.643,0,0,0-.643-.642h-2.137v-1.591H320.8a.643.643,0,0,0,.643-.643h0a.643.643,0,0,0-.643-.643h-3.088a.742.742,0,0,0-.742.742v5.65a.742.742,0,0,0,.742.742h3.175a.642.642,0,0,0,.643-.642h0a.643.643,0,0,0-.643-.643Z" transform="translate(-316.966 -614.106)" fill="#8cb808"/>
    <path id="Path_442" data-name="Path 442" d="M333.358,614.629a.743.743,0,0,0-.983.322l-1.293,2.453-1.292-2.453a.743.743,0,0,0-.983-.322.693.693,0,0,0-.305.953l1.829,3.372v2.212a.755.755,0,0,0,1.5,0v-2.212l1.829-3.372A.693.693,0,0,0,333.358,614.629Z" transform="translate(-323.376 -613.973)" fill="#007cc6"/>
    <path id="Path_443" data-name="Path 443" d="M344.337,618.968a.813.813,0,0,1,.468,1.24c-.445.615-1.621.376-2.039.2-.331-.14-.936-.25-1.188.229a.631.631,0,0,0,.342.828,3.7,3.7,0,0,0,1.771.387,3.359,3.359,0,0,0,2-.561,1.978,1.978,0,0,0,.751-1.565,1.682,1.682,0,0,0-.828-1.61,3.543,3.543,0,0,0-.941-.415c-.4-.115-.689-.216-1.02-.326a.8.8,0,0,1-.621-.68.728.728,0,0,1,.1-.455c.416-.615,1.444-.395,1.768-.243.308.144.939.2,1.168-.252a.6.6,0,0,0-.282-.805,3.378,3.378,0,0,0-1.688-.36,2.982,2.982,0,0,0-1.866.526,2.036,2.036,0,0,0-.7,1.565,1.64,1.64,0,0,0,.733,1.483,2.97,2.97,0,0,0,1.066.485C343.706,618.746,344.047,618.885,344.337,618.968Z" transform="translate(-330.709 -613.988)" fill="#464191"/>
    <rect id="Rectangle_18" data-name="Rectangle 18" width="4.08" height="1.323" rx="0.662" transform="translate(17.141 3.901)" fill="#db5460"/>
    <rect id="Rectangle_19" data-name="Rectangle 19" width="5.55" height="1.469" rx="0.734" transform="translate(29.268 7.748) rotate(-90)" fill="#ea601c"/>
    <path id="Path_444" data-name="Path 444" d="M368.362,620.131a3.828,3.828,0,0,0-.471-1.469c-.329-.7-.712-1.34-.843-1.586a.59.59,0,0,1,.059-.729.56.56,0,0,1,.659-.094,1.032,1.032,0,0,1,.312.2c.281.274.469.539.668.726a1.841,1.841,0,0,0,1.185.631,1.7,1.7,0,0,0,.913-.245,3.431,3.431,0,0,0,.795-.612,3.69,3.69,0,0,1,.877-.649.486.486,0,0,1,.569.1c.37.387-.012.862-.239,1.166a3.577,3.577,0,0,1-.729.711c-.358.267-.713.447-.846.736a.981.981,0,0,0-.048.654.9.9,0,0,0,.312.507c.4.35,1.605,1.1,1.816,1.534a.4.4,0,0,1-.034.494.762.762,0,0,1-.607.107,5.139,5.139,0,0,1-.875-.27,7.067,7.067,0,0,0-1.434-.477.7.7,0,0,0-.415.223c-.292.273-.574.722-.741.888-.264.26-.6.754-.957.491s-.229-.959-.1-1.537A5.967,5.967,0,0,0,368.362,620.131Z" transform="translate(-344.948 -614.888)" fill="#008759"/>
    <circle id="Ellipse_24" data-name="Ellipse 24" cx="0.874" cy="0.874" r="0.874" transform="translate(29.128)" fill="#dda011"/>
    <circle id="Ellipse_25" data-name="Ellipse 25" cx="0.914" cy="0.914" r="0.914" transform="translate(24.141 0.476)" fill="#2378a2"/>
    <path id="Path_445" data-name="Path 445" d="M392.974,613.346h0a.737.737,0,0,0-.734.734V615.7a2.6,2.6,0,0,0-1.4-.394,2.912,2.912,0,0,0,0,5.824,2.6,2.6,0,0,0,1.432-.415.734.734,0,0,0,.7.535h0a.737.737,0,0,0,.735-.734V614.08A.737.737,0,0,0,392.974,613.346Zm-2.151,6.306a1.437,1.437,0,1,1,1.437-1.437A1.437,1.437,0,0,1,390.823,619.652Z" transform="translate(-356.691 -613.297)" fill="#c03886"/>
    <path id="Path_446" data-name="Path 446" d="M403.438,621.145a1.387,1.387,0,0,1-.6-.507,1.452,1.452,0,0,1-.244-.846,1.73,1.73,0,0,1,1.947-1.671,2.023,2.023,0,0,1,1.749.568.608.608,0,0,1-.021.681.765.765,0,0,1-.757.182,2.451,2.451,0,0,0-.871-.2c-.351,0-.6.12-.6.416s.643.463.98.569a2.835,2.835,0,0,1,.917.444,1.631,1.631,0,0,1,.074,2.475,2.054,2.054,0,0,1-1.37.468c-1.292,0-1.865-.29-2.04-.584a.571.571,0,0,1,0-.508.688.688,0,0,1,.722-.377,7.679,7.679,0,0,0,1.048.253c.6,0,.738-.3.738-.454,0-.2-.13-.356-.61-.509A7.081,7.081,0,0,1,403.438,621.145Z" transform="translate(-364.873 -615.97)" fill="#009498"/>
  </g>
</svg>
