<svg xmlns="http://www.w3.org/2000/svg" width="218.436" height="36" viewBox="0 0 218.436 36">
  <g id="logo" transform="translate(0)">
    <path id="txt" d="M60.386,27.659h1.76v1.46h-2.92v2.02h2.92v1.52h-1.76v1.98h6.979v1.08H59.386v2.2h7.979v2.36H69.8v-2.36h8.019v-2.2H69.8v-1.08h7.059v-1.98h-1.78v-1.52h2.9v-2.02h-2.9v-1.46h1.78v-1.92H60.386Zm6.979,1.5h-2.84v-1.5h2.84Zm0,3.5h-2.84V31.1h2.84Zm5.339-3.5H69.8v-1.5h2.9Zm0,3.5H69.8V31.1h2.9ZM77.984,22.44H73.544V21.36h-2.52v1.08h-4.8V21.36h-2.46v1.08H59.226v2.12h4.539v.86h2.46v-.86h4.8v.86h2.52v-.86h4.439Zm7.179,2.98h5.159a5.047,5.047,0,0,1-.3.94h-3.74V36.378h11.6V26.359H92.442a6.774,6.774,0,0,0,.46-.94h6.059v-2.1H96c.22-.34.66-1.06.92-1.58l-2.56-.46a11.578,11.578,0,0,1-.88,2.04h-3.02a12.2,12.2,0,0,0-1.08-2.06l-2.3.62c.14.24.54.96.82,1.44h-2.74v1.5a14.723,14.723,0,0,0-3.08-3.24l-1.72,1.62a17.431,17.431,0,0,1,2.92,3.46l1.88-1.68Zm10.279,6.459H88.722V30.7h6.719Zm0-2.62H88.722v-1.12h6.719Zm0,5.3H88.722v-1.24h6.719ZM80.223,31.3h1.8v4.779a10.731,10.731,0,0,1-2.04,1.42L81,40.238a13.943,13.943,0,0,0,2.86-2.7c1.4,2.2,3.66,2.2,5.3,2.2h9.6l.48-2.34H89.282c-1.04,0-4.239,0-4.859-2.3V28.939h-4.2Zm35.2-3.9c.02-2.38-.16-4.9-5.259-4.9-4.119,0-5.259,1.36-5.259,3.839a3.11,3.11,0,0,0,1.5,2.98c-2.62.88-2.96,2.72-2.96,4.6,0,4.3,3.2,4.659,6.319,4.659,2.88,0,3.659-.5,4.439-1.04l.86.88h3.6l-2.56-2.5a5.12,5.12,0,0,0,.82-3.26v-1.62h-2.58v1.18a3.934,3.934,0,0,1-.22,1.82l-5.659-5.979c-.6-.62-.88-.94-.88-1.56,0-.9.48-1.5,2.48-1.5,2.68,0,2.66,1.08,2.66,2.4Zm-3.14,8.139a4.4,4.4,0,0,1-2.66.58c-3.08,0-3.54-1.1-3.54-2.34a2.455,2.455,0,0,1,1.98-2.68Zm8.979-12.158v2.58H134.1c-.62,3.76-1.82,9.259-11.239,10.8l1.14,2.52c11.718-2.22,12.9-10.819,13.258-15.9Zm20.077,1.86h13.758v-2.5H141.335Zm-1.42,2.24v2.5h13.178c-.64,2.94-2.04,6.539-10.839,6.939l.78,2.48c10.479-.9,12.538-5.659,13.218-11.918Zm19.5-4.359v7.759h2.82V25.639h9.9c-.06,3.8-.16,10.159-10.479,11.3l1.04,2.5c7.759-1.18,10.279-5.079,11.159-7.239a21.578,21.578,0,0,0,1.18-6.639V23.12Zm18.118,9.119h17.718V29.4H177.531Zm31.456,7.979a17.042,17.042,0,0,0,4.239-3.34,16.517,16.517,0,0,0,3.42,3.36l1.46-2.42a18.509,18.509,0,0,1-3.34-3.06c.98-1.7,1.76-4.119,2.06-8.059h.92V24.18h-4.8c.22-1.16.34-2.02.42-2.66l-2.36-.2a20.008,20.008,0,0,1-1.98,6.579v-1.36h-1.14a21.041,21.041,0,0,0,2.26-3.72l-2.08-.96a19.2,19.2,0,0,1-1.12,2.18V22.9h-2.24V21.4h-2.26v1.5h-2.98v2.12h2.98v1.52h-3.44v2.14h3.88a18.372,18.372,0,0,1-4.139,2.58l1.1,2.12a21.945,21.945,0,0,0,2.44-1.48h2.78a6.034,6.034,0,0,1-1.22,1.14h-.54v1.3c-2.42.2-3.34.24-4.459.3l.16,2.28c.68-.04,3.7-.32,4.3-.36v.88c0,.44-.08.56-.62.56h-2.1l.42,2.24h2.66c1.52,0,1.92-.52,1.92-1.86v-2.06c2.34-.28,2.88-.36,3.62-.5V33.7c-.9.14-1.74.24-3.62.44v-.36a13.416,13.416,0,0,0,2.46-1.96v-1.9h-3.26c.78-.72,1.08-1.04,1.28-1.24h2.48c-.14.22-.24.34-.56.76l1.68,2.08c.2-.26.32-.46.64-.92a15.266,15.266,0,0,0,1.54,4.139,12.149,12.149,0,0,1-4.439,3.2ZM214.506,26.7a15.934,15.934,0,0,1-1.22,5.839,14.283,14.283,0,0,1-1.42-4.879c.1-.24.2-.5.38-.96Zm-8.179-1.72c-.24.34-.54.74-1.24,1.56h-.48V24.98ZM236.983,31.7a18.2,18.2,0,0,0-3.3-3.48h1.14v-2.08H222.745v2.08h1.8a17.525,17.525,0,0,1-.92,1.84c-.46,0-2.76,0-2.96-.02l.18,2.12c4.079,0,4.939-.04,6.639-.1V33.4h-6.459v2.14h6.459v1.82h-8.1V39.6h18.8v-2.24h-8.159v-1.82h6.519V33.4h-6.519v-1.42c2.7-.16,2.88-.18,3.84-.28a14.05,14.05,0,0,1,1.08,1.48Zm-6.019-2.68c.36.28.6.46,1.06.84-1.58.12-4.239.18-5.759.2a19.466,19.466,0,0,0,1-1.84h4.919Zm-3.479-6.279h-7.579v4.719h2.52V24.94h12.718v2.52h2.52V22.74h-7.639v-1.4h-2.54Z" transform="translate(-19.747 -7.088)" fill="#aaf"/>
    <path id="EYS" d="M79.59,11.372l.53-.566a4.538,4.538,0,0,0,3.189,1.159c1.518,0,2.408-.476,2.408-1.258,0-.763-.925-.953-2.624-1.1-1.68-.143-3.288-.512-3.288-1.752C79.806,6.674,81.3,6,82.977,6a4.83,4.83,0,0,1,3.216,1.123l-.593.5A3.684,3.684,0,0,0,83.013,6.7c-1.123-.009-2.435.305-2.435,1.133,0,.781,1.186.943,2.666,1.06,1.914.153,3.244.521,3.244,1.761,0,1.159-1.177,2.012-3.224,2.012a5.524,5.524,0,0,1-3.674-1.294m-7.62,1.216v-2.2L68.809,6.3h.907l2.641,3.4,2.624-3.4h.9l-3.154,4.087v2.2Zm-12.744,0V6.3h5.993V7H59.98V9.039h4.439v.7H59.98v2.147h5.329v.7Z" transform="translate(-19.747 -1.999)" fill="#444"/>
    <path id="icon" d="M6.313,36a.714.714,0,0,1-.5-.187.681.681,0,0,1-.138-.516c0-.026.05-.313.267-1.518C6.513,30.627,7.84,23.257,7.84,21.663c0-1.533-1.414-4.86-2.1-6.229a.579.579,0,0,1,.006-.635.565.565,0,0,1,.511-.313H8.842a25.742,25.742,0,0,0-.76-2.521.6.6,0,0,1-.1-.026c-.022-.007-.041-.013-.061-.017a2.065,2.065,0,0,1-1.666.857A2.217,2.217,0,0,1,4.6,11.932a1.7,1.7,0,0,1-.506.089,3.383,3.383,0,0,1-2.34-1.109A3.141,3.141,0,0,1,.745,8.071,2.07,2.07,0,0,1,0,6.356,2.209,2.209,0,0,1,.862,4.7,3.066,3.066,0,0,1,1.876,1.858,3.586,3.586,0,0,1,4.2.776a1.86,1.86,0,0,1,.514.067A2.073,2.073,0,0,1,6.37,0,2.213,2.213,0,0,1,8.031.851,2.479,2.479,0,0,1,8.532.8a2.531,2.531,0,0,1,.562.063,4.214,4.214,0,0,1,1.774,1.053,3.966,3.966,0,0,1,1.052,1.771,1.922,1.922,0,0,1,.019,1.067,2.072,2.072,0,0,1,.847,1.659,2.221,2.221,0,0,1-.853,1.666,3.065,3.065,0,0,1-1.014,2.842,3.991,3.991,0,0,1-1.4.9c.333,1,.577,1.849.768,2.66h7.58c.1-.441.194-.959.3-1.617A.612.612,0,0,1,18.1,12.8a.554.554,0,0,0-.043-.046,2.072,2.072,0,0,1-1.872-.121A2.212,2.212,0,0,1,15.2,11.05a1.692,1.692,0,0,1-.48-.184,3.386,3.386,0,0,1-1.438-2.159,3.146,3.146,0,0,1,.6-2.957A2.07,2.07,0,0,1,14.127,3.9a2.215,2.215,0,0,1,1.587-.979,3.067,3.067,0,0,1,2.333-1.913A4.742,4.742,0,0,1,19.04.9,2.623,2.623,0,0,1,21,1.6a2.047,2.047,0,0,1,.8-.163,2.084,2.084,0,0,1,1.055.289,2.213,2.213,0,0,1,.985,1.587,2.544,2.544,0,0,1,.907.559,4.214,4.214,0,0,1,.981,1.816,3.989,3.989,0,0,1-.011,2.06,1.919,1.919,0,0,1-.533.927,2.066,2.066,0,0,1-.129,1.858,2.219,2.219,0,0,1-1.593.987,3.066,3.066,0,0,1-2.333,1.914,3.969,3.969,0,0,1-1.666.053c-.058.25-.141.591-.251,1H29.688a.648.648,0,0,1,.513.317.73.73,0,0,1,0,.628s-.016.039-.12.267c-1.316,2.866-1.982,4.875-1.982,5.967,0,1.6,1.328,8.966,1.894,12.114.217,1.205.267,1.49.267,1.533a.5.5,0,0,1-.133.5A.7.7,0,0,1,29.65,36Zm22.292-1.267c-.109-.753-.267-1.543-.449-2.452-.282-1.406-.631-3.152-.983-5.654H14.645c-.945,2.214-1.806,4.163-2.566,5.881q-.523,1.183-.98,2.224Zm-18.8,0c.115-.267.317-.733.585-1.344.659-1.508,1.756-4.018,2.911-6.762H11.285a41.114,41.114,0,0,1-1.649,6.728c-.167.538-.312,1.006-.415,1.376Zm-1.792,0c.177-.733.387-1.4.608-2.108a31.679,31.679,0,0,0,1.365-6H8.6c-.342,2.72-.7,4.533-.985,6-.153.78-.286,1.46-.383,2.109ZM13.858,25.3c1.454-3.49,2.57-6.353,3.319-8.51l.111-.333c.095-.281.176-.522.249-.756H10.484a40.88,40.88,0,0,1,.9,9.6Zm-3.8,0a38.243,38.243,0,0,0-.9-9.6H7.4l.152.379c.673,1.666,1.69,4.192,1.676,5.583a15.67,15.67,0,0,1-.19,1.654c-.079.561-.174,1.229-.263,1.981Zm16.92,0a34,34,0,0,1-.247-3.636c0-1.77,1.33-4.859,1.832-5.961H18.874a43.984,43.984,0,0,1-1.521,4.318c-.7,1.78-1.407,3.509-2.15,5.277ZM19.6,12.094a2.609,2.609,0,0,0,1.082-.043,1.91,1.91,0,0,0,1.384-.937l-.035-.021A5.5,5.5,0,0,1,20.21,9.03a1.184,1.184,0,0,1-.194.071c-.085,1.031-.253,2.031-.418,2.993m-1.227-3.17A3.915,3.915,0,0,0,16.6,10.437l-.083.137a.792.792,0,0,0,1.333.779l.071-.123a4.308,4.308,0,0,0,.446-2.306M6.209,8.47a4.286,4.286,0,0,0-.721,2.21v.171a.792.792,0,0,0,1.544-.02v-.143A4.215,4.215,0,0,0,6.212,8.47M2.659,10.03a1.889,1.889,0,0,0,1.45.675h.06v-.02a5.74,5.74,0,0,1,.824-2.62,1.5,1.5,0,0,1-.386-.386,5.324,5.324,0,0,1-2.616.826H1.97A1.9,1.9,0,0,0,2.49,9.875V9.833Zm5.07-2.243c.448.905.808,1.823,1.156,2.711l.026.067a2.645,2.645,0,0,0,.907-.594,1.889,1.889,0,0,0,.7-1.516h-.041a5.5,5.5,0,0,1-2.62-.827,1.3,1.3,0,0,1-.13.159m13.532.4a4.744,4.744,0,0,0,1.5,1.8l.139.083a.91.91,0,0,0,.225.028.827.827,0,0,0,.7-.378.772.772,0,0,0-.141-.982.248.248,0,0,1-.124-.133A4.8,4.8,0,0,0,21.6,8.139l-.067-.1v.093a.668.668,0,0,0-.267.057m-6.743.227a1.9,1.9,0,0,0,.947,1.355l.011-.017a5.747,5.747,0,0,1,2.055-1.826A1.514,1.514,0,0,1,17.4,7.4h-.14a5.343,5.343,0,0,1-2.533-.639L14.7,6.752a1.9,1.9,0,0,0-.2,1.642l-.058.025Zm4.266-1.593a.768.768,0,1,0,1.085-.311.791.791,0,0,0-.4-.113.764.764,0,0,0-.653.378Zm2.917.079a5.512,5.512,0,0,1,2.461.647l.035.022a.645.645,0,0,0,.171-.32,2.219,2.219,0,0,0,.013-1.333,3.343,3.343,0,0,0-.652-1.188.645.645,0,0,0-.3-.2l-.021.033a5.49,5.49,0,0,1-2.06,1.819,1.493,1.493,0,0,1,.133.525c.067,0,.139-.006.207-.006ZM1.781,5.645a.715.715,0,0,0-.565.811.838.838,0,0,0,.633.785h.14a3.962,3.962,0,0,0,2.235-.855,5.267,5.267,0,0,0-2.235-.741Zm3.706.771a.8.8,0,1,0,0-.014l-.093.015Zm2.825-.058a4.725,4.725,0,0,0,2.22.775h.163a.835.835,0,0,0,.609-.772.773.773,0,0,0-.627-.766h-.013a.277.277,0,0,1-.165-.053,4.224,4.224,0,0,0-2.186.816m6.805-1.74a.833.833,0,0,0,.141.991l.121.067a4.746,4.746,0,0,0,1.982.481.715.715,0,0,0,.374-.063A5.236,5.236,0,0,0,16.2,4.307L16.016,4.2a.623.623,0,0,0-.223-.041.747.747,0,0,0-.673.452Zm5.79-1.551a4.263,4.263,0,0,0-.41,2.266,4.647,4.647,0,0,0,1.81-1.5l.083-.139a.834.834,0,0,0-.349-.921.774.774,0,0,0-.977.133c-.013.023-.055.087-.055.087a.166.166,0,0,1-.1.067m-4.025.114A5.488,5.488,0,0,1,18.7,5.235a1.514,1.514,0,0,1,.529-.133,5.33,5.33,0,0,1,.633-2.668l.015-.025a1.477,1.477,0,0,0-.867-.281.957.957,0,0,0-.107,0,2.812,2.812,0,0,0-.679.087,1.9,1.9,0,0,0-1.362.949ZM7.475,4.765a1.478,1.478,0,0,1,.385.385,5.326,5.326,0,0,1,2.617-.826h.042a.656.656,0,0,0-.018-.362,2.227,2.227,0,0,0-.677-1.151,3.317,3.317,0,0,0-1.157-.684,1.138,1.138,0,0,0-.255-.035H8.4a.5.5,0,0,0-.1.011v.041a5.493,5.493,0,0,1-.827,2.62M1.988,4.322a5.494,5.494,0,0,1,2.62.827,1.471,1.471,0,0,1,.385-.385,5.331,5.331,0,0,1-.827-2.616V2.112A.632.632,0,0,0,4.061,2.1V2.008L4.052,2.1a2.167,2.167,0,0,0-1.4.7,1.91,1.91,0,0,0-.683,1.518Zm3.4-2.169a3.952,3.952,0,0,0,.85,2.174,5.268,5.268,0,0,0,.739-2.235V1.929A.835.835,0,0,0,6.2,1.32l-.006-.093V1.32a.776.776,0,0,0-.76.627.28.28,0,0,1-.051.206" transform="translate(0)" fill="#aaf"/>
  </g>
</svg>
