<svg id="Group_84" data-name="Group 84" xmlns="http://www.w3.org/2000/svg" width="47.25" height="46.667" viewBox="0 0 47.25 46.667">
  <path id="Path_415" data-name="Path 415" d="M151.549,564.953a18.822,18.822,0,0,1,4.618-2.106,14.437,14.437,0,0,1,2.6-.562,9.808,9.808,0,0,1,3.552.133,8.709,8.709,0,0,1,3.019,1.292c1.385.891,1.714,1.625,2.8,2.325a5.853,5.853,0,0,0,3.051,1.023,4.354,4.354,0,0,0,4.008-2.076,3.031,3.031,0,0,0,.413-1.591,3.714,3.714,0,0,0-1.232-2.662,8.263,8.263,0,0,0-2.572-1.621A14.292,14.292,0,0,0,166.5,558a19.621,19.621,0,0,0-9.954,3.042A30.555,30.555,0,0,0,151.549,564.953Z" transform="translate(-128.358 -547.023)" fill="#51a9bd"/>
  <path id="Path_416" data-name="Path 416" d="M157.4,575.955a11.79,11.79,0,0,1,4.175-1.745,7.217,7.217,0,0,1,2.328-.072,6.8,6.8,0,0,1,1.309.323,4.39,4.39,0,0,1,2.621,1.95,1.755,1.755,0,0,1-.194,1.688,1.32,1.32,0,0,1-.965.668,2.051,2.051,0,0,1-1.288-.442,17.247,17.247,0,0,1-1.373-1.168A12.945,12.945,0,0,0,162.566,576a3.068,3.068,0,0,0-.848-.33,7.49,7.49,0,0,0-4.316.283Z" transform="translate(-131.807 -556.496)" fill="#51a9bd"/>
  <path id="Path_417" data-name="Path 417" d="M128.458,546.833a20.729,20.729,0,0,0,.245-8.117,10.471,10.471,0,0,0-1.729-4.134,8.155,8.155,0,0,0-2.757-2.4,6.4,6.4,0,0,0-3.189-.891,2.342,2.342,0,0,0-1.289.451,3.211,3.211,0,0,0-1.18,2.656,4.357,4.357,0,0,0,.8,2.409,2.284,2.284,0,0,0,1.046.839,23.25,23.25,0,0,1,2.545.9A10.67,10.67,0,0,1,125.5,540.1a7.755,7.755,0,0,1,1.32,1.449,8.3,8.3,0,0,1,.991,1.826A10.915,10.915,0,0,1,128.458,546.833Z" transform="translate(-108.922 -531.284)" fill="#51a9bd"/>
  <path id="Path_418" data-name="Path 418" d="M142.576,623.73l1.292.945a10.825,10.825,0,0,1-2.74,3.625c-2.01,1.795-5.575,4.115-12.071,4.115a22.915,22.915,0,0,1-5.521-.556,14.863,14.863,0,0,1-6.924-3.542,10.36,10.36,0,0,1-1.684-1.92,5.559,5.559,0,0,1-.551-.969l1.041-.742a18.4,18.4,0,0,0,5.007,3.811,18.9,18.9,0,0,0,8.659,2.1,16.921,16.921,0,0,0,8.793-2.692A18.353,18.353,0,0,0,142.576,623.73Z" transform="translate(-106.458 -585.749)" fill="#5f5e5e"/>
  <circle id="Ellipse_4" data-name="Ellipse 4" cx="2.002" cy="2.002" r="2.002" transform="translate(14.883 31.35)" fill="#5f5e5e"/>
  <circle id="Ellipse_5" data-name="Ellipse 5" cx="0.695" cy="0.695" r="0.695" transform="translate(16.147 26.048)" fill="#51a9bd"/>
  <circle id="Ellipse_6" data-name="Ellipse 6" cx="1.062" cy="1.062" r="1.062" transform="translate(29.024 25.777)" fill="#0099a7"/>
  <ellipse id="Ellipse_7" data-name="Ellipse 7" cx="1.725" cy="1.705" rx="1.725" ry="1.705" transform="translate(27.711 20.767)" fill="#007cc6"/>
  <circle id="Ellipse_8" data-name="Ellipse 8" cx="0.932" cy="0.932" r="0.932" transform="translate(16.072 12.756)" fill="#589e57"/>
  <circle id="Ellipse_9" data-name="Ellipse 9" cx="2.505" cy="2.505" r="2.505" transform="translate(7.043 12.053)" fill="#74b4bf"/>
  <circle id="Ellipse_10" data-name="Ellipse 10" cx="3.089" cy="3.089" r="3.089" transform="translate(2.819 17.968)" fill="#f0de80"/>
  <circle id="Ellipse_11" data-name="Ellipse 11" cx="2.521" cy="2.521" r="2.521" transform="translate(31.768 23.294)" fill="#e0d998"/>
  <circle id="Ellipse_12" data-name="Ellipse 12" cx="1.616" cy="1.616" r="1.616" transform="translate(40.956 20.529)" fill="#d9e0da"/>
  <circle id="Ellipse_13" data-name="Ellipse 13" cx="2.002" cy="2.002" r="2.002" transform="translate(24.993 30.903)" fill="#5f5e5e"/>
  <circle id="Ellipse_14" data-name="Ellipse 14" cx="1.635" cy="1.635" r="1.635" transform="translate(3.205 26.183)" fill="#e0e3e1"/>
  <circle id="Ellipse_15" data-name="Ellipse 15" cx="1.339" cy="1.339" r="1.339" transform="translate(12.71 25.285)" fill="#87bb57"/>
  <circle id="Ellipse_16" data-name="Ellipse 16" cx="2.096" cy="2.096" r="2.096" transform="translate(12.045 8.755)" fill="#2378a2"/>
  <circle id="Ellipse_17" data-name="Ellipse 17" cx="2.094" cy="2.094" r="2.094" transform="translate(26.942 7.844)" fill="#ecde7b"/>
  <circle id="Ellipse_18" data-name="Ellipse 18" cx="1.579" cy="1.579" r="1.579" transform="translate(0 22.335)" fill="#0099a7"/>
  <circle id="Ellipse_19" data-name="Ellipse 19" cx="2.247" cy="2.247" r="2.247" transform="translate(0.545 12.925)" fill="#008759"/>
  <g id="Group_83" data-name="Group 83" transform="translate(11.135 15.176)">
    <path id="Path_419" data-name="Path 419" d="M128.356,568.543l-.817,5.771,8.877,1.257.817-5.771a.373.373,0,0,0-.317-.422l-8.138-1.153A.373.373,0,0,0,128.356,568.543Zm7.565,6.37-7.725-1.094.707-4.988,7.724,1.094Z" transform="translate(-125.348 -568.222)" fill="#c03886"/>
    <g id="Group_82" data-name="Group 82" transform="translate(0 1.111)">
      <path id="Path_420" data-name="Path 420" d="M133.215,585.324l-8.877-1.258-2.125,1.892h0a.7.7,0,0,0,.595.791l11.132,1.577a.7.7,0,0,0,.791-.595h0Zm-6.538,1.266.371-.76,3.072.435.145.834Z" transform="translate(-122.206 -578.668)" fill="#c03886"/>
      <path id="Path_421" data-name="Path 421" d="M141.155,571.478l-.666,4.7-4.777-.676,3.707-4.574,1.874.266" transform="translate(-130.164 -570.927)" fill="#c03886"/>
    </g>
  </g>
  <path id="Path_422" data-name="Path 422" d="M121.228,577.629a1,1,0,0,1-.313-.249l-1.93-1.966-.205.082-.065,2.734a1.2,1.2,0,0,1-.062.446s-.019.04-.151.122l-.078.048.1.26,1.071-.428-.108-.27-.1.03a.473.473,0,0,1-.22.041c-.029-.009-.033-.019-.035-.023a.618.618,0,0,1-.019-.225l.012-.44.936-.374.275.279a.783.783,0,0,1,.171.214.044.044,0,0,1-.006.044s-.026.041-.152.1l-.094.043.109.272,1.291-.516-.108-.271-.1.032A.361.361,0,0,1,121.228,577.629Zm-2.085-.248.024-.889.621.631Z" transform="translate(-108.843 -557.284)" fill="#cf220e"/>
  <path id="Path_423" data-name="Path 423" d="M150.544,551.572a1.5,1.5,0,0,0-.311-.47,1.9,1.9,0,0,0,.366-.431,3.164,3.164,0,0,0,.434-1.229,3.275,3.275,0,0,0-.1-1.491,1.717,1.717,0,0,0-.741-.982,2.476,2.476,0,0,0-.913-.29l-2.165-.322-.12.809.342.051a.281.281,0,0,1,.245.2,2.481,2.481,0,0,1-.055.761l-.775,5.214a2.776,2.776,0,0,1-.156.713.275.275,0,0,1-.305.152l-.342-.051-.12.809,2.349.349a2.226,2.226,0,0,0,1.261-.091,1.912,1.912,0,0,0,.812-.811,3.61,3.61,0,0,0,.444-1.282A3,3,0,0,0,150.544,551.572Zm-.552-2.342a2.73,2.73,0,0,1-.226.774,1.068,1.068,0,0,1-.382.473,1.053,1.053,0,0,1-.709.085,2.4,2.4,0,0,1-.341-.074c-.045-.014-.088-.028-.128-.044l.442-2.977a1.235,1.235,0,0,1,.456-.013.939.939,0,0,1,.781.614A2.2,2.2,0,0,1,149.992,549.23Zm-1.912,2.064.082,0c.1.006.218.019.356.04a1.159,1.159,0,0,1,.714.357,1.274,1.274,0,0,1,.308.673,2.768,2.768,0,0,1,0,.84,2,2,0,0,1-.423,1.023.924.924,0,0,1-.9.327,1.792,1.792,0,0,1-.594-.2Z" transform="translate(-124.99 -540.164)" fill="#ea6125"/>
  <path id="Path_424" data-name="Path 424" d="M116.29,592.16a2.111,2.111,0,0,1-.439.734,1.232,1.232,0,0,1-.556.284,1.349,1.349,0,0,1-.735-.017,1.136,1.136,0,0,1-.571-.414,2.171,2.171,0,0,1-.358-.808,2.7,2.7,0,0,1-.075-1.04,1.181,1.181,0,0,1,.3-.656,1.164,1.164,0,0,1,.574-.32,1.1,1.1,0,0,1,.748.06,1.56,1.56,0,0,1,.638.664l.054.092.341-.082-.486-1.556-.341.082v.115a.324.324,0,0,1-.032.16.049.049,0,0,1-.028.021.528.528,0,0,1-.121-.021,2,2,0,0,0-.934-.007,2.119,2.119,0,0,0-.987.537,2.061,2.061,0,0,0-.568.982,2.411,2.411,0,0,0,0,1.185,2.229,2.229,0,0,0,.735,1.22,1.92,1.92,0,0,0,1.77.382,1.9,1.9,0,0,0,.924-.495,2.216,2.216,0,0,0,.529-.972l.037-.13-.358-.125Z" transform="translate(-105.431 -565.347)" fill="#ec6d37"/>
  <path id="Path_425" data-name="Path 425" d="M175.563,544.575a4.306,4.306,0,0,0-1.665.3l-1.974.679.153.446.329-.113a.345.345,0,0,1,.288,0s.077.054.2.4l.989,2.875a.945.945,0,0,1,.091.413c-.014.057-.053.138-.228.2l-.329.113.153.446,2.151-.74a2.8,2.8,0,0,0,1.793-1.454,2.533,2.533,0,0,0,.035-1.87,2.646,2.646,0,0,0-.788-1.187A2.087,2.087,0,0,0,175.563,544.575Zm0,.911a2.318,2.318,0,0,1,.922,2.682,1.577,1.577,0,0,1-.979.878,3.054,3.054,0,0,1-.558.123l-1.212-3.523a2.586,2.586,0,0,1,.489-.237A1.614,1.614,0,0,1,175.564,545.486Z" transform="translate(-140.363 -539.111)" fill="#bb527c"/>
  <path id="Path_426" data-name="Path 426" d="M188.608,585.889l-.01.1a2.785,2.785,0,0,1-.14.707.584.584,0,0,1-.166.245,1.287,1.287,0,0,1-.4.175l-.631.19a.358.358,0,0,1-.146.026.049.049,0,0,1-.025-.016,2.225,2.225,0,0,1-.109-.316l-.578-1.918.682-.206a.586.586,0,0,1,.3-.034.254.254,0,0,1,.135.084,2.135,2.135,0,0,1,.182.371l.061.144.355-.107-.6-1.994-.366.11.043.166a.8.8,0,0,1,.021.481c-.011.023-.064.1-.311.179l-.683.206-.62-2.056.886-.267a.924.924,0,0,1,.35-.061.344.344,0,0,1,.187.1,1.8,1.8,0,0,1,.246.421l.064.133.362-.109-.472-1.366-3.135.945.143.475.267-.081a.3.3,0,0,1,.25.011c.009.01.228.616.332.96l1.088,3.606a1.863,1.863,0,0,1,.1.406.119.119,0,0,1-.03.088l0,0a.337.337,0,0,1-.168.116l-.268.081.143.475,3.1-.936-.048-1.658Z" transform="translate(-147.527 -560.741)" fill="#ce221a"/>
</svg>
