<svg xmlns="http://www.w3.org/2000/svg" width="51.633" height="30.999" viewBox="0 0 51.633 30.999">
  <g id="アートワーク_53" data-name="アートワーク 53" transform="translate(25.817 15.5)">
    <g id="Group_193493" data-name="Group 193493" transform="translate(-25.817 -15.5)">
      <path id="パス_1" data-name="パス 1" d="M16.157,4.837c1.828-.493,2.334-1.284,2.334-2.218,0-1.27-.791-2.126-3.32-2.126-.7,0-1.556.078-2.139.078-.545,0-1.1-.013-1.647-.052-.091,0-.117.039-.117.195s.026.156.117.168c.493.052.895.065,1.037.3.156.272.156.441.156,1.66V7.456a4.447,4.447,0,0,1-.156,1.7c-.168.272-.519.272-.973.325-.078.013-.1.039-.1.168s.026.168.1.168c.506-.038,1.1-.052,1.608-.052.61,0,1.53.078,2.269.078,2.892,0,3.734-1.323,3.734-2.593,0-1.323-1.05-2.14-2.9-2.334Zm-2.4-2a3.857,3.857,0,0,1,.156-1.621c.168-.272.635-.285,1.1-.285,1.374,0,2.166.622,2.166,1.79,0,1.089-.571,2.009-2.788,2.009-.234,0-.428,0-.635-.013Zm0,2.334c.337-.013.571-.013.8-.013,2.892,0,3.138,1.283,3.138,2.1,0,.947-.48,2.152-2.438,2.152-.6,0-1.115-.039-1.31-.363a3.351,3.351,0,0,1-.195-1.595Zm10.879.57c.013-.985-.013-1.88-1.776-1.88-1.427,0-2.4.921-2.4,1.517,0,.246.117.376.4.376.519,0,.894-.234.894-.583a.791.791,0,0,1,.221-.662,1.032,1.032,0,0,1,.791-.3c.558,0,.817.4.817,1.336v.363a.7.7,0,0,1-.3.506,3.18,3.18,0,0,1-1.012.441,3.642,3.642,0,0,0-1.556.7,1.4,1.4,0,0,0-.441,1.128,1.352,1.352,0,0,0,1.543,1.336A2.427,2.427,0,0,0,23.651,9.3a.976.976,0,0,0,.96.662,1.651,1.651,0,0,0,.985-.311c.078-.052.091-.091.026-.195s-.117-.09-.168-.065a.631.631,0,0,1-.35.117c-.311,0-.506-.311-.492-1.115ZM23.574,8.428a1.16,1.16,0,0,1-1.258,1.1.964.964,0,0,1-.894-1.024,1.3,1.3,0,0,1,1.037-1.3c.752-.286.985-.4,1.128-.6ZM27,7.922a3.45,3.45,0,0,1-.117,1.349c-.09.208-.324.208-.674.247-.091.013-.117.052-.117.155s.026.143.117.143c.441-.026.959-.038,1.387-.038.376,0,.856.013,1.284.038.078,0,.1-.026.1-.143s-.013-.143-.1-.155c-.376-.039-.623-.052-.739-.247a3.852,3.852,0,0,1-.091-1.349V3.229c0-1.245.026-2.217.052-3.138C28.1.026,28.021,0,27.956,0a19.183,19.183,0,0,1-1.867.544c-.117.026-.143.039-.143.181s.052.169.168.156l.337-.026a.4.4,0,0,1,.454.272A3.761,3.761,0,0,1,27,2.191Zm3.4,0a3.45,3.45,0,0,1-.117,1.349c-.091.208-.324.208-.674.247-.091.013-.117.052-.117.155s.026.143.117.143c.441-.026.959-.038,1.388-.038.376,0,.856.013,1.283.038.078,0,.1-.026.1-.143s-.013-.143-.1-.155c-.376-.039-.622-.052-.739-.247a3.866,3.866,0,0,1-.091-1.349V3.229c0-1.245.026-2.217.052-3.138C31.5.026,31.418,0,31.354,0a19.192,19.192,0,0,1-1.867.544c-.117.026-.143.039-.143.181s.052.169.168.156l.337-.026a.4.4,0,0,1,.454.272,3.781,3.781,0,0,1,.091,1.063Zm3.955-1.5c1.141-.026,2.49-.013,3.76.026a.224.224,0,0,0,.207-.065.291.291,0,0,0,.065-.22,2.423,2.423,0,0,0-2.4-2.3,2.942,2.942,0,0,0-2.839,3.125A2.829,2.829,0,0,0,36,10.023a2.459,2.459,0,0,0,2.256-1.245c.052-.077.065-.09.065-.129,0-.1-.168-.195-.22-.195a.134.134,0,0,0-.1.065,1.957,1.957,0,0,1-1.764.908,2.238,2.238,0,0,1-1.919-2.5A3.616,3.616,0,0,1,34.349,6.418Zm.078-.467c.234-1.025.791-1.712,1.556-1.712.8,0,1.154.778,1.219,1.465.013.117-.026.208-.129.208A25.8,25.8,0,0,1,34.427,5.952Zm5.537-1.374-.026,1.8c0,.61-.026,1.193-.026,1.79a1.978,1.978,0,0,0,.4,1.413,1.636,1.636,0,0,0,1.258.441,1.926,1.926,0,0,0,1.413-.688c.078-.077.052-.116-.026-.22a.14.14,0,0,0-.191-.05l-.016.011a1.222,1.222,0,0,1-.817.35.821.821,0,0,1-.688-.337,2.143,2.143,0,0,1-.259-1.31l.026-3.229c.48,0,1.167.013,1.634.039a.141.141,0,0,0,.129-.09l.117-.363c.013-.065,0-.078-.065-.078-.532.013-1.271.026-1.79.026,0-.389.026-.908.039-1.271,0-.09-.013-.129-.169-.129s-.168.039-.207.117a2.954,2.954,0,0,1-.544.894,1.932,1.932,0,0,1-1,.532c-.13.026-.143.065-.143.195,0,.156.026.168.13.168ZM6.405,18.865c.247.688.35,1.05.247,1.336-.091.259-.506.286-.934.325-.091.013-.117.039-.117.168s.026.168.117.168c.519-.026,1.206-.038,1.7-.038.519,0,1.219.013,1.737.038.117,0,.143-.026.143-.168s-.026-.156-.143-.168c-.467-.039-.7-.065-.907-.325a6.01,6.01,0,0,1-.635-1.452L6.146,14.6c-.57-1.66-.778-2.308-1.024-3.112a.125.125,0,0,0-.143-.1l-.83.4c-.195.661-.324,1.024-.959,2.749l-1.543,4.11a5.484,5.484,0,0,1-.778,1.543,1.2,1.2,0,0,1-.739.337c-.1.013-.13.039-.13.168s.026.168.13.168c.415-.038.868-.038,1.322-.038s1.1.013,1.582.038c.1,0,.13-.026.13-.168s-.039-.156-.117-.168c-.48-.052-.921-.1-1.037-.363A2.191,2.191,0,0,1,2.217,18.7l.519-1.427c.571-.026,1.089-.052,1.621-.052.492,0,1.05.026,1.491.052Zm-.726-2.114c-.4.026-.895.026-1.322.026-.48,0-.986,0-1.44-.026L3.7,14.6c.3-.817.467-1.283.635-1.763.169.48.311.934.61,1.776Zm6.756-1.841a2.933,2.933,0,0,0-2.827,3.125,2.812,2.812,0,0,0,2.8,3.034,2.488,2.488,0,0,0,2.256-1.322c.039-.078.026-.13-.078-.195s-.169-.078-.234.013a1.831,1.831,0,0,1-1.7.882c-.83,0-1.828-.843-1.828-2.477,0-1.53.571-2.658,1.595-2.658a.941.941,0,0,1,.791.532c.195.285.4.726.713.726.337,0,.492-.363.492-.8,0-.311-.233-.467-.492-.571a3.584,3.584,0,0,0-1.491-.285Zm7.378,1.88c.013-.985-.013-1.88-1.776-1.88-1.427,0-2.4.921-2.4,1.517,0,.246.116.376.4.376.519,0,.895-.234.895-.583a.791.791,0,0,1,.22-.662,1.032,1.032,0,0,1,.791-.3c.558,0,.817.4.817,1.336v.363a.7.7,0,0,1-.3.506,3.177,3.177,0,0,1-1.011.441,3.642,3.642,0,0,0-1.556.7,1.394,1.394,0,0,0-.441,1.128A1.352,1.352,0,0,0,17,21.07a2.43,2.43,0,0,0,1.828-.726.975.975,0,0,0,.959.662,1.65,1.65,0,0,0,.985-.311c.078-.052.091-.091.026-.195s-.117-.09-.169-.065a.628.628,0,0,1-.35.117c-.311,0-.506-.311-.493-1.115ZM18.75,19.475a1.16,1.16,0,0,1-1.258,1.1.965.965,0,0,1-.895-1.024,1.3,1.3,0,0,1,1.037-1.3c.752-.286.985-.4,1.128-.6Zm7.209-3.929a2.2,2.2,0,0,0-1.582-.661,2.852,2.852,0,0,0-2.853,3.138c0,1.776.985,3.047,2.723,3.047a2.079,2.079,0,0,0,1.711-1c0,.3-.013.531-.026.868,0,.091.039.13.117.13a17.572,17.572,0,0,1,1.763-.208c.091-.013.117-.038.117-.168s-.026-.143-.117-.143l-.233-.013c-.195-.013-.389-.013-.48-.207a3.8,3.8,0,0,1-.091-1.323V14.236c0-1.219.026-2.166.065-3.086,0-.052-.078-.1-.143-.1a15.564,15.564,0,0,1-1.854.544c-.117.026-.156.039-.143.195s.039.156.169.143l.337-.026a.389.389,0,0,1,.441.259,4.038,4.038,0,0,1,.077,1.076Zm0,3.229A1.324,1.324,0,0,1,25.7,19.8a1.449,1.449,0,0,1-1.245.661c-.985,0-1.725-.907-1.725-2.476s.649-2.684,1.738-2.684a1.472,1.472,0,0,1,1.245.739,1.617,1.617,0,0,1,.246,1.1Zm3.955-1.31c1.141-.026,2.49-.013,3.76.026a.224.224,0,0,0,.207-.065.293.293,0,0,0,.065-.22,2.423,2.423,0,0,0-2.4-2.3,2.942,2.942,0,0,0-2.84,3.125A2.829,2.829,0,0,0,31.56,21.07a2.461,2.461,0,0,0,2.257-1.245c.052-.077.065-.09.065-.129,0-.1-.169-.195-.22-.195a.133.133,0,0,0-.1.065,1.957,1.957,0,0,1-1.764.908,2.238,2.238,0,0,1-1.919-2.5A3.616,3.616,0,0,1,29.914,17.465ZM29.992,17c.233-1.025.791-1.712,1.556-1.712.8,0,1.154.778,1.219,1.465.013.117-.026.208-.13.208A25.79,25.79,0,0,1,29.992,17Zm5.2-1.193a.37.37,0,0,1,.451.262l0,.01a3.368,3.368,0,0,1,.091,1.064v1.854a3.256,3.256,0,0,1-.1,1.336c-.1.207-.337.207-.674.246-.091.013-.117.039-.117.143s.026.143.117.143c.428-.013.907-.038,1.322-.038s.908.026,1.31.038c.078,0,.1-.026.1-.143s-.026-.129-.1-.143c-.324-.039-.635-.052-.726-.246a4.358,4.358,0,0,1-.078-1.336V17.3a1.506,1.506,0,0,1,.272-1,1.384,1.384,0,0,1,1.193-.739,1.038,1.038,0,0,1,1.025.662,2.353,2.353,0,0,1,.143,1.063v1.712a3.821,3.821,0,0,1-.1,1.336c-.1.207-.363.207-.688.246-.091,0-.117.026-.117.143s.013.143.117.143c.428-.013.934-.038,1.361-.038.363,0,.869.026,1.3.038.091,0,.1-.038.1-.143s-.013-.129-.091-.143c-.363-.039-.648-.052-.765-.246a4.182,4.182,0,0,1-.091-1.336V17.3a1.433,1.433,0,0,1,.285-1,1.41,1.41,0,0,1,1.219-.739.985.985,0,0,1,1,.662,2.346,2.346,0,0,1,.143,1.063v1.712a3.521,3.521,0,0,1-.1,1.336c-.117.207-.35.207-.688.246-.09,0-.117.026-.117.143s.026.143.117.143c.467-.013.959-.038,1.374-.038s.908.026,1.3.038c.091,0,.1-.038.1-.143s-.026-.129-.1-.143c-.311-.039-.635-.052-.739-.246a4.327,4.327,0,0,1-.078-1.336v-.843c0-.325.013-.96.013-1.427a1.7,1.7,0,0,0-1.776-1.815,2.341,2.341,0,0,0-2.023,1.283,1.664,1.664,0,0,0-1.7-1.283,2.215,2.215,0,0,0-1.88,1.219c0-.337.013-.713.026-1.063a.132.132,0,0,0-.143-.117,16.928,16.928,0,0,1-1.8.544c-.129.039-.155.052-.155.169.013.194.052.181.181.168Zm15.067,1.1a3.64,3.64,0,0,1,.674-1.271.858.858,0,0,1,.584-.233c.09-.013.117-.026.117-.143,0-.143-.026-.155-.117-.155-.337.026-.7.039-1.064.039s-.8-.026-1.167-.039c-.078,0-.1.026-.1.155s.026.143.1.143c.35.026.558.052.648.246a.637.637,0,0,1,.065.3,2.827,2.827,0,0,1-.234.959l-.622,1.673c-.181.48-.272.726-.376,1.037-.117-.35-.208-.571-.376-1.012l-.674-1.685c-.272-.674-.428-1.115-.337-1.284s.4-.207.713-.233c.078,0,.1-.013.1-.143s-.026-.155-.1-.155c-.441.026-1.024.039-1.427.039s-.946-.026-1.374-.039c-.077,0-.1.026-.1.155s.026.143.1.143c.337.026.545.065.688.246A5.84,5.84,0,0,1,46.6,16.92l.959,2.4c.286.688.454,1.1.649,1.595a6.572,6.572,0,0,1-.959,1.7.646.646,0,0,1-.467.3c-.259,0-.376-.143-.635-.143-.376,0-.726.493-.726.843,0,.182.1.325.493.325,1.1,0,1.893-1.064,2.593-2.632.259-.571.519-1.232.83-2.01Z" fill="#9c875a"/>
      <g id="Group_193492" data-name="Group 193492" transform="translate(15.165 26.949)">
        <path id="パス_2" data-name="パス 2" d="M29.83,53.318c.084-.005.209-.005.325-.005a1.457,1.457,0,0,1,.665.11A.6.6,0,0,1,31,53.81c.005.032.016.053.063.053.068,0,.074-.016.074-.053-.005-.188-.011-.4-.011-.592,0-.178.005-.346.011-.529,0-.032-.005-.047-.074-.047-.052,0-.057.016-.063.047a.471.471,0,0,1-.173.34,1.243,1.243,0,0,1-.676.11c-.115,0-.241,0-.325-.005v-.749a1.646,1.646,0,0,1,.052-.623c.074-.12.251-.131.451-.131a1.157,1.157,0,0,1,.781.168,1.184,1.184,0,0,1,.341.519c.011.031.026.047.089.036.042-.011.052-.031.047-.063-.037-.262-.068-.582-.089-.849-.45.026-.88.026-1.294.026-.43,0-.9,0-1.331-.026-.037,0-.047.016-.047.084,0,.052.011.057.047.063.2.021.346.026.4.12.057.115.057.178.057.676v1.86a1.838,1.838,0,0,1-.063.692c-.063.1-.189.1-.372.126-.032.005-.042.016-.042.068s.011.068.042.068c.445-.016.927-.021,1.372-.021.424,0,.87.005,1.32.021a5.484,5.484,0,0,0,.272-.885c.011-.032.011-.053-.052-.073s-.063,0-.079.031a1.627,1.627,0,0,1-.4.529,1.383,1.383,0,0,1-.912.215c-.236,0-.434-.005-.519-.141a1.5,1.5,0,0,1-.073-.629Zm3.621.922a1.735,1.735,0,0,1-.063.7c-.058.1-.194.11-.372.131-.042.005-.053.016-.053.068s.005.063.053.063c.2-.011.461-.021.676-.021s.482.011.723.021c.032,0,.042-.011.042-.063s-.011-.063-.042-.068c-.2-.021-.372-.026-.429-.131s-.053-.173-.053-.7v-.55c0-.078.005-.2.005-.267.073-.12.136-.215.22-.356l.488-.791a2.2,2.2,0,0,1,.4-.55.716.716,0,0,1,.367-.141c.037-.005.047-.011.047-.063,0-.068-.011-.078-.042-.078-.2.011-.367.026-.561.026s-.43-.016-.623-.026c-.047,0-.053.011-.053.078,0,.053.011.058.047.063.183.021.309.036.351.141s.005.188-.136.434l-.435.786c-.063.115-.11.194-.162.277-.063-.1-.11-.178-.184-.293l-.477-.807c-.116-.209-.178-.294-.147-.409.021-.1.162-.11.335-.131.032-.005.042-.011.042-.063,0-.068-.011-.079-.042-.079-.215.016-.477.026-.686.026s-.461-.011-.686-.026c-.031,0-.042.011-.042.079,0,.052.011.057.042.063a.491.491,0,0,1,.357.136,3.54,3.54,0,0,1,.388.587l.487.807c.079.126.136.23.215.356,0,.068.005.142.005.215Zm3.327-.77c.513.262.765.482.765.906a.729.729,0,0,1-.786.739,1.241,1.241,0,0,1-1.037-.891c-.011-.026-.026-.042-.084-.031s-.052.036-.052.063a6.973,6.973,0,0,0,.173.844,2.893,2.893,0,0,0,.943.183c.917,0,1.315-.5,1.315-1.11s-.361-.875-.974-1.163l-.267-.126c-.461-.22-.587-.45-.587-.707a.62.62,0,0,1,.655-.65,1.009,1.009,0,0,1,.891.786c.005.026.016.042.063.037s.063-.026.063-.053c-.022-.272-.053-.577-.058-.838a1.283,1.283,0,0,1-.508-.026,1.461,1.461,0,0,0-.461-.073,1,1,0,0,0-1.111.933c0,.529.288.786.812,1.053Zm3.039.084H38.585v.4h1.231Zm1.509-.319c.351.408.765.9,1.189,1.388.178.21.3.372.446.561.157-.005.283-.005.44-.005.141,0,.3.005.477.021.037,0,.047-.016.047-.068s-.011-.063-.042-.068a.93.93,0,0,1-.34-.084,2.321,2.321,0,0,1-.519-.493c-.566-.639-.948-1.084-1.268-1.457.095-.094.178-.167.3-.282l.5-.477a3.739,3.739,0,0,1,.634-.524,1.017,1.017,0,0,1,.446-.157c.031-.005.042-.011.042-.068s-.005-.079-.042-.079c-.2.022-.435.032-.613.032-.194,0-.4,0-.592-.016-.037,0-.047.011-.047.068s.011.063.047.068c.1.011.246.021.262.084.026.1-.032.194-.367.529l-.577.582c-.141.141-.257.251-.419.388v-.791a1.672,1.672,0,0,1,.068-.671c.063-.1.178-.1.361-.126.042-.005.052-.011.052-.068s-.011-.079-.052-.079c-.2.022-.461.032-.671.032s-.488-.011-.7-.032c-.032,0-.042.016-.042.084s.011.057.042.063c.194.021.351.027.409.126.058.115.058.173.058.671v1.86a1.823,1.823,0,0,1-.063.692c-.063.1-.2.1-.377.126-.037.005-.047.016-.047.068s.011.068.047.068c.2-.016.466-.021.676-.021s.477.005.7.021c.036,0,.047-.016.047-.068s-.011-.063-.047-.068c-.2-.021-.336-.026-.4-.126s-.063-.173-.063-.692Zm3.107,1.2a1.492,1.492,0,0,1-.042.55c-.047.068-.151.074-.282.089-.037,0-.047.016-.047.057,0,.058.011.068.047.068.162-.005.388-.016.55-.016s.361.011.529.016c.032,0,.042-.011.042-.068,0-.042-.011-.052-.042-.057-.147-.016-.262-.016-.3-.089a1.812,1.812,0,0,1-.036-.55v-.665c0-.246.005-.534.021-.912,0-.032-.032-.047-.063-.047-.215.078-.555.178-.739.225-.053.011-.063.016-.063.068.005.073.022.073.074.068l.131-.011a.155.155,0,0,1,.188.1,1.561,1.561,0,0,1,.037.435Zm.173-3.07a.334.334,0,0,0-.315.314.314.314,0,1,0,.315-.314Zm2.751,1.687a.888.888,0,0,0-.639-.267,1.152,1.152,0,0,0-1.153,1.268,1.094,1.094,0,0,0,1.1,1.231.839.839,0,0,0,.692-.4c0,.12-.005.215-.011.351,0,.036.016.052.047.052a7.022,7.022,0,0,1,.713-.084c.036-.005.047-.016.047-.068s-.011-.058-.047-.058l-.095-.005c-.078-.005-.157-.005-.194-.084a1.538,1.538,0,0,1-.037-.535V52.522c0-.492.011-.875.026-1.247,0-.022-.032-.042-.058-.042a6.3,6.3,0,0,1-.749.22c-.047.011-.063.016-.058.079s.016.063.068.057l.136-.011a.157.157,0,0,1,.178.1,1.622,1.622,0,0,1,.032.435Zm0,1.3a.536.536,0,0,1-.1.414.586.586,0,0,1-.5.267c-.4,0-.7-.367-.7-1s.262-1.085.7-1.085a.594.594,0,0,1,.5.3.654.654,0,0,1,.1.446Zm1.939-.163c.293.142.45.236.45.477a.431.431,0,0,1-.461.461.846.846,0,0,1-.692-.555c-.011-.036-.021-.036-.063-.031s-.057.016-.057.042c.026.168.073.4.115.55a1.634,1.634,0,0,0,.676.142.761.761,0,0,0,.87-.739c0-.409-.23-.566-.639-.75l-.173-.078c-.314-.141-.429-.225-.429-.409a.362.362,0,0,1,.4-.372.686.686,0,0,1,.592.5c.016.026.021.042.068.036s.057-.016.057-.047c-.021-.173-.037-.4-.047-.577a1.69,1.69,0,0,1-.33-.011,1.681,1.681,0,0,0-.351-.047c-.519,0-.744.325-.744.608,0,.424.2.529.577.707Z" transform="translate(-28.829 -51.233)" fill="#9c875a"/>
      </g>
    </g>
  </g>
</svg>
