<svg id="logo_Kids_music" xmlns="http://www.w3.org/2000/svg" xmlns:xlink="http://www.w3.org/1999/xlink" width="116.331" height="50" viewBox="0 0 116.331 50">
  <defs>
    <linearGradient id="linear-gradient" x1="-5.103" y1="4.588" x2="-5.094" y2="4.578" gradientUnits="objectBoundingBox">
      <stop offset="0" stop-color="#d8b"/>
      <stop offset="0.719" stop-color="#7ae"/>
      <stop offset="1" stop-color="#77c9dd"/>
    </linearGradient>
  </defs>
  <g id="mark">
    <circle id="dot_LL" data-name="dot LL" cx="3.774" cy="3.774" r="3.774" transform="translate(2.696 13.824)" fill="#d8b"/>
    <circle id="dot_L" data-name="dot L" cx="2.157" cy="2.157" r="2.157" transform="translate(0 5.198)" fill="#ec8"/>
    <circle id="dot_M" data-name="dot M" cx="2.696" cy="2.696" r="2.696" transform="translate(7.548 6.815)" fill="#e97"/>
    <circle id="dot_S" data-name="dot S" cx="1.078" cy="1.078" r="1.078" transform="translate(3.235 0.885)" fill="#7c8"/>
    <path id="mark-2" d="M104.531,200.8a14.332,14.332,0,0,1-2.741-.409,14.41,14.41,0,0,1-4.963-2.315,14.335,14.335,0,0,1,11.9-25.51c.19.047.383.1.573.156l.617,1.7a12.955,12.955,0,1,0,7.751,7.95h0l-6.578-18.085a7.017,7.017,0,0,0,1.313-.1l6.461,17.75h0a14.241,14.241,0,0,1,.723,5.27,14.376,14.376,0,0,1-4.56,9.779,14.391,14.391,0,0,1-9.756,3.836Q104.9,200.815,104.531,200.8Zm.271-2.078a12.183,12.183,0,1,1,5.461-23.343l.632,1.737c-.278-.161-.569-.313-.865-.45a10.929,10.929,0,1,0,5.725,6.4h0l-6.991-19.207a7.182,7.182,0,0,0,1.484.367l6.7,18.406h0a12.189,12.189,0,0,1-11.523,16.109q-.315,0-.627-.018Zm-8.879-8.711a10.152,10.152,0,0,1,16.606-10.759l-7.252-19.919a6.342,6.342,0,0,1,3.791-8.13h0a6.343,6.343,0,0,1,8.131,3.792h0a6.343,6.343,0,0,1-3.791,8.13h0a6.338,6.338,0,0,1-6-.9L115,183.064a10.148,10.148,0,1,1-19.072,6.942Z" transform="translate(-87.293 -150.814)" fill="url(#linear-gradient)"/>
  </g>
  <path id="ja" d="M203.381,214.592c.173,0,.241.067.241.241v.742h-4.8v-.742c0-.174.067-.241.241-.241Zm.241,1.687v.85c0,.174-.067.241-.241.241h-4.315c-.173,0-.241-.068-.241-.241v-.85Zm-5.6,1.012c0,.578.232.809.81.809h4.77c.578,0,.81-.231.81-.809v-2.623c0-.568-.231-.8-.81-.8h-4.77c-.578,0-.81.232-.81.8Zm4.722-6.341a10.864,10.864,0,0,1-.463,1.475h-2.158c-.126-.51-.3-1.1-.424-1.475Zm-1.1-1.214a.38.38,0,0,0-.332-.424.351.351,0,0,0-.092,0,.381.381,0,0,0-.424.332.4.4,0,0,0,0,.092v.482h-3.055a.33.33,0,0,0-.366.289.382.382,0,0,0,0,.077.33.33,0,0,0,.29.366.323.323,0,0,0,.076,0h1.108a13.261,13.261,0,0,1,.434,1.475h-2.127a.327.327,0,0,0-.366.28.341.341,0,0,0,0,.086.323.323,0,0,0,.284.357.342.342,0,0,0,.081,0h8.056a.323.323,0,0,0,.365-.275.3.3,0,0,0,0-.081.325.325,0,0,0-.28-.366.312.312,0,0,0-.086,0H203.14a11.542,11.542,0,0,0,.463-1.475h1.118a.33.33,0,0,0,.366-.289.334.334,0,0,0,0-.077.33.33,0,0,0-.366-.366h-3.074Zm9.05,1.388a.173.173,0,0,1,.151-.193.193.193,0,0,1,.042,0h1.85a.173.173,0,0,1,.193.151.143.143,0,0,1,0,.042v.636h-2.236Zm2.235,1.32v.665a.173.173,0,0,1-.151.193.189.189,0,0,1-.042,0h-1.85a.173.173,0,0,1-.193-.151.189.189,0,0,1,0-.042v-.665Zm-.741,1.57h.887a.55.55,0,0,0,.6-.6v-2.592a.55.55,0,0,0-.6-.6h-.953a1.963,1.963,0,0,0,.164-.588.355.355,0,0,0-.38-.329l-.015,0c-.241,0-.338.106-.414.376a5.02,5.02,0,0,1-.183.539h-.732a.55.55,0,0,0-.6.5.541.541,0,0,0,0,.1v2.592a.55.55,0,0,0,.5.6.564.564,0,0,0,.1,0h.856v.627H207.9a.343.343,0,0,0-.377.305.385.385,0,0,0,0,.08.34.34,0,0,0,.3.376.317.317,0,0,0,.076,0h2.8a9.205,9.205,0,0,1-2.419,1.6c-.347.164-.6.232-.75.318a.351.351,0,0,0-.173.309.389.389,0,0,0,.351.422l.025,0a8.272,8.272,0,0,0,3.681-2.3v2.175a.391.391,0,0,0,.771.085.312.312,0,0,0,0-.085v-2.159a8.972,8.972,0,0,0,3.632,2.255.408.408,0,0,0,.406-.411v-.022c0-.2-.154-.337-.434-.443a9.345,9.345,0,0,1-2.92-1.744h2.881a.34.34,0,0,0,.376-.3.331.331,0,0,0,0-.076.342.342,0,0,0-.3-.385.331.331,0,0,0-.081,0h-3.565Zm-3.932-3.98a.414.414,0,0,0-.395.415c0,.116.039.212.222.357a10.9,10.9,0,0,1,.828.712c.135.154.212.212.347.212a.414.414,0,0,0,.4-.414c0-.174-.067-.26-.27-.453-.212-.22-.838-.828-1.127-.828Zm1.157,2.236a.743.743,0,0,0-.4.2,12.977,12.977,0,0,1-1.128.782c-.241.154-.289.241-.289.386a.39.39,0,0,0,.366.385c.395,0,1.561-.935,1.629-.992a.437.437,0,0,0,.2-.366.386.386,0,0,0-.374-.4Zm5.965-2.3a.483.483,0,0,0-.366.2c-.241.26-.472.472-.75.723-.232.193-.3.25-.3.424a.4.4,0,0,0,.4.4c.309,0,.906-.626,1.195-.945.145-.164.231-.26.231-.424A.409.409,0,0,0,215.379,209.968Zm.655,3.566c0-.2-.126-.309-.366-.482a4.909,4.909,0,0,0-1.35-.75.421.421,0,0,0-.414.428v.005a.364.364,0,0,0,.231.318,8.718,8.718,0,0,1,1.1.713c.193.154.26.2.415.2a.424.424,0,0,0,.385-.434Zm4.895-3.8a.345.345,0,0,0-.3-.386.355.355,0,0,0-.086,0,.345.345,0,0,0-.385.386v.539H218.9a.323.323,0,0,0-.358.284.344.344,0,0,0,0,.082.321.321,0,0,0,.279.357.337.337,0,0,0,.078,0h1.262v.886h-1.744a.329.329,0,0,0-.367.285.341.341,0,0,0,0,.09.326.326,0,0,0,.281.366.349.349,0,0,0,.086,0h2.072a7.134,7.134,0,0,1-.935.78h-.472c-.193,0-.347.05-.347.318a.277.277,0,0,0,.05.164c-.154.1-.482.222-.616.3a.307.307,0,0,0-.183.289.4.4,0,0,0,.366.424h0a5.223,5.223,0,0,0,1.53-.811h1.243c.077,0,.116.01.116.058a3.161,3.161,0,0,1-.492.51c-.183,0-.453,0-.453.338v.414a15.966,15.966,0,0,1-1.841.135.321.321,0,0,0-.3.337.344.344,0,0,0,.366.4c.154,0,.886-.038,1.773-.145v.933c0,.221-.106.25-.338.25-.164,0-.231-.009-.395-.009a.328.328,0,0,0-.328.33v.017c0,.443.386.443.761.443.887,0,1.089-.289,1.089-.867v-1.194c.386-.05,1.04-.164,1.455-.25.25-.058.309-.174.309-.357a.372.372,0,0,0-.356-.386c-.068,0-1.185.232-1.407.27v-.086c.173-.154.434-.4.78-.742s.463-.5.463-.684c0-.164-.087-.4-.511-.4h-1.107a8.382,8.382,0,0,0,.838-.781h1.079a.333.333,0,0,0,.375-.285.312.312,0,0,0,0-.081.335.335,0,0,0-.29-.376.352.352,0,0,0-.086,0H222.2a5.3,5.3,0,0,0,1.022-1.705.416.416,0,0,0-.453-.366.3.3,0,0,0-.28.2c-.115.232-.26.472-.376.675.02-.2-.058-.414-.327-.414h-.858Zm3.566,1.436a6.8,6.8,0,0,0,.376-1.465c0-.183-.154-.337-.424-.337-.193,0-.309.086-.4.462a10.219,10.219,0,0,1-1.31,3.209c-.125.2-.241.328-.241.463a.4.4,0,0,0,.4.4h.009c.26,0,.357-.135.713-.78a8.665,8.665,0,0,0,.732,2.563,5.492,5.492,0,0,1-1.956,1.666c-.27.125-.328.26-.328.386a.4.4,0,0,0,.385.414h0a5.1,5.1,0,0,0,2.312-1.725c.386.607,1.32,1.667,1.8,1.667a.437.437,0,0,0,.4-.424.443.443,0,0,0-.25-.366,4.555,4.555,0,0,1-1.436-1.55,9.3,9.3,0,0,0,1.069-3.806c.4,0,.646,0,.646-.395a.345.345,0,0,0-.3-.386.352.352,0,0,0-.086,0ZM221.767,211a.3.3,0,0,0,.2-.067,8.076,8.076,0,0,1-.761.954h-.277V211Zm3.8.954a10.48,10.48,0,0,1-.722,2.958,9.512,9.512,0,0,1-.607-2.958Zm7.8-2.159a.4.4,0,0,0-.79-.1.388.388,0,0,0,0,.1v.588h-2.91a.617.617,0,0,0-.7.694V212.3a.346.346,0,0,0,.385.385.35.35,0,0,0,.394-.3.334.334,0,0,0,0-.086v-.964c0-.115.039-.164.164-.164h6.217c.115,0,.164.05.164.164v.925a.391.391,0,0,0,.771.085.305.305,0,0,0,0-.085v-1.185a.616.616,0,0,0-.7-.694h-2.989Zm2.245,2.843a.339.339,0,0,0,.376-.3.317.317,0,0,0,0-.076.34.34,0,0,0-.3-.376.324.324,0,0,0-.077,0h-5.232a.34.34,0,0,0-.376.3.391.391,0,0,0,0,.077.34.34,0,0,0,.3.376.316.316,0,0,0,.076,0h1.176a8.693,8.693,0,0,1-1.081,1.224c-.52.029-.713.058-.713.443a.362.362,0,0,0,.375.349l.03,0c.106,0,1.272-.038,2.409-.116v.85h-2.551a.34.34,0,0,0-.376.3.377.377,0,0,0,0,.077.34.34,0,0,0,.3.376.319.319,0,0,0,.076,0h2.55v.99H229.1a.343.343,0,0,0-.377.305.389.389,0,0,0,0,.08.343.343,0,0,0,.3.385.349.349,0,0,0,.08,0h7.817a.345.345,0,0,0,.385-.3.3.3,0,0,0,0-.085.345.345,0,0,0-.3-.385.349.349,0,0,0-.086,0H233.35v-.992h2.7a.34.34,0,0,0,.376-.3.33.33,0,0,0,0-.076.34.34,0,0,0-.3-.376.33.33,0,0,0-.076,0h-2.7v-.9c.665-.05,1.291-.1,1.879-.174.115.106.25.25.308.309.145.164.231.221.386.221a.4.4,0,0,0,.386-.4c0-.173-.058-.241-.232-.433-.3-.328-.636-.675-.983-1.031-.164-.154-.241-.212-.414-.212a.4.4,0,0,0-.386.385c0,.125.038.164.366.511-.983.1-2.573.173-3.16.183a12.952,12.952,0,0,0,.983-1.2Z" transform="translate(-140.228 -180.061)" fill="#666"/>
  <g id="en" transform="translate(37.304 11.747)">
    <path id="K" d="M164.607,176.072a.886.886,0,0,0,.947-.822c0-.017,0-.033,0-.049a.859.859,0,0,0-.864-.853h-.036c-.242-.016-1.128-.032-2.046-.032-.9,0-1.82.016-2.11.032a2,2,0,0,0-2.175,2.03c-.032,1.015-.05,3.205-.05,5.17,0,1.305,0,2.5.032,3.174.064,1.418.982,1.95,2.465,2.062.209.016,1.143.032,2.062.032.934,0,1.868-.016,2.078-.032a.939.939,0,0,0,1.013-.861c0-.013,0-.026,0-.039a.817.817,0,0,0-.807-.828l-.064,0h-.08c-.306.016-1.337.032-2.288.032-2.272,0-2.529-.032-2.61-.773-.032-.274-.05-.644-.05-3.045,0-.338.161-.355,2.159-.355.612,0,1.224.016,1.627.05h.08a.854.854,0,0,0,.86-.848c0-.024,0-.049,0-.073a.811.811,0,0,0-.763-.857.8.8,0,0,0-.137,0c-.29.016-1.063.016-1.8.016-1.982,0-2,0-2-.322.016-.935,0-1.723.032-2.11.05-.692.387-.725,2-.725C163.174,176.055,164.607,176.072,164.607,176.072Z" transform="translate(-158.276 -174.313)" fill="#77c9dd"/>
    <path id="Y" d="M182.73,185.59a.937.937,0,0,0,.92.953c.032,0,.063,0,.095,0a.917.917,0,0,0,.98-.85c0-.017,0-.034,0-.05,0-1.3-.016-2.932-.016-3.9a.816.816,0,0,1,.193-.626c1.047-1.466,2.85-4.156,3.576-5.316a.882.882,0,0,0,.145-.467,1.113,1.113,0,0,0-1.08-1,.789.789,0,0,0-.725.45,46.175,46.175,0,0,1-2.915,4.559.212.212,0,0,1-.194.113.232.232,0,0,1-.194-.129c-1.127-1.676-2.255-3.35-2.931-4.526a.879.879,0,0,0-.772-.484.967.967,0,0,0-.822,1.546c.773,1.16,2.4,3.56,3.576,5.332a.644.644,0,0,1,.161.531Z" transform="translate(-168.537 -174.312)" fill="#7ae"/>
    <path id="S" d="M211.724,183.305a3.818,3.818,0,0,0-2.287-3.3c-.742-.4-1.85-.918-2.513-1.273a1.655,1.655,0,0,1-1.016-1.418,1.485,1.485,0,0,1,1.659-1.369,2.351,2.351,0,0,1,1.85.741,1.022,1.022,0,0,0,.757.386.94.94,0,0,0,.9-.935c0-.757-1.273-1.82-3.5-1.82a3.08,3.08,0,0,0-1.418,5.961c.854.387,1.724.87,2.432,1.272a2.127,2.127,0,0,1,1.23,1.8c0,.515-.387,1.724-2.159,1.724a2.769,2.769,0,0,1-2.35-1.08.867.867,0,0,0-.711-.4.941.941,0,0,0-.934.918c0,.79,1.353,2.288,3.979,2.288C210.259,186.8,211.724,185.029,211.724,183.305Z" transform="translate(-180.973 -174.314)" fill="#78c"/>
    <path id="_-" data-name=" -" d="M231.147,186.813a.833.833,0,0,0,.824-.842c0-.019,0-.038,0-.058a.817.817,0,0,0-.742-.885c-.021,0-.042,0-.064,0h-.033c-.773.016-1.643.032-2.48.032-.677,0-1.337-.016-1.9-.032h-.032a.808.808,0,0,0-.761.853c0,.012,0,.023,0,.034a.82.82,0,0,0,.737.9.8.8,0,0,0,.085,0c.66-.032,1.143-.05,1.627-.05.709,0,1.418.032,2.722.05Z" transform="translate(-192.115 -179.667)" fill="#a9c"/>
    <path id="K-2" d="M245.679,185.781a.835.835,0,0,0,.89.777l.045,0c.467,0,.918-.241.918-.757v-.032c-.032-.741-.032-1.45-.032-2.094,0-1.047.016-1.9.032-2.319,0-.242.177-.258.306-.258s.226-.016.339-.016a.8.8,0,0,1,.677.322c1.176,1.369,3.9,4.285,4.446,4.85a1,1,0,0,0,.725.322,1.121,1.121,0,0,0,1.079-1.065.984.984,0,0,0-.274-.66c-.274-.306-3.221-3.109-4.591-4.511a.4.4,0,0,1-.145-.242.385.385,0,0,1,.145-.257c1.128-1.192,3.093-3.157,3.8-4.027a.8.8,0,0,0,.177-.5,1.08,1.08,0,0,0-1.047-.983.8.8,0,0,0-.661.339c-.66.87-2.529,2.932-3.689,4.188a1.111,1.111,0,0,1-.868.47c-.387,0-.419-.177-.419-.322-.016-.4-.032-1.112-.032-1.981,0-.564.016-1.192.032-1.837v-.032a.865.865,0,0,0-.888-.84l-.047,0a.834.834,0,0,0-.915.744.8.8,0,0,0,0,.126c.032,1.224.05,2.932.05,4.736,0,2.014-.016,4.14-.05,5.847Z" transform="translate(-201.976 -174.309)" fill="#d8b"/>
    <path id="i" d="M272.095,176.55a1.123,1.123,0,0,0,1.126-1.12v-.024a1.135,1.135,0,0,0-1.126-1.1,1.093,1.093,0,0,0-1.127,1.058c0,.013,0,.025,0,.037a1.069,1.069,0,0,0,.988,1.145A1.184,1.184,0,0,0,272.095,176.55Zm.87,9.309v-.031c-.016-.886-.032-2.03-.032-3.141,0-1.353.016-2.626.032-3.286v-.033a.792.792,0,0,0-.807-.775l-.047,0a.791.791,0,0,0-.867.707.751.751,0,0,0,0,.114c.016.435.016,1.08.016,1.8,0,1.466-.016,3.3-.016,4.639a.8.8,0,0,0,.776.823c.026,0,.052,0,.078,0a.815.815,0,0,0,.868-.758C272.964,185.9,272.965,185.881,272.965,185.86Z" transform="translate(-214.619 -174.309)" fill="#e97"/>
    <path id="d" d="M290.812,185.637a.883.883,0,0,0-.113-.435c-.467-.9-.483-.95-.483-6.926,0-1.353.016-2.5.05-3.045v-.08a.8.8,0,0,0-.761-.837.654.654,0,0,0-.077,0,.79.79,0,0,0-.823.757.761.761,0,0,0,0,.08c.016.677.05,2.32.05,4.188,0,.05-.016.064-.05.064a.1.1,0,0,1-.064-.016,3.322,3.322,0,0,0-2.255-.87,3.871,3.871,0,0,0-3.918,3.822c0,.074,0,.147,0,.22a3.825,3.825,0,0,0,3.915,4.043,3.424,3.424,0,0,0,2.545-1.128c.032-.032.064-.065.081-.065.032,0,.05.032.064.1.226.886.531,1.015.9,1.015A.925.925,0,0,0,290.812,185.637Zm-4.494-.531a2.574,2.574,0,1,1,2.32-2.545A2.333,2.333,0,0,1,286.318,185.106Z" transform="translate(-220.321 -174.31)" fill="#ec8"/>
    <path id="s-2" d="M310.724,188.184a2.567,2.567,0,0,0-1.578-2.207c-.483-.257-1.208-.58-1.627-.79a.83.83,0,0,1-.532-.709c0-.354.306-.66.854-.66a1.334,1.334,0,0,1,1.015.387.919.919,0,0,0,.66.322.818.818,0,0,0,.806-.8c0-.628-1-1.353-2.48-1.353a2.26,2.26,0,0,0-2.451,2.159,2.195,2.195,0,0,0,1.451,2.014c1.884.854,2.239,1.16,2.239,1.676,0,.371-.339.821-1.192.821a1.586,1.586,0,0,1-1.3-.566.787.787,0,0,0-.645-.339.816.816,0,0,0-.822.773c0,.532.822,1.643,2.787,1.643A2.621,2.621,0,0,0,310.724,188.184Z" transform="translate(-231.697 -178.339)" fill="#7c8"/>
  </g>
</svg>
