<svg xmlns="http://www.w3.org/2000/svg" width="136.523" height="40" viewBox="0 0 136.523 40">
  <g id="logo_pottery" transform="translate(-570.774 -124)">
    <path id="txt" d="M8.664-15.258v2.178h3.644v3.356H11.087v-2.444H8.953v4.622h8.689v-4.622H15.731v2.444H14.487V-13.08h3.6v-2.178h-3.6v-1.889H17.6V-19.3H12.487a8.983,8.983,0,0,0,.267-1.156l-1.867-.222a3.324,3.324,0,0,0,.2-.4h7.756c0,5.911-.133,11.178-.267,12.444-.178,1.489-.667,1.489-1.8,1.489H14.531l.422,2.489h2.711c1.378,0,2.956,0,3.4-2.978.4-2.8.422-12.422.422-15.867H12.109c.267-.911.356-1.267.467-1.8L10-25.68A17.32,17.32,0,0,1,7.62-20.1a17.6,17.6,0,0,0,.689-2.289v-2.556H1.62V-4.613H4.087V-22.5H6a25.014,25.014,0,0,1-1.711,5.044,7.5,7.5,0,0,1,1.822,4.667c0,1.156-.489,1.333-1.022,1.333H4.264l.467,2.733h1C8.2-8.724,8.6-10.88,8.6-12.28a9.241,9.241,0,0,0-1.867-5.578c.2-.467.311-.711.578-1.422l1.644,1.489a15.251,15.251,0,0,0,1.578-2.244A8.331,8.331,0,0,1,8.6-16.5l1.711,1.244Zm1.844,0a12.921,12.921,0,0,0,1.133-1.889h.667v1.889ZM44.953-6.369a33.463,33.463,0,0,0-5.733-5.489l-2.067,1.622c.911.8,1.6,1.378,2.311,2.111-2.467.222-6.044.267-8.533.311.378-.6,1.333-2.067,2.644-4.6H45.264v-2.622h-20.8v2.622h5.889a38.829,38.829,0,0,1-2.622,4.622c-.422.022-2.333.022-2.711.022l.422,2.8c4.689-.067,10.578-.244,16.111-.889.356.422.578.733.956,1.267ZM29.42-24.236H24.464v2.556H29.42V-20.3h2.711V-21.68h5.422V-20.3h2.733V-21.68h4.978v-2.556H40.287v-1.333H37.553v1.333H32.131v-1.333H29.42Zm-3.311,4.422v2.489H43.642v-2.489ZM58.864-4.658a18.939,18.939,0,0,0,4.711-3.711,18.353,18.353,0,0,0,3.8,3.733L69-7.324a20.559,20.559,0,0,1-3.711-3.4c1.089-1.889,1.956-4.578,2.289-8.956H68.6v-2.8H63.264c.244-1.289.378-2.244.467-2.956l-2.622-.222a22.24,22.24,0,0,1-2.2,7.311v-1.511H57.642a23.382,23.382,0,0,0,2.511-4.133l-2.311-1.067A21.358,21.358,0,0,1,56.6-22.636V-23.9H54.109v-1.667H51.6V-23.9H48.287v2.356H51.6v1.689H47.776v2.378h4.311a20.426,20.426,0,0,1-4.6,2.867l1.222,2.356A24.4,24.4,0,0,0,51.42-13.9h3.089a6.694,6.694,0,0,1-1.356,1.267h-.6v1.444c-2.689.222-3.711.267-4.956.333l.178,2.533c.756-.044,4.111-.356,4.778-.4v.978c0,.489-.089.622-.689.622H49.531L50-4.636h2.956c1.689,0,2.133-.578,2.133-2.067V-8.991c2.6-.311,3.2-.4,4.022-.556V-11.9c-1,.156-1.933.267-4.022.489v-.4a14.894,14.894,0,0,0,2.733-2.178V-16.1H54.2c.867-.8,1.2-1.156,1.422-1.378h2.756c-.156.244-.267.378-.622.844l1.867,2.311c.222-.289.356-.511.711-1.022a16.981,16.981,0,0,0,1.711,4.6,13.5,13.5,0,0,1-4.933,3.556ZM65-19.68a17.7,17.7,0,0,1-1.356,6.489,15.883,15.883,0,0,1-1.578-5.422c.111-.267.222-.556.422-1.067Zm-9.089-1.911c-.267.378-.6.822-1.378,1.733H54v-1.733Zm34.067,7.467a20.219,20.219,0,0,0-3.667-3.867h1.267V-20.3H74.153v2.311h2a19.486,19.486,0,0,1-1.022,2.044c-.511,0-3.067,0-3.289-.022l.2,2.356c4.533,0,5.489-.044,7.378-.111v1.489H72.242v2.378H79.42v2.022h-9v2.489H91.309V-7.836H82.242V-9.858h7.244v-2.378H82.242v-1.578c3-.178,3.2-.2,4.267-.311a15.666,15.666,0,0,1,1.2,1.644ZM83.287-17.1c.4.311.667.511,1.178.933-1.756.133-4.711.2-6.4.222a21.533,21.533,0,0,0,1.111-2.044h5.467ZM79.42-24.08H71v5.244h2.8v-2.8H87.931v2.8h2.8V-24.08H82.242v-1.556H79.42Z" transform="translate(615.988 165.473)" fill="#ba8"/>
    <path id="logo_EYS" d="M-10958.369-259.77l.586-.629a5.05,5.05,0,0,0,3.545,1.288c1.688,0,2.676-.529,2.676-1.4,0-.848-1.027-1.058-2.916-1.218-1.867-.16-3.654-.569-3.654-1.947,0-1.318,1.658-2.066,3.525-2.066a5.375,5.375,0,0,1,3.574,1.248l-.66.559a4.089,4.089,0,0,0-2.875-1.028c-1.248-.01-2.705.339-2.705,1.258,0,.868,1.318,1.048,2.967,1.178,2.125.17,3.6.58,3.6,1.957,0,1.288-1.309,2.236-3.584,2.236A6.134,6.134,0,0,1-10958.369-259.77Zm-8.469,1.351v-2.446l-3.514-4.542h1.008l2.936,3.784,2.914-3.784h1l-3.506,4.542v2.446Zm-14.162,0v-6.988h6.66v.779h-5.824v2.266h4.934v.779h-4.934v2.386h5.922v.779Z" transform="translate(11598.608 394.444)" fill="#444"/>
    <path id="mark" d="M12.674,40a.625.625,0,0,1-.227-.041A19.2,19.2,0,0,1,4.23,34.02a.645.645,0,0,1,.5-1.049H8.182a.529.529,0,0,0,.407-.889.525.525,0,0,0-.368-.167H3.126a.647.647,0,0,1-.559-.321,19.534,19.534,0,0,1-.928-1.824.646.646,0,0,1,.329-.851.633.633,0,0,1,.261-.055h8.684a.529.529,0,0,0,.506-.546.53.53,0,0,0-.51-.511H1.375a.647.647,0,0,1-.616-.466,17.572,17.572,0,0,1-.434-1.82.643.643,0,0,1,.517-.752.69.69,0,0,1,.116-.01H12.676a.529.529,0,1,0,.039-1.057H.674a.644.644,0,0,1-.644-.609C.01,22.736,0,22.375,0,22.017c0-.248,0-.5.014-.745a.642.642,0,0,1,.645-.62H11.495a.529.529,0,0,0,0-1.057H.9a.645.645,0,0,1-.646-.643.655.655,0,0,1,.009-.108c.1-.619.237-1.231.4-1.819a.646.646,0,0,1,.622-.475H4.71a.529.529,0,0,0,0-1.057H2.088a.646.646,0,0,1-.646-.644.639.639,0,0,1,.052-.251,19.291,19.291,0,0,1,5.887-7.68.631.631,0,0,1,.088-.058,4.064,4.064,0,0,0,.757-.58A3.243,3.243,0,0,0,9.2,4.6,4.388,4.388,0,0,0,7.879,1.059.645.645,0,0,1,8.375,0H29.93a.645.645,0,0,1,.642.649.649.649,0,0,1-.147.406A4.387,4.387,0,0,0,29.11,4.6a3.15,3.15,0,0,0,.966,1.678,4.051,4.051,0,0,0,.763.584.809.809,0,0,1,.085.057A19.4,19.4,0,0,1,33.695,9.56a.644.644,0,0,1-.071.909.647.647,0,0,1-.418.155h-.787a.531.531,0,0,0-.549.511.529.529,0,0,0,.51.546h2.54a.643.643,0,0,1,.549.306,19.26,19.26,0,0,1,.99,1.822.636.636,0,0,1,.026.493.644.644,0,0,1-.607.429H27.525a.529.529,0,0,0,0,1.057H36.8a.64.64,0,0,1,.615.45,18.182,18.182,0,0,1,.479,1.822.646.646,0,0,1-.5.763.637.637,0,0,1-.134.013H26.352a.529.529,0,0,0,0,1.057H37.6a.647.647,0,0,1,.643.595c.04.5.06,1.011.06,1.528v.29a.649.649,0,0,1-.645.636H28.111a.528.528,0,0,0,0,1.056h9.358a.649.649,0,0,1,.638.736c-.087.611-.2,1.224-.35,1.821a.645.645,0,0,1-.628.492H30.841A.529.529,0,1,0,30.8,28.1h5.59a.645.645,0,0,1,.6.878A19.223,19.223,0,0,1,25.859,39.958a.64.64,0,0,1-.224.042H12.674ZM6.148,34.261a17.98,17.98,0,0,0,6.661,4.455l12.723-.006A17.977,17.977,0,0,0,35.425,29.4h-4.58a1.818,1.818,0,1,1,0-3.636h5.779c.033-.156.063-.313.092-.471h-8.6a1.818,1.818,0,0,1,0-3.635h8.9c0-.157-.008-.315-.016-.472H26.35a1.818,1.818,0,0,1,0-3.636h10.1c-.041-.158-.083-.314-.127-.471h-8.8a1.818,1.818,0,0,1,0-3.636h7.3q-.13-.237-.267-.471H32.417a1.817,1.817,0,0,1-.595-3.536,18,18,0,0,0-1.664-1.479,5.333,5.333,0,0,1-.978-.751,4.439,4.439,0,0,1-1.34-2.365,5.021,5.021,0,0,1,.809-3.556H9.655a5.025,5.025,0,0,1,.81,3.55A4.525,4.525,0,0,1,9.123,7.207a5.412,5.412,0,0,1-.989.757A18.057,18.057,0,0,0,3.089,14.2H4.712a1.818,1.818,0,0,1,0,3.636H1.784q-.056.234-.106.471H11.5a1.818,1.818,0,0,1,0,3.636H1.293v.076c0,.131,0,.262,0,.395H12.669a1.818,1.818,0,0,1,0,3.636H1.746c.036.158.074.315.116.471h9.05a1.819,1.819,0,0,1,.072,3.637H3.247c.082.158.165.314.251.47H8.177a1.818,1.818,0,1,1,0,3.636Z" transform="translate(570.774 124)" fill="#ba8"/>
  </g>
</svg>
