<svg xmlns="http://www.w3.org/2000/svg" width="54.423" height="52.629" viewBox="0 0 54.423 52.629">
  <g id="logo" transform="translate(-73.977 -39.531)">
    <g id="mark" transform="translate(86.71 39.531)">
      <path id="Path_19" data-name="Path 19" d="M1.54,0,23.126.027a1.535,1.535,0,1,1,0,3.07L1.544,3.07A1.535,1.535,0,1,1,1.54,0Z" transform="matrix(0.966, -0.259, 0.259, 0.966, 3.727, 18.951)" fill="#d7b"/>
      <path id="Path_20" data-name="Path 20" d="M1.543.008,20.051,0a1.535,1.535,0,1,1,0,3.069L1.542,3.077a1.535,1.535,0,1,1,0-3.069Z" transform="translate(3.994 18.466) rotate(5)" fill="#ac5"/>
      <path id="Path_21" data-name="Path 21" d="M1.54,0,16.959.019a1.535,1.535,0,1,1,0,3.07L1.544,3.07A1.535,1.535,0,1,1,1.54,0Z" transform="matrix(0.966, -0.259, 0.259, 0.966, 7.139, 24.614)" fill="#6bc"/>
      <path id="Path_11" data-name="Path 11" d="M1.543.008,20.051,0a1.535,1.535,0,1,1,0,3.069L1.542,3.077a1.535,1.535,0,1,1,0-3.069Z" transform="matrix(0.996, 0.087, -0.087, 0.996, 7.68, 24.01)" fill="#49c"/>
      <path id="Path_14" data-name="Path 14" d="M1.54,0,23.126.027a1.535,1.535,0,1,1,0,3.07L1.544,3.07A1.535,1.535,0,1,1,1.54,0Z" transform="matrix(0.966, -0.259, 0.259, 0.966, 0, 13.337)" fill="#e96"/>
      <path id="Path_17" data-name="Path 17" d="M1.543.016,20.049,0a1.535,1.535,0,1,1,0,3.07L1.541,3.086a1.535,1.535,0,1,1,0-3.07Z" transform="translate(3.455 3.833) rotate(10)" fill="#ac5"/>
      <path id="Path_18" data-name="Path 18" d="M1.542,0H26.221a1.535,1.535,0,1,1,0,3.069H1.542A1.535,1.535,0,1,1,1.542,0Z" transform="translate(0.306 12.905)" fill="#e66"/>
      <path id="Path_16" data-name="Path 16" d="M1.542,0,16.965.007a1.535,1.535,0,1,1,0,3.069L1.543,3.069A1.535,1.535,0,1,1,1.542,0Z" transform="translate(2.919 4.228) rotate(-5)" fill="#4b9"/>
      <path id="Path_15" data-name="Path 15" d="M1.544.012,10.8,0a1.535,1.535,0,1,1,0,3.07L1.54,3.082a1.535,1.535,0,1,1,0-3.07Z" transform="matrix(0.966, 0.259, -0.259, 0.966, 10.196, 0)" fill="#49c"/>
    </g>
    <g id="Group_191768" data-name="Group 191768" transform="translate(73.977 72.485)">
      <g id="Group_191767" data-name="Group 191767">
        <path id="Path_191696" data-name="Path 191696" d="M98.519,33.04a.789.789,0,0,1-.561-.214.748.748,0,0,1-.229-.573v-.47H95.058a.685.685,0,0,1-.693-.691.693.693,0,0,1,.187-.49.659.659,0,0,1,.505-.2H97.73v-.525a.748.748,0,0,1,.229-.573.789.789,0,0,1,.561-.214.773.773,0,0,1,.547.214.748.748,0,0,1,.228.573V30.4h2.687v-.525a.737.737,0,0,1,.235-.573.833.833,0,0,1,1.114,0,.748.748,0,0,1,.229.573V30.4h2.659a.691.691,0,1,1,0,1.381H103.56v.47a.748.748,0,0,1-.229.573.833.833,0,0,1-1.114,0,.736.736,0,0,1-.235-.573v-.47H99.295v.47a.747.747,0,0,1-.228.573.773.773,0,0,1-.547.214" transform="translate(-94.268 -22.366)" fill="#49c"/>
        <path id="Path_191697" data-name="Path 191697" d="M95.246,50.453a1.22,1.22,0,0,1-.671-.048.666.666,0,0,1-.409-.5.712.712,0,0,1,.09-.628.784.784,0,0,1,.533-.311,9.372,9.372,0,0,0,2.936-.994,3.684,3.684,0,0,0,1.523-1.561H94.706a.668.668,0,0,1-.512-.207A.684.684,0,0,1,94,45.717a.7.7,0,0,1,.194-.5.668.668,0,0,1,.512-.207h1.357V44.2a3.2,3.2,0,0,1,.221-1.312,1.314,1.314,0,0,1,.755-.691,4.052,4.052,0,0,1,1.433-.207h1.108v-.635a.748.748,0,0,1,.229-.573.833.833,0,0,1,1.115,0,.737.737,0,0,1,.235.573v.635h1.08a4.1,4.1,0,0,1,1.447.207,1.316,1.316,0,0,1,.755.691,3.2,3.2,0,0,1,.222,1.312v.815h1.412a.647.647,0,0,1,.505.207.716.716,0,0,1,.187.5.7.7,0,0,1-.187.483.648.648,0,0,1-.505.207h-4.6a5.687,5.687,0,0,0,1.911,1.63,8.266,8.266,0,0,0,2.631.87.8.8,0,0,1,.554.325.741.741,0,0,1,.111.628.726.726,0,0,1-.409.525,1.106,1.106,0,0,1-.671.069,10.169,10.169,0,0,1-2.874-1.1,6.968,6.968,0,0,1-2.25-2.023,5.6,5.6,0,0,1-1.952,1.885,10.829,10.829,0,0,1-3.282,1.236m2.479-5.441h1.842a.435.435,0,0,0,.014-.1V43.327H98.93a2.669,2.669,0,0,0-.768.083.521.521,0,0,0-.346.311,1.906,1.906,0,0,0-.09.67Zm3.42,0h1.883v-.621a1.914,1.914,0,0,0-.09-.67.521.521,0,0,0-.339-.311,2.6,2.6,0,0,0-.762-.083h-.679v1.581a.421.421,0,0,1-.014.1" transform="translate(-94 -30.803)" fill="#777"/>
        <path id="Path_191698" data-name="Path 191698" d="M146.018,34.735a.6.6,0,0,1-.464-.186.668.668,0,0,1,0-.9.6.6,0,0,1,.464-.187h4.459a.6.6,0,0,1,.464.187.669.669,0,0,1,0,.9.6.6,0,0,1-.464.186Zm.706-1.933a.629.629,0,0,1-.485-.194.663.663,0,0,1-.18-.469.628.628,0,0,1,.665-.649h3.129a.622.622,0,0,1,.478.186.656.656,0,0,1,.173.463.679.679,0,0,1-.173.469.609.609,0,0,1-.478.194Zm-.028,3.881a.6.6,0,0,1-.471-.186.7.7,0,0,1,0-.9.61.61,0,0,1,.471-.18h3.171a.611.611,0,0,1,.471.18.7.7,0,0,1,0,.9.6.6,0,0,1-.471.186Zm0,1.947a.6.6,0,0,1-.471-.186.652.652,0,0,1-.166-.449.67.67,0,0,1,.166-.463.6.6,0,0,1,.471-.186h3.171a.6.6,0,0,1,.471.186.67.67,0,0,1,.166.463.652.652,0,0,1-.166.449.6.6,0,0,1-.471.186Zm1.662,4.779a3.8,3.8,0,0,1-1.35-.193,1.2,1.2,0,0,1-.693-.649,3.885,3.885,0,0,1,0-2.465,1.18,1.18,0,0,1,.693-.635,3.917,3.917,0,0,1,1.35-.187,3.97,3.97,0,0,1,1.364.187,1.155,1.155,0,0,1,.685.635,4.016,4.016,0,0,1,0,2.465,1.178,1.178,0,0,1-.685.649,3.849,3.849,0,0,1-1.364.193m0-1.271a.908.908,0,0,0,.637-.159,1.415,1.415,0,0,0,0-1.277,1.293,1.293,0,0,0-1.267,0,1.36,1.36,0,0,0,0,1.277.91.91,0,0,0,.63.159m3.033-4.005a.662.662,0,0,1-.5-.2.717.717,0,0,1,0-.981.664.664,0,0,1,.5-.2h1.08q.069-.29.173-.7t.2-.884h-.79a.629.629,0,0,1-.484-.193.645.645,0,0,1-.18-.456.664.664,0,0,1,.18-.47.63.63,0,0,1,.484-.193h1.08q.069-.318.125-.587t.1-.463h-1.731a.607.607,0,0,1-.478-.194.678.678,0,0,1-.173-.469.655.655,0,0,1,.173-.463.62.62,0,0,1,.478-.186h5.927a.628.628,0,0,1,.665.649.664.664,0,0,1-.18.469.63.63,0,0,1-.485.194h-2.617q-.041.207-.1.469t-.125.58h.429a2.179,2.179,0,0,1,1.482.38,1.884,1.884,0,0,1,.4,1.388v1.132h.872a.658.658,0,0,1,.505.2.736.736,0,0,1,0,.981.657.657,0,0,1-.505.2Zm2.673-1.381h1.454v-.842a.879.879,0,0,0-.145-.6.94.94,0,0,0-.63-.145h-.319q-.1.47-.194.884t-.166.7" transform="translate(-131.74 -24.13)" fill="#777"/>
        <path id="Path_191699" data-name="Path 191699" d="M206.229,56.481a15.177,15.177,0,0,1-3.254-.283,4.249,4.249,0,0,1-1.98-.96q-.166.124-.464.317t-.568.38l-.409.283a.849.849,0,0,1-.63.118.7.7,0,0,1-.519-.366.833.833,0,0,1-.069-.615.665.665,0,0,1,.388-.463q.235-.11.665-.325t.734-.38V51.122a.7.7,0,0,0-.111-.456.591.591,0,0,0-.443-.124h-.692a.668.668,0,0,1-.512-.207.7.7,0,0,1-.194-.5.72.72,0,0,1,.194-.511.668.668,0,0,1,.512-.207h1.3a1.271,1.271,0,0,1,1.44,1.436v3.453a2.742,2.742,0,0,0,.907.608,5.24,5.24,0,0,0,1.44.338,20.28,20.28,0,0,0,2.265.1q1.149,0,2.125-.035t1.724-.09a.954.954,0,0,1,.665.173.664.664,0,0,1,.263.559.78.78,0,0,1-.215.566.943.943,0,0,1-.672.235H208.8q-.727,0-1.412.007t-1.156.007" transform="translate(-170.515 -37.093)" fill="#e66"/>
        <path id="Path_191700" data-name="Path 191700" d="M202.825,33.784a.783.783,0,0,1-.554.221.656.656,0,0,1-.526-.248q-.166-.207-.422-.477t-.526-.532q-.27-.262-.492-.442a.583.583,0,0,1-.208-.49.737.737,0,0,1,.221-.5.772.772,0,0,1,.506-.249.727.727,0,0,1,.547.18q.235.194.519.463l.554.525q.27.256.436.449a.689.689,0,0,1,.215.553.814.814,0,0,1-.27.552" transform="translate(-171.93 -23.814)" fill="#e66"/>
        <path id="Path_191701" data-name="Path 191701" d="M215.3,39.894a2.973,2.973,0,0,1-1.863-.449,1.987,1.987,0,0,1-.547-1.609V35.35a2.068,2.068,0,0,1,.5-1.568,2.581,2.581,0,0,1,1.7-.49c.028-.119.058-.246.09-.38s.062-.256.09-.366h-2.825a.63.63,0,0,1-.485-.194.7.7,0,0,1,0-.939.631.631,0,0,1,.485-.193h1.482q-.1-.166-.222-.366t-.235-.394a.558.558,0,0,1-.048-.518.755.755,0,0,1,.367-.407.815.815,0,0,1,.575-.062.736.736,0,0,1,.45.352q.166.263.319.483a3.583,3.583,0,0,1,.249.414.628.628,0,0,1,.069.5h1.3q.152-.29.339-.649a5.611,5.611,0,0,0,.3-.663.768.768,0,0,1,.457-.463.934.934,0,0,1,.623.007.731.731,0,0,1,.45.421.675.675,0,0,1-.035.587q-.07.138-.187.352t-.242.407h1.675a.627.627,0,0,1,.492.193.723.723,0,0,1,0,.939.625.625,0,0,1-.492.194H217q-.042.18-.09.373t-.09.373h.581a3,3,0,0,1,1.876.449,1.99,1.99,0,0,1,.547,1.609v2.486a1.989,1.989,0,0,1-.547,1.609,3,3,0,0,1-1.876.449Zm-.762-3h3.628v-.621h-3.628Zm.014-1.768h3.614a.587.587,0,0,0-.249-.511,1.715,1.715,0,0,0-.775-.124h-1.579a1.668,1.668,0,0,0-.769.124.594.594,0,0,0-.242.511m1.011,3.563h1.579a1.632,1.632,0,0,0,.782-.131.615.615,0,0,0,.242-.518h-3.614a.614.614,0,0,0,.242.518,1.592,1.592,0,0,0,.769.131" transform="translate(-180.514 -22.591)" fill="#777"/>
        <path id="Path_191702" data-name="Path 191702" d="M259.983,42.429a.986.986,0,0,1-.574-.159.677.677,0,0,1-.27-.5.719.719,0,0,1,.173-.553.679.679,0,0,1,.505-.249,1.625,1.625,0,0,0,.63-.124.685.685,0,0,0,.27-.428q.083-.263.166-.663t.138-.829a.92.92,0,0,0-.028-.525.453.453,0,0,0-.332-.221,8.782,8.782,0,0,1-.838,1.547,11.319,11.319,0,0,1-1.15,1.443,8.632,8.632,0,0,1-1.3,1.139.915.915,0,0,1-.54.166.634.634,0,0,1-.5-.221.621.621,0,0,1-.173-.456.5.5,0,0,1,.215-.414,12.392,12.392,0,0,0,1.69-1.547,8.524,8.524,0,0,0,1.2-1.685h-.623a7.617,7.617,0,0,1-1,1.388,11.73,11.73,0,0,1-1.316,1.264,8.075,8.075,0,0,1-1.4.939.782.782,0,0,1-.547.076.648.648,0,0,1-.436-.325.608.608,0,0,1-.055-.476.594.594,0,0,1,.291-.38,9.319,9.319,0,0,0,1.676-1.119,8.453,8.453,0,0,0,1.343-1.367h-.748a10.717,10.717,0,0,1-.852.863q-.45.407-.907.753a.846.846,0,0,1-.54.152.631.631,0,0,1-.485-.235.689.689,0,0,1-.131-.477.5.5,0,0,1,.242-.407q.249-.18.506-.394t.505-.435l-.083.055a.856.856,0,0,1-.1.055q-.429.194-1.052.449t-1.26.49q-.637.235-1.094.387a.714.714,0,0,1-.63-.042.815.815,0,0,1-.381-.469.755.755,0,0,1,.042-.587.732.732,0,0,1,.484-.366q.485-.124,1.122-.318V34.129h-1.011a.686.686,0,0,1-.526-.207.7.7,0,0,1-.194-.5.72.72,0,0,1,.194-.511.687.687,0,0,1,.526-.207h1.011V30.58a.715.715,0,0,1,.221-.559.866.866,0,0,1,1.108,0,.716.716,0,0,1,.222.559v2.127h.914a.67.67,0,0,1,.513.207.721.721,0,0,1,.194.511.7.7,0,0,1-.194.5.67.67,0,0,1-.513.207h-.914V37.1l.4-.159.374-.145a.638.638,0,0,1,.519,0,.581.581,0,0,1,.339.373.684.684,0,0,1-.1.677,12,12,0,0,0,1.288-1.436H255a.527.527,0,0,1-.422-.187.674.674,0,0,1,0-.87.527.527,0,0,1,.422-.186H262.5a.543.543,0,0,1,.436.186.673.673,0,0,1,0,.87.543.543,0,0,1-.436.187h-4.792q-.083.138-.166.283t-.18.3H260.7a2.055,2.055,0,0,1,1.44.428,1.643,1.643,0,0,1,.346,1.436,12.142,12.142,0,0,1-.346,2.1,1.83,1.83,0,0,1-.713,1.126,2.558,2.558,0,0,1-1.447.352" transform="translate(-208.676 -22.903)" fill="#777"/>
        <path id="Path_191703" data-name="Path 191703" d="M273.45,35.3a4.213,4.213,0,0,1-1.454-.2,1.255,1.255,0,0,1-.741-.7,4.8,4.8,0,0,1,0-2.838,1.259,1.259,0,0,1,.741-.7,4.22,4.22,0,0,1,1.454-.2h1.177a4.223,4.223,0,0,1,1.454.2,1.283,1.283,0,0,1,.748.7,4.653,4.653,0,0,1,0,2.838,1.279,1.279,0,0,1-.748.7,4.215,4.215,0,0,1-1.454.2Zm-.886-2.859h2.964a.6.6,0,0,0-.277-.5,1.97,1.97,0,0,0-.762-.1h-.872a2.017,2.017,0,0,0-.775.1.6.6,0,0,0-.277.5m1.053,1.671h.872a1.9,1.9,0,0,0,.775-.111.6.6,0,0,0,.263-.525h-2.964a.6.6,0,0,0,.27.525,1.951,1.951,0,0,0,.783.111" transform="translate(-224.04 -23.517)" fill="#d7b"/>
        <path id="Path_191704" data-name="Path 191704" d="M134.664,7.342c-.252,0-.306-.071-.306-.289V6.027H135.7a.258.258,0,0,0,.269-.247.248.248,0,0,0,0-.032.258.258,0,0,0-.236-.278h-1.378V4.63c0-.218.055-.289.306-.289h1.352a.258.258,0,0,0,.269-.247.249.249,0,0,0,0-.032.258.258,0,0,0-.236-.278h-1.542c-.646,0-.826.213-.826.737V7.162c0,.524.181.737.826.737h1.652a.258.258,0,0,0,.269-.247.316.316,0,0,0,0-.032.257.257,0,0,0-.236-.277h-1.526Zm4.9-1.141V7.637a.312.312,0,0,0,.311.313l.039,0a.3.3,0,0,0,.337-.265.293.293,0,0,0,0-.046V6.18l1.231-1.965a.321.321,0,0,0-.323-.48.278.278,0,0,0-.246.136l-.969,1.681-.963-1.67a.288.288,0,0,0-.252-.147c-.224,0-.394.142-.394.289a.363.363,0,0,0,.044.191Zm5.324-.125c.547.153.722.349.722.677a.653.653,0,0,1-.614.69.662.662,0,0,1-.1,0A1.007,1.007,0,0,1,144,6.977a.288.288,0,0,0-.23-.1.313.313,0,0,0-.328.295.388.388,0,0,0,.093.235,1.6,1.6,0,0,0,1.347.584,1.253,1.253,0,0,0,1.379-1.244c0-.71-.3-1.032-1.16-1.272l-.2-.055c-.542-.147-.689-.322-.689-.677,0-.295.23-.5.618-.5a.846.846,0,0,1,.689.366.3.3,0,0,0,.235.1.314.314,0,0,0,.334-.293c0-.011,0-.023,0-.034a.3.3,0,0,0-.11-.224A1.515,1.515,0,0,0,144.81,3.7a1.1,1.1,0,0,0-1.242,1.081c0,.66.29,1.015,1.122,1.244Zm3.71.049a.242.242,0,0,0-.247.238.18.18,0,0,0,0,.024.243.243,0,0,0,.222.261h1.386a.242.242,0,0,0,.247-.238.18.18,0,0,0,0-.024.242.242,0,0,0-.222-.261H148.6Zm4.624-.606V4.046a.3.3,0,0,0-.284-.313.4.4,0,0,0-.392.27.327.327,0,0,0,0,.043V7.637a.308.308,0,0,0,.3.313l.043,0a.3.3,0,0,0,.332-.262.3.3,0,0,0,0-.049V6.289l.274-.278,1.428,1.823a.293.293,0,0,0,.268.115.335.335,0,0,0,.345-.316.325.325,0,0,0-.082-.224l-1.527-1.845,1.22-1.25a.361.361,0,0,0,.121-.273.33.33,0,0,0-.345-.306.314.314,0,0,0-.246.125ZM157.7,7.659c0,.18.121.284.318.284a.275.275,0,0,0,.31-.235.267.267,0,0,0,0-.048V5.318a.275.275,0,0,0-.263-.286.294.294,0,0,0-.048,0c-.2,0-.318.1-.318.284Zm.318-3.913a.4.4,0,0,0-.41.4v0a.4.4,0,0,0,.4.4h.007a.4.4,0,0,0,.41-.391V4.15a.4.4,0,0,0-.405-.4h0m5.165.235a.275.275,0,0,0-.264-.286.294.294,0,0,0-.048,0c-.2,0-.317.1-.317.284V5.323a.918.918,0,0,0-.673-.317c-.722,0-1.275.513-1.275,1.479,0,.944.5,1.485,1.259,1.485a.811.811,0,0,0,.749-.508,2.528,2.528,0,0,0,.082.295.241.241,0,0,0,.252.191c.2,0,.339-.087.339-.224a.756.756,0,0,0-.028-.2,5.724,5.724,0,0,1-.076-1.026Zm-.629,2.7a.722.722,0,0,1-.64.8c-.4,0-.679-.322-.679-.993,0-.633.3-.971.689-.971a.749.749,0,0,1,.629.376Zm3.967.022c.372.093.476.191.476.393,0,.235-.164.4-.487.4a.8.8,0,0,1-.657-.284.265.265,0,0,0-.208-.093.259.259,0,0,0-.273.243v0a.236.236,0,0,0,.071.2,1.358,1.358,0,0,0,1.067.415c.667,0,1.073-.36,1.073-.89,0-.491-.235-.737-.843-.873l-.2-.044c-.421-.093-.492-.175-.492-.366,0-.164.121-.311.422-.311a.669.669,0,0,1,.558.246.266.266,0,0,0,.186.071.269.269,0,0,0,.273-.265v0a.252.252,0,0,0-.088-.208,1.327,1.327,0,0,0-.936-.322c-.591,0-1,.317-1,.786s.219.7.87.862Z" transform="translate(-123.145 -3.694)" fill="#777"/>
        <path id="Path_191705" data-name="Path 191705" d="M172.629,64.014a5.95,5.95,0,0,1-1.676-.187,1.35,1.35,0,0,1-.859-.676,3.084,3.084,0,0,1-.249-1.374,3.031,3.031,0,0,1,.249-1.374,1.361,1.361,0,0,1,.859-.663,7.655,7.655,0,0,1,3.358,0,1.359,1.359,0,0,1,.852.663,3.031,3.031,0,0,1,.249,1.374,3.084,3.084,0,0,1-.249,1.374,1.348,1.348,0,0,1-.852.676,5.937,5.937,0,0,1-1.682.187m.014-1.423a4.375,4.375,0,0,0,.754-.048.449.449,0,0,0,.346-.228,1.246,1.246,0,0,0,.09-.539,1.159,1.159,0,0,0-.09-.518.492.492,0,0,0-.346-.235,3.417,3.417,0,0,0-.754-.062,1.99,1.99,0,0,0-.99.159.74.74,0,0,0-.229.642,1.166,1.166,0,0,0,.1.539.5.5,0,0,0,.36.235,3.963,3.963,0,0,0,.762.055" transform="translate(-149.71 -44.763)" fill="#4b9"/>
      </g>
    </g>
  </g>
</svg>
