<svg xmlns="http://www.w3.org/2000/svg" width="58.551" height="34.379" viewBox="0 0 58.551 34.379">
  <g id="アートワーク_52" data-name="アートワーク 52" transform="translate(29.275 17.19)">
    <g id="Group_193484" data-name="Group 193484" transform="translate(-29.275 -17.19)">
      <g id="Group_193479" data-name="Group 193479" transform="translate(13.012 30.287)">
        <g id="Group_193478" data-name="Group 193478">
          <path id="Path_370345" data-name="Path 370345" d="M24.286,54.242H22.859v1.086h2.512V55.9H22.223v-3.71h3.012v.568H22.859v.92h1.426Z" transform="translate(-22.223 -51.917)" fill="#231815"/>
          <path id="Path_370346" data-name="Path 370346" d="M32.865,52.185l-1.523,2V55.9h-.636v-1.71l-1.523-2h.807l1.063,1.432,1.063-1.432Z" transform="translate(-25.108 -51.917)" fill="#231815"/>
          <path id="Path_370347" data-name="Path 370347" d="M40.04,52.974a2.028,2.028,0,0,0-1.347-.432c-.443,0-.836.142-.836.534s.551.42,1.114.46c.665.046,1.711.114,1.711,1.148,0,.9-.75,1.245-1.636,1.245a2.911,2.911,0,0,1-2.029-.779l.386-.443a2.38,2.38,0,0,0,1.654.67c.551,0,.989-.187.989-.608,0-.466-.426-.563-1.074-.614-.818-.057-1.75-.125-1.75-1.023,0-.881.813-1.142,1.495-1.142a2.9,2.9,0,0,1,1.71.54Z" transform="translate(-28.355 -51.837)" fill="#231815"/>
          <path id="Path_370348" data-name="Path 370348" d="M45.364,55.552h1.461v.58H45.364Z" transform="translate(-31.815 -53.313)" fill="#231815"/>
          <path id="Path_370349" data-name="Path 370349" d="M51.213,54.021l1.938-1.836h.79l-1.517,1.42,1.847,2.29h-.824l-1.484-1.864-.75.7V55.9h-.636v-3.71h.636Z" transform="translate(-33.976 -51.917)" fill="#231815"/>
          <path id="Path_370350" data-name="Path 370350" d="M58.955,51.728a.362.362,0,0,1,.375.341.353.353,0,0,1-.375.335.348.348,0,0,1-.369-.335A.352.352,0,0,1,58.955,51.728Zm-.29,3.978V52.962h.586v2.744Z" transform="translate(-37.295 -51.728)" fill="#231815"/>
          <path id="Path_370351" data-name="Path 370351" d="M64.332,55.706a1.712,1.712,0,0,1-.04-.381,1.146,1.146,0,0,1-.9.466,1.465,1.465,0,0,1,0-2.921,1.211,1.211,0,0,1,.847.369V51.728h.586v3.223a3.882,3.882,0,0,0,.051.755Zm-1.642-1.381c0,.58.341.955.756.955a1.048,1.048,0,0,0,.79-.387V53.768a1.135,1.135,0,0,0-.79-.381C63.024,53.387,62.689,53.757,62.689,54.325Z" transform="translate(-38.727 -51.728)" fill="#231815"/>
          <path id="Path_370352" data-name="Path 370352" d="M71.295,54.427a2.372,2.372,0,0,0-1.018-.278c-.3,0-.557.1-.557.318,0,.279.426.307.671.319.483.022,1.307.068,1.307.864,0,.653-.563.955-1.285.955a2.4,2.4,0,0,1-1.364-.421l.221-.443a2.165,2.165,0,0,0,1.137.375c.4,0,.7-.142.7-.409,0-.313-.42-.347-.721-.364-.574-.034-1.256-.085-1.256-.807,0-.671.6-.875,1.131-.875a2.814,2.814,0,0,1,1.25.318Z" transform="translate(-41.632 -52.529)" fill="#231815"/>
        </g>
      </g>
      <g id="Group_193481" data-name="Group 193481" transform="translate(0 18.473)">
        <g id="Group_193480" data-name="Group 193480">
          <path id="Path_370353" data-name="Path 370353" d="M0,38.36l3.025-6.52h.819L6.87,38.36H5.921L5.032,36.4H1.778L.9,38.36ZM2.087,35.7H4.723L3.435,32.858h-.06Z" transform="translate(0 -31.67)" fill="#231815"/>
          <path id="Path_370354" data-name="Path 370354" d="M20.73,37.112a4.452,4.452,0,0,1-3.125,1.3,3.433,3.433,0,1,1-.04-6.86,4.459,4.459,0,0,1,2.986,1.118l-.589.579a3.591,3.591,0,0,0-2.377-.929,2.661,2.661,0,1,0,.03,5.322,3.563,3.563,0,0,0,2.536-1.1Z" transform="translate(-5.811 -31.55)" fill="#231815"/>
          <path id="Path_370355" data-name="Path 370355" d="M27.494,38.36l3.025-6.52h.819l3.026,6.52h-.949L32.526,36.4H29.271l-.879,1.957ZM29.581,35.7h2.636l-1.288-2.846h-.06Z" transform="translate(-11.396 -31.67)" fill="#231815"/>
          <path id="Path_370356" data-name="Path 370356" d="M42.519,38.36V31.84h2.9a3.254,3.254,0,0,1,2.487.908,3.492,3.492,0,0,1-.05,4.753,3.208,3.208,0,0,1-2.436.859Zm2.866-.769a2.337,2.337,0,0,0,1.788-.629,2.626,2.626,0,0,0,.729-1.867,2.585,2.585,0,0,0-.7-1.827,2.345,2.345,0,0,0-1.817-.659h-2v4.983Z" transform="translate(-17.624 -31.67)" fill="#231815"/>
          <path id="Path_370357" data-name="Path 370357" d="M60.641,35.314H58v2.277h4.6v.769H57.136V31.84h5.243v.769H58v1.937h2.636Z" transform="translate(-23.682 -31.67)" fill="#231815"/>
          <path id="Path_370358" data-name="Path 370358" d="M75.869,38.36V33.417h-.05l-2.357,3.964h-.18l-2.357-3.964h-.05V38.36h-.829V31.84h.919l2.436,4.1h.02l2.436-4.1h.879v6.52Z" transform="translate(-29.034 -31.67)" fill="#231815"/>
          <path id="Path_370359" data-name="Path 370359" d="M90.868,31.84,88.192,35.3V38.36h-.868V35.3L84.647,31.84h1.1l2.047,2.7,2.057-2.7Z" transform="translate(-35.086 -31.67)" fill="#231815"/>
        </g>
      </g>
      <g id="Group_193483" data-name="Group 193483" transform="translate(7.619 6.831)">
        <g id="Group_193482" data-name="Group 193482">
          <path id="Path_370360" data-name="Path 370360" d="M13.013,18.528v-6.52h3.006a3.588,3.588,0,0,1,2.726.978,3.424,3.424,0,0,1-.05,4.613,3.588,3.588,0,0,1-2.676.929Zm2.966-1.468a1.66,1.66,0,0,0,1.3-.429,1.742,1.742,0,0,0,.529-1.348,1.825,1.825,0,0,0-.479-1.319,1.617,1.617,0,0,0-1.348-.489H14.761V17.06Z" transform="translate(-13.013 -11.808)" fill="#231815"/>
          <path id="Path_370361" data-name="Path 370361" d="M26.743,18.528l3.025-6.52h1.448l3.026,6.52H32.335l-.419-1H29l-.409,1Zm2.816-2.357h1.8l-.869-2.087h-.06Z" transform="translate(-18.704 -11.808)" fill="#231815"/>
          <path id="Path_370362" data-name="Path 370362" d="M48.964,12.008v6.52H47.487l-2.876-3.545H44.6v3.545H42.843v-6.52h1.468L47.2,15.563h.01V12.008Z" transform="translate(-25.377 -11.808)" fill="#231815"/>
          <path id="Path_370363" data-name="Path 370363" d="M64.33,17.259a5.161,5.161,0,0,1-3.4,1.328,3.463,3.463,0,1,1-.05-6.92,5.47,5.47,0,0,1,3.255,1.118l-1.049,1.138a3.4,3.4,0,0,0-1.987-.789,1.933,1.933,0,0,0-1.987,2,1.957,1.957,0,0,0,2.037,2,3.35,3.35,0,0,0,2.127-.988Z" transform="translate(-31.365 -11.667)" fill="#231815"/>
          <path id="Path_370364" data-name="Path 370364" d="M76.906,15.912h-2.3V17.06h4.044v1.468H72.861v-6.52h5.572v1.468H74.609V14.5h2.3Z" transform="translate(-37.82 -11.808)" fill="#231815"/>
        </g>
      </g>
      <path id="Path_370365" data-name="Path 370365" d="M1.536,22H.322l2.346,4.083H3.881Z" transform="translate(-0.133 -9.119)" fill="#ea6da4"/>
      <path id="Path_370366" data-name="Path 370366" d="M97.62,22H96.406l-2.148,4.083h1.214Z" transform="translate(-39.069 -9.119)" fill="#8dc21f"/>
      <rect id="Rectangle_107748" data-name="Rectangle 107748" width="1.214" height="4.083" transform="translate(29.697)" fill="#f5ab18"/>
      <rect id="Rectangle_107749" data-name="Rectangle 107749" width="1.214" height="4.083" transform="translate(7.604)" fill="#e95513"/>
      <rect id="Rectangle_107750" data-name="Rectangle 107750" width="1.214" height="4.083" transform="translate(46.835 27.622)" fill="#2ca6e0"/>
    </g>
  </g>
</svg>
