<svg xmlns="http://www.w3.org/2000/svg" width="158.938" height="40" viewBox="0 0 158.938 40">
  <g id="loog_Kids_english" transform="translate(-3.714 -3.694)">
    <g id="Group_185287" data-name="Group 185287" transform="translate(3.714 3.694)">
      <g id="Group_185288" data-name="Group 185288">
        <path id="Path_191687" data-name="Path 191687" d="M13.031,46.27,42.2,38.449a2.157,2.157,0,1,1,1.117,4.167L14.148,50.438a2.157,2.157,0,1,1-1.117-4.167" transform="translate(-6.166 -20.698)" fill="#d7b"/>
        <path id="Path_191688" data-name="Path 191688" d="M13.114,55.678,38.9,57.934a2.157,2.157,0,0,1-.376,4.3L12.738,59.976a2.157,2.157,0,0,1,.376-4.3" transform="translate(-5.808 -30.027)" fill="#ac5"/>
        <path id="Path_191689" data-name="Path 191689" d="M23.39,66.167,44.226,60.58a2.157,2.157,0,0,1,1.117,4.167L24.507,70.334a2.157,2.157,0,1,1-1.117-4.167" transform="translate(-11.753 -32.635)" fill="#6bc"/>
        <path id="Path_191690" data-name="Path 191690" d="M24.306,72.593l25.78,2.252a2.156,2.156,0,1,1-.375,4.3L23.931,76.89a2.157,2.157,0,0,1,.375-4.3" transform="translate(-11.846 -39.15)" fill="#49c"/>
        <path id="Path_191691" data-name="Path 191691" d="M1.715,29.141,30.885,21.32A2.157,2.157,0,1,1,32,25.487L2.832,33.309a2.157,2.157,0,1,1-1.117-4.167" transform="translate(-0.062 -11.459)" fill="#e96"/>
        <path id="Path_191692" data-name="Path 191692" d="M11.2,11.429l25.49,4.494a2.157,2.157,0,0,1-.749,4.248l-25.49-4.494a2.157,2.157,0,1,1,.749-4.248" transform="translate(-4.677 -6.147)" fill="#ac5"/>
        <path id="Path_191693" data-name="Path 191693" d="M2.157,38.282H36.669a2.157,2.157,0,0,1,0,4.314H2.157a2.157,2.157,0,1,1,0-4.314" transform="translate(0 -20.648)" fill="#e66"/>
        <path id="Path_191694" data-name="Path 191694" d="M10.289,9.187l21.488-1.88a2.157,2.157,0,1,1,.376,4.3l-21.488,1.88a2.157,2.157,0,1,1-.376-4.3" transform="translate(-4.488 -3.937)" fill="#4b9"/>
        <path id="Path_191695" data-name="Path 191695" d="M31.363.074l12.5,3.352a2.157,2.157,0,1,1-1.117,4.167l-12.5-3.352A2.157,2.157,0,0,1,31.363.074" transform="translate(-15.451 0)" fill="#49c"/>
      </g>
      <path id="Path_191696" data-name="Path 191696" d="M102.788,37.12a1.6,1.6,0,0,1-1.137-.435,1.522,1.522,0,0,1-.463-1.165v-.955H95.769a1.39,1.39,0,0,1-1.4-1.4,1.411,1.411,0,0,1,.379-1,1.334,1.334,0,0,1,1.025-.407h5.419V30.69a1.524,1.524,0,0,1,.463-1.165,1.6,1.6,0,0,1,1.137-.435,1.565,1.565,0,0,1,1.109.435,1.523,1.523,0,0,1,.463,1.165v1.067h5.447V30.69a1.5,1.5,0,0,1,.477-1.165,1.685,1.685,0,0,1,2.26,0,1.523,1.523,0,0,1,.463,1.165v1.067H118.4a1.4,1.4,0,1,1,0,2.808h-5.391v.955a1.522,1.522,0,0,1-.463,1.165,1.685,1.685,0,0,1-2.26,0,1.5,1.5,0,0,1-.477-1.165v-.955H104.36v.955a1.522,1.522,0,0,1-.463,1.165,1.565,1.565,0,0,1-1.109.435" transform="translate(-45.572 -15.421)" fill="#49c"/>
      <path id="Path_191697" data-name="Path 191697" d="M96.527,60.668a2.467,2.467,0,0,1-1.361-.1,1.353,1.353,0,0,1-.829-1.025,1.45,1.45,0,0,1,.183-1.277,1.588,1.588,0,0,1,1.081-.632,18.967,18.967,0,0,0,5.952-2.021,7.48,7.48,0,0,0,3.088-3.173H95.432a1.353,1.353,0,0,1-1.039-.421A1.392,1.392,0,0,1,94,51.038a1.426,1.426,0,0,1,.393-1.011,1.352,1.352,0,0,1,1.039-.421h2.752V47.949a6.53,6.53,0,0,1,.449-2.668,2.668,2.668,0,0,1,1.531-1.4,8.2,8.2,0,0,1,2.905-.421h2.246V42.165A1.523,1.523,0,0,1,105.779,41a1.686,1.686,0,0,1,2.26,0,1.5,1.5,0,0,1,.477,1.165v1.292h2.19a8.3,8.3,0,0,1,2.934.421,2.671,2.671,0,0,1,1.53,1.4,6.53,6.53,0,0,1,.449,2.668v1.656h2.863a1.31,1.31,0,0,1,1.025.421,1.459,1.459,0,0,1,.379,1.011,1.423,1.423,0,0,1-.379.982,1.311,1.311,0,0,1-1.025.421h-9.321a11.539,11.539,0,0,0,3.875,3.313,16.728,16.728,0,0,0,5.335,1.769,1.62,1.62,0,0,1,1.123.66,1.509,1.509,0,0,1,.224,1.277,1.475,1.475,0,0,1-.828,1.067,2.238,2.238,0,0,1-1.361.14,20.582,20.582,0,0,1-5.827-2.232,14.14,14.14,0,0,1-4.562-4.113,11.369,11.369,0,0,1-3.958,3.832,21.92,21.92,0,0,1-6.654,2.513m5.026-11.062h3.734a.885.885,0,0,0,.028-.21V46.18H104a5.4,5.4,0,0,0-1.558.168,1.056,1.056,0,0,0-.7.632,3.884,3.884,0,0,0-.183,1.362Zm6.935,0h3.818V48.342a3.9,3.9,0,0,0-.182-1.362,1.057,1.057,0,0,0-.688-.632,5.25,5.25,0,0,0-1.544-.168h-1.376v3.215a.859.859,0,0,1-.028.21" transform="translate(-45.403 -20.719)" fill="#777"/>
      <path id="Path_191698" data-name="Path 191698" d="M146.672,38.087a1.219,1.219,0,0,1-.94-.379,1.361,1.361,0,0,1,0-1.825,1.219,1.219,0,0,1,.94-.379h9.041a1.22,1.22,0,0,1,.941.379,1.363,1.363,0,0,1,0,1.825,1.22,1.22,0,0,1-.941.379Zm1.432-3.93a1.274,1.274,0,0,1-.983-.393,1.35,1.35,0,0,1-.365-.954,1.275,1.275,0,0,1,1.348-1.32h6.345a1.258,1.258,0,0,1,.969.379,1.335,1.335,0,0,1,.35.941,1.382,1.382,0,0,1-.35.954,1.233,1.233,0,0,1-.969.393Zm-.056,7.889a1.208,1.208,0,0,1-.954-.379,1.423,1.423,0,0,1,0-1.839,1.235,1.235,0,0,1,.954-.365h6.43a1.236,1.236,0,0,1,.954.365,1.423,1.423,0,0,1,0,1.839,1.209,1.209,0,0,1-.954.379Zm0,3.959a1.21,1.21,0,0,1-.954-.379,1.328,1.328,0,0,1-.337-.913,1.365,1.365,0,0,1,.337-.94,1.208,1.208,0,0,1,.954-.379h6.43a1.209,1.209,0,0,1,.954.379,1.365,1.365,0,0,1,.337.94,1.328,1.328,0,0,1-.337.913,1.211,1.211,0,0,1-.954.379Zm3.369,9.714a7.68,7.68,0,0,1-2.737-.393,2.442,2.442,0,0,1-1.4-1.32,6.321,6.321,0,0,1-.407-2.5,6.305,6.305,0,0,1,.407-2.513,2.4,2.4,0,0,1,1.4-1.291,7.922,7.922,0,0,1,2.737-.379,8.03,8.03,0,0,1,2.766.379,2.344,2.344,0,0,1,1.39,1.291,6.5,6.5,0,0,1,.393,2.513,6.52,6.52,0,0,1-.393,2.5,2.39,2.39,0,0,1-1.39,1.32,7.785,7.785,0,0,1-2.766.393m0-2.583a1.837,1.837,0,0,0,1.291-.323,2.883,2.883,0,0,0,0-2.6,2.616,2.616,0,0,0-2.569,0,2.772,2.772,0,0,0,0,2.6,1.84,1.84,0,0,0,1.277.323m6.148-8.142a1.34,1.34,0,0,1-1.01-.407,1.459,1.459,0,0,1,0-1.994,1.344,1.344,0,0,1,1.01-.407h2.19q.141-.589.352-1.432t.407-1.8h-1.6a1.274,1.274,0,0,1-.982-.393,1.313,1.313,0,0,1-.365-.926,1.352,1.352,0,0,1,.365-.955,1.276,1.276,0,0,1,.982-.393h2.19q.14-.646.252-1.193t.2-.94h-3.51a1.23,1.23,0,0,1-.968-.393,1.38,1.38,0,0,1-.351-.954,1.333,1.333,0,0,1,.351-.941,1.255,1.255,0,0,1,.968-.379H170.06a1.275,1.275,0,0,1,1.348,1.32,1.353,1.353,0,0,1-.365.954,1.276,1.276,0,0,1-.983.393h-5.307q-.084.421-.2.954T164.3,36.29h.87a4.41,4.41,0,0,1,3,.772,3.838,3.838,0,0,1,.814,2.822v2.3h1.769a1.333,1.333,0,0,1,1.024.407,1.5,1.5,0,0,1,0,1.994,1.329,1.329,0,0,1-1.024.407Zm5.419-2.808h2.948V40.473a1.79,1.79,0,0,0-.295-1.221,1.9,1.9,0,0,0-1.277-.295h-.646q-.2.955-.393,1.8t-.337,1.432" transform="translate(-69.129 -16.529)" fill="#777"/>
      <path id="Path_191699" data-name="Path 191699" d="M214.51,64.084a30.691,30.691,0,0,1-6.6-.576,8.606,8.606,0,0,1-4.015-1.951q-.337.253-.94.645t-1.151.772q-.547.379-.828.575a1.718,1.718,0,0,1-1.277.239,1.42,1.42,0,0,1-1.053-.744,1.7,1.7,0,0,1-.141-1.249,1.351,1.351,0,0,1,.786-.94q.477-.224,1.348-.66t1.488-.772V53.191a1.424,1.424,0,0,0-.225-.926,1.2,1.2,0,0,0-.9-.253h-1.4a1.353,1.353,0,0,1-1.039-.421,1.43,1.43,0,0,1-.393-1.011,1.466,1.466,0,0,1,.393-1.039,1.353,1.353,0,0,1,1.039-.421h2.639a2.581,2.581,0,0,1,2.92,2.92v7.019A5.558,5.558,0,0,0,207,60.294a10.6,10.6,0,0,0,2.919.688,41.006,41.006,0,0,0,4.591.211q2.33,0,4.309-.071t3.5-.182a1.931,1.931,0,0,1,1.348.351,1.351,1.351,0,0,1,.533,1.137,1.588,1.588,0,0,1-.435,1.151,1.91,1.91,0,0,1-1.362.477h-2.682q-1.473,0-2.863.014t-2.344.014" transform="translate(-93.504 -24.67)" fill="#e66"/>
      <path id="Path_191700" data-name="Path 191700" d="M205.629,36.6a1.585,1.585,0,0,1-1.123.449,1.329,1.329,0,0,1-1.067-.5q-.337-.421-.856-.969t-1.067-1.081q-.548-.533-1-.9a1.188,1.188,0,0,1-.421-1,1.5,1.5,0,0,1,.449-1.025,1.564,1.564,0,0,1,1.025-.505,1.471,1.471,0,0,1,1.109.365q.477.394,1.052.941l1.124,1.067q.547.52.884.912a1.4,1.4,0,0,1,.435,1.123,1.657,1.657,0,0,1-.548,1.123" transform="translate(-94.393 -16.33)" fill="#e66"/>
      <path id="Path_191701" data-name="Path 191701" d="M218.915,50.737a6.016,6.016,0,0,1-3.776-.913,4.046,4.046,0,0,1-1.109-3.27V41.5a4.211,4.211,0,0,1,1.011-3.187,5.224,5.224,0,0,1,3.453-1c.057-.243.117-.5.183-.772s.126-.519.182-.744h-5.728a1.274,1.274,0,0,1-.983-.393,1.431,1.431,0,0,1,0-1.909,1.278,1.278,0,0,1,.983-.393h3q-.2-.337-.449-.744t-.477-.8a1.137,1.137,0,0,1-.1-1.053,1.534,1.534,0,0,1,.744-.828,1.649,1.649,0,0,1,1.165-.126,1.493,1.493,0,0,1,.912.716q.337.534.646.982a7.288,7.288,0,0,1,.505.842,1.281,1.281,0,0,1,.14,1.011h2.64q.308-.589.687-1.32a11.436,11.436,0,0,0,.6-1.347,1.559,1.559,0,0,1,.927-.941,1.889,1.889,0,0,1,1.263.014,1.484,1.484,0,0,1,.912.856,1.376,1.376,0,0,1-.07,1.193q-.141.281-.379.716t-.491.828h3.4a1.269,1.269,0,0,1,1,.393,1.474,1.474,0,0,1,0,1.909,1.266,1.266,0,0,1-1,.393h-6.345q-.085.365-.183.758t-.182.758h1.179a6.077,6.077,0,0,1,3.8.913A4.052,4.052,0,0,1,228.1,41.5v5.054a4.05,4.05,0,0,1-1.109,3.27,6.074,6.074,0,0,1-3.8.913Zm-1.544-6.092h7.356V43.382h-7.356Zm.028-3.594h7.328a1.194,1.194,0,0,0-.505-1.039,3.468,3.468,0,0,0-1.572-.252h-3.2a3.374,3.374,0,0,0-1.559.252,1.208,1.208,0,0,0-.491,1.039m2.05,7.244h3.2a3.3,3.3,0,0,0,1.586-.266,1.252,1.252,0,0,0,.491-1.053H217.4a1.25,1.25,0,0,0,.491,1.053,3.221,3.221,0,0,0,1.559.266" transform="translate(-99.79 -15.562)" fill="#777"/>
      <path id="Path_191702" data-name="Path 191702" d="M270.114,55.454a2,2,0,0,1-1.165-.322,1.376,1.376,0,0,1-.548-1.025,1.465,1.465,0,0,1,.351-1.123,1.376,1.376,0,0,1,1.024-.505,3.286,3.286,0,0,0,1.277-.252,1.394,1.394,0,0,0,.548-.87q.168-.534.337-1.348t.28-1.685a1.875,1.875,0,0,0-.056-1.067.919.919,0,0,0-.674-.449,17.87,17.87,0,0,1-1.7,3.145,22.994,22.994,0,0,1-2.331,2.934,17.514,17.514,0,0,1-2.626,2.316,1.852,1.852,0,0,1-1.095.337,1.283,1.283,0,0,1-1.011-.449,1.265,1.265,0,0,1-.35-.926,1.022,1.022,0,0,1,.435-.842,25.151,25.151,0,0,0,3.426-3.144,17.327,17.327,0,0,0,2.443-3.425h-1.264a15.485,15.485,0,0,1-2.021,2.822,23.808,23.808,0,0,1-2.668,2.569,16.373,16.373,0,0,1-2.835,1.909,1.581,1.581,0,0,1-1.109.154,1.314,1.314,0,0,1-.885-.66,1.239,1.239,0,0,1-.112-.968,1.207,1.207,0,0,1,.589-.772,18.89,18.89,0,0,0,3.4-2.274,17.158,17.158,0,0,0,2.723-2.78h-1.516a21.752,21.752,0,0,1-1.727,1.755q-.912.828-1.839,1.53a1.712,1.712,0,0,1-1.095.309,1.278,1.278,0,0,1-.983-.477,1.4,1.4,0,0,1-.266-.969,1.014,1.014,0,0,1,.491-.828q.505-.365,1.025-.8t1.024-.884l-.168.112a1.737,1.737,0,0,1-.2.112q-.87.394-2.134.912t-2.555,1q-1.292.478-2.218.786a1.445,1.445,0,0,1-1.277-.085,1.657,1.657,0,0,1-.772-.954,1.539,1.539,0,0,1,.085-1.193,1.484,1.484,0,0,1,.982-.744q.983-.253,2.275-.646v-7.1h-2.05a1.389,1.389,0,0,1-1.067-.421,1.428,1.428,0,0,1-.393-1.011,1.466,1.466,0,0,1,.393-1.039,1.391,1.391,0,0,1,1.067-.421h2.05V31.364a1.456,1.456,0,0,1,.449-1.137,1.753,1.753,0,0,1,2.246,0,1.459,1.459,0,0,1,.449,1.137v4.324h1.853a1.357,1.357,0,0,1,1.039.421,1.468,1.468,0,0,1,.393,1.039,1.43,1.43,0,0,1-.393,1.011,1.355,1.355,0,0,1-1.039.421h-1.853v6.036q.421-.169.814-.323L258.35,44a1.291,1.291,0,0,1,1.053,0,1.18,1.18,0,0,1,.688.758,1.394,1.394,0,0,1-.2,1.376,24.383,24.383,0,0,0,2.611-2.919h-2.5a1.067,1.067,0,0,1-.856-.379,1.372,1.372,0,0,1,0-1.769,1.068,1.068,0,0,1,.856-.379h15.218a1.1,1.1,0,0,1,.884.379,1.371,1.371,0,0,1,0,1.769,1.1,1.1,0,0,1-.884.379h-9.715q-.168.281-.337.575t-.365.6h6.766a4.159,4.159,0,0,1,2.92.87,3.346,3.346,0,0,1,.7,2.92,24.731,24.731,0,0,1-.7,4.268,3.721,3.721,0,0,1-1.445,2.288,5.175,5.175,0,0,1-2.935.716" transform="translate(-117.493 -15.758)" fill="#777"/>
      <path id="Path_191703" data-name="Path 191703" d="M275.926,40.088a8.521,8.521,0,0,1-2.948-.407,2.548,2.548,0,0,1-1.5-1.431,7.591,7.591,0,0,1-.435-2.878,7.571,7.571,0,0,1,.435-2.892,2.555,2.555,0,0,1,1.5-1.418,8.536,8.536,0,0,1,2.948-.407h2.387a8.54,8.54,0,0,1,2.948.407,2.6,2.6,0,0,1,1.516,1.418,7.361,7.361,0,0,1,.449,2.892,7.38,7.38,0,0,1-.449,2.878,2.6,2.6,0,0,1-1.516,1.431,8.525,8.525,0,0,1-2.948.407Zm-1.8-5.811h6.008a1.213,1.213,0,0,0-.561-1.025,3.985,3.985,0,0,0-1.544-.211h-1.769a4.08,4.08,0,0,0-1.572.211,1.212,1.212,0,0,0-.562,1.025m2.134,3.4h1.769a3.839,3.839,0,0,0,1.572-.225c.3-.149.477-.505.533-1.066h-6.008a1.213,1.213,0,0,0,.547,1.066,3.946,3.946,0,0,0,1.587.225" transform="translate(-127.152 -16.143)" fill="#d7b"/>
      <path id="Path_191704" data-name="Path 191704" d="M135.676,11.11c-.51,0-.621-.144-.621-.588V8.437h2.729a.524.524,0,0,0,.545-.5.508.508,0,0,0,0-.064.524.524,0,0,0-.479-.565q-.032,0-.065,0h-2.729V5.6c0-.444.111-.588.621-.588h2.74a.524.524,0,0,0,.545-.5.5.5,0,0,0,0-.064.524.524,0,0,0-.479-.565q-.032,0-.065,0h-3.062c-1.31,0-1.676.433-1.676,1.5v5.37c0,1.065.366,1.5,1.676,1.5h3.35a.524.524,0,0,0,.545-.5q0-.032,0-.065a.526.526,0,0,0-.544-.566Zm9.93-2.319v2.918a.634.634,0,0,0,.63.637.652.652,0,0,0,.08,0A.616.616,0,0,0,147,11.8a.605.605,0,0,0,0-.094V8.747l2.5-3.994a.7.7,0,0,0,.089-.355.7.7,0,0,0-.743-.621.564.564,0,0,0-.5.277l-1.964,3.417-1.952-3.4a.583.583,0,0,0-.51-.3c-.455,0-.8.289-.8.588a.74.74,0,0,0,.089.389ZM156.4,8.536c1.109.311,1.464.71,1.464,1.376a1.324,1.324,0,0,1-1.453,1.4,2.039,2.039,0,0,1-1.808-.943.583.583,0,0,0-.466-.21.635.635,0,0,0-.666.6.791.791,0,0,0,.189.477,3.249,3.249,0,0,0,2.731,1.187,2.543,2.543,0,0,0,2.8-2.529c0-1.443-.61-2.1-2.352-2.585l-.4-.111c-1.1-.3-1.4-.655-1.4-1.376,0-.6.466-1.021,1.254-1.021a1.715,1.715,0,0,1,1.4.743.6.6,0,0,0,.477.2.638.638,0,0,0,.677-.6c0-.023,0-.046,0-.069a.6.6,0,0,0-.222-.455,3.067,3.067,0,0,0-2.374-.92,2.231,2.231,0,0,0-2.518,2.2c0,1.342.588,2.063,2.274,2.529Zm7.522.1a.492.492,0,0,0-.5.484.367.367,0,0,0,0,.048.493.493,0,0,0,.451.531h2.811a.492.492,0,0,0,.5-.484.362.362,0,0,0,0-.048.492.492,0,0,0-.451-.531.353.353,0,0,0-.048,0ZM173.3,7.4v-3a.606.606,0,0,0-.576-.636.816.816,0,0,0-.8.549.665.665,0,0,0,0,.087v7.3a.625.625,0,0,0,.613.637.668.668,0,0,0,.087,0,.607.607,0,0,0,.673-.532.626.626,0,0,0,0-.1V8.969l.555-.566,2.9,3.705a.593.593,0,0,0,.544.233.679.679,0,0,0,.7-.643.662.662,0,0,0-.166-.455l-3.1-3.75L177.2,4.953a.735.735,0,0,0,.244-.555.669.669,0,0,0-.7-.621.636.636,0,0,0-.5.255Zm9.086,4.349c0,.366.244.576.644.576a.558.558,0,0,0,.628-.479.545.545,0,0,0,0-.1V6.994a.558.558,0,0,0-.534-.581.6.6,0,0,0-.1,0c-.4,0-.644.211-.644.577Zm.644-7.955a.822.822,0,0,0-.832.811v.01a.813.813,0,0,0,.817.81h.015a.813.813,0,0,0,.832-.795V4.62a.821.821,0,0,0-.822-.821h-.01m10.473.477a.559.559,0,0,0-.534-.581.6.6,0,0,0-.1,0c-.4,0-.643.21-.643.576V7.005a1.859,1.859,0,0,0-1.365-.644c-1.464,0-2.585,1.043-2.585,3.007,0,1.919,1.01,3.018,2.552,3.018a1.645,1.645,0,0,0,1.519-1.032,5.149,5.149,0,0,0,.166.6.49.49,0,0,0,.511.388c.4,0,.688-.178.688-.455a1.541,1.541,0,0,0-.056-.4A11.665,11.665,0,0,1,193.5,9.4Zm-1.276,5.481a1.466,1.466,0,0,1-1.3,1.63c-.821,0-1.376-.655-1.376-2.019,0-1.287.61-1.975,1.4-1.975a1.518,1.518,0,0,1,1.276.765Zm8.043.044c.755.188.965.388.965.8,0,.477-.333.81-.987.81a1.629,1.629,0,0,1-1.332-.577.536.536,0,0,0-.421-.189.525.525,0,0,0-.554.494v.005a.48.48,0,0,0,.144.4,2.75,2.75,0,0,0,2.163.843c1.353,0,2.175-.733,2.175-1.809,0-1-.477-1.5-1.709-1.775l-.4-.089c-.854-.188-1-.355-1-.743,0-.333.244-.632.855-.632a1.355,1.355,0,0,1,1.131.5.538.538,0,0,0,.377.144.547.547,0,0,0,.554-.539v0a.514.514,0,0,0-.178-.422,2.687,2.687,0,0,0-1.9-.655c-1.2,0-2.019.644-2.019,1.6s.444,1.431,1.764,1.753Z" transform="translate(-63.725 -3.694)" fill="#777"/>
      <path id="Path_191705" data-name="Path 191705" d="M175.489,68.621a12.034,12.034,0,0,1-3.4-.379,2.739,2.739,0,0,1-1.741-1.375,6.284,6.284,0,0,1-.505-2.794,6.175,6.175,0,0,1,.505-2.794,2.761,2.761,0,0,1,1.741-1.348,15.48,15.48,0,0,1,6.808,0,2.757,2.757,0,0,1,1.727,1.348,6.176,6.176,0,0,1,.505,2.794,6.284,6.284,0,0,1-.505,2.794,2.735,2.735,0,0,1-1.727,1.375,12.007,12.007,0,0,1-3.411.379m.028-2.892a8.847,8.847,0,0,0,1.53-.1.911.911,0,0,0,.7-.463,2.539,2.539,0,0,0,.183-1.095,2.362,2.362,0,0,0-.183-1.053,1,1,0,0,0-.7-.477,6.91,6.91,0,0,0-1.53-.126,4.025,4.025,0,0,0-2.007.323,1.506,1.506,0,0,0-.463,1.306,2.377,2.377,0,0,0,.2,1.095,1,1,0,0,0,.73.477,8.012,8.012,0,0,0,1.544.112" transform="translate(-80.425 -29.487)" fill="#4b9"/>
    </g>
  </g>
</svg>
