<svg xmlns="http://www.w3.org/2000/svg" width="137.029" height="40" viewBox="0 0 137.029 40">
  <g id="logo_music" transform="translate(-166.774 -123.999)">
    <path id="txt" d="M3.174-15.45V-4.606H5.952v-.978H16.729v.978h2.8V-15.45Zm13.555,2.244v1.555H5.952v-1.555Zm0,3.6v1.733H5.952V-9.606Zm5.044-9.644H16.552a18.376,18.376,0,0,0,.689-2.178h3.444v-2.467H12.8v-1.711H9.93v1.711H2.041v2.467H5.619c.178.667.267,1.067.467,2.178H.93v2.511H21.774ZM14.2-21.428a11.559,11.559,0,0,1-.644,2.178H8.841c-.067-.333-.289-1.955-.333-2.178ZM32.884-13.65H23.818v2.533h7.089a23.045,23.045,0,0,1-7.355,3.355l1.422,2.733a26.687,26.687,0,0,0,7.911-4.844V-4.7H35.6v-5.422a27.1,27.1,0,0,0,7.822,5.044L44.973-7.74A26.53,26.53,0,0,1,37.8-11.117h6.866V-13.65H35.6v-1.089h3.333v-9.466H35.306a11.832,11.832,0,0,0,.533-1.422h-3a6.054,6.054,0,0,1-.511,1.422H29.662v9.466h3.222Zm3.511-8.4v1.578H32.173V-22.05Zm0,3.422v1.689H32.173v-1.689Zm2.578,1.289A17.076,17.076,0,0,1,43.44-14.05l1.733-2.511A20.968,20.968,0,0,0,40.44-19.65ZM23.885-22.628a15.991,15.991,0,0,1,3.867,2.733l1.578-2.244a18.094,18.094,0,0,0-4-2.644Zm4.778,3.222a19.253,19.253,0,0,1-5.178,2.467l.733,2.822a22.952,22.952,0,0,0,5.2-2.711Zm14.088-5.533a19.011,19.011,0,0,1-3.422,3.222l1.778,2.022a22.524,22.524,0,0,0,3.578-3.422ZM58.683-4.651a18.938,18.938,0,0,0,4.711-3.711,18.352,18.352,0,0,0,3.8,3.733l1.622-2.689a20.558,20.558,0,0,1-3.711-3.4c1.089-1.889,1.955-4.578,2.289-8.955h1.022v-2.8H63.083c.244-1.289.378-2.244.467-2.955l-2.622-.222a22.239,22.239,0,0,1-2.2,7.311V-19.85H57.461a23.381,23.381,0,0,0,2.511-4.133L57.661-25.05a21.357,21.357,0,0,1-1.244,2.422v-1.267H53.928v-1.667H51.417v1.667H48.106v2.355h3.311v1.689H47.595v2.378h4.311a20.425,20.425,0,0,1-4.6,2.867l1.222,2.355a24.4,24.4,0,0,0,2.711-1.644h3.089a6.694,6.694,0,0,1-1.355,1.267h-.6v1.444c-2.689.222-3.711.267-4.955.333l.178,2.533c.756-.044,4.111-.356,4.778-.4v.978c0,.489-.089.622-.689.622H49.35l.467,2.489h2.955c1.689,0,2.133-.578,2.133-2.067V-8.984c2.6-.311,3.2-.4,4.022-.556v-2.355c-1,.156-1.933.267-4.022.489v-.4a14.893,14.893,0,0,0,2.733-2.178v-2.111H54.017c.867-.8,1.2-1.156,1.422-1.378h2.755c-.156.244-.267.378-.622.844l1.867,2.311c.222-.289.356-.511.711-1.022a16.98,16.98,0,0,0,1.711,4.6,13.5,13.5,0,0,1-4.933,3.555Zm6.133-15.022a17.694,17.694,0,0,1-1.356,6.489,15.882,15.882,0,0,1-1.578-5.422c.111-.267.222-.556.422-1.067Zm-9.089-1.911c-.267.378-.6.822-1.378,1.733h-.533v-1.733Zm34.065,7.466a20.218,20.218,0,0,0-3.667-3.867h1.267v-2.311H73.972v2.311h2a19.486,19.486,0,0,1-1.022,2.044c-.511,0-3.067,0-3.289-.022l.2,2.355c4.533,0,5.489-.044,7.378-.111v1.489H72.061v2.378h7.178v2.022h-9V-5.34H91.127V-7.828H82.06V-9.851H89.3v-2.378H82.06v-1.578c3-.178,3.2-.2,4.267-.311a15.666,15.666,0,0,1,1.2,1.644ZM83.1-17.095c.4.311.667.511,1.178.933-1.755.133-4.711.2-6.4.222a21.533,21.533,0,0,0,1.111-2.044H84.46Zm-3.867-6.978H70.816v5.244h2.8v-2.8H87.749v2.8h2.8v-5.244H82.06v-1.555H79.238Z" transform="translate(212.677 165.642)" fill="#f98"/>
    <path id="logo_EYS" d="M-10958.372-259.77l.589-.629a5.045,5.045,0,0,0,3.543,1.288c1.688,0,2.677-.529,2.677-1.4,0-.848-1.028-1.058-2.916-1.218-1.866-.16-3.654-.569-3.654-1.947,0-1.318,1.658-2.066,3.525-2.066a5.375,5.375,0,0,1,3.574,1.248l-.659.558a4.089,4.089,0,0,0-2.875-1.028c-1.249-.01-2.706.339-2.706,1.258,0,.868,1.318,1.048,2.965,1.177,2.127.17,3.605.58,3.605,1.957,0,1.288-1.31,2.236-3.584,2.236A6.143,6.143,0,0,1-10958.372-259.77Zm-8.467,1.351v-2.446l-3.512-4.542h1.006l2.936,3.784,2.915-3.784h1l-3.506,4.542v2.446Zm-14.162,0v-6.988h6.66v.779h-5.821v2.266h4.933v.779h-4.933v2.386h5.921v.779Z" transform="translate(11194.607 394.443)" fill="#444"/>
    <path id="mark" d="M22.1,40a5.724,5.724,0,0,1,0-11.448h.1a4.781,4.781,0,0,1,1.278.174l.133.037V13.239a3.49,3.49,0,0,1,1.531-2.848,3.353,3.353,0,0,1,3.228-.255L36.354,13.6a3.348,3.348,0,0,1,2.039,3.1V23.89a.772.772,0,0,1-.348.657.812.812,0,0,1-.732.035L25.156,19.345V29.468l.048.031a5.607,5.607,0,0,1,2.626,4.775A5.726,5.726,0,0,1,22.1,40m-2.983-8.644a4.2,4.2,0,0,0-1.191,2.924A4.183,4.183,0,1,0,22.114,30.1H22.1a4.148,4.148,0,0,0-2.947,1.218l-.031.031Zm6.8-19.64a1.945,1.945,0,0,0-.766,1.525V17.7L36.852,22.74V16.707a1.849,1.849,0,0,0-.3-1.026,1.881,1.881,0,0,0-.815-.693L27.76,11.526a1.969,1.969,0,0,0-.738-.143h-.016A1.984,1.984,0,0,0,26,11.659l-.078.046ZM.825,17.291a.825.825,0,0,1,0-1.651H19.07a.825.825,0,0,1,0,1.651Zm0-7.447a.825.825,0,0,1,0-1.651H19.07a.825.825,0,0,1,0,1.651Zm0-8.191A.827.827,0,0,1,.825,0H19.07a.827.827,0,0,1,.584,1.41.819.819,0,0,1-.584.243Z" transform="translate(166.774 123.999)" fill="#f98"/>
  </g>
</svg>
