<svg xmlns="http://www.w3.org/2000/svg" width="64.536" height="22.248" viewBox="0 0 64.536 22.248">
  <g id="アートワーク_57" data-name="アートワーク 57" transform="translate(32.268 11.124)">
    <g id="Group_193464" data-name="Group 193464" transform="translate(-32.268 -11.124)">
      <path id="loog_dummy" data-name="loog dummy" d="M0,7.378A7.378,7.378,0,0,1,7.378,0h0a7.378,7.378,0,0,1,7.378,7.378h0a7.379,7.379,0,0,1-7.378,7.378h0A7.378,7.378,0,0,1,0,7.378Zm7.378,6.149a6.132,6.132,0,0,0,2.459-.515V11.757a1.3,1.3,0,0,0-1.3-1.3H2.06A6.14,6.14,0,0,0,7.378,13.527ZM1.229,7.378a6.148,6.148,0,0,0,.283,1.845H8.531a2.528,2.528,0,0,1,2.534,2.534v.53a6.134,6.134,0,0,0,2.461-4.909c0-.105-.012-.208-.015-.312L11.98,5.535a1.231,1.231,0,0,0-1.739,0L8.5,7.273A2.459,2.459,0,0,1,4.3,5.535V2.059A6.142,6.142,0,0,0,1.229,7.378Zm4.3-5.865V5.535a1.23,1.23,0,0,0,2.1.869L9.372,4.665a2.459,2.459,0,0,1,3.477,0l.076.076A6.139,6.139,0,0,0,5.533,1.513Zm47.906,10.6a7,7,0,0,0,.572-1.977,26.433,26.433,0,0,0,.148-3.3V4.854h4.816v4.52a22.476,22.476,0,0,0,.649-6.434,16.858,16.858,0,0,0,4.332-.827l.449,1.629a16.792,16.792,0,0,1-3.1.661q-.023.886-.047,1.322h3.282V7.367h-.9v5.489H61.891V7.367h-.756a11.641,11.641,0,0,1-.719,3.175,7.956,7.956,0,0,1-1.488,2.291l-1.286-1.158a6.826,6.826,0,0,0,1.3-2.2H55.894a9.268,9.268,0,0,1-.825,3.589Zm2.5-4.391V8h1.523V6.34H55.942ZM42.661,12.95V8.064a6.765,6.765,0,0,1-.732,1L41.41,6.942a9.411,9.411,0,0,0,1.275-2.124,13.883,13.883,0,0,0,.816-2.7l1.723.295A13.833,13.833,0,0,1,44.456,5.3v7.649Zm-7.92-.082-.095-1.57q-.449.342-1.156.826l-.625-.873q-1.322.4-2.88.709l-.166-1.583q.167-.035,1.016-.2V7.651H30V6.068h.839V4.463h-.957V2.834h3.555v.591h2.749V1.984h1.782v1.44h1.075q-.979-.638-.992-.65l.791-1.062a20.94,20.94,0,0,1,1.889,1.274l-.319.438h.519V4.959H37.963v.4a15.257,15.257,0,0,0,.556,1.5,16.534,16.534,0,0,0,1.051-1.641l1.417.673A14.786,14.786,0,0,1,39.3,8.442a13.367,13.367,0,0,0,1.865,2.6l-1.217,1.37a13.858,13.858,0,0,1-1.983-3.364v1.734q0,.543-.011.85a2.355,2.355,0,0,1-.095.583,1.058,1.058,0,0,1-.183.39.86.86,0,0,1-.342.2,1.871,1.871,0,0,1-.514.106c-.181.012-.433.017-.756.017q-.234,0-1.32-.06Zm-.083-1.581q.908.058,1.156.059c.174,0,.278-.023.312-.065a.906.906,0,0,0,.054-.418v-.9a17.522,17.522,0,0,1-1.521,1.321Zm-1.18-1.18a17.437,17.437,0,0,0,1.983-1.663l.72.826V7.262l-1.063.933a24.342,24.342,0,0,0-1.7-1.829V7.651h-.933V9.789q.519-.142.956-.284Zm2.7-3.069V4.96H33.23v-.5h-.743V6.07h.933v.012l1.015-.851a22.265,22.265,0,0,1,1.747,1.8ZM24.2,12.828a5.829,5.829,0,0,1-.82-.088,2.232,2.232,0,0,1-.549-.159.723.723,0,0,1-.289-.3,1.135,1.135,0,0,1-.141-.443c-.015-.153-.023-.367-.023-.643V6.6l-.957.189-.083-.743h-.507v4.058c.259-.086.605-.208,1.038-.365l.048,1.581a22.321,22.321,0,0,1-3.695,1.17L18.06,10.85c.048-.006.189-.037.425-.093l.555-.131V6.047h-.922V4.512h.922V2.35h1.8V4.512h.98V5l.566-.118V2.741h1.746V4.535l.625-.118V2.152h1.57V4.1l2.621-.509v.921a23.066,23.066,0,0,1-.177,3.559q-.177.939-.638,1.08l1.181.27c-.025.457-.046.819-.065,1.085a5.532,5.532,0,0,1-.123.816,3.922,3.922,0,0,1-.183.62,1.119,1.119,0,0,1-.33.407,1.51,1.51,0,0,1-.461.277,3.865,3.865,0,0,1-.678.143,7.109,7.109,0,0,1-.891.071q-.431.006-1.175.006t-1.2-.019Zm-.076-6.581V10.8q0,.342.236.4a10.785,10.785,0,0,0,1.581.06h.508a2.324,2.324,0,0,0,.378-.037,1.483,1.483,0,0,0,.289-.063A.69.69,0,0,0,27.3,11a.542.542,0,0,0,.141-.241c.016-.074.039-.2.07-.378a3.853,3.853,0,0,0,.06-.5c.007-.157.02-.386.035-.684-.111,0-.386-.008-.827-.025L26.44,7.581c.071,0,.177.006.32.017s.232.017.27.017a.139.139,0,0,0,.1-.029.622.622,0,0,0,.065-.23,4.513,4.513,0,0,0,.047-.59q.012-.389.023-1.144l-.945.188v4.2h-1.57v-3.9ZM44.88,12.668V11.086H47.95V9.116H45.388V7.581H47.95V5.869H45V4.276h5.2a25.474,25.474,0,0,0-3.659-.78l.473-1.546a22.9,22.9,0,0,1,4.3.98l-.472,1.346h1.806V5.869H49.826V7.581h2.443V9.116H49.826v1.97h2.951v1.582ZM53.746,4.1V2.5h5.324V4.1Z"/>
      <g id="Group_193463" data-name="Group 193463" transform="translate(13.682 18.131)">
        <g id="for_EYS-Kids-2" data-name="for EYS-Kids-2" style="isolation: isolate">
          <g id="Group_193462" data-name="Group 193462" style="isolation: isolate">
            <path id="Path_370265" data-name="Path 370265" d="M22.325,30.086c-.054,0-.069,0-.069.085,0,0,.01,1.114.01,1.56v.159a.275.275,0,0,1-.286.287.256.256,0,0,1-.266-.265V31.89c.006-.085.006-.3.006-.557,0-.509-.006-1.162-.006-1.162,0-.075-.005-.085-.09-.085h-.186a.235.235,0,0,1-.239-.255.242.242,0,0,1,.239-.259h.191c.053,0,.085,0,.085-.069,0-.054-.005-.112-.005-.25a.972.972,0,0,1,.96-1.093c.186,0,.329.058.329.254a.253.253,0,0,1-.255.265h-.058c-.425,0-.435.462-.435.632,0,.09,0,.137.005.207,0,.053.037.053.074.053h.409a.258.258,0,0,1,0,.514Z" transform="translate(-21.2 -28.117)"/>
            <path id="Path_370266" data-name="Path 370266" d="M25.284,31.623a1.334,1.334,0,1,1,2.669,0,1.334,1.334,0,1,1-2.669,0Zm2.133,0a.8.8,0,1,0-.8.843A.788.788,0,0,0,27.417,31.623Z" transform="translate(-22.648 -28.87)"/>
            <path id="Path_370267" data-name="Path 370267" d="M31.282,32.7v-.011c.016-.5.021-.854.021-1.167s-.005-.594-.016-.95v-.01a.263.263,0,0,1,.287-.239.25.25,0,0,1,.27.249c0,.021-.005.037-.005.054v.021c0,.011,0,.016.005.016a.063.063,0,0,0,.022-.021.976.976,0,0,1,.679-.323.248.248,0,0,1,.259.254.3.3,0,0,1-.3.292.751.751,0,0,0-.679.627c-.005.1-.005.207-.005.35,0,.207.005.472.015.849a.251.251,0,0,1-.27.271A.262.262,0,0,1,31.282,32.7Z" transform="translate(-24.775 -28.881)"/>
            <path id="Path_370268" data-name="Path 370268" d="M39.74,28.667c-.53,0-.641.01-.658.239-.011.127-.006.387-.011.694,0,.106.005.106.658.106.245,0,.5,0,.6-.005a.267.267,0,0,1,.3.281.281.281,0,0,1-.281.3h-.026c-.132-.01-.334-.015-.536-.015-.658,0-.711.005-.711.116,0,.791.005.913.016,1,.026.244.112.255.859.255.313,0,.652-.006.754-.011h.026a.269.269,0,0,1,.287.271.309.309,0,0,1-.334.3c-.069.005-.377.011-.685.011s-.61-.006-.679-.011c-.488-.037-.791-.212-.811-.679-.011-.223-.011-.616-.011-1.045,0-.647.005-1.369.016-1.7a.659.659,0,0,1,.716-.669c.1-.005.4-.01.7-.01s.594.005.674.01a.283.283,0,0,1,.3.281.292.292,0,0,1-.313.287S40.1,28.667,39.74,28.667Z" transform="translate(-27.331 -28.094)"/>
            <path id="Path_370269" data-name="Path 370269" d="M45.017,30.592a.21.21,0,0,0-.054-.175c-.387-.584-.923-1.374-1.177-1.756a.319.319,0,0,1,.27-.51.288.288,0,0,1,.254.159c.223.387.594.939.965,1.491a.079.079,0,0,0,.065.043.07.07,0,0,0,.063-.037,15.056,15.056,0,0,0,.96-1.5.26.26,0,0,1,.239-.148.366.366,0,0,1,.355.328.293.293,0,0,1-.047.154c-.239.382-.833,1.268-1.178,1.751a.268.268,0,0,0-.064.207c0,.318.005.854.005,1.284a.3.3,0,0,1-.323.3.308.308,0,0,1-.334-.313Z" transform="translate(-29.187 -28.114)"/>
            <path id="Path_370270" data-name="Path 370270" d="M51.376,32.206c-.865,0-1.311-.493-1.311-.753a.31.31,0,0,1,.308-.3.287.287,0,0,1,.234.133.911.911,0,0,0,.774.355c.583,0,.711-.4.711-.567a.7.7,0,0,0-.4-.594c-.234-.132-.52-.292-.8-.419a1.014,1.014,0,0,1,.467-1.963c.732,0,1.152.35,1.152.6a.31.31,0,0,1-.3.308.336.336,0,0,1-.249-.128.776.776,0,0,0-.611-.244.489.489,0,0,0-.546.451.546.546,0,0,0,.334.467c.217.117.584.287.828.419a1.26,1.26,0,0,1,.754,1.088A1.227,1.227,0,0,1,51.376,32.206Z" transform="translate(-31.437 -28.094)"/>
            <path id="Path_370271" data-name="Path 370271" d="M57.454,32.457c-.43-.005-.663-.016-.9-.016-.159,0-.319.006-.536.016a.27.27,0,0,1-.27-.3.266.266,0,0,1,.25-.291h.01c.186.005.4.01.626.01.276,0,.563-.005.817-.01h.011a.268.268,0,0,1,.265.291.275.275,0,0,1-.271.3Z" transform="translate(-33.453 -29.432)"/>
            <path id="Path_370272" data-name="Path 370272" d="M60.78,31.915c.01-.562.016-1.262.016-1.926,0-.594-.006-1.156-.016-1.56a.275.275,0,0,1,.3-.287.285.285,0,0,1,.308.276v.01c-.005.212-.01.419-.01.605,0,.286.005.52.01.652,0,.048.011.106.138.106a.366.366,0,0,0,.287-.154c.382-.414,1-1.093,1.215-1.38a.263.263,0,0,1,.217-.112.356.356,0,0,1,.345.324.261.261,0,0,1-.058.165c-.234.287-.881.934-1.252,1.326a.095.095,0,0,0,0,.165c.45.461,1.422,1.385,1.512,1.486a.325.325,0,0,1,.09.217.368.368,0,0,1-.355.35.33.33,0,0,1-.239-.106c-.18-.185-1.077-1.146-1.464-1.6a.262.262,0,0,0-.223-.106c-.037,0-.069.006-.111.006s-.1.005-.1.085c-.005.138-.01.419-.01.764,0,.212,0,.445.01.689v.011c0,.17-.148.249-.3.249a.275.275,0,0,1-.307-.254Z" transform="translate(-35.237 -28.111)"/>
            <path id="Path_370273" data-name="Path 370273" d="M67.23,28.48a.36.36,0,0,1,.371-.361.374.374,0,0,1,.372.361.37.37,0,0,1-.372.377A.352.352,0,0,1,67.23,28.48Zm.371,3.714a.264.264,0,0,1-.281-.271c0-.44.005-1.045.005-1.528,0-.238,0-.45-.005-.594a.285.285,0,0,1,.567-.016v.01c-.005.218-.01.637-.01,1.083,0,.366.005.743.01,1.035v.01A.269.269,0,0,1,67.6,32.194Z" transform="translate(-37.524 -28.103)"/>
            <path id="Path_370274" data-name="Path 370274" d="M72.61,32.173c-.122,0-.223-.043-.3-.334-.005-.021-.01-.032-.021-.032s-.016.01-.026.021a1.127,1.127,0,0,1-.838.372,1.26,1.26,0,0,1-1.289-1.331,1.275,1.275,0,0,1,1.289-1.332,1.1,1.1,0,0,1,.743.287.033.033,0,0,0,.021.005c.01,0,.015-.005.015-.021,0-.615-.01-1.156-.015-1.379a.261.261,0,0,1,.27-.276.264.264,0,0,1,.276.276v.026c-.011.18-.016.557-.016,1,0,1.968.005,1.984.159,2.281a.283.283,0,0,1,.037.143A.3.3,0,0,1,72.61,32.173Zm-.409-1.3a.767.767,0,1,0-.763.838A.775.775,0,0,0,72.2,30.868Z" transform="translate(-38.555 -28.114)"/>
            <path id="Path_370275" data-name="Path 370275" d="M76.857,32.968c-.647,0-.918-.366-.918-.541a.269.269,0,0,1,.27-.254.259.259,0,0,1,.212.111.524.524,0,0,0,.43.186c.281,0,.392-.148.392-.27,0-.17-.116-.271-.737-.552a.723.723,0,0,1-.478-.663.743.743,0,0,1,.807-.711c.488,0,.817.238.817.445a.27.27,0,0,1-.266.265.3.3,0,0,1-.217-.106.439.439,0,0,0-.334-.127c-.181,0-.281.1-.281.217a.273.273,0,0,0,.175.233c.138.069.377.175.536.26a.845.845,0,0,1,.52.727A.864.864,0,0,1,76.857,32.968Z" transform="translate(-40.613 -28.867)"/>
          </g>
        </g>
      </g>
    </g>
  </g>
</svg>
