<svg xmlns="http://www.w3.org/2000/svg" width="52.726" height="48.04" viewBox="0 0 52.726 48.04">
  <g id="アートワーク_65" data-name="アートワーク 65" transform="translate(26.363 24.02)">
    <g id="Group_193472" data-name="Group 193472" transform="translate(-26.363 -24.02)">
      <g id="Group_193468" data-name="Group 193468" transform="translate(14.554)">
        <path id="Path_370287" data-name="Path 370287" d="M272.667,25.741a1.775,1.775,0,1,0,.419,2.476A1.777,1.777,0,0,0,272.667,25.741Z" transform="translate(-253.418 -22.493)" fill="#73c9c8" style="isolation: isolate"/>
        <path id="Path_370288" data-name="Path 370288" d="M266.952,98.507a1.775,1.775,0,1,0,.419,2.476A1.777,1.777,0,0,0,266.952,98.507Z" transform="translate(-248.359 -86.901)" fill="#f986ae" style="isolation: isolate"/>
        <path id="Path_370289" data-name="Path 370289" d="M187.222,19.8a1.169,1.169,0,1,0,.276,1.631A1.17,1.17,0,0,0,187.222,19.8Z" transform="translate(-178.635 -17.331)" fill="#fea326" style="isolation: isolate"/>
        <path id="Path_370290" data-name="Path 370290" d="M174.321,83.777a1.665,1.665,0,1,0,.393,2.323A1.667,1.667,0,0,0,174.321,83.777Z" transform="translate(-166.522 -73.881)" fill="#fc743f"/>
        <path id="Path_370291" data-name="Path 370291" d="M249.051,66a1.251,1.251,0,1,0,.3,1.745A1.252,1.252,0,0,0,249.051,66Z" transform="translate(-233.247 -58.214)" fill="#92ce4c" style="isolation: isolate"/>
        <path id="Path_370292" data-name="Path 370292" d="M181.555,131.076l-1.425-.336-.531-1.363-.759,1.25-1.462.084.955,1.109-.372,1.415,1.35-.566,1.231.791L180.422,132Z" transform="translate(-171.558 -114.515)" fill="#92ce4c" style="isolation: isolate"/>
        <path id="Path_370293" data-name="Path 370293" d="M305.411,60,303.9,59.75l-.647-1.389-.708,1.358-1.522.187L302.1,61l-.293,1.5,1.372-.683,1.341.743-.226-1.516Z" transform="translate(-280.997 -51.657)" fill="#fea326" style="isolation: isolate"/>
        <path id="Path_370294" data-name="Path 370294" d="M223.41,1.719l-1.582-.267L221.151,0l-.74,1.421-1.592.2,1.123,1.144-.306,1.574,1.435-.714,1.4.778-.236-1.586Z" transform="translate(-208.237)" fill="#f986ae" style="isolation: isolate"/>
        <path id="Path_370295" data-name="Path 370295" d="M209.16,57.166l2.355-2.894-3.371-.337Z" transform="translate(-198.789 -47.739)" fill="#a976b7"/>
        <path id="Path_370296" data-name="Path 370296" d="M230.631,139.588l.706,4.639,3.163-2.855Z" transform="translate(-218.692 -123.553)" fill="#fc743f"/>
        <path id="Path_370297" data-name="Path 370297" d="M138.078,60.826a11.378,11.378,0,0,1-6.665-20.6l1.471,2.032a8.869,8.869,0,1,0,12.548,12.148l2.079,1.4A11.372,11.372,0,0,1,138.078,60.826Z" transform="translate(-126.7 -35.606)" fill="#8c8c8c"/>
        <rect id="Rectangle_107745" data-name="Rectangle 107745" width="2.802" height="2.802" transform="translate(10.337 11.42) rotate(-4.995)" fill="#73c9c8" style="isolation: isolate"/>
      </g>
      <g id="Group_193471" data-name="Group 193471" transform="translate(0 30.12)">
        <g id="Group_193469" data-name="Group 193469">
          <path id="Path_370298" data-name="Path 370298" d="M4.966,270.91H1.895v1.982h3.43v1.548H0v-8.347H5.152v1.548H1.895v1.734H4.966Z" transform="translate(0 -265.647)" fill="#73c9c8" style="isolation: isolate"/>
          <path id="Path_370299" data-name="Path 370299" d="M61.065,274.44v-3.418l-2.638-4.929h2.155l.854,2.006c.26.607.433,1.053.644,1.6h.025c.186-.52.384-1,.632-1.6l.842-2.006H65.7l-2.749,4.867v3.48Z" transform="translate(-51.716 -265.647)" fill="#fea326" style="isolation: isolate"/>
          <path id="Path_370300" data-name="Path 370300" d="M131.038,271.446a4.815,4.815,0,0,0,2.093.52c.867,0,1.325-.359,1.325-.9,0-.52-.4-.817-1.4-1.177-1.387-.483-2.291-1.251-2.291-2.464,0-1.424,1.189-2.514,3.158-2.514a5.114,5.114,0,0,1,2.13.421l-.421,1.523a3.967,3.967,0,0,0-1.746-.4c-.817,0-1.214.372-1.214.805,0,.533.471.768,1.548,1.176,1.474.545,2.167,1.313,2.167,2.489,0,1.4-1.078,2.588-3.369,2.588a5.462,5.462,0,0,1-2.365-.508Z" transform="translate(-115.646 -264.597)" fill="#92ce4c" style="isolation: isolate"/>
          <path id="Path_370301" data-name="Path 370301" d="M199.334,305.012v1.251h-3.245v-1.251Z" transform="translate(-173.565 -300.096)" fill="#fc743f"/>
          <path id="Path_370302" data-name="Path 370302" d="M241.688,266.093h1.87v3.691h.037c.186-.322.384-.619.57-.917l1.895-2.774h2.316l-2.762,3.554,2.91,4.793h-2.2l-2.043-3.6-.718.879v2.724h-1.87Z" transform="translate(-213.926 -265.647)" fill="#f986ae" style="isolation: isolate"/>
          <path id="Path_370303" data-name="Path 370303" d="M315.907,264.029a.945.945,0,0,1-1.016.941.948.948,0,1,1,.012-1.895A.944.944,0,0,1,315.907,264.029Zm-1.944,7.74v-6.056h1.883v6.056Z" transform="translate(-277.854 -262.976)" fill="#fea326" style="isolation: isolate"/>
          <path id="Path_370304" data-name="Path 370304" d="M354.085,262.212V269.2c0,.681.025,1.4.049,1.808h-1.672l-.087-.892h-.025a2.115,2.115,0,0,1-1.895,1.028c-1.436,0-2.588-1.226-2.588-3.109-.012-2.043,1.263-3.22,2.712-3.22a1.844,1.844,0,0,1,1.6.681h.025v-3.282Zm-1.882,5.3a3.036,3.036,0,0,0-.025-.334,1.131,1.131,0,0,0-1.1-.929c-.855,0-1.3.768-1.3,1.721,0,1.028.508,1.672,1.288,1.672a1.1,1.1,0,0,0,1.09-.9,1.607,1.607,0,0,0,.05-.434Z" transform="translate(-307.909 -262.212)" fill="#92ce4c" style="isolation: isolate"/>
          <path id="Path_370305" data-name="Path 370305" d="M419.46,289.4a3.677,3.677,0,0,0,1.622.458c.57,0,.8-.2.8-.508s-.186-.458-.892-.693c-1.251-.421-1.734-1.1-1.721-1.821,0-1.127.966-1.981,2.464-1.981a4.061,4.061,0,0,1,1.709.347l-.334,1.3a2.97,2.97,0,0,0-1.312-.347c-.458,0-.718.186-.718.5,0,.285.235.433.978.693,1.152.4,1.635.978,1.647,1.87,0,1.127-.891,1.957-2.625,1.957a4.285,4.285,0,0,1-1.957-.421Z" transform="translate(-370.982 -282.251)" fill="#a976b7"/>
        </g>
        <g id="Group_193470" data-name="Group 193470" transform="translate(9.163 12.556)" style="isolation: isolate">
          <path id="Path_370306" data-name="Path 370306" d="M80.874,375.23l-.346,1.14H79.77l1.289-4.022H82L83.3,376.37h-.788l-.364-1.14Zm1.152-.555-.316-.991c-.078-.244-.143-.519-.2-.752h-.012c-.06.233-.119.513-.191.752l-.31.991Z" transform="translate(-79.77 -372.253)" fill="#8c8c8c"/>
          <path id="Path_370307" data-name="Path 370307" d="M116.515,382.492c0-.394-.006-.674-.024-.937h.638l.024.555h.024a.867.867,0,0,1,.794-.62.765.765,0,0,1,.173.018v.692a1.016,1.016,0,0,0-.215-.024.647.647,0,0,0-.656.555,1.248,1.248,0,0,0-.024.227v1.5h-.734Z" transform="translate(-112.273 -380.344)" fill="#8c8c8c"/>
          <path id="Path_370308" data-name="Path 370308" d="M136.786,374.841v.829h.7v.549h-.7V377.5c0,.352.1.537.376.537a1.091,1.091,0,0,0,.286-.036l.012.561a1.607,1.607,0,0,1-.531.072.85.85,0,0,1-.632-.239,1.158,1.158,0,0,1-.227-.812v-1.366h-.418v-.549h.418v-.657Z" transform="translate(-129.233 -374.459)" fill="#8c8c8c"/>
          <path id="Path_370309" data-name="Path 370309" d="M171.775,375.864c-.1-.1-.2-.2-.316-.334a1.694,1.694,0,0,1-1.134.4,1.181,1.181,0,0,1-1.331-1.134,1.3,1.3,0,0,1,.776-1.164v-.018a1.3,1.3,0,0,1-.322-.806,1.049,1.049,0,0,1,1.128-1.032.911.911,0,0,1,1,.9c0,.418-.239.758-.829,1.05l-.006.024c.281.322.591.68.812.919a2.92,2.92,0,0,0,.364-1.068h.656a3.005,3.005,0,0,1-.627,1.51c.221.244.442.489.692.752Zm-.668-.746c-.245-.257-.627-.68-1-1.116a.821.821,0,0,0-.412.674.7.7,0,0,0,.74.71A.933.933,0,0,0,171.107,375.118Zm-1-2.381a.958.958,0,0,0,.292.644c.34-.215.537-.4.537-.68a.412.412,0,0,0-.4-.454A.446.446,0,0,0,170.11,372.737Z" transform="translate(-158.745 -371.746)" fill="#8c8c8c"/>
          <path id="Path_370310" data-name="Path 370310" d="M218.956,372.172a7.42,7.42,0,0,1,1.169-.083,2.448,2.448,0,0,1,1.641.465,1.8,1.8,0,0,1,.627,1.48,2.081,2.081,0,0,1-.627,1.6,2.685,2.685,0,0,1-1.82.549,8,8,0,0,1-.991-.054Zm.734,3.407a2.734,2.734,0,0,0,.406.018,1.377,1.377,0,0,0,1.522-1.539,1.276,1.276,0,0,0-1.426-1.4,2.361,2.361,0,0,0-.5.042Z" transform="translate(-202.968 -372.022)" fill="#8c8c8c"/>
          <path id="Path_370311" data-name="Path 370311" d="M255.082,383.215a.789.789,0,0,0,.895.752,2.182,2.182,0,0,0,.806-.131l.108.507a2.736,2.736,0,0,1-1.014.179,1.375,1.375,0,0,1-1.5-1.468,1.439,1.439,0,0,1,1.42-1.563,1.264,1.264,0,0,1,1.253,1.414,1.8,1.8,0,0,1-.024.31Zm1.277-.513a.625.625,0,0,0-.6-.71.718.718,0,0,0-.674.71Z" transform="translate(-234.321 -380.344)" fill="#8c8c8c"/>
          <path id="Path_370312" data-name="Path 370312" d="M283.188,383.787a1.635,1.635,0,0,0,.746.209c.322,0,.466-.131.466-.322s-.12-.3-.477-.424c-.567-.2-.806-.507-.8-.847a.972.972,0,0,1,1.1-.913,1.706,1.706,0,0,1,.77.173l-.143.519a1.3,1.3,0,0,0-.615-.167c-.262,0-.406.125-.406.3s.137.275.507.406c.525.191.77.459.775.889,0,.525-.412.907-1.181.907a1.872,1.872,0,0,1-.883-.2Z" transform="translate(-259.695 -380.344)" fill="#8c8c8c"/>
          <path id="Path_370313" data-name="Path 370313" d="M308.538,371.916a.412.412,0,1,1-.412-.4A.389.389,0,0,1,308.538,371.916Zm-.782,3.718v-2.906h.74v2.906Z" transform="translate(-281.531 -371.516)" fill="#8c8c8c"/>
          <path id="Path_370314" data-name="Path 370314" d="M324.423,381.556c-.012.2-.024.435-.024.835v1.647a1.4,1.4,0,0,1-1.551,1.671,2.056,2.056,0,0,1-1.014-.233l.161-.555a1.758,1.758,0,0,0,.847.221.772.772,0,0,0,.836-.877v-.251h-.012a.981.981,0,0,1-.847.43,1.289,1.289,0,0,1-1.235-1.42,1.392,1.392,0,0,1,1.319-1.533.915.915,0,0,1,.841.453h.012l.03-.388Zm-.758,1.163a.714.714,0,0,0-.024-.2.61.61,0,0,0-.6-.471c-.412,0-.716.358-.716.949,0,.5.251.9.71.9a.627.627,0,0,0,.6-.442,1.263,1.263,0,0,0,.03-.263Z" transform="translate(-293.806 -380.344)" fill="#8c8c8c"/>
          <path id="Path_370315" data-name="Path 370315" d="M354.377,382.421c0-.334-.006-.615-.024-.865H355l.036.435h.018a1.049,1.049,0,0,1,.925-.5c.507,0,1.032.328,1.032,1.247v1.725h-.734v-1.641c0-.418-.155-.734-.555-.734a.616.616,0,0,0-.573.43.752.752,0,0,0-.03.239v1.707h-.74Z" transform="translate(-322.812 -380.344)" fill="#8c8c8c"/>
        </g>
      </g>
    </g>
  </g>
</svg>
