<svg xmlns="http://www.w3.org/2000/svg" width="24.165" height="20" viewBox="0 0 24.165 20">
  <path id="icon_all" d="M26.665,20.678a.827.827,0,0,0-.534-.789l-4.146-1.6,4.146-1.6a.849.849,0,0,0,0-1.577L14.888,10.732a.843.843,0,0,0-.61,0L3.034,15.107a.849.849,0,0,0,0,1.577l4.121,1.6-4.121,1.6a.849.849,0,0,0,0,1.577l4.121,1.6-4.121,1.6a.849.849,0,0,0,0,1.577l11.243,4.375a.645.645,0,0,0,.305.051,1.277,1.277,0,0,0,.305-.051l11.243-4.375a.849.849,0,0,0,0-1.577l-4.146-1.6,4.146-1.6A.827.827,0,0,0,26.665,20.678ZM14.583,12.411l8.928,3.459-8.928,3.485L5.654,15.9ZM23.511,25.46l-8.928,3.485L5.654,25.46,9.5,23.985l4.782,1.857a.645.645,0,0,0,.305.051,1.277,1.277,0,0,0,.305-.051l4.782-1.857Zm-8.928-1.323L5.654,20.678l3.816-1.5,4.782,1.857a.645.645,0,0,0,.305.051,1.277,1.277,0,0,0,.305-.051l4.808-1.857,3.816,1.5Z" transform="translate(-2.5 -10.675)" fill="#fff"/>
</svg>
