<svg xmlns="http://www.w3.org/2000/svg" width="110" height="32.11" viewBox="0 0 110 32.11">
  <g id="logo_music" transform="translate(-166.774 -123.999)">
    <path id="txt" d="M2.732-17.462v8.705h2.23v-.785h8.652v.785h2.248v-8.705Zm10.881,1.8v1.249H4.961v-1.249Zm0,2.89v1.391H4.961v-1.391Zm4.049-7.742H13.47a14.75,14.75,0,0,0,.553-1.748h2.765v-1.98H10.456v-1.374h-2.3v1.374H1.822v1.98H4.694c.143.535.214.856.375,1.748H.93V-18.5H17.662Zm-6.083-1.748a9.279,9.279,0,0,1-.517,1.748H7.28c-.054-.268-.232-1.57-.268-1.748Zm15,6.243H19.3v2.034h5.69a18.5,18.5,0,0,1-5.9,2.694L20.231-9.1a21.423,21.423,0,0,0,6.35-3.889v4.156h2.176v-4.353a21.753,21.753,0,0,0,6.279,4.049l1.249-2.141a21.3,21.3,0,0,1-5.762-2.711h5.512v-2.034H28.758v-.874h2.676v-7.6H28.526a9.5,9.5,0,0,0,.428-1.142H26.546a4.86,4.86,0,0,1-.41,1.142H23.995v7.6h2.587ZM29.4-22.76v1.267H26.011V-22.76Zm0,2.747v1.356H26.011v-1.356Zm2.069,1.035a13.708,13.708,0,0,1,3.585,2.64l1.391-2.016a16.832,16.832,0,0,0-3.8-2.48ZM19.357-23.224a12.837,12.837,0,0,1,3.1,2.194l1.267-1.8a14.525,14.525,0,0,0-3.211-2.123Zm3.835,2.587a15.455,15.455,0,0,1-4.156,1.98l.589,2.265A18.425,18.425,0,0,0,23.8-18.568ZM34.5-25.079a15.261,15.261,0,0,1-2.747,2.587l1.427,1.623a18.081,18.081,0,0,0,2.872-2.747ZM47.292-8.793a15.2,15.2,0,0,0,3.782-2.979,14.732,14.732,0,0,0,3.05,3l1.3-2.158a16.5,16.5,0,0,1-2.979-2.729,16.62,16.62,0,0,0,1.837-7.189H55.1V-23.1H50.824c.2-1.035.3-1.8.375-2.372l-2.1-.178a17.853,17.853,0,0,1-1.766,5.869v-1.213H46.31a18.77,18.77,0,0,0,2.016-3.318l-1.855-.856a17.146,17.146,0,0,1-1,1.944v-1.017h-2v-1.338H41.458v1.338H38.8v1.891h2.658v1.356H38.39v1.909h3.461a16.4,16.4,0,0,1-3.693,2.3l.981,1.891a19.59,19.59,0,0,0,2.176-1.32H43.8A5.374,5.374,0,0,1,42.707-15.2h-.482v1.159c-2.158.178-2.979.214-3.978.268l.143,2.034c.607-.036,3.3-.285,3.835-.321v.785c0,.392-.071.5-.553.5H39.8l.375,2h2.372c1.356,0,1.712-.464,1.712-1.659v-1.837c2.087-.25,2.569-.321,3.229-.446v-1.891c-.8.125-1.552.214-3.229.392v-.321a11.956,11.956,0,0,0,2.194-1.748V-17.98H43.546c.7-.642.963-.928,1.142-1.106H46.9c-.125.2-.214.3-.5.678l1.5,1.855c.178-.232.285-.41.571-.821a13.631,13.631,0,0,0,1.374,3.693,10.84,10.84,0,0,1-3.96,2.854Zm4.923-12.059a14.2,14.2,0,0,1-1.088,5.209A12.749,12.749,0,0,1,49.86-20c.089-.214.178-.446.339-.856Zm-7.3-1.534c-.214.3-.482.66-1.106,1.391h-.428v-1.391Zm27.346,5.994a16.23,16.23,0,0,0-2.943-3.1h1.017v-1.855H59.564V-19.5H61.17a15.645,15.645,0,0,1-.821,1.641c-.41,0-2.462,0-2.64-.018l.161,1.891c3.639,0,4.406-.036,5.922-.089v1.2H58.03v1.909h5.762v1.623H56.567v2H73.335v-2H66.057v-1.623h5.815v-1.909H66.057v-1.267c2.408-.143,2.569-.161,3.425-.25a12.573,12.573,0,0,1,.963,1.32ZM66.9-18.782c.321.25.535.41.945.749-1.409.107-3.782.161-5.137.178A17.285,17.285,0,0,0,63.6-19.5h4.388Zm-3.1-5.6H57.031v4.21h2.248v-2.248H70.624v2.248h2.248v-4.21H66.057v-1.249H63.792Z" transform="translate(203.439 162.487)" fill="#f98"/>
    <path id="logo_EYS" d="M-10962.837-260.947l.474-.505a4.047,4.047,0,0,0,2.845,1.034c1.354,0,2.149-.425,2.149-1.122,0-.681-.826-.85-2.343-.978-1.5-.128-2.934-.456-2.934-1.563,0-1.058,1.331-1.659,2.831-1.659a4.313,4.313,0,0,1,2.868,1l-.528.448a3.283,3.283,0,0,0-2.31-.825c-1-.008-2.172.272-2.172,1.01,0,.7,1.059.842,2.381.945,1.708.136,2.9.465,2.9,1.571,0,1.034-1.051,1.795-2.879,1.795A4.932,4.932,0,0,1-10962.837-260.947Zm-6.8,1.084v-1.963l-2.816-3.647h.807l2.354,3.038,2.345-3.038h.8l-2.813,3.647v1.963Zm-11.365,0v-5.61h5.346v.625h-4.676v1.819h3.963v.625h-3.963v1.916h4.755v.625Z" transform="translate(11185.37 393.515)" fill="#444"/>
    <path id="mark" d="M17.745,32.11a4.595,4.595,0,0,1,0-9.19h.078a3.838,3.838,0,0,1,1.026.139l.107.03V10.627a2.8,2.8,0,0,1,1.229-2.287,2.691,2.691,0,0,1,2.591-.2l6.4,2.78a2.688,2.688,0,0,1,1.637,2.491v5.77a.62.62,0,0,1-.279.527.652.652,0,0,1-.588.028l-9.759-4.2v8.126l.039.025a4.5,4.5,0,0,1,2.108,3.833,4.6,4.6,0,0,1-4.6,4.6M15.35,25.171a3.373,3.373,0,0,0-.956,2.348,3.358,3.358,0,1,0,3.358-3.356H17.74a3.33,3.33,0,0,0-2.366.978l-.025.025ZM20.811,9.4a1.561,1.561,0,0,0-.615,1.224v3.576l9.386,4.049V13.411a1.484,1.484,0,0,0-.239-.824,1.51,1.51,0,0,0-.655-.556l-6.4-2.779a1.58,1.58,0,0,0-.592-.115h-.013a1.593,1.593,0,0,0-.809.221l-.063.037ZM.662,13.881a.663.663,0,0,1,0-1.325H15.308a.663.663,0,0,1,0,1.325Zm0-5.978a.663.663,0,0,1,0-1.325H15.308a.663.663,0,0,1,0,1.325Zm0-6.576A.664.664,0,0,1,.662,0H15.308a.664.664,0,0,1,.469,1.132.657.657,0,0,1-.469.195Z" transform="translate(166.774 123.999)" fill="#f98"/>
  </g>
</svg>
