<svg xmlns="http://www.w3.org/2000/svg" width="140" height="22.055" viewBox="0 0 140 22.055">
  <g id="logo_ON-girl_music" transform="translate(-103.674 -74.078)">
    <path id="icon" d="M3.91,22.055C1.754,22.055,0,20.57,0,18.744,0,16.9,1.769,15.4,3.943,15.4a4.374,4.374,0,0,1,2.719.937l.459.363V5.634A3.714,3.714,0,0,1,9.873,2.047l7.32-1.93A3.71,3.71,0,0,1,21.828,3.7v9.949C21.828,15.5,20.059,17,17.885,17s-3.943-1.5-3.943-3.344,1.769-3.344,3.943-3.344a4.378,4.378,0,0,1,2.72.937l.458.363V3.7a2.98,2.98,0,0,0-.093-.721A2.943,2.943,0,0,0,17.382.867L10.06,2.8A2.946,2.946,0,0,0,7.853,5.632V18.711c0,1.844-1.769,3.344-3.943,3.344m0-5.923c-1.752,0-3.178,1.157-3.178,2.579A2.929,2.929,0,0,0,3.91,21.29a2.929,2.929,0,0,0,3.178-2.579c0-1.422-1.426-2.579-3.178-2.579m13.976-5.058c-1.753,0-3.178,1.157-3.178,2.579a2.929,2.929,0,0,0,3.178,2.579,2.929,2.929,0,0,0,3.178-2.579,2.929,2.929,0,0,0-3.178-2.579" transform="translate(103.674 74.078)" fill="#f9a"/>
    <path id="txt" d="M6.36-15.57a21.053,21.053,0,0,1,6.768,2.619l.565-.868a19.372,19.372,0,0,0-3.777-1.764,16.866,16.866,0,0,0-3.239-.868Zm1.682-8.188a16.462,16.462,0,0,1,5.114,2.026l.551-.855a18.521,18.521,0,0,0-5.348-2.04ZM7.408-19.8a16.2,16.2,0,0,1,4.838,1.9l.51-.882A18.1,18.1,0,0,0,7.738-20.67ZM22.07-15.57H17.976l-1.489-.014c-.124,0-.221-.014-.317-.014v.937c.731-.028,1.2-.041,1.806-.041h5.886c.607,0,1.075.014,1.806.041V-15.6c-.414.014-1.3.028-1.806.028h-.882l.207-3.115c.055-.813.1-1.254.165-1.82-.358.014-1.323.028-1.944.028h-2.66c-.386,0-.758-.014-1.144-.028v.882c.538-.014.924-.028,1.144-.028h3.6Zm15.613-3.8c-.593.028-1.558.041-2.192.041H28.847c-.7,0-1.613-.014-2.192-.041v.992c.579-.028,1.489-.055,2.192-.055h6.644c.634,0,1.6.028,2.192.055Zm9.263-4.246A7.942,7.942,0,0,1,48.6-22.2l.565-.607a8.886,8.886,0,0,0-1.751-1.378Zm-6.7,10.393a.35.35,0,0,0,.248.165c.083,0,.152-.083.207-.276,1.185-.551,1.613-.744,2.219-1.048a15.439,15.439,0,0,0,3.832-2.729,15.547,15.547,0,0,0,2.771-3.653,4.008,4.008,0,0,1-.689-.813,13.035,13.035,0,0,1-4.356,5.031,18.468,18.468,0,0,1-4.811,2.4ZM40.563-23.5a10.932,10.932,0,0,1,2.164,1.833l.731-.786a11.462,11.462,0,0,0-2.316-1.792Zm7.43-1.2a7.942,7.942,0,0,1,1.654,1.42l.565-.607a8.886,8.886,0,0,0-1.751-1.378ZM38.744-20.2a11.008,11.008,0,0,1,2.164,1.833l.744-.786a11.276,11.276,0,0,0-2.316-1.778Zm11.882.179a7.994,7.994,0,0,1,1.282,2.247l.924-.427A7.866,7.866,0,0,0,51.4-20.477Zm3.1-1.034a8.674,8.674,0,0,1,1.02,2.4l.937-.358a7.95,7.95,0,0,0-1.144-2.44Zm4.88-.152c-.179.758-.248,1.061-.4,1.558a8.482,8.482,0,0,1-3.57,4.852,11.357,11.357,0,0,1-2.3,1.144,2.186,2.186,0,0,1,.551.855,10.935,10.935,0,0,0,3.722-2.3c1.282-1.2,1.985-2.523,2.826-5.293.221-.083.289-.138.289-.248,0-.083-.069-.152-.179-.193Zm6.529-1.3c.179-.345.386-.868.7-1.668.262-.1.289-.124.289-.234,0-.083-.028-.11-.179-.165l-.882-.345a2.061,2.061,0,0,1-.124.455,16.059,16.059,0,0,1-.91,2.013,11.891,11.891,0,0,1-2.867,3.515,1.8,1.8,0,0,1,.717.662,14.075,14.075,0,0,0,2.8-3.363h4.48l-.083.414A9.683,9.683,0,0,1,66.156-16a11.523,11.523,0,0,1-3.611,2.219,1.858,1.858,0,0,1,.579.855,15.659,15.659,0,0,0,2.716-1.571,10.407,10.407,0,0,0,4.094-6.286c.138-.607.165-.675.207-.882.221-.1.276-.138.276-.234,0-.069-.041-.124-.138-.193l-.8-.62-.165.207Zm8,.5c1.006-.055,1.185-.055,4-.179l2.44-.11-.372.8A13.63,13.63,0,0,1,77.7-19a13.822,13.822,0,0,1-5.776,4.452,1.844,1.844,0,0,1,.744.841A15.925,15.925,0,0,0,77.809-17.6,16.043,16.043,0,0,1,82.1-13.709l.841-.744a17.057,17.057,0,0,0-4.576-3.8,15.164,15.164,0,0,0,2.219-4.108c.179-.055.248-.11.248-.179a.209.209,0,0,0-.1-.152l-.841-.675-.193.221-2.633.1c-.138,0-2.605.041-2.84.041-.152,0-.565,0-1.185-.014ZM87.7-22.5c.179-.345.386-.868.7-1.668.262-.1.289-.124.289-.234,0-.083-.028-.11-.179-.165l-.882-.345a2.06,2.06,0,0,1-.124.455,16.057,16.057,0,0,1-.91,2.013,11.891,11.891,0,0,1-2.867,3.515,1.8,1.8,0,0,1,.717.662,14.076,14.076,0,0,0,2.8-3.363h4.48l-.083.414A9.683,9.683,0,0,1,88.717-16a11.523,11.523,0,0,1-3.611,2.219,1.858,1.858,0,0,1,.579.855A15.658,15.658,0,0,0,88.4-14.494a10.407,10.407,0,0,0,4.094-6.286c.138-.607.165-.675.207-.882.221-.1.276-.138.276-.234,0-.069-.041-.124-.138-.193l-.8-.62-.165.207Zm17.943,3.129c-.593.028-1.558.041-2.192.041H96.8c-.7,0-1.613-.014-2.192-.041v.992c.579-.028,1.489-.055,2.192-.055h6.644c.634,0,1.6.028,2.192.055Zm7.664,5.031a.4.4,0,0,0,.221.083c.083,0,.152-.083.207-.276a16.411,16.411,0,0,0,4.714-3.432,5.974,5.974,0,0,1-.4-1.048,13.61,13.61,0,0,1-4.4,3.446v-5.693c0-.8,0-1.254.014-1.558.179-.124.248-.193.248-.262,0-.1-.069-.138-.234-.152l-1.006-.1c.028.386.041.992.041,2.068v3.791a7.261,7.261,0,0,1-.165,2.564Zm-3.86-8.974c.028.455.028.648.028,1.144,0,3.35-.317,4.728-1.406,6.038a6.328,6.328,0,0,1-2,1.5,1.675,1.675,0,0,1,.662.758,6.545,6.545,0,0,0,2.826-2.771c.675-1.351.841-2.55.855-6.148.152-.083.262-.193.262-.276,0-.055-.083-.11-.179-.124Z" transform="translate(125.229 108.408)" fill="#f9a"/>
    <path id="ON-girl" d="M-50.808-16.284a3.005,3.005,0,0,0,2.111-.792,3,3,0,0,0,.844-2.134,2.228,2.228,0,0,0-.663-1.643,2.294,2.294,0,0,0-1.689-.633,2.85,2.85,0,0,0-2.066.792,2.79,2.79,0,0,0-.859,2.088,2.331,2.331,0,0,0,.648,1.666A2.256,2.256,0,0,0-50.808-16.284Zm.543-4.674a1.782,1.782,0,0,1,1.3.513,1.881,1.881,0,0,1,.528,1.342,2.423,2.423,0,0,1-.686,1.689,2.324,2.324,0,0,1-1.628.6,1.717,1.717,0,0,1-1.282-.513,1.949,1.949,0,0,1-.52-1.387,2.224,2.224,0,0,1,.694-1.651A2.332,2.332,0,0,1-50.265-20.958Zm4.44,4.584.475-3.9,3.415,4.124.648-5.255h-.558l-.483,3.913-3.415-4.124-.641,5.24Zm5.865-2.081H-38.3l.068-.558h-1.659Zm5.865-.487a1.053,1.053,0,0,0-.392-.369,1.463,1.463,0,0,0-.694-.151,1.545,1.545,0,0,0-1.161.46,2,2,0,0,0-.505,1.372,1.467,1.467,0,0,0,.392,1.063,1.346,1.346,0,0,0,1.033.4,1.418,1.418,0,0,0,.6-.136,1.119,1.119,0,0,0,.445-.392l-.045.452a1.487,1.487,0,0,1-.347.957,1.082,1.082,0,0,1-.792.279.928.928,0,0,1-.648-.219.892.892,0,0,1-.249-.7v-.03h-.535v.045a1.449,1.449,0,0,0,.354,1.018,1.425,1.425,0,0,0,1.055.369,1.626,1.626,0,0,0,1.221-.452,2.17,2.17,0,0,0,.49-1.357l.369-3.053h-.543Zm-1.025-.038a.858.858,0,0,1,.656.264,1.158,1.158,0,0,1,.271.754,1.489,1.489,0,0,1-.4,1.04,1.125,1.125,0,0,1-.769.271A.874.874,0,0,1-36-16.9a1.081,1.081,0,0,1-.279-.769,1.384,1.384,0,0,1,.407-1.025A1.059,1.059,0,0,1-35.12-18.98Zm3.4-.523-.384,3.129h.543l.384-3.129Zm.03-1.138a.324.324,0,0,0,.09.234.342.342,0,0,0,.256.106.4.4,0,0,0,.3-.128.412.412,0,0,0,.121-.3.335.335,0,0,0-.1-.249.318.318,0,0,0-.241-.09.412.412,0,0,0-.324.143A.443.443,0,0,0-31.689-20.641Zm1.714,6.123h.543l.4-3.391a1.448,1.448,0,0,1,.309-.875.562.562,0,0,1,.415-.166.509.509,0,0,1,.324.106l.317-.49a.806.806,0,0,0-.46-.128.877.877,0,0,0-.452.113.875.875,0,0,0-.317.3l.045-.339H-29.4Zm3.857-7.352-.678,5.5h.543l.678-5.5Z" transform="translate(184.719 95.948)" fill="#666"/>
  </g>
</svg>
