<svg id="logo" xmlns="http://www.w3.org/2000/svg" xmlns:xlink="http://www.w3.org/1999/xlink" width="93.065" height="40" viewBox="0 0 93.065 40">
  <defs>
    <linearGradient id="linear-gradient" x1="-5.103" y1="4.588" x2="-5.094" y2="4.578" gradientUnits="objectBoundingBox">
      <stop offset="0" stop-color="#d8b"/>
      <stop offset="0.719" stop-color="#7ae"/>
      <stop offset="1" stop-color="#77c9dd"/>
    </linearGradient>
  </defs>
  <g id="mark">
    <circle id="dot_LL" data-name="dot LL" cx="3.019" cy="3.019" r="3.019" transform="translate(2.156 11.059)" fill="#d8b"/>
    <circle id="dot_L" data-name="dot L" cx="1.725" cy="1.725" r="1.725" transform="translate(0 4.158)" fill="#ec8"/>
    <circle id="dot_M" data-name="dot M" cx="2.156" cy="2.156" r="2.156" transform="translate(6.038 5.452)" fill="#e97"/>
    <circle id="dot_S" data-name="dot S" cx="0.862" cy="0.862" r="0.862" transform="translate(2.588 0.708)" fill="#7c8"/>
    <path id="mark-2" d="M101.808,190.8a11.466,11.466,0,0,1-2.193-.327,11.529,11.529,0,0,1-3.97-1.852,11.468,11.468,0,0,1,9.516-20.408c.152.038.306.08.458.124l.494,1.357a10.364,10.364,0,1,0,6.2,6.36h0l-5.262-14.468a5.615,5.615,0,0,0,1.05-.08l5.168,14.2h0a11.393,11.393,0,0,1,.579,4.216,11.5,11.5,0,0,1-3.648,7.823,11.513,11.513,0,0,1-7.8,3.069Q102.1,190.815,101.808,190.8Zm.217-1.663a9.746,9.746,0,1,1,4.369-18.674l.506,1.39c-.222-.128-.455-.25-.692-.36a8.743,8.743,0,1,0,4.58,5.119h0L105.2,161.246a5.746,5.746,0,0,0,1.187.294l5.36,14.725h0a9.751,9.751,0,0,1-9.218,12.887q-.252,0-.5-.014Zm-7.1-6.968a8.121,8.121,0,0,1,13.285-8.607l-5.8-15.935a5.074,5.074,0,0,1,3.032-6.5h0a5.075,5.075,0,0,1,6.5,3.033h0a5.075,5.075,0,0,1-3.033,6.5h0a5.07,5.07,0,0,1-4.8-.722l6.07,16.677a8.119,8.119,0,1,1-15.258,5.554Z" transform="translate(-88.018 -150.814)" fill="url(#linear-gradient)"/>
  </g>
  <path id="ja" d="M202.063,213.535c.139,0,.193.054.193.193v.594h-3.84v-.594c0-.139.054-.193.193-.193Zm.193,1.349v.68c0,.139-.054.193-.193.193h-3.452c-.139,0-.193-.054-.193-.193v-.68Zm-4.48.81c0,.462.185.648.648.648h3.816c.462,0,.648-.185.648-.648v-2.1c0-.455-.185-.64-.648-.64h-3.816c-.462,0-.648.185-.648.64Zm3.777-5.072a8.7,8.7,0,0,1-.37,1.18h-1.727c-.1-.408-.24-.88-.339-1.18Zm-.88-.971a.3.3,0,0,0-.266-.339.284.284,0,0,0-.074,0,.3.3,0,0,0-.339.266.314.314,0,0,0,0,.073v.386h-2.444a.264.264,0,0,0-.293.232.306.306,0,0,0,0,.061.264.264,0,0,0,.293.293h.886a10.6,10.6,0,0,1,.347,1.18h-1.7a.261.261,0,0,0-.293.224.275.275,0,0,0,0,.068.259.259,0,0,0,.228.286.276.276,0,0,0,.065,0h6.444a.258.258,0,0,0,.292-.22.237.237,0,0,0,0-.065.26.26,0,0,0-.224-.293.251.251,0,0,0-.069,0H201.87a9.235,9.235,0,0,0,.37-1.18h.894a.294.294,0,1,0,0-.586h-2.459Zm7.24,1.11a.139.139,0,0,1,.121-.154.157.157,0,0,1,.033,0h1.48a.138.138,0,0,1,.154.121.11.11,0,0,1,0,.033v.509h-1.788Zm1.788,1.056v.532a.138.138,0,0,1-.121.154.149.149,0,0,1-.033,0h-1.48a.139.139,0,0,1-.154-.121.151.151,0,0,1,0-.033v-.532Zm-.592,1.256h.709a.44.44,0,0,0,.478-.477v-2.074a.44.44,0,0,0-.478-.478h-.763a1.569,1.569,0,0,0,.131-.47.284.284,0,0,0-.3-.263h-.012c-.193,0-.27.085-.332.3a4.029,4.029,0,0,1-.146.432h-.586a.44.44,0,0,0-.478.4.433.433,0,0,0,0,.08V212.6a.44.44,0,0,0,.4.478.456.456,0,0,0,.08,0h.685v.5h-2.814a.274.274,0,0,0-.3.244.309.309,0,0,0,0,.064.272.272,0,0,0,.24.3.257.257,0,0,0,.061,0h2.243a7.367,7.367,0,0,1-1.935,1.28c-.278.131-.478.185-.6.254a.281.281,0,0,0-.139.247.311.311,0,0,0,.281.338h.02a6.618,6.618,0,0,0,2.945-1.842v1.74a.277.277,0,0,0,.24.308.282.282,0,0,0,.068,0,.277.277,0,0,0,.308-.24.248.248,0,0,0,0-.068v-1.727a7.178,7.178,0,0,0,2.906,1.8.327.327,0,0,0,.325-.329v-.018c0-.16-.123-.27-.347-.355a7.476,7.476,0,0,1-2.336-1.4h2.3a.272.272,0,0,0,.3-.24.257.257,0,0,0,0-.061.274.274,0,0,0-.236-.308.267.267,0,0,0-.064,0h-2.852Zm-3.145-3.184a.331.331,0,0,0-.316.332c0,.092.031.17.177.285a8.729,8.729,0,0,1,.663.57c.108.123.17.17.278.17a.331.331,0,0,0,.316-.332c0-.139-.054-.208-.216-.362-.17-.176-.67-.662-.9-.662Zm.925,1.788a.594.594,0,0,0-.324.16,10.381,10.381,0,0,1-.9.626c-.193.123-.231.193-.231.308a.312.312,0,0,0,.293.308c.316,0,1.249-.748,1.3-.794a.35.35,0,0,0,.16-.293.309.309,0,0,0-.3-.318Zm4.772-1.842a.386.386,0,0,0-.293.16c-.193.208-.378.378-.6.578-.185.154-.24.2-.24.339a.318.318,0,0,0,.316.316c.247,0,.725-.5.956-.756.116-.131.185-.208.185-.339A.327.327,0,0,0,211.66,209.836Zm.524,2.852c0-.16-.1-.247-.293-.386a3.928,3.928,0,0,0-1.08-.6.337.337,0,0,0-.332.342v0a.291.291,0,0,0,.185.254,6.975,6.975,0,0,1,.88.57c.154.123.208.16.332.16a.339.339,0,0,0,.308-.347Zm3.916-3.037a.276.276,0,0,0-.24-.308.282.282,0,0,0-.068,0,.277.277,0,0,0-.308.24.274.274,0,0,0,0,.068v.432h-1.01a.258.258,0,0,0-.286.227.279.279,0,0,0,0,.066.256.256,0,0,0,.223.285.269.269,0,0,0,.062,0h1.01v.709h-1.4a.263.263,0,0,0-.294.228.276.276,0,0,0,0,.072.261.261,0,0,0,.224.293.279.279,0,0,0,.068,0h1.658a5.707,5.707,0,0,1-.748.624h-.378c-.154,0-.278.04-.278.254a.222.222,0,0,0,.04.131c-.123.077-.386.177-.493.24a.246.246,0,0,0-.146.231.317.317,0,0,0,.293.339h0a4.18,4.18,0,0,0,1.224-.649h.994c.062,0,.092.008.092.046a2.531,2.531,0,0,1-.393.408c-.146,0-.362,0-.362.27v.332a12.767,12.767,0,0,1-1.472.108.256.256,0,0,0-.24.27.275.275,0,0,0,.293.316c.123,0,.709-.031,1.418-.116v.746c0,.177-.085.2-.27.2-.131,0-.185-.008-.316-.008a.263.263,0,0,0-.262.264v.014c0,.355.309.355.609.355.709,0,.871-.231.871-.694v-.955c.308-.04.832-.131,1.164-.2.2-.046.247-.139.247-.285a.3.3,0,0,0-.285-.308c-.054,0-.948.185-1.126.216v-.069c.139-.123.347-.324.624-.594s.37-.4.37-.547c0-.131-.069-.316-.408-.316h-.885a6.71,6.71,0,0,0,.671-.625h.863a.266.266,0,0,0,.3-.228.249.249,0,0,0,0-.065.268.268,0,0,0-.232-.3.279.279,0,0,0-.068,0h-.339a4.243,4.243,0,0,0,.817-1.364.333.333,0,0,0-.362-.293.24.24,0,0,0-.224.16c-.092.185-.208.378-.3.54.016-.16-.046-.332-.262-.332H216.1Zm2.852,1.149a5.442,5.442,0,0,0,.3-1.172c0-.146-.123-.27-.339-.27-.154,0-.247.069-.324.37a8.175,8.175,0,0,1-1.048,2.567c-.1.16-.193.262-.193.37a.32.32,0,0,0,.316.324h.007c.208,0,.285-.108.57-.624a6.932,6.932,0,0,0,.586,2.05,4.394,4.394,0,0,1-1.565,1.333c-.216.1-.262.208-.262.308a.32.32,0,0,0,.308.332h0a4.08,4.08,0,0,0,1.85-1.38c.308.486,1.056,1.334,1.44,1.334a.35.35,0,0,0,.316-.339.354.354,0,0,0-.2-.293,3.644,3.644,0,0,1-1.149-1.24,7.436,7.436,0,0,0,.856-3.045c.324,0,.516,0,.516-.316a.276.276,0,0,0-.24-.308.281.281,0,0,0-.068,0Zm-2.182-.14a.239.239,0,0,0,.16-.054,6.458,6.458,0,0,1-.609.763H216.1v-.709Zm3.037.763a8.383,8.383,0,0,1-.578,2.367,7.609,7.609,0,0,1-.486-2.367Zm6.236-1.727a.321.321,0,0,0-.632-.078.314.314,0,0,0,0,.078v.47h-2.328a.494.494,0,0,0-.563.555v.979a.277.277,0,0,0,.308.308.28.28,0,0,0,.315-.24.268.268,0,0,0,0-.069v-.771c0-.092.031-.131.131-.131h4.974c.092,0,.131.04.131.131v.74a.313.313,0,0,0,.617.068.241.241,0,0,0,0-.068v-.948a.493.493,0,0,0-.563-.555h-2.391Zm1.8,2.274a.272.272,0,0,0,.3-.24.253.253,0,0,0,0-.061.272.272,0,0,0-.24-.3.257.257,0,0,0-.061,0h-4.185a.272.272,0,0,0-.3.24.306.306,0,0,0,0,.061.272.272,0,0,0,.24.3.253.253,0,0,0,.061,0h.94a6.957,6.957,0,0,1-.865.979c-.416.023-.57.046-.57.355a.29.29,0,0,0,.3.279l.024,0c.085,0,1.018-.031,1.927-.092v.68h-2.04a.272.272,0,0,0-.3.24.3.3,0,0,0,0,.061.272.272,0,0,0,.24.3.258.258,0,0,0,.061,0h2.04v.792h-2.773a.275.275,0,0,0-.3.244.317.317,0,0,0,0,.064.275.275,0,0,0,.237.308.282.282,0,0,0,.064,0h6.253a.276.276,0,0,0,.308-.24.24.24,0,0,0,0-.068.276.276,0,0,0-.308-.308h-2.854v-.794h2.16a.272.272,0,0,0,.3-.24.26.26,0,0,0,0-.061.272.272,0,0,0-.24-.3.26.26,0,0,0-.061,0h-2.16v-.717c.532-.04,1.033-.077,1.5-.139.092.085.2.2.247.247.116.131.185.177.308.177a.322.322,0,0,0,.308-.324c0-.139-.046-.193-.185-.347-.24-.262-.509-.54-.786-.825-.131-.123-.193-.17-.332-.17a.32.32,0,0,0-.308.308c0,.1.031.131.293.408-.786.077-2.058.139-2.528.146a10.366,10.366,0,0,0,.786-.964Z" transform="translate(-151.54 -185.911)" fill="#666"/>
  <g id="en" transform="translate(29.843 9.398)">
    <path id="K" d="M163.34,175.721a.709.709,0,0,0,.758-.657c0-.013,0-.026,0-.039a.687.687,0,0,0-.691-.682h-.029c-.194-.013-.9-.026-1.637-.026s-1.456.013-1.688.026a1.6,1.6,0,0,0-1.74,1.624c-.026.812-.04,2.564-.04,4.136,0,1.044,0,2,.026,2.539.052,1.134.786,1.56,1.972,1.65.168.013.915.026,1.65.026s1.495-.013,1.662-.026a.752.752,0,0,0,.81-.688c0-.01,0-.021,0-.032a.654.654,0,0,0-.646-.662l-.051,0h-.064c-.245.013-1.07.026-1.83.026-1.817,0-2.023-.026-2.088-.618-.026-.219-.04-.516-.04-2.436,0-.271.129-.284,1.727-.284.49,0,.979.013,1.3.04h.064a.683.683,0,0,0,.688-.678c0-.019,0-.039,0-.058a.649.649,0,0,0-.61-.686.636.636,0,0,0-.11,0c-.232.013-.85.013-1.443.013-1.585,0-1.6,0-1.6-.258.013-.748,0-1.379.026-1.688.04-.554.309-.58,1.6-.58C162.194,175.708,163.34,175.721,163.34,175.721Z" transform="translate(-158.276 -174.314)" fill="#77c9dd"/>
    <path id="Y" d="M181.944,183.335a.749.749,0,0,0,.736.762c.025,0,.05,0,.076,0a.734.734,0,0,0,.784-.68c0-.014,0-.027,0-.04,0-1.044-.013-2.345-.013-3.12a.652.652,0,0,1,.154-.5c.838-1.173,2.28-3.325,2.861-4.252a.706.706,0,0,0,.116-.374.89.89,0,0,0-.864-.8.631.631,0,0,0-.58.36,36.941,36.941,0,0,1-2.332,3.647.17.17,0,0,1-.155.09.186.186,0,0,1-.155-.1c-.9-1.34-1.8-2.68-2.345-3.621a.7.7,0,0,0-.618-.387.774.774,0,0,0-.657,1.237c.618.928,1.92,2.848,2.861,4.266a.515.515,0,0,1,.129.425Z" transform="translate(-170.59 -174.312)" fill="#7ae"/>
    <path id="S" d="M210.113,181.508a3.054,3.054,0,0,0-1.83-2.64c-.593-.322-1.48-.734-2.01-1.018a1.324,1.324,0,0,1-.812-1.134,1.188,1.188,0,0,1,1.328-1.1,1.881,1.881,0,0,1,1.48.593.818.818,0,0,0,.606.309.752.752,0,0,0,.72-.748c0-.606-1.018-1.456-2.8-1.456a2.464,2.464,0,0,0-1.134,4.768c.683.309,1.379.7,1.946,1.018a1.7,1.7,0,0,1,.984,1.441c0,.412-.309,1.379-1.727,1.379a2.215,2.215,0,0,1-1.88-.864.694.694,0,0,0-.569-.322.753.753,0,0,0-.747.734c0,.632,1.082,1.83,3.183,1.83A2.982,2.982,0,0,0,210.113,181.508Z" transform="translate(-185.512 -174.315)" fill="#78c"/>
    <path id="_-" data-name=" -" d="M230.108,186.455a.666.666,0,0,0,.659-.674c0-.016,0-.031,0-.046a.653.653,0,0,0-.594-.708l-.051,0H230.1c-.618.013-1.314.026-1.984.026-.541,0-1.07-.013-1.52-.026h-.026a.646.646,0,0,0-.609.682c0,.009,0,.018,0,.027a.656.656,0,0,0,.59.717.638.638,0,0,0,.068,0c.528-.026.915-.04,1.3-.04.567,0,1.134.026,2.178.04Z" transform="translate(-198.883 -180.738)" fill="#a9c"/>
    <path id="K-2" d="M245.679,183.487a.668.668,0,0,0,.712.622l.036,0c.374,0,.734-.193.734-.606v-.026c-.026-.593-.026-1.16-.026-1.675,0-.838.013-1.52.026-1.856,0-.193.142-.206.245-.206s.18-.013.271-.013a.636.636,0,0,1,.541.258c.941,1.1,3.12,3.428,3.557,3.88a.8.8,0,0,0,.58.258.9.9,0,0,0,.864-.852.787.787,0,0,0-.219-.528c-.219-.245-2.577-2.487-3.673-3.608a.316.316,0,0,1-.116-.193.308.308,0,0,1,.116-.206c.9-.954,2.474-2.526,3.04-3.222a.636.636,0,0,0,.142-.4.864.864,0,0,0-.838-.786.636.636,0,0,0-.528.271c-.528.7-2.023,2.345-2.951,3.35a.889.889,0,0,1-.694.376c-.309,0-.335-.142-.335-.258-.013-.322-.026-.889-.026-1.585,0-.451.013-.954.026-1.469v-.026a.692.692,0,0,0-.71-.672l-.038,0a.667.667,0,0,0-.732.6.646.646,0,0,0,0,.1c.026.979.04,2.345.04,3.789,0,1.611-.013,3.312-.04,4.678Z" transform="translate(-210.717 -174.31)" fill="#d8b"/>
    <path id="i" d="M271.869,176.1a.9.9,0,0,0,.9-.9v-.019a.908.908,0,0,0-.9-.878.874.874,0,0,0-.9.846c0,.01,0,.02,0,.03a.855.855,0,0,0,.79.916A.947.947,0,0,0,271.869,176.1Zm.7,7.447v-.024c-.013-.709-.026-1.624-.026-2.513,0-1.082.013-2.1.026-2.629v-.026a.633.633,0,0,0-.645-.62l-.038,0a.633.633,0,0,0-.694.566.6.6,0,0,0,0,.092c.013.348.013.864.013,1.443,0,1.173-.013,2.64-.013,3.711a.64.64,0,0,0,.621.658h.062a.652.652,0,0,0,.694-.606C272.564,183.584,272.564,183.567,272.564,183.549Z" transform="translate(-225.888 -174.309)" fill="#e97"/>
    <path id="d" d="M289.123,183.372a.707.707,0,0,0-.09-.348c-.374-.72-.387-.76-.387-5.541,0-1.082.013-2,.04-2.436v-.064a.64.64,0,0,0-.609-.67.51.51,0,0,0-.062,0,.63.63,0,0,0-.657.67c.013.541.04,1.856.04,3.35,0,.04-.013.052-.04.052a.076.076,0,0,1-.052-.013,2.658,2.658,0,0,0-1.8-.7,3.1,3.1,0,0,0-3.135,3.058c0,.059,0,.118,0,.176a3.06,3.06,0,0,0,3.132,3.235,2.74,2.74,0,0,0,2.036-.9c.026-.026.052-.052.064-.052s.04.026.052.077c.18.709.425.812.72.812A.74.74,0,0,0,289.123,183.372Zm-3.6-.425a2.059,2.059,0,1,1,1.856-2.036A1.867,1.867,0,0,1,285.528,182.947Z" transform="translate(-232.731 -174.311)" fill="#ec8"/>
    <path id="s-2" d="M309.6,187.021a2.054,2.054,0,0,0-1.263-1.766c-.386-.206-.966-.464-1.3-.632a.664.664,0,0,1-.425-.567c0-.284.245-.528.683-.528a1.067,1.067,0,0,1,.812.309.735.735,0,0,0,.528.258.655.655,0,0,0,.644-.643c0-.5-.8-1.082-1.984-1.082a1.808,1.808,0,0,0-1.96,1.727,1.756,1.756,0,0,0,1.16,1.611c1.508.683,1.791.928,1.791,1.34,0,.3-.271.657-.954.657a1.269,1.269,0,0,1-1.043-.453.63.63,0,0,0-.516-.271.653.653,0,0,0-.657.618c0,.425.657,1.314,2.229,1.314A2.1,2.1,0,0,0,309.6,187.021Z" transform="translate(-246.381 -179.146)" fill="#7c8"/>
  </g>
</svg>
