<svg xmlns="http://www.w3.org/2000/svg" width="20.188" height="21" viewBox="0 0 20.188 21">
  <path id="icon_bell" d="M-255.027,2.285H-261l1.993-4.186V-6.02a7.307,7.307,0,0,1,6.644-6.926V-14.99h1.329v2.025a7.3,7.3,0,0,1,6.644,6.945V-1.9l1.993,4.186h-5.973A3.311,3.311,0,0,1-251.7,5.01,3.311,3.311,0,0,1-255.027,2.285Zm3.33,1.4a1.94,1.94,0,0,0,1.972-1.4h-3.944A1.94,1.94,0,0,0-251.7,3.681Zm-5.98-9.634v4.385l-1.2,2.525h14.418l-1.262-2.525V-5.953A5.985,5.985,0,0,0-251.7-11.6,5.985,5.985,0,0,0-257.678-5.953Z" transform="translate(261.792 15.49)" fill="#fff" stroke="rgba(0,0,0,0)" stroke-width="1"/>
</svg>
