<svg xmlns="http://www.w3.org/2000/svg" width="21.887" height="20" viewBox="0 0 21.887 20">
  <path id="icon_love" d="M37.729,48.779a.559.559,0,0,1-.41-.176L28.6,39.4a6.225,6.225,0,1,1,8.814-8.792l.315.315.314-.314a6.225,6.225,0,0,1,8.8,8.8L38.139,48.6A.578.578,0,0,1,37.729,48.779ZM33.013,29.924a5.1,5.1,0,0,0-3.6,8.709l8.316,8.77,8.29-8.778a4.452,4.452,0,0,0,.333-.331,5.093,5.093,0,0,0-7.52-6.869l-.7.7a.565.565,0,0,1-.8,0l-.718-.713A5.067,5.067,0,0,0,33.013,29.924Z" transform="translate(-26.779 -28.779)" fill="#fff"/>
</svg>
