<svg xmlns="http://www.w3.org/2000/svg" xmlns:xlink="http://www.w3.org/1999/xlink" width="166.025" height="36" viewBox="0 0 166.025 36">
  <defs>
    <linearGradient id="linear-gradient" y1="0.5" x2="1" y2="0.5" gradientUnits="objectBoundingBox">
      <stop offset="0" stop-color="#e098c1"/>
      <stop offset="1" stop-color="#5185c6"/>
    </linearGradient>
  </defs>
  <g id="logo_InspiartZ" transform="translate(-0.002 0.002)">
    <path id="txt" d="M8954.7,22107.824l-.034-18.781h2.671v.881a6.217,6.217,0,0,1,3.6-1.238c3.876,0,6.806,3.154,6.806,7.354,0,4.18-2.93,7.34-6.806,7.34a6.174,6.174,0,0,1-3.567-1.187v5.633Zm2.67-14.584v5.58a5.028,5.028,0,0,0,3.567,2.1c2.4,0,4.135-2.055,4.135-4.879,0-2.84-1.738-4.9-4.135-4.9A5.047,5.047,0,0,0,8957.366,22093.24Zm49.4,4.947v-6.678h-2.512v-2.467h2.512v-3.592h2.671v3.592h3.835v2.467h-3.835v6.678c0,1.584.83,2.73,1.972,2.73a2.627,2.627,0,0,0,1.837-.939l.309-.4,1.954,1.373-.341.465a5.051,5.051,0,0,1-3.759,1.961C9008.722,22103.379,9006.768,22101.2,9006.768,22098.188Zm-29.515.244c0-2.959,2.231-4.949,5.551-4.949a10.925,10.925,0,0,1,3.552.678c-.169-1.947-1.248-3.018-3.095-3.018a3.971,3.971,0,0,0-2.853,1.406l-.218.293-1.961-1.379.241-.338a6.33,6.33,0,0,1,4.79-2.439c3.512,0,5.781,2.367,5.781,6.025v8.311h-2.67a7.469,7.469,0,0,0,0-.871,5.6,5.6,0,0,1-3.568,1.229C8979.484,22103.379,8977.253,22101.395,8977.253,22098.432Zm2.67,0c0,1.58,1.051,2.486,2.881,2.486a5.052,5.052,0,0,0,3.568-2.1v-1.941a8.9,8.9,0,0,0-3.568-.934C8980.974,22095.945,8979.923,22096.852,8979.923,22098.432Zm-39.451,1.7-.235-.408,1.964-1.375.325.539a4.361,4.361,0,0,0,3.361,2.033c1.979,0,2.887-1.041,2.887-2,0-.889-.942-1.246-2.929-1.818-2.039-.574-4.823-1.377-4.823-4.3,0-1.988,1.786-4.109,5.1-4.109a6.669,6.669,0,0,1,4.883,2.422l-1.889,1.477a4.4,4.4,0,0,0-2.994-1.441c-1.58,0-2.43.854-2.43,1.652,0,.885.94,1.244,2.929,1.813,2.037.582,4.825,1.379,4.825,4.307,0,2.223-1.907,4.465-5.557,4.465A6.71,6.71,0,0,1,8940.472,22100.129Zm81.27,2.893v-1.779l9.808-14.525H9022.2v-2.467h12.926v1.771l-9.806,14.539h10.522l-.583,2.461Zm-28.307,0v-10.115c0-.307-.01-.582-.026-.838v-3.025h2.7s-.017.611,0,.711a5.27,5.27,0,0,1,4.981-.752l.882.369-.932,2.455-.948-.4a2.712,2.712,0,0,0-.872-.158,4.335,4.335,0,0,0-3.111,1.947v9.8Zm-22.219,0v-13.979h2.669v13.979Zm-36.343,0v-8.664a3.012,3.012,0,0,0-3-3.215,5.053,5.053,0,0,0-3.568,2.1v9.781h-2.671v-13.984l2.671.006v.852a6.163,6.163,0,0,1,3.568-1.209,5.422,5.422,0,0,1,5.666,5.672v8.664Zm-16.87,0v-18.781h2.671v18.781Zm52.871-17.309a1.677,1.677,0,1,1,1.672,1.715A1.739,1.739,0,0,1,8970.874,22085.713Z" transform="translate(-8869.813 -22075.826)" fill="#231815"/>
    <path id="mark" d="M8928.482,22118.352l20.5-3.9a17.979,17.979,0,0,1-20.5,3.9ZM8918,22102a17.446,17.446,0,0,1,.126-2.107l12.705,4.654-5.582,11.889A17.965,17.965,0,0,1,8918,22102Zm15.761,3.609,15.419,5.645-19.846,3.779Zm1.323-2.818,8.115-17.283a17.987,17.987,0,0,1,9.3,23.656Zm-13.955-5.1,17.593-9.943-6.565,13.977ZM8936,22084a18.391,18.391,0,0,1,2.687.209l-19.322,10.92A18.017,18.017,0,0,1,8936,22084Z" transform="translate(-8918 -22083.998)" fill="url(#linear-gradient)"/>
  </g>
</svg>
