<svg xmlns="http://www.w3.org/2000/svg" width="142.428" height="38" viewBox="0 0 142.428 38">
  <path id="logo_ON-girl" d="M-41.128,7.005A15.533,15.533,0,0,0-30.217,2.914,15.486,15.486,0,0,0-25.852-8.114a11.517,11.517,0,0,0-3.429-8.5,11.858,11.858,0,0,0-8.729-3.273,14.731,14.731,0,0,0-10.677,4.092A14.421,14.421,0,0,0-53.13-5a12.047,12.047,0,0,0,3.351,8.612A11.659,11.659,0,0,0-41.128,7.005Zm2.806-24.16a9.209,9.209,0,0,1,6.741,2.65,9.724,9.724,0,0,1,2.728,6.936A12.523,12.523,0,0,1-32.4,1.16a12.01,12.01,0,0,1-8.417,3.117,8.876,8.876,0,0,1-6.625-2.65,10.073,10.073,0,0,1-2.689-7.17,11.494,11.494,0,0,1,3.585-8.534A12.054,12.054,0,0,1-38.322-17.155ZM-15.37,6.538l2.455-20.146L4.738,7.707,8.089-19.454H5.205L2.711.77-14.941-20.545-18.254,6.538ZM14.947-4.217H23.52L23.871-7.1H15.3ZM45.264-6.735a5.441,5.441,0,0,0-2.026-1.909,7.562,7.562,0,0,0-3.585-.779,7.988,7.988,0,0,0-6,2.377A10.346,10.346,0,0,0,31.041.045a7.585,7.585,0,0,0,2.026,5.494A6.955,6.955,0,0,0,38.406,7.6a7.33,7.33,0,0,0,3.117-.7,5.784,5.784,0,0,0,2.3-2.026l-.234,2.338c-.156,1.481-.351,3.546-1.793,4.949A5.591,5.591,0,0,1,37.7,13.606a4.8,4.8,0,0,1-3.351-1.13,4.611,4.611,0,0,1-1.286-3.624V8.7H30.3V8.93a7.488,7.488,0,0,0,1.831,5.261A7.366,7.366,0,0,0,37.588,16.1,8.4,8.4,0,0,0,43.9,13.762c1.909-1.948,2.221-4.481,2.533-7.014L48.343-9.035H45.537Zm-5.3-.195a4.433,4.433,0,0,1,3.39,1.364,5.986,5.986,0,0,1,1.4,3.9,7.7,7.7,0,0,1-2.065,5.378,5.817,5.817,0,0,1-3.975,1.4,4.517,4.517,0,0,1-3.312-1.286A5.59,5.59,0,0,1,33.964-.15a7.154,7.154,0,0,1,2.1-5.3A5.475,5.475,0,0,1,39.965-6.93Zm17.575-2.7L55.552,6.538h2.806L60.345-9.634Zm.156-5.884a1.677,1.677,0,0,0,.468,1.208,1.766,1.766,0,0,0,1.325.546,2.086,2.086,0,0,0,1.559-.662,2.132,2.132,0,0,0,.623-1.559,1.732,1.732,0,0,0-.507-1.286,1.645,1.645,0,0,0-1.247-.468,2.13,2.13,0,0,0-1.676.74A2.288,2.288,0,0,0,57.7-15.518Zm8.86,31.648H69.36L71.412-1.4c.195-1.6.468-3.429,1.6-4.52a2.907,2.907,0,0,1,2.143-.857,2.629,2.629,0,0,1,1.676.546l1.637-2.533a4.168,4.168,0,0,0-2.377-.662,4.534,4.534,0,0,0-2.338.585,4.525,4.525,0,0,0-1.637,1.559l.234-1.754H69.541Zm19.938-38L82.985,6.538h2.806L89.3-21.87Z" transform="translate(53.13 21.87)" fill="#fff"/>
</svg>
