<svg xmlns="http://www.w3.org/2000/svg" width="315.949" height="25" viewBox="0 0 315.949 25">
  <path id="logo_EYS-STYLE" d="M-10838.361-195.591l1.988-2.123a17.029,17.029,0,0,0,11.959,4.346c5.7,0,9.033-1.786,9.033-4.717,0-2.863-3.473-3.572-9.842-4.11-6.3-.539-12.33-1.919-12.33-6.568,0-4.448,5.592-6.977,11.895-6.977a18.131,18.131,0,0,1,12.061,4.213l-2.227,1.885c-2.289-2.256-5.758-3.436-9.7-3.47-4.207-.034-9.131,1.145-9.131,4.247,0,2.931,4.449,3.538,10.008,3.974,7.178.573,12.164,1.956,12.164,6.605,0,4.346-4.414,7.546-12.094,7.546A20.736,20.736,0,0,1-10838.361-195.591Zm-66.262,0,1.984-2.123a17.034,17.034,0,0,0,11.961,4.346c5.693,0,9.031-1.786,9.031-4.717,0-2.863-3.473-3.572-9.84-4.11-6.3-.539-12.332-1.919-12.332-6.568,0-4.448,5.594-6.977,11.893-6.977a18.127,18.127,0,0,1,12.064,4.213l-2.225,1.885c-2.291-2.256-5.762-3.436-9.705-3.47-4.213-.034-9.131,1.145-9.131,4.247,0,2.931,4.449,3.538,10.008,3.974,7.178.573,12.166,1.956,12.166,6.605,0,4.346-4.414,7.546-12.1,7.546A20.717,20.717,0,0,1-10904.623-195.591Zm216.758,4.559v-23.585h22.475v2.628h-19.645v7.648h16.648v2.628h-16.648v8.054h19.984v2.628Zm-33.693,0v-23.585h2.832v20.958h18.061v2.628Zm-27.447,0v-8.255l-11.861-15.331h3.4l9.91,12.771,9.836-12.771h3.371l-11.826,15.331v8.255Zm-38.928,0v-21.026h-11.117v-2.56h25.1v2.56h-11.156v21.026Zm-145.266,0v-8.255l-11.861-15.331h3.4l9.906,12.771,9.838-12.771h3.373l-11.828,15.331v8.255Zm-47.8,0v-23.585h22.475v2.628h-19.645v7.648h16.645v2.628h-16.645v8.054h19.982v2.628Zm115.682-11.05v-2.427h14.387v2.427Z" transform="translate(10981 215.74)" fill="#fff"/>
</svg>
