<svg xmlns="http://www.w3.org/2000/svg" width="60" height="23.562" viewBox="0 0 60 23.562">
  <g id="sukukon-logo" transform="translate(18.276)">
    <path id="Path_232048" data-name="Path 232048" d="M1.175,7.168v.271H15.293l-4.708,7.038-1.8,2.681L2.345,26.83H0v.262H4.973V26.83h-2.2L9,17.493l5.7,9.338H12.367v.262h8.121V26.83H18.127L10.763,14.842l4.926-7.4h2.5V7.168Z" transform="translate(-18.276 -4.738)" fill="#2d4a7a"/>
    <path id="Path_232049" data-name="Path 232049" d="M67.554,7.168H52.7v.271h2.737l-3.813,7.156H49.277v.262H54.25v-.262h-2.2L55.8,7.471l-.049-.032h9.51l-3.235,7.769L60.637,18.5,58.42,23.862a10.608,10.608,0,0,1-.76,1.585,2.6,2.6,0,0,1-2.328,1.321q-1.077,0-1.077-.637a.761.761,0,0,1,.285-.482,1.512,1.512,0,0,0,.522-1.15,1.436,1.436,0,0,0-.222-.823,1.015,1.015,0,0,0-.871-.481,1.123,1.123,0,0,0-.712.264,1.421,1.421,0,0,0-.539,1.165,2.272,2.272,0,0,0,.618,1.538,2.5,2.5,0,0,0,1.979.87,2.809,2.809,0,0,0,2.439-1.243,8.985,8.985,0,0,0,.839-1.6l7-16.75h1.963Z" transform="translate(-50.847 -4.738)" fill="#58abd2"/>
    <path id="Path_232050" data-name="Path 232050" d="M105.626,27.191l-4.421-7.2,1.406-2.11,4.174-6.181h.92v-.271h-6.933l2.434-3.658h2.479V7.511h-5.077v.247h2.212l-2.457,3.673H95.786V11.7h4.4l-2.1,3.136-1.8,2.68.208.335,2.727,4.468-3.264,4.9H93.614v.262h4.973v-.262h-2.2l3.039-4.563,2.767,4.533H99.866v.262h8.121v-.262ZM98.263,15.2l2.329-3.5h5.83L102.4,17.548,101,19.656Z" transform="translate(-80.153 -4.965)" fill="#ed3737"/>
    <path id="Path_232051" data-name="Path 232051" d="M149.312,8.553a.929.929,0,0,0-.6-.225.846.846,0,0,0-.729.411,1.242,1.242,0,0,0-.185.7,1.3,1.3,0,0,0,.437.98.652.652,0,0,1,.238.411q0,.543-.9.543a2.165,2.165,0,0,1-1.947-1.126,9.112,9.112,0,0,1-.636-1.351l-1.087-2.678h2.8V5.973h-2.9l-1.292-2.765a6.635,6.635,0,0,0,1.152-.81l.841-.723A7.373,7.373,0,0,1,147.8,0a20.668,20.668,0,0,1-3.1.392,7.326,7.326,0,0,0-2.563.34,4.975,4.975,0,0,0-1.163.741l-.43.345a11.75,11.75,0,0,1-1.31.919,3.665,3.665,0,0,1-.818.349l-1.423-.121a2.447,2.447,0,0,1-.533-.139l-.082.072.039.019h0v4.86q0,.874.053,1.47a2.628,2.628,0,0,0,.781,1.827,2.5,2.5,0,0,0,1.722.622,2.385,2.385,0,0,0,2.4-1.668,7.407,7.407,0,0,0,.318-1.881h-.265q-.026.476-.066.768a3.193,3.193,0,0,1-.861,2.013,1.651,1.651,0,0,1-1.1.45.79.79,0,0,1-.755-.5,4.161,4.161,0,0,1-.172-1.523V6.219h5.183l1.2,2.956a7.665,7.665,0,0,0,.7,1.364A2.335,2.335,0,0,0,147.59,11.6a2.077,2.077,0,0,0,1.655-.741,1.957,1.957,0,0,0,.516-1.311,1.221,1.221,0,0,0-.45-.993m-10.848-2.58v-2.4a9.445,9.445,0,0,0,2.248.1,4.326,4.326,0,0,0,1.525-.321c.024-.011.048-.026.073-.038l1.237,2.659Z" transform="translate(-108.417)" fill="#f49095"/>
    <path id="Path_232052" data-name="Path 232052" d="M164.662,41a1.543,1.543,0,0,0-.392-1.355,1.783,1.783,0,0,0-1.937-.281,6.128,6.128,0,0,0-3.039,3.017l-.2.429.413.23a7.1,7.1,0,0,0,3.059.829,3.783,3.783,0,0,0,1.171-.175c1.088-.353,1.346-1.007,1.4-1.366a1.544,1.544,0,0,0-.48-1.328" transform="translate(-123.434 -25.926)" fill="#f49095"/>
    <path id="Path_232053" data-name="Path 232053" d="M158.567,52.686l-.469-.057-.091.463a6.135,6.135,0,0,0,.685,4.227,1.89,1.89,0,0,0,1.522.928,1.362,1.362,0,0,0,.21-.016,1.545,1.545,0,0,0,1.115-.866,1.542,1.542,0,0,0,1.168-.791,1.786,1.786,0,0,0-.331-1.931,6.135,6.135,0,0,0-3.809-1.957" transform="translate(-122.642 -34.787)" fill="#f49095"/>
    <path id="Path_232054" data-name="Path 232054" d="M146.346,52.928l-.469.057a6.129,6.129,0,0,0-3.808,1.957,1.786,1.786,0,0,0-.332,1.929,1.545,1.545,0,0,0,1.169.792,1.543,1.543,0,0,0,1.115.867,1.36,1.36,0,0,0,.21.016,1.891,1.891,0,0,0,1.523-.929,6.13,6.13,0,0,0,.684-4.226Z" transform="translate(-111.862 -34.984)" fill="#f49095"/>
    <path id="Path_232055" data-name="Path 232055" d="M142.223,43.527l.413-.23-.2-.429a6.134,6.134,0,0,0-3.038-3.017,1.785,1.785,0,0,0-1.938.28,1.544,1.544,0,0,0-.393,1.356,1.544,1.544,0,0,0-.48,1.327c.057.359.316,1.013,1.4,1.367a3.787,3.787,0,0,0,1.172.175,7.1,7.1,0,0,0,3.059-.829" transform="translate(-108.547 -26.246)" fill="#f49095"/>
    <path id="Path_232056" data-name="Path 232056" d="M154.439,32.43a1.786,1.786,0,0,0-.865-1.756,21.774,21.774,0,0,1-2.822,0,1.785,1.785,0,0,0-.866,1.756,6.129,6.129,0,0,0,1.93,3.822l.346.322.346-.322a6.131,6.131,0,0,0,1.931-3.822" transform="translate(-117.347 -20.176)" fill="#f49095"/>
  </g>
</svg>
