<svg xmlns="http://www.w3.org/2000/svg" width="215.825" height="34" viewBox="0 0 215.825 34">
  <g id="logo_ON-girl_music" transform="translate(-103.674 -74.078)">
    <path id="icon" d="M6.027,34C2.7,34,0,31.711,0,28.9c0-2.843,2.727-5.155,6.078-5.155a6.743,6.743,0,0,1,4.192,1.445l.707.56V8.685A5.726,5.726,0,0,1,15.22,3.156L26.5.181A5.719,5.719,0,0,1,33.651,5.71V21.047c0,2.843-2.727,5.155-6.078,5.155s-6.079-2.312-6.079-5.155,2.727-5.155,6.079-5.155a6.75,6.75,0,0,1,4.193,1.445l.706.559V5.71A4.593,4.593,0,0,0,32.328,4.6,4.537,4.537,0,0,0,26.8,1.337L15.509,4.313a4.542,4.542,0,0,0-3.4,4.37V28.845C12.106,31.688,9.379,34,6.027,34m0-9.131c-2.7,0-4.9,1.784-4.9,3.976s2.2,3.976,4.9,3.976,4.9-1.784,4.9-3.976-2.2-3.976-4.9-3.976m21.545-7.8c-2.7,0-4.9,1.784-4.9,3.976s2.2,3.976,4.9,3.976,4.9-1.784,4.9-3.976-2.2-3.976-4.9-3.976" transform="translate(103.674 74.078)" fill="#f9a"/>
    <path id="txt" d="M6.36-10.321A32.456,32.456,0,0,1,16.794-6.284l.871-1.339a29.864,29.864,0,0,0-5.822-2.72,26,26,0,0,0-4.994-1.339ZM8.953-22.944a25.379,25.379,0,0,1,7.884,3.124l.85-1.318a28.552,28.552,0,0,0-8.245-3.145Zm-.978,6.1a24.968,24.968,0,0,1,7.459,2.932l.786-1.36a27.905,27.905,0,0,0-7.735-2.911Zm22.6,6.524H24.267l-2.3-.021c-.191,0-.34-.021-.489-.021v1.445c1.126-.043,1.849-.064,2.784-.064H33.34c.935,0,1.658.021,2.784.064v-1.445c-.637.021-2,.042-2.784.042H31.98l.319-4.8c.085-1.254.149-1.934.255-2.8-.552.021-2.04.043-3,.043h-4.1c-.595,0-1.169-.021-1.764-.043v1.36c.829-.021,1.424-.042,1.764-.042H31Zm24.069-5.865c-.914.043-2.4.064-3.379.064H41.026c-1.084,0-2.486-.021-3.379-.064v1.53c.892-.043,2.3-.085,3.379-.085H51.268c.977,0,2.465.042,3.379.085Zm14.28-6.545a12.244,12.244,0,0,1,2.55,2.189l.871-.935a13.7,13.7,0,0,0-2.7-2.125ZM58.6-6.709a.54.54,0,0,0,.383.255c.127,0,.234-.128.319-.425,1.827-.85,2.486-1.148,3.421-1.615A23.8,23.8,0,0,0,68.63-12.7,23.967,23.967,0,0,0,72.9-18.333a6.178,6.178,0,0,1-1.062-1.254c-2.274,3.974-3.761,5.695-6.715,7.756a28.472,28.472,0,0,1-7.416,3.7Zm.489-15.831a16.855,16.855,0,0,1,3.336,2.826l1.126-1.211a17.67,17.67,0,0,0-3.57-2.763Zm11.454-1.849a12.244,12.244,0,0,1,2.55,2.189l.871-.935a13.7,13.7,0,0,0-2.7-2.125ZM56.283-17.461a16.97,16.97,0,0,1,3.336,2.826l1.147-1.211a17.383,17.383,0,0,0-3.57-2.741Zm18.317.276a12.324,12.324,0,0,1,1.976,3.464L78-14.38a12.127,12.127,0,0,0-2.21-3.506Zm4.781-1.594a13.372,13.372,0,0,1,1.573,3.7l1.445-.553a12.256,12.256,0,0,0-1.764-3.761Zm7.523-.234c-.276,1.169-.383,1.636-.616,2.4a13.076,13.076,0,0,1-5.5,7.48,17.509,17.509,0,0,1-3.549,1.764,3.37,3.37,0,0,1,.85,1.317A16.857,16.857,0,0,0,83.823-9.6c1.976-1.849,3.06-3.889,4.356-8.16.34-.127.446-.212.446-.382,0-.127-.106-.234-.276-.3Zm10.065-2c.276-.531.6-1.339,1.084-2.571.4-.149.446-.191.446-.361,0-.127-.042-.17-.276-.255l-1.36-.531a3.178,3.178,0,0,1-.191.7,24.754,24.754,0,0,1-1.4,3.1,18.331,18.331,0,0,1-4.42,5.419,2.768,2.768,0,0,1,1.105,1.02,21.7,21.7,0,0,0,4.314-5.185h6.906l-.127.637a14.928,14.928,0,0,1-4.5,8.054,17.764,17.764,0,0,1-5.568,3.421,2.864,2.864,0,0,1,.893,1.317,24.14,24.14,0,0,0,4.186-2.423,16.044,16.044,0,0,0,6.311-9.69c.212-.935.255-1.041.319-1.36.34-.149.425-.212.425-.361,0-.106-.064-.191-.212-.3l-1.233-.956-.255.319Zm12.332.765c1.551-.085,1.827-.085,6.163-.276l3.761-.17-.574,1.233a21.014,21.014,0,0,1-2.316,3.846,21.308,21.308,0,0,1-8.9,6.864,2.842,2.842,0,0,1,1.147,1.3,24.55,24.55,0,0,0,7.926-5.993,24.732,24.732,0,0,1,6.609,5.993l1.3-1.148a26.3,26.3,0,0,0-7.055-5.865,23.376,23.376,0,0,0,3.421-6.332c.276-.085.382-.17.382-.276a.322.322,0,0,0-.149-.234l-1.3-1.041-.3.34-4.059.149c-.212,0-4.016.064-4.377.064-.234,0-.871,0-1.827-.021Zm22.447-.765c.276-.531.595-1.339,1.084-2.571.4-.149.446-.191.446-.361,0-.127-.042-.17-.276-.255l-1.36-.531a3.177,3.177,0,0,1-.191.7,24.749,24.749,0,0,1-1.4,3.1,18.331,18.331,0,0,1-4.42,5.419,2.768,2.768,0,0,1,1.1,1.02,21.7,21.7,0,0,0,4.314-5.185h6.906l-.127.637a14.928,14.928,0,0,1-4.505,8.054,17.765,17.765,0,0,1-5.568,3.421,2.864,2.864,0,0,1,.892,1.317,24.141,24.141,0,0,0,4.186-2.423,16.043,16.043,0,0,0,6.311-9.69c.213-.935.255-1.041.319-1.36.34-.149.425-.212.425-.361,0-.106-.064-.191-.212-.3l-1.233-.956-.255.319Zm27.66,4.824c-.914.043-2.4.064-3.379.064H145.788c-1.084,0-2.486-.021-3.379-.064v1.53c.893-.043,2.295-.085,3.379-.085h10.242c.978,0,2.465.042,3.379.085ZM171.225-8.43a.617.617,0,0,0,.34.127c.128,0,.234-.127.319-.425a25.3,25.3,0,0,0,7.267-5.291,9.207,9.207,0,0,1-.616-1.615,20.982,20.982,0,0,1-6.779,5.313V-19.1c0-1.233,0-1.934.021-2.4.276-.191.383-.3.383-.4,0-.149-.106-.212-.361-.234l-1.551-.149c.043.6.064,1.53.064,3.188v5.844c0,3.06-.021,3.209-.255,3.952Zm-5.95-13.834c.043.7.043,1,.043,1.764,0,5.164-.489,7.289-2.168,9.307a9.755,9.755,0,0,1-3.081,2.316,2.583,2.583,0,0,1,1.02,1.169c2.507-1.594,3.506-2.571,4.356-4.271,1.041-2.083,1.3-3.931,1.317-9.477.234-.128.4-.3.4-.425,0-.085-.128-.17-.276-.191Z" transform="translate(140.348 113.32)" fill="#f9a"/>
    <path id="ON-girl" d="M-49.55-13.258a4.633,4.633,0,0,0,3.254-1.22,4.619,4.619,0,0,0,1.3-3.289A3.435,3.435,0,0,0-46.017-20.3a3.536,3.536,0,0,0-2.6-.976,4.394,4.394,0,0,0-3.184,1.22,4.3,4.3,0,0,0-1.325,3.219,3.593,3.593,0,0,0,1,2.568A3.477,3.477,0,0,0-49.55-13.258Zm.837-7.206a2.747,2.747,0,0,1,2.011.79,2.9,2.9,0,0,1,.814,2.069A3.735,3.735,0,0,1-46.947-15a3.582,3.582,0,0,1-2.51.93,2.647,2.647,0,0,1-1.976-.79,3,3,0,0,1-.8-2.138,3.428,3.428,0,0,1,1.069-2.545A3.6,3.6,0,0,1-48.714-20.464Zm6.845,7.066.732-6.009,5.265,6.357,1-8.1h-.86l-.744,6.032-5.265-6.357-.988,8.077Zm9.042-3.208h2.557l.1-.86h-2.557Zm9.042-.751a1.623,1.623,0,0,0-.6-.569,2.255,2.255,0,0,0-1.069-.232,2.382,2.382,0,0,0-1.79.709,3.086,3.086,0,0,0-.779,2.115,2.262,2.262,0,0,0,.6,1.639,2.074,2.074,0,0,0,1.592.616,2.186,2.186,0,0,0,.93-.209,1.725,1.725,0,0,0,.686-.6l-.07.7a2.293,2.293,0,0,1-.535,1.476,1.668,1.668,0,0,1-1.22.43,1.43,1.43,0,0,1-1-.337,1.375,1.375,0,0,1-.384-1.081v-.046h-.825v.07a2.233,2.233,0,0,0,.546,1.569,2.2,2.2,0,0,0,1.627.569,2.507,2.507,0,0,0,1.883-.7,3.345,3.345,0,0,0,.755-2.092l.569-4.707H-23.7Zm-1.581-.058a1.322,1.322,0,0,1,1.011.407,1.785,1.785,0,0,1,.418,1.162,2.3,2.3,0,0,1-.616,1.6,1.735,1.735,0,0,1-1.185.418,1.347,1.347,0,0,1-.988-.384,1.667,1.667,0,0,1-.43-1.185,2.134,2.134,0,0,1,.628-1.581A1.633,1.633,0,0,1-25.365-17.414Zm5.242-.806-.593,4.823h.837l.593-4.823Zm.046-1.755a.5.5,0,0,0,.139.36.527.527,0,0,0,.4.163.622.622,0,0,0,.465-.2.636.636,0,0,0,.186-.465.517.517,0,0,0-.151-.384.491.491,0,0,0-.372-.139.635.635,0,0,0-.5.221A.682.682,0,0,0-20.077-19.976Zm2.642,9.439h.837l.612-5.227a2.232,2.232,0,0,1,.477-1.348.867.867,0,0,1,.639-.256.784.784,0,0,1,.5.163l.488-.755a1.243,1.243,0,0,0-.709-.2,1.352,1.352,0,0,0-.7.174,1.349,1.349,0,0,0-.488.465l.07-.523h-.837Zm5.946-11.333L-12.534-13.4h.837l1.046-8.472Z" transform="translate(199.838 95.948)" fill="#666"/>
  </g>
</svg>
