<svg xmlns="http://www.w3.org/2000/svg" width="140" height="139.998" viewBox="0 0 140 139.998">
  <path id="logo" d="M130.686,139.873l.044-2.526a6.006,6.006,0,0,0,.926.081c1.076,0,1.589-.416,1.943-2.449l-3.61-16.751H133c.948,5.524,1.84,10.72,1.977,12.716h.075c.3-2.707,1.125-6.736,2.123-12.716H140l-3.608,16.939c-.987,4.578-2.532,4.832-4.34,4.832A8.582,8.582,0,0,1,130.686,139.873ZM37.83,129.018V118.407c0-3.285,1.456-5.305,4.558-5.305,3.754,0,4.455,2.559,4.455,5.4v.889H44.013V118.21c0-1.507-.3-2.548-1.645-2.548-1.3,0-1.676.967-1.676,2.577v11c0,1.677.352,2.873,1.726,2.873s1.668-1.13,1.668-2.865V128.2h2.851v.773c0,2.508-.433,5.683-4.6,5.683C38.567,134.653,37.83,132.164,37.83,129.018Zm56.493,1.426V118.227h2.811v11.484c0,1.662.467,2.367,1.527,2.367,1.081,0,1.753-.667,1.753-3.173V118.227h2.81v11.565c0,2.254,0,3.753.032,4.564h-2.683a12.8,12.8,0,0,1-.108-1.589,2.777,2.777,0,0,1-2.961,1.842C96.076,134.609,94.323,133.974,94.323,130.443ZM48.778,129.5v-6.575c0-3.331,1.84-4.947,4.567-4.947,2.832,0,4.45,1.781,4.45,5.047v6.429c0,3.473-1.691,5.156-4.545,5.156C50.327,134.609,48.778,132.91,48.778,129.5Zm2.819-6.612V129.6c0,1.492.476,2.515,1.707,2.515,1.148,0,1.672-.821,1.672-2.557v-6.687c0-1.386-.413-2.392-1.684-2.392C52.111,120.474,51.6,121.323,51.6,122.887Zm-29.356,6.364v-6.439c0-2.823,1.094-4.836,3.67-4.836a2.728,2.728,0,0,1,2.535,1.168v-6.667h2.811v17.54c0,2.23,0,3.451.032,4.339H28.607c-.054-.364-.106-1.241-.106-1.556a2.815,2.815,0,0,1-2.831,1.808C22.849,134.609,22.241,132.364,22.241,129.251Zm2.818-6.266v6.448c0,1.724.419,2.637,1.607,2.637,1.468,0,1.781-1.356,1.781-3.359v-5.1c0-1.757-.167-3.094-1.73-3.094C25.51,120.513,25.059,121.468,25.059,122.985Zm98.86,8.3V120.7h-1.77v-2.475h1.77v-3.908h2.8v3.908h2.127V120.7h-2.127V130.78c0,.789.124,1.476,1.113,1.476a4.086,4.086,0,0,0,.933-.094V134.3a4.952,4.952,0,0,1-1.87.291C125.066,134.59,123.919,133.941,123.919,131.283Zm-6.09,3.073V118.227h2.811v16.129Zm-5.625,0V122.641c0-1.5-.51-2.127-1.516-2.127-1.227,0-1.843.635-1.843,3.183v10.66h-2.812V123.177c0-3.262,0-4.189-.03-4.95h2.683a11.843,11.843,0,0,1,.106,1.527,2.974,2.974,0,0,1,2.965-1.778c1.878,0,3.258,1.114,3.258,4.128v12.252Zm-23.5,0v-11.9c0-1.181-.278-1.941-1.327-1.941-1.289,0-1.586,1.072-1.586,2.726v11.117H82.961v-11.8c0-1.581-.44-2.043-1.345-2.043-1.284,0-1.569,1.092-1.569,2.753v11.09H77.237V122.892c0-3.092,0-3.915-.03-4.664h2.681a10.769,10.769,0,0,1,.106,1.459,2.915,2.915,0,0,1,2.8-1.71,2.4,2.4,0,0,1,2.553,1.792,3.25,3.25,0,0,1,3.048-1.792c1.678,0,3.121.81,3.121,3.945v12.435Zm-17.1,0v-11.9c0-1.181-.278-1.941-1.327-1.941-1.289,0-1.586,1.072-1.586,2.726v11.117H65.867v-11.8c0-1.581-.44-2.043-1.346-2.043-1.284,0-1.568,1.092-1.568,2.753v11.09H60.141V122.892c0-3.092,0-3.915-.032-4.664h2.683a10.758,10.758,0,0,1,.106,1.459,2.917,2.917,0,0,1,2.8-1.71,2.4,2.4,0,0,1,2.553,1.792,3.25,3.25,0,0,1,3.048-1.792c1.678,0,3.121.81,3.121,3.945v12.435Zm-54.548,0V122.641c0-1.5-.513-2.127-1.516-2.127-1.229,0-1.845.635-1.845,3.183v10.66h-2.81V123.177c0-3.262,0-4.189-.032-4.95h2.683a11.839,11.839,0,0,1,.106,1.527,2.973,2.973,0,0,1,2.964-1.778c1.881,0,3.259,1.114,3.259,4.128v12.252ZM0,134.357v-.351c.021-3.6,1.522-6.09,3.742-9.29,1.676-2.392,2.21-3.223,2.21-5.491,0-2.218-.292-3.151-1.586-3.151-1.186,0-1.637.906-1.637,2.589v1.013H.125v-1.1c0-2.3.727-4.867,4.369-4.867,3.38,0,4.288,2.229,4.288,5.35,0,3.227-.978,4.545-2.646,6.844-1.627,2.27-2.845,4.339-3,6.023H9.2l-.387,2.431Zm117.85-18.515v-3.364h2.812v3.364Zm-68.024-16.7L15.891,79.545a.352.352,0,0,1-.176-.3V40.056a.355.355,0,0,1,.176-.306L49.12,20.564a.35.35,0,0,1,.352,0,.355.355,0,0,1,.176.3V59.647a.357.357,0,0,0,.175.3L83.409,79.343a.352.352,0,0,1,0,.61L50.179,99.139a.353.353,0,0,1-.354,0ZM85.344,79.288a.35.35,0,0,1-.352-.352V39.648a.352.352,0,0,0-.178-.3L50.8,19.7a.35.35,0,0,1-.125-.489,39.642,39.642,0,0,1,73.614,20.436A39.831,39.831,0,0,1,85.35,79.288Z" transform="translate(0 0)" fill="#fff"/>
</svg>
