<svg id="logo" xmlns="http://www.w3.org/2000/svg" width="64.92" height="24.604" viewBox="0 0 64.92 24.604">
  <path id="bg" d="M0,0H13.622V24.6H0Z" transform="translate(37.019)"/>
  <g id="ぶ" transform="translate(37.76 0.627)">
    <path id="Path_5804" data-name="Path 5804" d="M122.414,3.4a1.64,1.64,0,0,1,.37.323c.153.2.2.238.275.238.1,0,.159-.122.159-.2,0-.143-.233-.481-.788-.481-.042,0-.09.021-.09.042S122.393,3.385,122.414,3.4Z" transform="translate(-119.164 -2.81)" fill="#fff"/>
    <path id="Path_5805" data-name="Path 5805" d="M115.882,4.43a3.164,3.164,0,0,0-.508-.021.3.3,0,0,1-.211-.069c-.428-.4-.47-.46-.47-.629,0-.27.354-.475.6-.5.232-.016.344-.027.344-.2,0-.269-.291-.412-.544-.534a2.909,2.909,0,0,0-.36-.18.023.023,0,0,0-.021.021c0,.01.148.264.158.28.116.158.127.174.127.248,0,.132-.074.238-.253.5a.762.762,0,0,0-.159.418.858.858,0,0,0,.127.37,2.17,2.17,0,0,1,.185.333c0,.037-.048.053-.09.069a3.862,3.862,0,0,0-.692.364c-.5.386-.655.5-.957.5-.031,0-.18-.026-.211-.026-.079,0-.1.159-.1.232a.342.342,0,0,0,.343.344c.169,0,.211-.053.444-.338.042-.053.084-.111.153-.111a2.759,2.759,0,0,1,.65.19.851.851,0,0,0,.549.217.566.566,0,0,0,.592-.6,1.5,1.5,0,0,0-.1-.513,1.336,1.336,0,0,1-.09-.2c0-.042.058-.048.079-.048a1.411,1.411,0,0,1,.513.116,1.151,1.151,0,0,1,.634.639c.175.38.191.423.338.423.164,0,.206-.243.206-.285A1.363,1.363,0,0,0,115.882,4.43Zm-1.21,1.094a4.732,4.732,0,0,1-.835-.121c-.01-.011-.01-.016-.01-.021a2.741,2.741,0,0,1,1.125-.745c.1,0,.2.306.2.417C115.148,5.317,115.148,5.523,114.672,5.523Z" transform="translate(-112.849 -2.157)" fill="#fff"/>
    <path id="Path_5806" data-name="Path 5806" d="M123.625,1.874c-.1,0-.2.026-.2.063,0,.016.016.037.069.058a1.286,1.286,0,0,1,.465.3c.1.122.159.2.27.2a.15.15,0,0,0,.138-.153C124.371,2.117,124.1,1.874,123.625,1.874Z" transform="translate(-119.89 -1.874)" fill="#fff"/>
  </g>
  <g id="楽" transform="translate(37.164 6.786)">
    <path id="Path_5807" data-name="Path 5807" d="M139.272,34.427a7.36,7.36,0,0,1,1.426,1.441c.382.632.529.9.956.9a.7.7,0,0,0,.676-.691c0-.882-1.528-1.544-3.058-1.735Z" transform="translate(-129.835 -29.635)" fill="#fff"/>
    <path id="Path_5808" data-name="Path 5808" d="M141.918,25.221c.338-.029.514-.059.514-.25,0-.1-.044-.147-.162-.235l-1.4-1.029a7.273,7.273,0,0,1-1.514,2.808l.044.088C141.08,25.706,141.521,25.456,141.918,25.221Z" transform="translate(-129.894 -22.561)" fill="#fff"/>
    <path id="Path_5809" data-name="Path 5809" d="M115.148,26.821c.427,0,.618-.47.618-.794,0-.662-.985-1.485-2.6-1.573l-.029.059a6.758,6.758,0,0,1,1.029,1.323C114.722,26.718,114.8,26.821,115.148,26.821Z" transform="translate(-112.444 -23.058)" fill="#fff"/>
    <path id="Path_5810" data-name="Path 5810" d="M119.62,43.41h5.071c.1,0,.221-.029.221-.162,0-.088-.044-.132-.147-.221l-.9-.838a.464.464,0,0,0-.265-.147c-.073,0-.088.015-.221.176l-.676.838h-3.513c0-.176,0-.25.015-.5a1.535,1.535,0,0,1,.22-.235.314.314,0,0,0,.1-.221c0-.147-.1-.206-.323-.25l-1.367-.265a5.719,5.719,0,0,1,.221,1.47h-3.542c-.162,0-1.191-.015-2.087-.088l.235.544a7.379,7.379,0,0,1,1.587-.1h3.072c-1.044,1.558-3.94,3.528-4.792,4.071l.044.088a15.113,15.113,0,0,0,5.512-3.234c0,.221,0,.47-.029,1.014-.015.382-.133,2.088-.133,2.411,0,.133,0,.471.558.471.779,0,.779-.5.779-1.544,0-.47-.073-2.763-.073-3.277h.191a7.855,7.855,0,0,0,4.219,4.057c.632-1.044,1.073-1.235,1.323-1.352v-.059A9.289,9.289,0,0,1,119.62,43.41Z" transform="translate(-111.976 -34.458)" fill="#fff"/>
    <path id="Path_5811" data-name="Path 5811" d="M112.1,36.9a.194.194,0,0,0,.162-.132c.029-.044.132-.279.162-.324a19.7,19.7,0,0,0,2.661-2.411l-.059-.088a8.713,8.713,0,0,1-3.954,1.352l.794,1.382C111.936,36.795,112,36.9,112.1,36.9Z" transform="translate(-111.069 -29.372)" fill="#fff"/>
    <path id="Path_5812" data-name="Path 5812" d="M123.092,27.469c0,.059-.015.162-.015.206a.448.448,0,0,0,.485.456c.044,0,.676,0,.779-.544.015-.074,0-.456,0-.544h2.631l-.015.191c-.015.279.088.588.426.588a.813.813,0,0,0,.823-.956c0-.352-.044-1.043-.073-1.425-.015-.309-.015-.485-.044-2.1.191-.205.367-.382.367-.514,0-.074-.029-.1-.147-.206l-.573-.485c-.117-.088-.176-.147-.279-.147a.279.279,0,0,0-.22.1l-.412.412H124.9a12.692,12.692,0,0,0,1.352-1.073c.191-.073.323-.147.323-.279,0-.088-.059-.147-.162-.191l-1.705-.676a4.846,4.846,0,0,1,.044.75,4.681,4.681,0,0,1-.176,1.47H124.4l-1.382-.779a10.609,10.609,0,0,1,.162,2.514C123.181,24.735,123.166,26.029,123.092,27.469Zm1.25-4.616h2.631v1.705h-2.631Zm0,2.058h2.631V26.69h-2.631Z" transform="translate(-119.02 -20.281)" fill="#fff"/>
  </g>
  <g id="音人倶楽部" transform="translate(0 0.485)">
    <path id="Path_5813" data-name="Path 5813" d="M16.122,32.193l-.5-.382a.687.687,0,0,0-.367-.191c-.1,0-.176.059-.294.206l-.4.47H10.051l-1.514-.911a9.311,9.311,0,0,1,.1,1.632c0,.911-.015,2.866-.059,3.689,0,.147-.059.823-.059.985,0,.191,0,.6.529.6a.761.761,0,0,0,.838-.9H14.7c-.015.617-.015.75.456.75A.751.751,0,0,0,16,37.4c0-.647-.162-3.792-.162-4.513.265-.132.485-.25.485-.412C16.327,32.37,16.21,32.267,16.122,32.193ZM14.7,37.044H9.889V34.986H14.7Zm0-2.411H9.889V32.649H14.7Z" transform="translate(-5.67 -21.368)"/>
    <path id="Path_5814" data-name="Path 5814" d="M62.427,13.5l-.941-.661c-.191-.133-.221-.147-.279-.147s-.073,0-.221.177l-.558.661H9.76v-.882c.25-.133.382-.221.382-.353s-.176-.221-.382-.279L8.1,11.529a3.93,3.93,0,0,1,.4,2H5.909a19.714,19.714,0,0,1-2.087-.088l.235.544a8.536,8.536,0,0,1,1.588-.1H62.368c.1,0,.22-.014.22-.147A.276.276,0,0,0,62.427,13.5Z" transform="translate(-2.543 -8.156)"/>
    <path id="Path_5815" data-name="Path 5815" d="M11.6,22.4a.734.734,0,0,0,.75-.779c0-.162-.088-1.235-1.764-2.014l-.133.1a2.469,2.469,0,0,1,.441,1.735C10.911,21.993,11.072,22.4,11.6,22.4Z" transform="translate(-6.957 -13.534)"/>
    <path id="Path_5816" data-name="Path 5816" d="M13.406,22.026a.291.291,0,0,0-.147-.235l-1-.706c-.162-.118-.221-.162-.265-.162s-.133.088-.235.191l-.662.705H7.923a12.716,12.716,0,0,0,1.514-1.881c.235-.088.441-.147.441-.309a.351.351,0,0,0-.221-.279L8.2,18.6a8.415,8.415,0,0,1-.75,3.219H2.1A19.993,19.993,0,0,1,0,21.732l.25.544a8.454,8.454,0,0,1,1.587-.1H13.185C13.288,22.173,13.406,22.159,13.406,22.026Z" transform="translate(0 -12.861)"/>
    <path id="Path_5817" data-name="Path 5817" d="M42.425,43.567a11.655,11.655,0,0,1-2.011-6.476c.221-.1.319-.233.319-.355s-.2-.172-.27-.2l-1.643-.454a2.746,2.746,0,0,1,.159,1.177,14.547,14.547,0,0,1-1.116,5.678,9.552,9.552,0,0,1-3.274,3.667l.074.085a6.692,6.692,0,0,0,4.17-3.323,13.785,13.785,0,0,0,1.214-6.193l.086-.012a15.836,15.836,0,0,0,.847,5.629,7.514,7.514,0,0,0,3.066,4.1,2.462,2.462,0,0,1,1.472-1.042v-.086A7.47,7.47,0,0,1,42.425,43.567Z" transform="translate(-23.015 -24.496)"/>
    <path id="Path_5818" data-name="Path 5818" d="M83.235,56.216l-1.091-.8a1.105,1.105,0,0,1-.331.883,11.4,11.4,0,0,1-2.22,2.134l.062.049a9.024,9.024,0,0,0,3.115-1.754c.4-.061.6-.086.6-.294A.261.261,0,0,0,83.235,56.216Z" transform="translate(-52.96 -37.36)"/>
    <path id="Path_5819" data-name="Path 5819" d="M74.24,34.738c0-.1-.135-.2-.2-.221l-.417-.172a17.112,17.112,0,0,0,.932-2.085c.368-.184.368-.233.368-.307,0-.11-.086-.172-.184-.221l-1.288-.613a1.09,1.09,0,0,1,.086.441c0,1.19-.993,3.777-2.2,5.862l.061.025a12.837,12.837,0,0,0,1.386-1.7V38.5c0,.466-.062,2.735-.062,3.25,0,.417,0,.662.4.662.638,0,.638-.539.638-.981,0-.9-.025-5.31-.025-6.316C73.9,35.069,74.24,34.946,74.24,34.738Z" transform="translate(-47.473 -21.192)"/>
    <path id="Path_5820" data-name="Path 5820" d="M87.367,51.339c-.024-.024-.147-.135-.22-.135s-.135.086-.184.172l-.441.748H81.48a16.565,16.565,0,0,1-1.741-.073l.2.454a7.111,7.111,0,0,1,1.324-.086h6.929c.074,0,.184-.012.184-.122,0-.086-.049-.123-.123-.2Z" transform="translate(-53.058 -34.555)"/>
    <path id="Path_5821" data-name="Path 5821" d="M94.082,56.189l-.012.061a6.789,6.789,0,0,1,1.7,2.183c.258.5.331.662.675.662a.554.554,0,0,0,.588-.564C97.038,57.808,95.774,56.729,94.082,56.189Z" transform="translate(-62.594 -37.872)"/>
    <path id="Path_5822" data-name="Path 5822" d="M89.451,33.31a.315.315,0,0,0-.135-.233L88.7,32.55c-.025-.012-.148-.122-.209-.122a.264.264,0,0,0-.2.11l-.4.454H84.619l-1.288-.625a7.733,7.733,0,0,1,.184,1.9c0,.932-.012,2.563-.049,3.434,0,.135-.049.785-.049.932s.037.454.356.454c.724,0,.724-.491.711-.675h3.532c-.012.368-.012.527.392.527a.634.634,0,0,0,.662-.638c0-.1-.061-1.447-.061-1.643C89,36.155,89,35.91,89,33.7,89.451,33.519,89.451,33.4,89.451,33.31Zm-1.435,4.807H84.484V36.658h3.532Zm0-1.754H84.484V34.941h3.532Zm0-1.717H84.484V33.286h3.532Z" transform="translate(-55.448 -22.021)"/>
    <path id="Path_5823" data-name="Path 5823" d="M160.867,30.363c-.151,0-1.106-.014-1.939-.082l.219.5a6.864,6.864,0,0,1,1.474-.1h4.56c.1,0,.205-.014.205-.137,0-.1-.055-.15-.137-.218l-.71-.6c-.123-.109-.164-.15-.232-.15s-.068,0-.219.177l-.532.6h-1.011c0-.314.014-.683.041-.942.424-.218.464-.246.464-.355,0-.15-.137-.191-.246-.218l-1.611-.423a4.518,4.518,0,0,1,.273,1.939Z" transform="translate(-105.75 -19.398)"/>
    <path id="Path_5824" data-name="Path 5824" d="M164.83,38.894l-.737-.614c-.151-.123-.205-.15-.246-.15s-.137.1-.218.178l-.6.614h-1.475c.587-.642,1.447-1.761,1.652-2.021.341-.123.423-.219.423-.355a.278.278,0,0,0-.2-.246l-1.311-.492a8.244,8.244,0,0,1-.833,3.113h-1.515c-.15,0-1.12,0-1.939-.082l.219.5a7.948,7.948,0,0,1,1.475-.1h5.243c.1,0,.2-.014.2-.137C164.967,39.017,164.939,38.99,164.83,38.894Z" transform="translate(-105.016 -24.312)"/>
    <path id="Path_5825" data-name="Path 5825" d="M183.819,35.6A5.562,5.562,0,0,0,181.7,33.9c.164-.259.983-1.543,1.174-1.83.737-1.092.819-1.215.874-1.324.464-.26.519-.287.519-.437a.327.327,0,0,0-.136-.246l-.778-.615a.9.9,0,0,0-.218-.15c-.042,0-.123.082-.219.164l-.355.3h-1.584L179.7,29a34.4,34.4,0,0,1,.15,4.3c0,4.273-.041,5.079-.069,6.007-.013.382-.055.983-.055,1.365,0,.205,0,.56.519.56a.672.672,0,0,0,.71-.764c0-.4-.041-2.376-.041-2.826,0-1.188-.055-6.745-.014-7.55h1.625a18.267,18.267,0,0,1-1.16,3.932,4.345,4.345,0,0,1,1.98,3.468c0,.382-.082.929-.9.929-.314,0-.41-.013-1.338-.1l-.055.109a2.063,2.063,0,0,1,1.092,1.556c.519-.109,2.348-.464,2.348-2.225A4.06,4.06,0,0,0,183.819,35.6Z" transform="translate(-119.569 -19.778)"/>
    <path id="Path_5826" data-name="Path 5826" d="M161.784,36.8a4.931,4.931,0,0,1,.519,1.747c.041.232.109.7.642.7a.619.619,0,0,0,.628-.71c0-.737-.574-1.3-1.748-1.788Z" transform="translate(-107.65 -24.936)"/>
    <path id="Path_5827" data-name="Path 5827" d="M165.788,49.072l-.614-.491c-.164-.123-.191-.137-.232-.137s-.191.151-.232.191l-.328.382h-2.225l-1.433-.683a6.327,6.327,0,0,1,.15,1.365c0,.478-.1,2.867-.1,3.413,0,.177,0,.5.423.5a.691.691,0,0,0,.778-.669,1.7,1.7,0,0,0-.027-.287h2.607c-.027.424-.041.71.41.71a.669.669,0,0,0,.7-.683c0-.41-.041-2.485-.041-2.949.314-.286.355-.328.355-.437C165.979,49.236,165.966,49.209,165.788,49.072Zm-1.229,3.263h-2.621v-2.99h2.621Z" transform="translate(-106.944 -32.646)"/>
    <path id="Path_5828" data-name="Path 5828" d="M39.634,5.576a.462.462,0,0,1,.206-.053c.18,0,.444.074.444.285a.276.276,0,0,1-.021.1.383.383,0,0,0-.016.042.025.025,0,0,0,.026.026c.021,0,.132-.032.159-.037s.148.01.18.01c.111,0,.174-.143.174-.254,0-.243-.249-.454-.655-.454a.675.675,0,0,0-.571.333c0,.016.005.021.021.021A.117.117,0,0,0,39.634,5.576Z" transform="translate(-26.323 -3.97)"/>
    <path id="Path_5829" data-name="Path 5829" d="M30.681,5.672a1.059,1.059,0,0,0,.2-.106.438.438,0,0,1,.132-.032c.069,0,.1,0,.264.328.042.085.1.2.243.2.19,0,.269-.349.269-.592,0-.053-.016-.291-.016-.349,0-.09.032-.106.328-.264a2.7,2.7,0,0,1,1.094-.4.547.547,0,0,1,.507.581c0,.423-.444.655-.793.655-.053,0-.343,0-.343-.254a.219.219,0,0,1,.048-.143c.011-.016.021-.026.021-.042a.028.028,0,0,0-.026-.026.471.471,0,0,0-.264.418c0,.275.243.428.544.428.433,0,1.168-.317,1.168-1.015a.809.809,0,0,0-.814-.8,2.479,2.479,0,0,0-.9.211c-.085.032-.518.211-.534.211-.048,0-.048-.064-.048-.1s0-.454.011-.571c.01-.185.016-.206.09-.233.127-.053.529-.211.529-.386s-.254-.238-.328-.227c-.01.005-.021.016-.021.021s.026.064.026.074c0,.074-.148.132-.185.132s-.042-.037-.042-.058A2.8,2.8,0,0,1,31.9,3a2.126,2.126,0,0,0,.111-.275.53.53,0,0,0-.544-.359c-.032,0-.116.01-.116.058a.523.523,0,0,0,.074.085.519.519,0,0,1,.174.423,3.954,3.954,0,0,1-.053.576,2.307,2.307,0,0,1-.671.158,1.51,1.51,0,0,1-.243-.026c-.016,0-.079-.021-.1-.021a.038.038,0,0,0-.042.037c0,.037.2.4.38.4a1.127,1.127,0,0,0,.375-.1,1.232,1.232,0,0,1,.243-.048c.058,0,.074.079.074.116.005.09.011.539.011.661,0,.148-.032.164-.3.3a1.131,1.131,0,0,1-.55.18c-.032,0-.185-.026-.216-.026-.1,0-.153.111-.153.206C30.353,5.513,30.622,5.672,30.681,5.672Zm.861-.492c.016.011.016.064.016.085,0,.259-.074.407-.148.407s-.222-.169-.222-.248S31.526,5.18,31.542,5.18Z" transform="translate(-20.197 -2.058)"/>
    <path id="Path_5830" data-name="Path 5830" d="M50.267,4.084a1.2,1.2,0,0,0-.4.856c0,.83.766.83,1.01.83.28,0,1.358-.026,1.358-.3,0-.132-.169-.254-.349-.254a1.43,1.43,0,0,0-.4.079,2.371,2.371,0,0,1-.634.1c-.428,0-.734-.132-.734-.492,0-.343.179-.729,1.437-1.236.19-.074.407-.159.407-.317a.2.2,0,0,0-.2-.2,1.637,1.637,0,0,0-.544.248c-.285.18-.317.2-.391.2-.138,0-.138-.428-.138-.629a4.98,4.98,0,0,1,.048-.7c.01-.053.074-.291.074-.338,0-.153-.269-.4-.571-.4-.016,0-.143.005-.143.026s.016.032.127.148a.494.494,0,0,1,.159.428c0,.137-.026.75-.026.872a1.694,1.694,0,0,0,.09.618,1.389,1.389,0,0,1,.048.164C50.494,3.867,50.425,3.936,50.267,4.084Z" transform="translate(-33.18 -1.511)"/>
    <path id="Path_5831" data-name="Path 5831" d="M68.608,6.394c-.037,0-.233-.011-.275-.011-.475,0-.851.18-.851.523a.737.737,0,0,0,.8.613.692.692,0,0,0,.745-.576c.01-.053.01-.074.031-.084.074-.032.317.132.46.259.079.069.111.084.164.084.106,0,.143-.1.143-.185,0-.2-.307-.364-.418-.423-.048-.026-.3-.111-.344-.148-.159-.111-.211-.93-.211-1.062a.6.6,0,0,1,.127-.439.632.632,0,0,1,.385-.159c.064,0,.085.011.286.084a.359.359,0,0,0,.121.021.251.251,0,0,0,.248-.275.567.567,0,0,0-.386-.539,1.669,1.669,0,0,0-.312-.09c-.021,0-.037.011-.037.026s.021.042.069.085a.465.465,0,0,1,.148.269c0,.138-.037.153-.365.344-.444.254-.475.534-.475,1.115,0,.074.021.428.021.507C68.682,6.389,68.655,6.394,68.608,6.394Zm.09.328c.031.085-.042.486-.555.486-.317,0-.476-.159-.476-.285,0-.28.476-.28.6-.28S68.671,6.643,68.7,6.722Z" transform="translate(-44.902 -3.139)"/>
    <path id="Path_5832" data-name="Path 5832" d="M64.466,4.57c0,.053.021.148.164.148.486,0,.941-1.786,1-2.05.048-.185.053-.2.1-.217.428-.127.724-.222.724-.423,0-.148-.2-.206-.3-.233-.159-.042-.211-.063-.238-.1a.43.43,0,0,0-.38-.233c-.106,0-.217.048-.217.111a1.063,1.063,0,0,0,.1.148.432.432,0,0,1,.074.233.25.25,0,0,1-.048.164.663.663,0,0,1-.233.031.786.786,0,0,1-.407-.111c-.105-.064-.121-.069-.143-.069s-.037.042-.037.064c0,.005,0,.375.623.428.079.005.116.011.116.058a4.731,4.731,0,0,1-.729,1.723C64.482,4.47,64.466,4.5,64.466,4.57ZM65.9,1.807c.031,0,.216.1.216.132,0,.079-.317.148-.333.132a.057.057,0,0,1-.01-.032C65.771,2.023,65.808,1.807,65.9,1.807Z" transform="translate(-42.895 -1.458)"/>
    <path id="Path_5833" data-name="Path 5833" d="M84.524,5.432c.111.312.143.412.307.412a.225.225,0,0,0,.227-.248c0-.365-.719-1.142-1.189-1.654a.424.424,0,0,1-.159-.291c0-.227,1.416-1.6,1.416-1.739,0-.2-.523-.465-.65-.465-.016,0-.032,0-.037.01s0,.037.016.063a.5.5,0,0,1,.132.306c0,.2-.2.47-.719,1.126-.359.449-.428.608-.428.75,0,.111.043.19.206.391A6.026,6.026,0,0,1,84.524,5.432Z" transform="translate(-55.521 -1.448)"/>
    <path id="Path_5834" data-name="Path 5834" d="M99.661,4.935c.18,0,.238-.09.481-.433a.8.8,0,0,1,.687-.4.551.551,0,0,1,.587.587c0,.5-.5.914-1.157,1.062-.037.01-.153.037-.153.064,0,.042.074.042.143.042.766,0,1.606-.428,1.606-1.073a.9.9,0,0,0-.967-.829,1.442,1.442,0,0,0-.861.338.777.777,0,0,1-.307.127c-.132,0-.138-.164-.138-.243,0-.132.042-.582.069-.777.01-.074.063-.385.063-.433s-.037-.275-.037-.322a.352.352,0,0,1,.375-.349.73.73,0,0,1,.248.053.957.957,0,0,0,.312.09.26.26,0,0,0,.269-.254c0-.3-.639-.6-.676-.571-.016.016,0,.048.01.069a.388.388,0,0,1,.09.238c0,.153-.127.206-.423.328a.649.649,0,0,0-.48.634c-.016.2-.143,1.168-.143,1.39C99.259,4.681,99.439,4.935,99.661,4.935Z" transform="translate(-66.046 -1.559)"/>
  </g>
</svg>
