<svg xmlns="http://www.w3.org/2000/svg" width="16" height="16" viewBox="0 0 16 16">
  <path id="arrow" d="M-708.907-1828a.592.592,0,0,1-.592-.593v-12.444a.592.592,0,0,1,.592-.592h9.169a.593.593,0,0,1,.593.592.593.593,0,0,1-.593.593h-8.577v11.259h11.259v-8.249a.593.593,0,0,1,.592-.593.593.593,0,0,1,.593.593v8.841a.593.593,0,0,1-.593.593Zm7.482-8.075a.594.594,0,0,1,0-.838l5.9-5.9h-2.323a.592.592,0,0,1-.592-.592.592.592,0,0,1,.592-.593h3.753a.59.59,0,0,1,.216.042l.009,0a.593.593,0,0,1,.323.323l0,.009a.589.589,0,0,1,.042.216v3.753a.593.593,0,0,1-.593.593.593.593,0,0,1-.593-.593v-2.323l-5.9,5.9a.589.589,0,0,1-.419.173A.589.589,0,0,1-701.425-1836.075Z" transform="translate(709.5 1844)" fill="#fff"/>
</svg>
