<svg xmlns="http://www.w3.org/2000/svg" width="24.575" height="25" viewBox="0 0 24.575 25">
  <path id="icon" d="M-5314.386,18946.133c-2.137-1.092-3.393-2.615-3.393-4.3a3.873,3.873,0,0,1,.989-2.486,8.232,8.232,0,0,1,2.856-2.055,1.334,1.334,0,0,1,.266-.051.623.623,0,0,1,.56.348,1.092,1.092,0,0,1,.053.264.627.627,0,0,1-.348.564,6.946,6.946,0,0,0-2.293,1.574,2.8,2.8,0,0,0-.829,1.865,2.7,2.7,0,0,0,.776,1.793c1.492,1.707,5.044,3.1,9.768,3.1a18.1,18.1,0,0,0,7.611-1.494,7.2,7.2,0,0,0,2.162-1.549,2.7,2.7,0,0,0,.772-1.791,2.837,2.837,0,0,0-.826-1.869,7.446,7.446,0,0,0-2.326-1.57.632.632,0,0,1-.343-.561.756.756,0,0,1,.054-.271.719.719,0,0,1,.531-.4.916.916,0,0,1,.27.051,7.855,7.855,0,0,1,2.881,2.033,3.913,3.913,0,0,1,.99,2.508c0,1.682-1.255,3.176-3.393,4.3a18.466,18.466,0,0,1-8.407,1.789A18.643,18.643,0,0,1-5314.386,18946.133Zm3.094-9.5-.053-.053-.078-.158a7.409,7.409,0,0,1-1.978-5.049,7.366,7.366,0,0,1,2.19-5.254,7.332,7.332,0,0,1,5.26-2.193,7.381,7.381,0,0,1,5.26,2.193,7.315,7.315,0,0,1,2.187,5.254,7.424,7.424,0,0,1-1.974,5.049l-.106.105-.106.105-.028.027-5.261,5.551Zm-1.038-5.23a6.221,6.221,0,0,0,1.492,4.082l.029.029h.029l.159.242.106.105,4.536,4.75,4.512-4.75c.029-.029.082-.055.106-.105l.241-.271a6.353,6.353,0,0,0,1.5-4.082,6.367,6.367,0,0,0-6.355-6.354A6.348,6.348,0,0,0-5312.33,18931.4Zm3.764,2.373a3.592,3.592,0,0,1-1.071-2.561,3.638,3.638,0,0,1,1.071-2.564,3.614,3.614,0,0,1,2.563-1.066,3.631,3.631,0,0,1,2.562,1.066,3.614,3.614,0,0,1,1.067,2.564,3.605,3.605,0,0,1-1.067,2.561,3.623,3.623,0,0,1-2.562,1.072A3.615,3.615,0,0,1-5308.566,18933.771Zm.025-2.561a2.562,2.562,0,0,0,2.562,2.561,2.563,2.563,0,0,0,2.563-2.561,2.566,2.566,0,0,0-2.563-2.564A2.565,2.565,0,0,0-5308.541,18931.211Z" transform="translate(5318.278 -18923.422)" fill="#fff" stroke="rgba(0,0,0,0)" stroke-width="1"/>
</svg>
