<svg xmlns="http://www.w3.org/2000/svg" width="44.885" height="40.4" viewBox="0 0 44.885 40.4">
  <g id="icon" transform="translate(-41 -977)">
    <g id="icon_user" transform="translate(41 991)">
      <path id="パス_191" data-name="パス 191" d="M12,0a6.3,6.3,0,1,0,6.3,6.3h0A6.3,6.3,0,0,0,12,0Zm0,2.4a3.892,3.892,0,1,1-.016,0Zm0,12a12.035,12.035,0,0,0-12,12H2.4a9.6,9.6,0,0,1,19.2,0H24A12.016,12.016,0,0,0,12,14.4Z" fill="#fff"/>
    </g>
    <g id="icon_bubble" transform="translate(63 977)">
      <path id="パス_192" data-name="パス 192" d="M11.506,0C5.114,0,0,4.475,0,10.1a9.94,9.94,0,0,0,4.219,7.927l.256,3.708a.6.6,0,0,0,1.023.511l3.068-2.3a10.476,10.476,0,0,0,2.813.256c6.392,0,11.506-4.475,11.506-10.1S17.9,0,11.506,0Z" fill="#fff"/>
    </g>
    <g id="icon_star" transform="translate(64.662 973.538)">
      <path id="Path_37" data-name="Path 37" d="M11.743,6a.261.261,0,0,0-.271.228l-.34,2.735-.239,1.928-1.93.241h0l-2.735.34a.261.261,0,0,0,0,.517l2.735.34h0l1.93.241.239,1.928.34,2.735a.261.261,0,0,0,.517,0l.341-2.735h0l.239-1.928,1.928-.241h0l2.735-.34a.261.261,0,0,0,0-.517l-2.735-.34h0l-1.928-.241-.239-1.928h0L11.99,6.228A.261.261,0,0,0,11.743,6Z" transform="translate(0 0)" fill="#8cd" fill-rule="evenodd"/>
    </g>
    <g id="icon_star-2" data-name="icon_star" transform="translate(61.634 982.538)">
      <path id="Path_37-2" data-name="Path 37" d="M8.737,6a.124.124,0,0,0-.129.109l-.162,1.3-.114.919-.919.115h0l-1.3.162a.124.124,0,0,0,0,.246l1.3.162h0l.919.115.114.919.162,1.3a.124.124,0,0,0,.246,0l.163-1.3h0l.114-.919.919-.115h0l1.3-.162a.124.124,0,0,0,0-.246l-1.3-.162h0l-.919-.115-.114-.919h0l-.163-1.3A.124.124,0,0,0,8.737,6Z" transform="translate(0 0)" fill="#8cd" fill-rule="evenodd"/>
    </g>
  </g>
</svg>
