<svg id="ユビトマ" xmlns="http://www.w3.org/2000/svg" xmlns:xlink="http://www.w3.org/1999/xlink" width="355" height="196" viewBox="0 0 355 196">
  <defs>
    <linearGradient id="linear-gradient" y1="0.5" x2="1" y2="0.5" gradientUnits="objectBoundingBox">
      <stop offset="0" stop-color="#08e"/>
      <stop offset="1" stop-color="#6cf"/>
    </linearGradient>
  </defs>
  <rect id="bg" width="355" height="196" rx="20" fill="#fff"/>
  <path id="Path_3381" data-name="Path 3381" d="M-122.4-1.71a14.345,14.345,0,0,1-1.92.105h-4.5v-3.54h3.66a11.754,11.754,0,0,1,1.95.105V-7.005a15.612,15.612,0,0,1-1.95.105h-3.645V-9.99h4.32a13.433,13.433,0,0,1,1.935.105v-1.98a16.026,16.026,0,0,1-1.935.105h-4.53c-.915,0-1.305-.015-1.9-.045a13.271,13.271,0,0,1,.12,1.935v8.115a12.134,12.134,0,0,1-.12,1.98c.6-.03,1.005-.045,1.9-.045h4.68a12.9,12.9,0,0,1,1.935.1Zm9.015,1.89a12.372,12.372,0,0,1-.12-1.935V-4.71l3.465-5.505c.255-.42.825-1.245,1.035-1.545h-2.61a6.554,6.554,0,0,1-.705,1.485L-114.525-6.6l-2.175-3.69a6.076,6.076,0,0,1-.72-1.47h-2.625c.48.69.825,1.185,1.05,1.545l3.465,5.49v2.97A14.351,14.351,0,0,1-115.65.18Zm5.97-3.5a5.127,5.127,0,0,0,.285,1.245,3.532,3.532,0,0,0,1.32,1.71,6.031,6.031,0,0,0,3.15.78A4.971,4.971,0,0,0-99.075-.72a3.49,3.49,0,0,0,.945-2.55,2.96,2.96,0,0,0-1.245-2.58,6.6,6.6,0,0,0-2.445-.915,12.771,12.771,0,0,1-2.115-.54,1.426,1.426,0,0,1-1.02-1.365c0-.975.885-1.635,2.19-1.635a2.373,2.373,0,0,1,1.875.72,1.937,1.937,0,0,1,.45,1.065l2.145-.255a4.044,4.044,0,0,0-.735-1.74,4.422,4.422,0,0,0-3.735-1.515c-2.58,0-4.26,1.35-4.26,3.435a2.952,2.952,0,0,0,1.155,2.43,5.3,5.3,0,0,0,2.265.915,9.458,9.458,0,0,1,2.61.735,1.523,1.523,0,0,1,.75,1.38c0,1.125-.9,1.8-2.4,1.8a2.663,2.663,0,0,1-2.19-.885,2.15,2.15,0,0,1-.42-1.32Zm12.6-8.25A5.975,5.975,0,0,1-93.54-9.78a10.1,10.1,0,0,1-1.935,1.2,4.637,4.637,0,0,1,.72,1.47A13.637,13.637,0,0,0-92.97-8.3a10.531,10.531,0,0,1,.345,1.53,9.5,9.5,0,0,1-2.79,2.79A5.589,5.589,0,0,1-94.7-2.5a11.1,11.1,0,0,0,2.265-2.25c.015.495.015.78.015,1.065A9.4,9.4,0,0,1-92.67-.84a.616.616,0,0,1-.63.48,5.076,5.076,0,0,1-1.44-.285A5.66,5.66,0,0,1-94.5,1.02a8.816,8.816,0,0,0,1.365.135,1.963,1.963,0,0,0,1.5-.5c.525-.54.75-1.77.75-3.96a21.147,21.147,0,0,0-.33-4.185,14.7,14.7,0,0,0-.48-1.86A16.04,16.04,0,0,0-90.03-11.16l.345-.42-1.305-1.005a6.22,6.22,0,0,1-1.395,1.815,8.229,8.229,0,0,0-.585-.885c-.36-.525-.36-.525-.525-.735Zm7.83,1.65H-88.68a11.306,11.306,0,0,1-1.53-.075c.045.495.06.9.06,1.635v3c0,.7-.015,1.095-.045,1.605a13.539,13.539,0,0,1,1.515-.06h1.695V-.96a30.33,30.33,0,0,1-3.225.24c-.12,0-.255-.015-.42-.03l.33,1.77c.27-.06.555-.105.885-.15,2.49-.27,5-.645,6.3-.945A12.817,12.817,0,0,1-82.77,1.29l1.53-.63a20.711,20.711,0,0,0-1.62-4.02l-1.395.45a14.906,14.906,0,0,1,.675,1.53c-.825.135-.915.15-1.47.21-.225.03-.225.03-.375.045V-3.81h1.9a13.538,13.538,0,0,1,1.515.06,15.156,15.156,0,0,1-.06-1.62V-8.4a14.888,14.888,0,0,1,.06-1.59,10.971,10.971,0,0,1-1.5.075h-1.92V-10.95a6.162,6.162,0,0,1,.1-1.485h-1.77a8.507,8.507,0,0,1,.1,1.485Zm0,1.485v3.09h-1.65V-8.43Zm1.56,3.09V-8.43h1.8v3.09Zm9.99-5.43a14.962,14.962,0,0,1-1.83-.075A14.785,14.785,0,0,1-77.19-9V-.6a12.9,12.9,0,0,1-.09,1.74h1.695V.375h7.41V1.14h1.725A10.265,10.265,0,0,1-66.54-.6V-9a14.349,14.349,0,0,1,.075-1.845,15.386,15.386,0,0,1-1.845.075h-3.48c.27-.57.5-1.08.765-1.8l-1.89-.18a8.181,8.181,0,0,1-.69,1.98Zm-.135,1.53h7.41v1.695h-7.41Zm0,3.135h7.41v1.71h-7.41Zm0,3.15h7.41V-1.14h-7.41Zm21.375-6.66a3.278,3.278,0,0,1,1.515.45,3.716,3.716,0,0,1,1.845,3.33,4.2,4.2,0,0,1-2.085,3.75A7.972,7.972,0,0,1-55.9-1.26,4.785,4.785,0,0,1-54.99.5a9.807,9.807,0,0,0,2.355-.63,5.779,5.779,0,0,0,3.645-5.6c0-3.375-2.34-5.565-5.94-5.565a6.733,6.733,0,0,0-5.16,2.1A6.443,6.443,0,0,0-61.74-4.83c0,2.415,1.23,4.155,2.94,4.155,1.23,0,2.19-.885,3.045-2.82A21.7,21.7,0,0,0-54.195-9.615Zm-1.83.015A19.769,19.769,0,0,1-57.27-4.53c-.54,1.29-1.05,1.92-1.545,1.92-.66,0-1.185-.975-1.185-2.205a5.022,5.022,0,0,1,2.04-4.05A3.818,3.818,0,0,1-56.025-9.6Zm13.815-1.635v.21a11.006,11.006,0,0,1-.135,1.455,18.242,18.242,0,0,1-1.41,5.145A10.108,10.108,0,0,1-45.9-1.23,6.49,6.49,0,0,1-44.19.06c2.01-2.31,3.18-5.265,3.81-9.57l.045-.36.075-.435.03-.255a1.729,1.729,0,0,1,.075-.3Zm4.455.36a6.3,6.3,0,0,1,.21,1.08A19.878,19.878,0,0,0-33.57.075,6.174,6.174,0,0,1-31.92-1.3a14.529,14.529,0,0,1-3.345-6.48,18.584,18.584,0,0,1-.63-3.45Zm2.01-.93a9.843,9.843,0,0,1,1.23,2.445l1.14-.36a8.946,8.946,0,0,0-1.245-2.415Zm4.335,1.485a8.876,8.876,0,0,0-1.23-2.325l-1.11.315a10.3,10.3,0,0,1,1.2,2.37Zm3.375.69A15.749,15.749,0,0,1-24.21-6.585l1.29-1.635a21.244,21.244,0,0,0-3.87-2.9Zm.525,9.9a5.31,5.31,0,0,1,.99-.255A16.2,16.2,0,0,0-20.8-2.235a13.165,13.165,0,0,0,4.755-5.88,6.468,6.468,0,0,1-1.59-1.47,12.525,12.525,0,0,1-1.53,3A10.022,10.022,0,0,1-23.625-2.91a14.293,14.293,0,0,1-4.44,1.11ZM-7.59.675A15.389,15.389,0,0,1-7.65-.99V-4.95a8.569,8.569,0,0,0-.06-1.02,4.846,4.846,0,0,0,.51.255A36.428,36.428,0,0,1-1.89-2.85L-.84-4.62A43.63,43.63,0,0,0-7.65-7.785v-2.79a12.43,12.43,0,0,1,.06-1.575H-9.645a9.832,9.832,0,0,1,.09,1.53V-1a10.94,10.94,0,0,1-.09,1.68Zm3.075-11.52A10.124,10.124,0,0,1-2.94-8.61l1.05-.555a9.721,9.721,0,0,0-1.575-2.2Zm4.41.7a8.675,8.675,0,0,0-1.56-2.115l-1.005.525A11.052,11.052,0,0,1-1.14-9.555ZM6.69-10.9a10.278,10.278,0,0,1-1.92-.105v1.95a10.807,10.807,0,0,1,1.89-.09H13.8A10.878,10.878,0,0,1,5.97-1.08,5.52,5.52,0,0,1,7.29.7,13.453,13.453,0,0,0,15.9-9.24a2.05,2.05,0,0,0,.285.03,1.741,1.741,0,0,0,1.74-1.74,1.738,1.738,0,0,0-1.74-1.725,1.729,1.729,0,0,0-1.725,1.74c-.255.015-.435.03-.885.03Zm9.495-1.02a.976.976,0,0,1,.99.975.989.989,0,0,1-.99.99.986.986,0,0,1-.975-.99A.973.973,0,0,1,16.185-11.925Zm6.48,1.98a11.535,11.535,0,0,1,1.725-.075h5.295a11.535,11.535,0,0,1,1.725.075V-11.79a8.535,8.535,0,0,1-1.755.105H24.42a8.535,8.535,0,0,1-1.755-.105Zm9.51,1.74a6.561,6.561,0,0,1-1.695.135H23.34a10.647,10.647,0,0,1-1.95-.105v1.83a15.259,15.259,0,0,1,1.92-.075h7.305A7.8,7.8,0,0,1,28.2-2.91,9.741,9.741,0,0,1,24.03-.93,5.227,5.227,0,0,1,25.2.81a13.348,13.348,0,0,0,3.93-2.04A10.607,10.607,0,0,0,32.61-6.3a6.763,6.763,0,0,1,.42-.945Zm6.36.045A15.007,15.007,0,0,1,39.9-4.53l1.695-.54a17.3,17.3,0,0,0-1.47-3.555Zm3.21-.63A16.494,16.494,0,0,1,43.11-5.265l1.665-.525A14.736,14.736,0,0,0,43.32-9.24Zm5.16-.15a6.654,6.654,0,0,1-.27,1.725,8.625,8.625,0,0,1-3.4,5.205A9.73,9.73,0,0,1,40.68-.63,5.448,5.448,0,0,1,41.88.855,11.514,11.514,0,0,0,46.455-2.76a12.8,12.8,0,0,0,2.07-5,3.157,3.157,0,0,1,.21-.765ZM58.665.675A16.491,16.491,0,0,1,58.6-.99V-4.95a7.755,7.755,0,0,0-.06-1.02,4.846,4.846,0,0,0,.51.255,35.489,35.489,0,0,1,5.31,2.865l1.05-1.77A44.069,44.069,0,0,0,58.6-7.785v-2.79a10.056,10.056,0,0,1,.06-1.575H56.61a9.641,9.641,0,0,1,.09,1.53V-1a10.1,10.1,0,0,1-.09,1.68Zm21.69-11.76a5.482,5.482,0,0,1-1.605.15H71.865a10.566,10.566,0,0,1-1.92-.105v1.95a11.908,11.908,0,0,1,1.89-.09h7.14A10.393,10.393,0,0,1,74.43-2.64a12.2,12.2,0,0,1-3.285,1.53A5.52,5.52,0,0,1,72.465.675a14.6,14.6,0,0,0,5.58-3.825A14.1,14.1,0,0,0,81.12-9.435a2.256,2.256,0,0,1,.255-.675Zm11.49,5a11.094,11.094,0,0,1-2.19,2.46A13.168,13.168,0,0,1,86.43-1.605,4.709,4.709,0,0,1,87.54-.2a14.315,14.315,0,0,0,4.86-3.96,5.89,5.89,0,0,0,.51-.84c0,.18-.015.765-.015.93l.015,3.75a9.311,9.311,0,0,1-.06,1.23h1.83A6.864,6.864,0,0,1,94.59-.36l-.075-5.715h1.29a10.879,10.879,0,0,1,1.365.06v-1.62a6.453,6.453,0,0,1-1.35.09H94.515l-.015-.99a6.932,6.932,0,0,1,.045-1.125H92.79a7.8,7.8,0,0,1,.075,1.185v.915H88.5a6.453,6.453,0,0,1-1.35-.09v1.62a11.234,11.234,0,0,1,1.35-.06ZM102.15-4.71a16.467,16.467,0,0,1,2.445-.075h7.965a16.467,16.467,0,0,1,2.445.075V-6.8a14.731,14.731,0,0,1-2.43.105H104.58a14.731,14.731,0,0,1-2.43-.105Zm20.7-7.455a23.723,23.723,0,0,1-1.1,4.155c-.78,2.46-1.38,4.155-2.175,6.045-.63.03-.99.045-1.29.045h-.39l.27,2.025a8.2,8.2,0,0,1,1.365-.18c4.485-.435,6.975-.75,8.49-1.065.345-.075.345-.075.54-.12a15.363,15.363,0,0,1,.72,1.86L131.1-.345a35.087,35.087,0,0,0-3.63-6.945l-1.695.66A18.622,18.622,0,0,1,127.2-4.245c.36.675.54,1,.705,1.365a59.282,59.282,0,0,1-6.24.765,89.089,89.089,0,0,0,2.97-8.55,4.591,4.591,0,0,1,.39-1.08ZM-86.145,17.215v-6.3h2.7V9.28H-87.93v7.935Zm15.3-5.85a5.7,5.7,0,0,1-1.665.15h-4.365a8.315,8.315,0,0,1-1.665-.12V13.3a10.1,10.1,0,0,1,1.68-.09h4.68a58.98,58.98,0,0,1-.945,6.15H-78.36a10.737,10.737,0,0,1-1.965-.1v1.89a15.092,15.092,0,0,1,1.935-.075h9.06a14.966,14.966,0,0,1,1.92.075v-1.89a10.647,10.647,0,0,1-1.95.1h-1.77c.39-2.25.555-3.315.915-5.97a3.944,3.944,0,0,1,.315-1.245Zm10.455.42a7.614,7.614,0,0,1,.075-1.395h-2.01a7.922,7.922,0,0,1,.06,1.38l.015,6.96a11.3,11.3,0,0,0,.045,1.38,2.074,2.074,0,0,0,.735,1.53c.585.45,1.62.645,3.51.645.915,0,2.805-.09,3.69-.18,1.59-.15,1.665-.165,1.98-.165l-.09-2a8.862,8.862,0,0,1-1.71.36,28.288,28.288,0,0,1-3.48.24c-1.455,0-2.31-.12-2.565-.39-.21-.21-.27-.555-.27-1.425a1,1,0,0,1,.015-.195v-1.98a25.4,25.4,0,0,0,6.4-2.07c.795-.39,1.245-.6,1.35-.645l-1.2-1.695c-.975.915-4.29,2.25-6.555,2.67Zm6.06-1.62a9.594,9.594,0,0,1,1.485,2.3l1.08-.5a9.537,9.537,0,0,0-1.5-2.28Zm4.38.885a8.825,8.825,0,0,0-1.47-2.175l-1.035.48a11.163,11.163,0,0,1,1.44,2.235Zm7.6,11.625a16.491,16.491,0,0,1-.06-1.665V17.05a7.755,7.755,0,0,0-.06-1.02,4.846,4.846,0,0,0,.51.255,35.489,35.489,0,0,1,5.31,2.865l1.05-1.77a44.069,44.069,0,0,0-6.81-3.165v-2.79a10.056,10.056,0,0,1,.06-1.575H-44.4a9.641,9.641,0,0,1,.09,1.53V21a10.1,10.1,0,0,1-.09,1.68Zm12.705-6.81a24.212,24.212,0,0,1,3,2.9,24.694,24.694,0,0,1,2.9,3.78l1.575-1.26c-.78-1.065-1.35-1.785-1.98-2.505a23.2,23.2,0,0,0,4.845-5.685,4.683,4.683,0,0,1,.66-.885l-1.05-1.185a3.928,3.928,0,0,1-1.245.12l-8.34.015a10.94,10.94,0,0,1-1.95-.105v1.905a16.269,16.269,0,0,1,1.92-.075h7.155c.315,0,.54-.015.69-.03a.385.385,0,0,0-.03.075,1.052,1.052,0,0,0-.09.135,19.84,19.84,0,0,1-1.83,2.445A18.421,18.421,0,0,1-25.38,17.4c-.105-.09-.105-.09-.93-.93-.615-.6-1.065-1.005-1.86-1.665Zm16.785-.48v6.3h-2.7V23.32h4.485V15.385ZM11.07,13.75a14.03,14.03,0,0,1,2.055,4.875l1.71-.855A13.951,13.951,0,0,0,12.585,13Zm-4.41-3.3a3.49,3.49,0,0,1,.12-.465L4.83,9.79v.27a21.1,21.1,0,0,1-.39,3.03,30.807,30.807,0,0,1-3.2.315l.18,1.77a6.159,6.159,0,0,1,.615-.15L3.405,14.8c.48-.09.48-.09.7-.12A22.063,22.063,0,0,1,1.1,21.745l1.74.96a32.2,32.2,0,0,0,3.06-8.16c.345-.03.585-.045.9-.045,1.155,0,1.5.405,1.5,1.785A13.328,13.328,0,0,1,7.9,19.7c-.225.735-.465,1.02-.9,1.02a6.279,6.279,0,0,1-2.19-.6,5.634,5.634,0,0,1,.15,1.275c0,.15-.015.375-.03.66a6.954,6.954,0,0,0,2.31.45,1.9,1.9,0,0,0,1.665-.675c.72-.825,1.155-2.88,1.155-5.46A3.638,3.638,0,0,0,9.36,13.72a2.906,2.906,0,0,0-2.22-.8c-.27,0-.48.015-.93.03.045-.195.045-.195.09-.45.15-.81.255-1.425.33-1.86Zm3.48.1a10.124,10.124,0,0,1,1.575,2.235l1.05-.555a9.721,9.721,0,0,0-1.575-2.2Zm4.41.7a8.675,8.675,0,0,0-1.56-2.115l-1.005.525a11.052,11.052,0,0,1,1.53,2.175Zm11.7,1.935a5.626,5.626,0,0,1-.3,1.14,4.247,4.247,0,0,0-.57-.03,8.3,8.3,0,0,0-2.07.195c.015-.315.03-.8.075-1.44a48.123,48.123,0,0,0,5.28-.525c.315-.045.375-.045.585-.06l-.075-1.725a27.181,27.181,0,0,1-5.685.8A8.831,8.831,0,0,1,23.76,9.7L21.9,9.61a.844.844,0,0,1,.03.24c0,.285-.015.66-.03.855-.045.6-.045.6-.06.9h-.33A13.27,13.27,0,0,1,18.7,11.38v1.68c.165-.015.3-.015.345-.015h.285c1.455.045,2.265.06,2.43.06-.03.72-.06,1.32-.06,1.8a6.2,6.2,0,0,0-2.055,1.35,4.712,4.712,0,0,0-1.485,3.36A2.369,2.369,0,0,0,20.5,22.24a5.732,5.732,0,0,0,3.93-2.16,13.238,13.238,0,0,0,2.61-3.99,2.2,2.2,0,0,1,1.68,2.07A2.519,2.519,0,0,1,26.97,20.5a6.219,6.219,0,0,1-2.865.6,4.832,4.832,0,0,1,.8,1.695,8.355,8.355,0,0,0,3.06-.8,4.078,4.078,0,0,0,2.58-3.75,3.346,3.346,0,0,0-1.425-2.835,4.039,4.039,0,0,0-1.56-.735c.045-.135.06-.15.21-.57a3.464,3.464,0,0,1,.18-.435Zm-4.515,3.42a16.453,16.453,0,0,0,.27,3.39,2.067,2.067,0,0,1-1.305.57c-.525,0-.855-.42-.855-1.1a2.974,2.974,0,0,1,.675-1.83A4.461,4.461,0,0,1,21.735,16.615ZM23.43,18.88a.615.615,0,0,1-.015-.165.792.792,0,0,0-.015-.195,24.944,24.944,0,0,1-.1-2.58,5.511,5.511,0,0,1,1.8-.27,3.523,3.523,0,0,1,.39.015,11.412,11.412,0,0,1-1.86,3,1.385,1.385,0,0,0-.165.21Zm15.855-3.1a5.887,5.887,0,0,0,.615-.39c.3-.195,1.38-1.005,1.65-1.23.51-.435,1.6-1.41,2.355-2.1a3.215,3.215,0,0,1,.78-.615l-.93-1.32a2.21,2.21,0,0,1-.93.2c-1.455.1-3.285.18-4.56.18a13.566,13.566,0,0,1-1.77-.09l.075,1.8a5.06,5.06,0,0,1,.72-.075c2.715-.12,3.675-.18,4.245-.255l.015.015-.27.27a50.085,50.085,0,0,1-4.485,3.9,13.49,13.49,0,0,1-2.115,1.41l1.02,1.62a9.242,9.242,0,0,1,6.18-2.52c1.815,0,2.97.765,2.97,1.935,0,1.065-.54,1.71-1.785,2.175a4.034,4.034,0,0,0-.69-1.35,3.228,3.228,0,0,0-2.6-1.23,2.309,2.309,0,0,0-2.58,2.145,2.141,2.141,0,0,0,.9,1.725,5.075,5.075,0,0,0,2.91.69,7.421,7.421,0,0,0,3.63-.855,3.666,3.666,0,0,0,2.04-3.315c0-2.055-1.65-3.375-4.215-3.375a7.322,7.322,0,0,0-3.15.69Zm2.16,5.34a4.06,4.06,0,0,1-.78.06c-1.11,0-1.785-.345-1.785-.945,0-.42.345-.69.885-.69C40.6,19.54,41.175,20.08,41.445,21.115ZM54.42,9.685V9.97A23.083,23.083,0,0,1,54.03,13c-.825.12-2.64.3-3.195.3l.18,1.77a26.892,26.892,0,0,1,2.685-.48,25.446,25.446,0,0,1-1.455,4.245,16.388,16.388,0,0,1-1.56,2.82l1.74.96c.075-.15.075-.165.12-.255l.225-.45a32.171,32.171,0,0,0,1.8-4.215,31.731,31.731,0,0,0,.915-3.255c.345-.03.57-.045.87-.045,1.185,0,1.53.405,1.53,1.785a13.328,13.328,0,0,1-.39,3.42c-.225.735-.465,1.02-.9,1.02a6.205,6.205,0,0,1-2.19-.585,5.634,5.634,0,0,1,.15,1.275c0,.15-.015.36-.03.66a7.277,7.277,0,0,0,2.31.435A1.9,1.9,0,0,0,58.5,21.73c.72-.825,1.155-2.88,1.155-5.46a3.638,3.638,0,0,0-.7-2.655,2.906,2.906,0,0,0-2.22-.8c-.285,0-.495.015-.93.045.045-.195.045-.225.1-.555.21-1.125.21-1.125.255-1.44.045-.24.06-.315.09-.51a3.49,3.49,0,0,1,.12-.465Zm5.37,2.88a9.708,9.708,0,0,1,1.725,2.565,13.483,13.483,0,0,1,1.2,3.4l1.71-.87a14.56,14.56,0,0,0-3.09-5.85Zm10.89-1.29a27.15,27.15,0,0,0,5.85,1.875l.615-1.725A22.5,22.5,0,0,1,71.55,9.76Zm-1.2,1.32a6.123,6.123,0,0,1-.09.87c-.27,1.77-.51,3.435-.63,4.365-.075.57-.075.63-.12.9l1.89.06a3.265,3.265,0,0,1,.675-.645,6.827,6.827,0,0,1,3.735-1.1c1.59,0,2.535.6,2.535,1.605,0,1.275-1.47,2.16-3.585,2.16a12.109,12.109,0,0,1-4.035-.75A6.656,6.656,0,0,1,70.08,22a13.792,13.792,0,0,0,3.825.525,6.48,6.48,0,0,0,3.96-1.02A3.652,3.652,0,0,0,79.41,18.61c0-1.92-1.68-3.18-4.23-3.18a7.109,7.109,0,0,0-4.545,1.425l-.03-.03c.045-.225.045-.225.075-.435a31.739,31.739,0,0,1,.675-3.69ZM83.4,19.75a16.144,16.144,0,0,1,3.255,3.42l1.4-1.305a17.533,17.533,0,0,0-3.375-3.3Zm-238.11,14.9a2.571,2.571,0,0,1,.375-.045,19.857,19.857,0,0,0,2.505-.285l.2-.045a.915.915,0,0,1,.225-.045.824.824,0,0,0-.165.165,2.669,2.669,0,0,1-.255.225,9.55,9.55,0,0,0-1.515,1.935,7.4,7.4,0,0,0-1.035,3.615A4.525,4.525,0,0,0-152.52,44a4.845,4.845,0,0,0,2.58.705c2.835,0,4.875-2.3,4.875-5.52a9.444,9.444,0,0,0-.315-2.625,11.781,11.781,0,0,0,2.4,3.075,2.929,2.929,0,0,0,.225.2.759.759,0,0,0,.12.135l.93-1.785a10.865,10.865,0,0,1-4.005-5.535l-1.8.525a12.406,12.406,0,0,1,.81,4.56,8.052,8.052,0,0,1-.555,3.27A2.92,2.92,0,0,1-150,42.86a2.506,2.506,0,0,1-2.565-2.715,7.028,7.028,0,0,1,1.935-4.44,7.17,7.17,0,0,1,1.845-1.635l-.945-1.62a15.055,15.055,0,0,1-4.26.48,5.6,5.6,0,0,1-.75-.045Zm9.255-2.385a10.123,10.123,0,0,1,1.575,2.235l1.05-.555a9.721,9.721,0,0,0-1.575-2.2Zm4.41.7a8.674,8.674,0,0,0-1.56-2.115l-1.005.525a11.051,11.051,0,0,1,1.53,2.175Zm4.08,6a9.474,9.474,0,0,1,1.74-.51,16.809,16.809,0,0,1,3.945-.585c1.59,0,2.46.63,2.46,1.8a2.409,2.409,0,0,1-1.065,2.025,5.29,5.29,0,0,1-2.505,1.02,13.218,13.218,0,0,1-2.13.225h-.225a4.742,4.742,0,0,1,.645,1.71,14.746,14.746,0,0,0,3.255-.57c2.385-.75,3.795-2.37,3.795-4.365a3.4,3.4,0,0,0-.555-1.935,3.864,3.864,0,0,0-3.54-1.53,21.193,21.193,0,0,0-4.635.63,8,8,0,0,1-1.56.285Zm23.19-7.425a7.436,7.436,0,0,1-1.1,1.245,33.62,33.62,0,0,1-3.465,2.925,9.2,9.2,0,0,0-1.32,1.08,1.752,1.752,0,0,0-.5,1.215c0,.69.27,1.1,1.26,1.86a47.577,47.577,0,0,1,3.87,3.195,14.489,14.489,0,0,1,1.95,2.055l1.545-1.56a3.74,3.74,0,0,1-.435-.375,50.42,50.42,0,0,0-4.725-3.915c-1.32-.99-1.35-1.02-1.35-1.245,0-.165.105-.285.57-.63,1.755-1.335,2.8-2.175,3.57-2.88a22.885,22.885,0,0,1,1.845-1.65Zm10.695.09a3.526,3.526,0,0,1-.045.51l-.225,1.86c-.12,1.035-.21,2.7-.21,3.915,0,.3.03,1.41.045,1.845v.285a1.166,1.166,0,0,1-.015.195l1.8-.03V39.9a7.192,7.192,0,0,1,1.89-4.845,2.233,2.233,0,0,1,1.62-.795c1.29,0,2.01,1.2,2.01,3.36,0,2.28-.795,3.705-2.535,4.59a8.756,8.756,0,0,1-3.285.855,5.738,5.738,0,0,1,.885,1.77,12.792,12.792,0,0,0,2.94-.84,6.3,6.3,0,0,0,3.87-6.165,6.282,6.282,0,0,0-1.08-3.99,3.141,3.141,0,0,0-2.565-1.35,3.581,3.581,0,0,0-2.85,1.53,6.064,6.064,0,0,0-.945,1.785,3.293,3.293,0,0,1-.09.33h-.045c.03-.36.09-.87.2-1.5a14.714,14.714,0,0,1,.54-2.895Zm22.755,4.38v-.975c1.185-.03,1.455-.03,1.815-.03,1.245,0,1.965.03,2.52.075L-76,33.365c-.555.06-1.725.09-4.335.105a11.793,11.793,0,0,1,.075-1.785l-1.89.015a8.139,8.139,0,0,1,.09,1.815c-.78.03-.78.03-1.275.045-1.23.03-1.38.03-2.355.06-1.935.075-2.175.075-2.55.075a6.532,6.532,0,0,1-.735-.03l.06,1.785c.4-.06.4-.06,2.67-.225.66-.045,2.07-.09,4.215-.15,0,.4,0,1.245.015,1.275a.618.618,0,0,0,.015.18,2.507,2.507,0,0,0-1.56-.45,2.761,2.761,0,0,0-2.985,2.73,2.344,2.344,0,0,0,1.035,2.025,2.764,2.764,0,0,0,1.74.54A2.471,2.471,0,0,0-81.57,40.31a3.157,3.157,0,0,1-1.74,2.19,7.079,7.079,0,0,1-2.55.87,4.923,4.923,0,0,1,1.065,1.695,10.486,10.486,0,0,0,2.715-1.23,4.813,4.813,0,0,0,2.235-4.05,4.565,4.565,0,0,0-.48-2.115c0-.18-.015-.3-.015-.36Zm-1.725,2.475a1.367,1.367,0,0,1-1.47,1.35,1.184,1.184,0,0,1-1.275-1.185,1.314,1.314,0,0,1,1.395-1.2C-82.575,37.46-82.05,37.865-82.05,38.495Zm14.46-.72a5.888,5.888,0,0,0,.615-.39c.3-.195,1.38-1,1.65-1.23.51-.435,1.6-1.41,2.355-2.1a3.215,3.215,0,0,1,.78-.615l-.93-1.32a2.21,2.21,0,0,1-.93.2c-1.455.1-3.285.18-4.56.18a13.566,13.566,0,0,1-1.77-.09l.075,1.8a5.06,5.06,0,0,1,.72-.075c2.715-.12,3.675-.18,4.245-.255l.015.015-.27.27a50.085,50.085,0,0,1-4.485,3.9,13.49,13.49,0,0,1-2.115,1.41l1.02,1.62A9.242,9.242,0,0,1-65,38.57c1.815,0,2.97.765,2.97,1.935,0,1.065-.54,1.71-1.785,2.175a4.034,4.034,0,0,0-.69-1.35,3.228,3.228,0,0,0-2.6-1.23,2.309,2.309,0,0,0-2.58,2.145,2.141,2.141,0,0,0,.9,1.725,5.075,5.075,0,0,0,2.91.69,7.421,7.421,0,0,0,3.63-.855,3.666,3.666,0,0,0,2.04-3.315c0-2.055-1.65-3.375-4.215-3.375a7.322,7.322,0,0,0-3.15.69Zm2.16,5.34a4.06,4.06,0,0,1-.78.06c-1.11,0-1.785-.345-1.785-.945,0-.42.345-.69.885-.69C-66.27,41.54-65.7,42.08-65.43,43.115ZM-47.775,31.55a7.436,7.436,0,0,1-1.095,1.245,33.621,33.621,0,0,1-3.465,2.925,9.2,9.2,0,0,0-1.32,1.08,1.752,1.752,0,0,0-.5,1.215c0,.69.27,1.1,1.26,1.86a47.576,47.576,0,0,1,3.87,3.195,14.489,14.489,0,0,1,1.95,2.055l1.545-1.56a3.74,3.74,0,0,1-.435-.375,50.419,50.419,0,0,0-4.725-3.915c-1.32-.99-1.35-1.02-1.35-1.245,0-.165.1-.285.57-.63,1.755-1.335,2.805-2.175,3.57-2.88a22.882,22.882,0,0,1,1.845-1.65Zm11.58,1.725a27.15,27.15,0,0,0,5.85,1.875l.615-1.725a22.5,22.5,0,0,1-5.6-1.665Zm-1.2,1.32a6.121,6.121,0,0,1-.09.87c-.27,1.77-.51,3.435-.63,4.365-.075.57-.075.63-.12.9l1.89.06a3.265,3.265,0,0,1,.675-.645,6.827,6.827,0,0,1,3.735-1.1c1.59,0,2.535.6,2.535,1.6,0,1.275-1.47,2.16-3.585,2.16a12.109,12.109,0,0,1-4.035-.75A6.657,6.657,0,0,1-36.795,44a13.793,13.793,0,0,0,3.825.525,6.48,6.48,0,0,0,3.96-1.02,3.652,3.652,0,0,0,1.545-2.9c0-1.92-1.68-3.18-4.23-3.18a7.109,7.109,0,0,0-4.545,1.425l-.03-.03c.045-.225.045-.225.075-.435a31.74,31.74,0,0,1,.675-3.69Zm15-1.62a7.167,7.167,0,0,1,.06.96c.06,4.155.33,6.33.945,7.83.6,1.44,1.41,2.175,2.415,2.175,1.275,0,2.145-1.215,2.925-4.14a7.4,7.4,0,0,1-1.5-1.365,11.059,11.059,0,0,1-.8,2.715c-.18.42-.39.645-.615.645-.48,0-.96-.96-1.215-2.52a28.07,28.07,0,0,1-.285-4.02,17.438,17.438,0,0,1,.12-2.28ZM-14.82,34.4a13.093,13.093,0,0,1,2.13,3.69,15.206,15.206,0,0,1,.96,4.335l1.86-.7a14.955,14.955,0,0,0-3.375-8.07Zm19.08-.36a15.6,15.6,0,0,1,1.875.09V32.36a12.143,12.143,0,0,1-1.875.1H-2.655c.39-.8.39-.8.525-1.05l-1.8-.27a2.747,2.747,0,0,1-.33.945,10.9,10.9,0,0,1-2.715,3.39,6.171,6.171,0,0,1,1.17,1.17A14.032,14.032,0,0,0-3.57,34.04ZM2.58,43.6C1.635,42.755.885,42.14-.03,41.42a12.387,12.387,0,0,0,.975-1.245c.33-.45.495-.675.645-.84L-.015,38.57A5.478,5.478,0,0,1-1.32,40.49c-1.065-.72-1.56-1.035-2.655-1.665L-5.07,39.83a26.346,26.346,0,0,1,2.61,1.71,16.75,16.75,0,0,1-4.155,2.28A5.753,5.753,0,0,1-5.49,45.23a18.362,18.362,0,0,0,4.335-2.7,32.892,32.892,0,0,1,2.61,2.31Zm.345-5.19a13.893,13.893,0,0,0,.69,4.845c.42,1.14,1.185,1.92,1.86,1.92.915,0,1.38-.96,1.62-3.315a4.487,4.487,0,0,1-1.29-.9,4.947,4.947,0,0,1-.36,2.22,1.936,1.936,0,0,1-.525-1.02A14.756,14.756,0,0,1,4.5,38.3a10.268,10.268,0,0,1,.075-1.365,15.364,15.364,0,0,1-1.755.06H-4.8a7.411,7.411,0,0,1-1.29-.075v1.575a12.654,12.654,0,0,1,1.725-.09Zm-6.93-2.235a12.465,12.465,0,0,1,1.425-.06H3.4a11.194,11.194,0,0,1,1.59.075V34.7a12.555,12.555,0,0,1-1.59.075H-2.88a9.45,9.45,0,0,1-1.125-.06ZM20.28,39.815V39.44A8.636,8.636,0,0,1,20.355,38h-1.71a8.747,8.747,0,0,1,.075,1.44v.375h-.93a8.765,8.765,0,0,1-1.425-.075v1.59a9.159,9.159,0,0,1,1.4-.075h.96V43.28H16.98a9.442,9.442,0,0,1-1.44-.075V44.84a8.7,8.7,0,0,1,1.53-.09h4.89a8.434,8.434,0,0,1,1.5.09V43.205a12.84,12.84,0,0,1-1.5.075H20.28V41.255h1.4a8.559,8.559,0,0,1,1.335.075V39.74a6.987,6.987,0,0,1-1.305.075Zm-6.495,3.12h1.2a6.367,6.367,0,0,1,1.26.09v-1.5a7.52,7.52,0,0,1-1.2.06h-1.26V40.7h.8c.735,0,1.02.015,1.4.045-.03-.42-.045-.93-.045-1.665V37.64a3.65,3.65,0,0,1,.735,1.14,13.3,13.3,0,0,0,2.97-1.725,11.65,11.65,0,0,0,3.21,1.695,4.824,4.824,0,0,1,.84-1.425,9.026,9.026,0,0,1-2.97-1.245,11.581,11.581,0,0,0,1.95-2.58c.165-.27.255-.39.375-.585l-.9-.945a5.132,5.132,0,0,1-1.11.075H17.7a9.556,9.556,0,0,1-1.515-.09v1.59a5.907,5.907,0,0,1,.66-.045,9.153,9.153,0,0,0,1.725,2.565A10.64,10.64,0,0,1,15.93,37.4v-.84c0-.855.015-1.14.045-1.53-.36.03-.63.045-1.365.045h-.825V34.13h.645a11.226,11.226,0,0,1,1.41.06V32.705a7.194,7.194,0,0,1-1.41.09h-.645a6.576,6.576,0,0,1,.09-1.425h-1.62a7.182,7.182,0,0,1,.09,1.425h-1.11a7.1,7.1,0,0,1-1.41-.09V34.19a12.687,12.687,0,0,1,1.41-.06h1.11v.945h-.66c-.765,0-1.11-.015-1.53-.045a15.89,15.89,0,0,1,.06,1.62v2.37c0,.72-.015,1.215-.06,1.725.525-.03.87-.045,1.53-.045h.66v.885H11.16a8.785,8.785,0,0,1-1.41-.075v1.515a7.377,7.377,0,0,1,1.41-.09h1.185v.78a10.516,10.516,0,0,1-.09,1.515h1.62a9.278,9.278,0,0,1-.09-1.44Zm-.045-3.5V38.375h.945V39.44Zm0-2.16v-.96h.945v.96Zm-1.35-.96v.96h-.9v-.96Zm0,2.055V39.44h-.9V38.375Zm8.52-4.89a5.513,5.513,0,0,1-1.29,1.725,6.8,6.8,0,0,1-1.26-1.725ZM29.46,44.36c-.015-.195-.015-.315-.015-.4A12.314,12.314,0,0,1,30.78,39.41l-1.2-.54a15.3,15.3,0,0,0-.78,1.98c.015-.375.03-.495.03-.825a25.045,25.045,0,0,1,.225-3.315A20.68,20.68,0,0,1,30,32.225l-1.98-.21a9.815,9.815,0,0,1-.225,1.4,28.8,28.8,0,0,0-.615,5.865,26.164,26.164,0,0,0,.39,4.485c.045.345.06.435.075.705Zm2.07-8.985a17.806,17.806,0,0,0,2.7.165,26.868,26.868,0,0,0,3.21-.18c.72-.09.945-.12,1.065-.135l-.09-1.815a16.541,16.541,0,0,1-4.08.4,10.815,10.815,0,0,1-2.775-.24Zm1.035,2.475a4.9,4.9,0,0,0-1.38,3.09,2.513,2.513,0,0,0,.45,1.47c.66.885,1.86,1.305,3.72,1.305a18.5,18.5,0,0,0,3.1-.285,5.013,5.013,0,0,1,.615-.09l-.15-1.9a10.541,10.541,0,0,1-3.57.57c-1.56,0-2.385-.45-2.385-1.305a3.393,3.393,0,0,1,1.065-2.16Zm11.4-3.09a6.424,6.424,0,0,1,.78-.045c1.335-.015,1.92-.03,3.435-.075a3.384,3.384,0,0,1-.51.93H44.52a12.848,12.848,0,0,1-1.755-.09v1.575c.48-.045,1.11-.075,1.785-.075h1.725a9.74,9.74,0,0,1-3.855,1.68,3.861,3.861,0,0,1,.945,1.335A11.38,11.38,0,0,0,48.4,36.98h2.1a10.512,10.512,0,0,0,5.235,3.315,3.711,3.711,0,0,1,.84-1.47,8.181,8.181,0,0,1-4.155-1.845H54.48a17.643,17.643,0,0,1,1.77.075V35.48a12.314,12.314,0,0,1-1.785.09h-5.01c.225-.4.315-.585.51-1.005,1.455-.09,2.19-.135,3.225-.255l.885,1.005,1.335-.81a23.563,23.563,0,0,0-3.36-2.925l-1.26.66c.615.45.795.585,1.26.96-1.305.1-1.62.12-4.17.165.435-.51.855-1.08,1.23-1.6a2.194,2.194,0,0,1,.135-.195L47.49,31.19a9.893,9.893,0,0,1-1.455,2.19c-1.035-.015-1.8-.045-2.28-.09Zm9.54,5.895a6.554,6.554,0,0,1-1.56,1.215A16.386,16.386,0,0,1,44.61,44a4.474,4.474,0,0,1,.765,1.44,19.959,19.959,0,0,0,6.255-1.77,16.473,16.473,0,0,0,3.225-2.115Zm-3.66-3.165a5.568,5.568,0,0,1-1.05.81,11.1,11.1,0,0,1-4.425,1.485,3.351,3.351,0,0,1,.735,1.29A14.181,14.181,0,0,0,48.96,39.8a18.732,18.732,0,0,0,2.175-1.335Zm1.695,1.56a5.4,5.4,0,0,1-1.455,1.05,15.3,15.3,0,0,1-5.73,1.74,3.4,3.4,0,0,1,.8,1.35,18.018,18.018,0,0,0,4.335-1.23,14.349,14.349,0,0,0,3.375-2.01Zm11.595-5.085c.045-1.32.045-1.32.045-1.6a5.308,5.308,0,0,1,.09-.99h-1.8a7.85,7.85,0,0,1,.09,1.335c0,.795,0,.825-.015,1.26H60.87a11.025,11.025,0,0,1-1.65-.09V35.63a10.516,10.516,0,0,1,1.515-.09h.75a18.789,18.789,0,0,1-.705,4.305,9.639,9.639,0,0,1-1.995,3.735,6.707,6.707,0,0,1,1.23,1.53,12.477,12.477,0,0,0,2.3-4.59,22.738,22.738,0,0,0,.765-4.98h1.44c-.03,2.19-.03,2.19-.09,3.51a20.894,20.894,0,0,1-.39,3.555c-.135.495-.27.6-.69.6a9.389,9.389,0,0,1-1.47-.18,5.145,5.145,0,0,1,.27,1.6,14.366,14.366,0,0,0,1.575.1c1.23,0,1.665-.39,1.935-1.71a39.258,39.258,0,0,0,.45-6.675A18.983,18.983,0,0,1,66.18,33.9a16.441,16.441,0,0,1-1.68.06Zm5.535,9.72h2.205V44.75H72.57a12.589,12.589,0,0,1-.09-1.665v-8.6a11.889,11.889,0,0,1,.075-1.575,8.649,8.649,0,0,1-1.35.075h-2.85A9.007,9.007,0,0,1,67,32.915a11.887,11.887,0,0,1,.075,1.575V43.1a13.935,13.935,0,0,1-.09,1.725h1.68Zm0-9.2h2.205v7.7H68.67ZM76.215,35.5a18.825,18.825,0,0,1,2.49-.3c2.91-.21,3.84-.3,5.055-.48a6.633,6.633,0,0,0-2.085,1.515,5.223,5.223,0,0,0-1.425,3.525,4.013,4.013,0,0,0,2.145,3.615,9.024,9.024,0,0,0,3.51.99c.285.045.315.045.51.09l.27-2.04c-.15.015-.285.015-.3.015a9.1,9.1,0,0,1-2.235-.39,2.519,2.519,0,0,1-2-2.445c0-1.515,1.125-3.015,3.03-4.005a6.708,6.708,0,0,1,2.97-.81,2.323,2.323,0,0,1,.315.015l-.105-1.9a8.082,8.082,0,0,1-1.545.12c-4,.195-6.57.33-7.665.39-2.205.15-2.205.15-2.475.15-.075,0-.24,0-.57-.015Zm9.18,1.44A10.124,10.124,0,0,1,86.97,39.17l1.05-.555a9.721,9.721,0,0,0-1.575-2.205Zm4.41.7a8.675,8.675,0,0,0-1.56-2.115l-1.005.525a11.052,11.052,0,0,1,1.53,2.175Zm3.78-2.28c.315-.015.39-.03,1.02-.03a36.162,36.162,0,0,0,4.02-.21c.12.27.165.36.315.675.12.285.18.375.27.555a29.51,29.51,0,0,1-4.245.285,8.89,8.89,0,0,1-1.545-.06l.06,1.635c.255-.03.36-.03.615-.045A43.059,43.059,0,0,0,99.9,37.76a9.031,9.031,0,0,0,1.155,1.68,10.337,10.337,0,0,0-2.6-.315,6.686,6.686,0,0,0-3.5.75,2.5,2.5,0,0,0-1.26,2.085,2.416,2.416,0,0,0,1.155,2.055,6.858,6.858,0,0,0,3.66.735,14.442,14.442,0,0,0,3.84-.51,7.419,7.419,0,0,1,.975-.225l-.27-1.845a11.65,11.65,0,0,1-4.62.975,5.847,5.847,0,0,1-2.145-.33.989.989,0,0,1-.645-.87,1.082,1.082,0,0,1,.645-.915,5.786,5.786,0,0,1,2.52-.42,8.066,8.066,0,0,1,3.45.615l1.32-.945a15,15,0,0,1-2.01-2.745c.18-.045.18-.045.555-.12s.855-.18,1.47-.33c.345-.09.66-.15.945-.195l-.15-1.635a7.576,7.576,0,0,1-1.425.435c-.09.015-.78.165-2.07.435a13.507,13.507,0,0,1-.585-1.23c.465-.06,2.13-.39,3.135-.63l.51-.1-.15-1.59a25.2,25.2,0,0,1-4.05.9,8.793,8.793,0,0,1-.615-1.815l-1.875.255c.015.03.225.495.6,1.365.12.27.12.27.165.39a26.659,26.659,0,0,1-3.09.165,12.584,12.584,0,0,1-1.44-.06Zm27.9,7.05c-.21-.12-.285-.18-.54-.345a13.417,13.417,0,0,0-4.11-2.115c-.015-.36-.015-.36-.06-1.815.585-.03.81-.045,1.02-.06,1.125-.1,1.8-.18,2.025-.21.345-.045.72-.09.975-.1l-.045-1.65a11.1,11.1,0,0,1-1.86.33c-1.38.15-1.38.15-2.13.2-.015-.93-.015-1.11-.03-1.485,1.32-.075,1.9-.12,3.225-.3a9.382,9.382,0,0,1,1.185-.135l-.075-1.665a20.294,20.294,0,0,1-4.32.57,9.3,9.3,0,0,1,.1-1.83h-1.9a10.7,10.7,0,0,1,.075,1.89c-.375.015-.885.03-1.125.03a19.724,19.724,0,0,1-4.035-.315l-.015,1.665h.24c.045,0,.165,0,.33.015,1,.075,2.94.15,3.675.15.225,0,.465,0,.945-.015.015.855.015,1.365.015,1.5-.42.015-.93.03-1.23.03a19.342,19.342,0,0,1-3.5-.255l-.03,1.62c.225,0,.375,0,.57.015,1.245.09,1.8.1,2.715.1.315,0,.78-.015,1.5-.03.015.6.015.6.03.81v.33a2.89,2.89,0,0,1,.015.36,7.837,7.837,0,0,0-1-.06c-2.52,0-4.005.96-4.005,2.6,0,1.485,1.26,2.34,3.45,2.34a3.993,3.993,0,0,0,2.475-.645,2.34,2.34,0,0,0,.84-2.025v-.165a6.674,6.674,0,0,1,.81.375,10.121,10.121,0,0,1,2.775,2.055Zm-6.33-1.155v.36a1.9,1.9,0,0,1-.18.96,1.558,1.558,0,0,1-1.305.48c-1.065,0-1.71-.345-1.71-.9,0-.645.735-1.035,1.95-1.035A5.265,5.265,0,0,1,115.155,41.255Zm19.02-5.235v-.975c1.185-.03,1.455-.03,1.815-.03,1.245,0,1.965.03,2.52.075l-.015-1.725c-.555.06-1.725.09-4.335.105a11.793,11.793,0,0,1,.075-1.785l-1.89.015a8.139,8.139,0,0,1,.09,1.815c-.78.03-.78.03-1.275.045-1.23.03-1.38.03-2.355.06-1.935.075-2.175.075-2.55.075a6.532,6.532,0,0,1-.735-.03l.06,1.785c.4-.06.4-.06,2.67-.225.66-.045,2.07-.09,4.215-.15,0,.4,0,1.245.015,1.275a.618.618,0,0,0,.015.18,2.507,2.507,0,0,0-1.56-.45,2.761,2.761,0,0,0-2.985,2.73,2.344,2.344,0,0,0,1.035,2.025,2.764,2.764,0,0,0,1.74.54,2.471,2.471,0,0,0,2.2-1.065,3.157,3.157,0,0,1-1.74,2.19,7.079,7.079,0,0,1-2.55.87,4.923,4.923,0,0,1,1.065,1.695,10.486,10.486,0,0,0,2.715-1.23,4.813,4.813,0,0,0,2.235-4.05,4.565,4.565,0,0,0-.48-2.115c0-.18-.015-.3-.015-.36Zm-1.725,2.475a1.367,1.367,0,0,1-1.47,1.35,1.184,1.184,0,0,1-1.275-1.185,1.314,1.314,0,0,1,1.4-1.2C131.925,37.46,132.45,37.865,132.45,38.495Zm16.935,2.49a5.357,5.357,0,0,1-.03-.63c0-.21,0-.21.03-1.08l.21-5.1c.03-.645.09-1.425.135-1.83h-2.46c.06.42.1,1.17.135,1.83l.21,5.1c.045.9.045.9.045,1.065s-.015.33-.03.645Zm.21,3.285V42.215H147.42V44.27Z" transform="translate(176.612 126)" fill="#222"/>
  <path id="logo_yubitoma" d="M172.175,449a2.077,2.077,0,0,1-2.078,2.078h-21.82a2.078,2.078,0,1,1,0-4.156h15.585v-7.273a3.117,3.117,0,0,0-3.117-3.117h-8.312a2.078,2.078,0,0,1,0-4.156h8.312a7.273,7.273,0,0,1,7.273,7.273v7.273H170.1A2.077,2.077,0,0,1,172.175,449Zm25.976-8.312a2.078,2.078,0,1,0,0-4.156H182.565v-2.078a2.078,2.078,0,1,0-4.156,0V443.8a7.273,7.273,0,0,0,7.273,7.273h12.468a2.078,2.078,0,1,0,0-4.156H185.682a3.117,3.117,0,0,1-3.117-3.117v-3.117Zm0-10.39a2.078,2.078,0,1,0,2.078,2.078A2.078,2.078,0,0,0,198.151,430.3Zm-6.234,4.156a2.078,2.078,0,1,0-2.078-2.078A2.077,2.077,0,0,0,191.917,434.452ZM226.2,436.53H210.619v-2.078a2.078,2.078,0,1,0-4.156,0V449a2.078,2.078,0,0,0,4.156,0v-8.312H226.2a2.078,2.078,0,1,0,0-4.156Zm25.976-4.156H234.517a2.078,2.078,0,0,0,0,4.156H250.1v2.078a3.117,3.117,0,0,1-3.117,3.117h-8.312a2.07,2.07,0,0,0-1.274,3.708l-.018.018,5.017,5.016a2.078,2.078,0,1,0,2.938-2.938l-1.648-1.648h3.3a7.273,7.273,0,0,0,7.273-7.273v-4.156A2.077,2.077,0,0,0,252.18,432.374Zm-122.606,5.2v18.7a2.078,2.078,0,0,1-4.156,0V444.843h-6.234v12.468a2.053,2.053,0,0,1-.023.228c.009.1.023.193.023.292,0,2.582-3.256,4.676-7.273,4.676s-7.273-2.094-7.273-4.676,3.256-4.676,7.273-4.676a10.664,10.664,0,0,1,3.117.456V437.569a7.273,7.273,0,0,1,14.546,0Zm-14.546,20.261c0-.86-1.4-1.559-3.117-1.559s-3.117.7-3.117,1.559,1.4,1.559,3.117,1.559S115.028,458.691,115.028,457.831Zm10.39-20.261a3.117,3.117,0,0,0-6.234,0v3.117h6.234ZM122.3,420.945a16.623,16.623,0,0,0-9.351,30.368V445.8a12.468,12.468,0,1,1,18.7,0v5.515a16.623,16.623,0,0,0-9.351-30.368Z" transform="translate(-1.638 -375.001)" fill="url(#linear-gradient)"/>
  <path id="Path_3380" data-name="Path 3380" d="M-134.892-8.16a8,8,0,0,1,1.248-.06h4.032a8,8,0,0,1,1.248.06v-.924a5.507,5.507,0,0,1-1.26.084h-4.008a5.507,5.507,0,0,1-1.26-.084Zm-1.032,2.76a11.046,11.046,0,0,1,1.392-.06h6.264a7.393,7.393,0,0,1-1.944,3.144,8.237,8.237,0,0,1-3.564,1.824,2.611,2.611,0,0,1,.516.828c3.108-1.044,4.764-2.58,5.784-5.376a3.48,3.48,0,0,1,.336-.756l-.444-.516a2.026,2.026,0,0,1-.78.084h-6.156a8.634,8.634,0,0,1-1.4-.072Zm20.94-4.128a10.073,10.073,0,0,1-2.292,2.268A16.9,16.9,0,0,1-123.5-4.152a2.778,2.778,0,0,1,.468.8,18.759,18.759,0,0,0,4.632-2.1v4.56A6.255,6.255,0,0,1-118.476.36h1.044a7.972,7.972,0,0,1-.06-1.272V-6.024a21.135,21.135,0,0,0,2.808-2.412,2.716,2.716,0,0,1,.528-.5ZM-101.76-8.2a1.7,1.7,0,0,1-.78.1h-5.676a8.6,8.6,0,0,1-1.356-.072v.96a8.344,8.344,0,0,1,1.344-.072h6.108A8.873,8.873,0,0,1-105.9-1.56a9.208,9.208,0,0,1-2.712,1.272,2.33,2.33,0,0,1,.588.828,10.835,10.835,0,0,0,2.208-1.068,10.328,10.328,0,0,0,2.952-2.748,11.974,11.974,0,0,0,1.56-3.468c.168-.624.168-.624.252-.744Zm.744-2.04a8.357,8.357,0,0,1,1.08,1.656l.612-.276a9.447,9.447,0,0,0-1.092-1.632Zm-1.14.468a7.8,7.8,0,0,1,1.068,1.656l.612-.276a8.735,8.735,0,0,0-1.08-1.632Zm8.136.036a12.346,12.346,0,0,1-.408,2.256c-.228,0-.624.012-.864.012a7.583,7.583,0,0,1-1.428-.1l-.012.828h.156c.036,0,.132,0,.264.012.18,0,.588.012.792.012.18,0,.588-.012.888-.024a17.968,17.968,0,0,1-1.248,3.1,10.594,10.594,0,0,1-1.152,1.872l.816.48c.06-.1.132-.24.24-.408.456-.792.564-1,.852-1.572a22.357,22.357,0,0,0,1.332-3.5,14.487,14.487,0,0,0,1.968-.252c.288-.048.288-.048.42-.072l-.036-.828a9.986,9.986,0,0,1-2.148.4c.168-.612.24-.9.324-1.308a3.758,3.758,0,0,1,.192-.768Zm7.068,3.312A16.539,16.539,0,0,0-90.12-8l-.444.672A13.015,13.015,0,0,1-87.384-5.7Zm.024,5.316a1.215,1.215,0,0,1-.216-.192A8.62,8.62,0,0,0-89.5-2.748a14.315,14.315,0,0,1-.132-1.824,3.683,3.683,0,0,1,.156-1.116l-.816-.084a4.859,4.859,0,0,0-.12,1.164c0,.3.024.864.084,1.644a3.96,3.96,0,0,0-1.212-.18,3.507,3.507,0,0,0-1.416.264,1.7,1.7,0,0,0-1.116,1.524c0,1.068.9,1.74,2.34,1.74,1.464,0,2.28-.684,2.28-1.92a2.488,2.488,0,0,0-.024-.384,6.864,6.864,0,0,1,2.1,1.632ZM-90.264-2.2s.024.372.024.516c0,.9-.468,1.308-1.5,1.308-.948,0-1.524-.372-1.524-.984,0-.66.648-1.08,1.668-1.08A3.561,3.561,0,0,1-90.264-2.2Zm10.032-7.416c-.072.36-.336,1.116-1.644,4.584C-83.6-.42-83.6-.42-83.76-.084l.924.288a12.283,12.283,0,0,1,1.1-2.76c.672-1.14,1.452-1.776,2.148-1.776a.642.642,0,0,1,.684.444,2.589,2.589,0,0,1,.1.912v.684A4.947,4.947,0,0,0-78.7-1,1.688,1.688,0,0,0-76.944.084a2.794,2.794,0,0,0,2.388-1.308A6.482,6.482,0,0,0-73.7-3.336a3.425,3.425,0,0,1-.792-.612,5.255,5.255,0,0,1-.456,1.7,2.076,2.076,0,0,1-1.92,1.5,1.118,1.118,0,0,1-.912-.372,2.04,2.04,0,0,1-.192-1.14v-.816a3.027,3.027,0,0,0-.2-1.356,1.332,1.332,0,0,0-1.2-.708c-.852,0-1.464.432-2.256,1.572l-.06-.024a1.805,1.805,0,0,1,.108-.216l.132-.264a20.34,20.34,0,0,0,.864-1.98c1.176-3.012,1.176-3.012,1.332-3.3Zm9.048,2.64a35.247,35.247,0,0,1,4.14-.4,23.254,23.254,0,0,0,2.64-.264A7.855,7.855,0,0,0-65.544-7a4.549,4.549,0,0,0-2.244,3.684A2.921,2.921,0,0,0-66.456-.864,6.053,6.053,0,0,0-63.864.06c.192.036.24.048.372.072l.156-.972h-.12a6.15,6.15,0,0,1-1.8-.384,2.353,2.353,0,0,1-1.68-2.22A3.668,3.668,0,0,1-65.46-6.216a6.094,6.094,0,0,1,2.3-1.212,5.566,5.566,0,0,1,1.344-.156l-.072-.9a8.055,8.055,0,0,1-1.428.132c-1.548.072-5.388.288-6.816.4-.372.024-.516.036-.684.036h-.432Zm15.156-1.536a9.673,9.673,0,0,1,.648,1.164l.636-.252c-.324-.528-.348-.564-.588-.912h.828a9.519,9.519,0,0,1,1.116.048v-.732a7.272,7.272,0,0,1-1.2.072h-1.8c.156-.264.2-.348.42-.744l-.744-.24a4.661,4.661,0,0,1-.864,1.512A5.881,5.881,0,0,1-58.668-7.5a1.7,1.7,0,0,1,.54.516,8.809,8.809,0,0,0,1.344-1.524Zm4.836.012a8.107,8.107,0,0,1,.768,1.188l.612-.264a8.492,8.492,0,0,0-.636-.924h1.164a9.847,9.847,0,0,1,1.26.06V-9.18a7.553,7.553,0,0,1-1.284.072H-52c.18-.372.228-.48.372-.8l-.732-.18a5.648,5.648,0,0,1-1.32,2.328,1.935,1.935,0,0,1,.588.36A7.322,7.322,0,0,0-52.332-8.5Zm1.956,4.3V-.216c0,.276-.1.348-.468.348A8.309,8.309,0,0,1-50.88.024a2.221,2.221,0,0,1,.228.756c.276.012.576.024.936.024.96,0,1.212-.192,1.212-.948V-5.928a10.828,10.828,0,0,1,.06-1.332,11.487,11.487,0,0,1-1.272.048H-51.6c-.516,0-.792-.012-1.08-.036.024.264.036.564.036.936v1.224c0,.36-.012.66-.036.924.384-.024.732-.036,1.26-.036ZM-51.96-6.66h2.724v.7H-51.96Zm0,1.212h2.724v.708H-51.96Zm-4.692-1.764c-.54,0-.852-.012-1.188-.036a13.082,13.082,0,0,1,.048,1.32v5.5A8.969,8.969,0,0,1-57.864.912h.888a6.889,6.889,0,0,1-.072-1.32V-4.2h1.992c.552,0,.84.012,1.272.036a9.172,9.172,0,0,1-.036-.924V-6.312c0-.408.012-.7.036-.936-.3.024-.588.036-1.08.036Zm-.4.552H-54.5v.7h-2.544Zm0,1.212H-54.5v.708h-2.544Zm5.976,2.916a9.613,9.613,0,0,1,.048-1.128,10.9,10.9,0,0,1-1.236.048h-1.98a10.128,10.128,0,0,1-1.176-.048c.024.324.048.66.048,1.128V-.8a9.651,9.651,0,0,1-.048,1.08h.72v-.54h2.436a11.312,11.312,0,0,1,1.236.048,9.39,9.39,0,0,1-.048-1.116ZM-54.7-3.048h2.94v.816H-54.7Zm0,1.38h2.94V-.84H-54.7Zm14.208-1.5v1.14H-44.1A8.073,8.073,0,0,1-45.312-2.1v.84a9.087,9.087,0,0,1,1.248-.072h3.576v1.1A5.335,5.335,0,0,1-40.56.9h.9a4.837,4.837,0,0,1-.084-1.128v-1.1H-36a8.915,8.915,0,0,1,1.26.072V-2.1a7.964,7.964,0,0,1-1.212.072h-3.792v-1.14h2.64c.432,0,.78.012,1.188.048A9.365,9.365,0,0,1-35.964-4.3V-6.444a10.2,10.2,0,0,1,.048-1.2A8.981,8.981,0,0,1-37.1-7.6h-.36a13.38,13.38,0,0,0,1.3-1.932L-37-9.84A9.752,9.752,0,0,1-38.3-7.6H-42.96a9,9,0,0,1-1.176-.048,10.46,10.46,0,0,1,.048,1.2V-4.26a10.383,10.383,0,0,1-.048,1.14,11.791,11.791,0,0,1,1.188-.048Zm.744-2.592v-1.2h3.036v1.2Zm-.744,0h-2.856v-1.2h2.856Zm.744,1.944v-1.32h3.036v1.32Zm-.744,0h-2.856v-1.32h2.856ZM-42.12-7.992a10.275,10.275,0,0,0-1.248-1.716l-.684.324a6.4,6.4,0,0,1,1.212,1.74Zm2.772-.2A9.511,9.511,0,0,0-40.4-10.008l-.708.24A6.959,6.959,0,0,1-40.08-7.884Zm8.856-1.164a6.681,6.681,0,0,1-.168.96,19.852,19.852,0,0,0-.54,4.752,17.2,17.2,0,0,0,.312,3.4c.036.228.048.288.072.48l.864-.072v-.18a10.46,10.46,0,0,1,.972-3.3l-.576-.276a11.149,11.149,0,0,0-.78,2.34c-.048-.636-.072-1.344-.072-2.28a17.74,17.74,0,0,1,.36-3.756,17.051,17.051,0,0,1,.5-1.92Zm2.472,2.268a15.984,15.984,0,0,0,1.92.12,20.258,20.258,0,0,0,2.58-.156q.792-.108.828-.108l-.06-.852a12.876,12.876,0,0,1-3.216.324,8.15,8.15,0,0,1-2.04-.18Zm.876,2.34A3.315,3.315,0,0,0-28.188-2.52a1.7,1.7,0,0,0,.36,1.1A3.335,3.335,0,0,0-25.08-.5a12.38,12.38,0,0,0,2.46-.24c.24-.036.264-.048.42-.06l-.12-.924a7.9,7.9,0,0,1-2.76.42c-1.548,0-2.3-.432-2.3-1.32a2.788,2.788,0,0,1,.9-1.764Zm15.96-1.524a7.369,7.369,0,0,1,1.08,1.7l.612-.312a8.488,8.488,0,0,0-1.1-1.68Zm1.164-.564a7.825,7.825,0,0,1,1.092,1.7l.6-.312a8.488,8.488,0,0,0-1.1-1.68ZM-18.48-7a35.247,35.247,0,0,1,4.14-.4,23.255,23.255,0,0,0,2.64-.264,7.855,7.855,0,0,0-1.14.636,4.566,4.566,0,0,0-2.244,3.684A2.905,2.905,0,0,0-13.752-.888,6.053,6.053,0,0,0-11.16.036c.192.036.24.048.372.072l.156-.972h-.12a6.15,6.15,0,0,1-1.8-.384,2.353,2.353,0,0,1-1.68-2.22A3.668,3.668,0,0,1-12.756-6.24a5.9,5.9,0,0,1,2.3-1.2,5.033,5.033,0,0,1,1.344-.168L-9.18-8.5a11.465,11.465,0,0,1-1.428.132c-1.548.06-5.388.288-6.816.4-.372.024-.516.036-.684.036-.084,0-.2,0-.432-.012Zm13.92.012a6.549,6.549,0,0,1,.744-.036,25.529,25.529,0,0,0,3.24-.216c.3.648.372.78.684,1.368a23.905,23.905,0,0,1-3.78.3,9.327,9.327,0,0,1-.96-.036l.024.792c.216-.024.264-.024.84-.048A25,25,0,0,0,.444-5.208,11,11,0,0,0,1.728-3.36,7.213,7.213,0,0,0-.7-3.708c-2.28,0-3.66.78-3.66,2.076a1.676,1.676,0,0,0,.9,1.488A4.842,4.842,0,0,0-.984.36,10.452,10.452,0,0,0,2.088-.084a6.988,6.988,0,0,1,.72-.2L2.64-1.224a8.089,8.089,0,0,1-3.552.8c-1.644,0-2.556-.432-2.556-1.224,0-.828,1.116-1.368,2.844-1.368A12.132,12.132,0,0,1,.948-2.9a3.254,3.254,0,0,1,1.32.456l.708-.5A14.065,14.065,0,0,1,1.212-5.34c.444-.084,1.044-.216,1.884-.432.4-.108.444-.108.648-.156l-.1-.8A12.207,12.207,0,0,1,.9-5.988C.72-6.312.4-6.948.216-7.344c.672-.108,1.956-.384,3.024-.672L3.168-8.8A15.181,15.181,0,0,1-.036-8,9.994,9.994,0,0,1-.672-9.7l-.9.156A15.54,15.54,0,0,1-.852-7.9,23.71,23.71,0,0,1-3.7-7.728c-.408,0-.612-.012-.9-.036ZM9.672-8.04a5.912,5.912,0,0,1,.648-.06c1.824-.06,3.264-.144,3.648-.216a.464.464,0,0,1,.108-.012L14.1-8.3l-.048.048L14-8.208l-.168.168c-.828.816-2.724,2.484-4.008,3.5a13.369,13.369,0,0,1-1.68,1.224l.54.768A7.7,7.7,0,0,1,13.74-4.6c1.62,0,2.58.684,2.58,1.836,0,1.02-.66,1.752-1.92,2.1a3.435,3.435,0,0,0-.552-1.152,2.417,2.417,0,0,0-1.98-.984,1.559,1.559,0,0,0-1.74,1.4c0,1.1.972,1.728,2.664,1.728,2.664,0,4.4-1.236,4.4-3.108,0-1.536-1.284-2.52-3.288-2.52a6.08,6.08,0,0,0-2.94.744l-.024-.036a30.792,30.792,0,0,0,3.948-3.408,2.215,2.215,0,0,1,.612-.5l-.5-.66a1.227,1.227,0,0,1-.576.132c-1.08.084-2.676.156-3.672.156A5.542,5.542,0,0,1,9.624-8.94Zm3.936,7.6a4.321,4.321,0,0,1-.876.084,3.066,3.066,0,0,1-1.344-.276.819.819,0,0,1-.48-.732c0-.456.372-.744.972-.744C12.744-2.112,13.344-1.536,13.608-.444Zm13.02-7.512a3.453,3.453,0,0,1,1.392.3,3.163,3.163,0,0,1,1.908,3.012A3.622,3.622,0,0,1,27.8-1.284a7.193,7.193,0,0,1-2,.564,1.907,1.907,0,0,1,.42.8,9.283,9.283,0,0,0,1.824-.552,4.369,4.369,0,0,0,2.748-4.14,4.017,4.017,0,0,0-1.164-2.928,4.645,4.645,0,0,0-3.3-1.188,5.012,5.012,0,0,0-3.876,1.6,4.992,4.992,0,0,0-1.26,3.312c0,1.68.852,2.928,1.992,2.928.864,0,1.572-.72,2.268-2.3A17.988,17.988,0,0,0,26.628-7.956Zm-.864.012A16.482,16.482,0,0,1,24.672-3.5c-.516,1.176-1,1.74-1.5,1.74-.648,0-1.152-.888-1.152-2.04A4.15,4.15,0,0,1,23.976-7.38,3.79,3.79,0,0,1,25.764-7.944Zm13.68,5.7A4.729,4.729,0,0,1,39.4-2.9a1.77,1.77,0,0,1,.312-1.1,3.956,3.956,0,0,1,1.08-.9A3.244,3.244,0,0,0,41.88-5.952a2.263,2.263,0,0,0,.288-1.164c0-1.284-1.212-2.22-2.868-2.22a3.454,3.454,0,0,0-2.28.708,2.94,2.94,0,0,0-.984,1.68l1.008.156a2.36,2.36,0,0,1,.432-.984,2.19,2.19,0,0,1,1.788-.756c1.14,0,1.932.624,1.932,1.524a1.432,1.432,0,0,1-.42,1,5.56,5.56,0,0,1-.816.648,3.449,3.449,0,0,0-1.056.9,2.175,2.175,0,0,0-.444,1.44,3.7,3.7,0,0,1-.048.78ZM38.352-1.128V0h1.164V-1.128ZM50.1-9.42a4.014,4.014,0,0,1,.2.756A24.445,24.445,0,0,0,51.18-5.3a7.472,7.472,0,0,0-1.572.972,2.6,2.6,0,0,0-1.068,2.04A1.992,1.992,0,0,0,50.028-.324,8.164,8.164,0,0,0,52.692,0a24.072,24.072,0,0,0,2.652-.156,6.219,6.219,0,0,1,.888-.072l-.1-1A11.915,11.915,0,0,1,52.7-.816c-2.352,0-3.276-.42-3.276-1.512,0-1,.888-1.788,2.94-2.6A27.6,27.6,0,0,1,55.98-6.1l-.36-.912a6.489,6.489,0,0,1-.768.312c-1.86.648-2.2.78-2.9,1.068a20.871,20.871,0,0,1-.9-3.972ZM69.708-8.256a9.641,9.641,0,0,1,.048-1.164,7.5,7.5,0,0,1-1.128.06H62.58a7.5,7.5,0,0,1-1.128-.06A10.164,10.164,0,0,1,61.5-8.256v2.928a9.785,9.785,0,0,1-.048,1.116,10.267,10.267,0,0,1,1.116-.06h6.06a8.21,8.21,0,0,1,1.128.06,9.261,9.261,0,0,1-.048-1.116ZM65.184-8.7v1.524H62.232V-8.7Zm.708,1.524V-8.7h3.084v1.524Zm-.708.648v1.6H62.232v-1.6Zm.708,1.6v-1.6h3.084v1.6ZM60.924.264a6.522,6.522,0,0,0,.816-1.332A10.626,10.626,0,0,0,62.484-3.1l-.732-.252a6.767,6.767,0,0,1-.684,1.92,4.686,4.686,0,0,1-.828,1.2Zm3.228-2.592a5.214,5.214,0,0,1,.072-1.1h-.9a4.756,4.756,0,0,1,.072,1.1v1.86C63.4.444,63.756.6,65.748.6c1.572,0,2.268-.084,2.58-.312s.408-.588.528-1.764a2.365,2.365,0,0,1-.744-.3A3.1,3.1,0,0,1,67.9-.4c-.168.228-.624.288-2,.288-1.536,0-1.74-.06-1.74-.516Zm3.132.492a12.275,12.275,0,0,0-1.728-1.992l-.564.4a7.793,7.793,0,0,1,1.68,2.076Zm3.84,1.5a15.516,15.516,0,0,0-1.98-3.1l-.588.36A11.573,11.573,0,0,1,70.44.132Zm4.98-8.3a21.846,21.846,0,0,0,5.04.792l.132-.864a15.143,15.143,0,0,1-4.884-.744Zm-1.248,3.9a16.757,16.757,0,0,1,4.572-.8A3.342,3.342,0,0,1,80.9-5.28a1.456,1.456,0,0,1,.768,1.344A2.686,2.686,0,0,1,81.06-2.3a2.938,2.938,0,0,1-1.032.852,7.618,7.618,0,0,1-3.372.972A3.045,3.045,0,0,1,77.04.4a9.216,9.216,0,0,0,3.48-1.14,3.824,3.824,0,0,0,2.064-3.24,2.134,2.134,0,0,0-1.02-1.908A3.816,3.816,0,0,0,79.5-6.348a20.05,20.05,0,0,0-3.66.432,9.442,9.442,0,0,1-1.212.2Zm12.78-2.6a1.244,1.244,0,0,1,.192-.012,1.949,1.949,0,0,1,.216.012c.96.036,1.5.06,1.62.06h.48c-.06.876-.06.936-.072,1.812A4.09,4.09,0,0,0,87.288-1.9,1.638,1.638,0,0,0,88.836-.072a3.934,3.934,0,0,0,2.676-1.452,10.806,10.806,0,0,0,2.28-3.6c1.3.336,1.98,1.056,1.98,2.088a2.646,2.646,0,0,1-2.064,2.4,5.589,5.589,0,0,1-1.8.324,2.474,2.474,0,0,1,.384.8A6.606,6.606,0,0,0,94.74-.192a3.078,3.078,0,0,0,1.884-2.772,2.886,2.886,0,0,0-2.58-2.808c.2-.564.336-.888.372-.96l-.828-.252A4.506,4.506,0,0,1,93.3-5.9c-.3-.024-.444-.036-.7-.036a6.341,6.341,0,0,0-1.776.24c.012-.588.012-.588.084-1.608a33.616,33.616,0,0,0,4.248-.48c.228-.036.264-.036.42-.06l-.048-.84a18.44,18.44,0,0,1-4.572.672,7.978,7.978,0,0,1,.252-1.68l-.936-.06a1.274,1.274,0,0,1,.012.18c0,.084-.024.552-.036.684-.048.612-.048.612-.06.9-.216.012-.264.012-.3.012a8.4,8.4,0,0,1-2.244-.192Zm2.436,2.628a16.972,16.972,0,0,0,.24,3.252,2.167,2.167,0,0,1-1.38.612c-.516,0-.864-.432-.864-1.092A2.835,2.835,0,0,1,88.8-3.732,4.289,4.289,0,0,1,90.072-4.716Zm.888,2.748V-2.1a.792.792,0,0,0-.012-.168,20.183,20.183,0,0,1-.132-2.748,5.4,5.4,0,0,1,1.668-.276c.132,0,.192,0,.576.024a10.838,10.838,0,0,1-1.836,3A1.3,1.3,0,0,0,91-1.956Zm12.18-7.764a12.346,12.346,0,0,1-.408,2.256c-.228,0-.624.012-.864.012a7.583,7.583,0,0,1-1.428-.1l-.012.828h.156c.036,0,.132,0,.264.012.18,0,.588.012.792.012.18,0,.588-.012.888-.024a17.968,17.968,0,0,1-1.248,3.1,10.594,10.594,0,0,1-1.152,1.872l.816.48c.06-.1.132-.24.24-.408.456-.792.564-1,.852-1.572a22.357,22.357,0,0,0,1.332-3.5,14.487,14.487,0,0,0,1.968-.252c.288-.048.288-.048.42-.072l-.036-.828a9.986,9.986,0,0,1-2.148.4c.168-.612.24-.9.324-1.308a3.758,3.758,0,0,1,.192-.768Zm7.068,3.312A16.539,16.539,0,0,0,107.04-8l-.444.672a13.015,13.015,0,0,1,3.18,1.632Zm.024,5.316a1.215,1.215,0,0,1-.216-.192,8.62,8.62,0,0,0-2.352-1.452,14.315,14.315,0,0,1-.132-1.824,3.683,3.683,0,0,1,.156-1.116l-.816-.084a4.859,4.859,0,0,0-.12,1.164c0,.3.024.864.084,1.644a3.96,3.96,0,0,0-1.212-.18,3.507,3.507,0,0,0-1.416.264,1.7,1.7,0,0,0-1.116,1.524c0,1.068.9,1.74,2.34,1.74,1.464,0,2.28-.684,2.28-1.92a2.487,2.487,0,0,0-.024-.384,6.864,6.864,0,0,1,2.1,1.632ZM106.9-2.2s.024.372.024.516c0,.9-.468,1.308-1.5,1.308-.948,0-1.524-.372-1.524-.984,0-.66.648-1.08,1.668-1.08A3.561,3.561,0,0,1,106.9-2.2Zm6.816-4.5a1.787,1.787,0,0,1,.2-.012h.048c.468.024.576.024,1,.024.444,0,.588,0,.828-.012A24.134,24.134,0,0,1,113.532-.06l.876.372a31.619,31.619,0,0,0,1.38-3.66c.324-1.092.66-2.448.84-3.4a17.54,17.54,0,0,0,2.028-.288c.24-.048.24-.048.336-.06l-.06-.828a9.9,9.9,0,0,1-2.16.408c.06-.36.1-.528.156-.912a11.346,11.346,0,0,1,.216-1.14l-.948-.1a11.734,11.734,0,0,1-.264,2.208c-.348.024-.48.024-.72.024a8.276,8.276,0,0,1-1.5-.108Zm9.06.588c-.9-.036-1.08-.036-1.308-.036a13.6,13.6,0,0,0-3.18.4l.084.816a10.444,10.444,0,0,1,3-.408,12.047,12.047,0,0,1,1.416.084ZM118.4-3.516c-.636.816-.8,1.188-.8,1.728,0,1.188,1.02,1.8,2.988,1.8a12.025,12.025,0,0,0,2.136-.2c.4-.06.4-.06.528-.084l-.084-.9a8.916,8.916,0,0,1-2.652.408c-1.368,0-2.1-.384-2.1-1.1a1.444,1.444,0,0,1,.3-.852,4.022,4.022,0,0,1,.36-.456Zm9.5-5.844a6.683,6.683,0,0,1-.168.96,19.852,19.852,0,0,0-.54,4.752,17.2,17.2,0,0,0,.312,3.4c.036.228.048.288.072.48l.864-.072v-.18a10.46,10.46,0,0,1,.972-3.3l-.576-.276a11.149,11.149,0,0,0-.78,2.34c-.048-.636-.072-1.344-.072-2.28a17.74,17.74,0,0,1,.36-3.756,17.048,17.048,0,0,1,.5-1.92Zm2.472,2.268a15.984,15.984,0,0,0,1.92.12,20.258,20.258,0,0,0,2.58-.156q.792-.108.828-.108l-.06-.852a12.876,12.876,0,0,1-3.216.324,8.15,8.15,0,0,1-2.04-.18Zm.876,2.34a3.315,3.315,0,0,0-1.044,2.232,1.7,1.7,0,0,0,.36,1.1A3.335,3.335,0,0,0,133.32-.5a12.38,12.38,0,0,0,2.46-.24c.24-.036.264-.048.42-.06l-.12-.924a7.9,7.9,0,0,1-2.76.42c-1.548,0-2.3-.432-2.3-1.32a2.788,2.788,0,0,1,.9-1.764Z" transform="translate(178 31)" fill="#222"/>
</svg>
