<svg xmlns="http://www.w3.org/2000/svg" width="64.003" height="70.269" viewBox="0 0 64.003 70.269">
  <g id="Group_1965" data-name="Group 1965" transform="translate(-1073.5 -401.75)">
    <path id="Path_9281" data-name="Path 9281" d="M1133.124,442.741c-2.82-.427-5.648-.78-8.481-1.075V409.39a4.6,4.6,0,0,0-.51-2.146,4.385,4.385,0,0,0-.808-1.092,4.485,4.485,0,0,0-.51-.432,4.487,4.487,0,0,0-1.877-.8,4.316,4.316,0,0,0-4.258,1.655l-11.759,15.117-11.759-15.117a4.452,4.452,0,0,0-7.962,2.814v32.4q-3.667.405-7.321.954a1.631,1.631,0,0,0-1.38,1.615v10.724a1.625,1.625,0,0,0,1.866,1.608q6.786-1.009,13.62-1.509l9.418,12.108a4.439,4.439,0,0,0,6.292.758,4.568,4.568,0,0,0,.745-.758l4.559-5.862,4.914-6.316q7.383.5,14.724,1.58a1.625,1.625,0,0,0,1.866-1.608V444.356A1.631,1.631,0,0,0,1133.124,442.741Z" fill="#fff" stroke="#fff" stroke-linecap="round" stroke-linejoin="round" stroke-width="6"/>
    <g id="Group_1962" data-name="Group 1962" transform="translate(1085.201 404.845)">
      <path id="Path_9282" data-name="Path 9282" d="M1103.271,421.693l-11.759-15.117a4.452,4.452,0,0,0-7.962,2.814v34.848a6.454,6.454,0,0,0,1.354,3.959l14.85,19.091a4.439,4.439,0,0,0,7.034,0l14.85-19.091a6.453,6.453,0,0,0,1.354-3.959V409.39a4.452,4.452,0,0,0-7.963-2.814Z" transform="translate(-1083.55 -404.845)" fill="#ffc200"/>
    </g>
    <g id="Group_1963" data-name="Group 1963" transform="translate(1104.922 404.845)">
      <path id="Path_9283" data-name="Path 9283" d="M1111.289,406.576l-11.759,15.117v47.326a4.432,4.432,0,0,0,3.517-1.731L1117.9,448.2a6.453,6.453,0,0,0,1.354-3.959V409.39A4.452,4.452,0,0,0,1111.289,406.576Z" transform="translate(-1099.53 -404.845)" fill="#5dc200"/>
    </g>
    <path id="Path_9284" data-name="Path 9284" d="M1132.637,449.894a184.647,184.647,0,0,0-54.271,0,1.625,1.625,0,0,1-1.866-1.608V437.562a1.631,1.631,0,0,1,1.38-1.615,184.625,184.625,0,0,1,55.244,0,1.631,1.631,0,0,1,1.38,1.615v10.724A1.625,1.625,0,0,1,1132.637,449.894Z" transform="translate(0 6.795)" fill="#595757"/>
    <g id="Group_1964" data-name="Group 1964" transform="translate(1082.031 445.251)">
      <path id="Path_9285" data-name="Path 9285" d="M1086.659,441.72c.085.895-.584,1.434-1.728,1.548l-3.479.346-.47-4.969,3.278-.327c1.068-.106,1.823.27,1.9,1.087a1.08,1.08,0,0,1-.947,1.233C1085.974,440.613,1086.582,440.91,1086.659,441.72ZM1082,440.656l2.329-.231c.652-.065,1.074-.258,1.022-.8s-.5-.644-1.153-.58l-2.329.232Zm3.8,1.064c-.053-.562-.506-.7-1.234-.623l-2.5.249.141,1.476,2.5-.248C1085.432,442.5,1085.852,442.28,1085.8,441.72Z" transform="translate(-1080.982 -437.419)" fill="#fff"/>
      <path id="Path_9286" data-name="Path 9286" d="M1087.076,443.043l-.348-4.976.833-.06.348,4.976Z" transform="translate(-1079.637 -437.487)" fill="#fff"/>
      <path id="Path_9287" data-name="Path 9287" d="M1094.809,441.535a3.1,3.1,0,0,1-2.69,1.4c-1.919.093-3.114-.849-3.189-2.5s1.027-2.7,2.932-2.792a3.281,3.281,0,0,1,2.55.87l-.658.532a2.216,2.216,0,0,0-1.85-.654c-1.371.067-2.183.748-2.125,2s.943,1.855,2.341,1.788a2.108,2.108,0,0,0,1.868-.891l-.026-.569-2.031.1-.033-.734,2.839-.137Z" transform="translate(-1079.122 -437.572)" fill="#fff"/>
      <path id="Path_9288" data-name="Path 9288" d="M1095.091,442.633l-.1-4.99.834-.019.106,4.99Z" transform="translate(-1077.703 -437.577)" fill="#fff"/>
      <path id="Path_9289" data-name="Path 9289" d="M1102.735,437.606l-.019,4.99-.738,0-3.79-3.948-.015,3.934-.807,0,.019-4.988.891,0,3.631,3.8.014-3.784Z" transform="translate(-1077.146 -437.586)" fill="#fff"/>
      <path id="Path_9290" data-name="Path 9290" d="M1108.851,437.851l-.193,4.99-.737-.03-3.654-4.087-.152,3.933-.806-.033.191-4.988.891.037,3.5,3.931.146-3.784Z" transform="translate(-1075.755 -437.575)" fill="#fff"/>
      <path id="Path_9291" data-name="Path 9291" d="M1114.144,442.52l-.054.745-4.836-.365.359-4.977,4.767.362-.054.747-3.942-.3-.095,1.329,3.316.25-.054.748-3.316-.252-.1,1.407Z" transform="translate(-1074.363 -437.507)" fill="#fff"/>
      <path id="Path_9292" data-name="Path 9292" d="M1118.85,443.808l-1.311-1.968-2.041-.228-.191,1.8-.831-.093.527-4.962,3.294.367c1.128.125,1.9.771,1.792,1.8a1.543,1.543,0,0,1-1.59,1.381l1.375,2.018Zm-.866-2.658c.692.078,1.187-.1,1.253-.713s-.381-.9-1.074-.974l-2.415-.269-.179,1.687Z" transform="translate(-1073.141 -437.405)" fill="#fff"/>
    </g>
  </g>
</svg>
