<svg xmlns="http://www.w3.org/2000/svg" width="98.001" height="98" viewBox="0 0 98.001 98">
  <g id="Group_980" data-name="Group 980" transform="translate(-218 -8080)">
    <g id="Group_979" data-name="Group 979" transform="translate(0)">
      <path id="Exclusion_1" data-name="Exclusion 1" d="M-416,21729a48.69,48.69,0,0,1-19.071-3.852,48.822,48.822,0,0,1-15.574-10.5,48.863,48.863,0,0,1-10.5-15.576A48.7,48.7,0,0,1-465,21680a48.672,48.672,0,0,1,3.851-19.07,48.8,48.8,0,0,1,10.5-15.574,48.847,48.847,0,0,1,15.574-10.5A48.691,48.691,0,0,1-416,21631a48.7,48.7,0,0,1,19.075,3.852,48.851,48.851,0,0,1,15.576,10.5,48.8,48.8,0,0,1,10.5,15.574A48.671,48.671,0,0,1-367,21680a48.7,48.7,0,0,1-3.851,19.074,48.863,48.863,0,0,1-10.5,15.576,48.824,48.824,0,0,1-15.576,10.5A48.7,48.7,0,0,1-416,21729Zm.5-90a41.242,41.242,0,0,0-16.154,3.26,41.4,41.4,0,0,0-13.191,8.895,41.366,41.366,0,0,0-8.893,13.191A41.251,41.251,0,0,0-457,21680.5a41.251,41.251,0,0,0,3.261,16.154,41.349,41.349,0,0,0,8.893,13.189,41.387,41.387,0,0,0,13.191,8.895A41.242,41.242,0,0,0-415.5,21722a41.242,41.242,0,0,0,16.154-3.26,41.386,41.386,0,0,0,13.191-8.895,41.347,41.347,0,0,0,8.893-13.189A41.251,41.251,0,0,0-374,21680.5a41.251,41.251,0,0,0-3.261-16.154,41.367,41.367,0,0,0-8.893-13.191,41.4,41.4,0,0,0-13.191-8.895A41.242,41.242,0,0,0-415.5,21639Z" transform="translate(683 -13551)" fill="#68d"/>
      <path id="Intersection_1" data-name="Intersection 1" d="M-463.9,21675.4a48.884,48.884,0,0,1,8.77-11.906,48.8,48.8,0,0,1,15.577-10.5,48.394,48.394,0,0,1,9.184-2.857l1.763,7.9a41.136,41.136,0,0,0-7.53,2.365,41.381,41.381,0,0,0-13.192,8.9,41.358,41.358,0,0,0-6.817,8.969Z" transform="translate(687.483 -13569.141)" fill="#ededee"/>
    </g>
    <text id="_86_" data-name="86%" transform="translate(267 8134)" fill="#68d" font-size="40" font-family="Roboto-Regular, Roboto" letter-spacing="-0.05em"><tspan x="-27.053" y="0">86</tspan><tspan y="0" font-size="18">%</tspan></text>
    <text id="_2020年4月_時点" data-name="※2020年4月
時点" transform="translate(267 8151)" fill="#9f9f9f" font-size="8" font-family="HiraKakuStd-W6, Hiragino Kaku Gothic Std" letter-spacing="-0.05em"><tspan x="-24.84" y="0">※2020年4月</tspan><tspan x="-7.8" y="12">時点</tspan></text>
  </g>
</svg>
