<svg xmlns="http://www.w3.org/2000/svg" width="47.312" height="38.525" viewBox="0 0 47.312 38.525">
  <g id="Group_195739" data-name="Group 195739" transform="translate(0 -39.237)">
    <path id="Path_376843" data-name="Path 376843" d="M260.843,156.17l-.618,1.6h1.235Z" transform="translate(-232.986 -104.693)"/>
    <path id="Path_376844" data-name="Path 376844" d="M19.284,65.6H47.312V39.237H0V65.6H7.118V77.762ZM31.707,51.032V49.37h5.867v1.662H35.712v4.7H33.569v-4.7Zm0,4.7H29.491l-.427-1.108H26.648l-.427,1.108h-2.18l2.779-6.357h2.107ZM19.119,53.384v2.343H16.976V49.37h2.143v2.252H21.1V49.37h2.143v6.357H21.1V53.384Zm-9.609-.835a3.315,3.315,0,0,1,3.542-3.324A3.434,3.434,0,0,1,15.9,50.5L14.551,51.7a1.717,1.717,0,0,0-1.389-.745,1.593,1.593,0,0,0,0,3.179,1.717,1.717,0,0,0,1.389-.745L15.9,54.6a3.434,3.434,0,0,1-2.852,1.271A3.315,3.315,0,0,1,9.511,52.549Z"/>
  </g>
</svg>
