<svg xmlns="http://www.w3.org/2000/svg" xmlns:xlink="http://www.w3.org/1999/xlink" width="319" height="275.002" viewBox="0 0 319 275.002">
  <defs>
    <linearGradient id="linear-gradient" x1="0.5" x2="0.5" y2="1" gradientUnits="objectBoundingBox">
      <stop offset="0" stop-color="#a9e"/>
      <stop offset="1" stop-color="#a9e"/>
    </linearGradient>
    <linearGradient id="linear-gradient-2" x1="0.5" x2="0.5" y2="1" gradientUnits="objectBoundingBox">
      <stop offset="0" stop-color="#d291d6"/>
      <stop offset="1" stop-color="#d291d6"/>
    </linearGradient>
    <linearGradient id="linear-gradient-3" x1="0.5" x2="0.5" y2="1" gradientUnits="objectBoundingBox">
      <stop offset="0" stop-color="#f8b"/>
      <stop offset="1" stop-color="#f8b"/>
    </linearGradient>
  </defs>
  <g id="Group_189996" data-name="Group 189996" transform="translate(-28 -5463.999)">
    <g id="Group_189989" data-name="Group 189989" transform="translate(-80.733 96.267)">
      <g id="Ellipse_11796" data-name="Ellipse 11796" transform="translate(108.733 5492.734)" fill="#fff" stroke="#fff" stroke-width="3">
        <circle cx="75" cy="75" r="75" stroke="none"/>
        <circle cx="75" cy="75" r="73.5" fill="none"/>
      </g>
      <g id="Ellipse_11777" data-name="Ellipse 11777" transform="translate(108.733 5492.733)" stroke="#fff" stroke-width="3" fill="url(#linear-gradient)">
        <circle cx="75" cy="75" r="75" stroke="none"/>
        <circle cx="75" cy="75" r="73.5" fill="none"/>
      </g>
      <text id="安心" transform="translate(183.733 5541.733)" fill="#fff" font-size="21" font-family="HiraKakuPro-W6, Hiragino Kaku Gothic Pro"><tspan x="-21" y="0">安心</tspan></text>
      <text id="全ての手続きが_オンラインで_完結" data-name="全ての手続きが
オンラインで
完結" transform="translate(183.733 5580.733)" fill="#222" font-size="14" font-family="HiraKakuPro-W6, Hiragino Kaku Gothic Pro"><tspan x="-49" y="0">全ての手続きが</tspan><tspan x="-42" y="19">オンラインで</tspan><tspan x="-14" y="38">完結</tspan></text>
      <path id="Path_233241" data-name="Path 233241" d="M2926.488-2696.616H3051.2" transform="translate(-2803.559 8251.917)" fill="none" stroke="#fff" stroke-width="1"/>
    </g>
    <g id="Group_189992" data-name="Group 189992" transform="translate(88.267 96.267)">
      <g id="Ellipse_11797" data-name="Ellipse 11797" transform="translate(108.733 5492.734)" fill="#fff" stroke="#fff" stroke-width="3">
        <circle cx="75" cy="75" r="75" stroke="none"/>
        <circle cx="75" cy="75" r="73.5" fill="none"/>
      </g>
      <g id="Ellipse_11777-2" data-name="Ellipse 11777" transform="translate(108.733 5492.733)" stroke="#fff" stroke-width="3" fill="url(#linear-gradient-2)">
        <circle cx="75" cy="75" r="75" stroke="none"/>
        <circle cx="75" cy="75" r="73.5" fill="none"/>
      </g>
      <text id="便利" transform="translate(183.733 5541.733)" fill="#fff" font-size="21" font-family="HiraKakuPro-W6, Hiragino Kaku Gothic Pro"><tspan x="-21" y="0">便利</tspan></text>
      <text id="自宅にいながら_レッスン可能" data-name="自宅にいながら
レッスン可能" transform="translate(183.733 5580.733)" fill="#222" font-size="14" font-family="HiraKakuPro-W6, Hiragino Kaku Gothic Pro"><tspan x="-49" y="0">自宅にいながら</tspan><tspan x="-41.65" y="19">レッスン可能</tspan></text>
      <path id="Path_233241-2" data-name="Path 233241" d="M2926.488-2696.616H3051.2" transform="translate(-2803.559 8251.917)" fill="none" stroke="#fff" stroke-width="1"/>
    </g>
    <g id="Group_191293" data-name="Group 191293" transform="translate(5.267 -9.734)">
      <g id="bg" transform="translate(97.733 5473.733)" fill="#fff">
        <path d="M 84.50001525878906 167.5000305175781 C 78.86758422851562 167.5000305175781 73.23915100097656 166.9326934814453 67.77103424072266 165.8137359619141 C 62.44264984130859 164.7234039306641 57.20149230957031 163.0964508056641 52.19313049316406 160.9781036376953 C 47.27535629272461 158.8980560302734 42.53203964233398 156.3234710693359 38.094970703125 153.3258361816406 C 33.69964981079102 150.3563995361328 29.5664234161377 146.9461975097656 25.81012916564941 143.1898956298828 C 22.0538330078125 139.4336090087891 18.64362907409668 135.3003845214844 15.67419719696045 130.9050598144531 C 12.6765604019165 126.4679946899414 10.10196971893311 121.7246780395508 8.021924018859863 116.8069000244141 C 5.903583526611328 111.7985382080078 4.276628971099854 106.5573806762695 3.186287879943848 101.2289962768555 C 2.067333459854126 95.76087951660156 1.499992489814758 90.1324462890625 1.499992489814758 84.50001525878906 C 1.499992489814758 78.86758422851562 2.067333459854126 73.23915100097656 3.186287879943848 67.77103424072266 C 4.276628971099854 62.44264984130859 5.903583526611328 57.20149230957031 8.021924018859863 52.19313049316406 C 10.10196971893311 47.27535629272461 12.6765604019165 42.53203964233398 15.67419719696045 38.094970703125 C 18.64362907409668 33.69964981079102 22.0538330078125 29.5664234161377 25.81012916564941 25.81012916564941 C 29.5664234161377 22.0538330078125 33.69964981079102 18.64362907409668 38.094970703125 15.67419719696045 C 42.53203964233398 12.6765604019165 47.27535629272461 10.10196971893311 52.19313049316406 8.021924018859863 C 57.20149230957031 5.903583526611328 62.44264984130859 4.276628971099854 67.77103424072266 3.186287879943848 C 73.23915100097656 2.067333459854126 78.86758422851562 1.499992489814758 84.50001525878906 1.499992489814758 C 90.1324462890625 1.499992489814758 95.76087951660156 2.067333459854126 101.2289962768555 3.186287879943848 C 106.5573806762695 4.276628971099854 111.7985382080078 5.903583526611328 116.8069000244141 8.021924018859863 C 121.7246780395508 10.10196971893311 126.4679946899414 12.6765604019165 130.9050598144531 15.67419719696045 C 135.3003845214844 18.64362907409668 139.4336090087891 22.0538330078125 143.1898956298828 25.81012916564941 C 146.9461975097656 29.5664234161377 150.3563995361328 33.69964981079102 153.3258361816406 38.094970703125 C 156.3234710693359 42.53203964233398 158.8980560302734 47.27535629272461 160.9781036376953 52.19313049316406 C 163.0964508056641 57.20149230957031 164.7234039306641 62.44264984130859 165.8137359619141 67.77103424072266 C 166.9326934814453 73.23915100097656 167.5000305175781 78.86758422851562 167.5000305175781 84.50001525878906 C 167.5000305175781 90.1324462890625 166.9326934814453 95.76087951660156 165.8137359619141 101.2289962768555 C 164.7234039306641 106.5573806762695 163.0964508056641 111.7985382080078 160.9781036376953 116.8069000244141 C 158.8980560302734 121.7246780395508 156.3234710693359 126.4679946899414 153.3258361816406 130.9050598144531 C 150.3563995361328 135.3003845214844 146.9461975097656 139.4336090087891 143.1898956298828 143.1898956298828 C 139.4336090087891 146.9461975097656 135.3003845214844 150.3563995361328 130.9050598144531 153.3258361816406 C 126.4679946899414 156.3234710693359 121.7246780395508 158.8980560302734 116.8069000244141 160.9781036376953 C 111.7985382080078 163.0964508056641 106.5573806762695 164.7234039306641 101.2289962768555 165.8137359619141 C 95.76087951660156 166.9326934814453 90.1324462890625 167.5000305175781 84.50001525878906 167.5000305175781 Z" stroke="none"/>
        <path d="M 84.50001525878906 2.999984741210938 C 78.96837615966797 2.999984741210938 73.44110870361328 3.557083129882812 68.07173156738281 4.65582275390625 C 62.84034729003906 5.726318359375 57.69461059570312 7.323654174804688 52.77744293212891 9.4034423828125 C 47.94889831542969 11.44575500488281 43.29148864746094 13.97372436523438 38.93467712402344 16.91712951660156 C 34.61846923828125 19.83311462402344 30.55958557128906 23.18202209472656 26.87080383300781 26.87080383300781 C 23.18202209472656 30.55958557128906 19.83311462402344 34.61846923828125 16.91712951660156 38.93467712402344 C 13.97372436523438 43.29148864746094 11.44575500488281 47.94889831542969 9.4034423828125 52.77744293212891 C 7.323654174804688 57.69461059570312 5.726318359375 62.84034729003906 4.65582275390625 68.07173156738281 C 3.557083129882812 73.44110870361328 2.999984741210938 78.96837615966797 2.999984741210938 84.50001525878906 C 2.999984741210938 90.03163146972656 3.557083129882812 95.55892181396484 4.65582275390625 100.9282760620117 C 5.726318359375 106.1596527099609 7.323654174804688 111.3053970336914 9.4034423828125 116.2225646972656 C 11.44575500488281 121.0511322021484 13.97372436523438 125.7085113525391 16.91712951660156 130.0653533935547 C 19.83311462402344 134.3815612792969 23.18202209472656 138.4404449462891 26.87080383300781 142.1292266845703 C 30.55958557128906 145.8180236816406 34.61846923828125 149.1669158935547 38.93467712402344 152.0829010009766 C 43.29148864746094 155.0263061523438 47.94889831542969 157.5542755126953 52.77744293212891 159.5965881347656 C 57.69461059570312 161.6763763427734 62.84034729003906 163.2737121582031 68.07173156738281 164.3442077636719 C 73.44110870361328 165.4429473876953 78.96837615966797 166.0000457763672 84.50001525878906 166.0000457763672 C 90.03163146972656 166.0000457763672 95.55892181396484 165.4429473876953 100.9282760620117 164.3442077636719 C 106.1596527099609 163.2737121582031 111.3053970336914 161.6763763427734 116.2225646972656 159.5965881347656 C 121.0511322021484 157.5542755126953 125.7085113525391 155.0263061523438 130.0653533935547 152.0829010009766 C 134.3815612792969 149.1669158935547 138.4404449462891 145.8180236816406 142.1292266845703 142.1292266845703 C 145.8180236816406 138.4404449462891 149.1669158935547 134.3815612792969 152.0829010009766 130.0653533935547 C 155.0263061523438 125.7085113525391 157.5542755126953 121.0511322021484 159.5965881347656 116.2225646972656 C 161.6763763427734 111.3053970336914 163.2737121582031 106.1596527099609 164.3442077636719 100.9282760620117 C 165.4429473876953 95.55892181396484 166.0000457763672 90.03163146972656 166.0000457763672 84.50001525878906 C 166.0000457763672 78.96837615966797 165.4429473876953 73.44110870361328 164.3442077636719 68.07173156738281 C 163.2737121582031 62.84034729003906 161.6763763427734 57.69461059570312 159.5965881347656 52.77744293212891 C 157.5542755126953 47.94889831542969 155.0263061523438 43.29148864746094 152.0829010009766 38.93467712402344 C 149.1669158935547 34.61846923828125 145.8180236816406 30.55958557128906 142.1292266845703 26.87080383300781 C 138.4404449462891 23.18202209472656 134.3815612792969 19.83311462402344 130.0653533935547 16.91712951660156 C 125.7085113525391 13.97372436523438 121.0511322021484 11.44575500488281 116.2225646972656 9.4034423828125 C 111.3053970336914 7.323654174804688 106.1596527099609 5.726318359375 100.9282760620117 4.65582275390625 C 95.55892181396484 3.557083129882812 90.03163146972656 2.999984741210938 84.50001525878906 2.999984741210938 M 84.50001525878906 -1.52587890625e-05 C 131.1680603027344 -1.52587890625e-05 169.0000457763672 37.83193969726562 169.0000457763672 84.50001525878906 C 169.0000457763672 131.1680603027344 131.1680603027344 169.0000457763672 84.50001525878906 169.0000457763672 C 37.83193969726562 169.0000457763672 -1.52587890625e-05 131.1680603027344 -1.52587890625e-05 84.50001525878906 C -1.52587890625e-05 37.83193969726562 37.83193969726562 -1.52587890625e-05 84.50001525878906 -1.52587890625e-05 Z" stroke="none" fill="#fff"/>
      </g>
      <text id="楽器部料_プレゼント" data-name="楽器部料
プレゼント" transform="translate(183.733 5513.733)" fill="#fff" font-size="21" font-family="HiraKakuPro-W6, Hiragino Kaku Gothic Pro"><tspan x="-42" y="0">楽器部料</tspan><tspan x="-52.5" y="26">プレゼント</tspan></text>
      <text id="オンラインでも_楽器無料_プレゼント" data-name="オンラインでも
楽器無料
プレゼント" transform="translate(183.733 5578.733)" fill="#fff" font-size="14" font-family="HiraKakuPro-W6, Hiragino Kaku Gothic Pro"><tspan x="-49" y="0">オンラインでも</tspan><tspan x="-28" y="19">楽器無料</tspan><tspan x="-35" y="38">プレゼント</tspan></text>
      <path id="Path_233241-3" data-name="Path 233241" d="M2926.488-2696.616H3051.2" transform="translate(-2803.559 8251.917)" fill="none" stroke="#fff" stroke-width="1"/>
    </g>
    <g id="Group_189988" data-name="Group 189988" transform="translate(5.267 -9.733)">
      <g id="bg-2" data-name="bg" transform="translate(97.733 5473.733)" fill="url(#linear-gradient-3)">
        <path d="M 84.50001525878906 167.5000305175781 C 78.86758422851562 167.5000305175781 73.23915100097656 166.9326934814453 67.77103424072266 165.8137359619141 C 62.44264984130859 164.7234039306641 57.20149230957031 163.0964508056641 52.19313049316406 160.9781036376953 C 47.27535629272461 158.8980560302734 42.53203964233398 156.3234710693359 38.094970703125 153.3258361816406 C 33.69964981079102 150.3563995361328 29.5664234161377 146.9461975097656 25.81012916564941 143.1898956298828 C 22.0538330078125 139.4336090087891 18.64362907409668 135.3003845214844 15.67419719696045 130.9050598144531 C 12.6765604019165 126.4679946899414 10.10196971893311 121.7246780395508 8.021924018859863 116.8069000244141 C 5.903583526611328 111.7985382080078 4.276628971099854 106.5573806762695 3.186287879943848 101.2289962768555 C 2.067333459854126 95.76087951660156 1.499992489814758 90.1324462890625 1.499992489814758 84.50001525878906 C 1.499992489814758 78.86758422851562 2.067333459854126 73.23915100097656 3.186287879943848 67.77103424072266 C 4.276628971099854 62.44264984130859 5.903583526611328 57.20149230957031 8.021924018859863 52.19313049316406 C 10.10196971893311 47.27535629272461 12.6765604019165 42.53203964233398 15.67419719696045 38.094970703125 C 18.64362907409668 33.69964981079102 22.0538330078125 29.5664234161377 25.81012916564941 25.81012916564941 C 29.5664234161377 22.0538330078125 33.69964981079102 18.64362907409668 38.094970703125 15.67419719696045 C 42.53203964233398 12.6765604019165 47.27535629272461 10.10196971893311 52.19313049316406 8.021924018859863 C 57.20149230957031 5.903583526611328 62.44264984130859 4.276628971099854 67.77103424072266 3.186287879943848 C 73.23915100097656 2.067333459854126 78.86758422851562 1.499992489814758 84.50001525878906 1.499992489814758 C 90.1324462890625 1.499992489814758 95.76087951660156 2.067333459854126 101.2289962768555 3.186287879943848 C 106.5573806762695 4.276628971099854 111.7985382080078 5.903583526611328 116.8069000244141 8.021924018859863 C 121.7246780395508 10.10196971893311 126.4679946899414 12.6765604019165 130.9050598144531 15.67419719696045 C 135.3003845214844 18.64362907409668 139.4336090087891 22.0538330078125 143.1898956298828 25.81012916564941 C 146.9461975097656 29.5664234161377 150.3563995361328 33.69964981079102 153.3258361816406 38.094970703125 C 156.3234710693359 42.53203964233398 158.8980560302734 47.27535629272461 160.9781036376953 52.19313049316406 C 163.0964508056641 57.20149230957031 164.7234039306641 62.44264984130859 165.8137359619141 67.77103424072266 C 166.9326934814453 73.23915100097656 167.5000305175781 78.86758422851562 167.5000305175781 84.50001525878906 C 167.5000305175781 90.1324462890625 166.9326934814453 95.76087951660156 165.8137359619141 101.2289962768555 C 164.7234039306641 106.5573806762695 163.0964508056641 111.7985382080078 160.9781036376953 116.8069000244141 C 158.8980560302734 121.7246780395508 156.3234710693359 126.4679946899414 153.3258361816406 130.9050598144531 C 150.3563995361328 135.3003845214844 146.9461975097656 139.4336090087891 143.1898956298828 143.1898956298828 C 139.4336090087891 146.9461975097656 135.3003845214844 150.3563995361328 130.9050598144531 153.3258361816406 C 126.4679946899414 156.3234710693359 121.7246780395508 158.8980560302734 116.8069000244141 160.9781036376953 C 111.7985382080078 163.0964508056641 106.5573806762695 164.7234039306641 101.2289962768555 165.8137359619141 C 95.76087951660156 166.9326934814453 90.1324462890625 167.5000305175781 84.50001525878906 167.5000305175781 Z" stroke="none"/>
        <path d="M 84.50001525878906 2.999984741210938 C 78.96837615966797 2.999984741210938 73.44110870361328 3.557083129882812 68.07173156738281 4.65582275390625 C 62.84034729003906 5.726318359375 57.69461059570312 7.323654174804688 52.77744293212891 9.4034423828125 C 47.94889831542969 11.44575500488281 43.29148864746094 13.97372436523438 38.93467712402344 16.91712951660156 C 34.61846923828125 19.83311462402344 30.55958557128906 23.18202209472656 26.87080383300781 26.87080383300781 C 23.18202209472656 30.55958557128906 19.83311462402344 34.61846923828125 16.91712951660156 38.93467712402344 C 13.97372436523438 43.29148864746094 11.44575500488281 47.94889831542969 9.4034423828125 52.77744293212891 C 7.323654174804688 57.69461059570312 5.726318359375 62.84034729003906 4.65582275390625 68.07173156738281 C 3.557083129882812 73.44110870361328 2.999984741210938 78.96837615966797 2.999984741210938 84.50001525878906 C 2.999984741210938 90.03163146972656 3.557083129882812 95.55892181396484 4.65582275390625 100.9282760620117 C 5.726318359375 106.1596527099609 7.323654174804688 111.3053970336914 9.4034423828125 116.2225646972656 C 11.44575500488281 121.0511322021484 13.97372436523438 125.7085113525391 16.91712951660156 130.0653533935547 C 19.83311462402344 134.3815612792969 23.18202209472656 138.4404449462891 26.87080383300781 142.1292266845703 C 30.55958557128906 145.8180236816406 34.61846923828125 149.1669158935547 38.93467712402344 152.0829010009766 C 43.29148864746094 155.0263061523438 47.94889831542969 157.5542755126953 52.77744293212891 159.5965881347656 C 57.69461059570312 161.6763763427734 62.84034729003906 163.2737121582031 68.07173156738281 164.3442077636719 C 73.44110870361328 165.4429473876953 78.96837615966797 166.0000457763672 84.50001525878906 166.0000457763672 C 90.03163146972656 166.0000457763672 95.55892181396484 165.4429473876953 100.9282760620117 164.3442077636719 C 106.1596527099609 163.2737121582031 111.3053970336914 161.6763763427734 116.2225646972656 159.5965881347656 C 121.0511322021484 157.5542755126953 125.7085113525391 155.0263061523438 130.0653533935547 152.0829010009766 C 134.3815612792969 149.1669158935547 138.4404449462891 145.8180236816406 142.1292266845703 142.1292266845703 C 145.8180236816406 138.4404449462891 149.1669158935547 134.3815612792969 152.0829010009766 130.0653533935547 C 155.0263061523438 125.7085113525391 157.5542755126953 121.0511322021484 159.5965881347656 116.2225646972656 C 161.6763763427734 111.3053970336914 163.2737121582031 106.1596527099609 164.3442077636719 100.9282760620117 C 165.4429473876953 95.55892181396484 166.0000457763672 90.03163146972656 166.0000457763672 84.50001525878906 C 166.0000457763672 78.96837615966797 165.4429473876953 73.44110870361328 164.3442077636719 68.07173156738281 C 163.2737121582031 62.84034729003906 161.6763763427734 57.69461059570312 159.5965881347656 52.77744293212891 C 157.5542755126953 47.94889831542969 155.0263061523438 43.29148864746094 152.0829010009766 38.93467712402344 C 149.1669158935547 34.61846923828125 145.8180236816406 30.55958557128906 142.1292266845703 26.87080383300781 C 138.4404449462891 23.18202209472656 134.3815612792969 19.83311462402344 130.0653533935547 16.91712951660156 C 125.7085113525391 13.97372436523438 121.0511322021484 11.44575500488281 116.2225646972656 9.4034423828125 C 111.3053970336914 7.323654174804688 106.1596527099609 5.726318359375 100.9282760620117 4.65582275390625 C 95.55892181396484 3.557083129882812 90.03163146972656 2.999984741210938 84.50001525878906 2.999984741210938 M 84.50001525878906 -1.52587890625e-05 C 131.1680603027344 -1.52587890625e-05 169.0000457763672 37.83193969726562 169.0000457763672 84.50001525878906 C 169.0000457763672 131.1680603027344 131.1680603027344 169.0000457763672 84.50001525878906 169.0000457763672 C 37.83193969726562 169.0000457763672 -1.52587890625e-05 131.1680603027344 -1.52587890625e-05 84.50001525878906 C -1.52587890625e-05 37.83193969726562 37.83193969726562 -1.52587890625e-05 84.50001525878906 -1.52587890625e-05 Z" stroke="none" fill="#fff"/>
      </g>
      <text id="楽器部料_プレゼント-2" data-name="楽器部料
プレゼント" transform="translate(183.733 5513.733)" fill="#fff" font-size="21" font-family="HiraKakuPro-W6, Hiragino Kaku Gothic Pro"><tspan x="-42" y="0">楽器部料</tspan><tspan x="-52.5" y="26">プレゼント</tspan></text>
      <text id="オンラインでも_楽器無料_プレゼント-2" data-name="オンラインでも
楽器無料
プレゼント" transform="translate(183.733 5578.733)" fill="#222" font-size="14" font-family="HiraKakuPro-W6, Hiragino Kaku Gothic Pro"><tspan x="-49" y="0">オンラインでも</tspan><tspan x="-28" y="19">楽器無料</tspan><tspan x="-35" y="38">プレゼント</tspan></text>
      <path id="Path_233241-4" data-name="Path 233241" d="M2926.488-2696.616H3051.2" transform="translate(-2803.559 8251.917)" fill="none" stroke="#fff" stroke-width="1"/>
    </g>
  </g>
</svg>
