<svg xmlns="http://www.w3.org/2000/svg" width="18" height="17.934" viewBox="0 0 18 17.934">
  <path id="Path_12778" data-name="Path 12778" d="M1914.112,12860.613l-2.6-2.076a.191.191,0,0,0-.126-.05h-3.056a1.472,1.472,0,0,1-1.457-1.465v-1.373l-.971.779a1.474,1.474,0,0,1-.913.317,1.606,1.606,0,0,1-.636-.142,1.464,1.464,0,0,1-.837-1.323v-.77a.21.21,0,0,0-.209-.21h-.837a1.473,1.473,0,0,1-1.465-1.466v-8.371a1.475,1.475,0,0,1,1.465-1.466h10.884a1.475,1.475,0,0,1,1.465,1.466v4.4h2.721a1.472,1.472,0,0,1,1.465,1.464v6.7a1.472,1.472,0,0,1-1.457,1.465h-.837a.21.21,0,0,0-.209.209v.771a1.462,1.462,0,0,1-.837,1.322,1.5,1.5,0,0,1-.636.144A1.468,1.468,0,0,1,1914.112,12860.613Zm-2.73-3.356a1.476,1.476,0,0,1,.921.326l2.6,2.069a.189.189,0,0,0,.218,0,.194.194,0,0,0,.117-.186v-.771a1.475,1.475,0,0,1,1.465-1.465h.837a.206.206,0,0,0,.148-.062.209.209,0,0,0,.061-.147v-6.7a.208.208,0,0,0-.209-.208h-3.349a.638.638,0,0,1-.628-.629v-5.022a.208.208,0,0,0-.061-.148.21.21,0,0,0-.148-.062h-10.884a.21.21,0,0,0-.209.21v8.371a.21.21,0,0,0,.209.21h.837a1.473,1.473,0,0,1,1.465,1.466v.745a.183.183,0,0,0,.117.183.19.19,0,0,0,.226,0h0l2.6-2.076a1.487,1.487,0,0,1,.912-.318h4.73a.206.206,0,0,0,.148-.062.212.212,0,0,0,.061-.148V12852a.628.628,0,1,1,1.256,0v.837a1.474,1.474,0,0,1-1.465,1.466h-4.73a.2.2,0,0,0-.126.042h0l-.377.3v2.378a.209.209,0,0,0,.209.234Zm-6.4-6.3a.628.628,0,1,1,0-1.256h3.349a.628.628,0,0,1,0,1.256Zm0-3.349a.628.628,0,0,1,0-1.257h5.86a.628.628,0,0,1,0,1.257Z" transform="translate(-1901.001 -12842.999)" fill="#fff"/>
</svg>
