<svg xmlns="http://www.w3.org/2000/svg" width="115.827" height="130.69" viewBox="0 0 115.827 130.69">
  <g id="logo" transform="translate(-129.5 -431.951)">
    <path id="Path_12728" data-name="Path 12728" d="M-57.889-1.961a.274.274,0,0,0,.3.3l2.208-.007A.961.961,0,0,0-54.3-2.75V-8.485A.95.95,0,0,0-55.38-9.553H-57.6a.257.257,0,0,0-.287.294Zm5.032-.8A2.234,2.234,0,0,1-55.38-.234h-3.656a.253.253,0,0,1-.287-.287V-10.7a.253.253,0,0,1,.287-.287h3.656a2.232,2.232,0,0,1,2.523,2.509Zm6.445-.746a.274.274,0,0,0-.3-.3h-2.208A.944.944,0,0,0-50-2.743a.961.961,0,0,0,1.09,1.075h1.427A.954.954,0,0,0-46.4-2.743Zm-5.032.753a2.225,2.225,0,0,1,2.523-2.5H-46.7a.253.253,0,0,0,.287-.287l-.007-.789A.95.95,0,0,0-47.494-7.4h-2.946a.253.253,0,0,1-.287-.287v-.86a.253.253,0,0,1,.287-.287h2.946a2.218,2.218,0,0,1,2.509,2.509l.014,3.577A2.224,2.224,0,0,1-47.487-.234h-1.427A2.242,2.242,0,0,1-51.444-2.75Zm11.828-6.086a2.218,2.218,0,0,1,2.509,2.509V-.52a.253.253,0,0,1-.287.287h-.86a.253.253,0,0,1-.287-.287l.007-5.807A.957.957,0,0,0-39.616-7.4H-41.05a.944.944,0,0,0-1.068,1.068l-.007,5.807a.257.257,0,0,1-.287.294h-.86a.257.257,0,0,1-.287-.294l.007-5.807a2.211,2.211,0,0,1,2.5-2.5Zm6.445,8.6a2.211,2.211,0,0,1-2.5-2.5V-6.341a2.211,2.211,0,0,1,2.5-2.5h2.946a.253.253,0,0,1,.287.287v.867a.25.25,0,0,1-.287.28h-2.946A.944.944,0,0,0-34.24-6.341v3.606a.944.944,0,0,0,1.068,1.068h2.946a.253.253,0,0,1,.287.287V-.5q0,.265-.287.265Zm6.1-5.326a.274.274,0,0,0,.3.3h2.208A.95.95,0,0,0-23.48-6.334.95.95,0,0,0-24.562-7.4h-1.427a.954.954,0,0,0-1.082,1.075Zm5.032-.767a2.231,2.231,0,0,1-2.523,2.516h-2.222a.253.253,0,0,0-.287.287v.781A.95.95,0,0,0-26-1.667h2.946a.253.253,0,0,1,.287.287v.86a.253.253,0,0,1-.287.287H-26A2.218,2.218,0,0,1-28.5-2.743V-6.32a2.224,2.224,0,0,1,2.516-2.516h1.427A2.232,2.232,0,0,1-22.039-6.327ZM-13.1-.234a2.211,2.211,0,0,1-2.5-2.5V-8.485a2.211,2.211,0,0,1,2.5-2.5h2.946a.253.253,0,0,1,.287.287v.867a.25.25,0,0,1-.287.28H-13.1a.944.944,0,0,0-1.068,1.068v5.749A.944.944,0,0,0-13.1-1.667h2.946a.253.253,0,0,1,.287.287V-.5q0,.265-.287.265Zm4.667-6.108a2.211,2.211,0,0,1,2.5-2.5H-4.5A2.218,2.218,0,0,1-1.989-6.334v3.606A2.218,2.218,0,0,1-4.5-.219H-5.931a2.211,2.211,0,0,1-2.5-2.5Zm5.018.007A.957.957,0,0,0-4.5-7.409H-5.931A.944.944,0,0,0-7-6.341v3.62A.944.944,0,0,0-5.931-1.653H-4.5A.957.957,0,0,0-3.415-2.728ZM4.47-6.463A.936.936,0,0,0,3.4-7.4H1.961A.944.944,0,0,0,.893-6.334L.886-.528A.257.257,0,0,1,.6-.234h-.86A.257.257,0,0,1-.548-.528L-.54-6.334a2.211,2.211,0,0,1,2.5-2.5H3.4a2.643,2.643,0,0,1,1.792.545,2.631,2.631,0,0,1,1.785-.545H8.406a2.218,2.218,0,0,1,2.509,2.509V-.52a.253.253,0,0,1-.287.287h-.86A.253.253,0,0,1,9.481-.52l.007-5.807A.957.957,0,0,0,8.406-7.4H6.972A.944.944,0,0,0,5.9-6.334V-.52a.253.253,0,0,1-.287.287H4.75a.257.257,0,0,1-.287-.294L4.47-6.334Zm12.9,0A.936.936,0,0,0,16.3-7.4H14.865A.944.944,0,0,0,13.8-6.334L13.789-.528a.257.257,0,0,1-.287.294h-.86a.257.257,0,0,1-.287-.294l.007-5.807a2.211,2.211,0,0,1,2.5-2.5H16.3a2.643,2.643,0,0,1,1.792.545,2.631,2.631,0,0,1,1.785-.545h1.434a2.218,2.218,0,0,1,2.509,2.509V-.52a.253.253,0,0,1-.287.287h-.86a.253.253,0,0,1-.287-.287l.007-5.807A.957.957,0,0,0,21.309-7.4H19.876a.944.944,0,0,0-1.068,1.068V-.52a.253.253,0,0,1-.287.287h-.867a.257.257,0,0,1-.287-.294l.007-5.807ZM27.768-.234a2.211,2.211,0,0,1-2.5-2.5l-.007-5.807a.257.257,0,0,1,.287-.294h.86a.257.257,0,0,1,.287.294L26.7-2.735a.944.944,0,0,0,1.068,1.068H29.2a.957.957,0,0,0,1.082-1.075l-.007-5.807a.253.253,0,0,1,.287-.287h.86a.253.253,0,0,1,.287.287v5.807A2.218,2.218,0,0,1,29.2-.234Zm9.319-8.6A2.218,2.218,0,0,1,39.6-6.327V-.52a.253.253,0,0,1-.287.287h-.86a.253.253,0,0,1-.287-.287l.007-5.807A.957.957,0,0,0,37.087-7.4H35.653a.944.944,0,0,0-1.068,1.068L34.578-.528a.257.257,0,0,1-.287.294h-.86a.257.257,0,0,1-.287-.294l.007-5.807a2.211,2.211,0,0,1,2.5-2.5Zm3.943.287a.253.253,0,0,1,.287-.287h.86a.253.253,0,0,1,.287.287V-.52a.253.253,0,0,1-.287.287h-.86A.253.253,0,0,1,41.03-.52Zm-.143-1.62a.787.787,0,0,0,.229.581.862.862,0,0,0,.638.229.865.865,0,0,0,.634-.229.781.781,0,0,0,.233-.581.784.784,0,0,0-.233-.577.877.877,0,0,0-.649-.233.835.835,0,0,0-.624.233A.79.79,0,0,0,40.887-10.169ZM43.9-10.7a.247.247,0,0,1,.287-.28l.86-.014a.261.261,0,0,1,.287.294l-.007,1.577q0,.294.287.287h1.584a.253.253,0,0,1,.287.287v.86a.253.253,0,0,1-.287.287H45.611a.253.253,0,0,0-.287.287l.007,4.387A.944.944,0,0,0,46.4-1.66h.8a.25.25,0,0,1,.287.28v.867a.253.253,0,0,1-.287.287h-.8a2.211,2.211,0,0,1-2.5-2.5Zm11.47,4.731h.007v6.1a2.218,2.218,0,0,1-2.509,2.509h-1.52a.253.253,0,0,1-.287-.287v-.86a.253.253,0,0,1,.287-.287h1.52A.95.95,0,0,0,53.94.132V-.384a3.552,3.552,0,0,1-1.09.151H51.417a2.211,2.211,0,0,1-2.5-2.5V-8.542a.257.257,0,0,1,.287-.294h.86a.257.257,0,0,1,.287.294v5.807a.944.944,0,0,0,1.068,1.068h1.434a.957.957,0,0,0,1.082-1.075V-8.549a.253.253,0,0,1,.287-.287h.86a.253.253,0,0,1,.287.287Z" transform="translate(189.322 560)" fill="#fff"/>
    <path id="logo_inspiart" d="M-85.124,24089.928l-.034-18.283h2.6v.855a6.062,6.062,0,0,1,3.5-1.2c3.773,0,6.622,3.08,6.622,7.16s-2.849,7.148-6.622,7.148a6,6,0,0,1-3.471-1.16v5.482Zm2.6-14.2v5.436a4.9,4.9,0,0,0,3.471,2.039c2.331,0,4.023-2,4.023-4.75s-1.693-4.762-4.023-4.762A4.9,4.9,0,0,0-82.526,24075.732Zm48.082,4.818v-6.5h-2.439v-2.4h2.439v-3.5h2.6v3.5h3.733v2.4h-3.733v6.5c0,1.541.809,2.656,1.921,2.656a2.594,2.594,0,0,0,1.789-.912l.3-.393,1.9,1.338-.325.451a4.9,4.9,0,0,1-3.664,1.914C-32.546,24085.605-34.444,24083.48-34.444,24080.551Zm-28.728.234c0-2.879,2.177-4.822,5.408-4.822a10.7,10.7,0,0,1,3.448.668,2.823,2.823,0,0,0-3-2.936,3.839,3.839,0,0,0-2.781,1.375l-.211.273L-62.22,24074l.234-.32a6.155,6.155,0,0,1,4.667-2.385c3.414,0,5.625,2.3,5.625,5.871v8.09h-2.6a8.35,8.35,0,0,0,0-.854,5.471,5.471,0,0,1-3.471,1.2C-61,24085.605-63.172,24083.67-63.172,24080.785Zm2.6,0c0,1.539,1.02,2.422,2.8,2.422a4.941,4.941,0,0,0,3.471-2.039v-1.893a8.8,8.8,0,0,0-3.471-.906C-59.548,24078.369-60.568,24079.248-60.568,24080.785Zm-38.4,1.654-.228-.4,1.915-1.346.313.537a4.262,4.262,0,0,0,3.277,1.977c1.926,0,2.8-1.014,2.8-1.953,0-.863-.912-1.215-2.855-1.768-1.978-.564-4.69-1.336-4.69-4.189,0-1.937,1.738-4,4.964-4a6.481,6.481,0,0,1,4.753,2.359l-1.841,1.443a4.212,4.212,0,0,0-2.912-1.4c-1.539,0-2.365.828-2.365,1.6,0,.861.912,1.215,2.849,1.768,1.983.564,4.7,1.34,4.7,4.189,0,2.164-1.858,4.352-5.4,4.352A6.552,6.552,0,0,1-98.973,24082.439Zm79.107,2.818v-1.732l9.546-14.148h-9.1v-2.4H-6.838v1.727l-9.546,14.148H-6.143l-.564,2.4Zm-27.554,0v-9.842c0-.3-.011-.574-.028-.824v-2.947h2.627s-.017.6,0,.7a4.964,4.964,0,0,1,3.026-1.049,5.049,5.049,0,0,1,1.818.307l.861.367-.906,2.391-.923-.387a2.564,2.564,0,0,0-.849-.16,4.218,4.218,0,0,0-3.026,1.9v9.545Zm-21.627,0v-13.613h2.6v13.613Zm-35.373,0v-8.439a2.928,2.928,0,0,0-2.918-3.123,4.9,4.9,0,0,0-3.471,2.043v9.52h-2.6v-13.613h2.6v.832a6.04,6.04,0,0,1,3.471-1.18,5.282,5.282,0,0,1,5.517,5.521v8.439Zm-16.419,0v-18.279h2.6v18.279Zm51.461-16.85a1.694,1.694,0,0,1,1.63-1.664,1.7,1.7,0,0,1,1.636,1.664,1.7,1.7,0,0,1-1.636,1.67A1.7,1.7,0,0,1-69.378,24068.408Zm-9.871-12.99,43-8.187a37.621,37.621,0,0,1-27.247,11.637A37.61,37.61,0,0,1-79.249,24055.418Zm-21.986-34.3a39.046,39.046,0,0,1,.262-4.422l26.665,9.756-11.717,24.951A37.691,37.691,0,0,1-101.235,24021.119Zm33.059,7.574,32.347,11.834-41.625,7.93Zm2.775-5.91,17.017-36.256a37.745,37.745,0,0,1,22.642,34.592,37.587,37.587,0,0,1-3.123,15.035Zm-29.264-10.7,36.895-20.852-13.769,29.309Zm31.173-28.705a37.559,37.559,0,0,1,5.642.422l-40.531,22.908A37.752,37.752,0,0,1-63.491,23983.375Z" transform="translate(250.839 -23550.924)" fill="#fff" stroke="rgba(0,0,0,0)" stroke-width="1"/>
  </g>
</svg>
