<svg xmlns="http://www.w3.org/2000/svg" width="26.759" height="28.015" viewBox="0 0 26.759 28.015">
  <path id="icon" d="M20.1,25.13a1.885,1.885,0,1,1,1.885,1.885A1.887,1.887,0,0,1,20.1,25.13Zm1.256,0a.628.628,0,1,0,.628-.628A.629.629,0,0,0,21.361,25.13ZM7.853,24.816a4.4,4.4,0,0,0-4.4-4.4.628.628,0,1,1,0-1.256,4.4,4.4,0,0,0,4.4-4.4.628.628,0,1,1,1.256,0,4.4,4.4,0,0,0,4.4,4.4.628.628,0,1,1,0,1.256,4.4,4.4,0,0,0-4.4,4.4.628.628,0,1,1-1.256,0ZM6.044,19.79a5.7,5.7,0,0,1,2.437,2.437,5.7,5.7,0,0,1,2.437-2.437,5.7,5.7,0,0,1-2.437-2.437A5.7,5.7,0,0,1,6.044,19.79Zm11.861,2.2a5.975,5.975,0,0,0-5.969-5.968.628.628,0,1,1,0-1.256A5.975,5.975,0,0,0,17.906,8.8a.628.628,0,1,1,1.256,0,5.975,5.975,0,0,0,5.968,5.968.628.628,0,1,1,0,1.256,5.975,5.975,0,0,0-5.968,5.968.628.628,0,1,1-1.256,0Zm-3.022-6.6a7.27,7.27,0,0,1,3.65,3.65,7.269,7.269,0,0,1,3.65-3.65,7.269,7.269,0,0,1-3.65-3.651A7.271,7.271,0,0,1,14.883,15.393ZM0,10.052a2.513,2.513,0,1,1,2.513,2.513A2.516,2.516,0,0,1,0,10.052Zm1.257,0A1.257,1.257,0,1,0,2.513,8.8,1.258,1.258,0,0,0,1.257,10.052Zm11.937.628a4.4,4.4,0,0,0-4.4-4.4.628.628,0,1,1,0-1.256,4.4,4.4,0,0,0,4.4-4.4.628.628,0,1,1,1.257,0,4.4,4.4,0,0,0,4.4,4.4.628.628,0,1,1,0,1.256,4.4,4.4,0,0,0-4.4,4.4.628.628,0,1,1-1.257,0ZM11.385,5.654a5.7,5.7,0,0,1,2.437,2.437,5.694,5.694,0,0,1,2.437-2.437,5.7,5.7,0,0,1-2.437-2.437A5.7,5.7,0,0,1,11.385,5.654Zm9.976.628a1.885,1.885,0,1,1,1.885,1.885A1.887,1.887,0,0,1,21.361,6.283Zm1.257,0a.628.628,0,1,0,.628-.628A.629.629,0,0,0,22.617,6.283Z" transform="translate(0.5 0.5)" fill="#fff" stroke="rgba(0,0,0,0)" stroke-width="1"/>
</svg>
