<svg xmlns="http://www.w3.org/2000/svg" width="29.999" height="30" viewBox="0 0 29.999 30">
  <path id="icon" d="M.915,11673.147a.815.815,0,0,1-.911-.835c0-1.125-.007-2.271,0-3.387a3.087,3.087,0,0,1,1.765-2.818,30.179,30.179,0,0,1,3.157-1.516,7.866,7.866,0,0,0,2.85-2.068,7.777,7.777,0,0,0,1.36-4.1c.011-.146.041-.284.059-.4l-5.877-5.83a.778.778,0,0,1,0-1.069l7.781-7.732a.7.7,0,0,1,1.064,0h0l6.15,6.064a.6.6,0,0,1,.118-.012c3.175.015,4.844,1.614,6.457,3.138,1.657,1.662,3.34,3.354,4.754,4.782.489.536.452.891.059,1.258l-13.872,12.68a5.7,5.7,0,0,1-4.1,1.846Zm.6-1.506H11.723a4.639,4.639,0,0,0,3.075-1.444q6.681-6.078,13.351-12.2c-.405-.41-.813-.812-1.218-1.222h0l-12.275,11.165a5.93,5.93,0,0,1-4.1,1.821H1.517Zm4.056-5.7c-1.165.556-2.266.97-2.992,1.433a2.243,2.243,0,0,0-.911.882h8.881a4.145,4.145,0,0,0,3.087-1.434l3.654-3.315a6.685,6.685,0,0,1,1.585-7.425q1.959-1.693,3.926-3.385a5.96,5.96,0,0,0-3.347-1.682h0c.727,3.922-2.784,8.593-8.857,8.119a9.857,9.857,0,0,1-.142,1.011l1.644.577a.757.757,0,1,1-.52,1.421l-1.549-.563a7.558,7.558,0,0,1-.52,1.069l1.336.47a.783.783,0,0,1,.461.964.791.791,0,0,1-.97.459l-1.785-.635A10,10,0,0,1,5.573,11665.943Zm14.321-8.743a5.2,5.2,0,0,0-1.384,5.194l2.271-2.068a2.686,2.686,0,0,1-.3-1.224,4.282,4.282,0,0,1,1.809-3.019h.012l2.129-1.811c-.178-.179-.354-.361-.532-.54h0Zm3.406.021c-1.118.978-1.3,1.556-1.3,1.893a.724.724,0,0,0,.012.094l3.855-3.5c-.121-.122-.245-.242-.367-.365h0Zm-18.377-5.568,6.043,6c5.151.29,7.556-3.567,6.989-6.427l-6.327-6.242Zm23.115,21.488H17.311a.751.751,0,0,1-.545-1.289.764.764,0,0,1,.545-.214H28.038a.764.764,0,0,1,.545.214.751.751,0,0,1-.529,1.289Z" transform="translate(0 -11643.147)" fill="#fff"/>
</svg>
