<svg xmlns="http://www.w3.org/2000/svg" width="29.741" height="33.31" viewBox="0 0 29.741 33.31">
  <path id="icon" d="M10.753.982a2.779,2.779,0,0,0-1.423.456,2.472,2.472,0,0,0-.616.5,1.268,1.268,0,0,0-.342.83V4.552H7.779a.592.592,0,0,0-.6.591V7.131c-3.015.656-5.353,2.925-5.353,5.751v1.783a.593.593,0,0,0,.6.591H15.512a.592.592,0,0,0,.591-.591V12.881c0-2.826-2.336-5.1-5.351-5.753V5.143a.594.594,0,0,0-.594-.591h-.6V2.769c0,.049-.013.022.049-.049a1.509,1.509,0,0,1,.333-.263,2.343,2.343,0,0,1,.809-.286H26.814a2.343,2.343,0,0,1,.809.286,1.466,1.466,0,0,1,.328.263c.063.072.052.1.052.049V33.1H26.216a.595.595,0,0,0,0,1.189h2.34a.434.434,0,0,0,.076,0h2.345a.595.595,0,0,0,0-1.189H29.194V2.769a1.258,1.258,0,0,0-.344-.83,2.483,2.483,0,0,0-.618-.5A2.764,2.764,0,0,0,26.814.982ZM8.372,5.741H9.561V6.933H8.372Zm.6,2.381c3.294,0,5.944,2.192,5.944,4.759v1.185H3.019V12.881C3.019,10.314,5.674,8.122,8.97,8.122ZM4.2,16.438a.593.593,0,0,0-.589.6v1.2a.595.595,0,1,0,1.189.025V17.043a.593.593,0,0,0-.585-.6Zm2.379,0a.592.592,0,0,0-.587.6v1.2a.595.595,0,1,0,1.189.025V17.043a.6.6,0,0,0-.585-.6Zm2.381,0a.593.593,0,0,0-.589.6v1.2a.595.595,0,1,0,1.189.025V17.043a.593.593,0,0,0-.582-.6Zm2.374,0a.593.593,0,0,0-.582.6h0v1.192a.595.595,0,1,0,1.189.025V17.043a.593.593,0,0,0-.582-.6Zm2.381,0a.6.6,0,0,0-.585.6h0v1.192a.6.6,0,0,0,1.192,0V17.043a.6.6,0,0,0-.585-.6ZM4.2,20.008a.593.593,0,0,0-.589.6v1.2a.595.595,0,1,0,1.189.025V20.613a.593.593,0,0,0-.585-.6Zm2.379,0a.592.592,0,0,0-.587.6v1.2a.595.595,0,1,0,1.189.025V20.613a.6.6,0,0,0-.585-.6Zm2.381,0a.593.593,0,0,0-.589.6v1.2a.595.595,0,0,0,1.189.025V20.613a.593.593,0,0,0-.582-.6Zm2.374,0a.593.593,0,0,0-.582.6h0V21.8a.595.595,0,1,0,1.189.025V20.613a.593.593,0,0,0-.582-.6Zm2.381,0a.6.6,0,0,0-.585.6h0V21.8a.6.6,0,0,0,1.192,0V20.613a.6.6,0,0,0-.585-.6ZM4.2,23.578a.593.593,0,0,0-.589.6V25.37a.595.595,0,1,0,1.189.025V24.178a.6.6,0,0,0-.589-.6Zm2.379,0a.592.592,0,0,0-.587.6V25.37a.595.595,0,1,0,1.189.025V24.178a.6.6,0,0,0-.589-.6Zm2.381,0a.593.593,0,0,0-.589.6V25.37a.595.595,0,1,0,1.189.025V24.178a.6.6,0,0,0-.589-.6Zm2.374,0a.593.593,0,0,0-.582.6V25.37a.595.595,0,1,0,1.189.025V24.178a.6.6,0,0,0-.589-.6Zm2.381,0a.6.6,0,0,0-.585.6V25.37a.6.6,0,0,0,1.192,0V24.178a.6.6,0,0,0-.589-.6ZM4.2,27.146a.6.6,0,0,0-.589.6v1.192a.595.595,0,1,0,1.189.027V27.748a.6.6,0,0,0-.589-.6Zm2.379,0a.6.6,0,0,0-.587.6v1.189a.595.595,0,1,0,1.189.027V27.748a.6.6,0,0,0-.589-.6Zm2.381,0a.6.6,0,0,0-.589.6v1.192a.595.595,0,1,0,1.189.027V27.748a.6.6,0,0,0-.587-.6Zm2.374,0a.6.6,0,0,0-.582.6v1.189a.595.595,0,1,0,1.189.027V27.748a.6.6,0,0,0-.589-.6Zm2.381,0a.594.594,0,0,0-.585.6v1.189a.6.6,0,1,0,1.192,0V27.748a.6.6,0,0,0-.589-.6Z" transform="translate(-1.83 -0.982)" fill="#fff"/>
</svg>
