<svg xmlns="http://www.w3.org/2000/svg" width="34.31" height="25.994" viewBox="0 0 34.31 25.994">
  <path id="icon" d="M10.7,24.994a1.757,1.757,0,0,1-1.755-1.756V1.755A1.757,1.757,0,0,1,10.7,0H22.611a1.757,1.757,0,0,1,1.755,1.755V23.238a1.757,1.757,0,0,1-1.755,1.756ZM10.539,1.755V23.238a.164.164,0,0,0,.159.16H22.611a.164.164,0,0,0,.16-.16V1.755a.164.164,0,0,0-.16-.159H10.7A.164.164,0,0,0,10.539,1.755Zm1.6,15.529a4.521,4.521,0,1,1,4.52,4.52A4.53,4.53,0,0,1,12.134,17.283Zm1.6,0a2.925,2.925,0,1,0,2.925-2.925A2.924,2.924,0,0,0,13.73,17.283ZM28.781,19.7a10.368,10.368,0,0,0,0-14.471L29.91,4.105a11.985,11.985,0,0,1,0,16.727ZM3.4,4.105,4.528,5.234a10.37,10.37,0,0,0,0,14.471L3.4,20.832A11.985,11.985,0,0,1,3.4,4.105ZM26.039,16.28a5.561,5.561,0,0,0,0-7.785l1.128-1.128a7.156,7.156,0,0,1,0,10.042ZM6.142,7.367,7.27,8.5a5.58,5.58,0,0,0,0,7.785L6.142,17.409A7.2,7.2,0,0,1,6.142,7.367ZM13.2,6.647A3.456,3.456,0,1,1,16.655,10.1,3.463,3.463,0,0,1,13.2,6.647Zm1.6,0a1.861,1.861,0,1,0,1.861-1.861A1.87,1.87,0,0,0,14.794,6.647Z" transform="translate(0.5 0.5)" fill="#fff" stroke="rgba(0,0,0,0)" stroke-width="1"/>
</svg>
