<svg xmlns="http://www.w3.org/2000/svg" width="45" height="18" viewBox="0 0 45 18">
  <g id="fb-icons" transform="translate(15317 8709)">
    <g id="fb-icon-laugh" transform="translate(-15290.343 -8710.343)">
      <circle id="Ellipse_304" data-name="Ellipse 304" cx="8" cy="8" r="8" transform="translate(2.343 2.343)" fill="#ffde75"/>
      <path id="Path_169809" data-name="Path 169809" d="M318.495,209.863l-1.262-.637,1.262-.636a.382.382,0,1,0-.344-.682l-1.895.955a.382.382,0,0,0-.209.358v.01a.382.382,0,0,0,.209.358l1.895.955a.382.382,0,1,0,.344-.682Z" transform="translate(-303.232 -201.51)" fill="#1d2738"/>
      <path id="Path_169810" data-name="Path 169810" d="M280.376,209.863l1.262-.637-1.262-.636a.382.382,0,0,1,.344-.682l1.9.955a.381.381,0,0,1,.209.358v.01a.381.381,0,0,1-.209.358l-1.9.955a.382.382,0,0,1-.344-.682Z" transform="translate(-274.836 -201.51)" fill="#1d2738"/>
      <path id="Path_169811" data-name="Path 169811" d="M278.445,228.4a5.308,5.308,0,0,0,10.606,0Z" transform="translate(-273.474 -217.763)" fill="#1d2738"/>
      <path id="Path_169812" data-name="Path 169812" d="M290.572,235.671a12.865,12.865,0,0,0-9.516,0,5.415,5.415,0,0,0,9.516,0Z" transform="translate(-275.541 -222.793)" fill="#ff3e6c"/>
    </g>
    <g id="fb-icon-love" transform="translate(-15303.148 -8709.148)">
      <g id="Ellipse_302" data-name="Ellipse 302" transform="translate(1.148 1.148)" fill="#ff3e6c" stroke="#fff" stroke-width="1">
        <circle cx="8" cy="8" r="8" stroke="none"/>
        <circle cx="8" cy="8" r="8.5" fill="none"/>
      </g>
      <path id="Path_169807" data-name="Path 169807" d="M181.923,211.4a2.6,2.6,0,0,0-2.445-2.691,2.329,2.329,0,0,0-2.236,1.649,2.33,2.33,0,0,0-2.236-1.649,2.6,2.6,0,0,0-2.445,2.691c0,2.378,3.648,5.1,4.548,5.385a.4.4,0,0,0,.053.015.352.352,0,0,0,.074.011h.013a.352.352,0,0,0,.074-.011.4.4,0,0,0,.053-.015C178.275,216.5,181.923,213.776,181.923,211.4Z" transform="translate(-168.094 -203.37)" fill="#fefefe"/>
    </g>
    <g id="fb-icon-like" transform="translate(-15316.784 -8708.784)">
      <g id="Ellipse_303" data-name="Ellipse 303" transform="translate(0.784 0.784)" fill="#3e6dc1" stroke="#fff" stroke-width="1">
        <circle cx="8" cy="8" r="8" stroke="none"/>
        <circle cx="8" cy="8" r="8.5" fill="none"/>
      </g>
      <rect id="Rectangle_51421" data-name="Rectangle 51421" width="2.303" height="4.74" rx="1.151" transform="translate(4.434 7.902)" fill="#fefefe"/>
      <path id="Path_169808" data-name="Path 169808" d="M87.037,206.761h-.082a.733.733,0,1,0,0-1.465H84.6a3.842,3.842,0,0,0,.683-1.779c0-.942-.516-1.465-.852-1.525a.578.578,0,0,0-.68.4c-.1.284.075.822.008,1.015A17.282,17.282,0,0,1,82.44,205a2.711,2.711,0,0,0-.538,1.757v3.207a.457.457,0,0,0,.456.456h4.366a.531.531,0,1,0,0-1.062H86.8a.65.65,0,1,0,0-1.3h.239a.65.65,0,0,0,0-1.3Z" transform="translate(-74.551 -198.41)" fill="#fefefe"/>
    </g>
  </g>
</svg>
