<svg xmlns="http://www.w3.org/2000/svg" width="30.736" height="30.736" viewBox="0 0 30.736 30.736">
  <g id="Group_191193" data-name="Group 191193" transform="translate(-0.9 -0.9)">
    <path id="Path_368204" data-name="Path 368204" d="M29.071,1H3.465A2.468,2.468,0,0,0,1,3.465v25.6a2.469,2.469,0,0,0,2.465,2.466h25.6a2.469,2.469,0,0,0,2.466-2.465V3.465A2.468,2.468,0,0,0,29.071,1Zm1.077,28.071a1.079,1.079,0,0,1-1.077,1.077H3.465a1.079,1.079,0,0,1-1.077-1.077V3.465A1.079,1.079,0,0,1,3.465,2.388h25.6a1.079,1.079,0,0,1,1.078,1.077Z" fill="#f8b" stroke="#f8b" stroke-width="0.2"/>
    <path id="Path_368205" data-name="Path 368205" d="M12.608,10.824a2.621,2.621,0,0,0,2.608-2.608V5.608a2.608,2.608,0,1,0-5.216,0V8.216A2.621,2.621,0,0,0,12.608,10.824ZM11.3,5.608a1.3,1.3,0,1,1,2.608,0V8.216a1.3,1.3,0,0,1-2.608,0Z" transform="translate(3.66 0.608)" fill="#f8b" stroke="#f8b" stroke-width="0.2"/>
    <path id="Path_368206" data-name="Path 368206" d="M12.564,12.454v1.371h-1.3a.652.652,0,0,0,0,1.3h3.912a.652.652,0,0,0,0-1.3h-1.3V12.454A5.2,5.2,0,0,0,18.432,7.3V6.652a.652.652,0,0,0-1.3,0V7.3A3.912,3.912,0,0,1,9.3,7.3V6.652a.652.652,0,0,0-1.3,0V7.3a5.2,5.2,0,0,0,4.564,5.15Z" transform="translate(3.052 2.136)" fill="#f8b" stroke="#f8b" stroke-width="0.2"/>
    <path id="Path_368207" data-name="Path 368207" d="M12.152,15.5a.656.656,0,0,0-.652.652v3.912a.652.652,0,1,0,1.3,0V16.152A.656.656,0,0,0,12.152,15.5Z" transform="translate(4.116 5.897)" fill="#f8b" stroke="#f8b" stroke-width="0.2"/>
    <path id="Path_368208" data-name="Path 368208" d="M14.152,16.5a.656.656,0,0,0-.652.652v1.3a.652.652,0,0,0,1.3,0v-1.3A.656.656,0,0,0,14.152,16.5Z" transform="translate(4.9 6.144)" fill="#f8b" stroke="#f8b" stroke-width="0.2"/>
    <path id="Path_368209" data-name="Path 368209" d="M10.152,16.5a.656.656,0,0,0-.652.652v1.3a.652.652,0,1,0,1.3,0v-1.3A.656.656,0,0,0,10.152,16.5Z" transform="translate(3.332 6.144)" fill="#f8b" stroke="#f8b" stroke-width="0.2"/>
    <path id="Path_368210" data-name="Path 368210" d="M16.152,15.5a.656.656,0,0,0-.652.652v3.912a.652.652,0,1,0,1.3,0V16.152A.656.656,0,0,0,16.152,15.5Z" transform="translate(5.684 5.897)" fill="#f8b" stroke="#f8b" stroke-width="0.2"/>
    <path id="Path_368211" data-name="Path 368211" d="M18.152,16.5a.656.656,0,0,0-.652.652v1.3a.652.652,0,0,0,1.3,0v-1.3A.656.656,0,0,0,18.152,16.5Z" transform="translate(6.468 6.144)" fill="#f8b" stroke="#f8b" stroke-width="0.2"/>
    <path id="Path_368212" data-name="Path 368212" d="M8.152,15.5a.656.656,0,0,0-.652.652v3.912a.652.652,0,1,0,1.3,0V16.152A.656.656,0,0,0,8.152,15.5Z" transform="translate(2.548 5.897)" fill="#f8b" stroke="#f8b" stroke-width="0.2"/>
    <path id="Path_368213" data-name="Path 368213" d="M6.152,16.5a.656.656,0,0,0-.652.652v1.3a.652.652,0,1,0,1.3,0v-1.3A.656.656,0,0,0,6.152,16.5Z" transform="translate(1.764 6.144)" fill="#f8b" stroke="#f8b" stroke-width="0.2"/>
    <path id="Path_368214" data-name="Path 368214" d="M26.359,14H4.961A1.9,1.9,0,0,0,3,15.818v5.494a1.9,1.9,0,0,0,1.961,1.816h21.4A1.9,1.9,0,0,0,28.32,21.31V15.816A1.9,1.9,0,0,0,26.359,14Zm.554,7.31a.536.536,0,0,1-.554.514H4.961a.536.536,0,0,1-.554-.514V15.816a.536.536,0,0,1,.554-.512h21.4a.536.536,0,0,1,.553.514Z" transform="translate(0.608 5.8)" fill="#f8b" stroke="#f8b" stroke-width="0.2"/>
  </g>
</svg>
