<svg xmlns="http://www.w3.org/2000/svg" width="28.248" height="28.252" viewBox="0 0 28.248 28.252">
  <path id="Union_322" data-name="Union 322" d="M0,14.129A14.122,14.122,0,0,1,18.83.808a.829.829,0,1,1-.552,1.564,12.465,12.465,0,1,0,8.311,11.758,12.357,12.357,0,0,0-.713-4.154.833.833,0,0,1,1.568-.559A14.126,14.126,0,1,1,0,14.129Zm20.655,6.978a4.652,4.652,0,0,0-.988-1.444,4.7,4.7,0,0,0-3.327-1.38H11.908a4.7,4.7,0,0,0-3.327,1.38,4.621,4.621,0,0,0-.988,1.444.831.831,0,1,1-1.522-.666,6.28,6.28,0,0,1,1.333-1.957,6.356,6.356,0,0,1,2.725-1.61,6.37,6.37,0,1,1,7.988,0,6.349,6.349,0,0,1,4.058,3.566.833.833,0,0,1-.425,1.1.847.847,0,0,1-.33.066A.831.831,0,0,1,20.655,21.107ZM14.124,16.62a4.709,4.709,0,1,0-4.706-4.71,4.708,4.708,0,0,0,4.706,4.71ZM22.4,8.067,20.181,5.85A.83.83,0,0,1,21.359,4.68L22.989,6.3,26.83,2.463a.83.83,0,1,1,1.177,1.172L23.575,8.067a.832.832,0,0,1-1.177,0Z" fill="#f8b"/>
</svg>
