<svg xmlns="http://www.w3.org/2000/svg" width="31.86" height="31.861" viewBox="0 0 31.86 31.861">
  <g id="Group_191264" data-name="Group 191264" transform="translate(-99.97 -53.73)">
    <path id="Path_368257" data-name="Path 368257" d="M168.377,308.124a.807.807,0,0,1-.807-.807v-5.759a.807.807,0,0,1,1.615,0v5.759A.807.807,0,0,1,168.377,308.124Z" transform="translate(-63.961 -233.724)" fill="#f8b"/>
    <path id="Path_368258" data-name="Path 368258" d="M181.515,61.54a3.905,3.905,0,1,1,3.905-3.905A3.905,3.905,0,0,1,181.515,61.54Zm0-6.2a2.29,2.29,0,1,0,2.29,2.29A2.29,2.29,0,0,0,181.515,55.345Z" transform="translate(-73.461)" fill="#f8b"/>
    <path id="Path_368259" data-name="Path 368259" d="M472.488,196.212a.807.807,0,0,1-.6-1.346l4.387-4.917a.808.808,0,0,1,1.205,1.076l-4.387,4.915A.807.807,0,0,1,472.488,196.212Z" transform="translate(-351.703 -128.631)" fill="#f8b"/>
    <path id="Path_368260" data-name="Path 368260" d="M354.276,75.193H339.79a.807.807,0,0,1,0-1.615h14.486a.807.807,0,0,0,.807-.807V56.492a.807.807,0,0,0-.807-.807H338.437a.807.807,0,0,1,0-1.615h15.839a2.422,2.422,0,0,1,2.422,2.422V72.77A2.422,2.422,0,0,1,354.276,75.193Z" transform="translate(-224.868 -0.322)" fill="#f8b"/>
    <path id="Path_368261" data-name="Path 368261" d="M172.015,420.556h-3.638a.807.807,0,0,1-.807-.807V408.557a.807.807,0,0,1,1.615,0v10.383h2.831a.807.807,0,0,1,0,1.615Z" transform="translate(-63.961 -334.965)" fill="#f8b"/>
    <path id="Path_368262" data-name="Path 368262" d="M111.693,239.117h-3.639a.807.807,0,0,1-.807-.807v-10.72a.807.807,0,0,1,1.615,0V237.5h2.024V222.237a1.694,1.694,0,0,1,2.892-1.2l1.265,1.264a1,1,0,0,0,.715.3h3.758a1.012,1.012,0,0,0,1.012-1.033,1.036,1.036,0,0,0-1.047-.99h-2.971a.807.807,0,0,1-.571-.237L114.2,218.6a3.38,3.38,0,0,0-2.407-1h-.627l-1.22,1.015a2.96,2.96,0,0,1-3.784,0l-1.221-1.015h-.525a2.834,2.834,0,0,0-2.831,2.831.807.807,0,1,1-1.615,0,4.451,4.451,0,0,1,4.446-4.446h.817a.807.807,0,0,1,.516.187l1.445,1.2a1.346,1.346,0,0,0,1.722,0l1.444-1.2a.807.807,0,0,1,.516-.187h.919a4.985,4.985,0,0,1,3.549,1.47l1.5,1.5h2.637a2.658,2.658,0,0,1,2.662,2.573,2.627,2.627,0,0,1-2.626,2.68h-3.762a2.608,2.608,0,0,1-1.857-.769l-1.263-1.265a.081.081,0,0,0-.08-.02.079.079,0,0,0-.054.075v16.072a.807.807,0,0,1-.809.809Z" transform="translate(0 -153.526)" fill="#f8b"/>
    <path id="Path_368263" data-name="Path 368263" d="M102.6,293.707a2.629,2.629,0,0,1-2.627-2.627V284.4a.807.807,0,1,1,1.615,0v6.683a1.012,1.012,0,1,0,2.024,0,.807.807,0,0,1,1.615,0A2.629,2.629,0,0,1,102.6,293.707Z" transform="translate(0 -217.488)" fill="#f8b"/>
    <path id="Path_368264" data-name="Path 368264" d="M125.405,617.275h-24.6a.807.807,0,0,1,0-1.615h24.6a.807.807,0,0,1,0,1.615Z" transform="translate(-0.028 -531.684)" fill="#f8b"/>
    <path id="Path_368265" data-name="Path 368265" d="M402.623,191.295h-4.186a.807.807,0,0,1,0-1.615h4.186a.807.807,0,1,1,0,1.615Z" transform="translate(-281.638 -128.632)" fill="#f8b"/>
    <path id="Path_368266" data-name="Path 368266" d="M406.809,123.485h-8.372a.807.807,0,0,1,0-1.615h8.372a.807.807,0,0,1,0,1.615Z" transform="translate(-281.638 -64.472)" fill="#f8b"/>
  </g>
</svg>
