<svg xmlns="http://www.w3.org/2000/svg" width="35.749" height="36.453" viewBox="0 0 35.749 36.453">
  <path id="Union_323" data-name="Union 323" d="M7048.382,17051.15a.534.534,0,0,1-.569-.564v-1.467a1.378,1.378,0,0,1,1.365-1.357h1.535v-1.471a2.669,2.669,0,0,1-1.365-.73l-4.6-4.742-4.656-1.02a.547.547,0,0,1-.4-.393.54.54,0,0,1,.166-.566l9.435-9.035a.64.64,0,0,1,.562-.119.538.538,0,0,1,.4.449l.857,4.639,4.6,4.746a2.578,2.578,0,0,1-.061,3.668l-2.552,2.482a2.043,2.043,0,0,1-1.255.621v1.527h1.536a1.378,1.378,0,0,1,1.365,1.355v1.412a.535.535,0,0,1-.57.564Zm.624-1.977v.846h4.657v-.846a.26.26,0,0,0-.282-.225h-4.149A.249.249,0,0,0,7049.006,17049.174Zm-3.121-8.814c4.314,4.24,4.314,4.916,5.335,4.916a1.505,1.505,0,0,0,1.083-.4l2.552-2.484a1.443,1.443,0,0,0,.061-2.092l-4.319-4.459C7048.952,17037.428,7047.532,17038.781,7045.885,17040.359Zm-4.375-1.412,3.463.8c1.763-1.7,3.3-3.17,5.055-4.859l-.68-3.51Zm-11.081,11.639v-10.508l-6.529,8.361a.561.561,0,0,1-.8.113.552.552,0,0,1-.116-.791l6.873-8.814h-.8a.532.532,0,0,1-.563-.561v-3.451h-.172a1.373,1.373,0,0,1-1.365-1.35v-3.844a8.1,8.1,0,0,1-.739-.738h-3.862a1.37,1.37,0,0,1-1.365-1.35v-5.367a1.38,1.38,0,0,1,1.365-1.357h3.806c.281-.225.514-.512.795-.73v-3.844a1.378,1.378,0,0,1,1.365-1.357h5.4a1.382,1.382,0,0,1,1.364,1.357v3.73a10.447,10.447,0,0,1,.795.785h3.862a1.387,1.387,0,0,1,1.365,1.363v5.357a1.382,1.382,0,0,1-1.365,1.359h-3.862a10.528,10.528,0,0,1-.795.791v3.844a1.376,1.376,0,0,1-1.364,1.35h-.17v3.451a.534.534,0,0,1-.569.561h-.8l6.872,8.814a.6.6,0,0,1-.111.791.618.618,0,0,1-.794-.113l-6.59-8.418v10.564a.569.569,0,0,1-1.138,0Zm-.8-12.766h2.729v-2.885h-2.729Zm-1.53-4.234a.208.208,0,0,0,.226.227h5.4a.248.248,0,0,0,.228-.227v-3.055a6.445,6.445,0,0,1-5.85,0Zm1.359-13.5c-6.358,1.809-3.69,11.857,3.071,9.826,5.922-1.842,4-10.1-1.331-10.1A5.813,5.813,0,0,0,7029.463,17020.086Zm7.275,2.313a6.175,6.175,0,0,1-.116,5.479h3.071a.244.244,0,0,0,.225-.223v-5.367a.25.25,0,0,0-.225-.23h-3.071C7036.682,17022.176,7036.682,17022.287,7036.738,17022.4Zm-14.6-.111v5.367a.24.24,0,0,0,.227.223h3.066a6.375,6.375,0,0,1,0-5.82h-3.066A.246.246,0,0,0,7022.138,17022.287Zm11.816-2.885v-3.047a.248.248,0,0,0-.228-.227h-5.4a.242.242,0,0,0-.226.227v3.047a6.4,6.4,0,0,1,2.917-.693A6.473,6.473,0,0,1,7033.954,17019.4Zm16.135,23.273-1.879-1.857a.563.563,0,0,1,.8-.8l1.872,1.865a.558.558,0,1,1-.789.789Zm1.928-1.807-1.873-1.922a.559.559,0,0,1,.795-.785l1.874,1.916a.546.546,0,0,1,0,.791.551.551,0,0,1-.8,0Zm-11.417-4.971-2.332-1.012a.56.56,0,1,1,.458-1.021l2.326,1.021a.554.554,0,0,1,.287.73.543.543,0,0,1-.511.328A.552.552,0,0,1,7040.6,17035.9Zm1.646-3.164-1.818-1.861a.542.542,0,0,1,0-.787.55.55,0,0,1,.8,0l1.817,1.857a.537.537,0,0,1,0,.791.563.563,0,0,1-.4.174A.573.573,0,0,1,7042.246,17032.734Zm3.071-1.8-.968-2.316a.575.575,0,0,1,1.078-.4l.966,2.316a.59.59,0,0,1-.342.74.6.6,0,0,1-.185.029A.6.6,0,0,1,7045.317,17030.932Zm-17.953-5.932a3.651,3.651,0,0,1,3.635-3.619.567.567,0,1,1,0,1.135,2.512,2.512,0,0,0-2.5,2.484.569.569,0,0,1-1.139,0Z" transform="translate(-7020.85 -17014.848)" fill="#f8b" stroke="#f8b" stroke-width="0.3"/>
</svg>
