<svg id="gift_548427" xmlns="http://www.w3.org/2000/svg" width="27.385" height="27.385" viewBox="0 0 27.385 27.385">
  <g id="Group_191113" data-name="Group 191113" transform="translate(0 0)">
    <path id="Path_368183" data-name="Path 368183" d="M24.978,6.418H21.713A4.009,4.009,0,0,0,18.506,0a3.6,3.6,0,0,0-3.092,1.5A15.576,15.576,0,0,0,13.692,5.07,15.575,15.575,0,0,0,11.971,1.5,3.6,3.6,0,0,0,8.879,0,4.009,4.009,0,0,0,5.672,6.418H2.407A2.41,2.41,0,0,0,0,8.825v1.6A2.411,2.411,0,0,0,1.6,12.7V24.978a2.41,2.41,0,0,0,2.407,2.407H23.373a2.41,2.41,0,0,0,2.407-2.407V12.7a2.411,2.411,0,0,0,1.6-2.269v-1.6A2.41,2.41,0,0,0,24.978,6.418Zm-9.813-.709c1.229-3.118,1.7-4.1,3.341-4.1a2.407,2.407,0,0,1,0,4.814H14.884C14.983,6.171,15.076,5.934,15.165,5.709ZM8.879,1.6c1.645,0,2.112.986,3.341,4.1.089.225.182.462.281.709H8.879a2.407,2.407,0,1,1,0-4.814Zm1.6,24.176H4.011a.8.8,0,0,1-.8-.8V12.837h7.274Zm0-14.548H2.407a.8.8,0,0,1-.8-.8v-1.6a.8.8,0,0,1,.8-.8h8.076ZM15.3,25.78H12.088V8.023H15.3Zm8.879-.8a.8.8,0,0,1-.8.8H16.9V12.837h7.274Zm1.6-14.548a.8.8,0,0,1-.8.8H16.9V8.023h8.076a.8.8,0,0,1,.8.8Z" transform="translate(0 0)" fill="#f8b"/>
  </g>
</svg>
