<svg xmlns="http://www.w3.org/2000/svg" width="31.553" height="31.523" viewBox="0 0 31.553 31.523">
  <path id="Union_325" data-name="Union 325" d="M.612,31.323A.612.612,0,0,1,0,30.711V28.264a.612.612,0,0,1,.612-.612H2.2V25.817a.612.612,0,0,1,.612-.612H5.266V22.757a.612.612,0,0,1,.612-.612H25.474a.612.612,0,0,1,.612.612V25.2h2.449a.612.612,0,0,1,.612.612v1.836H30.74a.612.612,0,0,1,.612.612v2.447a.612.612,0,0,1-.612.612ZM1.225,30.1h28.9V28.876H1.225Zm2.2-2.447H27.923V26.428H18.432a.612.612,0,0,1,0-1.224h6.43V23.369H6.491V25.2h6.43a.612.612,0,0,1,0,1.224H3.429Zm11.634-1.836a.612.612,0,0,1,.612-.612h0a.612.612,0,0,1,.612.612.612.612,0,0,1-1.225,0Zm-3.916-6.544.11-.841-1.769,1.7a.612.612,0,1,1-.849-.882L11.3,16.7l-1.546-1.6a1.613,1.613,0,0,1,.908-2.7l2.438-.453.083-.156L5.461,4.355,4.152,5.662l1.68,12.245a.612.612,0,0,1-1.213.166L2.925,5.732.581,3.39a2,2,0,0,1,0-2.812A2,2,0,0,1,3.4.577L5.882,3.062l7.9,7.6.477-.894a1.609,1.609,0,0,1,2.832-.013h0l.491.9L25.47,3.062,27.956.577a2,2,0,0,1,2.814,0,1.99,1.99,0,0,1,0,2.812L28.427,5.732,26.734,18.074a.612.612,0,0,1-1.213-.166L27.2,5.662,25.892,4.355l-7.707,7.413.106.194,2.426.43a1.61,1.61,0,0,1,.837,2.748l-1.487,1.567,2.645,2.545a.612.612,0,1,1-.849.882l-1.78-1.712.13.93a1.612,1.612,0,0,1-2.288,1.675l-2.275-1.083-2.214,1.077a1.6,1.6,0,0,1-.7.162H12.7A1.62,1.62,0,0,1,11.148,19.273Zm4.415-9.12a.381.381,0,0,0-.227.186l-1.3,2.433a.612.612,0,0,1-.429.314l-2.737.508-.021,0a.385.385,0,0,0-.219.647L12.55,16.23a.612.612,0,0,1,.166.5l-.357,2.718c0,.015,0,.029-.007.044a.382.382,0,0,0,.031.247.387.387,0,0,0,.517.178l2.479-1.206a.612.612,0,0,1,.531,0l2.541,1.21a.387.387,0,0,0,.548-.4l-.382-2.731a.611.611,0,0,1,.162-.506l1.9-2,.027-.026a.386.386,0,0,0-.2-.663l-2.718-.481a.612.612,0,0,1-.431-.31l-1.343-2.469a.383.383,0,0,0-.449-.183ZM28.822,1.443,26.766,3.5l1.082,1.082L29.9,2.524a.765.765,0,0,0,0-1.082.773.773,0,0,0-1.082,0Zm-27.375,0a.772.772,0,0,0,0,1.082L3.5,4.579,4.586,3.5,2.53,1.443a.748.748,0,0,0-.541-.221A.748.748,0,0,0,1.447,1.443Z" transform="translate(0.1 0.1)" fill="#f8b" stroke="#f8b" stroke-width="0.2"/>
</svg>
