<svg xmlns="http://www.w3.org/2000/svg" width="27.234" height="24.747" viewBox="0 0 27.234 24.747">
  <path id="icon" d="M13.494,27.647a2.23,2.23,0,0,1-1.828-.808L2.311,16.8A8.687,8.687,0,0,1,.823,7.067,7.468,7.468,0,0,1,7.5,2.9a7.6,7.6,0,0,1,5.443,2.381l.553.553.553-.553A7.385,7.385,0,0,1,19.49,2.9h0a7.385,7.385,0,0,1,5.443,2.381,7.865,7.865,0,0,1,2.254,5.655,8.532,8.532,0,0,1-2.126,5.655L15.79,26.5a3.724,3.724,0,0,1-1.021.808,2.864,2.864,0,0,1-1.276.34Zm-.085-2.381.128.128c.128,0,.213-.17.3-.3l9.4-10.12A6.138,6.138,0,0,0,24.8,10.894a5.755,5.755,0,0,0-1.573-4.082,5.013,5.013,0,0,0-3.827-1.7h0a4.95,4.95,0,0,0-3.827,1.7L13.452,9.066,11.326,6.812A5.321,5.321,0,0,0,7.584,5.239,5.529,5.529,0,0,0,2.736,8.215a6.41,6.41,0,0,0,1.191,7.1Z" transform="translate(0.048 -2.9)" fill="#666"/>
</svg>
