<svg xmlns="http://www.w3.org/2000/svg" xmlns:xlink="http://www.w3.org/1999/xlink" width="167" height="88" viewBox="0 0 167 88">
  <defs>
    <linearGradient id="linear-gradient" x1="-0.307" y1="-1.515" x2="1.272" y2="1.325" gradientUnits="objectBoundingBox">
      <stop offset="0" stop-color="#a9e"/>
      <stop offset="1" stop-color="#fe88bb"/>
    </linearGradient>
  </defs>
  <g id="Group_195665" data-name="Group 195665" transform="translate(-93 -932)">
    <g id="fukidashi" transform="translate(5.254 -5830.053)">
      <path id="Union_1" data-name="Union 1" d="M73.205,82.08H93.794L83.5,95ZM15,82A15,15,0,0,1,0,67V22A15,15,0,0,1,15,7H152a15,15,0,0,1,15,15V67a15,15,0,0,1-15,15Z" transform="translate(87.746 6755.053)" fill="#fff"/>
    </g>
    <g id="満足度ランキング_Best_" data-name="満足度ランキング
Best１０" transform="translate(112.72 955.16)">
      <path id="Path_376836" data-name="Path 376836" d="M-43.1,0l2.965-17.062,5.32.012a7.058,7.058,0,0,1,4.453,1.207,3.732,3.732,0,0,1,1.348,3.363A4.3,4.3,0,0,1-32-8.7a2.866,2.866,0,0,1,1.582,1.318,3.945,3.945,0,0,1,.48,2.279,4.936,4.936,0,0,1-1.893,3.756A7.506,7.506,0,0,1-36.551,0Zm4.734-7.43-.809,4.605,2.707.012a3.491,3.491,0,0,0,2.121-.627,2.487,2.487,0,0,0,1.02-1.693,2.1,2.1,0,0,0-.287-1.646,1.9,1.9,0,0,0-1.518-.639Zm.422-2.484,2.332.023a3.713,3.713,0,0,0,2.127-.609,2.362,2.362,0,0,0,.99-1.629q.293-2.062-2.168-2.074l-2.531-.012ZM-19.913.234A5.516,5.516,0,0,1-22.86-.58a4.938,4.938,0,0,1-1.916-2.2,6.14,6.14,0,0,1-.492-3.088l.035-.469a8.2,8.2,0,0,1,1.078-3.4,6.512,6.512,0,0,1,2.32-2.385,5.741,5.741,0,0,1,3.141-.791,4.389,4.389,0,0,1,3.709,1.8A6.158,6.158,0,0,1-14.03-6.68l-.187,1.441h-7.77a2.721,2.721,0,0,0,.6,1.969,2.281,2.281,0,0,0,1.758.762A4.068,4.068,0,0,0-16.467-3.9l1.512,1.875A4.7,4.7,0,0,1-17.018-.346,6.745,6.745,0,0,1-19.913.234Zm1.055-10.418a2.348,2.348,0,0,0-1.623.574,5.045,5.045,0,0,0-1.271,2.074h4.547l.07-.3a3.106,3.106,0,0,0,.012-.891A1.7,1.7,0,0,0-17.7-9.791,1.8,1.8,0,0,0-18.858-10.184ZM-3.485-3.574q.188-.937-1.3-1.359L-5.852-5.2q-3.785-1.043-3.68-3.68a3.641,3.641,0,0,1,1.588-2.924,5.913,5.913,0,0,1,3.686-1.107A5.3,5.3,0,0,1-.79-11.777,3.745,3.745,0,0,1,.558-8.812l-3.281-.012a1.445,1.445,0,0,0-1.617-1.652,2.327,2.327,0,0,0-1.342.387,1.592,1.592,0,0,0-.7,1.043q-.176.938,1.418,1.324l.469.105a9.428,9.428,0,0,1,2.473.885A3.732,3.732,0,0,1-.7-5.5a3.06,3.06,0,0,1,.428,1.77,3.377,3.377,0,0,1-.779,2.109A4.77,4.77,0,0,1-3.093-.223,7.1,7.1,0,0,1-5.817.234,5.353,5.353,0,0,1-9.333-.979a3.91,3.91,0,0,1-1.43-3.076l3.117.023A1.714,1.714,0,0,0-5.7-2.191a2.768,2.768,0,0,0,1.506-.375A1.481,1.481,0,0,0-3.485-3.574ZM10.352-15.8,9.8-12.68h2.109L11.477-10.2H9.368L8.29-3.844a1.615,1.615,0,0,0,.094.914q.164.316.8.34.188.012,1.008-.059L9.954-.059a5.558,5.558,0,0,1-1.9.27A2.978,2.978,0,0,1,5.63-.809a3.684,3.684,0,0,1-.656-2.7L6.063-10.2H4.27L4.7-12.68H6.5L7.036-15.8ZM21.893,0h-3.3l2.25-12.984L16.69-11.73l.516-2.895,7.125-2.461.434-.012ZM35.555.234a4.327,4.327,0,0,1-3.422-1.5A6.308,6.308,0,0,1,30.891-5.32a12.905,12.905,0,0,1,.094-1.734l.48-3.2a9.957,9.957,0,0,1,2.262-5.3A5.478,5.478,0,0,1,38.051-17.3,4.353,4.353,0,0,1,41.479-15.8a6.242,6.242,0,0,1,1.248,4.037,13.01,13.01,0,0,1-.094,1.746l-.492,3.176a10.171,10.171,0,0,1-2.256,5.326A5.445,5.445,0,0,1,35.555.234Zm3.973-12.4q0-2.332-1.641-2.414-2.367-.105-3.012,3.609l-.586,3.961A14.3,14.3,0,0,0,34.1-4.945q-.059,2.379,1.629,2.461,2.379.152,3.023-3.715l.621-4.172A12.315,12.315,0,0,0,39.527-12.164Z" transform="translate(64.28 34.84)" fill="url(#linear-gradient)"/>
      <path id="Path_376837" data-name="Path 376837" d="M-53.228-6.972v.91h-2.744a10.275,10.275,0,0,1-1.05-.042c.028.378.042.686.042,1.19v4.48a12.85,12.85,0,0,1-.084,1.61h1.526a11.725,11.725,0,0,1-.07-1.54V-4.8h2.38v2.73h-.616V-3.094A9.785,9.785,0,0,1-53.8-4.172h-1.3a7.7,7.7,0,0,1,.056,1.078v1.848A8.329,8.329,0,0,1-55.1-.112h1.26v-.7h2.87c.49.014.812.014.952.028a10.573,10.573,0,0,1-.028-1.064V-3.08a9.273,9.273,0,0,1,.042-1.078H-51.3a10.325,10.325,0,0,1,.042,1.078v1.008H-51.9V-4.8h2.464V-.658c0,.28-.056.322-.434.322A12.64,12.64,0,0,1-51.31-.448,4.952,4.952,0,0,1-50.988.98c.266.028.336.028.63.042h.532c1.414,0,1.792-.252,1.792-1.2V-4.676a9.346,9.346,0,0,1,.07-1.442,14.234,14.234,0,0,1-1.54.056H-51.9v-.91h2.954a10.637,10.637,0,0,1,1.554.084V-8.344a8.119,8.119,0,0,1-1.554.084h-1.022V-9.282h.756a12.174,12.174,0,0,1,1.372.07v-1.47a12.347,12.347,0,0,1-1.4.07h-.728v-.1a6.666,6.666,0,0,1,.07-1.036h-1.582a5.374,5.374,0,0,1,.07,1.036v.1h-2.226v-.1a5.116,5.116,0,0,1,.07-1.036h-1.582a6.8,6.8,0,0,1,.07,1.036v.1h-.476a11.894,11.894,0,0,1-1.386-.07v.7a11.839,11.839,0,0,0-2.03-1.666l-1.008.966A10.826,10.826,0,0,1-57.82-8.75l.882-.994v.532a9.6,9.6,0,0,1,1.358-.07h.5V-8.26h-.854a9.7,9.7,0,0,1-1.484-.084v1.456a10.732,10.732,0,0,1,1.526-.084Zm-.406-1.288V-9.282h2.226V-8.26Zm-6.748,1.134a12.244,12.244,0,0,1,2.156,1.932l1.008-1.092A12,12,0,0,0-59.36-8.134Zm1.75,2.884A12.13,12.13,0,0,1-60.438-.1l1.316,1.2A3.536,3.536,0,0,1-58.9.6a25.928,25.928,0,0,0,1.484-3.99Zm19.516,3.01A4.874,4.874,0,0,1-41.37-3.668c.1-.364.154-.6.238-.98.1-.42.126-.574.182-.77L-42.5-5.726a9.081,9.081,0,0,1-.728,2.94A7.91,7.91,0,0,1-45.094.028a5.2,5.2,0,0,1,1.2,1.092,10.485,10.485,0,0,0,1.9-3.066A5.616,5.616,0,0,0-38.08.658a16.646,16.646,0,0,0,3.29.266c.7,0,1.372-.014,2.212-.056a4.661,4.661,0,0,1,.42-1.582c-1.2.084-1.89.112-2.688.112A15.6,15.6,0,0,1-37.6-.8V-3.066h3.094A10.277,10.277,0,0,1-33.068-3V-4.55a8.908,8.908,0,0,1-1.442.07H-37.6V-6.356h2.478a14.043,14.043,0,0,1,1.442.056,9.3,9.3,0,0,1-.056-1.176v-2.632a9.344,9.344,0,0,1,.056-1.162,10.915,10.915,0,0,1-1.582.07H-41.65a12.538,12.538,0,0,1-1.6-.07,9.79,9.79,0,0,1,.056,1.162v2.632A9.734,9.734,0,0,1-43.246-6.3a14.163,14.163,0,0,1,1.456-.056h2.674Zm3.864-8.582V-7.7h-6.426V-9.814ZM-25.018-7.2V-5.88A8.256,8.256,0,0,1-25.074-5c.252-.014.434-.014.98-.014H-20.2c.56,0,.588,0,.91.014a7.743,7.743,0,0,1-.042-.882V-7.2h1.344a8.863,8.863,0,0,1,1.246.056V-8.526a7.564,7.564,0,0,1-1.246.07h-1.344v-.98h1.078a14.459,14.459,0,0,1,1.47.056v-1.456a12.65,12.65,0,0,1-1.694.084h-3.472v-.294a3.365,3.365,0,0,1,.07-.812h-1.666a4.7,4.7,0,0,1,.07.8v.308h-3.486c-.6,0-1.092-.028-1.582-.07.042.5.056.868.056,1.9A29.865,29.865,0,0,1-28.9-2.6,7.582,7.582,0,0,1-29.764-.21a5.785,5.785,0,0,1,1.176,1.288A10.079,10.079,0,0,0-27.4-2.254,29.039,29.039,0,0,0-27.006-7.2Zm-1.974-1.26v-.98h1.974v.98Zm3.444,0v-.98H-20.8v.98Zm0,1.26H-20.8v.966h-2.744Zm4.592,2.94c-.336.028-.588.042-1.162.042H-25a9.731,9.731,0,0,1-1.5-.07v1.316c.294-.028.5-.042.994-.056a8.118,8.118,0,0,0,1.9,1.988,13.23,13.23,0,0,1-4,.784,4.761,4.761,0,0,1,.546,1.442A15.08,15.08,0,0,0-22.274-.182,13.909,13.909,0,0,0-17.22,1.176a6.847,6.847,0,0,1,.588-1.582,12.3,12.3,0,0,1-4.144-.658,11.462,11.462,0,0,0,2.31-2.1c.126-.14.14-.154.266-.28Zm-1.5,1.232A7.886,7.886,0,0,1-22.19-1.708a5.494,5.494,0,0,1-1.624-1.316Zm8.582-6.258a10.766,10.766,0,0,1,1.61-.07H-5.32a10.766,10.766,0,0,1,1.61.07V-11a7.966,7.966,0,0,1-1.638.1h-4.886a7.966,7.966,0,0,1-1.638-.1ZM-3-7.658a6.124,6.124,0,0,1-1.582.126h-6.664a9.937,9.937,0,0,1-1.82-.1v1.708a14.242,14.242,0,0,1,1.792-.07h6.818A7.284,7.284,0,0,1-6.706-2.716,9.092,9.092,0,0,1-10.6-.868,4.878,4.878,0,0,1-9.506.756a12.458,12.458,0,0,0,3.668-1.9A9.9,9.9,0,0,0-2.59-5.88,6.312,6.312,0,0,1-2.2-6.762Zm5.4-1.33a14.7,14.7,0,0,1,3.57,2.842l1.2-1.526a19.828,19.828,0,0,0-3.612-2.7ZM2.9.252A4.956,4.956,0,0,1,3.822.014a15.122,15.122,0,0,0,5.334-2.1,12.287,12.287,0,0,0,4.438-5.488A6.037,6.037,0,0,1,12.11-8.946a11.69,11.69,0,0,1-1.428,2.8,9.354,9.354,0,0,1-4.158,3.43A13.34,13.34,0,0,1,2.38-1.68ZM21.546-8.68l-2.6.406a13.013,13.013,0,0,1-1.54.154l.28,1.722a14.933,14.933,0,0,1,1.54-.322l2.6-.406.42,2.3-3.4.546a8.615,8.615,0,0,1-1.484.14l.28,1.722a11.266,11.266,0,0,1,1.428-.308l3.458-.546.5,2.758a10.6,10.6,0,0,1,.182,1.47L25.088.616a7.908,7.908,0,0,1-.336-1.442l-.5-2.716,3.332-.532.56-.084a1.088,1.088,0,0,1,.224-.028,3.358,3.358,0,0,1,.644-.07L28.7-5.936a12.441,12.441,0,0,1-1.456.322l-3.29.518-.42-2.3,2.954-.462a11.886,11.886,0,0,1,1.344-.182l-.294-1.68a7.211,7.211,0,0,1-1.344.308l-2.954.462-.224-1.218a9.631,9.631,0,0,1-.168-1.316L21-11.186a6.032,6.032,0,0,1,.336,1.316Zm11.662-.308a14.7,14.7,0,0,1,3.57,2.842l1.2-1.526a19.828,19.828,0,0,0-3.612-2.7ZM33.7.252a4.956,4.956,0,0,1,.924-.238,15.122,15.122,0,0,0,5.334-2.1,12.287,12.287,0,0,0,4.438-5.488A6.037,6.037,0,0,1,42.91-8.946a11.69,11.69,0,0,1-1.428,2.8,9.354,9.354,0,0,1-4.158,3.43A13.34,13.34,0,0,1,33.18-1.68ZM58.17-9.52l.742-.266a6.576,6.576,0,0,0-1.078-1.806l-1.12.392a7.674,7.674,0,0,1,.966,1.61,3.853,3.853,0,0,1-.7.042l-3.066.042c-.294.014-.518.014-.672.028.2-.364.294-.574.546-1.134a1.944,1.944,0,0,1,.28-.5l-1.918-.392a5.274,5.274,0,0,1-.714,1.862,10.769,10.769,0,0,1-3.626,4.06,3.72,3.72,0,0,1,1.358,1.2,13.541,13.541,0,0,0,3.276-3.6l4.214-.056A11.139,11.139,0,0,1,52.57-2.128,12.153,12.153,0,0,1,49.5-.49,4.314,4.314,0,0,1,50.694.98a13.945,13.945,0,0,0,4.984-3.542,14.521,14.521,0,0,0,2.87-5.4,2.489,2.489,0,0,1,.35-.84Zm2.45-.812a7.3,7.3,0,0,0-1.078-1.736l-1.092.42A9.006,9.006,0,0,1,59.5-9.87Z" transform="translate(64.28 7.84)" fill="url(#linear-gradient)"/>
    </g>
  </g>
</svg>
