<svg xmlns="http://www.w3.org/2000/svg" xmlns:xlink="http://www.w3.org/1999/xlink" width="138.372" height="30" viewBox="0 0 138.372 30">
  <defs>
    <linearGradient id="linear-gradient" y1="0.5" x2="1" y2="0.5" gradientUnits="objectBoundingBox">
      <stop offset="0" stop-color="#e098c1"/>
      <stop offset="1" stop-color="#5185c5"/>
    </linearGradient>
  </defs>
  <g id="logo" transform="translate(-15.564 -13.742)">
    <path id="Path_232125" data-name="Path 232125" d="M-427.262,24053.629l17.088-3.25A14.959,14.959,0,0,1-421,24055,14.918,14.918,0,0,1-427.262,24053.629ZM-436,24040a15.4,15.4,0,0,1,.105-1.756l10.593,3.877-4.654,9.914A14.977,14.977,0,0,1-436,24040Zm13.137,3.012,12.854,4.7-16.542,3.148Zm1.1-2.35,6.765-14.4a15,15,0,0,1,9,13.742,14.955,14.955,0,0,1-1.24,5.977Zm-11.626-4.256,14.659-8.285-5.468,11.652ZM-421,24025a14.882,14.882,0,0,1,2.243.166l-16.106,9.1A15,15,0,0,1-421,24025Z" transform="translate(451.564 -24011.262)" fill="url(#linear-gradient)"/>
    <path id="Path_232124" data-name="Path 232124" d="M-405.418,24044.852l-.03-15.652h2.223v.732a5.166,5.166,0,0,1,3-1.033c3.234,0,5.673,2.635,5.673,6.127s-2.439,6.127-5.673,6.127a5.141,5.141,0,0,1-2.973-1v4.7Zm2.223-12.154v4.654a4.205,4.205,0,0,0,2.973,1.746c2,0,3.447-1.715,3.447-4.072s-1.449-4.072-3.447-4.072A4.211,4.211,0,0,0-403.195,24032.7Zm41.174,4.125v-5.568h-2.088v-2.055h2.088v-3h2.226v3h3.2v2.055h-3.2v5.568c0,1.32.69,2.275,1.644,2.275a2.208,2.208,0,0,0,1.53-.781l.258-.332,1.629,1.143-.282.385a4.193,4.193,0,0,1-3.135,1.641C-360.4,24041.152-362.021,24039.332-362.021,24036.822Zm-24.6.2c0-2.465,1.86-4.129,4.626-4.129a9.077,9.077,0,0,1,2.955.574,2.418,2.418,0,0,0-2.574-2.516,3.3,3.3,0,0,0-2.382,1.176l-.18.234-1.635-1.145.2-.279a5.269,5.269,0,0,1,3.993-2.041c2.925,0,4.818,1.975,4.818,5.027,0,0,0,6.916,0,6.926h-2.226a7.261,7.261,0,0,0,0-.73,4.676,4.676,0,0,1-2.973,1.031C-384.756,24041.152-386.616,24039.492-386.616,24037.023Zm2.226,0c0,1.316.876,2.074,2.4,2.074a4.232,4.232,0,0,0,2.973-1.746v-1.621a7.475,7.475,0,0,0-2.973-.777C-383.514,24034.953-384.39,24035.707-384.39,24037.023Zm-32.884,1.418-.2-.344,1.641-1.152.27.459a3.646,3.646,0,0,0,2.8,1.693c1.65,0,2.4-.867,2.4-1.672,0-.738-.783-1.043-2.442-1.512-1.7-.486-4.017-1.146-4.017-3.588,0-1.662,1.488-3.428,4.248-3.428a5.574,5.574,0,0,1,4.071,2.02l-1.578,1.234a3.624,3.624,0,0,0-2.493-1.2c-1.317,0-2.022.707-2.022,1.373,0,.736.78,1.041,2.439,1.514,1.7.484,4.02,1.145,4.02,3.586,0,1.852-1.59,3.727-4.629,3.727A5.613,5.613,0,0,1-417.275,24038.441Zm67.737,2.41v-1.482l8.172-12.115h-7.794v-2.055h10.776v1.48l-8.175,12.117h8.772l-.486,2.055Zm-23.593,0v-8.426c0-.256-.012-.49-.027-.707v-2.52h2.25s-.015.51,0,.6a4.24,4.24,0,0,1,2.592-.9,4.114,4.114,0,0,1,1.557.27l.735.309-.777,2.045-.789-.334a2.235,2.235,0,0,0-.726-.133,3.6,3.6,0,0,0-2.592,1.625v8.172Zm-18.52,0V24029.2h2.226v11.652Zm-30.289,0v-7.227a2.5,2.5,0,0,0-2.5-2.672,4.217,4.217,0,0,0-2.973,1.744v8.154h-2.223V24029.2l2.223,0v.711a5.15,5.15,0,0,1,2.973-1.012,4.521,4.521,0,0,1,4.722,4.727v7.227Zm-14.059,0V24025.2h2.226v15.652Zm44.063-14.426a1.448,1.448,0,0,1,1.4-1.426,1.448,1.448,0,0,1,1.4,1.426,1.452,1.452,0,0,1-1.4,1.43A1.452,1.452,0,0,1-391.935,24026.426Z" transform="translate(491.722 -24004.441)" fill="#1a1311"/>
  </g>
</svg>
