<svg xmlns="http://www.w3.org/2000/svg" width="24" height="23.999" viewBox="0 0 24 23.999">
  <g id="icon" transform="translate(0 0)">
    <g id="Group_87235" data-name="Group 87235" transform="translate(0 0)">
      <path id="Path_232528" data-name="Path 232528" d="M9.342,10.587A3.159,3.159,0,1,0,12.5,7.428a3.162,3.162,0,0,0-3.159,3.159m5.317,0A2.159,2.159,0,1,1,12.5,8.428a2.161,2.161,0,0,1,2.158,2.159" transform="translate(-0.5 -0.398)" fill="#fff"/>
      <path id="Path_232529" data-name="Path 232529" d="M23.762,6.786,12.248.066a.479.479,0,0,0-.484,0L.238,6.774A.48.48,0,1,0,.722,7.6l1.2-.7V21.567A2.467,2.467,0,0,0,4.414,24H19.585a2.467,2.467,0,0,0,2.5-2.433V6.915l1.2.7a.48.48,0,1,0,.484-.828M9.12,23.04V16.825a.5.5,0,0,1,.5-.5h4.751a.506.506,0,0,1,.5.5V23.04Zm12-1.473a1.506,1.506,0,0,1-1.535,1.473H15.84V16.825a1.467,1.467,0,0,0-1.465-1.465H9.624A1.467,1.467,0,0,0,8.16,16.825V23.04H4.414A1.506,1.506,0,0,1,2.88,21.567V6.347l9.126-5.312L21.12,6.355Z" transform="translate(0 0)" fill="#fff"/>
    </g>
  </g>
</svg>
