<svg xmlns="http://www.w3.org/2000/svg" width="26" height="26" viewBox="0 0 26 26">
  <g id="やや不満">
    <circle id="椭圆_282" data-name="椭圆 282" cx="13" cy="13" r="13" fill="#ace2db"/>
    <path id="路径_9310" data-name="路径 9310" d="M215.829,307.125a.95.95,0,0,1-.406-1.81,12.137,12.137,0,0,1,10.818,0,.95.95,0,0,1-.812,1.718,10.187,10.187,0,0,0-9.195,0A.947.947,0,0,1,215.829,307.125Z" transform="translate(-207.832 -289.746)"/>
    <g id="组_5108" data-name="组 5108" transform="translate(6.712 7.037)">
      <path id="路径_9311" data-name="路径 9311" d="M237.3,287.858a1.525,1.525,0,1,0,1.525-1.525A1.525,1.525,0,0,0,237.3,287.858Z" transform="translate(-227.773 -286.333)"/>
      <path id="路径_9312" data-name="路径 9312" d="M214.063,287.858a1.525,1.525,0,1,0,1.525-1.525A1.525,1.525,0,0,0,214.063,287.858Z" transform="translate(-214.063 -286.333)"/>
    </g>
  </g>
</svg>
