<svg xmlns="http://www.w3.org/2000/svg" xmlns:xlink="http://www.w3.org/1999/xlink" width="355" height="41" viewBox="0 0 355 41">
  <defs>
    <clipPath id="clip-path">
      <rect id="Rectangle_145" data-name="Rectangle 145" width="20" height="14" transform="translate(0.021)" fill="#fff"/>
    </clipPath>
  </defs>
  <g id="Group_197691" data-name="Group 197691" transform="translate(0 -21)">
    <path id="Union_338" data-name="Union 338" d="M5424,16693h355v38H5424Z" transform="translate(-5424 -16669)" fill="#a9e" opacity="0.396"/>
    <g id="Group_192986" data-name="Group 192986" transform="translate(-8.035 -2590)">
      <rect id="Rectangle_107402" data-name="Rectangle 107402" width="355" height="30" transform="translate(8.035 2618)" fill="#a9e"/>
      <g id="Group_192983" data-name="Group 192983" transform="translate(129.014 2617)">
        <g id="Group_152555" data-name="Group 152555" transform="translate(0 9)">
          <path id="Path_29430" data-name="Path 29430" d="M18.694,13.7,14.7,7.967,10.709,13.7,6.038,10.9l2.215,7.406h12.9L23.364,10.9Z" transform="translate(-4.701 -6.203)" fill="#fff"/>
          <path id="Path_29431" data-name="Path 29431" d="M15.651,57.412l-.266,1.36H28.571l-.266-1.36Z" transform="translate(-11.978 -44.773)" fill="#fff"/>
          <g id="Group_152336" data-name="Group 152336">
            <g id="Group_152335" data-name="Group 152335" clip-path="url(#clip-path)">
              <path id="Path_29432" data-name="Path 29432" d="M46.13.817a.769.769,0,1,1-1.535,0,.769.769,0,1,1,1.535,0" transform="translate(-35.362 0)" fill="#fff"/>
              <path id="Path_29433" data-name="Path 29433" d="M90.725,15.435a.769.769,0,1,1-.768-.817.793.793,0,0,1,.768.817" transform="translate(-70.725 -11.398)" fill="#fff"/>
              <path id="Path_29434" data-name="Path 29434" d="M0,15.435a.793.793,0,0,0,.767.817.818.818,0,0,0,0-1.633A.793.793,0,0,0,0,15.435" transform="translate(0 -11.398)" fill="#fff"/>
            </g>
          </g>
        </g>
        <text id="堂々の" transform="translate(45.848 21)" fill="#fff" font-size="12" font-family="HiraKakuStd-W6, Hiragino Kaku Gothic Std"><tspan x="-18" y="0">堂々の</tspan></text>
        <text id="第_位" data-name="第　 位" transform="translate(90.848 21)" fill="#fff" font-size="14" font-family="HiraKakuStd-W6, Hiragino Kaku Gothic Std"><tspan x="-23.331" y="0">第　 位</tspan></text>
        <text id="_1" data-name="1" transform="translate(90.848 26)" fill="#fff" font-size="30" font-family="SegoeUI-Italic, Segoe UI" font-style="italic"><tspan x="-8.086" y="0">1</tspan></text>
      </g>
    </g>
  </g>
</svg>
