<svg xmlns="http://www.w3.org/2000/svg" width="26.785" height="20.887" viewBox="0 0 26.785 20.887">
  <path id="Path_232528" data-name="Path 232528" d="M30.183,10.5H14.294a1.6,1.6,0,0,0-1.6,1.6V15.15a3.793,3.793,0,1,0,1.071,0V12.107a.532.532,0,0,1,.53-.53H30.183a.532.532,0,0,1,.53.53V23.442a.532.532,0,0,1-.53.53h-8.41a18.069,18.069,0,0,0,1.891-7.521,1.522,1.522,0,0,0-2.277-1.382,1.578,1.578,0,0,0-.734.986c-1.88,7.6-5.469,7.516-5.464,7.521a14.76,14.76,0,0,0-1.966-.123c-3.037,0-4.9.712-5.855,2.25a8.728,8.728,0,0,0-.852,4.612h-.98a.536.536,0,1,0,0,1.071H31.249a.536.536,0,1,0,0-1.071H19.924c0-.712-.011-1.4-.075-2.041a3.726,3.726,0,0,1,.9-2.786c.118-.145.23-.295.343-.445h9.091a1.6,1.6,0,0,0,1.6-1.6V12.107a1.607,1.607,0,0,0-1.6-1.607ZM15.95,18.91a2.724,2.724,0,1,1-2.721-2.721A2.73,2.73,0,0,1,15.95,18.91Zm2.834,9.471c.059.595.07,1.237.075,1.934H7.587a7.872,7.872,0,0,1,.691-4.044c.466-.75,1.489-1.746,4.944-1.746a13.539,13.539,0,0,1,1.854.118c.187.011,4.5.225,6.616-8.33a.5.5,0,0,1,.23-.316.444.444,0,0,1,.664.407c-.07,1.65-.471,5.775-2.662,8.394a4.831,4.831,0,0,0-1.141,3.584Z" transform="translate(-5 -10.5)" fill="#fff"/>
</svg>
