<svg xmlns="http://www.w3.org/2000/svg" xmlns:xlink="http://www.w3.org/1999/xlink" width="199.999" height="73.244" viewBox="0 0 199.999 73.244">
  <defs>
    <linearGradient id="linear-gradient" y1="0.752" x2="1" y2="0.787" gradientUnits="objectBoundingBox">
      <stop offset="0" stop-color="#7bd"/>
      <stop offset="1" stop-color="#68d"/>
    </linearGradient>
  </defs>
  <g id="label" transform="translate(-89 -1541.756)">
    <path id="Union_23" data-name="Union 23" d="M15,12473a15,15,0,0,1,0-30H87.062a12.846,12.846,0,0,1-2.353-.951,10.577,10.577,0,0,1-4.411-4.248,11.74,11.74,0,0,1-1.421-6.254l6.915.027a6.18,6.18,0,0,0,1.393,4.527,5.813,5.813,0,0,0,4.407,1.8,7.459,7.459,0,0,0,5.434-1.875,7.853,7.853,0,0,0,2.6-5.215,5.815,5.815,0,0,0-1.334-4.952,6.813,6.813,0,0,0-4.849-1.788l-4.483-.028.88-5.625,3.778.028a8.8,8.8,0,0,0,5.713-1.844,7.008,7.008,0,0,0,2.608-4.924,5.847,5.847,0,0,0-1.055-4.555,5.169,5.169,0,0,0-4.1-1.712,7.019,7.019,0,0,0-4.777,1.608,6.827,6.827,0,0,0-2.432,4.4l-6.943.027a11.592,11.592,0,0,1,2.257-6.122,12.98,12.98,0,0,1,5.2-4.145,16.3,16.3,0,0,1,6.931-1.422q5.71.119,9.009,3.325a10.368,10.368,0,0,1,2.914,8.6,9.516,9.516,0,0,1-2.169,5.378,15.762,15.762,0,0,1-5.685,4.2,8.862,8.862,0,0,1,5.394,8.145v1.406a12.677,12.677,0,0,1-4.7,9.315,14.606,14.606,0,0,1-5.545,2.87H185a15,15,0,0,1,0,30Z" transform="translate(89 -10858)" fill="url(#linear-gradient)"/>
    <text id="スタジオコミュニティー" transform="translate(188 1605)" fill="#fff" font-size="14" font-family="HiraKakuPro-W6, Hiragino Kaku Gothic Pro"><tspan x="-77" y="0">スタジオコミュニティー</tspan></text>
  </g>
</svg>
