<svg xmlns="http://www.w3.org/2000/svg" width="285" height="294" viewBox="0 0 285 294">
  <g id="lesson" transform="translate(-43 -6456)">
    <g id="calendar">
      <rect id="Rectangle_22" data-name="Rectangle 22" width="35" height="35" transform="translate(43 6496)" fill="#eee"/>
      <rect id="Rectangle_23" data-name="Rectangle 23" width="35" height="35" transform="translate(85 6496)" fill="#eee"/>
      <rect id="Rectangle_24" data-name="Rectangle 24" width="35" height="35" transform="translate(126 6496)" fill="#eee"/>
      <rect id="Rectangle_25" data-name="Rectangle 25" width="35" height="35" transform="translate(168 6496)" fill="#eee"/>
      <rect id="Rectangle_26" data-name="Rectangle 26" width="35" height="35" transform="translate(210 6496)" fill="#eee"/>
      <rect id="Rectangle_27" data-name="Rectangle 27" width="35" height="35" transform="translate(251 6496)" fill="#eee"/>
      <rect id="Rectangle_28" data-name="Rectangle 28" width="35" height="35" transform="translate(293 6496)" fill="#eee"/>
      <rect id="Rectangle_29" data-name="Rectangle 29" width="35" height="35" transform="translate(43 6536)" fill="#eee"/>
      <rect id="Rectangle_30" data-name="Rectangle 30" width="35" height="35" transform="translate(85 6536)" fill="#eee"/>
      <rect id="Rectangle_31" data-name="Rectangle 31" width="35" height="35" transform="translate(126 6536)" fill="#faf7e3"/>
      <rect id="Rectangle_32" data-name="Rectangle 32" width="35" height="35" transform="translate(168 6536)" fill="#eee"/>
      <rect id="Rectangle_33" data-name="Rectangle 33" width="35" height="35" transform="translate(210 6536)" fill="#eee"/>
      <rect id="Rectangle_34" data-name="Rectangle 34" width="35" height="35" transform="translate(251 6536)" fill="#eee"/>
      <rect id="Rectangle_35" data-name="Rectangle 35" width="35" height="35" transform="translate(293 6536)" fill="#eee"/>
      <text id="月" transform="translate(61 6519)" fill="#222" font-size="14" font-family="YuGothicUI-Regular, Yu Gothic UI" letter-spacing="0.1em"><tspan x="-7" y="0">月</tspan></text>
      <text id="火" transform="translate(103 6519)" fill="#222" font-size="14" font-family="YuGothicUI-Regular, Yu Gothic UI" letter-spacing="0.1em"><tspan x="-7" y="0">火</tspan></text>
      <text id="水" transform="translate(144 6519)" fill="#222" font-size="14" font-family="YuGothicUI-Regular, Yu Gothic UI" letter-spacing="0.1em"><tspan x="-7" y="0">水</tspan></text>
      <text id="木" transform="translate(187 6519)" fill="#222" font-size="14" font-family="YuGothicUI-Regular, Yu Gothic UI" letter-spacing="0.1em"><tspan x="-7" y="0">木</tspan></text>
      <text id="金" transform="translate(227 6519)" fill="#222" font-size="14" font-family="YuGothicUI-Regular, Yu Gothic UI" letter-spacing="0.1em"><tspan x="-7" y="0">金</tspan></text>
      <text id="土" transform="translate(269 6519)" fill="#94ccde" font-size="14" font-family="YuGothicUI-Regular, Yu Gothic UI" letter-spacing="0.1em"><tspan x="-7" y="0">土</tspan></text>
      <text id="月-2" data-name="月" transform="translate(311 6519)" fill="#eaa" font-size="14" font-family="YuGothicUI-Regular, Yu Gothic UI" letter-spacing="0.1em"><tspan x="-7" y="0">月</tspan></text>
      <text id="_1" data-name="1" transform="translate(61 6559)" fill="#222" font-size="14" font-family="SegoeUI, Segoe UI"><tspan x="-3.773" y="0">1</tspan></text>
      <text id="_2" data-name="2" transform="translate(102 6559)" fill="#222" font-size="14" font-family="SegoeUI, Segoe UI"><tspan x="-3.773" y="0">2</tspan></text>
      <text id="_3" data-name="3" transform="translate(144 6559)" fill="#222" font-size="14" font-family="SegoeUI, Segoe UI"><tspan x="-3.773" y="0">3</tspan></text>
      <text id="_4" data-name="4" transform="translate(185 6559)" fill="#222" font-size="14" font-family="SegoeUI, Segoe UI"><tspan x="-3.773" y="0">4</tspan></text>
      <text id="_5" data-name="5" transform="translate(227 6559)" fill="#222" font-size="14" font-family="SegoeUI, Segoe UI"><tspan x="-3.773" y="0">5</tspan></text>
      <text id="_6" data-name="6" transform="translate(268 6559)" fill="#94ccde" font-size="14" font-family="SegoeUI, Segoe UI"><tspan x="-3.773" y="0">6</tspan></text>
      <text id="_7" data-name="7" transform="translate(310 6559)" fill="#e6a8a9" font-size="14" font-family="SegoeUI, Segoe UI"><tspan x="-3.773" y="0">7</tspan></text>
      <rect id="Rectangle_36" data-name="Rectangle 36" width="35" height="35" transform="translate(43 6576)" fill="#eee"/>
      <rect id="Rectangle_37" data-name="Rectangle 37" width="35" height="35" transform="translate(85 6576)" fill="#eee"/>
      <rect id="Rectangle_38" data-name="Rectangle 38" width="35" height="35" transform="translate(126 6576)" fill="#eee"/>
      <rect id="Rectangle_39" data-name="Rectangle 39" width="35" height="35" transform="translate(168 6576)" fill="#eee"/>
      <rect id="Rectangle_40" data-name="Rectangle 40" width="35" height="35" transform="translate(210 6576)" fill="#eee"/>
      <rect id="Rectangle_41" data-name="Rectangle 41" width="35" height="35" transform="translate(251 6576)" fill="#eee"/>
      <rect id="Rectangle_42" data-name="Rectangle 42" width="35" height="35" transform="translate(293 6576)" fill="#eee"/>
      <text id="_8" data-name="8" transform="translate(61 6599)" fill="#222" font-size="14" font-family="SegoeUI, Segoe UI"><tspan x="-3.773" y="0">8</tspan></text>
      <text id="_9" data-name="9" transform="translate(102 6599)" fill="#222" font-size="14" font-family="SegoeUI, Segoe UI"><tspan x="-3.773" y="0">9</tspan></text>
      <text id="_10" data-name="10" transform="translate(144 6599)" fill="#222" font-size="14" font-family="SegoeUI, Segoe UI"><tspan x="-7.547" y="0">10</tspan></text>
      <text id="_11" data-name="11" transform="translate(185 6599)" fill="#222" font-size="14" font-family="SegoeUI, Segoe UI"><tspan x="-7.547" y="0">11</tspan></text>
      <text id="_12" data-name="12" transform="translate(227 6599)" fill="#222" font-size="14" font-family="SegoeUI, Segoe UI"><tspan x="-7.547" y="0">12</tspan></text>
      <text id="_13" data-name="13" transform="translate(268 6599)" fill="#94ccde" font-size="14" font-family="SegoeUI, Segoe UI"><tspan x="-7.547" y="0">13</tspan></text>
      <text id="_14" data-name="14" transform="translate(310 6599)" fill="#e6a8a9" font-size="14" font-family="SegoeUI, Segoe UI"><tspan x="-7.547" y="0">14</tspan></text>
      <rect id="Rectangle_43" data-name="Rectangle 43" width="35" height="35" transform="translate(43 6616)" fill="#eee"/>
      <rect id="Rectangle_44" data-name="Rectangle 44" width="35" height="35" transform="translate(85 6616)" fill="#eee"/>
      <rect id="Rectangle_45" data-name="Rectangle 45" width="35" height="35" transform="translate(126 6616)" fill="#eee"/>
      <rect id="Rectangle_46" data-name="Rectangle 46" width="35" height="35" transform="translate(168 6616)" fill="#faf7e3"/>
      <rect id="Rectangle_47" data-name="Rectangle 47" width="35" height="35" transform="translate(210 6616)" fill="#eee"/>
      <rect id="Rectangle_48" data-name="Rectangle 48" width="35" height="35" transform="translate(251 6616)" fill="#eee"/>
      <rect id="Rectangle_49" data-name="Rectangle 49" width="35" height="35" transform="translate(293 6616)" fill="#eee"/>
      <text id="_15" data-name="15" transform="translate(61 6639)" fill="#222" font-size="14" font-family="SegoeUI, Segoe UI"><tspan x="-7.547" y="0">15</tspan></text>
      <text id="_16" data-name="16" transform="translate(102 6639)" fill="#222" font-size="14" font-family="SegoeUI, Segoe UI"><tspan x="-7.547" y="0">16</tspan></text>
      <text id="_17" data-name="17" transform="translate(144 6639)" fill="#222" font-size="14" font-family="SegoeUI, Segoe UI"><tspan x="-7.547" y="0">17</tspan></text>
      <text id="_18" data-name="18" transform="translate(185 6639)" fill="#222" font-size="14" font-family="SegoeUI, Segoe UI"><tspan x="-7.547" y="0">18</tspan></text>
      <text id="_19" data-name="19" transform="translate(227 6639)" fill="#222" font-size="14" font-family="SegoeUI, Segoe UI"><tspan x="-7.547" y="0">19</tspan></text>
      <text id="_20" data-name="20" transform="translate(268 6639)" fill="#94ccde" font-size="14" font-family="SegoeUI, Segoe UI"><tspan x="-7.547" y="0">20</tspan></text>
      <text id="_21" data-name="21" transform="translate(310 6639)" fill="#e6a8a9" font-size="14" font-family="SegoeUI, Segoe UI"><tspan x="-7.547" y="0">21</tspan></text>
      <rect id="Rectangle_50" data-name="Rectangle 50" width="35" height="35" transform="translate(43 6656)" fill="#eee"/>
      <rect id="Rectangle_51" data-name="Rectangle 51" width="35" height="35" transform="translate(85 6656)" fill="#eee"/>
      <rect id="Rectangle_52" data-name="Rectangle 52" width="35" height="35" transform="translate(126 6656)" fill="#eee"/>
      <rect id="Rectangle_53" data-name="Rectangle 53" width="35" height="35" transform="translate(168 6656)" fill="#eee"/>
      <rect id="Rectangle_54" data-name="Rectangle 54" width="35" height="35" transform="translate(210 6656)" fill="#faf7e3"/>
      <rect id="Rectangle_55" data-name="Rectangle 55" width="35" height="35" transform="translate(251 6656)" fill="#eee"/>
      <rect id="Rectangle_56" data-name="Rectangle 56" width="35" height="35" transform="translate(293 6656)" fill="#eee"/>
      <text id="_22" data-name="22" transform="translate(61 6679)" fill="#222" font-size="14" font-family="SegoeUI, Segoe UI"><tspan x="-7.547" y="0">22</tspan></text>
      <text id="_23" data-name="23" transform="translate(102 6679)" fill="#222" font-size="14" font-family="SegoeUI, Segoe UI"><tspan x="-7.547" y="0">23</tspan></text>
      <text id="_24" data-name="24" transform="translate(144 6679)" fill="#222" font-size="14" font-family="SegoeUI, Segoe UI"><tspan x="-7.547" y="0">24</tspan></text>
      <text id="_25" data-name="25" transform="translate(185 6679)" fill="#222" font-size="14" font-family="SegoeUI, Segoe UI"><tspan x="-7.547" y="0">25</tspan></text>
      <text id="_26" data-name="26" transform="translate(227 6679)" fill="#222" font-size="14" font-family="SegoeUI, Segoe UI"><tspan x="-7.547" y="0">26</tspan></text>
      <text id="_27" data-name="27" transform="translate(268 6679)" fill="#94ccde" font-size="14" font-family="SegoeUI, Segoe UI"><tspan x="-7.547" y="0">27</tspan></text>
      <text id="_28" data-name="28" transform="translate(310 6679)" fill="#e6a8a9" font-size="14" font-family="SegoeUI, Segoe UI"><tspan x="-7.547" y="0">28</tspan></text>
      <rect id="Rectangle_57" data-name="Rectangle 57" width="35" height="35" transform="translate(43 6696)" fill="#eee"/>
      <rect id="Rectangle_58" data-name="Rectangle 58" width="35" height="35" transform="translate(85 6696)" fill="#eee"/>
      <rect id="Rectangle_59" data-name="Rectangle 59" width="35" height="35" transform="translate(126 6696)" fill="#eee"/>
      <rect id="Rectangle_60" data-name="Rectangle 60" width="35" height="35" transform="translate(168 6696)" fill="#eee"/>
      <rect id="Rectangle_61" data-name="Rectangle 61" width="35" height="35" transform="translate(210 6696)" fill="#eee"/>
      <rect id="Rectangle_62" data-name="Rectangle 62" width="35" height="35" transform="translate(251 6696)" fill="#eee"/>
      <rect id="Rectangle_63" data-name="Rectangle 63" width="35" height="35" transform="translate(293 6696)" fill="#eee"/>
      <text id="_29" data-name="29" transform="translate(61 6719)" fill="#222" font-size="14" font-family="SegoeUI, Segoe UI"><tspan x="-7.547" y="0">29</tspan></text>
      <text id="_30" data-name="30" transform="translate(102 6719)" fill="#222" font-size="14" font-family="SegoeUI, Segoe UI"><tspan x="-7.547" y="0">30</tspan></text>
      <text id="_31" data-name="31" transform="translate(144 6719)" fill="#222" font-size="14" font-family="SegoeUI, Segoe UI"><tspan x="-7.547" y="0">31</tspan></text>
    </g>
    <g id="_" data-name="○" transform="translate(121 6531)" fill="none" stroke="#fc88a7" stroke-width="5">
      <circle cx="22.5" cy="22.5" r="22.5" stroke="none"/>
      <circle cx="22.5" cy="22.5" r="20" fill="none"/>
    </g>
    <g id="_2-2" data-name="○" transform="translate(163 6611)" fill="none" stroke="#fc88a7" stroke-width="5" opacity="0.503">
      <circle cx="22.5" cy="22.5" r="22.5" stroke="none"/>
      <circle cx="22.5" cy="22.5" r="20" fill="none"/>
    </g>
    <g id="_3-2" data-name="○" transform="translate(205 6651)" fill="none" stroke="#fc88a7" stroke-width="5">
      <circle cx="22.5" cy="22.5" r="22.5" stroke="none"/>
      <circle cx="22.5" cy="22.5" r="20" fill="none"/>
    </g>
    <g id="bubble">
      <rect id="Rectangle_65" data-name="Rectangle 65" width="184" height="39" rx="6" transform="translate(136 6711)" fill="#fc88a7"/>
      <path id="Path_11" data-name="Path 11" d="M7.556,0,0,7.556H15.111Z" transform="translate(220.153 6704.007)" fill="#fc88a7"/>
      <path id="Path_232061" data-name="Path 232061" d="M-70.644-9.072a.259.259,0,0,0-.238.154l-.056.126a.926.926,0,0,1-.854.588.426.426,0,0,1-.392-.588l.742-1.82a.931.931,0,0,1,.868-.588.428.428,0,0,1,.406.588l-.084.2a.171.171,0,0,0,.168.224h7.924a.544.544,0,0,1,.56.56.553.553,0,0,1-.56.56h-.07a.2.2,0,0,0-.182.182v1.764a.3.3,0,0,0,.28.294h.91a.541.541,0,0,1,.546.56.538.538,0,0,1-.546.546h-.91a.3.3,0,0,0-.28.294V-3.78a.29.29,0,0,0,.28.28h.574a.556.556,0,0,1,.56.574.544.544,0,0,1-.56.56h-9.884a.556.556,0,0,1-.574-.56.568.568,0,0,1,.574-.574h.686a.281.281,0,0,0,.28-.28V-5.432a.293.293,0,0,0-.28-.294h-1.022a.55.55,0,0,1-.56-.546.553.553,0,0,1,.56-.56h1.022a.293.293,0,0,0,.28-.294V-8.9A.181.181,0,0,0-70.644-9.072ZM-71.652.686a.429.429,0,0,1-.378-.63l.392-.756a1.189,1.189,0,0,1,1.05-.644A.439.439,0,0,1-70.2-.7l-.392.756A1.2,1.2,0,0,1-71.652.686Zm2.6-9.758a.293.293,0,0,0-.294.28v1.666a.305.305,0,0,0,.294.294h.6a.3.3,0,0,0,.28-.294V-8.792a.29.29,0,0,0-.28-.28Zm0,3.346a.305.305,0,0,0-.294.294V-3.78a.293.293,0,0,0,.294.28h.6a.29.29,0,0,0,.28-.28V-5.432a.3.3,0,0,0-.28-.294Zm.406,4.858a.589.589,0,0,1,.588-.644.7.7,0,0,1,.7.644l.07.9a.6.6,0,0,1-.588.644.7.7,0,0,1-.7-.644Zm1.61-6.258a.293.293,0,0,0,.28.294h.616a.305.305,0,0,0,.294-.294V-8.792a.293.293,0,0,0-.294-.28h-.616a.281.281,0,0,0-.28.28Zm1.19,1.694a.305.305,0,0,0-.294-.294h-.616a.293.293,0,0,0-.28.294V-3.78a.281.281,0,0,0,.28.28h.616a.293.293,0,0,0,.294-.28Zm.336,4.564a.493.493,0,0,1,.462-.644.951.951,0,0,1,.9.644l.308.91a.488.488,0,0,1-.462.63.952.952,0,0,1-.9-.63Zm1.68-5.964a.3.3,0,0,0,.28-.294V-8.792a.29.29,0,0,0-.28-.28h-.616a.293.293,0,0,0-.294.28v1.666a.305.305,0,0,0,.294.294Zm0,3.332a.29.29,0,0,0,.28-.28V-5.432a.3.3,0,0,0-.28-.294h-.616a.305.305,0,0,0-.294.294V-3.78a.293.293,0,0,0,.294.28Zm1.666,2.156A1.254,1.254,0,0,1-61.068-.7l.42.756a.418.418,0,0,1-.364.63A1.258,1.258,0,0,1-62.1.056L-62.538-.7A.435.435,0,0,1-62.16-1.344Zm5.726-9.842a.6.6,0,0,1,.588.6V-7.07a.275.275,0,0,0,.266.266h1.218a.6.6,0,0,1,.588.6.592.592,0,0,1-.588.588h-.308a.165.165,0,0,0-.154.224l.462,1.064a.432.432,0,0,1-.406.6.994.994,0,0,1-.91-.6l-.084-.182c-.014-.042-.084-.028-.084.028V.042a.6.6,0,0,1-.588.6.6.6,0,0,1-.6-.6l-.014-4.2a.042.042,0,0,0-.084,0l-.644,2.072a.858.858,0,0,1-.812.588.464.464,0,0,1-.448-.588l.994-3.29a.174.174,0,0,0-.168-.238h-.308a.592.592,0,0,1-.588-.588.6.6,0,0,1,.588-.6H-57.3a.275.275,0,0,0,.266-.266v-3.514A.6.6,0,0,1-56.434-11.186Zm-1.106,2.9a.465.465,0,0,1-.448.574.722.722,0,0,1-.714-.574l-.252-1.12a.459.459,0,0,1,.448-.56.72.72,0,0,1,.7.56Zm3.052-1.68A.5.5,0,0,1-54-9.38l-.2,1.092a.69.69,0,0,1-.672.574.5.5,0,0,1-.49-.574l.182-1.092A.716.716,0,0,1-54.488-9.968Zm6.44,5.642a.493.493,0,0,1,.6.476.779.779,0,0,1-.6.756l-.168.042a.27.27,0,0,0-.21.266V.028a.621.621,0,0,1-.616.616.61.61,0,0,1-.6-.616V-2.45a.231.231,0,0,0-.266-.224l-2.618.616a.494.494,0,0,1-.6-.476.767.767,0,0,1,.6-.756l2.618-.616a.345.345,0,0,0,.266-.336V-10.57a.61.61,0,0,1,.6-.616.621.621,0,0,1,.616.616v6.118a.175.175,0,0,0,.21.168Zm-2.884-1.652a.388.388,0,0,1-.322.588,1.3,1.3,0,0,1-1.092-.588l-.35-.546a.383.383,0,0,1,.322-.588,1.293,1.293,0,0,1,1.078.588Zm.462-3.178a.389.389,0,0,1-.336.588,1.222,1.222,0,0,1-1.036-.588l-.378-.616a.389.389,0,0,1,.336-.588,1.227,1.227,0,0,1,1.05.6Zm15.5,1.89a1.684,1.684,0,0,1,.588.714.49.49,0,0,1-.2.728.571.571,0,0,1-.686-.322,1.762,1.762,0,0,0-.588-.686c-.21-.168-.392-.406-.238-.63C-35.8-7.84-35.224-7.476-34.972-7.266Zm-1.19.672a2.724,2.724,0,0,1,.616.742.517.517,0,0,1-.21.714.533.533,0,0,1-.7-.322,2.7,2.7,0,0,0-.6-.686c-.21-.154-.378-.42-.238-.644C-37.016-7.154-36.414-6.8-36.162-6.594ZM-36.4-9.772a.559.559,0,0,1,.742.364.577.577,0,0,1-.364.756c-3.094.994-4.606,2.6-4.536,4.606a2.348,2.348,0,0,0,1.68,1.974,6.018,6.018,0,0,0,2.464.56.578.578,0,0,1,.588.6.571.571,0,0,1-.588.574,8.069,8.069,0,0,1-2.968-.63,3.569,3.569,0,0,1-2.338-3V-3.99a4.557,4.557,0,0,1,1.246-3.374c.042-.056,0-.112-.042-.1a9.769,9.769,0,0,1-3.934.168.574.574,0,0,1-.518-.686.627.627,0,0,1,.756-.462C-42.168-8.288-40.474-8.428-36.4-9.772Zm6.916,3.024a.318.318,0,0,0-.308.294v.56a.318.318,0,0,0,.308.294h1.82a.927.927,0,0,1,.938.994L-26.95.14a.551.551,0,0,1-.574.532A.5.5,0,0,1-28.042.14l.224-4.354a.316.316,0,0,0-.294-.294H-29.6a.357.357,0,0,0-.35.294l-.77,3.892a.664.664,0,0,1-.658.546.443.443,0,0,1-.448-.546l.882-4.522a3.276,3.276,0,0,0,.042-.532V-6.454a.305.305,0,0,0-.294-.294h-.126a.98.98,0,0,1-.994-.994V-9.926a.98.98,0,0,1,.994-.994h3.5a.98.98,0,0,1,.994.994v2.184a.98.98,0,0,1-.994.994Zm-1.442-3.08a.305.305,0,0,0-.294.294v1.4a.316.316,0,0,0,.294.294h2.716a.33.33,0,0,0,.308-.294v-1.4a.318.318,0,0,0-.308-.294Zm6.552,8.246a.527.527,0,0,1-.518-.56V-9.968a.492.492,0,0,1,.518-.518.5.5,0,0,1,.532.518v7.826A.538.538,0,0,1-24.374-1.582Zm2.492-9.2a.515.515,0,0,1,.532-.532.515.515,0,0,1,.532.532V.14a.515.515,0,0,1-.532.532A.515.515,0,0,1-21.882.14Zm3.948,1.568a.923.923,0,0,1,.952-.966H-9.6a.934.934,0,0,1,.966.966v7.784A.934.934,0,0,1-9.6-.462h-7.378a.923.923,0,0,1-.952-.966Zm8.064.588c0-.14-.182-.378-.322-.378h-6.2c-.154,0-.336.238-.336.378V-6.4a.372.372,0,0,0,.336.322h6.2A.371.371,0,0,0-9.87-6.4Zm-6.86,6.608c0,.14.182.378.336.378h6.2c.14,0,.322-.238.322-.378V-4.578a.386.386,0,0,0-.322-.322h-6.2a.386.386,0,0,0-.336.322Zm13.468-7.2A.621.621,0,0,1-3.01-8.4a10.28,10.28,0,0,0-.518,3,13.933,13.933,0,0,0,.574,4.312.575.575,0,0,1-.35.714.623.623,0,0,1-.742-.364,15.589,15.589,0,0,1-.588-4.7A12.7,12.7,0,0,1-4.41-7.42C-4.158-8.582-4.046-9.562-3.262-9.212Zm2.254,5.936A5.865,5.865,0,0,0,2.184-2.254a5.7,5.7,0,0,0,2.058-.308c.336-.126.672-.154.826.252a.593.593,0,0,1-.434.756,7.484,7.484,0,0,1-2.45.42,5.711,5.711,0,0,1-3.864-1.2.73.73,0,0,1-.168-.952C-1.68-3.514-1.4-3.542-1.008-3.276Zm.35-4.3a.548.548,0,0,1-.476-.6.561.561,0,0,1,.56-.476c.434,0,1.274.07,3.878,0a.485.485,0,0,1,.574.5.559.559,0,0,1-.462.574c-.364.042-1.3.07-2.226.07C.728-7.5-.182-7.518-.658-7.574Zm9.674-3.878a.6.6,0,0,1,.6.6v1.344a.278.278,0,0,0,.28.266h.448a.6.6,0,0,1,.616.6.6.6,0,0,1-.616.616H9.9a.278.278,0,0,0-.28.266v1.568a.171.171,0,0,0,.238.154l.28-.126a.43.43,0,0,1,.6.392,1.034,1.034,0,0,1-.6.938l-.28.126a.438.438,0,0,0-.238.378V.21a.6.6,0,1,1-1.2,0V-3.766a.173.173,0,0,0-.252-.154l-.392.182a.43.43,0,0,1-.6-.392,1.054,1.054,0,0,1,.6-.952l.392-.168a.431.431,0,0,0,.252-.392V-7.756a.266.266,0,0,0-.266-.266H7.77a.6.6,0,0,1-.6-.616.6.6,0,0,1,.6-.6h.378a.266.266,0,0,0,.266-.266V-10.85A.6.6,0,0,1,9.016-11.452Zm9.548.434a.58.58,0,0,1,.574.588.568.568,0,0,1-.574.574H13.23a.278.278,0,0,0-.266.28v2.394L12.474.126a.654.654,0,0,1-.644.6.552.552,0,0,1-.546-.6l.49-7.378V-10A1.028,1.028,0,0,1,12.8-11.018Zm-.028,6.9a.361.361,0,0,1,.252.616l-.868.84a.384.384,0,0,0-.07.434L18.928-.07a.4.4,0,0,1-.364.588A1.078,1.078,0,0,1,17.6-.07L15.176-4.9a.443.443,0,0,0-.392-.238h-.1a.269.269,0,0,0-.266.28v3.766a.218.218,0,0,0,.21.224h.252a.592.592,0,0,1,.588.588.592.592,0,0,1-.588.588h-.658A1.019,1.019,0,0,1,13.2-.714V-5.292a1.028,1.028,0,0,1,1.022-1.022H18.48a.592.592,0,0,1,.588.588.592.592,0,0,1-.588.588H16.66a.165.165,0,0,0-.154.238l.574,1.134a.11.11,0,0,0,.168.042,1.424,1.424,0,0,1,.98-.392ZM18.41-7.98a.6.6,0,0,1-.6.6H14.07a.6.6,0,0,1-.6-.6.6.6,0,0,1,.6-.6h3.738A.6.6,0,0,1,18.41-7.98Zm7.014,2.408A1.407,1.407,0,0,1,24.318-6.1l-.546-.644a.2.2,0,0,0-.322.014l-.728,1.078a1.2,1.2,0,0,1-.98.518.332.332,0,0,1-.28-.518l.994-1.5a.14.14,0,0,0-.112-.224h-.952a.5.5,0,0,1-.49-.49.5.5,0,0,1,.49-.5h1.372a.266.266,0,0,0,.266-.266V-9.03a.257.257,0,0,0-.266-.266H21.77a.5.5,0,0,1-.49-.5.5.5,0,0,1,.49-.49h1.036a.233.233,0,0,0,.224-.238v-.322a.532.532,0,0,1,.532-.532.532.532,0,0,1,.532.532v.322a.233.233,0,0,0,.224.238h1.036a.5.5,0,0,1,.49.49.5.5,0,0,1-.49.5H24.36a.257.257,0,0,0-.266.266v.392a.266.266,0,0,0,.266.266h1.358a.5.5,0,0,1,.49.5.5.5,0,0,1-.49.49h-.826a.127.127,0,0,0-.1.21L25.676-6.1A.33.33,0,0,1,25.424-5.572ZM23.73.378A1.028,1.028,0,0,1,22.708-.644v-2.87A1.016,1.016,0,0,1,23.73-4.522h5.74a1,1,0,0,1,1.008,1.008v2.87A1.016,1.016,0,0,1,29.47.378ZM29.372-3.15a.281.281,0,0,0-.28-.28h-5a.278.278,0,0,0-.266.28v.238a.278.278,0,0,0,.266.28h5a.281.281,0,0,0,.28-.28ZM23.828-.994a.275.275,0,0,0,.266.266h5a.278.278,0,0,0,.28-.266v-.238a.269.269,0,0,0-.28-.266h-5a.266.266,0,0,0-.266.266Zm6.818-6.384a.127.127,0,0,0-.1.21l1.288,1.512a.312.312,0,0,1-.238.518,1.519,1.519,0,0,1-1.134-.518L29.6-6.678a.21.21,0,0,0-.336.014l-.714,1.008a1.228,1.228,0,0,1-1.008.518.323.323,0,0,1-.266-.518l1.05-1.5a.14.14,0,0,0-.112-.224H27.2a.5.5,0,0,1-.5-.49.5.5,0,0,1,.5-.5h1.372a.278.278,0,0,0,.28-.266V-9.03a.269.269,0,0,0-.28-.266h-.938a.49.49,0,0,1-.49-.5.487.487,0,0,1,.49-.49h.98a.245.245,0,0,0,.238-.238v-.336a.517.517,0,0,1,.518-.518.526.526,0,0,1,.518.518v.336a.233.233,0,0,0,.224.238h1.092a.5.5,0,0,1,.5.49.5.5,0,0,1-.5.5h-1.05a.266.266,0,0,0-.266.266v.392a.275.275,0,0,0,.266.266h1.5a.5.5,0,0,1,.49.5.5.5,0,0,1-.49.49Zm6.132,1.512a.592.592,0,0,1,.518-.322h.252a.388.388,0,0,1,.35.546l-.392.812a.419.419,0,0,0,.028.364l.07.126a.361.361,0,0,1-.308.532h-.084a.94.94,0,0,1-.812-.448c-.014-.014-.07,0-.07.028V.2A.532.532,0,0,1,35.8.728.553.553,0,0,1,35.252.2l-.014-3.234a.05.05,0,0,0-.1-.014L35-2.688a.868.868,0,0,1-.8.546.4.4,0,0,1-.378-.546l2.086-5.46a.18.18,0,0,0-.168-.252H34.4a.547.547,0,0,1-.546-.546.544.544,0,0,1,.546-.532h.462a.275.275,0,0,0,.266-.266v-1.162a.538.538,0,0,1,.546-.546.535.535,0,0,1,.532.546v1.148a.281.281,0,0,0,.28.28h.084a.706.706,0,0,1,.658.952l-.742,1.918a.6.6,0,0,0,.042.49l.168.266A.048.048,0,0,0,36.778-5.866Zm9.2-3.15a.562.562,0,0,1-.56.56H43.078a.269.269,0,0,0-.28.266v.336a.278.278,0,0,0,.28.266H44.66a1.01,1.01,0,0,1,1.022,1.022V.2a.517.517,0,0,1-.518.518A.526.526,0,0,1,44.646.2V-1.582a.266.266,0,0,0-.266-.266h-1.3a.269.269,0,0,0-.28.266V-.294a.538.538,0,0,1-.546.546.538.538,0,0,1-.546-.546V-1.582a.269.269,0,0,0-.28-.266H40.138a.257.257,0,0,0-.266.266V.2a.526.526,0,0,1-.518.518A.517.517,0,0,1,38.836.2V-6.566a1.007,1.007,0,0,1,1.008-1.022h1.582a.278.278,0,0,0,.28-.266V-8.19a.269.269,0,0,0-.28-.266H39.158a.562.562,0,0,1-.56-.56.562.562,0,0,1,.56-.56h2.268a.269.269,0,0,0,.28-.266v-1.036a.547.547,0,0,1,.546-.546.547.547,0,0,1,.546.546v1.036a.269.269,0,0,0,.28.266h2.338A.562.562,0,0,1,45.976-9.016Zm-4.27,2.772a.281.281,0,0,0-.28-.28H40.138a.269.269,0,0,0-.266.28v.658a.257.257,0,0,0,.266.266h1.288a.269.269,0,0,0,.28-.266Zm-1.834,3.01a.257.257,0,0,0,.266.266h1.288a.269.269,0,0,0,.28-.266v-.7a.278.278,0,0,0-.28-.266H40.138a.266.266,0,0,0-.266.266Zm4.774-3.01a.278.278,0,0,0-.266-.28h-1.3a.281.281,0,0,0-.28.28v.658a.269.269,0,0,0,.28.266h1.3a.266.266,0,0,0,.266-.266ZM42.8-3.234a.269.269,0,0,0,.28.266h1.3a.266.266,0,0,0,.266-.266v-.7A.275.275,0,0,0,44.38-4.2h-1.3a.278.278,0,0,0-.28.266Zm2.478-7.322a.37.37,0,0,1-.308.56h-.014a1.1,1.1,0,0,1-.966-.56A.357.357,0,0,1,44.3-11.1,1.17,1.17,0,0,1,45.276-10.556Zm5.782,1.232a.526.526,0,0,1,.518.518.517.517,0,0,1-.518.518H47.572a.517.517,0,0,1-.518-.518.526.526,0,0,1,.518-.518ZM48.51.616A1.016,1.016,0,0,1,47.5-.406V-2.6A1,1,0,0,1,48.51-3.612h1.61A1.007,1.007,0,0,1,51.142-2.6v2.2A1.019,1.019,0,0,1,50.12.616ZM50.47-7.35a.508.508,0,0,1,.518.518.517.517,0,0,1-.518.518H48.16a.517.517,0,0,1-.518-.518.508.508,0,0,1,.518-.518ZM48.16-4.438a.517.517,0,0,1-.518-.518.508.508,0,0,1,.518-.518h2.31a.508.508,0,0,1,.518.518.517.517,0,0,1-.518.518Zm2.17-6.734a.517.517,0,0,1,.518.518.508.508,0,0,1-.518.518H48.286a.517.517,0,0,1-.518-.518.526.526,0,0,1,.518-.518ZM48.72-2.66a.281.281,0,0,0-.28.28V-.616a.278.278,0,0,0,.28.266h1.2a.278.278,0,0,0,.28-.266V-2.38a.281.281,0,0,0-.28-.28Zm10.052.728a.487.487,0,0,1,.49.49.484.484,0,0,1-.49.476h-.21a.189.189,0,0,0-.182.2V.266a.469.469,0,0,1-.462.476.472.472,0,0,1-.476-.476V-.686a.269.269,0,0,0-.266-.28h-3.6a.278.278,0,0,0-.266.28V.266a.469.469,0,0,1-.462.476.472.472,0,0,1-.476-.476V-.77a.18.18,0,0,0-.182-.2H52a.484.484,0,0,1-.49-.476.487.487,0,0,1,.49-.49h.2a.176.176,0,0,0,.182-.182v-2.24A1.028,1.028,0,0,1,53.4-5.376h1.218a.257.257,0,0,0,.266-.266v-.252a.257.257,0,0,0-.266-.266H52.178a.5.5,0,0,1-.49-.49.5.5,0,0,1,.49-.49h.994a.278.278,0,0,0,.28-.266v-.21a.191.191,0,0,0-.2-.2h-.238a.484.484,0,0,1-.49-.476.5.5,0,0,1,.49-.49h.238a.189.189,0,0,0,.2-.182v-.224a.281.281,0,0,0-.28-.28h-.658a.481.481,0,0,1-.476-.476.478.478,0,0,1,.476-.462h.756a.185.185,0,0,0,.182-.182v-.21a.472.472,0,0,1,.476-.476.472.472,0,0,1,.476.476v.21a.189.189,0,0,0,.2.182h1.54a.185.185,0,0,0,.182-.182v-.21a.472.472,0,0,1,.476-.476.472.472,0,0,1,.476.476v.21a.185.185,0,0,0,.182.182h.8a.469.469,0,0,1,.476.462.472.472,0,0,1-.476.476h-.7a.281.281,0,0,0-.28.28v.21a.2.2,0,0,0,.21.2h.266a.484.484,0,0,1,.476.49.472.472,0,0,1-.476.476h-.266a.2.2,0,0,0-.21.2v.21a.278.278,0,0,0,.28.266H58.59a.5.5,0,0,1,.49.49.5.5,0,0,1-.49.49H56.126a.266.266,0,0,0-.266.266v.252a.266.266,0,0,0,.266.266h1.232A1.028,1.028,0,0,1,58.38-4.354v2.24a.185.185,0,0,0,.182.182ZM54.88-4.172a.266.266,0,0,0-.266-.266H53.578a.275.275,0,0,0-.266.266v.224a.266.266,0,0,0,.266.266h1.036a.257.257,0,0,0,.266-.266Zm-1.3,1.47a.278.278,0,0,0-.266.28v.21a.278.278,0,0,0,.266.28h1.036a.269.269,0,0,0,.266-.28v-.21a.269.269,0,0,0-.266-.28Zm1.106-6.762a.281.281,0,0,0-.28.28v.14a.269.269,0,0,0,.28.266h1.358a.269.269,0,0,0,.28-.266v-.14a.281.281,0,0,0-.28-.28Zm0,1.652a.278.278,0,0,0-.28.266v.14a.278.278,0,0,0,.28.266h1.358a.278.278,0,0,0,.28-.266v-.14a.278.278,0,0,0-.28-.266Zm2.758,3.64a.266.266,0,0,0-.266-.266h-1.05a.275.275,0,0,0-.266.266v.224a.266.266,0,0,0,.266.266h1.05a.257.257,0,0,0,.266-.266ZM55.86-2.212a.278.278,0,0,0,.266.28h1.05a.269.269,0,0,0,.266-.28v-.21a.269.269,0,0,0-.266-.28h-1.05a.278.278,0,0,0-.266.28ZM70-10.108a.584.584,0,0,1,.112.8L65.73-3.136a.575.575,0,0,1-.8.126.592.592,0,0,1-.126-.812l4.382-6.146A.6.6,0,0,1,70-10.108ZM63.63-1.946a.84.84,0,0,1,.84.826.855.855,0,0,1-.84.854.855.855,0,0,1-.84-.854A.84.84,0,0,1,63.63-1.946Z" transform="translate(229 6737)" fill="#fff"/>
    </g>
    <g id="arrow" transform="translate(235.2 6607.813) rotate(71)" fill="#fc88a7">
      <path d="M 0.8137864470481873 43.99856185913086 L -0.9805535674095154 43.22115325927734 C -0.3462535440921783 40.05191421508789 0.5866564512252808 37.07847213745117 1.792256474494934 34.38344192504883 C 3.139566421508789 31.37165260314941 4.841006278991699 28.68063354492188 6.84934663772583 26.38513374328613 C 11.32847785949707 21.26554298400879 17.34030723571777 18.05402755737305 24.72823715209961 16.83144950866699 L 24.72823715209961 8.330002784729004 L 24.72823715209961 5.915792942047119 L 26.43534660339355 7.6228928565979 L 42.80862808227539 23.99617385864258 L 43.51572799682617 24.70328330993652 L 42.80862808227539 25.41039276123047 L 26.43534660339355 41.78366470336914 L 24.72823715209961 43.49076461791992 L 24.72823715209961 41.07655334472656 L 24.72823715209961 32.49541854858398 C 13.87421894073486 32.70562744140625 6.257265567779541 36.37611389160156 0.8137864470481873 43.99856185913086 Z" stroke="none"/>
      <path d="M 25.72823715209961 8.330001831054688 L 25.72823715209961 17.68915939331055 C 9.354957580566406 20.02580070495605 2.340847015380859 31.72160148620605 -3.814697265625e-06 43.41740036010742 C 5.847896575927734 35.22866058349609 14.03243637084961 31.48583030700684 25.72823715209961 31.48583030700684 L 25.72823715209961 41.07656097412109 L 42.10151672363281 24.70328140258789 L 25.72823715209961 8.330001831054688 M 23.72823715209961 3.501571655273438 L 44.92994689941406 24.70328140258789 L 23.72823715209961 45.90499114990234 L 23.72823715209961 33.52602005004883 C 13.75613403320312 33.9349365234375 6.700153350830078 37.47664642333984 1.627574920654297 44.57971954345703 L -1.961112976074219 43.02490234375 C -1.312213897705078 39.78277206420898 -0.3565254211425781 36.73797988891602 0.8794364929199219 33.97510147094727 C 2.267425537109375 30.87234115600586 4.022777557373047 28.09716033935547 6.096725463867188 25.72667121887207 C 10.56209182739258 20.62282562255859 16.4874324798584 17.35321807861328 23.72823715209961 15.99260330200195 L 23.72823715209961 3.501571655273438 Z" stroke="none" fill="#fff"/>
    </g>
    <g id="title">
      <g id="Rectangle_64" data-name="Rectangle 64" transform="translate(43 6456)" fill="#fff" stroke="#ddd" stroke-width="1">
        <rect width="285" height="35" rx="17.5" stroke="none"/>
        <rect x="0.5" y="0.5" width="284" height="34" rx="17" fill="none"/>
      </g>
      <text id="LESSON_SCHEDULE" data-name="LESSON SCHEDULE" transform="translate(188 6478)" fill="#222" font-size="12" font-family="Roboto-Bold, Roboto" font-weight="700" letter-spacing="0.3em"><tspan x="-78.775" y="0">LESSON SCHEDULE</tspan></text>
    </g>
  </g>
</svg>
