<svg id="Line" xmlns="http://www.w3.org/2000/svg" width="70" height="70" viewBox="0 0 70 70">
  <circle id="Ellipse_3" data-name="Ellipse 3" cx="35" cy="35" r="35" transform="translate(0)" fill="#00b900"/>
  <g id="line-2" data-name="line" transform="translate(10.429 11.589)">
    <g id="g7962">
      <path id="path7964" d="M-167.854-68.107c0-10.995-11.022-19.94-24.572-19.94S-217-79.1-217-68.107c0,9.857,8.742,18.112,20.55,19.673.8.172,1.889.528,2.165,1.212A5.043,5.043,0,0,1-194.2-45s-.288,1.734-.35,2.1c-.107.621-.494,2.43,2.128,1.325s14.151-8.332,19.306-14.266h0c3.561-3.9,5.267-7.868,5.267-12.268" transform="translate(216.997 88.047)" fill="#fff"/>
    </g>
    <g id="g7966" transform="translate(17.376 14.627)">
      <path id="path7968" d="M-7.523,0H-9.247a.479.479,0,0,0-.479.478V11.184a.479.479,0,0,0,.479.478h1.724a.478.478,0,0,0,.479-.478V.478A.478.478,0,0,0-7.523,0" transform="translate(9.726)" fill="#00b900"/>
    </g>
    <g id="g7970" transform="translate(21.733 14.627)">
      <path id="path7972" d="M-33.162,0h-1.724a.478.478,0,0,0-.479.478V6.839L-40.271.212a.528.528,0,0,0-.037-.049l0,0c-.009-.011-.019-.02-.029-.03l-.009-.008L-40.374.1l-.012-.01-.025-.017-.015-.008-.025-.015-.015-.007-.027-.012L-40.51.028l-.029-.009-.016,0-.027-.006-.02,0-.025,0h-1.765a.479.479,0,0,0-.479.478V11.184a.479.479,0,0,0,.479.478h1.723a.478.478,0,0,0,.479-.478V4.825l4.912,6.635a.475.475,0,0,0,.122.118l0,0,.03.018.014.007.023.011.024.01.014.005.032.011h.007a.477.477,0,0,0,.122.016h1.724a.478.478,0,0,0,.479-.478V.478A.478.478,0,0,0-33.162,0" transform="translate(42.871 0)" fill="#00b900"/>
    </g>
    <g id="g7974" transform="translate(8.061 14.627)">
      <path id="path7976" d="M-25.152-30.677h-4.683v-8.5a.479.479,0,0,0-.478-.479h-1.724a.479.479,0,0,0-.479.479v10.7h0a.476.476,0,0,0,.134.331l.007.007.007.007a.475.475,0,0,0,.331.134h6.886a.478.478,0,0,0,.478-.479V-30.2a.478.478,0,0,0-.478-.479" transform="translate(32.515 39.658)" fill="#00b900"/>
    </g>
    <g id="g7978" transform="translate(33.596 14.627)">
      <path id="path7980" d="M-25.152-9.158a.478.478,0,0,0,.478-.479V-11.36a.478.478,0,0,0-.478-.479h-6.886a.475.475,0,0,0-.332.135l-.006.005-.008.008a.476.476,0,0,0-.133.33h0v10.7h0a.476.476,0,0,0,.134.331l.007.007.007.007a.475.475,0,0,0,.33.134h6.886a.478.478,0,0,0,.478-.479V-2.379a.478.478,0,0,0-.478-.479h-4.683v-1.81h4.683a.478.478,0,0,0,.478-.479V-6.869a.478.478,0,0,0-.478-.479h-4.683V-9.158Z" transform="translate(32.515 11.839)" fill="#00b900"/>
    </g>
  </g>
</svg>
