<svg xmlns="http://www.w3.org/2000/svg" width="15.098" height="16" viewBox="0 0 15.098 16">
  <path id="Path_169822" data-name="Path 169822" d="M1072.571,457.71a2.658,2.658,0,0,0-2.125,1.073l-5-3.2a2.585,2.585,0,0,0,.031-.306,2.673,2.673,0,0,0-.053-.524l5.151-3.3a2.654,2.654,0,1,0-.667-1.745,2.6,2.6,0,0,0,.12.747l-5.074,3.248a2.666,2.666,0,1,0,.111,2.979l4.9,3.138a2.666,2.666,0,1,0,2.607-2.113Zm0-9.531a1.531,1.531,0,1,1-1.53,1.532A1.533,1.533,0,0,1,1072.571,448.179Zm-9.763,8.629a1.531,1.531,0,1,1,1.53-1.532A1.533,1.533,0,0,1,1062.808,456.808Zm9.763,5.1a1.531,1.531,0,1,1,1.532-1.53A1.531,1.531,0,0,1,1072.571,461.907Z" transform="translate(-1060.14 -447.043)" fill="#9e9d9d"/>
</svg>
