<svg xmlns="http://www.w3.org/2000/svg" xmlns:xlink="http://www.w3.org/1999/xlink" width="184.501" height="40" viewBox="0 0 184.501 40">
  <defs>
    <clipPath id="clip-path">
      <rect id="Rectangle_70958" data-name="Rectangle 70958" width="184.501" height="40" fill="none"/>
    </clipPath>
  </defs>
  <g id="logo_inspiart" transform="translate(0 0)">
    <rect id="Rectangle_70956" data-name="Rectangle 70956" width="2.968" height="20.869" transform="translate(53.547 9.356)" fill="#fff"/>
    <g id="Group_153974" data-name="Group 153974" transform="translate(0 0)">
      <g id="Group_153973" data-name="Group 153973" clip-path="url(#clip-path)">
        <path id="Path_232072" data-name="Path 232072" d="M100.584,21.572a6.878,6.878,0,0,0-3.965,1.347v-.946l-2.965-.006V37.509h2.965V26.637c.509-.645,2.018-2.324,3.965-2.324a3.338,3.338,0,0,1,3.33,3.562v9.635h2.967V27.875a6.028,6.028,0,0,0-6.3-6.3" transform="translate(-31.622 -7.284)" fill="#fff"/>
        <path id="Path_232073" data-name="Path 232073" d="M171.411,13.723a1.9,1.9,0,1,0,1.863,1.9,1.933,1.933,0,0,0-1.863-1.9" transform="translate(-57.248 -4.633)" fill="#fff"/>
        <rect id="Rectangle_70957" data-name="Rectangle 70957" width="2.967" height="15.537" transform="translate(112.681 14.689)" fill="#fff"/>
        <path id="Path_232074" data-name="Path 232074" d="M258.871,32.255,269.77,16.1V14.126H255.4v2.739H265.8L254.9,33.02V35h15.021l.649-2.741Z" transform="translate(-86.066 -4.769)" fill="#fff"/>
        <path id="Path_232075" data-name="Path 232075" d="M149.314,21.573a6.9,6.9,0,0,0-4,1.375v-.975h-2.967l.039,20.87h2.967V36.584a6.843,6.843,0,0,0,3.964,1.326c4.311,0,7.563-3.512,7.563-8.167s-3.252-8.169-7.563-8.169m0,13.6c-1.949,0-3.458-1.682-3.964-2.327V26.638c.505-.645,2.016-2.325,3.964-2.325,2.662,0,4.6,2.283,4.6,5.429s-1.934,5.428-4.6,5.428" transform="translate(-48.063 -7.284)" fill="#fff"/>
        <path id="Path_232076" data-name="Path 232076" d="M215.883,21.926a5.8,5.8,0,0,0-5.532.844c-.022-.118,0-.8,0-.8h-3v3.363c.019.287.034.6.034.939V37.509h2.966v-10.9c.44-.6,1.74-2.167,3.457-2.167a2.945,2.945,0,0,1,.966.18l1.052.442,1.037-2.73Z" transform="translate(-70.012 -7.284)" fill="#fff"/>
        <path id="Path_232077" data-name="Path 232077" d="M193.354,28.274c0-4.069-2.522-6.7-6.423-6.7a7.02,7.02,0,0,0-5.325,2.723l-.27.37,2.178,1.53.243-.319a4.411,4.411,0,0,1,3.173-1.563c2.047,0,3.249,1.183,3.432,3.353a12.063,12.063,0,0,0-3.939-.762c-3.69,0-6.17,2.214-6.17,5.5s2.48,5.5,6.17,5.5a6.225,6.225,0,0,0,3.964-1.372,9.146,9.146,0,0,1,0,.973h2.967c0-.012,0-9.235,0-9.235m-2.967,4.569c-.507.642-2.027,2.327-3.964,2.327-2.034,0-3.2-1.006-3.2-2.763s1.168-2.763,3.2-2.763a9.98,9.98,0,0,1,3.964,1.037Z" transform="translate(-60.863 -7.284)" fill="#fff"/>
        <path id="Path_232078" data-name="Path 232078" d="M235.892,31.85l-.346.445a2.932,2.932,0,0,1-2.04,1.04c-1.27,0-2.191-1.274-2.191-3.03V22.877h4.262V20.137h-4.262v-4h-2.967v4h-2.787v2.739h2.787V30.3c0,3.344,2.169,5.77,5.158,5.77a5.6,5.6,0,0,0,4.183-2.186l.375-.513Z" transform="translate(-76.161 -5.449)" fill="#fff"/>
        <path id="Path_232079" data-name="Path 232079" d="M125.238,28.16c-2.214-.631-3.255-1.035-3.255-2.019,0-.886.943-1.828,2.7-1.828a4.845,4.845,0,0,1,3.328,1.6l2.1-1.647a7.434,7.434,0,0,0-5.43-2.69c-3.677,0-5.662,2.355-5.662,4.568,0,3.257,3.094,4.138,5.354,4.783,2.215.63,3.259,1.034,3.259,2.017,0,1.074-1,2.229-3.2,2.229a4.86,4.86,0,0,1-3.736-2.256l-.36-.611-2.188,1.536.262.454c.087.146,2.137,3.616,6.022,3.616,4.05,0,6.17-2.5,6.17-4.968,0-3.255-3.1-4.137-5.358-4.782" transform="translate(-39.891 -7.284)" fill="#fff"/>
        <path id="Path_232080" data-name="Path 232080" d="M5.26,17.329l12.253,4.484L24.806,6.281Z" transform="translate(-1.776 -2.12)" fill="#fff"/>
        <path id="Path_232081" data-name="Path 232081" d="M28.666,21.732l19.361,7.083A20,20,0,0,0,37.685,2.523Z" transform="translate(-9.679 -0.852)" fill="#fff"/>
        <path id="Path_232082" data-name="Path 232082" d="M41.079,42.525l-17.138-6.27L19.025,46.724Z" transform="translate(-6.424 -12.241)" fill="#fff"/>
        <path id="Path_232083" data-name="Path 232083" d="M23.76.224A20.01,20.01,0,0,0,2.285,12.362Z" transform="translate(-0.772 0)" fill="#fff"/>
        <path id="Path_232084" data-name="Path 232084" d="M17.592,55.422a19.983,19.983,0,0,0,22.782-4.338Z" transform="translate(-5.94 -17.248)" fill="#fff"/>
        <path id="Path_232085" data-name="Path 232085" d="M14.268,31.825.142,26.656A19.943,19.943,0,0,0,8.059,45.045Z" transform="translate(0 -9)" fill="#fff"/>
      </g>
    </g>
  </g>
</svg>
