<svg xmlns="http://www.w3.org/2000/svg" width="130.303" height="121" viewBox="0 0 130.303 121">
  <path id="logo_inspiart" d="M-80.617,24103.375l-.039-20.59h2.927v.963a6.835,6.835,0,0,1,3.947-1.354c4.249,0,7.458,3.467,7.458,8.063s-3.209,8.053-7.458,8.053a6.745,6.745,0,0,1-3.909-1.309v6.174Zm2.927-15.986v6.121c.494.637,1.99,2.3,3.909,2.3,2.625,0,4.531-2.254,4.531-5.352s-1.906-5.361-4.531-5.361C-75.7,24085.1-77.2,24086.752-77.69,24087.389Zm54.15,5.428v-7.322h-2.747v-2.709h2.747v-3.941h2.927v3.941h4.2v2.709h-4.2v7.322c0,1.734.911,2.992,2.163,2.992a2.916,2.916,0,0,0,2.015-1.029l.34-.441,2.137,1.508-.366.508a5.517,5.517,0,0,1-4.127,2.156C-21.4,24098.51-23.54,24096.115-23.54,24092.816Zm-32.354.264c0-3.242,2.452-5.43,6.091-5.43a11.994,11.994,0,0,1,3.883.752c-.18-2.137-1.367-3.307-3.382-3.307a4.334,4.334,0,0,0-3.132,1.547l-.237.309-2.15-1.51.263-.363a6.936,6.936,0,0,1,5.256-2.684c3.844,0,6.335,2.594,6.335,6.611v9.111h-2.927a9.4,9.4,0,0,0,0-.961,6.165,6.165,0,0,1-3.909,1.354C-53.442,24098.51-55.894,24096.328-55.894,24093.08Zm2.933,0c0,1.732,1.149,2.729,3.158,2.729,1.906,0,3.408-1.662,3.909-2.3v-2.131a9.939,9.939,0,0,0-3.909-1.02C-51.812,24090.359-52.961,24091.348-52.961,24093.08Zm-43.252,1.861-.257-.449,2.156-1.516.353.6a4.8,4.8,0,0,0,3.69,2.229c2.169,0,3.158-1.143,3.158-2.2,0-.971-1.027-1.369-3.215-1.99-2.227-.637-5.282-1.5-5.282-4.719,0-2.182,1.958-4.5,5.59-4.5a7.3,7.3,0,0,1,5.353,2.656l-2.073,1.625a4.752,4.752,0,0,0-3.28-1.58c-1.733,0-2.664.932-2.664,1.8,0,.971,1.027,1.369,3.209,1.99,2.234.637,5.289,1.51,5.289,4.719,0,2.438-2.092,4.9-6.084,4.9C-94.1,24098.51-96.13,24095.09-96.213,24094.941Zm89.09,3.176v-1.951l10.75-15.936H-6.622v-2.7H7.549v1.945L-3.2,24095.41H8.332l-.635,2.707Zm-31.032,0v-11.084c0-.34-.013-.646-.032-.93v-3.318h2.959s-.019.676,0,.789a5.594,5.594,0,0,1,3.408-1.18,5.676,5.676,0,0,1,2.047.346l.969.412-1.02,2.693-1.04-.436a2.9,2.9,0,0,0-.956-.18c-1.688,0-2.972,1.541-3.408,2.137v10.75Zm-24.357,0v-15.332h2.927v15.332Zm-39.837,0v-9.5a3.3,3.3,0,0,0-3.286-3.518c-1.919,0-3.408,1.656-3.909,2.3v10.723h-2.927v-15.332h2.927v.938a6.8,6.8,0,0,1,3.909-1.328,5.949,5.949,0,0,1,6.213,6.219v9.5Zm-18.491,0v-20.588h2.927v20.588Zm57.956-18.977a1.907,1.907,0,0,1,1.836-1.873,1.908,1.908,0,0,1,1.842,1.873,1.91,1.91,0,0,1-1.842,1.881A1.909,1.909,0,0,1-62.884,24079.141ZM-74,24064.512l48.431-9.221a42.378,42.378,0,0,1-30.685,13.105A42.345,42.345,0,0,1-74,24064.512Zm-24.761-38.629a43.981,43.981,0,0,1,.3-4.98l30.031,10.986-13.2,28.1A42.449,42.449,0,0,1-98.761,24025.883Zm37.232,8.529,36.429,13.33-46.878,8.928Zm3.126-6.656,19.165-40.83a42.506,42.506,0,0,1,25.5,38.957,42.321,42.321,0,0,1-3.517,16.932Zm-32.957-12.053,41.551-23.484-15.506,33.008Zm35.107-32.328a42.311,42.311,0,0,1,6.354.475l-45.646,25.8A42.517,42.517,0,0,1-56.254,23983.375Z" transform="translate(121.339 -23982.875)" fill="#fff" stroke="rgba(0,0,0,0)" stroke-width="1"/>
</svg>
