<svg xmlns="http://www.w3.org/2000/svg" width="171.685" height="40" viewBox="0 0 171.685 40">
  <g id="logo_inspiart" transform="translate(-276.147 -93.893)">
    <g id="Group_563" data-name="Group 563" transform="translate(322.711 96.689)">
      <path id="Path_6207" data-name="Path 6207" d="M345.01,126.459V98.028h3.818v28.431Z" transform="translate(-345.01 -98.028)" fill="#fff"/>
      <path id="Path_6208" data-name="Path 6208" d="M357.575,130.544V119.171c0-5.118,3.574-8.529,8.327-8.529s8.326,3.411,8.326,8.529v11.373h-3.574V119.171a4.765,4.765,0,1,0-9.5,0v11.373Z" transform="translate(-349.079 -102.113)" fill="#fff"/>
      <path id="Path_6209" data-name="Path 6209" d="M386.757,127.327h9.992c1.665,0,2.315-.65,2.315-1.869,0-3.574-12.306-2.193-12.306-8.936,0-3.452,2.4-5.28,6.661-5.28h8.408v3.411h-9.017c-1.747,0-2.233.488-2.315,1.706,0,3.371,12.307,1.949,12.307,8.936,0,3.7-2.6,5.443-6.052,5.443h-9.992Z" transform="translate(-358.529 -102.307)" fill="#fff"/>
      <path id="Path_6210" data-name="Path 6210" d="M414.28,139.317V121.365c0-6.418,4.1-10.723,9.829-10.723,6.336,0,10.073,4.874,10.073,10.641a9.582,9.582,0,0,1-9.383,9.667,10.948,10.948,0,0,1-5.524-1.381v-3.737a9.671,9.671,0,0,0,4.914,1.706c3.859,0,6.418-2.681,6.418-6.7,0-3.981-2.681-6.783-6.5-6.783-3.412,0-6.255,2.6-6.255,7.961v17.3Z" transform="translate(-367.441 -102.113)" fill="#fff"/>
      <path id="Path_6211" data-name="Path 6211" d="M451.351,101.632a2.153,2.153,0,1,1-2.152,2.153A2.089,2.089,0,0,1,451.351,101.632Zm-1.787,25.994v-19.5h3.574v19.5Z" transform="translate(-378.748 -99.195)" fill="#fff"/>
      <path id="Path_6212" data-name="Path 6212" d="M477.312,130.544V119.578c0-3.656-3.087-5.524-6.336-5.524-3.939,0-6.417,3.128-6.417,6.824a6.427,6.427,0,0,0,6.376,6.661,6.318,6.318,0,0,0,4.915-2.681v4.224a7.958,7.958,0,0,1-5.28,1.869c-5.606,0-9.586-4.63-9.586-10.358,0-5.564,3.818-9.951,10.073-9.951,6.011,0,9.829,3.655,9.829,9.26v10.642Z" transform="translate(-382.565 -102.113)" fill="#fff"/>
      <path id="Path_6213" data-name="Path 6213" d="M496.3,111.048h3.412v2.233h.081a5.616,5.616,0,0,1,5.28-2.64h.812v3.411h-.528c-3.453,0-5.483,2.112-5.483,7.393v9.1H496.3Z" transform="translate(-394.002 -102.113)" fill="#fff"/>
      <path id="Path_6214" data-name="Path 6214" d="M524.995,112.32h-6.986v10.235c0,1.828.853,2.438,2.681,2.438h4.305V128.4H520.2c-3.656,0-5.768-2.437-5.768-6.3V104.035h3.574v4.874h6.986Z" transform="translate(-399.873 -99.973)" fill="#fff"/>
    </g>
    <g id="Group_564" data-name="Group 564" transform="translate(276.147 93.893)">
      <path id="Path_6215" data-name="Path 6215" d="M301.987,96.426l-.09.206h0l-10.948,24.9a9.066,9.066,0,0,0-6.439-1.674c-3.983.277-7.083,2.346-6.925,4.621s3.515,3.9,7.5,3.62c3.354-.233,6.073-1.738,6.757-3.567l8.647-19.667c5.427,3.276,8.072,9.815,5.729,15.578-2.479,6.1-9.258,8.708-15.775,7.339l-.819,1.862a17.786,17.786,0,0,0,12.365-33.221Z" transform="translate(-276.611 -94.713)" fill="#fff"/>
      <path id="Path_6216" data-name="Path 6216" d="M277.651,104.531a17.761,17.761,0,0,0,.2,14.733c.235-.168.481-.329.743-.479a16.921,16.921,0,0,1,20.471-23.227l.354-.806A17.829,17.829,0,0,0,277.651,104.531Z" transform="translate(-276.147 -93.893)" fill="#fff"/>
      <path id="Path_6217" data-name="Path 6217" d="M280.5,106.331a15.7,15.7,0,0,0-.254,12.058c.112.289.235.572.364.853q.395-.171.816-.318c-.129-.281-.254-.564-.366-.853a14.877,14.877,0,0,1,18.153-19.652l.354-.807A15.784,15.784,0,0,0,280.5,106.331Z" transform="translate(-277.123 -94.872)" fill="#fff"/>
      <path id="Path_6218" data-name="Path 6218" d="M283.933,118.311a12.839,12.839,0,0,1,15.424-17.029l.355-.808a13.714,13.714,0,0,0-16.594,18.154c.124.321.264.634.411.943q.433-.105.885-.185C284.24,119.035,284.077,118.677,283.933,118.311Z" transform="translate(-278.1 -95.85)" fill="#fff"/>
      <path id="Path_6219" data-name="Path 6219" d="M287.6,120.156a10.948,10.948,0,0,1-.788-1.609,10.8,10.8,0,0,1,12.693-14.4l.358-.813A11.651,11.651,0,0,0,286.625,120.2c.076-.006.151-.014.227-.02C287.1,120.167,287.35,120.16,287.6,120.156Z" transform="translate(-279.077 -96.825)" fill="#fff"/>
      <path id="Path_6220" data-name="Path 6220" d="M300,106.21a9.634,9.634,0,0,0-10.013,14.967c.426.034.838.1,1.243.169a8.765,8.765,0,0,1,8.411-14.321Z" transform="translate(-280.053 -97.804)" fill="#fff"/>
    </g>
  </g>
</svg>
