<svg xmlns="http://www.w3.org/2000/svg" width="16" height="17.248" viewBox="0 0 16 17.248">
  <path id="Path_12776" data-name="Path 12776" d="M15.755,10.986V2.9a2.891,2.891,0,0,0-2.9-2.9L7.265.891a2.907,2.907,0,0,0-2.83,2.9v7.577A3.086,3.086,0,1,0,6.217,14.15a3.128,3.128,0,0,0-.423-1.538V6.195L14.44,5.058V9.471a3.045,3.045,0,0,0-1.538-.4,3.1,3.1,0,1,0,3.1,3.1,3.858,3.858,0,0,0-.245-1.181M5.772,4.836V3.788a1.55,1.55,0,0,1,1.56-1.56L12.9,1.337A1.537,1.537,0,0,1,14.4,2.9v.758ZM14.685,12.1a1.76,1.76,0,1,1-1.76-1.76,1.75,1.75,0,0,1,1.76,1.76M4.88,14.15a1.76,1.76,0,1,1-1.76-1.76,1.75,1.75,0,0,1,1.76,1.76" fill="#fff"/>
</svg>
