<svg xmlns="http://www.w3.org/2000/svg" xmlns:xlink="http://www.w3.org/1999/xlink" width="315" height="200" viewBox="0 0 315 200">
  <defs>
    <linearGradient id="linear-gradient" x1="0.942" y1="0.967" x2="0.07" y2="0.019" gradientUnits="objectBoundingBox">
      <stop offset="0" stop-color="#a9e"/>
      <stop offset="1" stop-color="#fe88bb"/>
    </linearGradient>
    <linearGradient id="linear-gradient-2" y1="0.5" x2="1" y2="0.5" gradientUnits="objectBoundingBox">
      <stop offset="0" stop-color="#7bd"/>
      <stop offset="1" stop-color="#68d"/>
    </linearGradient>
  </defs>
  <g id="Group_153968" data-name="Group 153968" transform="translate(-823 -6170.476)">
    <rect id="bg" width="315" height="200" rx="10" transform="translate(823 6170.476)" fill="#fff"/>
    <path id="icon" d="M20,0A11.765,11.765,0,1,0,31.765,11.765,11.818,11.818,0,0,0,20,0m0,7.059a4.706,4.706,0,1,1-4.706,4.706A4.654,4.654,0,0,1,20,7.059m0,17.647c-10.961,0-20,8.686-20,19.485v1.691H7.059V44.191A12.585,12.585,0,0,1,20,31.765,12.585,12.585,0,0,1,32.941,44.191v1.691H40V44.191c0-10.8-9.039-19.485-20-19.485" transform="translate(847 6227.476)" fill="url(#linear-gradient)"/>
    <path id="icon-2" data-name="icon" d="M20,0A11.765,11.765,0,1,0,31.765,11.765,11.818,11.818,0,0,0,20,0m0,7.059a4.706,4.706,0,1,1-4.706,4.706A4.654,4.654,0,0,1,20,7.059m0,17.647c-10.961,0-20,8.686-20,19.485v1.691H7.059V44.191A12.585,12.585,0,0,1,20,31.765,12.585,12.585,0,0,1,32.941,44.191v1.691H40V44.191c0-10.8-9.039-19.485-20-19.485" transform="translate(960.5 6227.476)" fill="url(#linear-gradient-2)"/>
    <path id="icon-3" data-name="icon" d="M20,0A11.765,11.765,0,1,0,31.765,11.765,11.818,11.818,0,0,0,20,0m0,7.059a4.706,4.706,0,1,1-4.706,4.706A4.654,4.654,0,0,1,20,7.059m0,17.647c-10.961,0-20,8.686-20,19.485v1.691H7.059V44.191A12.585,12.585,0,0,1,20,31.765,12.585,12.585,0,0,1,32.941,44.191v1.691H40V44.191c0-10.8-9.039-19.485-20-19.485" transform="translate(1074 6227.476)" fill="url(#linear-gradient-2)"/>
    <text id="あなた" transform="translate(867 6296.358)" fill="#222" font-size="15" font-family="HiraKakuPro-W6, Hiragino Kaku Gothic Pro"><tspan x="-22.5" y="0">あなた</tspan></text>
    <text id="ファンA" transform="translate(980 6296.358)" fill="#222" font-size="15" font-family="HiraKakuPro-W6, Hiragino Kaku Gothic Pro"><tspan x="-28.56" y="0">ファンA</tspan></text>
    <text id="ファンB" transform="translate(1094 6296.358)" fill="#222" font-size="15" font-family="HiraKakuPro-W6, Hiragino Kaku Gothic Pro"><tspan x="-28.155" y="0">ファンB</tspan></text>
    <path id="Path_232048" data-name="Path 232048" d="M2700.668,15876.141a1.667,1.667,0,0,1-1.667-1.666v-23.334a1.665,1.665,0,0,1,1.667-1.666h10v6.666a1.667,1.667,0,0,0,1.667,1.667H2719v16.667a1.667,1.667,0,0,1-1.667,1.666Zm3.729-14.876a.835.835,0,0,0-.4.71v8.333a.833.833,0,0,0,1.207.745l8.333-4.167a.833.833,0,0,0,.336-1.183.823.823,0,0,0-.336-.307l-8.333-4.168a.835.835,0,0,0-.811.036Zm7.938-5.124v-6.666l6.667,6.666Z" transform="translate(-1787 -9669.057)" fill="#68d"/>
    <path id="Path_232049" data-name="Path 232049" d="M2700.668,15876.141a1.667,1.667,0,0,1-1.667-1.666v-23.334a1.665,1.665,0,0,1,1.667-1.666h10v6.666a1.667,1.667,0,0,0,1.667,1.667H2719v16.667a1.667,1.667,0,0,1-1.667,1.666Zm3.729-14.876a.835.835,0,0,0-.4.71v8.333a.833.833,0,0,0,1.207.745l8.333-4.167a.833.833,0,0,0,.336-1.183.823.823,0,0,0-.336-.307l-8.333-4.168a.835.835,0,0,0-.811.036Zm7.938-5.124v-6.666l6.667,6.666Z" transform="translate(-1667.001 -9669.056)" fill="#68d"/>
    <path id="Path_232050" data-name="Path 232050" d="M2739,15849.477l16,9.5-16,9.5Zm-40,11.5v-4h40v4Z" transform="translate(-1804.999 -9619.5)" fill="#68d"/>
    <path id="Path_232051" data-name="Path 232051" d="M2739,15849.477l16,9.5-16,9.5Zm-40,11.5v-4h40v4Z" transform="translate(-1684.999 -9619.501)" fill="#68d"/>
    <path id="Path_232052" data-name="Path 232052" d="M2715,15849.477l-16,9.5,16,9.5Zm40,11.5v-4h-40v4Z" transform="translate(-1684.999 -9597.618)" fill="#f8b"/>
    <path id="Path_232053" data-name="Path 232053" d="M2715,15849.477l-16,9.5,16,9.5Zm40,11.5v-4h-40v4Z" transform="translate(-1804.999 -9597.618)" fill="#f8b"/>
    <text id="販売" transform="translate(922.001 6221.085)" fill="#222" font-size="12" font-family="HiraKakuPro-W6, Hiragino Kaku Gothic Pro"><tspan x="-12" y="0">販売</tspan></text>
    <text id="転売" transform="translate(1042.001 6221.085)" fill="#222" font-size="12" font-family="HiraKakuPro-W6, Hiragino Kaku Gothic Pro"><tspan x="-12" y="0">転売</tspan></text>
    <path id="Union_155" data-name="Union 155" d="M2937,15875.593H2707v-.115h-.494v-10h4v6.116H2933v-16h4v16h0v4Zm-238-10.116,9.5-16,9.5,16Z" transform="translate(-1841 -9546.117)" fill="#f8b"/>
    <path id="Path_232056" data-name="Path 232056" d="M2699,15864.477a15,15,0,1,1,15,15A15.017,15.017,0,0,1,2699,15864.477Zm2,0a13,13,0,1,0,13-13A13.014,13.014,0,0,0,2701,15864.477Zm2.619,0a10.381,10.381,0,1,1,10.381,10.381A10.393,10.393,0,0,1,2703.619,15864.477Zm6.746,3.819a.692.692,0,0,0,.715.714H2713v.762a1,1,0,1,0,2,0v-.762h1.936a.722.722,0,1,0,0-1.443H2715v-.809l.1-.158h1.841a.71.71,0,0,0,.73-.731.718.718,0,0,0-.73-.73H2716l2.222-3.587a2.091,2.091,0,0,0,.286-.873.971.971,0,0,0-1.857-.27l-2.635,4.444-2.73-4.57a.885.885,0,0,0-.809-.461.912.912,0,0,0-.984.937,1.191,1.191,0,0,0,.158.57l2.349,3.81h-.92a.706.706,0,0,0-.715.73.7.7,0,0,0,.715.731h1.824l.1.158v.809h-1.92A.7.7,0,0,0,2710.365,15868.3Z" transform="translate(-1792 -9579)" fill="#f8b" stroke="rgba(0,0,0,0)" stroke-width="1"/>
    <path id="Path_232057" data-name="Path 232057" d="M2699,15864.477a15,15,0,1,1,15,15A15.017,15.017,0,0,1,2699,15864.477Zm2,0a13,13,0,1,0,13-13A13.014,13.014,0,0,0,2701,15864.477Zm2.619,0a10.381,10.381,0,1,1,10.381,10.381A10.393,10.393,0,0,1,2703.619,15864.477Zm6.746,3.819a.692.692,0,0,0,.715.714H2713v.762a1,1,0,1,0,2,0v-.762h1.936a.722.722,0,1,0,0-1.443H2715v-.809l.1-.158h1.841a.71.71,0,0,0,.73-.731.718.718,0,0,0-.73-.73H2716l2.222-3.587a2.091,2.091,0,0,0,.286-.873.971.971,0,0,0-1.857-.27l-2.635,4.444-2.73-4.57a.885.885,0,0,0-.809-.461.912.912,0,0,0-.984.937,1.191,1.191,0,0,0,.158.57l2.349,3.81h-.92a.706.706,0,0,0-.715.73.7.7,0,0,0,.715.731h1.824l.1.158v.809h-1.92A.7.7,0,0,0,2710.365,15868.3Z" transform="translate(-1672 -9579.001)" fill="#f8b" stroke="rgba(0,0,0,0)" stroke-width="1"/>
    <path id="Path_232058" data-name="Path 232058" d="M2699,15864.477a15,15,0,1,1,15,15A15.017,15.017,0,0,1,2699,15864.477Zm2,0a13,13,0,1,0,13-13A13.014,13.014,0,0,0,2701,15864.477Zm2.619,0a10.381,10.381,0,1,1,10.381,10.381A10.393,10.393,0,0,1,2703.619,15864.477Zm6.746,3.819a.692.692,0,0,0,.715.714H2713v.762a1,1,0,1,0,2,0v-.762h1.936a.722.722,0,1,0,0-1.443H2715v-.809l.1-.158h1.841a.71.71,0,0,0,.73-.731.718.718,0,0,0-.73-.73H2716l2.222-3.587a2.091,2.091,0,0,0,.286-.873.971.971,0,0,0-1.857-.27l-2.635,4.444-2.73-4.57a.885.885,0,0,0-.809-.461.912.912,0,0,0-.984.937,1.191,1.191,0,0,0,.158.57l2.349,3.81h-.92a.706.706,0,0,0-.715.73.7.7,0,0,0,.715.731h1.824l.1.158v.809h-1.92A.7.7,0,0,0,2710.365,15868.3Z" transform="translate(-1820 -9515.001)" fill="#f8b" stroke="rgba(0,0,0,0)" stroke-width="1"/>
    <text id="利益の一部があなたに還元_" data-name="利益の一部があなたに還元！" transform="translate(914 6354.476)" fill="#f8b" font-size="13" font-family="YuGothic-Bold, Yu Gothic" font-weight="700"><tspan x="0" y="0">利益の一部があなたに還元！</tspan></text>
  </g>
</svg>
