<svg xmlns="http://www.w3.org/2000/svg" xmlns:xlink="http://www.w3.org/1999/xlink" width="300" height="256.785" viewBox="0 0 300 256.785">
  <defs>
    <linearGradient id="linear-gradient" x1="0.5" x2="0.5" y2="1" gradientUnits="objectBoundingBox">
      <stop offset="0" stop-color="#a9e"/>
      <stop offset="1" stop-color="#fe88bb"/>
    </linearGradient>
    <linearGradient id="linear-gradient-2" x1="0.5" x2="0.5" y2="1" gradientUnits="objectBoundingBox">
      <stop offset="0" stop-color="#f55"/>
      <stop offset="1" stop-color="#fb6"/>
    </linearGradient>
    <filter id="Rectangle_107012" x="91.218" y="116.179" width="193.439" height="90.19" filterUnits="userSpaceOnUse">
      <feOffset dy="3" input="SourceAlpha"/>
      <feGaussianBlur stdDeviation="3" result="blur"/>
      <feFlood flood-opacity="0.161"/>
      <feComposite operator="in" in2="blur"/>
      <feComposite in="SourceGraphic"/>
    </filter>
  </defs>
  <g id="Group_189994" data-name="Group 189994" transform="translate(-25.521 -3310.411)">
    <g id="Group_159265" data-name="Group 159265" transform="translate(25.521 3310.41)">
      <text id="_40" data-name="40" transform="translate(59.76 250.786)" fill="#afafaf" font-size="24" font-family="Roboto-Bold, Roboto" font-weight="700"><tspan x="-13.77" y="0">40</tspan></text>
      <text id="人" transform="translate(78.801 251.895)" fill="#afafaf" font-size="13" font-family="YuGothicUI-Bold, Yu Gothic UI" font-weight="700"><tspan x="-6.5" y="0">人</tspan></text>
      <text id="_2022" data-name="2022" transform="translate(13 12)" fill="#666" font-size="11" font-family="Roboto-Bold, Roboto" font-weight="700"><tspan x="-12.622" y="0">2022</tspan></text>
      <text id="_2009" data-name="2009" transform="translate(13 250.377)" fill="#666" font-size="11" font-family="Roboto-Bold, Roboto" font-weight="700"><tspan x="-12.622" y="0">2009</tspan></text>
      <path id="chart" d="M239.876,258.358V0h14.45V258.358a7.225,7.225,0,0,1-14.45,0Zm-19.942-38.224V0h14.45V220.134a7.225,7.225,0,0,1-14.45,0Zm-19.941-34.253V0h14.45V185.881a7.225,7.225,0,0,1-14.45,0Zm-19.941-26.31V0H194.5V159.571a7.225,7.225,0,0,1-14.45,0Zm-20.23-33.756V0h14.45V125.815a7.225,7.225,0,1,1-14.45,0ZM139.88,89.576V0h14.449V89.576a7.225,7.225,0,1,1-14.449,0Zm-19.942-28.3V0h14.45V61.28a7.225,7.225,0,1,1-14.45,0ZM100,41.423V0h14.45V41.423a7.225,7.225,0,1,1-14.45,0Zm-19.941-14.4V0h14.45V27.027a7.225,7.225,0,1,1-14.45,0ZM60.114,17.1V0h14.45V17.1a7.225,7.225,0,1,1-14.45,0ZM39.883,9.9V0h14.45V9.9a7.225,7.225,0,1,1-14.45,0ZM19.941,4.937V0h14.45V4.937a7.225,7.225,0,1,1-14.45,0ZM5.163,5.163A5.164,5.164,0,0,1,0,0H14.45A5.164,5.164,0,0,1,9.287,5.163Z" transform="translate(34.417 254.327) rotate(-90)" opacity="0.751" fill="url(#linear-gradient)"/>
      <g id="arrow" transform="translate(58.579 233.23) rotate(-90)" stroke-linecap="round" fill="url(#linear-gradient-2)">
        <path d="M 211.6086883544922 230.22265625 L 209.0966033935547 228.3081512451172 L 165.4782562255859 195.0662994384766 L 166.6192169189453 192.3912658691406 L 183.2886505126953 194.9982757568359 C 182.3423461914062 193.0314025878906 181.3520355224609 190.9584350585938 180.3221588134766 188.8026885986328 C 155.7027587890625 137.2684478759766 104.4736633300781 30.03385734558105 -0.3944831788539886 1.447210788726807 L 0.2866638898849487 -1.472347974777222 C 7.096604824066162 -0.1465832740068436 13.96739959716797 1.635004997253418 20.70819282531738 3.823004961013794 C 27.19931030273438 5.929945945739746 33.74460601806641 8.470417022705078 40.16222381591797 11.37382888793945 C 52.24204635620117 16.83891677856445 64.33101654052734 23.7967700958252 76.09333801269531 32.05412292480469 C 86.83589935302734 39.59556198120117 97.55377960205078 48.39444732666016 107.9492797851562 58.20641708374023 C 117.3144302368164 67.04582977294922 126.6205444335938 76.89809417724609 135.6091918945312 87.489501953125 C 150.4627532958984 104.9917144775391 164.6699066162109 124.7230911254883 177.8359832763672 146.1355895996094 C 188.0045776367188 162.6731262207031 195.6017303466797 177.0579833984375 200.4776153564453 186.8825988769531 L 207.0434875488281 175.6259155273438 L 209.6674041748047 171.12744140625 L 209.8383941650391 176.3324432373047 L 211.5050201416016 227.0658874511719 L 211.6086883544922 230.22265625 Z" stroke="none"/>
        <path d="M 210.0057983398438 227.1151275634766 L 208.3392181396484 176.3816833496094 L 200.3657073974609 190.0515899658203 C 181.3209228515625 151.0377807617188 110.4652099609375 21.50531387329102 -7.080077921273187e-06 1.281738263969601e-06 C 111.9062423706055 30.50518798828125 162.8919982910156 149.5386199951172 185.8838348388672 196.9223785400391 L 166.3874664306641 193.8732757568359 L 210.0057983398438 227.1151275634766 M 213.2115936279297 233.3301849365234 L 164.5690307617188 196.2593383789062 L 166.8509979248047 190.9093170166016 L 180.7023773193359 193.0755767822266 C 180.1380310058594 191.8969116210938 179.559814453125 190.6865539550781 178.9686737060547 189.4491882324219 C 154.4453735351562 138.1161956787109 103.4162750244141 31.30031394958496 -0.7890070676803589 2.894376277923584 L 0.5732741951942444 -2.944717407226562 C 7.442680358886719 -1.607373714447021 14.37286758422852 0.189595028758049 21.17127418518066 2.396282434463501 C 27.71499252319336 4.520282745361328 34.31249237060547 7.08096981048584 40.78049468994141 10.00718879699707 C 52.94546127319336 15.51078224182129 65.11637115478516 22.51540756225586 76.95517730712891 30.82643890380859 C 87.75668334960938 38.40925216674805 98.53099060058594 47.25418853759766 108.9788665771484 57.11556243896484 C 118.3840560913086 65.99278259277344 127.7285537719727 75.885498046875 136.7528381347656 86.51893615722656 C 151.6555938720703 104.0790634155273 165.9078674316406 123.8726577758789 179.11376953125 145.3499145507812 C 188.4851531982422 160.5909118652344 195.6789855957031 174.0093536376953 200.5789031982422 183.7318572998047 L 210.9956207275391 165.8732452392578 L 213.2115936279297 233.3301849365234 Z" stroke="none" fill="#fff"/>
      </g>
      <g id="Group_159264" data-name="Group 159264" transform="translate(265.899 1.679)">
        <path id="line" d="M0,0H0V24.028H145.511" transform="translate(0 156.473) rotate(-90)" fill="none" stroke="#f4faf4" stroke-width="4"/>
        <path id="line-2" data-name="line" d="M0,0H0V24.028H145.512" transform="translate(0 156.474) rotate(-90)" fill="none" stroke="#a9e" stroke-width="2"/>
        <g id="rightEdge" transform="translate(18.152)" fill="#a9e">
          <path d="M 5.875947952270508 10.75189781188965 C 3.187337875366211 10.75189781188965 0.9999979734420776 8.564558029174805 0.9999979734420776 5.875947952270508 C 0.9999979734420776 3.187337875366211 3.187337875366211 0.9999979734420776 5.875947952270508 0.9999979734420776 C 8.564558029174805 0.9999979734420776 10.75189781188965 3.187337875366211 10.75189781188965 5.875947952270508 C 10.75189781188965 8.564558029174805 8.564558029174805 10.75189781188965 5.875947952270508 10.75189781188965 Z" stroke="none"/>
          <path d="M 5.875947952270508 1.999998092651367 C 3.738738059997559 1.999998092651367 1.999998092651367 3.738738059997559 1.999998092651367 5.875947952270508 C 1.999998092651367 8.013157844543457 3.738738059997559 9.751897811889648 5.875947952270508 9.751897811889648 C 8.013157844543457 9.751897811889648 9.751897811889648 8.013157844543457 9.751897811889648 5.875947952270508 C 9.751897811889648 3.738738059997559 8.013157844543457 1.999998092651367 5.875947952270508 1.999998092651367 M 5.875947952270508 -1.9073486328125e-06 C 9.121148109436035 -1.9073486328125e-06 11.75189781188965 2.63074779510498 11.75189781188965 5.875947952270508 C 11.75189781188965 9.121148109436035 9.121148109436035 11.75189781188965 5.875947952270508 11.75189781188965 C 2.63074779510498 11.75189781188965 -1.9073486328125e-06 9.121148109436035 -1.9073486328125e-06 5.875947952270508 C -1.9073486328125e-06 2.63074779510498 2.63074779510498 -1.9073486328125e-06 5.875947952270508 -1.9073486328125e-06 Z" stroke="none" fill="#f4faf4"/>
        </g>
      </g>
      <g id="panel" transform="translate(100.218 122.18)">
        <g transform="matrix(1, 0, 0, 1, -100.22, -122.18)" filter="url(#Rectangle_107012)">
          <g id="Rectangle_107012-2" data-name="Rectangle 107012" transform="translate(100.22 122.18)" fill="#fff" stroke="#a9e" stroke-width="1">
            <rect width="175.439" height="72.19" rx="10" stroke="none"/>
            <rect x="0.5" y="0.5" width="174.439" height="71.19" rx="9.5" fill="none"/>
          </g>
        </g>
        <g id="Group_159714" data-name="Group 159714" transform="translate(8.394)">
          <text id="_68_000" data-name="68,000" transform="translate(79.343 45)" fill="#a9e" font-size="43" font-family="YuGothic-Bold, Yu Gothic" font-weight="700" letter-spacing="-0.1em"><tspan x="-56.868" y="0">68,000</tspan></text>
          <text id="人-2" data-name="人" transform="translate(147.665 37.307)" fill="#a9e" font-size="21" font-family="YuGothicUI-Bold, Yu Gothic UI" font-weight="700"><tspan x="-10.5" y="0">人</tspan></text>
          <text id="約" transform="translate(10 37.307)" fill="#a9e" font-size="21" font-family="YuGothicUI-Bold, Yu Gothic UI" font-weight="700"><tspan x="-10.5" y="0">約</tspan></text>
        </g>
        <text id="_2023年現在" data-name="2023年現在" transform="translate(87.314 63.241)" font-size="8" font-family="SegoeUI-Bold, Segoe UI" font-weight="700"><tspan x="-21.203" y="0">2023</tspan><tspan y="0" font-family="YuGothicUI-Bold, Yu Gothic UI">年現在</tspan></text>
      </g>
    </g>
  </g>
</svg>
