<svg xmlns="http://www.w3.org/2000/svg" width="24" height="22.811" viewBox="0 0 24 22.811">
  <path id="icon" d="M22.043,21.911a6.5,6.5,0,0,1-3.51,1.952A28.782,28.782,0,0,1,12,24.389a28.786,28.786,0,0,1-6.533-.526,6.5,6.5,0,0,1-3.51-1.952A5.311,5.311,0,0,1,.95,18.438a4.441,4.441,0,0,1,1.6-3.187,13.262,13.262,0,0,0,3.042-4.017A4.241,4.241,0,0,1,9.3,8.818H14.7a4.242,4.242,0,0,1,3.717,2.417,13.258,13.258,0,0,0,3.042,4.017,4.441,4.441,0,0,1,1.6,3.187,5.311,5.311,0,0,1-1.007,3.472m1.947-3.529a5.427,5.427,0,0,0-1.92-3.846,12.327,12.327,0,0,1-2.82-3.734A5.177,5.177,0,0,0,14.7,7.872H9.3A5.177,5.177,0,0,0,4.751,10.8a12.327,12.327,0,0,1-2.82,3.734A5.427,5.427,0,0,0,.01,18.381a6.281,6.281,0,0,0,1.251,4.166,7.477,7.477,0,0,0,3.985,2.235A29.609,29.609,0,0,0,12,25.335h0a29.609,29.609,0,0,0,6.753-.552,7.478,7.478,0,0,0,3.985-2.235,6.281,6.281,0,0,0,1.251-4.166M10.5,3.469a.416.416,0,1,1-.414.416.416.416,0,0,1,.414-.416m2.579.416A.414.414,0,1,1,13.5,4.3a.416.416,0,0,1-.414-.416M3.092,10.58a.469.469,0,0,0,.649-.147l.529-.839a5.832,5.832,0,0,1,4.8-2.761h5.864a5.833,5.833,0,0,1,4.8,2.761l.529.839a.469.469,0,0,0,.649.147.474.474,0,0,0,.146-.653l-.529-.839a6.8,6.8,0,0,0-4.64-3.113L14.693,4.524a1.354,1.354,0,1,0-1.2.723,1.345,1.345,0,0,0,.493-.094l.6.732H9.409l.6-.732a1.345,1.345,0,0,0,.493.094,1.361,1.361,0,1,0-1.2-.724L8.115,5.975a6.8,6.8,0,0,0-4.64,3.113l-.529.839a.474.474,0,0,0,.146.653m11.745,2.485a.469.469,0,0,0-.663.057l-2.131,2.542L9.912,13.122a.469.469,0,0,0-.663-.057.475.475,0,0,0-.057.667l2.38,2.838v0H9.967a.473.473,0,0,0,0,.946h1.606v.988H9.967a.473.473,0,0,0,0,.946h1.606v1.565a.471.471,0,1,0,.941,0V19.453H14.12a.473.473,0,0,0,0-.946H12.514v-.988H14.12a.473.473,0,0,0,0-.946H12.514v0l2.38-2.838a.475.475,0,0,0-.057-.667" transform="translate(0 -2.523)" fill="#fff" fill-rule="evenodd"/>
</svg>
