<svg xmlns="http://www.w3.org/2000/svg" xmlns:xlink="http://www.w3.org/1999/xlink" width="45" height="45" viewBox="0 0 45 45">
  <defs>
    <clipPath id="clip-path">
      <rect id="Rectangle_108524" data-name="Rectangle 108524" width="45" height="45" fill="#f8b"/>
    </clipPath>
  </defs>
  <g id="Group_195730" data-name="Group 195730" clip-path="url(#clip-path)">
    <path id="Path_376851" data-name="Path 376851" d="M45,22.5a22.407,22.407,0,1,1-2.307-9.936A22.5,22.5,0,0,1,45,22.5" fill="#f8b"/>
    <path id="Path_376852" data-name="Path 376852" d="M257.3,233.576q-.556.412-1.1.837a67.011,67.011,0,0,0-9.4,8.928,71.665,71.665,0,0,0-8.669,12.7,2.561,2.561,0,0,1-1.523.97,7.1,7.1,0,0,1-1.673.222c-1.008.022-2.614-.234-3.2-1.192q-3.979-6.555-8.351-12.859c-.315-.454.013-.937.334-1.251a3.7,3.7,0,0,1,1.981-.746,6.134,6.134,0,0,1,2.554.164,2.7,2.7,0,0,1,1.523.97q2.6,3.753,5.068,7.6.327-.5.663-1a72.684,72.684,0,0,1,8.344-10.226,65.389,65.389,0,0,1,9.6-8.091,4.5,4.5,0,0,1,1.59-.678,22.424,22.424,0,0,1,2.261,3.656" transform="translate(-214.603 -221.011)" fill="#fff"/>
  </g>
</svg>
