<svg xmlns="http://www.w3.org/2000/svg" width="33" height="33" viewBox="0 0 33 33">
  <g id="やや不満" transform="translate(1 0.992)">
    <circle id="Ellipse_282" data-name="Ellipse 282" cx="15.5" cy="15.5" r="15.5" transform="translate(0 0.008)" fill="#fff" stroke="#5ca" stroke-width="2"/>
    <path id="Path_9310" data-name="Path 9310" d="M216.012,307.718a1.133,1.133,0,0,1-.484-2.158,14.474,14.474,0,0,1,12.9,0,1.133,1.133,0,0,1-.968,2.049,12.149,12.149,0,0,0-10.966,0A1.13,1.13,0,0,1,216.012,307.718Z" transform="translate(-206.474 -286.992)" fill="#5ca"/>
    <g id="Group_5108" data-name="Group 5108" transform="translate(8.005 8.393)">
      <path id="Path_9311" data-name="Path 9311" d="M237.3,288.152a1.819,1.819,0,1,0,1.819-1.819A1.819,1.819,0,0,0,237.3,288.152Z" transform="translate(-225.938 -286.333)" fill="#5ca"/>
      <path id="Path_9312" data-name="Path 9312" d="M214.063,288.152a1.819,1.819,0,1,0,1.819-1.819A1.819,1.819,0,0,0,214.063,288.152Z" transform="translate(-214.063 -286.333)" fill="#5ca"/>
    </g>
  </g>
</svg>
