<svg xmlns="http://www.w3.org/2000/svg" width="109" height="104.739" viewBox="0 0 109 104.739">
  <g id="Group_197692" data-name="Group 197692" transform="translate(-22.73 -7.261)">
    <g id="Group_197691" data-name="Group 197691">
      <g id="_" data-name="○" transform="translate(22.73 12)" fill="#fff" stroke="#5ca" stroke-width="5" opacity="0.503">
        <ellipse cx="24" cy="22.5" rx="24" ry="22.5" stroke="none"/>
        <ellipse cx="24" cy="22.5" rx="21.5" ry="20" fill="none"/>
      </g>
      <g id="_2" data-name="○" transform="translate(67.73 52)" fill="#fff" stroke="#5ca" stroke-width="5">
        <ellipse cx="32" cy="30" rx="32" ry="30" stroke="none"/>
        <ellipse cx="32" cy="30" rx="29.5" ry="27.5" fill="none"/>
      </g>
      <g id="arrow" transform="translate(91.84 11.524) rotate(71)" fill="#5ca">
        <path d="M 0.135259285569191 37.65310668945312 L -1.66692066192627 36.88135528564453 C -0.9680507183074951 33.52811813354492 0.02663928829133511 30.37583541870117 1.289529323577881 27.51206588745117 C 2.700279235839844 24.31302642822266 4.460069179534912 21.44501686096191 6.520009517669678 18.98772621154785 C 11.13030910491943 13.48814487457275 17.25506210327148 9.97883129119873 24.73381614685059 8.548816680908203 L 24.902099609375 -0.5230036973953247 L 24.94727897644043 -2.958263635635376 L 26.62633895874023 -1.193813681602478 L 42.78913116455078 15.79077625274658 L 43.44575119018555 16.48077583312988 L 42.78849792480469 17.170166015625 L 25.98365020751953 34.79682540893555 L 24.21242904663086 36.65465545654297 L 24.26003837585449 34.0882453918457 L 24.42861366271973 25.00078010559082 C 13.50966835021973 25.44270515441895 5.77170991897583 29.48008728027344 0.135259285569191 37.65310668945312 Z" stroke="none"/>
        <path d="M 25.90192794799805 -0.50445556640625 L 25.71842956542969 9.387645721435547 C 9.188789367675781 12.17836570739746 1.89801025390625 24.67769622802734 -0.6879615783691406 37.08538818359375 C 5.359977722167969 28.3156852722168 13.67314910888672 24.19925689697266 25.44791030883789 23.96993637084961 L 25.25986862182617 34.10679626464844 L 42.06472015380859 16.48013687133789 L 25.90192794799805 -0.50445556640625 M 23.99261856079102 -5.412063598632812 L 44.82677841186523 16.48141670227051 L 23.16499900817871 39.2025260925293 L 23.40887641906738 26.0554084777832 C 13.38633728027344 26.69748306274414 6.216972351074219 30.59585952758789 0.9584808349609375 38.2208366394043 L -2.645889282226562 36.67732620239258 C -1.932762145996094 33.25567626953125 -0.9165420532226562 30.03627586364746 0.3745498657226562 27.10857772827148 C 1.823348999023438 23.82324600219727 3.633140563964844 20.87485504150391 5.753669738769531 18.34529685974121 C 10.3510570526123 12.86110496520996 16.39932632446289 9.294269561767578 23.74887466430664 7.727670669555664 L 23.99261856079102 -5.412063598632812 Z" stroke="none" fill="#fff"/>
      </g>
    </g>
    <text id="今月" transform="translate(45.73 38)" fill="#5ca" font-size="11" font-family="HiraKakuPro-W6, Hiragino Kaku Gothic Pro"><tspan x="-11" y="0">今月</tspan></text>
    <text id="来月" transform="translate(98.73 89)" fill="#5ca" font-size="18" font-family="HiraKakuPro-W6, Hiragino Kaku Gothic Pro"><tspan x="-18" y="0">来月</tspan></text>
  </g>
</svg>
