<svg xmlns="http://www.w3.org/2000/svg" width="18.873" height="33.329" viewBox="0 0 18.873 33.329">
  <g id="smartphone_23" transform="translate(-5.812)">
    <g id="c61_iphone" transform="translate(5.812)">
      <path id="Path_367867" data-name="Path 367867" d="M22.26,0H8.236A2.425,2.425,0,0,0,5.812,2.427V30.9a2.425,2.425,0,0,0,2.424,2.426H22.259A2.427,2.427,0,0,0,24.685,30.9V2.427A2.425,2.425,0,0,0,22.26,0ZM11.787,1.475h6.924c.175,0,.316.261.316.586s-.141.586-.316.586H11.787c-.175,0-.315-.262-.315-.586S11.612,1.475,11.787,1.475Zm3.462,29.458A1.548,1.548,0,1,1,16.8,29.384,1.55,1.55,0,0,1,15.249,30.933Zm7.619-5.307H7.63V4.1H22.868Z" transform="translate(-5.812)" fill="#68d"/>
    </g>
  </g>
</svg>
