<svg xmlns="http://www.w3.org/2000/svg" width="48.839" height="46.728" viewBox="0 0 48.839 46.728">
  <g id="Group_191332" data-name="Group 191332" transform="translate(0 -11.064)">
    <g id="Group_191331" data-name="Group 191331" transform="translate(0 11.064)">
      <g id="Group_191330" data-name="Group 191330" transform="translate(0 0)">
        <path id="Path_368275" data-name="Path 368275" d="M44.228,11.064H4.611A4.616,4.616,0,0,0,0,15.675V43.728a4.616,4.616,0,0,0,4.611,4.611H17.678a27.051,27.051,0,0,1-1.357,7.352h-3.4a1.05,1.05,0,0,0,0,2.1h23a1.05,1.05,0,0,0,0-2.1h-3.4a27.052,27.052,0,0,1-1.357-7.352H44.228a4.616,4.616,0,0,0,4.611-4.611V15.675A4.616,4.616,0,0,0,44.228,11.064Zm-25.7,44.628a29.276,29.276,0,0,0,1.254-7.352h9.275a29.275,29.275,0,0,0,1.254,7.352Zm28.21-11.963a2.513,2.513,0,0,1-2.51,2.51H4.611a2.513,2.513,0,0,1-2.51-2.51v-.217H46.739v.217Zm0-2.318H2.1V15.675a2.513,2.513,0,0,1,2.51-2.51H44.228a2.513,2.513,0,0,1,2.51,2.51Z" transform="translate(0 -11.064)" fill="#fff"/>
        <path id="Path_368276" data-name="Path 368276" d="M162.683,72.862a7.136,7.136,0,0,0,1.8-4.746V64.923a7.167,7.167,0,1,0-14.334,0v3.193a7.136,7.136,0,0,0,1.8,4.746,8.129,8.129,0,0,0-5.042,7.51,1.05,1.05,0,0,0,1.05,1.05h18.711a1.05,1.05,0,0,0,1.05-1.05A8.129,8.129,0,0,0,162.683,72.862Zm-10.43-7.939a5.066,5.066,0,1,1,10.132,0v3.193a5.066,5.066,0,1,1-10.132,0Zm-3.147,14.4a6.035,6.035,0,0,1,4.862-4.873,7.147,7.147,0,0,0,6.7,0,6.034,6.034,0,0,1,4.862,4.873Z" transform="translate(-132.899 -53.302)" fill="#fff"/>
        <path id="Path_368277" data-name="Path 368277" d="M442.214,164.4a1.05,1.05,0,0,0-1.05,1.05v11.1a1.05,1.05,0,0,0,2.1,0v-11.1A1.05,1.05,0,0,0,442.214,164.4Z" transform="translate(-399.082 -149.777)" fill="#fff"/>
        <path id="Path_368278" data-name="Path 368278" d="M442.214,122.594a1.05,1.05,0,0,0-1.05,1.05v.105a1.05,1.05,0,1,0,2.1,0v-.105A1.05,1.05,0,0,0,442.214,122.594Z" transform="translate(-399.082 -111.955)" fill="#fff"/>
      </g>
    </g>
  </g>
</svg>
