<svg xmlns="http://www.w3.org/2000/svg" width="43.791" height="46.237" viewBox="0 0 43.791 46.237">
  <path id="Path_368279" data-name="Path 368279" d="M55.752,10.186a1.811,1.811,0,0,0,1.585-1.794V6.582a1.812,1.812,0,0,0-1.81-1.81H43.368a8.967,8.967,0,0,0-15.851,0H15.357a1.812,1.812,0,0,0-1.81,1.81v1.81a1.811,1.811,0,0,0,1.585,1.794V40.824a1.811,1.811,0,0,0-1.585,1.794v1.81a1.812,1.812,0,0,0,1.81,1.81H55.528a1.812,1.812,0,0,0,1.81-1.81v-1.81a1.811,1.811,0,0,0-1.585-1.794v-16.3a.9.9,0,0,0-1.81,0v3.362H44.529V23.614A2.718,2.718,0,0,0,41.814,20.9H29.07a2.718,2.718,0,0,0-2.715,2.715v4.275H16.942V10.2h9.614a8.971,8.971,0,0,0,17.772,0h9.614v6.212a.9.9,0,1,0,1.81,0V10.186Zm-.224-3.6v1.81H44.394a8.921,8.921,0,0,0-.3-1.81Zm-40.171,0H26.8a8.921,8.921,0,0,0-.3,1.81H15.357ZM55.528,44.428H15.357v-1.81H55.528v1.81ZM53.943,29.7V40.808H44.529V29.7ZM42.719,23.614V40.808H36.347v-18.1h5.467a.906.906,0,0,1,.9.9Zm-13.649-.9h5.467v18.1H28.166V23.614a.906.906,0,0,1,.9-.9ZM26.356,29.7V40.808H16.942V29.7Zm9.087-13.566A7.161,7.161,0,1,1,42.6,8.971,7.169,7.169,0,0,1,35.442,16.132Z" transform="translate(-13.547 0)" fill="#fff"/>
</svg>
