<svg xmlns="http://www.w3.org/2000/svg" width="61" height="61" viewBox="0 0 61 61">
  <path id="Path_6163" data-name="Path 6163" d="M-581.2-2238.147a30.034,30.034,0,0,1,30-30,30.033,30.033,0,0,1,30,30,30.034,30.034,0,0,1-30,30A30.033,30.033,0,0,1-581.2-2238.147Zm3.831,0a26.2,26.2,0,0,0,26.168,26.169,26.2,26.2,0,0,0,26.169-26.169,26.2,26.2,0,0,0-26.169-26.169A26.2,26.2,0,0,0-577.365-2238.147Zm10.4,3.709a1.916,1.916,0,0,1,1.916-1.916,1.916,1.916,0,0,1,1.916,1.916c0,6.367,5.131,11.169,11.935,11.169s11.935-4.8,11.935-11.169a1.916,1.916,0,0,1,1.915-1.916,1.916,1.916,0,0,1,1.916,1.916c0,8.552-6.778,15-15.766,15S-566.964-2225.886-566.964-2234.438Zm23.133-10.339a3.986,3.986,0,0,1,3.982-3.981,3.986,3.986,0,0,1,3.982,3.981,3.986,3.986,0,0,1-3.982,3.982A3.987,3.987,0,0,1-543.831-2244.778Zm-22.695,0a3.986,3.986,0,0,1,3.982-3.981,3.986,3.986,0,0,1,3.982,3.981,3.986,3.986,0,0,1-3.982,3.982A3.986,3.986,0,0,1-566.526-2244.778Z" transform="translate(581.697 2268.647)" fill="#fff" stroke="rgba(0,0,0,0)" stroke-width="1"/>
</svg>
