<svg xmlns="http://www.w3.org/2000/svg" xmlns:xlink="http://www.w3.org/1999/xlink" width="470" height="300" viewBox="0 0 470 300">
  <defs>
    <linearGradient id="linear-gradient" x1="0.091" y1="0.116" x2="0.927" y2="0.956" gradientUnits="objectBoundingBox">
      <stop offset="0" stop-color="#7bd"/>
      <stop offset="1" stop-color="#68d"/>
    </linearGradient>
    <linearGradient id="linear-gradient-2" x1="0" y1="0.973" x2="1.005" y2="0.952" xlink:href="#linear-gradient"/>
  </defs>
  <g id="Group_191401" data-name="Group 191401" transform="translate(47 -1099)" opacity="0.5">
    <g id="title" transform="translate(13 1184)">
      <circle id="_" data-name="●" cx="150" cy="150" r="150" transform="translate(-60 -85)" opacity="0.3" fill="url(#linear-gradient)"/>
      <path id="_2" data-name="○" d="M61,172a59.811,59.811,0,1,1,23.354-4.715A59.626,59.626,0,0,1,61,172ZM61,64a47.85,47.85,0,1,0,18.684,3.772A47.7,47.7,0,0,0,61,64Z" transform="translate(289 20.164)" opacity="0.5" fill="url(#linear-gradient-2)"/>
      <path id="Path_310962" data-name="Path 310962" d="M8.556-49.538H6.076l8.99,16.492V-26.1L2.356-49.538H0V0H2.232V-45.26L5.58-39.122V0H7.812V-34.968l7.254,13.454V0H17.3V-49.538H15.066v11.966ZM20.646,0h2.232V-49.538H20.646Zm42.16-47.368v-2.17H43.4V0H62.806V-2.17H51.088V-5.456H62.806V-7.688H51.088V-20.832H62.806V-23H48.856V-7.688H45.57v-18.6H62.806v-2.17H51.088V-41.85H62.806v-2.232H48.856v15.624H45.57v-18.91ZM45.57-2.17V-5.456h3.286V-2.17Zm57.412-12.586V-3.534L99.82-9.672V-49.538H97.712v24.49l-3.472-8.68L90.892-25.42V-49.538H88.784V-16.8l2.108-4.092L94.24-27.4l3.472,6.82v6.758l-3.472-6.82-3.348,6.51-2.108,4.092-3.162,6.2V-49.538H83.514V0h2.418l2.852-5.518,2.108-4.154,3.348-6.51L97.712-9.3,99.82-5.208,102.486,0h2.6V-49.538h-2.108Zm45.136-27.9a11.552,11.552,0,0,0-2.294-2.728,15.4,15.4,0,0,0-2.852-2.108,13.722,13.722,0,0,0-7.006-1.984,17.288,17.288,0,0,0-3.6.434,13.7,13.7,0,0,0-3.472,1.426,12.724,12.724,0,0,0-5.084,5.456,12.063,12.063,0,0,0-1.116,7.5,12.453,12.453,0,0,0,3.286,6.7c2.666,2.914,6.324,4.4,9.8,6.448a21.852,21.852,0,0,1,3.72,2.6,6.991,6.991,0,0,1,1.922,2.666,6.616,6.616,0,0,1,.124,3.348,5.968,5.968,0,0,1-1.3,2.914,5.98,5.98,0,0,1-5.952,1.922,11.81,11.81,0,0,1-6.572-4.092l-1.674,1.488a14.2,14.2,0,0,0,7.874,4.836,9.937,9.937,0,0,0,4.464-.31,7.731,7.731,0,0,0,3.6-2.418,8.051,8.051,0,0,0,1.8-3.968,9.335,9.335,0,0,0-.248-4.4c-.93-2.728-3.72-4.774-6.634-6.51-2.294-1.426-4.712-2.542-6.944-4.03a11.184,11.184,0,0,1-2.294-1.984,10.229,10.229,0,0,1-2.79-5.518,10.609,10.609,0,0,1,.93-6.2,10.263,10.263,0,0,1,4.216-4.526,13.054,13.054,0,0,1,2.914-1.178,12.355,12.355,0,0,1,3.038-.372,11.008,11.008,0,0,1,5.89,1.674,12.187,12.187,0,0,1,2.418,1.8l1.054,1.116c.31.434.62.744.93,1.24Zm-4.712,3.038a8.807,8.807,0,0,0-7.44-4.278,8.246,8.246,0,0,0-4.216,1.116,6.454,6.454,0,0,0-2.914,3.1,6.5,6.5,0,0,0-.62,4.154,6.7,6.7,0,0,0,1.922,3.844,12.2,12.2,0,0,0,2.666,2.046l1.178.682c1.55.93,3.1,1.736,4.65,2.666a30.875,30.875,0,0,1,4.588,3.224,12.192,12.192,0,0,1,3.472,5.022,12.705,12.705,0,0,1,.372,6.076,11.164,11.164,0,0,1-2.542,5.58,10.747,10.747,0,0,1-5.084,3.41,12.685,12.685,0,0,1-6.076.434,14.694,14.694,0,0,1-5.518-2.17,20.339,20.339,0,0,1-4.34-3.72L121.83-7.006a22.305,22.305,0,0,0,4.836,4.216A17.522,17.522,0,0,0,132.99-.31a13.918,13.918,0,0,0,7.13-.558,13.776,13.776,0,0,0,6.138-4.092,12.631,12.631,0,0,0,2.976-6.7,15.24,15.24,0,0,0,.248-3.41,13.1,13.1,0,0,0-.682-3.72,17.152,17.152,0,0,0-1.736-3.348,18.729,18.729,0,0,0-2.356-2.542,30.268,30.268,0,0,0-4.9-3.534c-1.674-.992-3.224-1.8-4.712-2.728a14.639,14.639,0,0,1-3.348-2.294,5.778,5.778,0,0,1-1.364-2.666,4.765,4.765,0,0,1,.434-2.79,4.927,4.927,0,0,1,2.046-2.17,5.937,5.937,0,0,1,3.1-.806,6.987,6.987,0,0,1,5.58,3.224Z" transform="translate(10 90)" fill="#f9f9f9"/>
    </g>
  </g>
</svg>
