<svg xmlns="http://www.w3.org/2000/svg" width="349.724" height="121.3" viewBox="0 0 349.724 121.3"><g transform="translate(0.001)" opacity="0.999"><path d="M536.472,166.88a8.694,8.694,0,0,1,2.761-5.678,8.568,8.568,0,0,1,5.931-2.065h7.742a6.809,6.809,0,0,1,5.42,2.065,6.958,6.958,0,0,1,1.373,5.678L551.776,231.4a52.419,52.419,0,0,1-5.544,17.8A53.481,53.481,0,0,1,535,264.044a52.868,52.868,0,0,1-15.95,10.07,52.021,52.021,0,0,1-19.945,3.742,45.375,45.375,0,0,1-19.026-3.742,38.776,38.776,0,0,1-13.606-10.07,37.558,37.558,0,0,1-7.727-14.84,45.949,45.949,0,0,1-1.167-17.8L465.5,166.88a8.672,8.672,0,0,1,2.761-5.678,8.569,8.569,0,0,1,5.931-2.065h7.742a6.808,6.808,0,0,1,5.42,2.065,6.958,6.958,0,0,1,1.373,5.678L480.8,231.4q-1.208,9.81,3.7,17.158,4.909,7.363,17.3,7.355t18.969-7.355a30.806,30.806,0,0,0,7.784-17.158Z" transform="translate(-457.197 -156.557)" fill="#fff"/><path d="M557.789,277.357a6.8,6.8,0,0,1-5.425-2.07,6.952,6.952,0,0,1-1.373-5.678l7.923-64.521a23.838,23.838,0,0,0-3.954-17.163q-5.172-7.348-17.555-7.35t-19.356,7.35a29.731,29.731,0,0,0-8.171,17.163l-7.923,64.521a8.683,8.683,0,0,1-2.762,5.678,8.552,8.552,0,0,1-5.926,2.07h-7.743a6.8,6.8,0,0,1-5.425-2.07,6.954,6.954,0,0,1-1.373-5.678l7.924-64.521a50.846,50.846,0,0,1,5.673-17.808,53.492,53.492,0,0,1,27.7-24.905,53.09,53.09,0,0,1,20.079-3.737,46.334,46.334,0,0,1,19.15,3.737,37.773,37.773,0,0,1,21.591,24.905,44.347,44.347,0,0,1,1.3,17.808l-7.923,64.521a8.679,8.679,0,0,1-2.762,5.678,8.551,8.551,0,0,1-5.925,2.07Z" transform="translate(-367.945 -158.638)" fill="#fff"/><path d="M554.953,279.938a54.536,54.536,0,0,1-23.031-4.775A51.891,51.891,0,0,1,514.3,262.13,52.457,52.457,0,0,1,503.625,242.9a55.57,55.57,0,0,1-1.879-23.615,64.036,64.036,0,0,1,7.676-23.61,73.471,73.471,0,0,1,36.219-32.266,62.952,62.952,0,0,1,24.209-4.769,54.6,54.6,0,0,1,23.027,4.769,51.736,51.736,0,0,1,28.3,32.266,55.556,55.556,0,0,1,1.874,23.61,63.935,63.935,0,0,1-7.671,23.615,73.408,73.408,0,0,1-36.219,32.266A62.854,62.854,0,0,1,554.953,279.938ZM557.647,258a38.241,38.241,0,0,0,15.222-3.092,45.865,45.865,0,0,0,12.884-8.264,44.67,44.67,0,0,0,14.066-27.357,38.467,38.467,0,0,0-.981-15.093,31.661,31.661,0,0,0-6.369-12.259,32.57,32.57,0,0,0-10.855-8.259,32.962,32.962,0,0,0-14.463-3.1,38.094,38.094,0,0,0-15.217,3.1,45.659,45.659,0,0,0-12.889,8.259,44.72,44.72,0,0,0-14.071,27.352,38.469,38.469,0,0,0,.986,15.1,31.545,31.545,0,0,0,6.37,12.259,32.5,32.5,0,0,0,10.86,8.264A32.975,32.975,0,0,0,557.647,258Z" transform="translate(-273.808 -158.638)" fill="#fff"/></g></svg>