<svg xmlns="http://www.w3.org/2000/svg" width="537.629" height="196.72" viewBox="0 0 537.629 196.72"><g transform="translate(-11946.281 14638)"><g transform="translate(11946.281 -14638)"><path d="M423.291,277.357a6.807,6.807,0,0,1-5.425-2.07,6.916,6.916,0,0,1-1.368-5.678l7.923-64.521a23.839,23.839,0,0,0-3.959-17.163q-5.164-7.348-17.55-7.35t-19.357,7.35a29.672,29.672,0,0,0-8.171,17.163l-7.923,64.521a8.711,8.711,0,0,1-2.767,5.678,8.542,8.542,0,0,1-5.926,2.07h-7.743a6.806,6.806,0,0,1-5.425-2.07,6.916,6.916,0,0,1-1.368-5.678l7.923-64.521a50.851,50.851,0,0,1,5.668-17.808,53.479,53.479,0,0,1,27.708-24.905,53.044,53.044,0,0,1,20.074-3.737,46.376,46.376,0,0,1,19.155,3.737,37.785,37.785,0,0,1,21.586,24.905,44.339,44.339,0,0,1,1.3,17.808l-7.923,64.521a8.708,8.708,0,0,1-2.767,5.678,8.543,8.543,0,0,1-5.926,2.07Z" transform="translate(-344.146 -158.638)" fill="#fff"/><path d="M442.509,275.276a6.374,6.374,0,0,1-5.394-2.323,6.834,6.834,0,0,1-1.43-5.167c.124-1.027-.181-1.672-.924-1.936a2.169,2.169,0,0,0-2.307.908,30.548,30.548,0,0,1-11.691,8,45.656,45.656,0,0,1-17.539,3.1,37.186,37.186,0,0,1-16.11-3.36,31.137,31.137,0,0,1-11.733-9.544,39.37,39.37,0,0,1-6.695-14.84,54.058,54.058,0,0,1-.769-18.974l2.824-22.964a55.318,55.318,0,0,1,5.956-19.1,54.542,54.542,0,0,1,12.109-15.614,58.1,58.1,0,0,1,16.9-10.452,53.449,53.449,0,0,1,20.347-3.871h38.455a6.827,6.827,0,0,1,5.425,2.065,6.955,6.955,0,0,1,1.368,5.678L458.944,267.528a8.71,8.71,0,0,1-2.766,5.678,8.543,8.543,0,0,1-5.926,2.07Zm3.5-91.62c.212-1.719-.547-2.581-2.266-2.581H424.391q-12.907,0-20.982,8a31.576,31.576,0,0,0-9.441,19.1l-3.138,25.55q-1.2,9.8,3.841,16t15.371,6.194a28.272,28.272,0,0,0,21.5-9.028,34.081,34.081,0,0,0,6.158-9.167,35.516,35.516,0,0,0,2.963-10.452Z" transform="translate(-247.225 -156.557)" fill="#fff"/><path d="M397.784,189.074a6.823,6.823,0,0,1-5.419-2.06,6.935,6.935,0,0,1-1.373-5.678l.8-6.452a8.693,8.693,0,0,1,2.761-5.678,8.571,8.571,0,0,1,5.931-2.07h41.294a6.829,6.829,0,0,1,5.425,2.07,6.976,6.976,0,0,1,1.368,5.678l-.8,6.452a8.7,8.7,0,0,1-2.762,5.678,8.6,8.6,0,0,1-5.931,2.06Z" transform="translate(-149.551 -123.268)" fill="#fff"/></g><g transform="translate(12235.139 -14560)"><path d="M412.027,275.276a6.806,6.806,0,0,1-5.425-2.07,6.917,6.917,0,0,1-1.368-5.678l8.083-65.812q2.308-18.83,14.608-30.712t31.651-11.867h9.291a6.827,6.827,0,0,1,5.425,2.065,6.957,6.957,0,0,1,1.368,5.678l-.79,6.452a8.736,8.736,0,0,1-2.767,5.678,8.567,8.567,0,0,1-5.931,2.065H458.43q-9.81,0-15.325,6.06t-6.721,15.872l-7.924,64.521a8.708,8.708,0,0,1-2.766,5.678,8.543,8.543,0,0,1-5.926,2.07Z" transform="translate(-405.144 -159.138)" fill="#fff"/><path d="M493.758,275.276a6.356,6.356,0,0,1-5.388-2.323,6.816,6.816,0,0,1-1.435-5.167c.129-1.027-.18-1.672-.919-1.936s-1.518.046-2.313.908a30.566,30.566,0,0,1-11.686,8,45.664,45.664,0,0,1-17.545,3.1,37.186,37.186,0,0,1-16.109-3.36,31.18,31.18,0,0,1-11.733-9.544,39.369,39.369,0,0,1-6.695-14.84,54.062,54.062,0,0,1-.769-18.974l2.824-22.964a55.213,55.213,0,0,1,5.962-19.1,54.436,54.436,0,0,1,12.1-15.614,58.05,58.05,0,0,1,16.9-10.452,53.4,53.4,0,0,1,20.342-3.871h38.454a6.821,6.821,0,0,1,5.425,2.065,6.977,6.977,0,0,1,1.373,5.678L510.193,267.528a8.728,8.728,0,0,1-2.762,5.678,8.564,8.564,0,0,1-5.931,2.07Zm3.5-91.62q.318-2.578-2.261-2.581H475.646q-12.907,0-20.987,8a31.6,31.6,0,0,0-9.441,19.1l-3.133,25.55q-1.208,9.8,3.84,16t15.366,6.194a28.294,28.294,0,0,0,21.5-9.028,34.048,34.048,0,0,0,6.153-9.167,35.348,35.348,0,0,0,2.963-10.452Z" transform="translate(-348.8 -159.138)" fill="#fff"/><path d="M449.029,189.074a6.83,6.83,0,0,1-5.42-2.06,6.914,6.914,0,0,1-1.368-5.678l.789-6.452a8.741,8.741,0,0,1,2.761-5.678,8.584,8.584,0,0,1,5.936-2.07h41.293a6.819,6.819,0,0,1,5.42,2.07,6.938,6.938,0,0,1,1.368,5.678l-.789,6.452a8.71,8.71,0,0,1-2.767,5.678,8.589,8.589,0,0,1-5.931,2.06Z" transform="translate(-251.128 -125.849)" fill="#fff"/></g></g></svg>