<svg xmlns="http://www.w3.org/2000/svg" xmlns:xlink="http://www.w3.org/1999/xlink" width="120.168" height="30" viewBox="0 0 120.168 30"><defs><linearGradient id="a" x1="0.5" x2="0.5" y2="1" gradientUnits="objectBoundingBox"><stop offset="0" stop-color="#97f"/><stop offset="1" stop-color="#89f"/></linearGradient></defs><path d="M363.607,188a1.668,1.668,0,0,1-1.334-.512,1.718,1.718,0,0,1-.336-1.4l1.948-15.959a5.924,5.924,0,0,0-.973-4.245q-1.27-1.817-4.315-1.818a6.225,6.225,0,0,0-4.76,1.818,7.357,7.357,0,0,0-2.009,4.245l-1.948,15.959a2.159,2.159,0,0,1-.68,1.4,2.093,2.093,0,0,1-1.457.512h-1.9a1.668,1.668,0,0,1-1.334-.512,1.718,1.718,0,0,1-.336-1.4l1.948-15.959a12.628,12.628,0,0,1,1.394-4.4,13.178,13.178,0,0,1,6.813-6.16,12.976,12.976,0,0,1,4.936-.924,11.346,11.346,0,0,1,4.71.924,9.544,9.544,0,0,1,3.376,2.49,9.667,9.667,0,0,1,1.932,3.671,11.03,11.03,0,0,1,.32,4.4l-1.948,15.959a2.159,2.159,0,0,1-.68,1.4,2.093,2.093,0,0,1-1.457.512Z" transform="translate(-344.146 -158.638)" fill="url(#a)"/><path d="M385.895,187.865a1.563,1.563,0,0,1-1.326-.575,1.7,1.7,0,0,1-.352-1.278c.031-.254-.044-.414-.227-.479s-.373.011-.567.225a7.511,7.511,0,0,1-2.875,1.979,11.168,11.168,0,0,1-4.313.766,9.1,9.1,0,0,1-3.961-.831,7.666,7.666,0,0,1-2.885-2.361,9.765,9.765,0,0,1-1.646-3.671,13.45,13.45,0,0,1-.189-4.693l.694-5.68a13.742,13.742,0,0,1,1.465-4.724,13.48,13.48,0,0,1,2.978-3.862,14.271,14.271,0,0,1,4.155-2.585,13.076,13.076,0,0,1,5-.958H391.3a1.673,1.673,0,0,1,1.334.511,1.728,1.728,0,0,1,.336,1.4l-3.039,24.9a2.159,2.159,0,0,1-.68,1.4,2.093,2.093,0,0,1-1.457.512Zm.862-22.662c.052-.425-.135-.638-.557-.638h-4.76a7,7,0,0,0-5.159,1.979,7.828,7.828,0,0,0-2.321,4.724l-.772,6.32a5.061,5.061,0,0,0,.944,3.957,4.575,4.575,0,0,0,3.78,1.532,6.933,6.933,0,0,0,5.286-2.233,8.43,8.43,0,0,0,1.514-2.268,8.822,8.822,0,0,0,.729-2.585Z" transform="translate(-337.876 -158.503)" fill="url(#a)"/><path d="M392.6,172.531a1.678,1.678,0,0,1-1.333-.506,1.705,1.705,0,0,1-.338-1.4l.2-1.587a2.138,2.138,0,0,1,.679-1.4,2.108,2.108,0,0,1,1.458-.509h10.154a1.68,1.68,0,0,1,1.334.509,1.715,1.715,0,0,1,.336,1.4l-.2,1.587a2.14,2.14,0,0,1-.679,1.4,2.114,2.114,0,0,1-1.458.506Z" transform="translate(-331.557 -156.273)" fill="url(#a)"/><path d="M406.837,187.869a1.668,1.668,0,0,1-1.334-.512,1.718,1.718,0,0,1-.336-1.4l1.988-16.281a12.308,12.308,0,0,1,3.592-7.6,10.7,10.7,0,0,1,7.783-2.936h2.285a1.674,1.674,0,0,1,1.334.511,1.729,1.729,0,0,1,.336,1.4l-.194,1.6a2.165,2.165,0,0,1-.68,1.4,2.1,2.1,0,0,1-1.458.511h-1.9a4.821,4.821,0,0,0-3.768,1.5,6.939,6.939,0,0,0-1.653,3.927l-1.948,15.962a2.159,2.159,0,0,1-.68,1.4,2.093,2.093,0,0,1-1.457.512Z" transform="translate(-327.723 -158.503)" fill="url(#a)"/><path d="M437.144,187.865a1.559,1.559,0,0,1-1.325-.575,1.693,1.693,0,0,1-.353-1.278c.032-.254-.044-.414-.226-.479s-.373.011-.569.225a7.516,7.516,0,0,1-2.874,1.979,11.17,11.17,0,0,1-4.314.766,9.1,9.1,0,0,1-3.961-.831,7.676,7.676,0,0,1-2.885-2.361,9.766,9.766,0,0,1-1.646-3.671,13.451,13.451,0,0,1-.189-4.693l.694-5.68a13.716,13.716,0,0,1,1.466-4.724,13.455,13.455,0,0,1,2.976-3.862A14.262,14.262,0,0,1,428.1,160.1a13.065,13.065,0,0,1,5-.958h9.456a1.672,1.672,0,0,1,1.334.511,1.733,1.733,0,0,1,.338,1.4l-3.04,24.9a2.164,2.164,0,0,1-.679,1.4,2.1,2.1,0,0,1-1.458.512Zm.862-22.662q.078-.638-.556-.638h-4.76a7,7,0,0,0-5.161,1.979,7.835,7.835,0,0,0-2.321,4.724l-.77,6.32a5.051,5.051,0,0,0,.944,3.957,4.571,4.571,0,0,0,3.778,1.532,6.938,6.938,0,0,0,5.288-2.233,8.427,8.427,0,0,0,1.513-2.268,8.785,8.785,0,0,0,.729-2.585Z" transform="translate(-324.077 -158.503)" fill="url(#a)"/></svg>