<svg xmlns="http://www.w3.org/2000/svg" xmlns:xlink="http://www.w3.org/1999/xlink" width="335" height="78.001" viewBox="0 0 335 78.001"><defs><linearGradient id="a" x1="0.5" x2="0.5" y2="1" gradientUnits="objectBoundingBox"><stop offset="0" stop-color="#97f"/><stop offset="1" stop-color="#89f"/></linearGradient></defs><g transform="translate(-12102.001 15137.001)"><g transform="translate(11828.056 -15279.139)"><path d="M322.65,174.138H277.121a3.188,3.188,0,0,1-3.176-3.2l3.176-25.6a3.188,3.188,0,0,1,3.176-3.2h36a3.188,3.188,0,0,1,3.176,3.2l-.264,2.4H298.562v8.692a5.933,5.933,0,0,0-8.047,2.507A6.022,6.022,0,0,0,293,167.044a5.934,5.934,0,0,0,8.046-2.507,6.034,6.034,0,0,0,.675-2.4h.013v-11.2h17.117l-1.924,17.44,5.717,5.76Z" transform="translate(0)" fill="url(#a)"/><g transform="translate(330.37 155.477)"><path d="M356.322,176.9a1.047,1.047,0,0,1-.835-.318,1.064,1.064,0,0,1-.21-.874l1.219-9.926a3.667,3.667,0,0,0-.609-2.64,3.069,3.069,0,0,0-2.7-1.131,3.907,3.907,0,0,0-2.978,1.131,4.565,4.565,0,0,0-1.257,2.64l-1.219,9.926a1.34,1.34,0,0,1-.426.874,1.314,1.314,0,0,1-.912.318H345.2a1.047,1.047,0,0,1-.835-.318,1.064,1.064,0,0,1-.21-.874l1.219-9.926a7.822,7.822,0,0,1,.872-2.74,8.227,8.227,0,0,1,4.263-3.831,8.161,8.161,0,0,1,3.088-.575,7.135,7.135,0,0,1,2.947.575,5.813,5.813,0,0,1,3.321,3.831,6.822,6.822,0,0,1,.2,2.74l-1.219,9.926a1.339,1.339,0,0,1-.426.874,1.314,1.314,0,0,1-.912.318Z" transform="translate(-344.146 -158.638)" fill="url(#a)"/><path d="M378.984,177.005a.981.981,0,0,1-.83-.357,1.051,1.051,0,0,1-.22-.795c.019-.158-.028-.257-.142-.3a.334.334,0,0,0-.355.14,4.7,4.7,0,0,1-1.8,1.231,7.024,7.024,0,0,1-2.7.476,5.721,5.721,0,0,1-2.478-.517,4.79,4.79,0,0,1-1.8-1.468,6.057,6.057,0,0,1-1.03-2.283,8.317,8.317,0,0,1-.118-2.919l.434-3.533a8.511,8.511,0,0,1,.916-2.938,8.391,8.391,0,0,1,1.863-2.4,8.938,8.938,0,0,1,2.6-1.608,8.223,8.223,0,0,1,3.13-.6h5.916a1.05,1.05,0,0,1,.835.318,1.07,1.07,0,0,1,.21.874l-1.9,15.484a1.34,1.34,0,0,1-.426.874,1.314,1.314,0,0,1-.912.318Zm.539-14.1c.033-.264-.084-.4-.349-.4H376.2a4.39,4.39,0,0,0-3.228,1.231,4.858,4.858,0,0,0-1.452,2.938l-.483,3.931a3.134,3.134,0,0,0,.591,2.461,2.871,2.871,0,0,0,2.365.953,4.35,4.35,0,0,0,3.307-1.389,5.244,5.244,0,0,0,.947-1.41,5.464,5.464,0,0,0,.456-1.608Z" transform="translate(-348.941 -158.741)" fill="url(#a)"/><path d="M391.963,170.512a1.05,1.05,0,0,1-.834-.317,1.067,1.067,0,0,1-.211-.874l.122-.993a1.337,1.337,0,0,1,.425-.874,1.319,1.319,0,0,1,.912-.318h6.353a1.051,1.051,0,0,1,.835.318,1.073,1.073,0,0,1,.21.874l-.122.993a1.339,1.339,0,0,1-.425.874,1.323,1.323,0,0,1-.912.317Z" transform="translate(-353.774 -160.388)" fill="url(#a)"/><path d="M406.2,177.005a1.047,1.047,0,0,1-.835-.318,1.064,1.064,0,0,1-.21-.874l1.244-10.125a7.635,7.635,0,0,1,2.247-4.725,6.72,6.72,0,0,1,4.869-1.826h1.429a1.05,1.05,0,0,1,.835.318,1.07,1.07,0,0,1,.21.874l-.122.993a1.344,1.344,0,0,1-.426.874,1.318,1.318,0,0,1-.912.318h-1.191a3.025,3.025,0,0,0-2.358.932,4.3,4.3,0,0,0-1.034,2.442l-1.219,9.926a1.34,1.34,0,0,1-.426.874,1.314,1.314,0,0,1-.912.318Z" transform="translate(-356.706 -158.741)" fill="url(#a)"/><path d="M430.233,177.005a.978.978,0,0,1-.829-.357,1.049,1.049,0,0,1-.221-.795c.02-.158-.028-.257-.141-.3s-.233.007-.356.14a4.7,4.7,0,0,1-1.8,1.231,7.025,7.025,0,0,1-2.7.476,5.721,5.721,0,0,1-2.478-.517,4.8,4.8,0,0,1-1.8-1.468,6.057,6.057,0,0,1-1.03-2.283,8.317,8.317,0,0,1-.118-2.919l.434-3.533a8.494,8.494,0,0,1,.917-2.938,8.374,8.374,0,0,1,1.862-2.4,8.93,8.93,0,0,1,2.6-1.608,8.216,8.216,0,0,1,3.13-.6h5.916a1.049,1.049,0,0,1,.835.318,1.073,1.073,0,0,1,.211.874l-1.9,15.484a1.343,1.343,0,0,1-.425.874,1.318,1.318,0,0,1-.912.318Zm.539-14.1q.049-.4-.348-.4h-2.978a4.392,4.392,0,0,0-3.229,1.231,4.862,4.862,0,0,0-1.452,2.938l-.482,3.931a3.127,3.127,0,0,0,.591,2.461,2.868,2.868,0,0,0,2.364.953,4.353,4.353,0,0,0,3.308-1.389,5.239,5.239,0,0,0,.947-1.41,5.438,5.438,0,0,0,.456-1.608Z" transform="translate(-359.494 -158.741)" fill="url(#a)"/><path d="M443.211,170.512a1.051,1.051,0,0,1-.834-.317,1.064,1.064,0,0,1-.21-.874l.121-.993a1.345,1.345,0,0,1,.425-.874,1.321,1.321,0,0,1,.913-.318h6.353a1.049,1.049,0,0,1,.834.318,1.067,1.067,0,0,1,.21.874l-.121.993a1.34,1.34,0,0,1-.426.874,1.321,1.321,0,0,1-.912.317Z" transform="translate(-364.326 -160.388)" fill="url(#a)"/><path d="M469.393,160.329a1.337,1.337,0,0,1,.425-.874,1.318,1.318,0,0,1,.912-.318h1.191a1.047,1.047,0,0,1,.834.318,1.07,1.07,0,0,1,.211.874l-1.219,9.926a8.064,8.064,0,0,1-.853,2.739,8.228,8.228,0,0,1-1.729,2.283,8.133,8.133,0,0,1-2.454,1.549,8,8,0,0,1-3.068.576,6.981,6.981,0,0,1-2.927-.576,5.966,5.966,0,0,1-2.093-1.549,5.778,5.778,0,0,1-1.189-2.283,7.069,7.069,0,0,1-.179-2.739l1.219-9.926a1.334,1.334,0,0,1,.425-.874,1.318,1.318,0,0,1,.912-.318H461a1.047,1.047,0,0,1,.834.318,1.07,1.07,0,0,1,.211.874l-1.219,9.926a3.776,3.776,0,0,0,.569,2.64,2.959,2.959,0,0,0,2.661,1.132,3.711,3.711,0,0,0,2.918-1.132,4.739,4.739,0,0,0,1.2-2.64Z" transform="translate(-367.424 -158.741)" fill="url(#a)"/><path d="M490.819,176.9a1.046,1.046,0,0,1-.835-.318,1.069,1.069,0,0,1-.211-.874l1.219-9.926a3.667,3.667,0,0,0-.608-2.64,3.071,3.071,0,0,0-2.7-1.131,3.908,3.908,0,0,0-2.978,1.131,4.574,4.574,0,0,0-1.257,2.64l-1.219,9.926a1.336,1.336,0,0,1-.425.874,1.316,1.316,0,0,1-.912.318H479.7a1.046,1.046,0,0,1-.835-.318,1.07,1.07,0,0,1-.211-.874l1.219-9.926a7.822,7.822,0,0,1,.873-2.74,8.229,8.229,0,0,1,4.262-3.831,8.167,8.167,0,0,1,3.089-.575,7.128,7.128,0,0,1,2.946.575,5.811,5.811,0,0,1,3.322,3.831,6.823,6.823,0,0,1,.2,2.74l-1.219,9.926a1.335,1.335,0,0,1-.425.874,1.315,1.315,0,0,1-.912.318Z" transform="translate(-371.84 -158.638)" fill="url(#a)"/><path d="M509.522,177.3a8.39,8.39,0,0,1-3.543-.735,7.983,7.983,0,0,1-2.711-2.005,8.071,8.071,0,0,1-1.642-2.959,8.55,8.55,0,0,1-.289-3.633,9.852,9.852,0,0,1,1.181-3.632,11.3,11.3,0,0,1,5.572-4.964,9.685,9.685,0,0,1,3.724-.734,8.4,8.4,0,0,1,3.543.734,7.959,7.959,0,0,1,4.353,4.964,8.547,8.547,0,0,1,.288,3.632,9.837,9.837,0,0,1-1.18,3.633,11.294,11.294,0,0,1-5.572,4.964A9.67,9.67,0,0,1,509.522,177.3Zm.414-3.376a5.883,5.883,0,0,0,2.342-.476,7.056,7.056,0,0,0,1.982-1.271,6.872,6.872,0,0,0,2.164-4.209,5.918,5.918,0,0,0-.151-2.322,4.871,4.871,0,0,0-.98-1.886,5.011,5.011,0,0,0-1.67-1.271,5.071,5.071,0,0,0-2.225-.476,5.861,5.861,0,0,0-2.341.476,7.024,7.024,0,0,0-1.983,1.271,6.879,6.879,0,0,0-2.165,4.208,5.918,5.918,0,0,0,.152,2.323,4.853,4.853,0,0,0,.98,1.886,5,5,0,0,0,1.671,1.271A5.073,5.073,0,0,0,509.937,173.923Z" transform="translate(-376.498 -158.638)" fill="url(#a)"/></g><g transform="translate(341.335 142.138)"><path d="M364.516,144.226v.867c0,3.286-1.676,4.952-5.286,4.952h-1.086v-.838h1.066c3.172,0,4.429-1.381,4.429-4.181v-.8h-5.686v-.857h5.686V142.15h.877v1.219h1.5v.857Z" transform="translate(-357.954 -142.14)" fill="url(#a)"/><path d="M393.954,143.177v-.847h7.962v.847Zm2.448,6.933h-1.848v-.847h1.809c3.02,0,4.619-.686,4.619-3.381v-.542h-7.009V144.5h7.943v1.324C401.916,149.073,399.964,150.111,396.4,150.111Z" transform="translate(-365.367 -142.178)" fill="url(#a)"/><path d="M432.486,150.061h-1.314v-.847h1.314c2.609,0,4.533-.734,4.533-3.61v-1.828H430.9v2.943h-.858v-3.781h3.467v-.8h.858v.8h3.523v2.7C437.886,148.928,435.772,150.061,432.486,150.061Z" transform="translate(-372.797 -142.138)" fill="url(#a)"/><path d="M466.315,147.492v-.905h7.418v.905Z" transform="translate(-380.267 -143.054)" fill="url(#a)"/><path d="M502,150.081v-.866a6.833,6.833,0,0,0,6.342-7.028h.915A7.6,7.6,0,0,1,502,150.081Z" transform="translate(-387.615 -142.148)" fill="url(#a)"/></g></g><g transform="translate(11868 -15293)"><g transform="translate(339.454 204)"><path d="M363.607,188a1.668,1.668,0,0,1-1.334-.512,1.718,1.718,0,0,1-.336-1.4l1.948-15.959a5.924,5.924,0,0,0-.973-4.245q-1.27-1.817-4.315-1.818a6.225,6.225,0,0,0-4.76,1.818,7.357,7.357,0,0,0-2.009,4.245l-1.948,15.959a2.159,2.159,0,0,1-.68,1.4,2.093,2.093,0,0,1-1.457.512h-1.9a1.668,1.668,0,0,1-1.334-.512,1.718,1.718,0,0,1-.336-1.4l1.948-15.959a12.628,12.628,0,0,1,1.394-4.4,13.178,13.178,0,0,1,6.813-6.16,12.976,12.976,0,0,1,4.936-.924,11.346,11.346,0,0,1,4.71.924,9.544,9.544,0,0,1,3.376,2.49,9.667,9.667,0,0,1,1.932,3.671,11.03,11.03,0,0,1,.32,4.4l-1.948,15.959a2.159,2.159,0,0,1-.68,1.4,2.093,2.093,0,0,1-1.457.512Z" transform="translate(-344.146 -158.638)" fill="url(#a)"/><path d="M385.895,187.865a1.563,1.563,0,0,1-1.326-.575,1.7,1.7,0,0,1-.352-1.278c.031-.254-.044-.414-.227-.479s-.373.011-.567.225a7.511,7.511,0,0,1-2.875,1.979,11.168,11.168,0,0,1-4.313.766,9.1,9.1,0,0,1-3.961-.831,7.666,7.666,0,0,1-2.885-2.361,9.765,9.765,0,0,1-1.646-3.671,13.45,13.45,0,0,1-.189-4.693l.694-5.68a13.742,13.742,0,0,1,1.465-4.724,13.48,13.48,0,0,1,2.978-3.862,14.271,14.271,0,0,1,4.155-2.585,13.076,13.076,0,0,1,5-.958H391.3a1.673,1.673,0,0,1,1.334.511,1.728,1.728,0,0,1,.336,1.4l-3.039,24.9a2.159,2.159,0,0,1-.68,1.4,2.093,2.093,0,0,1-1.457.512Zm.862-22.662c.052-.425-.135-.638-.557-.638h-4.76a7,7,0,0,0-5.159,1.979,7.828,7.828,0,0,0-2.321,4.724l-.772,6.32a5.061,5.061,0,0,0,.944,3.957,4.575,4.575,0,0,0,3.78,1.532,6.933,6.933,0,0,0,5.286-2.233,8.43,8.43,0,0,0,1.514-2.268,8.822,8.822,0,0,0,.729-2.585Z" transform="translate(-337.876 -158.503)" fill="url(#a)"/><path d="M392.6,172.531a1.678,1.678,0,0,1-1.333-.506,1.705,1.705,0,0,1-.338-1.4l.2-1.587a2.138,2.138,0,0,1,.679-1.4,2.108,2.108,0,0,1,1.458-.509h10.154a1.68,1.68,0,0,1,1.334.509,1.715,1.715,0,0,1,.336,1.4l-.2,1.587a2.14,2.14,0,0,1-.679,1.4,2.114,2.114,0,0,1-1.458.506Z" transform="translate(-331.557 -156.273)" fill="url(#a)"/><path d="M406.837,187.869a1.668,1.668,0,0,1-1.334-.512,1.718,1.718,0,0,1-.336-1.4l1.988-16.281a12.308,12.308,0,0,1,3.592-7.6,10.7,10.7,0,0,1,7.783-2.936h2.285a1.674,1.674,0,0,1,1.334.511,1.729,1.729,0,0,1,.336,1.4l-.194,1.6a2.165,2.165,0,0,1-.68,1.4,2.1,2.1,0,0,1-1.458.511h-1.9a4.821,4.821,0,0,0-3.768,1.5,6.939,6.939,0,0,0-1.653,3.927l-1.948,15.962a2.159,2.159,0,0,1-.68,1.4,2.093,2.093,0,0,1-1.457.512Z" transform="translate(-327.723 -158.503)" fill="url(#a)"/><path d="M437.144,187.865a1.559,1.559,0,0,1-1.325-.575,1.693,1.693,0,0,1-.353-1.278c.032-.254-.044-.414-.226-.479s-.373.011-.569.225a7.516,7.516,0,0,1-2.874,1.979,11.17,11.17,0,0,1-4.314.766,9.1,9.1,0,0,1-3.961-.831,7.676,7.676,0,0,1-2.885-2.361,9.766,9.766,0,0,1-1.646-3.671,13.451,13.451,0,0,1-.189-4.693l.694-5.68a13.716,13.716,0,0,1,1.466-4.724,13.455,13.455,0,0,1,2.976-3.862A14.262,14.262,0,0,1,428.1,160.1a13.065,13.065,0,0,1,5-.958h9.456a1.672,1.672,0,0,1,1.334.511,1.733,1.733,0,0,1,.338,1.4l-3.04,24.9a2.164,2.164,0,0,1-.679,1.4,2.1,2.1,0,0,1-1.458.512Zm.862-22.662q.078-.638-.556-.638h-4.76a7,7,0,0,0-5.161,1.979,7.835,7.835,0,0,0-2.321,4.724l-.77,6.32a5.051,5.051,0,0,0,.944,3.957,4.571,4.571,0,0,0,3.778,1.532,6.938,6.938,0,0,0,5.288-2.233,8.427,8.427,0,0,0,1.513-2.268,8.785,8.785,0,0,0,.729-2.585Z" transform="translate(-324.077 -158.503)" fill="url(#a)"/></g><g transform="translate(254 210.734)"><g transform="translate(0)" style="isolation:isolate"><g style="isolation:isolate"><path d="M122.361,453.612a13.812,13.812,0,0,0-2.327.122l.161-1.3H117.93a9.977,9.977,0,0,0,.347-1.821l.224-1.82a15.367,15.367,0,0,0,.128-1.845,26.444,26.444,0,0,0,2.694.1h6.4l.07-.567a7.6,7.6,0,0,0,.042-1.549h3.026a7.876,7.876,0,0,0-.313,1.549l-.069.567h6.74c1.255,0,1.9-.025,2.743-.1a14.685,14.685,0,0,0-.319,1.8l-.23,1.87a13.6,13.6,0,0,0-.125,1.821h-2.263l-.161,1.3a13.729,13.729,0,0,0-2.322-.122h-4.945c-.121.787-.121.787-.216,1.352h4.6a15.421,15.421,0,0,0,2.2-.1l-.287,2.337a15.751,15.751,0,0,0-2.177-.1h-4.748c-.149.615-.2.812-.36,1.329h7.676a17.146,17.146,0,0,0,2.549-.123l-.317,2.583a20.97,20.97,0,0,0-2.638-.148H129.6a6.971,6.971,0,0,0,2.034,2.066,13.7,13.7,0,0,0,4.125,1.673c.594.172,1.338.321,2.661.567a11.465,11.465,0,0,0-1.606,2.656,21.648,21.648,0,0,1-4.425-1.426,10.925,10.925,0,0,1-5.257-4.675,11.583,11.583,0,0,1-4.066,3.863,17.951,17.951,0,0,1-6.275,2.214,7.057,7.057,0,0,0-.989-2.559,16.528,16.528,0,0,0,5.523-1.5,8.669,8.669,0,0,0,3.478-2.879h-5.437a22.929,22.929,0,0,0-2.651.148l.317-2.583a15.588,15.588,0,0,0,2.469.123h6.446c.156-.467.239-.738.385-1.329h-4.158a16.5,16.5,0,0,0-2.226.1l.287-2.337a15.258,15.258,0,0,0,2.2.1h4.33c.108-.689.108-.689.19-1.352Zm4.891-2.166a11.727,11.727,0,0,0,.1-1.575H130.2a8.552,8.552,0,0,0-.292,1.575h4.9c.935,0,1.332-.024,1.953-.074l.248-2.017H120.99l-.248,2.017a16.721,16.721,0,0,0,1.885.074Z" transform="translate(-115.806 -444.631)" fill="#191a1a"/><path d="M158.717,451.233a8.82,8.82,0,0,1,1.19,1.132,11.9,11.9,0,0,0,.847-.886,8.223,8.223,0,0,0-1.35-1.033l1.353-1.6a10.239,10.239,0,0,1,1.281.984,15.7,15.7,0,0,0,.913-1.623h-2.313a22.752,22.752,0,0,1-4.206,4.4,7.61,7.61,0,0,0-.6-1.722l-1.415,2.706a6.756,6.756,0,0,1,1.28,3.2,6.472,6.472,0,0,1-.033,1.87c-.214,1.747-.923,2.9-2.037,3.37a4.621,4.621,0,0,1-1.753.247h-.369c.19-1.551.18-1.87-.134-2.51a8.116,8.116,0,0,0,.926.075c.639,0,.967-.467,1.088-1.452a6.642,6.642,0,0,0-.088-2.091,5.8,5.8,0,0,0-1.251-2.633,23.278,23.278,0,0,0,2.494-5.683h-1.993l-2.03,16.533c-.161,1.3-.241,2.361-.276,3.05H147.56a25.564,25.564,0,0,0,.522-3.05l2.039-16.607a20.6,20.6,0,0,0,.194-2.387,10.34,10.34,0,0,0,1.637.1h2.977a10.374,10.374,0,0,0,1.783-.1l1.058,1.4a3.873,3.873,0,0,0-.444.813c-.2.443-.634,1.352-1,2.164a15.33,15.33,0,0,0,3.468-4.4,2.775,2.775,0,0,0,.385-.936l2.534.394a4.1,4.1,0,0,0-.459.737c-.03.05-.03.05-.19.344h1.23a18.043,18.043,0,0,0,2.026-.074,9.627,9.627,0,0,0,1.687,4.7,12.808,12.808,0,0,0,2.042-2.411H167.1a9.6,9.6,0,0,0-1.067.074l.3-2.435a9.579,9.579,0,0,0,1.464.1h1.7a8.361,8.361,0,0,0,1.661-.1l.987,1.574a13.016,13.016,0,0,0-.978,1.354,24.334,24.334,0,0,1-2.88,3.419,10.785,10.785,0,0,0,3.579,2.509,10.645,10.645,0,0,0-1.621,2.583,14.769,14.769,0,0,1-2.874-2.239l-.175,1.427a10.149,10.149,0,0,0-1.492-.074h-4.576a11.6,11.6,0,0,0-1.387.074l.167-1.353a19.745,19.745,0,0,1-3.057,2.263,5.333,5.333,0,0,0-1.082-2.017,20.2,20.2,0,0,0,2.494-1.673,5.135,5.135,0,0,0-1.1-1.082Zm.818,10.579a18.729,18.729,0,0,1-4.927,5.265,6.189,6.189,0,0,0-1.536-1.919,11.6,11.6,0,0,0,4.52-4.355Zm-1.136-1.575a14.561,14.561,0,0,0-2.177.1l.314-2.559a15.416,15.416,0,0,0,2.272.123h9.2a13.06,13.06,0,0,0,2.352-.123l-.317,2.583a19.565,19.565,0,0,0-2.3-.123h-3.641l-.586,4.772c-.236,1.92-.881,2.362-3.39,2.362-.418,0-1.1-.024-2.008-.074a6.705,6.705,0,0,0-.292-2.632,14.9,14.9,0,0,0,2.523.3c.566,0,.7-.124.764-.615l.5-4.109Zm8.121-6.028a12.584,12.584,0,0,1-2.35-4.306,15.183,15.183,0,0,1-3.21,4.306h5.559Zm.811,6.618a8.967,8.967,0,0,0,3.106,3.961,12.169,12.169,0,0,0-1.721,2.19,12.794,12.794,0,0,1-3.646-5.167Z" transform="translate(-121.519 -444.566)" fill="#191a1a"/><path d="M180.949,466.636c.03-.443.023-.59.018-1.156a42.556,42.556,0,0,1,.264-7.355,50.061,50.061,0,0,1,2.19-9.619,17.572,17.572,0,0,0,.65-2.288l3.2.344a37.264,37.264,0,0,0-2.453,7.355,43.015,43.015,0,0,0-1.037,5.437c-.066.541-.115.738-.215,1.353a28.839,28.839,0,0,1,1.678-3.248l1.859.886A22.6,22.6,0,0,0,184,465.8c-.018.147-.042.344-.057.663Zm11.673-9.717c-1.406,1.427-2.052,2.485-2.182,3.543-.172,1.4,1.091,2.14,3.649,2.14a18.337,18.337,0,0,0,5.97-.934l-.138,3.124a8.845,8.845,0,0,0-1.027.148,31.335,31.335,0,0,1-5.15.467c-3.051,0-4.934-.689-5.838-2.14a3.791,3.791,0,0,1-.442-2.412,9.244,9.244,0,0,1,2.885-5.067Zm-3.06-8.144a17.14,17.14,0,0,0,4.5.394,28.17,28.17,0,0,0,6.773-.663l-.218,2.977c-.2.024-.575.074-1.774.221a44.982,44.982,0,0,1-5.3.3,28.6,28.6,0,0,1-4.395-.271Z" transform="translate(-127.521 -444.863)" fill="#191a1a"/></g></g><g transform="translate(215.519 0.665)" style="isolation:isolate"><g style="isolation:isolate"><path d="M365.6,456.207a13.789,13.789,0,0,0,2.617-.467,36.417,36.417,0,0,1,7.729-1.033c2.8,0,4.6.812,5.5,2.509a5.162,5.162,0,0,1,.52,3.174c-.4,3.272-3.04,5.928-7.1,7.159a25.721,25.721,0,0,1-5.453.936,7.029,7.029,0,0,0-.713-2.8h.368a22.6,22.6,0,0,0,3.539-.369,9.83,9.83,0,0,0,4.314-1.673,4.581,4.581,0,0,0,2.155-3.321c.236-1.919-1.064-2.952-3.672-2.952a29,29,0,0,0-6.588.959,17.173,17.173,0,0,0-2.956.837Z" transform="translate(-365.604 -447.055)" fill="#191a1a"/><path d="M391.071,449.1c.539.025.809.025.932.025.443,0,.443,0,4.09-.246,1.387-.073,5.5-.3,12.352-.615a14.5,14.5,0,0,0,2.859-.245l-.214,3.148a3.751,3.751,0,0,0-.513-.025,12.031,12.031,0,0,0-5.035,1.329c-3.323,1.624-5.471,4.084-5.776,6.569a3.566,3.566,0,0,0,2.779,4.01,14.045,14.045,0,0,0,3.587.64c.025,0,.247,0,.5-.025l-.854,3.346a4.972,4.972,0,0,0-.818-.148,13.421,13.421,0,0,1-5.558-1.623,5.746,5.746,0,0,1-2.79-5.929,9.915,9.915,0,0,1,3.051-5.806,12.872,12.872,0,0,1,3.722-2.46c-2.03.3-3,.369-8.385.764a37.181,37.181,0,0,0-4.145.491Z" transform="translate(-370.146 -445.852)" fill="#191a1a"/><path d="M422.636,446.79a14.419,14.419,0,0,0,2.47.122c1.476,0,3.678-.1,4.6-.221a2.06,2.06,0,0,0,1.021-.3l1.739,1.674a4.268,4.268,0,0,0-.644,1.033c-.16.3-2.216,4.822-2.531,5.585a18.192,18.192,0,0,1,5.247,1.55,28.035,28.035,0,0,0,.8-4.551,7.379,7.379,0,0,0,.062-1.3l3.085.123a8.446,8.446,0,0,0-.351,1.648,43,43,0,0,1-1.083,5.216c.74.394,1.753.96,2.46,1.4a7.548,7.548,0,0,0,1.06.59l-1.506,3.248a21.135,21.135,0,0,0-3.114-2.288,13.736,13.736,0,0,1-3.214,4.329,16.929,16.929,0,0,1-4.055,2.781,7.429,7.429,0,0,0-1.967-2.214,13.689,13.689,0,0,0,4.131-2.584,11.828,11.828,0,0,0,2.637-3.64,16.919,16.919,0,0,0-5.327-1.7,37.6,37.6,0,0,1-3.179,6.051c-1.1,1.575-2.3,2.338-3.657,2.338-2.264,0-3.691-1.994-3.362-4.675a7.207,7.207,0,0,1,3.712-5.388,9.566,9.566,0,0,1,4.794-1.181c.878-1.944,1.289-2.879,2.182-5.141-1.267.1-1.861.122-4.284.221a19.6,19.6,0,0,0-1.961.148Zm-.7,11.71a3.951,3.951,0,0,0-1.225,2.362c-.124,1.009.318,1.821.983,1.821.467,0,.891-.443,1.592-1.55a36.826,36.826,0,0,0,2.1-4.109A5.557,5.557,0,0,0,421.936,458.5Z" transform="translate(-375.015 -445.56)" fill="#191a1a"/><path d="M450.53,449.387a19.166,19.166,0,0,0,3.269.221c.3,0,.567,0,1.135-.025a31.794,31.794,0,0,0,.929-3.763,3.379,3.379,0,0,0,.03-.443l3.211.294a15.518,15.518,0,0,0-.757,2.362c-.207.689-.251.837-.418,1.4a21.8,21.8,0,0,0,4.3-.737L462,451.527c-.2.025-.2.025-.8.123a35.087,35.087,0,0,1-4.1.517c-.458,1.526-1.393,4.133-2.308,6.372-1.027,2.559-1.6,3.789-3.755,8.143l-2.952-1.2a59.541,59.541,0,0,0,6.029-13.236,2.13,2.13,0,0,1-.322.025h-1.427c-.124,0-.37,0-.785-.025-.44-.025-.784-.025-.981-.025a3.735,3.735,0,0,0-.47.025Zm11.03,9.545c-1.135,1.23-1.506,1.845-1.611,2.706-.154,1.254,1,1.894,3.457,1.894a19.927,19.927,0,0,0,5.7-.911l-.15,3.027c-.449.048-.649.074-1.227.172a29.5,29.5,0,0,1-4.624.393,9.285,9.285,0,0,1-4.825-.983A3.1,3.1,0,0,1,456.9,462.2c.16-1.3.763-2.411,2.343-4.256Zm7.7-3.223a25.077,25.077,0,0,0-3.079-.172,27.615,27.615,0,0,0-6.582.713l.111-2.706a32.772,32.772,0,0,1,7.428-.787c.664,0,.886,0,2.433.025Z" transform="translate(-380.443 -445.377)" fill="#191a1a"/><path d="M480.362,460.862c.088-.517.142-.763.179-1.058.033-.271.033-.271.144-1.771l.682-8.365c.084-1.082.162-2.312.148-3h4.035c-.155.665-.411,1.944-.59,3l-1.371,8.365c-.227,1.452-.227,1.452-.269,1.8a8.708,8.708,0,0,0-.079,1.033Zm-1.006,5.388.414-3.371h3.567l-.413,3.371Z" transform="translate(-386.069 -445.609)" fill="#191a1a"/></g></g></g></g></g></svg>