<svg xmlns="http://www.w3.org/2000/svg" width="315.915" height="168.821" viewBox="0 0 315.915 168.821">
  <g id="Group_153967" data-name="Group 153967" transform="translate(-823.331 -10868.671)">
    <path id="Path_232047" data-name="Path 232047" d="M199.329,13.354c19.144,2.6,38.637,5.812,56.464,12.1,19.26,6.8,38.555,17.059,45.663,33.35,3.4,7.8,3.616,20.681.695,29.808-7.664,23.947-38.558,37.292-67.269,43.09-33.872,6.837-62.16,6.885-95.507,5.31-17.5-.826-33.341-2.5-48.449-4.72-14.735-2.166-29.491-4.719-44.266-9.742C20.03,113.5-4.328,93.905.651,60.577,4.7,33.5,35.543,18.667,62.346,11,107.294-1.873,159.839-2.625,208.392,4.5c35.513,5.212,63.045,11.086,85.743,28.331,10.455,7.945,20.395,18.627,21.612,32.759.6,6.987-.222,12.967-5.577,15.643,9.676-13.875-1.677-28.693-12.2-37.186A107.608,107.608,0,0,0,272.177,29c-22.417-9.53-50.091-13.594-72.848-15.645M71.409,19.848C56,23.922,41.931,29.208,29.232,36.965,17.86,43.913,5.575,54.38,4.137,68.543,2.934,80.4,13.276,90.977,21.914,97.76c18.787,14.761,47.027,19.421,72.5,23.021,42.169,5.959,84.9,7.474,126.525.886,27.112-4.294,59.841-13.978,73.547-32.464,2.706-3.648,6.777-10.839,6.274-15.936-.3-3.093-2.533-7.767-4.533-10.625-5.177-7.417-15.28-14.127-26.142-19.185a183.1,183.1,0,0,0-34.855-12.1C210.2,25.487,183.51,22.8,154.713,22.5c-26.085-.264-56.32,2.613-80.515,9.443-21.266,6.005-49.212,17.807-57.86,34.235C10.4,77.465,19.469,87.563,25.4,95.4,17.82,89.395,11.856,82,12.851,69.429c1.475-18.611,20.23-30.118,35.9-37.777C85.307,13.786,129.268,10.4,176.673,11.288c-36.333-1.823-73.467.152-105.264,8.56M181.9,11.586c-1.175.185-3.24-.382-3.836.293,1.452.048,3.222.509,3.836-.293m.348.588c1.7-.074,2.36.5,3.483-.295-1.526.381-3.262-.755-3.483.295m16.381.886c-4.729.188-8.949-1.537-12.549-.59,3.665-.209,9.579,1.421,12.549.59" transform="translate(823.331 10868.67)" fill="#fff" fill-rule="evenodd" opacity="0.803"/>
    <text id="あなたの努力_そのものが作品" data-name="あなたの努力
そのものが作品" transform="translate(980.5 10936.508)" fill="#fff" font-size="28" font-family="YuGothic-Bold, Yu Gothic" font-weight="700"><tspan x="-84" y="0">あなたの努力</tspan><tspan x="-98" y="34">そのものが作品</tspan></text>
    <text id="なのです_" data-name="なのです！" transform="translate(980.5 11031.492)" fill="#fff" font-size="20" font-family="YuGothic-Bold, Yu Gothic" font-weight="700" letter-spacing="0.05em"><tspan x="-52" y="0">なのです！</tspan></text>
  </g>
</svg>
