<svg xmlns="http://www.w3.org/2000/svg" xmlns:xlink="http://www.w3.org/1999/xlink" width="301.571" height="267.3" viewBox="0 0 301.571 267.3">
  <defs>
    <filter id="Path_374" x="74.001" y="68.246" width="199.054" height="199.054" filterUnits="userSpaceOnUse">
      <feOffset input="SourceAlpha"/>
      <feGaussianBlur stdDeviation="4" result="blur"/>
      <feFlood flood-opacity="0.161"/>
      <feComposite operator="in" in2="blur"/>
      <feComposite in="SourceGraphic"/>
    </filter>
    <linearGradient id="linear-gradient" y1="0.5" x2="1.213" y2="0.5" gradientUnits="objectBoundingBox">
      <stop offset="0" stop-color="#f9c"/>
      <stop offset="1" stop-color="#fec"/>
    </linearGradient>
    <filter id="A" x="7.355" y="3.543" width="25" height="34" filterUnits="userSpaceOnUse">
      <feOffset dy="2" input="SourceAlpha"/>
      <feGaussianBlur stdDeviation="2.5" result="blur-2"/>
      <feFlood flood-opacity="0.102"/>
      <feComposite operator="in" in2="blur-2"/>
      <feComposite in="SourceGraphic"/>
    </filter>
  </defs>
  <g id="chart" transform="translate(-475.999 -1562.754)">
    <g id="legend" transform="translate(528.503 1624.754)">
      <text id="コスパ" transform="translate(27.27 78.932)" fill="#222" font-size="11" font-family="YuGothicUI-Regular, Yu Gothic UI"><tspan x="-24.89" y="0">コスパ</tspan></text>
      <text id="カリキュラム" transform="translate(57 191.199)" fill="#222" font-size="11" font-family="YuGothicUI-Regular, Yu Gothic UI"><tspan x="-47.287" y="0">カリキュラム</tspan></text>
      <text id="講師" transform="translate(186.054 191.199)" fill="#222" font-size="11" font-family="YuGothicUI-Regular, Yu Gothic UI"><tspan x="0" y="0">講師</tspan></text>
      <text id="サポート" transform="translate(216.067 78.932)" fill="#222" font-size="11" font-family="YuGothicUI-Regular, Yu Gothic UI"><tspan x="0" y="0">サポート</tspan></text>
      <text id="イベント" transform="translate(123.336 5)" fill="#222" font-size="11" font-family="YuGothicUI-Regular, Yu Gothic UI"><tspan x="-16.358" y="0">イベント</tspan></text>
    </g>
    <g id="chart-2" data-name="chart" transform="translate(562 1643)">
      <g id="Group_26" data-name="Group 26" transform="translate(0)">
        <g transform="matrix(1, 0, 0, 1, -86, -80.25)" filter="url(#Path_374)">
          <path id="Path_374-2" data-name="Path 374" d="M87.325-.006C135.8-.006,175.5,39.7,175.5,88.169s-39.7,86.879-88.175,86.879A86.256,86.256,0,0,1,.446,88.169C.446,39.7,38.851-.006,87.325-.006Z" transform="translate(85.55 80.25)" fill="#fff"/>
        </g>
      </g>
      <g id="Group_1089" data-name="Group 1089" transform="translate(3.538 0)">
        <g id="Group_1088" data-name="Group 1088" transform="translate(0)">
          <g id="Group_505" data-name="Group 505" transform="translate(81.772)">
            <line id="Line_6" data-name="Line 6" y1="87.527" transform="translate(1.945)" fill="none" stroke="#000" stroke-miterlimit="10" stroke-width="0.5"/>
            <g id="Group_29" data-name="Group 29" transform="translate(0 17.181)">
              <g id="Group_28" data-name="Group 28">
                <line id="Line_7" data-name="Line 7" x2="3.89" transform="translate(0 53.165)" fill="none" stroke="#000" stroke-miterlimit="10" stroke-width="0.5"/>
                <line id="Line_8" data-name="Line 8" x2="3.89" transform="translate(0 35.011)" fill="none" stroke="#000" stroke-miterlimit="10" stroke-width="0.5"/>
                <line id="Line_9" data-name="Line 9" x2="3.89" transform="translate(0 18.154)" fill="none" stroke="#000" stroke-miterlimit="10" stroke-width="0.5"/>
                <line id="Line_10" data-name="Line 10" x2="3.89" fill="none" stroke="#000" stroke-miterlimit="10" stroke-width="0.5"/>
              </g>
            </g>
          </g>
          <g id="Group_506" data-name="Group 506" transform="translate(166.233 58.351) rotate(72)">
            <line id="Line_6-2" data-name="Line 6" y1="87.527" transform="translate(1.945 0)" fill="none" stroke="#000" stroke-miterlimit="10" stroke-width="0.5"/>
            <g id="Group_29-2" data-name="Group 29" transform="translate(0 17.181)">
              <g id="Group_28-2" data-name="Group 28" transform="translate(0 0)">
                <line id="Line_7-2" data-name="Line 7" x2="3.89" transform="translate(0 53.165)" fill="none" stroke="#000" stroke-miterlimit="10" stroke-width="0.5"/>
                <line id="Line_8-2" data-name="Line 8" x2="3.89" transform="translate(0 35.011)" fill="none" stroke="#000" stroke-miterlimit="10" stroke-width="0.5"/>
                <line id="Line_9-2" data-name="Line 9" x2="3.89" transform="translate(0 18.154)" fill="none" stroke="#000" stroke-miterlimit="10" stroke-width="0.5"/>
                <line id="Line_10-2" data-name="Line 10" x2="3.89" transform="translate(0 0)" fill="none" stroke="#000" stroke-miterlimit="10" stroke-width="0.5"/>
              </g>
            </g>
          </g>
          <g id="Group_507" data-name="Group 507" transform="matrix(-0.309, 0.951, -0.951, -0.309, 84.446, 85.399)">
            <line id="Line_6-3" data-name="Line 6" y2="87.528" transform="translate(1.945 0)" fill="none" stroke="#000" stroke-miterlimit="10" stroke-width="0.5"/>
            <g id="Group_29-3" data-name="Group 29" transform="translate(0 17.181)">
              <g id="Group_28-3" data-name="Group 28" transform="translate(0 0)">
                <line id="Line_7-3" data-name="Line 7" x2="3.89" fill="none" stroke="#000" stroke-miterlimit="10" stroke-width="0.5"/>
                <line id="Line_8-3" data-name="Line 8" x2="3.89" transform="translate(0 18.154)" fill="none" stroke="#000" stroke-miterlimit="10" stroke-width="0.5"/>
                <line id="Line_9-3" data-name="Line 9" x2="3.89" transform="translate(0 35.011)" fill="none" stroke="#000" stroke-miterlimit="10" stroke-width="0.5"/>
                <line id="Line_10-3" data-name="Line 10" x2="3.89" transform="translate(0 53.165)" fill="none" stroke="#000" stroke-miterlimit="10" stroke-width="0.5"/>
              </g>
            </g>
          </g>
          <g id="Group_508" data-name="Group 508" transform="matrix(-0.819, 0.574, -0.574, -0.819, 136.347, 157.733)">
            <line id="Line_6-4" data-name="Line 6" y1="87.527" transform="translate(1.945 0)" fill="none" stroke="#000" stroke-miterlimit="10" stroke-width="0.5"/>
            <g id="Group_29-4" data-name="Group 29" transform="translate(0 17.181)">
              <g id="Group_28-4" data-name="Group 28" transform="translate(0 0)">
                <line id="Line_7-4" data-name="Line 7" x2="3.89" transform="translate(0 53.165)" fill="none" stroke="#000" stroke-miterlimit="10" stroke-width="0.5"/>
                <line id="Line_8-4" data-name="Line 8" x2="3.89" transform="translate(0 35.011)" fill="none" stroke="#000" stroke-miterlimit="10" stroke-width="0.5"/>
                <line id="Line_9-4" data-name="Line 9" x2="3.89" transform="translate(0 18.154)" fill="none" stroke="#000" stroke-miterlimit="10" stroke-width="0.5"/>
                <line id="Line_10-4" data-name="Line 10" x2="3.89" transform="translate(0 0)" fill="none" stroke="#000" stroke-miterlimit="10" stroke-width="0.5"/>
              </g>
            </g>
          </g>
          <g id="Group_509" data-name="Group 509" transform="matrix(0.819, 0.574, -0.574, 0.819, 82.587, 86.035)">
            <line id="Line_6-5" data-name="Line 6" y2="87.527" transform="translate(1.945 0)" fill="none" stroke="#000" stroke-miterlimit="10" stroke-width="0.5"/>
            <g id="Group_29-5" data-name="Group 29" transform="translate(0 17.181)">
              <g id="Group_28-5" data-name="Group 28" transform="translate(0 0)">
                <line id="Line_7-5" data-name="Line 7" x2="3.89" fill="none" stroke="#000" stroke-miterlimit="10" stroke-width="0.5"/>
                <line id="Line_8-5" data-name="Line 8" x2="3.89" transform="translate(0 18.154)" fill="none" stroke="#000" stroke-miterlimit="10" stroke-width="0.5"/>
                <line id="Line_9-5" data-name="Line 9" x2="3.89" transform="translate(0 35.011)" fill="none" stroke="#000" stroke-miterlimit="10" stroke-width="0.5"/>
                <line id="Line_10-5" data-name="Line 10" x2="3.89" transform="translate(0 53.165)" fill="none" stroke="#000" stroke-miterlimit="10" stroke-width="0.5"/>
              </g>
            </g>
          </g>
        </g>
        <g id="Group_510" data-name="Group 510" transform="translate(81.124 84.934)">
          <rect id="Rectangle_46" data-name="Rectangle 46" width="5.187" height="5.187" transform="translate(0)" fill="#dfdfdf" stroke="#000" stroke-miterlimit="10" stroke-width="0.5"/>
          <rect id="Rectangle_47" data-name="Rectangle 47" width="5.187" height="5.187" transform="translate(0)" fill="#dfdfdf" stroke="#000" stroke-miterlimit="10" stroke-width="0.5"/>
          <rect id="Rectangle_48" data-name="Rectangle 48" width="5.187" height="5.187" transform="translate(0)" fill="#dfdfdf" stroke="#000" stroke-miterlimit="10" stroke-width="0.5"/>
          <rect id="Rectangle_49" data-name="Rectangle 49" width="5.187" height="5.187" transform="translate(0)" fill="#dfdfdf" stroke="#000" stroke-miterlimit="10" stroke-width="0.5"/>
          <rect id="Rectangle_50" data-name="Rectangle 50" width="5.187" height="5.187" transform="translate(0)" fill="#dfdfdf" stroke="#000" stroke-miterlimit="10" stroke-width="0.5"/>
        </g>
      </g>
      <g id="Group_1087" data-name="Group 1087" transform="translate(17.688 17.688)" opacity="0.596">
        <path id="Path_374-3" data-name="Path 374" d="M69.748-.006A70.566,70.566,0,0,1,140.084,70.33c0,38.667-31.669,69.3-70.336,69.3a68.805,68.805,0,0,1-69.3-69.3C.446,31.663,31.081-.006,69.748-.006Z" transform="translate(-0.446 0.006)" fill="#f9c" opacity="0.2"/>
        <g id="Group_1076" data-name="Group 1076" transform="translate(17.688 17.688)" opacity="0.4">
          <path id="Path_374-4" data-name="Path 374" d="M52.689-.006a53.2,53.2,0,0,1,53.022,53.022c0,29.149-23.874,52.243-53.022,52.243A51.868,51.868,0,0,1,.446,53.016C.446,23.867,23.54-.006,52.689-.006Z" transform="translate(-0.446 0.006)" fill="#f9c"/>
        </g>
        <g id="Group_1082" data-name="Group 1082" transform="translate(33.608 33.608)" opacity="0.6">
          <path id="Path_374-5" data-name="Path 374" d="M35.656-.006A35.852,35.852,0,0,1,71.392,35.729c0,19.645-16.09,35.21-35.735,35.21A34.958,34.958,0,0,1,.446,35.729C.446,16.084,16.011-.006,35.656-.006Z" transform="translate(-0.446 0.006)" fill="#f9c"/>
        </g>
        <g id="Group_1077" data-name="Group 1077" transform="translate(53.065 53.065)">
          <path id="Path_374-6" data-name="Path 374" d="M17.544-.006A17.41,17.41,0,0,1,34.9,17.347a17.193,17.193,0,0,1-17.353,17.1,16.975,16.975,0,0,1-17.1-17.1A17.193,17.193,0,0,1,17.544-.006Z" transform="translate(-0.446 0.006)" fill="#fc69b2"/>
        </g>
      </g>
      <path id="Path_415" data-name="Path 415" d="M1005.293,16.391l67.062-30.952,83,25.517-41.908,84.2-81.823,1.983Z" transform="translate(-984.899 49.446)" fill="none" stroke="#000" stroke-width="0.5"/>
      <g id="Group_1090" data-name="Group 1090" transform="translate(18.554 32.655)">
        <rect id="Rectangle_51" data-name="Rectangle 51" width="5.187" height="5.187" transform="translate(65.195)" stroke="#000" stroke-miterlimit="10" stroke-width="0.5"/>
        <rect id="Rectangle_55" data-name="Rectangle 55" width="5.187" height="5.187" transform="translate(0 30.17)"/>
        <rect id="Rectangle_53" data-name="Rectangle 53" width="5.187" height="5.187" transform="translate(107.4 108.626)"/>
        <rect id="Rectangle_54" data-name="Rectangle 54" width="5.187" height="5.187" transform="translate(26.766 110.685)" stroke="#000" stroke-miterlimit="10" stroke-width="0.5"/>
        <rect id="Rectangle_52" data-name="Rectangle 52" width="5.187" height="5.187" transform="translate(149.015 24.983)"/>
      </g>
    </g>
    <g id="title" transform="translate(-0.504 -6.203)">
      <g id="Group_435" data-name="Group 435" transform="translate(472.483 1569.557)">
        <g id="Group_433" data-name="Group 433">
          <g id="Group_431" data-name="Group 431" transform="translate(50.945 16.076)">
            <text id="通ってみた評価" transform="translate(60.93 18.367)" fill="#222" font-size="21" font-family="YuGothic-Bold, Yu Gothic" font-weight="700" letter-spacing="0.1em"><tspan x="-61.625" y="0">通って</tspan><tspan y="0" font-size="13" letter-spacing="0.05em">みた評価</tspan></text>
            <g id="Component_5" data-name="Component 5" transform="translate(138.521 6.828)">
              <text id="_全293件_" data-name="(全293件)" transform="translate(34.409 10.539)" fill="#222" font-size="13" font-family="SegoeUI, Segoe UI" letter-spacing="0.1em"><tspan x="-31.335" y="0">(</tspan><tspan y="0" font-family="YuGothicUI-Regular, Yu Gothic UI">全</tspan><tspan y="0">293</tspan><tspan y="0" font-family="YuGothicUI-Regular, Yu Gothic UI">件</tspan><tspan y="0">)</tspan></text>
            </g>
          </g>
          <g id="star" transform="translate(4.02 -0.599)">
            <path id="star-2" data-name="star" d="M19.895.374,13.678,11.752,0,14.28,9.947,24.394,7.46,37.036l12.434-6.321,11.191,6.321L28.6,24.394,38.546,14.28,24.868,11.752Z" transform="translate(0 -0.374)" fill="url(#linear-gradient)"/>
            <g transform="matrix(1, 0, 0, 1, 0, 0)" filter="url(#A)">
              <text id="A-2" data-name="A" transform="translate(19.85 24.04)" fill="#fff" font-size="14" font-family="SegoeUI-Bold, Segoe UI" font-weight="700"><tspan x="-4.922" y="0">A</tspan></text>
            </g>
            <text id="_4.0" data-name="4.0" transform="translate(18.855 52.043)" fill="#f9c" font-size="14" font-family="SegoeUI-BoldItalic, Segoe UI" font-weight="700" font-style="italic"><tspan x="-9.963" y="0">4.0</tspan></text>
          </g>
        </g>
      </g>
    </g>
  </g>
</svg>
