<svg xmlns="http://www.w3.org/2000/svg" width="32" height="32" viewBox="0 0 32 32">
  <path id="Path_186" data-name="Path 186" d="M38.574,31.569a3.1,3.1,0,0,1,.053,5.466l-7.146,4.3a2.946,2.946,0,0,1-4.65-2.655V30.1c0-2.569,2.238-4.24,4.534-2.857ZM23.176,46a1.059,1.059,0,1,1,2.117,0v2.09h3.752V46a1.061,1.061,0,1,1,2.121,0v2.09h3.748V46a1.061,1.061,0,1,1,2.121,0v2.09h3.752V46A1.059,1.059,0,1,1,42.9,46v2.09h1.777a2.3,2.3,0,0,0,2.243-2.327V22.838a2.3,2.3,0,0,0-2.243-2.332H42.9V22.6a1.059,1.059,0,1,1-2.117,0v-2.09H37.035V22.6a1.061,1.061,0,1,1-2.121,0v-2.09H31.166V22.6a1.061,1.061,0,1,1-2.121,0v-2.09H25.292V22.6a1.059,1.059,0,1,1-2.117,0v-2.09H21.4a2.293,2.293,0,0,0-2.243,2.332v22.93A2.3,2.3,0,0,0,21.4,48.094h1.777ZM21.4,18.3H44.681a4.468,4.468,0,0,1,4.359,4.538v22.93A4.461,4.461,0,0,1,44.681,50.3H21.4a4.461,4.461,0,0,1-4.359-4.532V22.838A4.465,4.465,0,0,1,21.4,18.3ZM37.5,33.457l-7.189-4.321c-.835-.5-1.364.015-1.364.959v8.58c0,1,.694,1.216,1.476.752l7.146-4.29C38.39,34.658,38.249,33.927,37.5,33.457Z" transform="translate(-17.04 -18.3)" fill="#fff"/>
</svg>
