<svg xmlns="http://www.w3.org/2000/svg" xmlns:xlink="http://www.w3.org/1999/xlink" width="143" height="188" viewBox="0 0 143 188">
  <defs>
    <clipPath id="clip-path">
      <rect id="Rectangle_106795" data-name="Rectangle 106795" width="143" height="188" transform="translate(147.838 236.787)" fill="#fff" stroke="#707070" stroke-width="1"/>
    </clipPath>
  </defs>
  <g id="Mask_Group_3006" data-name="Mask Group 3006" transform="translate(-147.838 -236.787)" clip-path="url(#clip-path)">
    <g id="ベクトルスマートオブジェクト" transform="translate(190.041 240.46) rotate(11)">
      <g id="バッグ本体" transform="translate(0 0)">
        <g id="Group_13" data-name="Group 13" transform="translate(0 0)">
          <rect id="Rectangle_1" data-name="Rectangle 1" width="7.918" height="53.84" transform="translate(71.258 7.918)" fill="#1a1311" stroke="#5f5e5e" stroke-width="0.043"/>
          <rect id="Rectangle_2" data-name="Rectangle 2" width="7.918" height="53.84" transform="translate(28.503 7.918)" fill="#1a1311" stroke="#5f5e5e" stroke-width="0.043"/>
          <path id="Path_21" data-name="Path 21" d="M0,7.918,7.918,0H42.755l7.918,7.918Z" transform="translate(28.503 0)" fill="#1a1311" stroke="#5f5e5e" stroke-width="0.043"/>
          <path id="Path_22" data-name="Path 22" d="M107.679,85.51,91.844,101.345H15.835L0,85.51V0H107.679Z" transform="translate(0 61.757)" fill="#1a1311" stroke="#5f5e5e" stroke-width="0.043"/>
        </g>
        <line id="Line_1" data-name="Line 1" y2="53.84" transform="translate(35.788 7.918)" fill="#fffad8" stroke="#1a1311" stroke-width="0.075"/>
        <line id="Line_2" data-name="Line 2" y2="53.84" transform="translate(29.137 7.918)" fill="#fffad8" stroke="#1a1311" stroke-width="0.075"/>
        <line id="Line_3" data-name="Line 3" y2="53.84" transform="translate(78.543 7.918)" fill="#fffad8" stroke="#1a1311" stroke-width="0.075"/>
        <line id="Line_4" data-name="Line 4" y2="53.84" transform="translate(71.892 7.918)" fill="#fffad8" stroke="#1a1311" stroke-width="0.075"/>
        <line id="Line_5" data-name="Line 5" x2="107.679" transform="translate(0 62.391)" fill="#fffad8" stroke="#1a1311" stroke-width="0.075"/>
        <line id="Line_6" data-name="Line 6" x2="107.679" transform="translate(0 68.725)" fill="#fffad8" stroke="#1a1311" stroke-width="0.075"/>
        <rect id="Rectangle_3" data-name="Rectangle 3" width="6.334" height="6.334" transform="translate(29.295 62.391)" fill="#fffad8" stroke="#1a1311" stroke-width="0.075"/>
        <line id="Line_7" data-name="Line 7" x2="6.334" y2="6.334" transform="translate(29.295 62.391)" fill="#fffad8" stroke="#1a1311" stroke-width="0.075"/>
        <line id="Line_8" data-name="Line 8" x1="6.334" y2="6.334" transform="translate(29.295 62.391)" fill="#fffad8" stroke="#1a1311" stroke-width="0.075"/>
        <rect id="Rectangle_4" data-name="Rectangle 4" width="6.334" height="6.334" transform="translate(72.209 62.279)" fill="#fffad8" stroke="#1a1311" stroke-width="0.075"/>
        <line id="Line_9" data-name="Line 9" x2="6.334" y2="6.334" transform="translate(72.209 62.279)" fill="#fffad8" stroke="#1a1311" stroke-width="0.075"/>
        <line id="Line_10" data-name="Line 10" x1="6.334" y2="6.334" transform="translate(72.209 62.279)" fill="#fffad8" stroke="#1a1311" stroke-width="0.075"/>
      </g>
      <g id="入稿デザイン" transform="translate(33.916 87.568)">
        <path id="Path_23" data-name="Path 23" d="M36.132,18.247c-8.449-.681-12.376-5.553-14.182-9.521A22.5,22.5,0,0,1,20.029.237V.158A.158.158,0,0,0,19.871,0h0a.158.158,0,0,0-.158.156s0,.029,0,.076V40.874c-1.114-3.282-5.04-5.713-9.7-5.713C4.492,35.162,0,38.578,0,42.778S4.492,50.4,10.014,50.4s10.014-3.417,10.014-7.617V3.445a22.227,22.227,0,0,0,1.629,5.4,16.312,16.312,0,0,0,4.859,6.27,17.72,17.72,0,0,0,9.59,3.445.158.158,0,1,0,.025-.316ZM10.014,50.078c-5.347,0-9.7-3.275-9.7-7.3s4.35-7.3,9.7-7.3,9.7,3.275,9.7,7.3S15.362,50.078,10.014,50.078Z" fill="#fff"/>
        <g id="Group_14" data-name="Group 14" transform="translate(26.441 23.151)">
          <path id="Path_24" data-name="Path 24" d="M.122,1.384v5.17a.379.379,0,0,0,.043.189c.063.106.212.157.456.157H.9c.116,0,.216,0,.3-.009a.856.856,0,0,0,.279-.078A.456.456,0,0,0,1.707,6.6a.054.054,0,0,0,.006-.024v-.03c0-.192-.189-.29-.563-.29-.016,0-.08,0-.44.023V3.613a.2.2,0,0,1,.125-.032l.222.009h0a.259.259,0,0,0,.213-.1.349.349,0,0,0,.077-.221.288.288,0,0,0-.1-.219.319.319,0,0,0-.219-.088,1.255,1.255,0,0,0-.3.049l-.061.015c0-.1.009-.241.021-.426.015-.221.022-.4.022-.525L.647.658H.683L.941.666c.379,0,.459-.174.459-.32A.293.293,0,0,0,1.236.088.553.553,0,0,0,.93,0L.27.079A.056.056,0,0,0,.239.093,1.775,1.775,0,0,0,.008.417.055.055,0,0,0,0,.446v.03A2.551,2.551,0,0,0,.062.944,2.409,2.409,0,0,1,.122,1.384Z" transform="translate(0.146 0)" fill="#fff"/>
          <path id="Path_25" data-name="Path 25" d="M1.691.048c-.1,0-.145.058-.145.172l.008.147c0,1.07-.036,1.995-.106,2.749-.032-.092-.094-.3-.179-.6-.121-.423-.219-.763-.31-1.071A8.243,8.243,0,0,0,.61.47C.479.168.371.021.281.021A.077.077,0,0,0,.249.029V.008A.008.008,0,0,0,.245,0,.007.007,0,0,0,.236,0a.489.489,0,0,0-.2.411L0,1.436H0L.011,3.318c0,.228.063.343.188.343a.168.168,0,0,0,.122-.053A.157.157,0,0,0,.372,3.5a.223.223,0,0,0-.036-.114l-.02-.035V.628C.435.909.622,1.4.871,2.093a6.85,6.85,0,0,1,.394,1.291l0,.024a.009.009,0,0,0,0,0,.536.536,0,0,1,.031.105.318.318,0,0,0,.051.123.114.114,0,0,0,.095.042.864.864,0,0,0,.21-.046l0,0A4.424,4.424,0,0,0,1.8,2.411c.035-.72.054-1.3.057-1.725V.271a.294.294,0,0,0-.04-.154A.137.137,0,0,0,1.691.048Z" transform="translate(3.487 2.001)" fill="#fff"/>
          <path id="Path_26" data-name="Path 26" d="M.9.034C.651.011.476,0,.385,0a.43.43,0,0,0-.2.037C.137.064.115.091.115.119A.1.1,0,0,0,.133.182.34.34,0,0,0,.242.239.843.843,0,0,0,.536.276L.6,3.1a.929.929,0,0,1-.156.619.991.991,0,0,1-.353.175c-.056.019-.083.041-.083.066L0,4.047a.066.066,0,0,0,.072.075.878.878,0,0,0,.463-.106A.909.909,0,0,0,.681,3.9a.511.511,0,0,0,.105-.144c.026-.055.054-.123.083-.2a1.285,1.285,0,0,0,.044-.4V2.573L.858.268h.273A.177.177,0,0,0,1.242.231a.119.119,0,0,0,.047-.1C1.289.1,1.245.064.9.034Z" transform="translate(6.753 2.063)" fill="#fff"/>
          <path id="Path_27" data-name="Path 27" d="M.008,1.814,0,2.023H0a6.974,6.974,0,0,0,.056.813,2.013,2.013,0,0,0,.188.635.513.513,0,0,0,.471.34c.491,0,.74-.534.74-1.587L1.447,1.6v-.04a2.613,2.613,0,0,0-.14-.914A.892.892,0,0,0,.421,0,.238.238,0,0,0,.262.075.935.935,0,0,0,.1.459,5.3,5.3,0,0,0,0,1.689v.1A.008.008,0,0,0,.006,1.8.054.054,0,0,1,.008,1.814ZM.338.949A1.608,1.608,0,0,1,.388.514.241.241,0,0,1,.63.308.386.386,0,0,1,.945.462a.57.57,0,0,1,.13.353v.1c0,.139.012.347.037.636s.036.493.036.632-.009.309-.027.5a3.139,3.139,0,0,1-.046.315A2.443,2.443,0,0,1,1,3.277a.556.556,0,0,1-.126.213A.238.238,0,0,1,.7,3.568a.8.8,0,0,1-.254-.4A6.639,6.639,0,0,1,.316,1.78l.027-.507h0Z" transform="translate(9.411 1.958)" fill="#fff"/>
          <path id="Path_28" data-name="Path 28" d="M.887,3.367V1.713A3.264,3.264,0,0,1,1.049.921a3.047,3.047,0,0,0,.157-.8A.108.108,0,0,0,1.161.034.154.154,0,0,0,1.064,0C.939,0,.824.293.713.9c-.037.2-.062.323-.078.382C.616,1.207.566,1.022.541.933.383.359.249.079.131.078h0l0,0L0,.17A.008.008,0,0,0,0,.177v.03a5.182,5.182,0,0,0,.365,1.1c.105.268.162.411.171.433v.141c0,.075.015.2.035.386A4.122,4.122,0,0,1,.6,2.683,3.564,3.564,0,0,1,.54,3.61a.007.007,0,0,0,0,.007.176.176,0,0,0,.16.125C.824,3.742.887,3.615.887,3.367Z" transform="translate(12.161 2.001)" fill="#fff"/>
          <path id="Path_29" data-name="Path 29" d="M.582,2.62a3.311,3.311,0,0,1,.1.743,5.35,5.35,0,0,0,.086.83,5.113,5.113,0,0,1,.084.761L.812,6.674h0A.257.257,0,0,0,.9,6.87a.3.3,0,0,0,.209.077.362.362,0,0,0,.228-.084.287.287,0,0,0,.109-.232v-.2l-.03-.44L1.366,3.63V3.5l.026-.313A7.846,7.846,0,0,1,1.6,1.7a7.86,7.86,0,0,0,.214-1.5c0-.151-.219-.151-.291-.151-.194,0-.323.242-.409.763-.034.2-.063.412-.087.629s-.039.406-.054.6l0,.042L.961,2.019c-.037-.2-.079-.4-.124-.616S.742.976.691.767A3.089,3.089,0,0,0,.516.236C.441.075.37,0,.29,0A.362.362,0,0,0,.1.053.184.184,0,0,0,0,.211,4.853,4.853,0,0,0,.347,1.825,7.315,7.315,0,0,1,.582,2.62Z" transform="translate(0 9.347)" fill="#fff"/>
          <path id="Path_30" data-name="Path 30" d="M.718,3.812c.491,0,.74-.534.74-1.587L1.447,1.6v-.04a2.612,2.612,0,0,0-.14-.914A.892.892,0,0,0,.421,0,.238.238,0,0,0,.263.075.932.932,0,0,0,.1.459,5.3,5.3,0,0,0,0,1.689v.1A.008.008,0,0,0,.006,1.8a.054.054,0,0,1,0,.019L0,2.023H0a6.994,6.994,0,0,0,.056.813,2.018,2.018,0,0,0,.188.635A.513.513,0,0,0,.718,3.812ZM.343,1.274h0L.338.949A1.609,1.609,0,0,1,.388.514.241.241,0,0,1,.63.308.387.387,0,0,1,.945.462a.571.571,0,0,1,.13.353v.1c0,.139.012.347.036.636s.036.493.036.632-.009.308-.027.5a3.051,3.051,0,0,1-.045.315A2.442,2.442,0,0,1,1,3.277a.558.558,0,0,1-.126.213A.238.238,0,0,1,.7,3.568a.8.8,0,0,1-.254-.4A6.628,6.628,0,0,1,.316,1.78Z" transform="translate(3.312 11.301)" fill="#fff"/>
          <path id="Path_31" data-name="Path 31" d="M.657,3.822H.662c.239,0,.42-.207.538-.615a7.062,7.062,0,0,0,.177-1.83l-.005-.093L1.4.826,1.434.273A.647.647,0,0,0,1.409.094.132.132,0,0,0,1.355.025.215.215,0,0,0,1.24,0a.143.143,0,0,0-.109.035.148.148,0,0,0-.031.1l0,.091V.536C1.1,2.489.973,3.479.718,3.479c-.229,0-.34-.129-.34-.394,0-.13-.013-.326-.039-.582S.3,2.053.3,1.922V.429A.469.469,0,0,0,.248.212C.213.142.172.107.125.107S.037.146,0,.227a.008.008,0,0,0,0,0l.024.785c0,.587,0,1.016.007,1.312a7.242,7.242,0,0,0,.052.807A1.222,1.222,0,0,0,.25,3.6.441.441,0,0,0,.657,3.822Z" transform="translate(6.323 11.272)" fill="#fff"/>
          <path id="Path_32" data-name="Path 32" d="M1.364,3.228Q1.2,2.9,1.055,2.615a3.265,3.265,0,0,1-.235-.628,2.8,2.8,0,0,1-.094-.718.882.882,0,0,1,.208-.6A.383.383,0,0,1,1.167.538a.685.685,0,0,0,.36.085A.055.055,0,0,0,1.571.6L1.723.411A.055.055,0,0,0,1.73.355.54.54,0,0,0,1.495.1.666.666,0,0,0,1.154,0,.861.861,0,0,0,.566.222,1.434,1.434,0,0,0,.109,1.353,3.672,3.672,0,0,0,.562,3q.192.373.378.747a5.1,5.1,0,0,1,.314.791,2.687,2.687,0,0,1,.128.781,2.507,2.507,0,0,1-.158.814,1.013,1.013,0,0,1-.206.359A.331.331,0,0,1,.8,6.629a.714.714,0,0,1-.261-.063.768.768,0,0,0-.284-.072c-.1,0-.255.038-.255.294,0,.1.07.178.215.253a1.165,1.165,0,0,0,.531.1,1.007,1.007,0,0,0,.573-.172,1.224,1.224,0,0,0,.4-.434,2.257,2.257,0,0,0,.3-1.13,3.562,3.562,0,0,0-.34-1.544C1.583,3.663,1.48,3.455,1.364,3.228Z" transform="translate(0.035 18.425)" fill="#fff"/>
          <path id="Path_33" data-name="Path 33" d="M1.447,1.563a2.614,2.614,0,0,0-.14-.914A.892.892,0,0,0,.421,0,.238.238,0,0,0,.263.075.933.933,0,0,0,.1.459,5.3,5.3,0,0,0,0,1.689v.1A.008.008,0,0,0,.006,1.8a.052.052,0,0,1,0,.019L0,2.024H0a6.97,6.97,0,0,0,.056.813,2.017,2.017,0,0,0,.188.635.513.513,0,0,0,.471.34c.491,0,.74-.534.74-1.587L1.447,1.6Zm-1.1-.289h0L.338.949A1.612,1.612,0,0,1,.388.514.242.242,0,0,1,.63.308.387.387,0,0,1,.945.462a.571.571,0,0,1,.129.353v.1c0,.139.012.347.037.636s.036.493.036.632-.009.308-.027.5a3.079,3.079,0,0,1-.045.316A2.45,2.45,0,0,1,1,3.277a.559.559,0,0,1-.126.213A.239.239,0,0,1,.7,3.568a.8.8,0,0,1-.254-.4A6.624,6.624,0,0,1,.316,1.78Z" transform="translate(3.589 20.485)" fill="#fff"/>
          <path id="Path_34" data-name="Path 34" d="M1.355.025A.214.214,0,0,0,1.24,0a.143.143,0,0,0-.109.035.148.148,0,0,0-.032.1l0,.091V.536C1.1,2.489.973,3.479.718,3.479c-.229,0-.341-.129-.341-.394,0-.13-.013-.326-.039-.582S.3,2.053.3,1.922V.429A.469.469,0,0,0,.248.212C.213.142.171.107.125.107S.037.146,0,.227a.007.007,0,0,0,0,0l.024.785c0,.587,0,1.016.007,1.312a7.257,7.257,0,0,0,.052.807A1.218,1.218,0,0,0,.251,3.6a.44.44,0,0,0,.406.226H.662c.239,0,.42-.207.538-.615a7.071,7.071,0,0,0,.177-1.83l-.005-.093L1.4.826,1.434.273a.64.64,0,0,0-.025-.18A.13.13,0,0,0,1.355.025Z" transform="translate(6.6 20.456)" fill="#fff"/>
          <path id="Path_35" data-name="Path 35" d="M1.691.048c-.1,0-.145.058-.145.172l.008.147c0,1.07-.036,1.995-.106,2.749-.032-.092-.094-.3-.179-.6-.124-.434-.22-.764-.31-1.071A8.29,8.29,0,0,0,.61.47C.479.168.371.022.281.022A.076.076,0,0,0,.249.029V.008A.008.008,0,0,0,.245,0,.007.007,0,0,0,.236,0a.489.489,0,0,0-.2.411L0,1.436H0L.011,3.318c0,.228.063.343.187.343a.167.167,0,0,0,.123-.053A.156.156,0,0,0,.372,3.5a.223.223,0,0,0-.036-.114l-.02-.035V.628c.119.28.305.773.555,1.465a6.846,6.846,0,0,1,.394,1.291l0,.024a.007.007,0,0,0,0,0,.554.554,0,0,1,.031.105.318.318,0,0,0,.051.123.114.114,0,0,0,.095.042.861.861,0,0,0,.21-.046l0,0A4.415,4.415,0,0,0,1.8,2.411c.035-.72.054-1.3.058-1.725V.271a.3.3,0,0,0-.04-.154A.136.136,0,0,0,1.691.048Z" transform="translate(9.6 20.528)" fill="#fff"/>
          <path id="Path_36" data-name="Path 36" d="M1.127.666A1.058,1.058,0,0,0,.2,0,.2.2,0,0,0,.064.057.2.2,0,0,0,0,.217C0,.283.011.439.032.68s.032.422.032.539L.048,2.948h0c0,.489.048.726.147.726H.6a1.311,1.311,0,0,0,.442-.356,1,1,0,0,0,.13-.222,2.219,2.219,0,0,0,.1-.309,3.517,3.517,0,0,0,.05-.739v-.3l.011-.276A1.672,1.672,0,0,0,1.127.666ZM.406,2.045C.378,1.51.364,1.111.364.859A3.487,3.487,0,0,1,.4.271c.414.055.624.634.624,1.723,0,.138-.007.282-.021.428-.063.63-.251.952-.558.958V3.257C.447,2.988.434,2.592.406,2.045Z" transform="translate(12.89 20.553)" fill="#fff"/>
          <path id="Path_37" data-name="Path 37" d="M.334,3.783.4,3.633a.008.008,0,0,0,0-.005A5.037,5.037,0,0,1,.291,2.466l.005-.6H.352c.03.078.111.446.24,1.1a3.391,3.391,0,0,0,.174.6c.074.184.15.274.232.274a.12.12,0,0,0,.1-.045.169.169,0,0,0,.036-.109.409.409,0,0,0-.058-.174,4.884,4.884,0,0,1-.362-1.25C.661,2,.625,1.816.605,1.725l.086-.16c.053-.1.1-.191.139-.279A.713.713,0,0,0,.891.99V.6a.528.528,0,0,0-.2-.443A.8.8,0,0,0,.193,0C.065,0,0,.092,0,.273,0,.607.016,1.121.048,1.8S.1,2.928.1,3.135s0,.395-.005.563a.009.009,0,0,0,0,.006l.074.082a.008.008,0,0,0,.006,0H.327A.008.008,0,0,0,.334,3.783ZM.3.3.317.223A.239.239,0,0,1,.554.406.877.877,0,0,1,.589.564,2.23,2.23,0,0,1,.6.788a1.786,1.786,0,0,1-.08.438.575.575,0,0,1-.2.345c0-.13,0-.332-.011-.616S.3.448.3.3Z" transform="translate(9.335 11.295)" fill="#fff"/>
        </g>
      </g>
    </g>
  </g>
</svg>
