<svg xmlns="http://www.w3.org/2000/svg" width="160" height="160" viewBox="0 0 160 160">
  <g id="Group_206692" data-name="Group 206692" transform="translate(-57.778 -618.266)">
    <path id="Path_390215" data-name="Path 390215" d="M80,0A80,80,0,1,1,0,80,80.037,80.037,0,0,1,80,0" transform="translate(57.778 618.266)" fill="#e8a8a8" fill-rule="evenodd"/>
    <path id="Path_390216" data-name="Path 390216" d="M39.917,20.756A35.052,35.052,0,0,0,60.777,10.711a29.641,29.641,0,0,1,41.724,0,35.05,35.05,0,0,0,20.861,10.045,29.643,29.643,0,0,1,26.014,32.621,35.06,35.06,0,0,0,5.152,22.573,29.642,29.642,0,0,1-9.284,40.677,35.05,35.05,0,0,0-14.436,18.1,29.643,29.643,0,0,1-37.592,18.1,35.047,35.047,0,0,0-23.153,0,29.643,29.643,0,0,1-37.592-18.1,35.05,35.05,0,0,0-14.436-18.1A29.643,29.643,0,0,1,8.75,75.95,35.053,35.053,0,0,0,13.9,53.377,29.644,29.644,0,0,1,39.917,20.756" transform="translate(56.139 617.451)" fill="#fff" fill-rule="evenodd"/>
  </g>
</svg>
