<svg xmlns="http://www.w3.org/2000/svg" width="201.542" height="40" viewBox="0 0 201.542 40">
  <g id="obj" transform="translate(0 40) rotate(-90)">
    <rect id="Rectangle_109785" data-name="Rectangle 109785" width="13.077" height="13.077" transform="translate(26.923 188.465)" fill="#fff"/>
    <rect id="Rectangle_109786" data-name="Rectangle 109786" width="13.077" height="13.077" transform="translate(13.462 175.003)" fill="#fff"/>
    <rect id="Rectangle_109787" data-name="Rectangle 109787" width="13.077" height="13.077" transform="translate(26.923 161.542)" fill="#fff"/>
    <rect id="Rectangle_109788" data-name="Rectangle 109788" width="13.077" height="13.077" transform="translate(13.462 148.079)" fill="#fff"/>
    <rect id="Rectangle_109789" data-name="Rectangle 109789" width="13.077" height="13.077" transform="translate(26.923 134.618)" fill="#fff"/>
    <rect id="Rectangle_109790" data-name="Rectangle 109790" width="13.077" height="13.077" transform="translate(13.462 121.156)" fill="#fff"/>
    <rect id="Rectangle_109791" data-name="Rectangle 109791" width="13.077" height="13.077" transform="translate(26.923 107.694)" fill="#fff"/>
    <rect id="Rectangle_109792" data-name="Rectangle 109792" width="13.077" height="13.077" transform="translate(0 188.465)" fill="#fff"/>
    <rect id="Rectangle_109793" data-name="Rectangle 109793" width="13.077" height="13.076" transform="translate(0 161.542)" fill="#fff"/>
    <rect id="Rectangle_109794" data-name="Rectangle 109794" width="13.077" height="13.077" transform="translate(0 134.618)" fill="#fff"/>
    <rect id="Rectangle_109795" data-name="Rectangle 109795" width="13.077" height="13.077" transform="translate(0 107.694)" fill="#fff"/>
    <rect id="Rectangle_109796" data-name="Rectangle 109796" width="13.077" height="13.077" transform="translate(13.462 94.232)" fill="#fff"/>
    <rect id="Rectangle_109797" data-name="Rectangle 109797" width="13.077" height="13.077" transform="translate(26.923 80.771)" fill="#fff"/>
    <rect id="Rectangle_109798" data-name="Rectangle 109798" width="13.077" height="13.077" transform="translate(13.462 67.309)" fill="#fff"/>
    <rect id="Rectangle_109799" data-name="Rectangle 109799" width="13.077" height="13.077" transform="translate(26.923 53.848)" fill="#fff"/>
    <rect id="Rectangle_109800" data-name="Rectangle 109800" width="13.077" height="13.077" transform="translate(13.462 40.385)" fill="#fff"/>
    <rect id="Rectangle_109801" data-name="Rectangle 109801" width="13.077" height="13.077" transform="translate(26.923 26.924)" fill="#fff"/>
    <rect id="Rectangle_109802" data-name="Rectangle 109802" width="13.077" height="13.077" transform="translate(13.462 13.462)" fill="#fff"/>
    <rect id="Rectangle_109803" data-name="Rectangle 109803" width="13.077" height="13.077" transform="translate(26.923 0)" fill="#fff"/>
    <rect id="Rectangle_109804" data-name="Rectangle 109804" width="13.077" height="13.077" transform="translate(0 80.771)" fill="#fff"/>
    <rect id="Rectangle_109805" data-name="Rectangle 109805" width="13.077" height="13.077" transform="translate(0 53.848)" fill="#fff"/>
    <rect id="Rectangle_109806" data-name="Rectangle 109806" width="13.077" height="13.076" transform="translate(0 26.924)" fill="#fff"/>
    <rect id="Rectangle_109807" data-name="Rectangle 109807" width="13.077" height="13.077" transform="translate(0 0)" fill="#fff"/>
  </g>
</svg>
