<svg xmlns="http://www.w3.org/2000/svg" width="40" height="40" viewBox="0 0 40 40">
  <path id="Path_450901" data-name="Path 450901" d="M20,0A20,20,0,1,0,40,20,20.021,20.021,0,0,0,20,0m0,1.5a18.386,18.386,0,0,1,6.815,1.3V14.33L9.856,4.539A18.379,18.379,0,0,1,20,1.5Zm6.815,14.565V23.94L20,27.875,13.179,23.94V16.07L20,12.135l6.815,3.935ZM1.5,20A18.472,18.472,0,0,1,8.526,5.506L18.5,11.262,1.53,21.055C1.51,20.706,1.5,20.355,1.5,20ZM11.679,36.515A18.545,18.545,0,0,1,1.7,22.692l9.984-5.76V36.515ZM20,38.5a18.3,18.3,0,0,1-6.821-1.311V25.664l16.965,9.789A18.379,18.379,0,0,1,20,38.492ZM38.5,20a18.463,18.463,0,0,1-7.025,14.494L21.5,28.738l16.965-9.8c.02.349.029.7.029,1.055ZM28.315,23.074V3.484A18.536,18.536,0,0,1,38.3,17.308Z" fill="#fff"/>
</svg>
