<svg xmlns="http://www.w3.org/2000/svg" width="83" height="64" viewBox="0 0 83 64">
  <g id="ornament" transform="translate(9928.233 11019.218)">
    <path id="Path_377946" data-name="Path 377946" d="M151.866,100.075l-51.373,10.849a13.479,13.479,0,0,0-10.42,15.939l4.574,21.379a13.566,13.566,0,0,0,16.044,10.351l12.424-2.623c7.06,4.272,11.519,8.213,13.568,7.78,2-.421,4.9-6.664,9.2-12.588l16.181-3.417a13.48,13.48,0,0,0,10.419-15.94l-4.574-21.379a13.559,13.559,0,0,0-16.044-10.352" transform="translate(-10018.012 -11119)" fill="#a0b6df"/>
    <path id="Path_377947" data-name="Path 377947" d="M136.759,147.458l-5.129,1.079a1.772,1.772,0,0,0-1.365,2.092l2.991,14.217a1.771,1.771,0,0,0,2.092,1.365l5.129-1.079a1.771,1.771,0,0,0,1.365-2.092l-2.99-14.217a1.772,1.772,0,0,0-2.092-1.365" transform="translate(-10033.272 -11137.253)" fill="#fcfcfc"/>
    <path id="Path_377948" data-name="Path 377948" d="M166.662,132.826l-.307.065a2.792,2.792,0,0,0-1.149-5.464l-8.764,1.843c.723-1.93,1.618-4.953,1.151-7.171-.739-3.512-3.072-5.059-4.374-5.018A2.2,2.2,0,0,0,151,119.12c-.14,1.135.924,3.009.827,3.778-.15,1.185-1.773,3.071-3.687,6.983a10.333,10.333,0,0,0-.629,6.974l1.02,4.85,1.021,4.85.475,2.258a1.742,1.742,0,0,0,2.058,1.342l16.281-3.424a2.023,2.023,0,1,0-.833-3.959l.279-.059a2.479,2.479,0,0,0-1.02-4.851l.892-.188a2.478,2.478,0,0,0-1.02-4.85" transform="translate(-10039.673 -11125.678)" fill="#fcfcfc"/>
  </g>
</svg>
