<svg xmlns="http://www.w3.org/2000/svg" width="130" height="127.991" viewBox="0 0 130 127.991">
  <g id="Group_206796" data-name="Group 206796" transform="translate(-893.5 -903.067)">
    <path id="bg" d="M34.221,17.779a29.45,29.45,0,0,0,17.527-8.44,24.9,24.9,0,0,1,35.056,0,29.449,29.449,0,0,0,17.527,8.44,24.906,24.906,0,0,1,21.857,27.408,29.457,29.457,0,0,0,4.329,18.966,24.905,24.905,0,0,1-7.8,34.177,29.449,29.449,0,0,0-12.129,15.209A24.906,24.906,0,0,1,79,128.75a29.446,29.446,0,0,0-19.453,0,24.906,24.906,0,0,1-31.585-15.21A29.449,29.449,0,0,0,15.836,98.33a24.906,24.906,0,0,1-7.8-34.177,29.451,29.451,0,0,0,4.329-18.966A24.907,24.907,0,0,1,34.221,17.779" transform="translate(889.224 900.941)" fill="#e39597" fill-rule="evenodd"/>
    <path id="icon_instagram" d="M0,21.449V48.422A21.474,21.474,0,0,0,21.45,69.871H48.422A21.473,21.473,0,0,0,69.871,48.422V21.449A21.473,21.473,0,0,0,48.422,0H21.45A21.474,21.474,0,0,0,0,21.449m6.953.956A15.47,15.47,0,0,1,22.405,6.953H47.466A15.469,15.469,0,0,1,62.918,22.405V47.466A15.469,15.469,0,0,1,47.466,62.918H22.405A15.47,15.47,0,0,1,6.953,47.466V22.405m18.4,12.53a9.581,9.581,0,1,0,9.582-9.581,9.593,9.593,0,0,0-9.582,9.581m-6.333,0A15.914,15.914,0,1,1,34.936,50.85,15.932,15.932,0,0,1,19.021,34.935M52.858,12.673a4.076,4.076,0,1,1-4.077,4.077,4.076,4.076,0,0,1,4.077-4.077" transform="translate(923.564 932.129)" fill="#fff" fill-rule="evenodd"/>
  </g>
</svg>
