<svg xmlns="http://www.w3.org/2000/svg" xmlns:xlink="http://www.w3.org/1999/xlink" width="11.4" height="19" viewBox="0 0 11.4 19">
  <defs>
    <clipPath id="clip-path">
      <rect id="Rectangle_109232" data-name="Rectangle 109232" width="19" height="11.4" fill="#fff"/>
    </clipPath>
  </defs>
  <g id="Group_198874" data-name="Group 198874" transform="translate(11.4) rotate(90)">
    <g id="Group_197983" data-name="Group 197983" clip-path="url(#clip-path)">
      <path id="Path_378720" data-name="Path 378720" d="M.52,0C.191.192,0,.28,0,.28S.189.173.52,0" transform="translate(0 11.119)" fill="#fff"/>
      <path id="Path_378721" data-name="Path 378721" d="M0,11.119A18.244,18.244,0,0,0,5.476,6a41.111,41.111,0,0,0,3.5-6,41.111,41.111,0,0,0,3.5,6,18.244,18.244,0,0,0,5.476,5.116c-1.509-.793-5.98-3.005-8.979-3.005S1.51,10.326,0,11.119" transform="translate(0.52 0)" fill="#fff"/>
      <path id="Path_378722" data-name="Path 378722" d="M0,0C.331.173.52.28.52.28S.329.192,0,0" transform="translate(18.48 11.119)" fill="#fff"/>
    </g>
  </g>
</svg>
