<svg xmlns="http://www.w3.org/2000/svg" width="74" height="58" viewBox="0 0 74 58">
  <g id="ornament" transform="translate(9861.595 11227.734)">
    <path id="Path_377944" data-name="Path 377944" d="M27.97,23.965,21.161,42.043a11.89,11.89,0,0,0,6.977,15.284l10.484,3.914c3.2,6.516,4.636,11.556,6.366,12.2,1.684.629,6.82-2.649,12.846-5.027l13.654,5.1a11.975,11.975,0,0,0,15.352-6.946l6.809-18.078A11.89,11.89,0,0,0,86.671,33.2L43.322,17.018A11.962,11.962,0,0,0,27.97,23.965" transform="translate(-9882 -11244)" fill="#e39597"/>
    <path id="Path_377945" data-name="Path 377945" d="M83.434,54.648c1.826-4.762-.559-9.567-4.321-11a7.621,7.621,0,0,0-8.733,2.412,7.563,7.563,0,0,0-4.9-7.592c-3.763-1.429-8.756.572-10.582,5.333-2.767,7.215,5.184,19.7,7.6,21.607a1.21,1.21,0,0,0,.143.107,1.146,1.146,0,0,0,.213.119c.007,0,.014,0,.021,0s.011.007.019.01a1.183,1.183,0,0,0,.238.053,1.357,1.357,0,0,0,.179.015c3.074.178,17.359-3.857,20.125-11.072" transform="translate(-9893.172 -11251.229)" fill="#fcfcfc"/>
  </g>
</svg>
