<svg xmlns="http://www.w3.org/2000/svg" xmlns:xlink="http://www.w3.org/1999/xlink" width="151" height="53" viewBox="0 0 151 53">
  <defs>
    <filter id="Rectangle_107193" x="108.5" y="3.5" width="39" height="46" filterUnits="userSpaceOnUse">
      <feOffset dy="3" input="SourceAlpha"/>
      <feGaussianBlur stdDeviation="3" result="blur"/>
      <feFlood flood-opacity="0.161"/>
      <feComposite operator="in" in2="blur"/>
      <feComposite in="SourceGraphic"/>
    </filter>
    <filter id="bg" x="0" y="0" width="151" height="53" filterUnits="userSpaceOnUse">
      <feOffset dy="3" input="SourceAlpha"/>
      <feGaussianBlur stdDeviation="3" result="blur-2"/>
      <feFlood flood-opacity="0.161"/>
      <feComposite operator="in" in2="blur-2"/>
      <feComposite in="SourceGraphic"/>
    </filter>
    <filter id="Rectangle_107191" x="36.125" y="9.5" width="22" height="29" filterUnits="userSpaceOnUse">
      <feOffset dx="1" dy="1" input="SourceAlpha"/>
      <feGaussianBlur result="blur-3"/>
      <feFlood flood-opacity="0.161"/>
      <feComposite operator="in" in2="blur-3"/>
      <feComposite in="SourceGraphic"/>
    </filter>
    <linearGradient id="linear-gradient" x1="0.5" y1="0.444" x2="0.5" y2="1.597" gradientUnits="objectBoundingBox">
      <stop offset="0" stop-color="#fff"/>
      <stop offset="1" stop-color="#dbdbdb"/>
    </linearGradient>
    <filter id="Rectangle_107191-2" x="12.5" y="9.5" width="22" height="29" filterUnits="userSpaceOnUse">
      <feOffset dx="1" dy="1" input="SourceAlpha"/>
      <feGaussianBlur result="blur-4"/>
      <feFlood flood-opacity="0.161"/>
      <feComposite operator="in" in2="blur-4"/>
      <feComposite in="SourceGraphic"/>
    </filter>
    <filter id="Rectangle_107191-3" x="69.375" y="9.5" width="22" height="29" filterUnits="userSpaceOnUse">
      <feOffset dx="1" dy="1" input="SourceAlpha"/>
      <feGaussianBlur result="blur-5"/>
      <feFlood flood-opacity="0.161"/>
      <feComposite operator="in" in2="blur-5"/>
      <feComposite in="SourceGraphic"/>
    </filter>
    <filter id="Rectangle_107191-4" x="93" y="9.5" width="22" height="29" filterUnits="userSpaceOnUse">
      <feOffset dx="1" dy="1" input="SourceAlpha"/>
      <feGaussianBlur result="blur-6"/>
      <feFlood flood-opacity="0.161"/>
      <feComposite operator="in" in2="blur-6"/>
      <feComposite in="SourceGraphic"/>
    </filter>
    <filter id="Rectangle_107191-5" x="117.5" y="9.5" width="22" height="29" filterUnits="userSpaceOnUse">
      <feOffset dx="1" dy="1" input="SourceAlpha"/>
      <feGaussianBlur result="blur-7"/>
      <feFlood flood-opacity="0.161"/>
      <feComposite operator="in" in2="blur-7"/>
      <feComposite in="SourceGraphic"/>
    </filter>
    <clipPath id="clip-path">
      <g transform="matrix(1, 0, 0, 1, 0, 0)" filter="url(#Rectangle_107193)">
        <rect id="Rectangle_107193-2" data-name="Rectangle 107193" width="21" height="28" rx="5" fill="#fff"/>
      </g>
    </clipPath>
  </defs>
  <g id="counter" transform="translate(-897 -5279)">
    <g transform="matrix(1, 0, 0, 1, 897, 5279)" filter="url(#bg)">
      <rect id="bg-2" data-name="bg" width="133" height="35" rx="3" transform="translate(9 6)" fill="#fff" opacity="0.996"/>
    </g>
    <g id="digits" transform="translate(909.5 5285)">
      <g id="digit" transform="translate(23.625)">
        <g transform="matrix(1, 0, 0, 1, -36.13, -6)" filter="url(#Rectangle_107191)">
          <rect id="Rectangle_107191-6" data-name="Rectangle 107191" width="21" height="28" rx="3" transform="translate(36.13 9.5)" fill="#fff"/>
        </g>
        <text id="_8" data-name="8" transform="translate(2.375 26)" fill="#d87e80" font-size="25" font-family="SegoeUI, Segoe UI" letter-spacing="0.1em"><tspan x="0" y="0">8</tspan></text>
        <rect id="Rectangle_107192" data-name="Rectangle 107192" width="21" height="14" rx="3" transform="translate(0 17.5)" fill="url(#linear-gradient)" style="mix-blend-mode: multiply;isolation: isolate"/>
      </g>
      <g id="digit-2" data-name="digit">
        <g transform="matrix(1, 0, 0, 1, -12.5, -6)" filter="url(#Rectangle_107191-2)">
          <rect id="Rectangle_107191-7" data-name="Rectangle 107191" width="21" height="28" rx="3" transform="translate(12.5 9.5)" fill="#fff"/>
        </g>
        <text id="_6" data-name="6" transform="translate(2.625 26)" fill="#d87e80" font-size="25" font-family="SegoeUI, Segoe UI" letter-spacing="0.1em"><tspan x="0" y="0">6</tspan></text>
        <rect id="Rectangle_107192-2" data-name="Rectangle 107192" width="21" height="14" rx="3" transform="translate(0 17.5)" fill="url(#linear-gradient)" style="mix-blend-mode: multiply;isolation: isolate"/>
      </g>
      <g id="digit-3" data-name="digit" transform="translate(56.875)">
        <g transform="matrix(1, 0, 0, 1, -69.37, -6)" filter="url(#Rectangle_107191-3)">
          <rect id="Rectangle_107191-8" data-name="Rectangle 107191" width="21" height="28" rx="3" transform="translate(69.37 9.5)" fill="#fff"/>
        </g>
        <text id="_4" data-name="4" transform="translate(2.625 26)" fill="#d87e80" font-size="25" font-family="SegoeUI, Segoe UI" letter-spacing="0.1em"><tspan x="0" y="0">4</tspan></text>
        <rect id="Rectangle_107192-3" data-name="Rectangle 107192" width="21" height="14" rx="3" transform="translate(0 17.5)" fill="url(#linear-gradient)" style="mix-blend-mode: multiply;isolation: isolate"/>
      </g>
      <g id="digit-4" data-name="digit" transform="translate(80.5)">
        <g transform="matrix(1, 0, 0, 1, -93, -6)" filter="url(#Rectangle_107191-4)">
          <rect id="Rectangle_107191-9" data-name="Rectangle 107191" width="21" height="28" rx="3" transform="translate(93 9.5)" fill="#fff"/>
        </g>
        <text id="_3" data-name="3" transform="translate(2.625 26)" fill="#d87e80" font-size="25" font-family="SegoeUI, Segoe UI" letter-spacing="0.1em"><tspan x="0" y="0">3</tspan></text>
        <rect id="Rectangle_107192-4" data-name="Rectangle 107192" width="21" height="14" rx="3" transform="translate(0 17.5)" fill="url(#linear-gradient)" style="mix-blend-mode: multiply;isolation: isolate"/>
      </g>
      <g id="digit-5" data-name="digit" transform="translate(105 3.5)">
        <g transform="matrix(1, 0, 0, 1, -117.5, -9.5)" filter="url(#Rectangle_107191-5)">
          <rect id="Rectangle_107191-10" data-name="Rectangle 107191" width="21" height="28" rx="3" transform="translate(117.5 9.5)" fill="#fff"/>
        </g>
        <rect id="Rectangle_107192-5" data-name="Rectangle 107192" width="21" height="14" rx="3" transform="translate(0 14)" fill="url(#linear-gradient)" style="mix-blend-mode: multiply;isolation: isolate"/>
      </g>
      <path id="Path_367922" data-name="Path 367922" d="M7.519-4.358a5.114,5.114,0,0,1-1.11,2.995A7.348,7.348,0,0,1,3.743.947L3.264.1A10.021,10.021,0,0,0,4.27-.577a4.5,4.5,0,0,0,.843-.84,4.9,4.9,0,0,0,.6-1.026A3.994,3.994,0,0,0,6-3.722H5.386A2.308,2.308,0,0,1,3.71-4.274,2.031,2.031,0,0,1,3.144-5.8a2.045,2.045,0,0,1,.544-1.386A1.715,1.715,0,0,1,5.027-7.8a2.116,2.116,0,0,1,1.856.918A4.377,4.377,0,0,1,7.519-4.358Z" transform="translate(44.643 32.52)" fill="#d87e80"/>
      <g id="Mask_Group_2979" data-name="Mask Group 2979" transform="translate(105 3.5)" clip-path="url(#clip-path)">
        <text id="_4-2" data-name="4" transform="translate(2.625 12.875)" fill="#d87e80" font-size="25" font-family="SegoeUI, Segoe UI" letter-spacing="0.1em"><tspan x="0" y="0">4</tspan></text>
        <text id="_5" data-name="5" transform="translate(2.625 36.5)" fill="#c9c9c9" font-size="25" font-family="SegoeUI, Segoe UI" letter-spacing="0.1em"><tspan x="0" y="0">5</tspan></text>
      </g>
    </g>
  </g>
</svg>
