<svg xmlns="http://www.w3.org/2000/svg" width="169.187" height="40.9" viewBox="0 0 169.187 40.9">
  <g id="Group_206692" data-name="Group 206692" transform="translate(-82.131 -6.543)">
    <path id="Path_232522" data-name="Path 232522" d="M8.117-4.679a2.7,2.7,0,0,1-.423,1.5A3.045,3.045,0,0,1,6.529-2.133,3.37,3.37,0,0,1,7.87-1.011,2.877,2.877,0,0,1,8.364.669,3.046,3.046,0,0,1,7.311,3.115a4.274,4.274,0,0,1-2.865.9,4.293,4.293,0,0,1-2.873-.9A3.039,3.039,0,0,1,.51.669a2.9,2.9,0,0,1,.495-1.684A3.309,3.309,0,0,1,2.338-2.133,3.014,3.014,0,0,1,1.177-3.179a2.722,2.722,0,0,1-.419-1.5,3.012,3.012,0,0,1,.99-2.367,3.9,3.9,0,0,1,2.69-.882,3.923,3.923,0,0,1,2.686.874A3,3,0,0,1,8.117-4.679ZM6.05.5A1.673,1.673,0,0,0,5.611-.712a1.565,1.565,0,0,0-1.181-.455,1.562,1.562,0,0,0-1.173.451A1.67,1.67,0,0,0,2.817.5a1.669,1.669,0,0,0,.431,1.2,1.57,1.57,0,0,0,1.2.455,1.566,1.566,0,0,0,1.177-.439A1.666,1.666,0,0,0,6.05.5ZM5.81-4.567a1.6,1.6,0,0,0-.359-1.09,1.274,1.274,0,0,0-1.014-.411,1.284,1.284,0,0,0-1.006.4,1.587,1.587,0,0,0-.359,1.1A1.668,1.668,0,0,0,3.432-3.45a1.257,1.257,0,0,0,1.014.423,1.245,1.245,0,0,0,1.01-.423A1.68,1.68,0,0,0,5.81-4.567ZM11.763,2.72a1.161,1.161,0,0,1,.371-.894,1.442,1.442,0,0,1,1.868,0,1.161,1.161,0,0,1,.371.894,1.145,1.145,0,0,1-.367.882,1.466,1.466,0,0,1-1.876,0A1.145,1.145,0,0,1,11.763,2.72Zm0-6.537a1.161,1.161,0,0,1,.371-.894,1.317,1.317,0,0,1,.93-.343A1.328,1.328,0,0,1,14-4.711a1.161,1.161,0,0,1,.371.894,1.145,1.145,0,0,1-.367.882,1.333,1.333,0,0,1-.942.339,1.322,1.322,0,0,1-.934-.339A1.145,1.145,0,0,1,11.763-3.817ZM25.626-.952a5.887,5.887,0,0,1-1,3.688,3.483,3.483,0,0,1-2.921,1.277A3.507,3.507,0,0,1,18.8,2.76a5.715,5.715,0,0,1-1.03-3.592V-2.971a5.81,5.81,0,0,1,1.01-3.7,3.509,3.509,0,0,1,2.909-1.261A3.512,3.512,0,0,1,24.6-6.679a5.7,5.7,0,0,1,1.03,3.588ZM23.319-3.3a4.248,4.248,0,0,0-.4-2.1,1.336,1.336,0,0,0-1.233-.659,1.312,1.312,0,0,0-1.2.627,3.976,3.976,0,0,0-.411,1.96V-.648a4.459,4.459,0,0,0,.387,2.111,1.318,1.318,0,0,0,1.241.69,1.3,1.3,0,0,0,1.221-.662,4.353,4.353,0,0,0,.391-2.027ZM36.639-.952a5.887,5.887,0,0,1-1,3.688A3.483,3.483,0,0,1,32.72,4.013,3.507,3.507,0,0,1,29.815,2.76a5.715,5.715,0,0,1-1.03-3.592V-2.971a5.81,5.81,0,0,1,1.01-3.7A3.509,3.509,0,0,1,32.7-7.928,3.512,3.512,0,0,1,35.61-6.679a5.7,5.7,0,0,1,1.03,3.588ZM34.333-3.3a4.248,4.248,0,0,0-.4-2.1A1.336,1.336,0,0,0,32.7-6.06a1.312,1.312,0,0,0-1.2.627,3.976,3.976,0,0,0-.411,1.96V-.648a4.459,4.459,0,0,0,.387,2.111,1.318,1.318,0,0,0,1.241.69,1.3,1.3,0,0,0,1.221-.662,4.353,4.353,0,0,0,.391-2.027Zm14.454.822a3.736,3.736,0,0,1-.742,2.411A2.344,2.344,0,0,1,46.128.86a2.649,2.649,0,0,1-1.1-.227,4.444,4.444,0,0,1-1.169-.862A1.869,1.869,0,0,0,42.64-.864a.885.885,0,0,0-.75.4A1.706,1.706,0,0,0,41.6.557L39.886.541a3.705,3.705,0,0,1,.722-2.387,2.336,2.336,0,0,1,1.92-.9,2.637,2.637,0,0,1,1.133.239,4.662,4.662,0,0,1,1.161.858,1.832,1.832,0,0,0,1.185.619.908.908,0,0,0,.77-.423,1.737,1.737,0,0,0,.3-1.03Zm11.245,6.33H52.065V2.273l3.759-4.007A9.275,9.275,0,0,0,56.97-3.21a2.372,2.372,0,0,0,.371-1.2,1.775,1.775,0,0,0-.391-1.217,1.412,1.412,0,0,0-1.117-.443,1.523,1.523,0,0,0-1.233.539,2.134,2.134,0,0,0-.451,1.417H51.834a3.81,3.81,0,0,1,.507-1.94,3.572,3.572,0,0,1,1.433-1.377,4.355,4.355,0,0,1,2.1-.5,4.123,4.123,0,0,1,2.79.862,3.05,3.05,0,0,1,.994,2.434,3.908,3.908,0,0,1-.447,1.756A9.758,9.758,0,0,1,57.676-.792L55.034,1.994h5Zm3.391-5.715.67-5.907h6.513v1.924H65.984l-.287,2.5a3.657,3.657,0,0,1,1.748-.439,3.35,3.35,0,0,1,2.6,1.03A4.113,4.113,0,0,1,70.989.126a4.214,4.214,0,0,1-.475,2.015,3.352,3.352,0,0,1-1.361,1.381,4.248,4.248,0,0,1-2.091.491,4.511,4.511,0,0,1-1.956-.427,3.469,3.469,0,0,1-1.425-1.2A3.274,3.274,0,0,1,63.126.621h2.283a1.705,1.705,0,0,0,.507,1.129,1.607,1.607,0,0,0,1.137.4,1.418,1.418,0,0,0,1.205-.563A2.607,2.607,0,0,0,68.682,0a2.156,2.156,0,0,0-.487-1.517,1.787,1.787,0,0,0-1.381-.527,2,2,0,0,0-1.333.431l-.223.208ZM74.3,2.72a1.161,1.161,0,0,1,.371-.894,1.442,1.442,0,0,1,1.868,0,1.161,1.161,0,0,1,.371.894,1.145,1.145,0,0,1-.367.882,1.466,1.466,0,0,1-1.876,0A1.145,1.145,0,0,1,74.3,2.72Zm0-6.537a1.161,1.161,0,0,1,.371-.894,1.317,1.317,0,0,1,.93-.343,1.328,1.328,0,0,1,.938.343,1.161,1.161,0,0,1,.371.894,1.145,1.145,0,0,1-.367.882A1.333,1.333,0,0,1,75.6-2.6a1.322,1.322,0,0,1-.934-.339A1.145,1.145,0,0,1,74.3-3.817ZM88.162-.952a5.887,5.887,0,0,1-1,3.688,3.483,3.483,0,0,1-2.921,1.277A3.507,3.507,0,0,1,81.338,2.76a5.715,5.715,0,0,1-1.03-3.592V-2.971a5.81,5.81,0,0,1,1.01-3.7,3.509,3.509,0,0,1,2.909-1.261,3.512,3.512,0,0,1,2.905,1.249,5.7,5.7,0,0,1,1.03,3.588ZM85.856-3.3a4.248,4.248,0,0,0-.4-2.1,1.335,1.335,0,0,0-1.233-.659,1.312,1.312,0,0,0-1.2.627,3.976,3.976,0,0,0-.411,1.96V-.648A4.459,4.459,0,0,0,83,1.463a1.318,1.318,0,0,0,1.241.69,1.3,1.3,0,0,0,1.221-.662,4.353,4.353,0,0,0,.391-2.027ZM99.176-.952a5.887,5.887,0,0,1-1,3.688,3.483,3.483,0,0,1-2.921,1.277A3.507,3.507,0,0,1,92.351,2.76a5.715,5.715,0,0,1-1.03-3.592V-2.971a5.81,5.81,0,0,1,1.01-3.7,3.509,3.509,0,0,1,2.909-1.261,3.512,3.512,0,0,1,2.905,1.249,5.7,5.7,0,0,1,1.03,3.588ZM96.869-3.3a4.248,4.248,0,0,0-.4-2.1,1.335,1.335,0,0,0-1.233-.659,1.312,1.312,0,0,0-1.2.627,3.976,3.976,0,0,0-.411,1.96V-.648a4.459,4.459,0,0,0,.387,2.111,1.318,1.318,0,0,0,1.241.69,1.3,1.3,0,0,0,1.221-.662,4.352,4.352,0,0,0,.391-2.027Z" transform="translate(150.846 43.43)" fill="#d87e80"/>
    <path id="Path_232521" data-name="Path 232521" d="M5.591-6.076v.508h-3.4A14.95,14.95,0,0,1,.549-5.621,8.565,8.565,0,0,1,.6-4.525v.843a6.18,6.18,0,0,1-.08,1.057H1.913V-4.511H5.591v1.324A10.786,10.786,0,0,1,5.524-1.93H7.062a7.863,7.863,0,0,1-.053-1.257V-4.511h3.879v1.886h1.378A6.19,6.19,0,0,1,12.2-3.682v-.843a6.415,6.415,0,0,1,.054-1.1,15.407,15.407,0,0,1-1.658.053H7.009v-.508h3.063a13.584,13.584,0,0,1,1.378.053v-1.3a12.419,12.419,0,0,1-1.511.08H2.876a13.229,13.229,0,0,1-1.511-.08v1.3c.441-.04.816-.053,1.4-.053ZM11.168-.352a11.034,11.034,0,0,1,.053-1.3A11.547,11.547,0,0,1,9.9-1.6H2.836a10.819,10.819,0,0,1-1.271-.053A12.038,12.038,0,0,1,1.632-.365V2.1a10.208,10.208,0,0,1-.08,1.324H3.036V2.738H5.591v.909c0,.9.388,1.03,3.009,1.03,2.287,0,3.049-.094,3.437-.428.348-.294.495-.856.535-2.02a4.7,4.7,0,0,1-1.4-.535ZM6.982,2.738h4.133c-.04.455-.094.575-.254.655a6.328,6.328,0,0,1-1.9.174A6.384,6.384,0,0,1,7.076,3.42c-.067-.027-.094-.094-.094-.2ZM5.591-.566V.049H3.036V-.566Zm1.391,0H9.764V.049H6.982ZM5.591,1v.669H3.036V1ZM6.982,1H9.764v.669H6.982ZM2.475-3.267a4.865,4.865,0,0,1,.7-.04H4.347a4.661,4.661,0,0,1,.682.04v-.9a4.537,4.537,0,0,1-.682.04H3.17a3.2,3.2,0,0,1-.7-.04Zm0,1.257a4.865,4.865,0,0,1,.7-.04H4.347a4.3,4.3,0,0,1,.682.04v-.9a4.416,4.416,0,0,1-.682.04H3.17a3.2,3.2,0,0,1-.7-.04ZM7.611-3.267a4.737,4.737,0,0,1,.7-.04H9.67a4.79,4.79,0,0,1,.682.04v-.9a4.537,4.537,0,0,1-.682.04H8.306a3.131,3.131,0,0,1-.7-.04Zm0,1.257a4.865,4.865,0,0,1,.7-.04H9.67a4.416,4.416,0,0,1,.682.04v-.9a4.416,4.416,0,0,1-.682.04H8.306a3.131,3.131,0,0,1-.7-.04ZM22.136-3.682h-1.15a11.612,11.612,0,0,1-1.525-.08V-2.3a11.529,11.529,0,0,1,1.511-.08h1.164V-.633H20.785a7.152,7.152,0,0,1-.976-.053c.027.361.04.6.04,1.07V3.393a9.054,9.054,0,0,1-.067,1.364h1.5v-.6h3.277v.6h1.511A13.329,13.329,0,0,1,26,3.353V.477a9.035,9.035,0,0,1,.053-1.164,6.717,6.717,0,0,1-1,.053H23.58V-2.385h1.458a11.736,11.736,0,0,1,1.5.08V-3.762a11.25,11.25,0,0,1-1.511.08H23.58V-5.621c.642-.134,1.337-.308,2.127-.535.468-.134.468-.134.642-.174l-.829-1.284a17.473,17.473,0,0,1-6.219,1.2A5.085,5.085,0,0,1,19.795-5.1c1.4-.147,1.538-.16,2.341-.267ZM21.28.651h3.277v2.22H21.28Zm-6.406-6.5a8.656,8.656,0,0,1,1.11-.053h1.953a8.524,8.524,0,0,1,1.11.053V-7.16a8.266,8.266,0,0,1-1.11.053H15.983a8.266,8.266,0,0,1-1.11-.053Zm-.428,1.872a8.083,8.083,0,0,1,1.083-.053h2.8a8.586,8.586,0,0,1,1.016.04V-5.314a7.239,7.239,0,0,1-1.083.053H15.528a6.053,6.053,0,0,1-1.083-.067Zm.481,1.859a7.679,7.679,0,0,1,.883-.04H18.19a5.566,5.566,0,0,1,.856.04V-3.388a6.868,6.868,0,0,1-.856.04H15.809a7.679,7.679,0,0,1-.883-.04Zm0,1.872a7.423,7.423,0,0,1,.869-.04h2.367a5.577,5.577,0,0,1,.883.04V-1.515a4.971,4.971,0,0,1-.856.04H15.809a7.679,7.679,0,0,1-.883-.04Zm1.364,4.414h1.485v.455H19.1a7.567,7.567,0,0,1-.053-1.043V1.333a8.459,8.459,0,0,1,.04-.963,4.748,4.748,0,0,1-.9.04H15.943A7.781,7.781,0,0,1,14.927.357a8.718,8.718,0,0,1,.053,1.057V3.54A8.916,8.916,0,0,1,14.913,4.8h1.378Zm-.027-2.581h1.511V2.979H16.264ZM30.4-5.327a8.659,8.659,0,0,1,.575,1.391h-.843A10.363,10.363,0,0,1,28.662-4c.04.481.053.762.053,1.137v1a6.189,6.189,0,0,1-.08,1.03H30.12V-2.572h8.8V-.9h1.485a7.2,7.2,0,0,1-.067-.99v-.976c0-.481.013-.776.04-1.123a12.288,12.288,0,0,1-1.444.053h-.883c.2-.334.214-.374.816-1.538l-1.3-.415c.682-.107,1.1-.187,1.618-.308.321-.08.361-.08.575-.12l-.923-1.3a13.721,13.721,0,0,1-2.7.6,54.066,54.066,0,0,1-6.059.361c-.241,0-.6,0-1.057-.013A7.661,7.661,0,0,1,29.5-5.327Zm2.046,1.391a14.124,14.124,0,0,0-.575-1.444c1-.053,1.525-.08,1.565-.094.2.481.374.976.548,1.538Zm2.942,0a9.9,9.9,0,0,0-.535-1.645c.428-.053.776-.08.99-.107.495-.04.829-.08.976-.094s.227-.027.575-.08a11.3,11.3,0,0,1-.883,1.926Zm2.448,2.287a6.409,6.409,0,0,1-1.164.067H31.819a12.694,12.694,0,0,1-1.364-.067V-.272c.241-.027.267-.027.655-.053a10.68,10.68,0,0,0,2.153,2.448,15.668,15.668,0,0,1-4.775,1.284,6.28,6.28,0,0,1,.736,1.431,17.13,17.13,0,0,0,5.283-1.819,12.432,12.432,0,0,0,1.846.909,15.225,15.225,0,0,0,3.625.883,5.623,5.623,0,0,1,.7-1.485,14.86,14.86,0,0,1-4.815-1.177A12.893,12.893,0,0,0,37.53.678a15.938,15.938,0,0,1,1.177-1.3ZM36.54-.338a8.481,8.481,0,0,1-2.006,1.752A6.186,6.186,0,0,1,32.7-.338ZM51.466-4.6h-3.7a11.817,11.817,0,0,1-1.511-.08v1.5a14.118,14.118,0,0,1,1.578-.08h3.638V2.778c0,.294-.107.334-.856.334a12.84,12.84,0,0,1-1.645-.134,4.842,4.842,0,0,1,.428,1.511c.575.04.936.053,1.418.053.99,0,1.351-.053,1.645-.254s.455-.615.455-1.311V-3.267h.428c.468,0,.9.027,1.257.053V-4.685a8.11,8.11,0,0,1-1.3.08h-.388V-5.782a14.953,14.953,0,0,1,.08-1.658H51.373a11.957,11.957,0,0,1,.094,1.658Zm-5.818.2c.374-.749.749-1.592.909-2.033.134-.348.227-.575.321-.776l-1.538-.428a6.8,6.8,0,0,1-.548,1.672,11.449,11.449,0,0,1-2.474,3.718,5.985,5.985,0,0,1,.749,1.525,6.968,6.968,0,0,0,1.15-1.525c-.027.535-.027.843-.027,1.5V3.193a13.621,13.621,0,0,1-.08,1.6h1.6c-.04-.508-.067-1-.067-1.6Zm1.217,2.782a12.924,12.924,0,0,1,1.979,3.25L50.089.745a15.707,15.707,0,0,0-2.06-3.116ZM61.631-5.207v1.953h1.953V-5.207Zm0,5.724V2.47h1.953V.518Z" transform="translate(82.492 42.082)" fill="#d87e80"/>
    <path id="Path_232520" data-name="Path 232520" d="M13.205-1.73q0,4.383-1.589,6.7A5.168,5.168,0,0,1,7.081,7.3,5.186,5.186,0,0,1,2.575,5.04,11.43,11.43,0,0,1,.928-1.425V-5.416A11.812,11.812,0,0,1,2.51-12.1a5.169,5.169,0,0,1,4.542-2.315,5.184,5.184,0,0,1,4.542,2.293,11.6,11.6,0,0,1,1.611,6.545ZM9.084-6.011A10.755,10.755,0,0,0,8.59-9.756,1.645,1.645,0,0,0,7.052-11Q5.093-11,5.02-6.432v5.268a10.831,10.831,0,0,0,.5,3.8,1.664,1.664,0,0,0,1.56,1.248A1.593,1.593,0,0,0,8.569,2.718,10.192,10.192,0,0,0,9.084-.859ZM25,7.006H20.882V-9.132l-4.02,1.553V-11l7.706-3.149H25Zm18.445,0H31V4.1l5.718-7.271a15.928,15.928,0,0,0,1.6-2.649A5.3,5.3,0,0,0,38.834-8a4.238,4.238,0,0,0-.486-2.206,1.548,1.548,0,0,0-1.4-.8,1.8,1.8,0,0,0-1.589.929,4.883,4.883,0,0,0-.588,2.612H30.649a7.838,7.838,0,0,1,.805-3.556,6.015,6.015,0,0,1,2.264-2.5,6.2,6.2,0,0,1,3.3-.893,5.936,5.936,0,0,1,4.39,1.56A6,6,0,0,1,42.97-8.42,8.46,8.46,0,0,1,42.107-4.8,22.263,22.263,0,0,1,38.979-.279L36.266,3.6h7.184ZM58.31-1.73q0,4.383-1.589,6.7a5.608,5.608,0,0,1-9.041.065,11.43,11.43,0,0,1-1.647-6.465V-5.416A11.812,11.812,0,0,1,47.614-12.1a5.169,5.169,0,0,1,4.542-2.315A5.184,5.184,0,0,1,56.7-12.121,11.6,11.6,0,0,1,58.31-5.576ZM54.189-6.011A10.755,10.755,0,0,0,53.7-9.756,1.645,1.645,0,0,0,52.157-11Q50.2-11,50.125-6.432v5.268a10.831,10.831,0,0,0,.5,3.8,1.664,1.664,0,0,0,1.56,1.248,1.593,1.593,0,0,0,1.488-1.168,10.192,10.192,0,0,0,.515-3.577ZM68.57-.337h-7.1V-3.762h7.1Zm11.262-.827A3.942,3.942,0,0,1,76.973.171a4.418,4.418,0,0,1-3.8-1.937A8.717,8.717,0,0,1,71.792-6.94a9.179,9.179,0,0,1,.784-3.824,6.322,6.322,0,0,1,2.184-2.692,5.415,5.415,0,0,1,3.127-.958,5.112,5.112,0,0,1,3.178,1.059,6.788,6.788,0,0,1,2.162,3.04A12.378,12.378,0,0,1,84-5.808v1.495q0,5.4-2.373,8.439a8.185,8.185,0,0,1-6.727,3.1h-.421V3.683h.276a4.907,4.907,0,0,0,3.621-1.248A5.837,5.837,0,0,0,79.832-1.164ZM78.018-3.051q1.19,0,1.872-1.625V-6.563a7.68,7.68,0,0,0-.566-3.258Q78.758-11,77.858-11T76.429-9.835a6.724,6.724,0,0,0-.544,2.852A6.127,6.127,0,0,0,76.451-4.1,1.731,1.731,0,0,0,78.018-3.051Zm21.275-8.707L92.618,7.006H88.278l6.7-17.72H86.508v-3.41H99.293Zm14.483,3.251a5.578,5.578,0,0,1-.653,2.728,5.069,5.069,0,0,1-1.8,1.9,5.451,5.451,0,0,1,2.061,2.039,5.973,5.973,0,0,1,.755,3.055,6.026,6.026,0,0,1-1.625,4.448A5.966,5.966,0,0,1,108.088,7.3a6.066,6.066,0,0,1-4.455-1.633,5.966,5.966,0,0,1-1.654-4.448,6.013,6.013,0,0,1,.755-3.062,5.3,5.3,0,0,1,2.075-2.032,5.033,5.033,0,0,1-1.814-1.9,5.578,5.578,0,0,1-.653-2.728,5.9,5.9,0,0,1,1.553-4.339,5.6,5.6,0,0,1,4.165-1.567,5.56,5.56,0,0,1,4.18,1.582A5.939,5.939,0,0,1,113.777-8.507ZM108.088,3.886a1.6,1.6,0,0,0,1.429-.791,4.1,4.1,0,0,0,.5-2.2,4,4,0,0,0-.522-2.206,1.632,1.632,0,0,0-1.437-.8,1.649,1.649,0,0,0-1.444.8A3.956,3.956,0,0,0,106.085.9a3.919,3.919,0,0,0,.53,2.2A1.678,1.678,0,0,0,108.088,3.886Zm1.6-12.176a4.167,4.167,0,0,0-.4-1.974,1.307,1.307,0,0,0-1.226-.74,1.294,1.294,0,0,0-1.19.718,4.08,4.08,0,0,0-.406,2,4.274,4.274,0,0,0,.406,2.01,1.307,1.307,0,0,0,1.219.762,1.277,1.277,0,0,0,1.2-.762A4.409,4.409,0,0,0,109.684-8.29ZM124.473-.337h-7.1V-3.762h7.1Zm11.262-.827A3.942,3.942,0,0,1,132.875.171a4.417,4.417,0,0,1-3.8-1.937,8.717,8.717,0,0,1-1.386-5.174,9.179,9.179,0,0,1,.784-3.824,6.322,6.322,0,0,1,2.184-2.692,5.415,5.415,0,0,1,3.127-.958,5.112,5.112,0,0,1,3.178,1.059,6.788,6.788,0,0,1,2.162,3.04,12.378,12.378,0,0,1,.769,4.506v1.495q0,5.4-2.373,8.439a8.185,8.185,0,0,1-6.727,3.1h-.421V3.683h.276a4.907,4.907,0,0,0,3.621-1.248A5.837,5.837,0,0,0,135.734-1.164ZM133.92-3.051q1.19,0,1.872-1.625V-6.563a7.68,7.68,0,0,0-.566-3.258Q134.66-11,133.761-11t-1.429,1.168a6.724,6.724,0,0,0-.544,2.852,6.127,6.127,0,0,0,.566,2.881A1.731,1.731,0,0,0,133.92-3.051ZM155.079-1.73q0,4.383-1.589,6.7a5.608,5.608,0,0,1-9.041.065A11.43,11.43,0,0,1,142.8-1.425V-5.416a11.812,11.812,0,0,1,1.582-6.683,5.169,5.169,0,0,1,4.542-2.315,5.184,5.184,0,0,1,4.542,2.293,11.6,11.6,0,0,1,1.611,6.545Zm-4.122-4.281a10.755,10.755,0,0,0-.493-3.744A1.645,1.645,0,0,0,148.926-11q-1.959,0-2.032,4.571v5.268a10.831,10.831,0,0,0,.5,3.8,1.664,1.664,0,0,0,1.56,1.248,1.593,1.593,0,0,0,1.488-1.168,10.192,10.192,0,0,0,.515-3.577ZM170.114-1.73q0,4.383-1.589,6.7a5.608,5.608,0,0,1-9.041.065,11.43,11.43,0,0,1-1.647-6.465V-5.416a11.812,11.812,0,0,1,1.582-6.683,5.169,5.169,0,0,1,4.542-2.315,5.184,5.184,0,0,1,4.542,2.293,11.6,11.6,0,0,1,1.611,6.545Zm-4.122-4.281a10.756,10.756,0,0,0-.493-3.744A1.645,1.645,0,0,0,163.961-11Q162-11,161.929-6.432v5.268a10.831,10.831,0,0,0,.5,3.8,1.664,1.664,0,0,0,1.56,1.248,1.593,1.593,0,0,0,1.488-1.168,10.192,10.192,0,0,0,.515-3.577Z" transform="translate(81.203 20.957)" fill="#d87e80"/>
  </g>
</svg>
