<svg xmlns="http://www.w3.org/2000/svg" width="65.757" height="65.757" viewBox="0 0 65.757 65.757">
  <g id="Group_206789" data-name="Group 206789" transform="translate(0 0.925)">
    <path id="パス_28924" data-name="パス 28924" d="M32.878,2.391a30.5,30.5,0,0,0-11.866,58.58A30.5,30.5,0,0,0,44.745,4.786,30.294,30.294,0,0,0,32.878,2.391m0-2.391A32.878,32.878,0,1,1,0,32.878,32.878,32.878,0,0,1,32.878,0Z" transform="translate(0 -0.925)" fill="#ccc"/>
    <path id="Path_450908" data-name="Path 450908" d="M29.976,24.213l.991-7.791h-6.2V11.367c0-2.131.866-4.208,3.644-4.208h2.819V.527A28.69,28.69,0,0,0,26.224,0c-5.107,0-8.445,3.731-8.445,10.485v5.937H12.1v7.791h5.677V43.045h6.988V24.213Z" transform="translate(11.213 12.014)" fill="#ccc"/>
  </g>
</svg>
