<svg xmlns="http://www.w3.org/2000/svg" width="18" height="18" viewBox="0 0 18 18">
  <g id="fb-icon-love" transform="translate(-0.148 -0.148)">
    <g id="Ellipse_302" data-name="Ellipse 302" transform="translate(1.148 1.148)" fill="#ff3e6c" stroke="#fff" stroke-width="1">
      <circle cx="8" cy="8" r="8" stroke="none"/>
      <circle cx="8" cy="8" r="8.5" fill="none"/>
    </g>
    <path id="Path_169807" data-name="Path 169807" d="M181.923,211.4a2.6,2.6,0,0,0-2.445-2.691,2.329,2.329,0,0,0-2.236,1.649,2.33,2.33,0,0,0-2.236-1.649,2.6,2.6,0,0,0-2.445,2.691c0,2.378,3.648,5.1,4.548,5.385a.4.4,0,0,0,.053.015.352.352,0,0,0,.074.011h.013a.352.352,0,0,0,.074-.011.4.4,0,0,0,.053-.015C178.275,216.5,181.923,213.776,181.923,211.4Z" transform="translate(-168.094 -203.37)" fill="#fefefe"/>
  </g>
</svg>
