<svg xmlns="http://www.w3.org/2000/svg" width="130" height="127.991" viewBox="0 0 130 127.991">
  <path id="bg" d="M34.221,17.779a29.45,29.45,0,0,0,17.527-8.44,24.9,24.9,0,0,1,35.056,0,29.449,29.449,0,0,0,17.527,8.44,24.906,24.906,0,0,1,21.857,27.408,29.457,29.457,0,0,0,4.329,18.966,24.905,24.905,0,0,1-7.8,34.177,29.449,29.449,0,0,0-12.129,15.209A24.906,24.906,0,0,1,79,128.75a29.446,29.446,0,0,0-19.453,0,24.906,24.906,0,0,1-31.585-15.21A29.449,29.449,0,0,0,15.836,98.33a24.906,24.906,0,0,1-7.8-34.177,29.451,29.451,0,0,0,4.329-18.966A24.907,24.907,0,0,1,34.221,17.779" transform="translate(-4.276 -2.126)" fill="#839bd5" fill-rule="evenodd" opacity="0.8"/>
</svg>
