<svg xmlns="http://www.w3.org/2000/svg" width="60" height="59.073" viewBox="0 0 60 59.073">
  <path id="bg" d="M18.1,9.35a13.592,13.592,0,0,0,8.089-3.9,11.494,11.494,0,0,1,16.18,0,13.592,13.592,0,0,0,8.089,3.9A11.5,11.5,0,0,1,60.543,22a13.6,13.6,0,0,0,2,8.754,11.495,11.495,0,0,1-3.6,15.774,13.592,13.592,0,0,0-5.6,7.02,11.5,11.5,0,0,1-14.578,7.02,13.591,13.591,0,0,0-8.978,0,11.5,11.5,0,0,1-14.577-7.02,13.592,13.592,0,0,0-5.6-7.02,11.5,11.5,0,0,1-3.6-15.774,13.593,13.593,0,0,0,2-8.754A11.5,11.5,0,0,1,18.1,9.35" transform="translate(-4.276 -2.126)" fill="#e39597" fill-rule="evenodd"/>
</svg>
