<svg xmlns="http://www.w3.org/2000/svg" width="150" height="147.682" viewBox="0 0 150 147.682">
  <path id="bg" d="M38.828,20.187a33.981,33.981,0,0,0,20.224-9.739,28.736,28.736,0,0,1,40.449,0,33.979,33.979,0,0,0,20.224,9.739,28.738,28.738,0,0,1,25.219,31.625A33.989,33.989,0,0,0,149.939,73.7a28.737,28.737,0,0,1-9,39.435,33.98,33.98,0,0,0-13.995,17.549A28.738,28.738,0,0,1,90.5,148.23a33.977,33.977,0,0,0-22.446,0,28.738,28.738,0,0,1-36.444-17.55,33.98,33.98,0,0,0-13.995-17.549,28.738,28.738,0,0,1-9-39.435,33.982,33.982,0,0,0,4.995-21.884,28.739,28.739,0,0,1,25.22-31.625" transform="translate(-4.276 -2.126)" fill="#b2ca42" fill-rule="evenodd" opacity="0.8"/>
</svg>
