<svg xmlns="http://www.w3.org/2000/svg" width="187.406" height="78" viewBox="0 0 187.406 78">
  <g id="title" transform="translate(-131.278 -5151.318)">
    <text id="音ガール" transform="translate(224.981 5167.318)" fill="#666" font-size="15" font-family="YuGothicUI-Regular, Yu Gothic UI"><tspan x="-24.525" y="0">音ガール</tspan></text>
    <path id="ON-girl" d="M-37.338,16.124A20.439,20.439,0,0,0-22.981,10.74,20.376,20.376,0,0,0-17.238-3.77,15.153,15.153,0,0,0-21.75-14.948a15.6,15.6,0,0,0-11.485-4.307,19.383,19.383,0,0,0-14.049,5.384A18.975,18.975,0,0,0-53.13.332a15.851,15.851,0,0,0,4.41,11.331A15.341,15.341,0,0,0-37.338,16.124Zm3.692-31.79a12.117,12.117,0,0,1,8.87,3.487,12.8,12.8,0,0,1,3.589,9.127A16.478,16.478,0,0,1-25.852,8.433a15.8,15.8,0,0,1-11.075,4.1,11.679,11.679,0,0,1-8.717-3.487A13.254,13.254,0,0,1-49.182-.386a15.123,15.123,0,0,1,4.717-11.229A15.861,15.861,0,0,1-33.646-15.666Zm30.2,31.174L-.216-11,23.011,17.047l4.41-35.738H23.627L20.345,7.92-2.882-20.127-7.24,15.509ZM36.445,1.357h11.28l.461-3.794H36.907ZM76.336-1.956A7.159,7.159,0,0,0,73.67-4.469a9.949,9.949,0,0,0-4.717-1.025,10.511,10.511,0,0,0-7.9,3.128,13.613,13.613,0,0,0-3.435,9.332,9.98,9.98,0,0,0,2.666,7.23,9.152,9.152,0,0,0,7.025,2.718,9.645,9.645,0,0,0,4.1-.923,7.61,7.61,0,0,0,3.025-2.666L74.131,16.4c-.205,1.948-.461,4.666-2.359,6.512a7.357,7.357,0,0,1-5.384,1.9,6.309,6.309,0,0,1-4.41-1.487,6.068,6.068,0,0,1-1.692-4.768v-.205h-3.64v.308c0,1.282.1,4.563,2.41,6.922,1.282,1.282,3.487,2.512,7.178,2.512,4.358,0,6.922-1.641,8.306-3.076,2.512-2.564,2.923-5.9,3.333-9.229L80.387-4.981H76.7Zm-6.973-.256A5.833,5.833,0,0,1,73.824-.418,7.877,7.877,0,0,1,75.67,4.709a10.128,10.128,0,0,1-2.717,7.076,7.653,7.653,0,0,1-5.23,1.846,5.943,5.943,0,0,1-4.358-1.692,7.356,7.356,0,0,1-1.9-5.23A9.414,9.414,0,0,1,64.236-.264,7.2,7.2,0,0,1,69.363-2.212ZM92.487-5.77,89.872,15.509h3.692L96.179-5.77Zm.205-7.742a2.206,2.206,0,0,0,.615,1.59,2.323,2.323,0,0,0,1.743.718,2.745,2.745,0,0,0,2.051-.872,2.805,2.805,0,0,0,.82-2.051,2.28,2.28,0,0,0-.667-1.692,2.165,2.165,0,0,0-1.641-.615,2.8,2.8,0,0,0-2.2.974A3.01,3.01,0,0,0,92.692-13.512ZM104.35,28.13h3.692l2.7-23.062c.256-2.1.615-4.512,2.1-5.948a3.824,3.824,0,0,1,2.82-1.128,3.459,3.459,0,0,1,2.2.718l2.153-3.333a5.484,5.484,0,0,0-3.128-.872,5.966,5.966,0,0,0-3.076.769,5.954,5.954,0,0,0-2.154,2.051l.308-2.307H108.28Zm26.234-50-4.615,37.379h3.692l4.615-37.379Z" transform="translate(184.408 5201.188)" fill="#666"/>
  </g>
</svg>
