<svg xmlns="http://www.w3.org/2000/svg" width="56.244" height="35.725" viewBox="0 0 56.244 35.725">
  <path id="freedial" d="M187.165,230.589a6.792,6.792,0,1,0,13.584,0c0-3.572-3.674-6.425-6.791-8.132C190.839,224.164,187.165,227.017,187.165,230.589Zm-7.088-20.1v34.725h55.244V210.488Zm55.236,8.444a28.9,28.9,0,0,0-10.514,1.92c3.414,2.2,6.715,5.53,6.715,9.735a10.079,10.079,0,0,1-10.167,9.8,9.937,9.937,0,0,1-10-9.8c0-4.205,3.138-7.537,6.551-9.735a28.079,28.079,0,0,0-20.408,0c3.415,2.2,6.551,5.53,6.551,9.735a9.936,9.936,0,0,1-10,9.8c-5.329,0-10.242-4.245-10.242-9.8,0-4.205,3.377-7.537,6.79-9.735a28.849,28.849,0,0,0-10.5-1.92v-3.041a32.073,32.073,0,0,1,13.956,3.039,32.2,32.2,0,0,1,27.313,0,32.116,32.116,0,0,1,13.966-3.039Zm-20.541,11.58a6.791,6.791,0,1,0,13.581,0c0-3.573-3.67-6.428-6.79-8.134C218.444,224.084,214.773,226.939,214.773,230.512Z" transform="translate(-179.577 -209.988)" fill="#d87e80" stroke="rgba(0,0,0,0)" stroke-miterlimit="10" stroke-width="1"/>
</svg>
