<svg xmlns="http://www.w3.org/2000/svg" width="64" height="50.162" viewBox="0 0 64 50.162">
  <g id="ornament" transform="translate(9861.595 11227.734)">
    <path id="Path_377944" data-name="Path 377944" d="M26.948,22.925,21.058,38.56a10.283,10.283,0,0,0,6.034,13.218l9.067,3.385c2.772,5.635,4.009,9.994,5.506,10.552,1.456.544,5.9-2.291,11.11-4.348l11.809,4.409a10.356,10.356,0,0,0,13.278-6.008l5.889-15.635a10.283,10.283,0,0,0-6.034-13.218l-37.491-14a10.346,10.346,0,0,0-13.278,6.008" transform="translate(-9882 -11244)" fill="#b9b9f8"/>
    <path id="Path_377945" data-name="Path 377945" d="M79.5,52.4c1.579-4.118-.483-8.274-3.737-9.511a6.591,6.591,0,0,0-7.553,2.086,6.541,6.541,0,0,0-4.236-6.566c-3.254-1.236-7.573.494-9.152,4.612-2.393,6.24,4.483,17.038,6.569,18.687a1.047,1.047,0,0,0,.124.093.991.991,0,0,0,.184.1l.018,0c.006,0,.01.006.016.009a1.024,1.024,0,0,0,.206.046,1.173,1.173,0,0,0,.155.013c2.659.154,15.013-3.336,17.405-9.576" transform="translate(-9896.246 -11253.192)" fill="#fcfcfc"/>
  </g>
</svg>
