<svg xmlns="http://www.w3.org/2000/svg" width="18" height="16" viewBox="0 0 18 16">
  <path id="Path_169805" data-name="Path 169805" d="M906.333,268.214a59.567,59.567,0,0,1-7.758-7.181,5.454,5.454,0,0,1-.9-5.188,4.915,4.915,0,0,1,3.282-3.36,7.037,7.037,0,0,1,1.715-.234,4.194,4.194,0,0,1,3.6,1.954l.115.163.115-.163a4.192,4.192,0,0,1,3.6-1.954,7.037,7.037,0,0,1,1.715.234,4.915,4.915,0,0,1,3.281,3.36,5.455,5.455,0,0,1-.9,5.188,59.785,59.785,0,0,1-7.755,7.18l-.049.038Zm-3.669-14.821a5.776,5.776,0,0,0-1.444.2,3.8,3.8,0,0,0-2.5,2.612,4.31,4.31,0,0,0,.711,4.1,53.159,53.159,0,0,0,6.858,6.434l.088.071.088-.071a53.125,53.125,0,0,0,6.856-6.434,4.307,4.307,0,0,0,.711-4.1,3.787,3.787,0,0,0-2.495-2.611,5.76,5.76,0,0,0-1.445-.2,3.1,3.1,0,0,0-2.855,1.71l-.861,1.32-.861-1.319A3.1,3.1,0,0,0,902.664,253.393Z" transform="translate(-897.38 -252.251)" fill="#1f1f1f"/>
</svg>
