<svg xmlns="http://www.w3.org/2000/svg" width="16.113" height="14.38" viewBox="0 0 16.113 14.38">
  <path id="Path_169821" data-name="Path 169821" d="M1035.271,449.211a4.425,4.425,0,0,0-3.29-1.433,4.14,4.14,0,0,0-2.591.895.875.875,0,0,1-1.75,0,4.143,4.143,0,0,0-2.592-.895,4.429,4.429,0,0,0-3.291,1.433,5.11,5.11,0,0,0-1.3,3.49,6.042,6.042,0,0,0,1.6,3.957,33.142,33.142,0,0,0,3.928,3.686l.191.166c.49.418,1.033.88,1.592,1.369a1.121,1.121,0,0,0,1.48,0c.636-.553,1.248-1.077,1.788-1.538a33.2,33.2,0,0,0,3.924-3.683,6.042,6.042,0,0,0,1.605-3.957A5.11,5.11,0,0,0,1035.271,449.211Zm-3.29-.11a3.115,3.115,0,0,1,2.318,1.006,3.8,3.8,0,0,1,.949,2.594,4.732,4.732,0,0,1-1.3,3.111,32.5,32.5,0,0,1-3.765,3.524c-.506.431-1.075.916-1.671,1.433-.592-.517-1.161-1-1.686-1.448a32.389,32.389,0,0,1-3.746-3.509,4.729,4.729,0,0,1-1.3-3.111,3.793,3.793,0,0,1,.949-2.594,3.116,3.116,0,0,1,2.318-1.006,2.85,2.85,0,0,1,1.782.618,4.218,4.218,0,0,1,1.012,1.173.783.783,0,0,0,1.344,0,4.251,4.251,0,0,1,1.013-1.172A2.851,2.851,0,0,1,1031.981,449.1Z" transform="translate(-1020.458 -447.778)" fill="#9e9d9d"/>
</svg>
