<svg xmlns="http://www.w3.org/2000/svg" width="26" height="26" viewBox="0 0 26 26">
  <g id="ほぼ満足">
    <circle id="椭圆_281" data-name="椭圆 281" cx="13" cy="13" r="13" fill="#ffc97d"/>
    <g id="组_5106" data-name="组 5106" transform="translate(6.712 7.037)">
      <path id="路径_9307" data-name="路径 9307" d="M237.3,136.1a1.525,1.525,0,1,0,1.525-1.525A1.525,1.525,0,0,0,237.3,136.1Z" transform="translate(-227.773 -134.577)"/>
      <path id="路径_9308" data-name="路径 9308" d="M214.063,136.1a1.525,1.525,0,1,0,1.525-1.525A1.525,1.525,0,0,0,214.063,136.1Z" transform="translate(-214.063 -134.577)"/>
    </g>
    <path id="路径_9309" data-name="路径 9309" d="M218.719,158.587a8.918,8.918,0,0,1-7.234-3.273.95.95,0,0,1,1.526-1.132,7.754,7.754,0,0,0,11.416,0,.95.95,0,0,1,1.526,1.132A8.918,8.918,0,0,1,218.719,158.587Z" transform="translate(-205.72 -138.88)"/>
  </g>
</svg>
