<svg xmlns="http://www.w3.org/2000/svg" width="30" height="20.461" viewBox="0 0 30 20.461">
  <path id="icon" d="M7.2,38.746a3.714,3.714,0,0,1-3.7-3.7V21.99a3.714,3.714,0,0,1,3.7-3.7H29.8a3.714,3.714,0,0,1,3.7,3.7V35.042a3.714,3.714,0,0,1-3.7,3.7Zm-1.124-3.7A1.127,1.127,0,0,0,7.2,36.166H29.8a1.127,1.127,0,0,0,1.124-1.124V22.28l-7.485,6.5a7.577,7.577,0,0,1-4.941,2.106,7.71,7.71,0,0,1-4.973-2.1l-7.441-6.5Zm9.126-8.211a5.163,5.163,0,0,0,3.284,1.478,5.044,5.044,0,0,0,3.252-1.481l6.869-5.962H8.376Z" transform="translate(-3.5 -18.285)" fill="#fff"/>
</svg>
