<svg xmlns="http://www.w3.org/2000/svg" width="14" height="20" viewBox="0 0 14 20">
  <path id="icon_place" d="M484.584,180.131h0A6.266,6.266,0,0,0,483.07,178a6.591,6.591,0,0,0-1.083-.807,6.833,6.833,0,0,0-7.539-.115l-.13.087-.035.025-.006,0a6.59,6.59,0,0,0-1.082.807,6.266,6.266,0,0,0-1.514,2.132,6.845,6.845,0,0,0-.548,2.736c0,1.617,1.066,4.27,3.169,7.885,1.525,2.622,3.079,4.849,3.094,4.871a.909.909,0,0,0,1.474,0c.016-.022,1.569-2.249,3.094-4.871,2.1-3.615,3.168-6.268,3.168-7.885A6.846,6.846,0,0,0,484.584,180.131Zm-6.452,6.533a3.8,3.8,0,1,1,3.97-3.8A3.893,3.893,0,0,1,478.132,186.664Z" transform="translate(-471.132 -176)" fill="#666"/>
</svg>
