<svg xmlns="http://www.w3.org/2000/svg" width="41.906" height="40" viewBox="0 0 41.906 40"><g transform="translate(-149 -12837)"><path d="M23.874,36.215a8.262,8.262,0,0,0-5.844,0l-8.014,3.531c-1.614.711-2.778-.13-2.6-1.889L8.3,29.145a8.262,8.262,0,0,0-1.806-5.558L.657,17.057C-.517,15.742-.078,14.374,1.651,14l8.559-1.854a8.26,8.26,0,0,0,4.728-3.435l4.408-7.567c.887-1.524,2.324-1.528,3.214,0l4.408,7.567A8.26,8.26,0,0,0,31.7,12.147L40.254,14c1.723.373,2.171,1.738.993,3.057l-5.836,6.531a8.26,8.26,0,0,0-1.806,5.558l.882,8.713c.178,1.754-.982,2.6-2.6,1.889Z" transform="translate(149 12837)" fill="#f78"/><text transform="translate(169.953 12865)" fill="#fff" font-size="16" font-family="HiraKakuProN-W6, Hiragino Kaku Gothic ProN"><tspan x="-5.72" y="0">S</tspan></text></g></svg>