<svg xmlns="http://www.w3.org/2000/svg" width="65.757" height="65.757" viewBox="0 0 65.757 65.757">
  <g id="Group_1058" data-name="Group 1058" transform="translate(0 -0.151)">
    <g id="Group_1057" data-name="Group 1057" transform="translate(13.119 13.27)">
      <path id="Path_9533" data-name="Path 9533" d="M50.219,33.946c5.276,0,5.9.02,7.985.115a10.929,10.929,0,0,1,3.669.681,6.542,6.542,0,0,1,3.75,3.75,10.941,10.941,0,0,1,.681,3.669c.095,2.084.115,2.709.115,7.985s-.02,5.9-.115,7.985a10.941,10.941,0,0,1-.681,3.669,6.542,6.542,0,0,1-3.75,3.75,10.928,10.928,0,0,1-3.669.681c-2.083.095-2.708.115-7.985.115s-5.9-.02-7.985-.115a10.928,10.928,0,0,1-3.669-.681,6.542,6.542,0,0,1-3.75-3.75,10.928,10.928,0,0,1-.681-3.669c-.095-2.084-.115-2.709-.115-7.985s.02-5.9.115-7.985a10.928,10.928,0,0,1,.681-3.669,6.542,6.542,0,0,1,3.75-3.75,10.929,10.929,0,0,1,3.669-.681c2.084-.095,2.709-.115,7.985-.115m0-3.56c-5.366,0-6.039.023-8.147.119a14.506,14.506,0,0,0-4.8.918A10.1,10.1,0,0,0,31.5,37.2a14.506,14.506,0,0,0-.918,4.8c-.1,2.107-.119,2.781-.119,8.147s.023,6.039.119,8.147a14.505,14.505,0,0,0,.918,4.8,10.1,10.1,0,0,0,5.779,5.779,14.505,14.505,0,0,0,4.8.918c2.108.1,2.781.119,8.147.119s6.039-.023,8.147-.119a14.505,14.505,0,0,0,4.8-.918,10.1,10.1,0,0,0,5.779-5.779,14.505,14.505,0,0,0,.918-4.8c.1-2.108.119-2.781.119-8.147S69.956,44.106,69.86,42a14.505,14.505,0,0,0-.918-4.8,10.1,10.1,0,0,0-5.779-5.779,14.506,14.506,0,0,0-4.8-.918c-2.108-.1-2.781-.119-8.147-.119" transform="translate(-30.46 -30.386)" fill="#ccc" stroke="rgba(0,0,0,0)" stroke-miterlimit="10" stroke-width="1"/>
      <path id="Path_9534" data-name="Path 9534" d="M61.282,51.062A10.147,10.147,0,1,0,71.429,61.209,10.147,10.147,0,0,0,61.282,51.062m0,16.733a6.586,6.586,0,1,1,6.587-6.587A6.587,6.587,0,0,1,61.282,67.8" transform="translate(-41.523 -41.449)" fill="#ccc" stroke="rgba(0,0,0,0)" stroke-miterlimit="10" stroke-width="1"/>
      <path id="Path_9535" data-name="Path 9535" d="M95.289,47.47A2.371,2.371,0,1,1,92.918,45.1a2.371,2.371,0,0,1,2.371,2.371" transform="translate(-62.611 -38.259)" fill="#ccc" stroke="rgba(0,0,0,0)" stroke-miterlimit="10" stroke-width="1"/>
    </g>
    <path id="パス_28924" data-name="パス 28924" d="M32.878,2.391a30.5,30.5,0,0,0-11.866,58.58A30.5,30.5,0,0,0,44.745,4.786,30.294,30.294,0,0,0,32.878,2.391m0-2.391A32.878,32.878,0,1,1,0,32.878,32.878,32.878,0,0,1,32.878,0Z" transform="translate(0 0.151)" fill="#ccc"/>
  </g>
</svg>
