<svg xmlns="http://www.w3.org/2000/svg" width="157.254" height="40" viewBox="0 0 157.254 40">
  <g id="logo" transform="translate(-100.456 -71.078)">
    <path id="icon" d="M39.834,14.044a.5.5,0,0,0-.374-.17H35.934A2.489,2.489,0,0,1,33.468,11.7l-.41-3.31a5.478,5.478,0,0,0-1.024-2.57l-1.4-1.9a5.49,5.49,0,0,0-3.716-2.179l-.007,0L24.169.147A1.657,1.657,0,0,0,23.738,0H16.318A1.646,1.646,0,0,0,15.9.147L13.179,1.719A5.49,5.49,0,0,0,9.324,3.914l-1.4,1.9A5.478,5.478,0,0,0,6.9,8.385l-.41,3.31a2.488,2.488,0,0,1-2.466,2.179H.5A.5.5,0,0,0,0,14.437L1.566,26.1A8.476,8.476,0,0,0,9.94,33.428h.676V39.5a.5.5,0,0,0,.5.5H28.844a.5.5,0,0,0,.5-.5V33.428h.676A8.476,8.476,0,0,0,38.391,26.1l1.562-11.663a.5.5,0,0,0-.119-.393M24.1,1.257l1.88,1.086-5.074,8.789q-.46-.009-.93-.009c-.539,0-1.07.009-1.587.026Zm-1-.263-3.072,5.32L16.963.994Zm-7.139.263,3.493,6.051L18.207,9.479l-4.12-7.137Zm-5.352,7.61V32.434H9.94a7.479,7.479,0,0,1-7.389-6.465l-1.486-11.1H4.022a3.469,3.469,0,0,0,2.168-.761l-.47,3.78.987.123.833-6.7h0l.348-2.8a4.482,4.482,0,0,1,.838-2.1l1.4-1.9a4.492,4.492,0,0,1,3.034-1.782l4.476,7.752-.422.731a28.978,28.978,0,0,0-3.419.387,8.653,8.653,0,0,0-2.183.639V8.867ZM14.8,39.006H11.609V24.349H14.8V39.006m13.544,0H15.8V24.349h12.55Zm0-15.651H11.609V19.778h2.46a2.373,2.373,0,0,0,1.812.852,2.314,2.314,0,0,0,1.369-.452H17.3a1.873,1.873,0,0,0,1.152-.4h9.891ZM13.588,18.784H11.609V17.79h1.979a2.4,2.4,0,0,0,0,.994m2.384.849a1.348,1.348,0,0,1-.666-.127,1.345,1.345,0,0,1,0-2.438,1.364,1.364,0,0,1,.577-.131c.03,0,.059,0,.089,0a1.894,1.894,0,0,0,0,2.693m.432-1.346a.876.876,0,0,1,.516-.811.908.908,0,0,1,.384-.087.869.869,0,0,1,.478.145V19.04a.9.9,0,0,1-1.379-.753m11.943.5h-9.57V17.79h9.57Zm0-1.988h-9.89a1.87,1.87,0,0,0-1.205-.4,2.314,2.314,0,0,0-2.367-.229,2.346,2.346,0,0,0-.816.629h-2.46V13.458s.176-.487,2.364-.89a34.981,34.981,0,0,1,6.005-.451,34.979,34.979,0,0,1,6.005.451c2.188.4,2.364.886,2.364.89Zm9.059,9.173a7.479,7.479,0,0,1-7.389,6.465h-.676V8.867h-.994v3.362a8.653,8.653,0,0,0-2.183-.639,30.926,30.926,0,0,0-4.128-.424L26.9,2.737A4.491,4.491,0,0,1,29.832,4.5l1.4,1.9a4.484,4.484,0,0,1,.838,2.1l.348,2.8h0l.833,6.7.986-.123-.47-3.78a3.469,3.469,0,0,0,2.168.761h2.958Z" transform="translate(100.456 71.078)" fill="#e39597"/>
    <path id="txt" d="M17.073-15.812c1.356,0,3.244.044,4.444.089v-1.511c-1.133.044-3.044.089-4.444.089H11.984V-18.5h4.044c1.022,0,2.578.022,3.533.067V-19.9c-.956.022-2.511.067-3.533.067H11.984v-1.311h4.933c1.178,0,2.956.022,4,.067v-1.489c-1,.044-2.778.089-4,.089H14.34c.378-.578.556-.867,1.156-1.867.422-.022.6-.111.6-.267a.311.311,0,0,0-.2-.267l-1.556-.667a19.788,19.788,0,0,1-1.489,3.067H8.5l1-.667A10.805,10.805,0,0,0,7.584-25.59l-1.067.778a15.467,15.467,0,0,1,1.6,2.333H5.451c-1.133,0-3.067-.044-3.978-.089v1.489c.933-.022,2.889-.067,3.978-.067H10.54v1.311H6.451c-1.156,0-2.6-.044-3.556-.067v1.467c.956-.044,2.4-.067,3.556-.067H10.54v1.356H5.407c-1.267,0-3.289-.044-4.422-.089v1.511c1.2-.044,3.2-.089,4.422-.089H6.629A16.324,16.324,0,0,1,.54-8.523,6.178,6.178,0,0,1,1.3-7.279a17.974,17.974,0,0,0,4.2-3.8,15.483,15.483,0,0,0,1.378-1.933V-7.1c0,1.089-.022,1.844-.067,2.356H8.384v-.822H16.5v.644h1.556c-.044-.511-.067-1.267-.067-2.311v-5.222c0-.711.044-1.556.067-1.956-.489.022-.956.022-1.6.022H7.607c.222-.467.422-.956.622-1.422ZM16.5-6.9H8.384V-8.079H16.5Zm0-2.511H8.384v-1.133H16.5Zm0-2.467H8.384v-1.178H16.5Zm10.911-7.2a36.241,36.241,0,0,0,1.844-4.978c.467-.133.533-.2.533-.378,0-.133-.089-.222-.311-.311l-1.489-.6a31.1,31.1,0,0,1-4.533,10.578,4.467,4.467,0,0,1,.911,1.378,17.135,17.135,0,0,0,1.956-3.422v7.533c0,2.044-.022,3.556-.067,4.556h1.6c-.067-1.044-.089-2.489-.089-4.556v-5.289c0-2.844.022-3.378.022-3.8.289-.178.422-.311.422-.422,0-.133-.133-.222-.356-.244Zm12.444.022c.022-4.2.022-4.244.044-4.978.289-.178.4-.289.4-.422,0-.111-.133-.2-.333-.222l-1.733-.156c.089.644.133,2.578.133,5.778H32.251c-1,0-2.267-.022-3.111-.067v1.511c.911-.044,2.156-.067,3.111-.067h6.111V-7.368c0,.8-.111.911-.867.911-.267,0-.356,0-2.156-.067a3.38,3.38,0,0,1,.422,1.689c2.089,0,2.822-.089,3.444-.444.533-.289.733-.711.733-1.644,0-.222-.022-.578-.022-1-.044-2.289-.067-3.711-.067-4.844v-4.911h.667c.867,0,2.289.044,3.111.067v-1.511c-.778.044-2.2.067-3.111.067Zm-8.667,3.978a30.464,30.464,0,0,1,2.978,4.822l1.489-.956a29.866,29.866,0,0,0-3.333-4.711Zm30.089-3.089a35.687,35.687,0,0,0,4.178-.6L65.207-20.3a27.216,27.216,0,0,1-3.978.622L61.1-23.59c.356-.244.467-.333.467-.489,0-.178-.178-.311-.467-.333l-1.689-.067c.089.711.133,1.111.289,4.956-.867.111-3.489.222-5,.222-.444,0-1.067-.022-1.733-.044l.022,1.6h.4a61.135,61.135,0,0,0,6.4-.267c.022.6.022,1.333.022,2.622,0,2.822-.178,4.2-.756,5.467-.644,1.467-1.444,2.289-3.489,3.6a2.767,2.767,0,0,1,.889,1.244,9.576,9.576,0,0,0,3.533-3.356c1-1.667,1.333-3.244,1.311-6.756ZM48.118-24.034c-.067.733-.111,1.089-.222,1.844a44.3,44.3,0,0,0-.689,8.156,37.2,37.2,0,0,0,.689,7.8,8.181,8.181,0,0,1,1.578-.444,36.8,36.8,0,0,1-.8-8.2,43.722,43.722,0,0,1,.911-8.067c.422-.178.533-.289.533-.489,0-.133-.156-.267-.378-.311ZM76.5-16.368H73.562q.433-.4.867-.867c.289-.289.556-.578.822-.867H77.3c.644,0,1.578.022,2.2.044v-1.356c-.622.022-1.556.044-2.2.044H76.34a26.654,26.654,0,0,0,2.978-4.578c.467-.133.533-.178.533-.333,0-.111-.111-.222-.311-.311l-1.311-.533a32.671,32.671,0,0,1-1.889,3.467v-1.089c-.333.022-.911.022-1.333.022H73.562v-1.756c.311-.178.422-.311.422-.444s-.133-.2-.4-.222L72.073-25.3c.022.778.044,1.044.044,2.067v.511H69.829c-.444,0-1,0-1.333-.022v1.333c.333-.022.889-.022,1.333-.022h2.289v2.067H69.851c-.644,0-1.578-.022-2.222-.044v1.356c.644-.022,1.578-.044,2.222-.044h3.578c-.578.6-1.156,1.178-1.756,1.733H70.251c-.422,0-.978,0-1.311-.022v1.267c.311-.022.844-.022,1.267-.022A28.673,28.673,0,0,1,67.429-13.3a3.135,3.135,0,0,1,.756,1.111,33.886,33.886,0,0,0,4.044-2.956h3.444a13.742,13.742,0,0,1-2.044,1.889l-.978-.111a13.549,13.549,0,0,1,.178,2.356c-1.689.311-3.444.556-5.289.756l.667,1.533c.067.156.2.267.289.267.156,0,.289-.111.467-.422.622-.133,1.933-.4,3.867-.822v2.333c0,.822-.111.911-.956.911a14.327,14.327,0,0,1-1.622-.067,3.345,3.345,0,0,1,.422,1.689c2.911-.044,3.622-.422,3.622-2a2.1,2.1,0,0,0-.022-.311c-.022-.778-.067-1.956-.067-2.356V-9.99l.378-.089c2.733-.644,2.889-.622,4.6-1.156L79.029-12.5c-1.578.467-3.156.867-4.8,1.222,0-.356.022-.689.022-1.022a17.29,17.29,0,0,0,2.711-2.333l.2-.2c.644-.111.8-.2.8-.378,0-.089-.044-.156-.156-.289l-1.044-1.133Zm-2.933-3v-2.067h1.444c.356,0,.844,0,1.178.022a23.792,23.792,0,0,1-1.578,2.044Zm13.333.511c.422,0,1,0,1.333.022v-1.444c-.333.022-.911.022-1.333.022H81.984a35.009,35.009,0,0,0,.844-4.022c.333-.156.467-.267.467-.4s-.111-.2-.356-.267l-1.422-.333c-.6,5.111-1.556,7.822-3.911,11.111a5.78,5.78,0,0,1,.933,1.044,18.754,18.754,0,0,0,1.867-2.933,13.739,13.739,0,0,0,.267,1.489A22.916,22.916,0,0,0,82.007-10.5c.067.133.133.244.2.378-.111.133-.222.244-.333.378-1.489,1.622-3.267,2.622-6.644,3.711a3.628,3.628,0,0,1,.733,1.289,23.506,23.506,0,0,0,3.778-1.6,12.049,12.049,0,0,0,3.267-2.511A21.013,21.013,0,0,0,87.14-4.879a4.154,4.154,0,0,1,1.133-1.2A16.242,16.242,0,0,1,83.918-9.99a11.215,11.215,0,0,0,1.422-2.822,25,25,0,0,0,1.133-6.044Zm-1.889,0c-.244,2.556-.533,5.222-1.889,7.467a24.8,24.8,0,0,1-1.8-6.8c.067-.178.178-.467.244-.667Zm14.378-4.4H95.073c-1.533,0-3.267-.044-4.422-.089.044.8.044,1.2.044,1.689v.289c0,.422-.022,1.044-.067,1.644h1.622c-.022-.533-.044-1.267-.044-1.644v-.511h15.844v.511c0,.378-.022,1.111-.044,1.644h1.622c-.044-.6-.067-1.222-.067-1.644v-.289c0-.489,0-.889.044-1.689-1.156.044-2.889.089-4.422.089h-4.311V-24.59c.311-.178.444-.311.444-.444s-.133-.2-.422-.222l-1.533-.156c.022.289.022,1.089.022,1.422Zm5.4,5.511c1.178,0,2.978.044,4,.089v-1.556c-1.022.044-2.822.089-4,.089H95.562c-1.156,0-3.044-.044-3.978-.089v1.556c.933-.044,2.822-.089,3.978-.089h1.911a32.877,32.877,0,0,1-1.533,3.067c-1.356.044-2.778.111-4.289.156l.644,1.6c.111.267.178.356.267.356s.178-.067.311-.2l.2-.2c1.089-.111,1.467-.133,5.2-.444,2.289-.178,4.133-.4,6.956-.778.533.422,1.111.933,1.844,1.622L108.14-13.9a18.56,18.56,0,0,0-5.778-3.444l-.644,1.067a20.916,20.916,0,0,1,2.022,1.044c-2.111.2-4.244.356-6.378.467.689-.933,1.244-2,1.867-2.978ZM99.407-6.857H94.3c-1.289,0-3.244-.044-4.422-.089V-5.39c1.178-.044,3.133-.089,4.422-.089h11.689c1.311,0,3.267.044,4.422.089V-6.946c-1.156.044-3.111.089-4.422.089h-5.133v-2.6h3.956c.889,0,2.267.022,3.089.067V-10.9c-.822.044-2.2.067-3.089.067h-3.956v-.333c0-.644,0-.756.022-1.244.289-.178.422-.311.422-.444,0-.111-.133-.2-.4-.222l-1.533-.133c.044.756.044,1.044.044,2.044v.333H95.451c-.933,0-2.244-.022-3.089-.067V-9.39c.844-.044,2.156-.067,3.089-.067h3.956Z" transform="translate(147.303 113.134)" fill="#e39597"/>
    <path id="ON-girl" d="M-49.387-12.864a4.845,4.845,0,0,0,3.4-1.276,4.83,4.83,0,0,0,1.361-3.44,3.592,3.592,0,0,0-1.07-2.65,3.7,3.7,0,0,0-2.722-1.021,4.6,4.6,0,0,0-3.33,1.276,4.5,4.5,0,0,0-1.386,3.367,3.757,3.757,0,0,0,1.045,2.686A3.636,3.636,0,0,0-49.387-12.864Zm.875-7.535a2.872,2.872,0,0,1,2.1.826,3.033,3.033,0,0,1,.851,2.163,3.906,3.906,0,0,1-1.106,2.722,3.746,3.746,0,0,1-2.625.972,2.768,2.768,0,0,1-2.066-.826,3.142,3.142,0,0,1-.839-2.236,3.585,3.585,0,0,1,1.118-2.662A3.76,3.76,0,0,1-48.512-20.4Zm7.159,7.389.766-6.283,5.506,6.648,1.045-8.471h-.9l-.778,6.308-5.506-6.648-1.033,8.447Zm9.456-3.354h2.674l.109-.9h-2.674Zm9.456-.785a1.7,1.7,0,0,0-.632-.6,2.358,2.358,0,0,0-1.118-.243,2.491,2.491,0,0,0-1.872.741,3.227,3.227,0,0,0-.814,2.212,2.366,2.366,0,0,0,.632,1.714,2.169,2.169,0,0,0,1.665.644,2.286,2.286,0,0,0,.972-.219,1.8,1.8,0,0,0,.717-.632l-.073.729a2.4,2.4,0,0,1-.559,1.544,1.744,1.744,0,0,1-1.276.45,1.5,1.5,0,0,1-1.045-.352,1.438,1.438,0,0,1-.4-1.13v-.049h-.863v.073a2.335,2.335,0,0,0,.571,1.641,2.3,2.3,0,0,0,1.7.6,2.621,2.621,0,0,0,1.969-.729,3.5,3.5,0,0,0,.79-2.188l.6-4.922h-.875Zm-1.653-.061a1.383,1.383,0,0,1,1.057.425A1.867,1.867,0,0,1-22.6-15.57a2.4,2.4,0,0,1-.644,1.677,1.814,1.814,0,0,1-1.24.438,1.409,1.409,0,0,1-1.033-.4,1.744,1.744,0,0,1-.45-1.24,2.231,2.231,0,0,1,.656-1.653A1.708,1.708,0,0,1-24.095-17.21Zm5.481-.843-.62,5.044h.875l.62-5.044Zm.049-1.835a.523.523,0,0,0,.146.377.551.551,0,0,0,.413.17.651.651,0,0,0,.486-.207.665.665,0,0,0,.194-.486.54.54,0,0,0-.158-.4.513.513,0,0,0-.389-.146.664.664,0,0,0-.523.231A.713.713,0,0,0-18.565-19.889Zm2.763,9.871h.875l.64-5.466a2.335,2.335,0,0,1,.5-1.41.907.907,0,0,1,.668-.267.82.82,0,0,1,.523.17l.51-.79a1.3,1.3,0,0,0-.741-.207,1.414,1.414,0,0,0-.729.182,1.411,1.411,0,0,0-.51.486l.073-.547h-.875ZM-9.583-21.87l-1.094,8.86H-9.8l1.094-8.86Z" transform="translate(200.973 92.948)" fill="#666"/>
  </g>
</svg>
