<svg xmlns="http://www.w3.org/2000/svg" width="39.2" height="356.84" viewBox="0 0 39.2 356.84">
  <g id="txt" transform="translate(-73.68 -181.06)">
    <rect id="bg" width="39.2" height="356.84" transform="translate(73.68 181.06)" fill="#fff"/>
    <path id="Path_450830" data-name="Path 450830" d="M-2.12-14.18a1.536,1.536,0,0,0,.38-.96c0-.44-.34-.72-1.8-1.5-.12-.06-.32-.18-.56-.3l-.18.26a6.666,6.666,0,0,1,1.22,1.76,2.727,2.727,0,0,0,.42.74h-3.6a8.22,8.22,0,0,1-1.72-.16l.14.7c.42-.04,1.04-.08,1.58-.08h5.5v1.82H-5a10.25,10.25,0,0,1-1.68-.16l.14.74a7.814,7.814,0,0,1,1.46-.12H-.74V-9.4H-6.8a10.227,10.227,0,0,1-2.02-.22l.14.8a10.607,10.607,0,0,1,1.74-.12h2.98a18.835,18.835,0,0,1-1.26,3.1A18.34,18.34,0,0,1-9.02-.6l.2.22A17.043,17.043,0,0,0-4.28-5.5v1.6c0,1.8-.02,2.92-.1,5.18,0,.2.08.28.28.28h.06a1.64,1.64,0,0,1,.38-.02c.52-.04.68-.1.68-.3V.66H4.76v.62c0,.2.06.26.26.26a3.943,3.943,0,0,0,.88-.1c.16-.02.2-.08.24-.26-.06-1.62-.06-3.1-.08-7.3.5-.22.66-.36.66-.52,0-.08-.06-.16-.2-.3-.48-.4-.62-.52-1.12-.88a5.913,5.913,0,0,0-.8.78H-3.42l-.02-.02c.34-.68.36-.72.86-1.88H8.92c.12,0,.24-.06.24-.12a.359.359,0,0,0-.08-.18c-.72-.66-.94-.86-1.68-1.5-.56.56-.74.74-1.3,1.34H.6v-2.04H6.98c.16,0,.26-.04.26-.12,0-.04-.04-.08-.1-.16-.66-.62-.86-.8-1.54-1.36-.46.5-.62.66-1.06,1.18H.6v-1.82H8.46c.08,0,.2-.08.2-.14a.412.412,0,0,0-.1-.18,15.419,15.419,0,0,0-1.68-1.34c-.5.5-.64.68-1.14,1.2H1.98A11.394,11.394,0,0,0,3.9-15.76h.12c.5,0,.8-.1.8-.26,0-.18-.38-.34-2.1-.92a9.782,9.782,0,0,1-1.3,2.76Zm6.88,9.5H-2.98v-1.9H4.76Zm0,.46v1.88H-2.98V-4.22Zm0,2.34V.2H-2.98V-1.88ZM7.08,27.78c-.2,6.06-.74,10.16-1.52,11.56-.14.24-.3.3-.84.3-.28,0-2.7-.16-3.82-.26v.28c.2.04.38.08.58.12l.7.12a4.988,4.988,0,0,1,1.48.48c.3.2.38.4.46,1.1,1.96-.26,2.48-.62,3-2.1.74-2.06,1.14-5.42,1.36-11.14.36-.3.58-.54.58-.64,0-.08-.04-.14-.18-.26l-1.14-.88c-.34.38-.44.5-.8.9H.2A18.68,18.68,0,0,0,1.7,24.5c.54-.08.88-.2.88-.36,0-.18-.46-.36-2.22-.88a2.449,2.449,0,0,1-.12.78C.1,24.5-.5,26.2-.68,26.66a24.949,24.949,0,0,1-2.58,4.52l.22.18A20.7,20.7,0,0,0-.08,27.78H1.74a12.58,12.58,0,0,1-1.4,3.66,15.719,15.719,0,0,1-3.9,4.84l.2.24A14.737,14.737,0,0,0,1.2,32.06a13.358,13.358,0,0,0,1.96-4.28H5c-.92,4.06-2.32,7-4.46,9.28a19.837,19.837,0,0,1-3.9,3.14l.22.26A21.21,21.21,0,0,0,.7,38.02,15.177,15.177,0,0,0,5.54,30.8a23.255,23.255,0,0,0,.86-3.02Zm-14.2.02.36-1.18c.16-.5.16-.5.36-1.1.48-.2.66-.32.66-.42,0-.16-.3-.26-2.02-.66a2.783,2.783,0,0,1,.02.34,21.679,21.679,0,0,1-.4,2.94,23.2,23.2,0,0,1-1.18,4.04l.26.12a21.02,21.02,0,0,0,1.78-3.62H-5.7v4.88A21.167,21.167,0,0,1-9.18,34c.48,1.48.78,2.1,1,2.1.12,0,.18-.12.18-.4,0-.12.02-.28.04-.48A19.3,19.3,0,0,0-5.7,34.14v1.82c0,1.12-.02,2.32-.12,5.48v.06c0,.12.08.16.3.16.74,0,1.2-.14,1.2-.34V41.2l-.06-5.36V33.58a14.91,14.91,0,0,0,2.82-1.56l-.12-.22c-.92.36-1.3.5-2.72.94l.02-4.48h2.52a.155.155,0,0,0,.16-.14.266.266,0,0,0-.06-.14,15.8,15.8,0,0,0-1.28-1.32l-.88,1.14h-.46V24.1c.58-.12.92-.3.92-.46s-.32-.24-1.26-.36c-.22-.04-.58-.08-1.04-.14a15.779,15.779,0,0,1,.06,1.82V27.8Zm2.1,52.92c4.08-2.22,7.18-5.7,9.9-11.06a3.619,3.619,0,0,1,.68-1.1c.24-.26.28-.34.28-.54,0-.24-.2-.54-.62-.96a3.047,3.047,0,0,0-1.46-.92c-.16,0-.16,0-.4.14a6.7,6.7,0,0,1-2.32.56,50.082,50.082,0,0,1-5.7.82A1.924,1.924,0,0,1-6.52,66.5a.641.641,0,0,0-.14.4,2.318,2.318,0,0,0,.52,1.26c.5.68,1.02,1.08,1.44,1.08a1.865,1.865,0,0,0,.74-.2A22.447,22.447,0,0,1-.3,67.9a31.464,31.464,0,0,1,3.7-.68c.3,0,.4.06.4.26,0,.68-1.1,3.12-2.38,5.34A27.382,27.382,0,0,1-5.2,80.48ZM7.7,62.98a2.189,2.189,0,0,0-2.2,2.18,2.22,2.22,0,0,0,2.2,2.2,2.19,2.19,0,0,0,0-4.38Zm0,.66a1.53,1.53,0,0,1,0,3.06,1.554,1.554,0,0,1-1.54-1.54A1.524,1.524,0,0,1,7.7,63.64Zm-.44,46.92a27.116,27.116,0,0,1-3.88,3.36,25.485,25.485,0,0,1-6.82,3.54v-1c0-1.48.12-5.12.22-6.34a10.758,10.758,0,0,1,.26-1.98,1,1,0,0,0,.1-.42c0-.4-.4-.8-1.18-1.22a3.774,3.774,0,0,0-1.6-.48.955.955,0,0,0-.62.2c.88.3,1.2.54,1.38,1.04.26.74.36,2.68.36,7.1a11.3,11.3,0,0,1-.16,3.06c-.1.26-.1.26-.1.36,0,.54.92,1.72,1.32,1.72a.615.615,0,0,0,.46-.26c.36-.38.38-.38,1.5-.96a25.232,25.232,0,0,0,6.04-4.08,17.878,17.878,0,0,0,2.98-3.4Zm-6.22,44.3c.74-.5.98-.66,1.06-.7.14-.1,1.34-1.04,1.82-1.42a14.138,14.138,0,0,1,2.1-1.62c.46-.18.56-.28.56-.56,0-.22-.18-.48-.62-.88a2.918,2.918,0,0,0-1.56-.86.717.717,0,0,0-.52.2c-.44.38-.74.5-5.78,2.18a12.42,12.42,0,0,1,.52-3.66c.16-.38.16-.38.16-.5,0-.26-.2-.52-.6-.74a5.133,5.133,0,0,0-2.22-.6.729.729,0,0,0-.68.28c.82.2,1.32.56,1.48,1.12a23.18,23.18,0,0,1,.18,4.44,20.751,20.751,0,0,1-3.96,1.04c-.58,0-1-.26-1.62-1-.02.12-.04.2-.04.24a2.463,2.463,0,0,0,.56,1.22,2.307,2.307,0,0,0,1.46,1.02,1.167,1.167,0,0,0,.64-.22l.2-.12a1.875,1.875,0,0,1,.36-.18c.22-.1.44-.2.62-.3.38-.16.64-.28.78-.34l.76-.3a1.284,1.284,0,0,0,.22-.1c.04,3.24.18,4.5.62,5.28.6,1.12,1.92,1.54,4.76,1.54a14.887,14.887,0,0,0,3.3-.26c.3-.06.46-.22.46-.46a1.094,1.094,0,0,0-.6-.84,1.679,1.679,0,0,0-.78-.32,1.054,1.054,0,0,0-.4.12,11.2,11.2,0,0,1-3.62.52c-1.26,0-1.96-.22-2.26-.7s-.4-1.4-.4-3.42c0-.6,0-.94.04-1.84.8-.34,1.1-.46,3.54-1.32a13.751,13.751,0,0,1,2.7-.82.137.137,0,0,1,.14.14,23.917,23.917,0,0,1-3.58,4.5Zm3.32-9.66a8.8,8.8,0,0,1,1.52,2.1c.64,1.3.64,1.3.9,1.3.34,0,.62-.36.62-.84s-.28-.94-1-1.58a8.423,8.423,0,0,0-1.78-1.24Zm2.1-1.16a10.244,10.244,0,0,1,2.2,2.86c.16.28.28.38.46.38.3,0,.5-.34.5-.82,0-.56-.26-.96-1.04-1.54a8.264,8.264,0,0,0-1.9-1.14Zm-13,42.86a10.364,10.364,0,0,1,3.26,2.94c.54.7.64.8.86.8.34,0,.56-.46.56-1.12a1.536,1.536,0,0,0-.68-1.36,11.413,11.413,0,0,0-3.86-1.5Zm14.04.72a31.635,31.635,0,0,1-5.38,5.34,29.016,29.016,0,0,1-4.78,3.3,4.97,4.97,0,0,1-1.94.84,1.3,1.3,0,0,1-.8-.42,3.044,3.044,0,0,1-.72-.88.955.955,0,0,0-.1.4c0,1.02,1.52,2.94,2.34,2.94.26,0,.38-.1.7-.48.14-.18.24-.26,1.18-.92a39.542,39.542,0,0,0,5.62-4.56,20.8,20.8,0,0,0,4.2-5.38ZM-3.74,224.38a2.05,2.05,0,0,1,1.52,1.78,32.637,32.637,0,0,1,.14,3.44c0,5.1-.12,7.7-.42,8.66a1.51,1.51,0,0,0-.1.56c0,.66.8,1.74,1.28,1.74a.454.454,0,0,0,.36-.18,1.275,1.275,0,0,0,.1-.68c0-.3,0-.64-.02-1.06-.04-1.68-.04-1.68-.04-2.28v-2.92c0-.6,0-1.22-.02-2.48a11.513,11.513,0,0,1,4.7,2.6c.52.48.54.48.74.48.3,0,.48-.34.48-.92,0-.72-.34-1.12-1.24-1.54a18.081,18.081,0,0,0-4.66-1.12,15.133,15.133,0,0,1,.36-4.36c.12-.3.12-.3.12-.44,0-.38-.48-.78-1.32-1.1a4.04,4.04,0,0,0-1.48-.34A.8.8,0,0,0-3.74,224.38Zm4.1,51.16c.08-2.68.44-7.42.74-9.3a4.7,4.7,0,0,0,.06-.66c0-.5-.38-.72-1.16-.72-.74,0-1.14.24-1.14.7a3.092,3.092,0,0,0,.08.68,86.233,86.233,0,0,1,.7,9.3ZM0,277.22a1.315,1.315,0,0,0-1.34,1.34A1.315,1.315,0,0,0,0,279.9a1.315,1.315,0,0,0,1.34-1.34A1.292,1.292,0,0,0,0,277.22Z" transform="translate(93 228)" fill="#454545"/>
  </g>
</svg>
