<svg xmlns="http://www.w3.org/2000/svg" width="39.02" height="397.82" viewBox="0 0 39.02 397.82">
  <g id="txt" transform="translate(-73.78 -181.1)">
    <rect id="bg" width="39.02" height="397.82" transform="translate(73.78 181.1)" fill="#fff"/>
    <path id="Path_450829" data-name="Path 450829" d="M.6-14.22v-1.62c.66-.18.9-.32.9-.5,0-.2-.18-.26-1.28-.4-.24-.02-.64-.08-1.12-.16a9.327,9.327,0,0,1,.1,1.62v1.06H-6.36a6.5,6.5,0,0,1-1.74-.2l.14.76a8.164,8.164,0,0,1,1.6-.1H8.1c.14,0,.24-.06.24-.14,0-.06-.04-.12-.12-.2-.72-.68-.94-.86-1.68-1.48-.48.56-.64.74-1.12,1.36Zm1.4,5a29.484,29.484,0,0,0,2.3-3.06c.78-.06,1-.14,1-.34,0-.14-.8-.5-2.26-.98a17.157,17.157,0,0,1-1.6,4.38H-6.84a8.107,8.107,0,0,1-2.04-.24l.12.84a8.33,8.33,0,0,1,1.94-.14H8.92c.16,0,.28-.08.28-.16a.438.438,0,0,0-.12-.2C8.32-9.8,8.06-10,7.22-10.66c-.48.6-.62.8-1.1,1.44Zm-6.62-4.2a10.249,10.249,0,0,1,1.28,3.26c.1.58.22.76.46.76a.7.7,0,0,0,.48-.34,2.524,2.524,0,0,0,.42-1.08c0-.32-.24-.72-.76-1.24a11.38,11.38,0,0,0-1.66-1.5ZM-4.12.36H4.02v.92c0,.2.1.26.44.26.82,0,1.06-.08,1.08-.36C5.48-.2,5.46-.78,5.46-2.5c0-1.5,0-2.14.02-3.42.56-.34.66-.42.66-.58a.242.242,0,0,0-.12-.18A16.54,16.54,0,0,0,4.64-7.6c-.32.4-.42.52-.72.92H-4.02c-.68-.42-.9-.54-1.58-.92a29.858,29.858,0,0,1,.08,3.48c0,3.14-.02,4.3-.06,5.48,0,.2.1.26.4.26.78,0,1.04-.08,1.06-.34ZM4.02-3.58H-4.12V-6.22H4.02Zm0,.46V-.1H-4.12V-3.12Zm-12.3,43.4A15.077,15.077,0,0,0-4.7,37.62a18.49,18.49,0,0,0,4.44-7.6,31.228,31.228,0,0,1,3.72-.54c.4,0,.54.18.54.68a27.119,27.119,0,0,1-1.24,6.22c-.46,1.32-.7,1.68-1.12,1.68A20.189,20.189,0,0,1-2,37.08l-.12.28C.3,38.66.48,38.78.66,39.38c.08.28.26.46.48.46a2.676,2.676,0,0,0,1.68-.72C3.68,38.34,4.14,37,4.9,33.2l.2-.96.16-.76.06-.3a1.722,1.722,0,0,1,.28-.76.948.948,0,0,0,.18-.48c0-.24-.22-.52-.68-.92-.54-.46-.76-.58-1.04-.58a.623.623,0,0,0-.4.12,1.736,1.736,0,0,1-.34.14,5.7,5.7,0,0,1-.96.14c-.8.12-1.6.22-2.38.34a14.069,14.069,0,0,1,.96-2.7c.2-.32.2-.36.2-.5,0-.3-.16-.52-.56-.78a4.139,4.139,0,0,0-2.12-.72,1.062,1.062,0,0,0-.54.12c.96.4,1.34.8,1.34,1.46a14.43,14.43,0,0,1-.68,3.32,36.493,36.493,0,0,1-4.04.5,1.765,1.765,0,0,1-1.72-1.06.631.631,0,0,0-.1.32,2.325,2.325,0,0,0,.46,1.14,1.96,1.96,0,0,0,1.36.94,1.059,1.059,0,0,0,.52-.14,16.55,16.55,0,0,1,3.26-.84,20.421,20.421,0,0,1-6.76,9.78ZM4.54,25.4a9.031,9.031,0,0,1,1.54,2.1c.62,1.3.62,1.3.88,1.3.34,0,.62-.36.62-.84s-.28-.94-1-1.6A10.2,10.2,0,0,0,4.8,25.12Zm2.12-1.16a10.084,10.084,0,0,1,2.18,2.84c.16.3.28.4.46.4.3,0,.5-.34.5-.82,0-.56-.26-.96-1.02-1.54a9.81,9.81,0,0,0-1.92-1.16Zm-14.64,95.2a10.226,10.226,0,0,0,3.78-4.28,19.093,19.093,0,0,0,1.36-3.68c.18-.62.18-.62.2-.7a2.857,2.857,0,0,0,.26-.92c0-.32-.34-.66-1.08-1.1a3.009,3.009,0,0,0-1.5-.5.835.835,0,0,0-.54.18c1.02.38,1.36.78,1.36,1.56a15.264,15.264,0,0,1-1.38,5.42,11.953,11.953,0,0,1-2.68,3.8Zm16.6-8.4a22.559,22.559,0,0,1-7.56,5.66,8.608,8.608,0,0,1-.04-.92c0-.76.18-5.18.26-6.02a9.466,9.466,0,0,1,.28-1.96,1.507,1.507,0,0,0,.16-.54c0-.28-.24-.56-.82-.92a3.663,3.663,0,0,0-1.76-.62.69.69,0,0,0-.64.3c1.46.32,1.54.58,1.54,5.12a40.112,40.112,0,0,1-.18,5.42,4.915,4.915,0,0,0-.14.62c0,.62.74,1.66,1.2,1.66.14,0,.24-.06.4-.22a11.383,11.383,0,0,1,1.14-.9,28.294,28.294,0,0,0,4.24-3.66,13.765,13.765,0,0,0,2.18-2.82ZM-2.12,145.82a1.537,1.537,0,0,0,.38-.96c0-.44-.34-.72-1.8-1.5-.12-.06-.32-.18-.56-.3l-.18.26a6.665,6.665,0,0,1,1.22,1.76,2.727,2.727,0,0,0,.42.74h-3.6a8.221,8.221,0,0,1-1.72-.16l.14.7c.42-.04,1.04-.08,1.58-.08h5.5v1.82H-5a10.251,10.251,0,0,1-1.68-.16l.14.74a7.814,7.814,0,0,1,1.46-.12H-.74v2.04H-6.8a10.227,10.227,0,0,1-2.02-.22l.14.8a10.609,10.609,0,0,1,1.74-.12h2.98a18.835,18.835,0,0,1-1.26,3.1,18.34,18.34,0,0,1-3.8,5.24l.2.22a17.043,17.043,0,0,0,4.54-5.12v1.6c0,1.8-.02,2.92-.1,5.18,0,.2.08.28.28.28h.06a1.64,1.64,0,0,1,.38-.02c.52-.04.68-.1.68-.3v-.58H4.76v.62c0,.2.06.26.26.26a3.943,3.943,0,0,0,.88-.1c.16-.02.2-.08.24-.26-.06-1.62-.06-3.1-.08-7.3.5-.22.66-.36.66-.52,0-.08-.06-.16-.2-.3-.48-.4-.62-.52-1.12-.88a5.914,5.914,0,0,0-.8.78H-3.42l-.02-.02c.34-.68.36-.72.86-1.88H8.92c.12,0,.24-.06.24-.12a.359.359,0,0,0-.08-.18c-.72-.66-.94-.86-1.68-1.5-.56.56-.74.74-1.3,1.34H.6v-2.04H6.98c.16,0,.26-.04.26-.12,0-.04-.04-.08-.1-.16-.66-.62-.86-.8-1.54-1.36-.46.5-.62.66-1.06,1.18H.6v-1.82H8.46c.08,0,.2-.08.2-.14a.412.412,0,0,0-.1-.18,15.42,15.42,0,0,0-1.68-1.34c-.5.5-.64.68-1.14,1.2H1.98a11.4,11.4,0,0,0,1.92-1.58h.12c.5,0,.8-.1.8-.26,0-.18-.38-.34-2.1-.92a9.783,9.783,0,0,1-1.3,2.76Zm6.88,9.5H-2.98v-1.9H4.76Zm0,.46v1.88H-2.98v-1.88Zm0,2.34v2.08H-2.98v-2.08Zm-13.4,35.8a17.982,17.982,0,0,0,2.82-3.6v5.9c0,1.44-.02,2.66-.08,4.94v.04c0,.16.12.26.34.26h.04a3.087,3.087,0,0,1,.34-.02c.56-.04.74-.14.76-.4-.04-2.26-.04-2.26-.04-4.92V190.7c.58-.22.66-.26.66-.42,0-.18-.26-.24-1.7-.46a25.66,25.66,0,0,0,2.7-5.32c.78-.12.98-.22.98-.44,0-.08-.06-.14-.18-.2-.3-.12-1.38-.42-2.18-.62a18.381,18.381,0,0,1-1.38,4.36,30.517,30.517,0,0,1-3.34,6.14Zm13-4.56v9.84c0,.28-.12.38-.46.4-1.02-.02-1.16-.04-2.84-.12-.32-.02-.84-.04-1.44-.08l-.02.28c3.18.62,3.32.68,3.54,1.66a4.778,4.778,0,0,0,2.12-.64,1.293,1.293,0,0,0,.54-1.14c-.04-1.16-.06-3.12-.06-4.42v-5.78H9.1c.12,0,.24-.08.24-.18a.33.33,0,0,0-.1-.18,22.309,22.309,0,0,0-1.78-1.58,18,18,0,0,0-1.14,1.48H5.74v-4.4c.6-.2.86-.36.86-.52,0-.24-.58-.38-2.36-.58a13.9,13.9,0,0,1,.12,2.14v3.36H-2.22a15.206,15.206,0,0,1-1.74-.14l.14.7c.86-.08,1.22-.1,1.6-.1Zm-6.5,2.1A12.53,12.53,0,0,1,.5,195.7c.14.38.3.54.5.54.3,0,.8-.84.8-1.36,0-.44-.18-.72-.9-1.42a14.833,14.833,0,0,0-2.86-2.18Zm-1.4,40.36c-.36,1.08-1.56,4.34-1.8,4.94a7.183,7.183,0,0,1-.48-3.12,16.7,16.7,0,0,1,1.04-5.56,2.782,2.782,0,0,0,.28-1.1,2.741,2.741,0,0,0-.88-1.6,2.034,2.034,0,0,0-1.32-.78,3.331,3.331,0,0,1,.72,1.92A14.559,14.559,0,0,1-6.3,229a24.661,24.661,0,0,0-.44,4.54,11.5,11.5,0,0,0,.96,5.18c.24.46.54.72.84.72.34,0,.5-.3.5-.94a2.21,2.21,0,0,0-.02-.32v-.22a39.354,39.354,0,0,1,1.22-6.06Zm1.7-2.98a3.772,3.772,0,0,0,3.14,1.42A11.421,11.421,0,0,0,3.62,230v1.02c0,3.44-.32,5.22-1.26,6.86a9.459,9.459,0,0,1-2.82,3.08l.16.26a10.2,10.2,0,0,0,3.04-2.18c1.5-1.58,2.04-3.2,2.04-6.36v-2.94a14.8,14.8,0,0,0,2.72-.88c.56-.28.7-.4.7-.64,0-.32-.56-.6-1.2-.6a.628.628,0,0,0-.42.14,4.378,4.378,0,0,1-1.82.86,9.705,9.705,0,0,1,.26-2.88,2.254,2.254,0,0,0,.1-.48c0-.6-.96-1-2.4-1-.66,0-.8.04-1.1.3.94.22,1.5.52,1.7.92a8,8,0,0,1,.24,2.8v.7a11.526,11.526,0,0,1-2.88.42,3.356,3.356,0,0,1-2.32-.8ZM9.46,268.7a.134.134,0,0,0,.14-.12.169.169,0,0,0-.04-.12c-.74-.66-.96-.86-1.72-1.5a12.645,12.645,0,0,0-1.04,1.28H3.52a28.922,28.922,0,0,0,1.3-3.76c.7-.12.9-.22.9-.38,0-.18-.32-.32-1.16-.5-.22-.04-.58-.12-1.04-.24a26.46,26.46,0,0,1-.98,4.2,29.359,29.359,0,0,1-2.8,6.62l.22.18a17.744,17.744,0,0,0,2.26-3.46,18.262,18.262,0,0,0,1.56,4.86,13.039,13.039,0,0,1-2.44,2.76,19.736,19.736,0,0,1-3.88,2.52l.08.22a14.7,14.7,0,0,0,4.24-2.06,11.9,11.9,0,0,0,2.6-2.36,18.092,18.092,0,0,0,1.3,1.78,10.46,10.46,0,0,0,2.3,2.14,1.6,1.6,0,0,1,1.64-1l.02-.32a11.375,11.375,0,0,1-4.56-3.54,13.967,13.967,0,0,0,1.74-3.86,18.879,18.879,0,0,0,.68-3.34Zm-3.28,0a16.933,16.933,0,0,1-1.84,6.14,15.448,15.448,0,0,1-1.82-4.48c.58-1.2.58-1.2.78-1.66Zm-9.94-2.36v-2.1c.72-.24.88-.34.88-.48,0-.18-.34-.28-1.18-.36-.24-.02-.62-.06-1.1-.12.02.2.06.82.08,1.86v1.2H-6.92a4.942,4.942,0,0,1-1.38-.18l.12.72a10.842,10.842,0,0,1,1.26-.08h1.84v2.94H-7.8a6.92,6.92,0,0,1-1.4-.14l.16.7a8.9,8.9,0,0,1,1.26-.1h4.22a22.016,22.016,0,0,1-1.88,2.28H-7.18a7.72,7.72,0,0,1-1.4-.14l.16.68c.72-.06,1.08-.08,1.12-.08h1.42a30.771,30.771,0,0,1-3.34,2.92l.2.26a22.95,22.95,0,0,0,4.22-3.18h2.44a9.254,9.254,0,0,1-.78,1.62c-.28-.04-.42-.06-1.06-.12a5.016,5.016,0,0,0,.06.62,6.655,6.655,0,0,1,.04.68v.28a27.3,27.3,0,0,1-4.92.94c.16.44.4,1.06.62,1.56.12.3.16.36.26.36.12,0,.22-.14.28-.44.02-.08.06-.2.1-.34.28-.1.28-.1,1.14-.38,1.32-.44,1.32-.44,1.88-.62a5.607,5.607,0,0,1,.64-.22v2.62c0,.28-.06.34-.28.36-.64,0-.66,0-2.08-.1-.18,0-.46-.02-.84-.04V280l.42.06.46.06a3.077,3.077,0,0,1,.92.26c.24.12.3.22.58.84a6.415,6.415,0,0,0,1.24-.26,1.082,1.082,0,0,0,.84-.92v-.94c-.02-.24-.02-.42-.02-.52v-2.14c1.3-.44,1.84-.66,3.08-1.18l-.08-.3c-1.22.32-1.74.46-3,.76v-.5c.34-.12.54-.26.54-.36,0-.08-.14-.16-.46-.22a2.612,2.612,0,0,1,.3-.24c1.14-.9,1.14-.9,1.52-1.18.1-.04.2-.06.3-.1l.3-.08a1.348,1.348,0,0,0,.38-.18.211.211,0,0,0,.04-.1c0-.06-.04-.1-.12-.16a6.5,6.5,0,0,0-1.44-.9,8.8,8.8,0,0,0-.7.78H-4.32c.82-.84,1.38-1.46,2.06-2.28H1.42c.04,0,.1-.08.1-.14a.27.27,0,0,0-.1-.18A11.6,11.6,0,0,0-.06,268.7c-.38.44-.5.58-.86,1.04H-1.9c.88-1.14,2.18-3.02,3.06-4.44.78-.1.9-.14.9-.28s-.24-.28-.92-.56c-.22-.1-.56-.24-1-.44a16.392,16.392,0,0,1-1.24,2.52c-.84-.7-.88-.74-1.46-1.22-.4.46-.52.6-.86,1.02Zm2.48.46c-.84,1.34-1.26,1.98-1.94,2.94h-.54V266.8Zm-1,42.16a18.646,18.646,0,0,1-1.68,3.42c-1.54.04-1.6.04-1.78.04-.26.02-.42.02-.56.02a10.709,10.709,0,0,1-1.1-.06c.3,1.62.48,2.18.76,2.18.2,0,.3-.24.34-.86,1.52-.1,4.44-.44,6.44-.72.5-.08,2.08-.34,4.4-.72.24.3.3.36.82,1.06.96,1.28.96,1.28,1.1,1.28.28,0,.52-.56.52-1.24a1.17,1.17,0,0,0-.28-.82,10.58,10.58,0,0,0-1.9-1.48,13.906,13.906,0,0,0-2.62-1.44l-.12.18a26.043,26.043,0,0,1,2.12,2.06c-3.92.36-5.26.46-7.5.52a27.634,27.634,0,0,0,2.78-3.42H6.78a.112.112,0,0,0,.12-.1c0-.04-.04-.08-.1-.14-.78-.64-1.04-.84-1.74-1.4-.44.5-.58.64-1,1.18H-4.8c-1.44-.14-1.44-.14-1.82-.18l.22.78a8.112,8.112,0,0,1,1.6-.14Zm-4.12-3.42a6.194,6.194,0,0,0,.04-.84,4.4,4.4,0,0,0-.02-.46h-.34a5.445,5.445,0,0,1-.64,1.92,3.342,3.342,0,0,1-1.26,1.28c-.22.16-.28.26-.28.46,0,.46.44,1.2.72,1.2s.8-.44,1.08-.94A5.86,5.86,0,0,0-6.44,306H6.4a13.018,13.018,0,0,1-.42,1.7l.2.12a13.672,13.672,0,0,0,1.26-1.1l.36-.36c.18-.04.4-.06.66-.1a1.964,1.964,0,0,0,.52-.12.254.254,0,0,0,.08-.14c0-.08-.04-.14-.14-.2-.76-.58-1-.76-1.82-1.3-.5.56-.5.56-.92,1.04H.62V304.1q.63-.18.78-.24a.3.3,0,0,0,.16-.2c0-.24-.44-.34-2.36-.52a10.058,10.058,0,0,1,.06,1.46v.94ZM.62,316.46V314.7c.76-.24.88-.3.88-.44,0-.18-.14-.22-2.34-.54.08.94.1,1.4.1,1.98v.76H-5.36a12.29,12.29,0,0,1-1.92-.22l.22.78a15.985,15.985,0,0,1,1.66-.1H-.74v3.4h-6.3a12.3,12.3,0,0,1-1.92-.2l.2.8a15.746,15.746,0,0,1,1.72-.14H9.2c.08,0,.16-.06.16-.12s-.06-.14-.16-.22c-.84-.68-1.1-.88-1.94-1.5-.58.58-.74.78-1.26,1.38H.62v-3.4H7.3c.1,0,.18-.06.18-.12a.325.325,0,0,0-.08-.18c-.74-.66-.98-.86-1.78-1.5-.52.6-.68.78-1.14,1.34Z" transform="translate(93 228)" fill="#454545"/>
    <path id="Path_450828" data-name="Path 450828" d="M-7.74-9.46c-.14.14-.16.18-.16.46a3.594,3.594,0,0,0,.76,1.84q.51.66.96.66a1.594,1.594,0,0,0,.3-.06c.32-.18.5-.2,1.44-.26C-3.74-6.86.84-6.98,2.7-7c3.78-.04,4.26-.06,4.8-.24a.587.587,0,0,0,.46-.54.416.416,0,0,0-.28-.4,7.935,7.935,0,0,0-2.6-.18c-.66,0-7.02.1-7.8.12-2.24.06-2.24.06-2.46.06a2.668,2.668,0,0,1-1.94-.48A1.794,1.794,0,0,1-7.74-9.46Z" transform="translate(85 300) rotate(90)" fill="#454545"/>
  </g>
</svg>
