<svg xmlns="http://www.w3.org/2000/svg" width="16.283" height="15.863" viewBox="0 0 16.283 15.863">
  <path id="Path_169816" data-name="Path 169816" d="M795.359,463.778a.628.628,0,0,1-.232-.044.605.605,0,0,1-.372-.559v-2.682h-1.247a6.289,6.289,0,1,1,0-12.578h3.7a6.271,6.271,0,0,1,2.062,12.2l-3.486,3.488A.605.605,0,0,1,795.359,463.778Zm-1.851-14.656a5.082,5.082,0,1,0,0,10.165h1.851a.6.6,0,0,1,.6.6v1.827l2.555-2.556a.617.617,0,0,1,.24-.148,5.064,5.064,0,0,0-1.548-9.891Z" transform="translate(-787.217 -447.915)" fill="#9e9d9d"/>
</svg>
