<svg xmlns="http://www.w3.org/2000/svg" width="60" height="58.717" viewBox="0 0 60 58.717">
  <g id="obj" transform="translate(0 -0.001)">
    <path id="Path_450789" data-name="Path 450789" d="M34.858,28.5h.007c.294-.006.431-.054,1.356-1.021.868-.907,8.474-9.069,8.311-16.206C44.447,7.535,43.393,4.635,41.4,2.65A9.525,9.525,0,0,0,34.212,0c-7.414.172-9.92,6.173-9.793,11.732.093,4.086,2.757,8.375,4.977,11.254.866,1.124,4.562,5.507,5.462,5.507" transform="translate(-4.784 0.001)" fill="#d1e4f7"/>
    <path id="Path_450790" data-name="Path 450790" d="M51.116,38.8c5.93,0,12.524-3.359,14-4.155,1.413-.761,1.449-.882,1.528-1.147.338-1.134-6.419-12.51-13.279-14.581-3.56-1.076-6.749-.938-9.223.394a9.713,9.713,0,0,0-4.608,6.007c-2.127,7.151,2.766,11.405,8.054,13a12.237,12.237,0,0,0,3.528.479" transform="translate(-39.024 -3.103)" fill="#fff"/>
    <path id="Path_450791" data-name="Path 450791" d="M46.424,65.545a8.618,8.618,0,0,0,1.542-.139c2.773-.5,5.362-2.406,7.486-5.5,4.073-5.93,2.3-19.065,1.333-19.739-.243-.169-.4-.214-1.8.042-2,.365-12.169,2.475-16.083,8.174-3.139,4.571-4.323,10.97,1.771,15.218a10.039,10.039,0,0,0,5.748,1.942" transform="translate(-28.14 -6.827)" fill="#d1e4f7"/>
    <path id="Path_450792" data-name="Path 450792" d="M20.554,64.956a9.914,9.914,0,0,0,6.052-2.215c5.894-4.525,4.419-10.862,1.074-15.284C23.5,41.932,13.232,40.3,11.217,40.033c-1.39-.187-1.541-.134-1.773.046C8.51,40.8,7.339,54,11.677,59.733c2.262,2.99,4.933,4.769,7.726,5.146a8.509,8.509,0,0,0,1.15.077" transform="translate(22.289 -6.807)" fill="#d1e4f7"/>
    <path id="Path_450793" data-name="Path 450793" d="M15,37.782a12.833,12.833,0,0,0,4.272-.66c5.209-1.84,9.9-6.316,7.451-13.361a9.7,9.7,0,0,0-4.875-5.786c-2.533-1.218-5.726-1.207-9.234.032C5.863,20.392-.371,32.068.017,33.186c.091.261.133.381,1.567,1.07S9.272,37.782,15,37.782" transform="translate(32.605 -2.911)" fill="#d1e4f7"/>
  </g>
</svg>
