<svg xmlns="http://www.w3.org/2000/svg" width="75.168" height="73.213" viewBox="0 0 75.168 73.213">
  <g id="obj" transform="translate(0 -0.001)">
    <path id="Path_450420" data-name="Path 450420" d="M74.322,26.763A17.456,17.456,0,0,0,54.874,14.909a17.442,17.442,0,0,0-34.5-.074A17.441,17.441,0,0,0,9.637,47.625,17.442,17.442,0,0,0,37.506,67.966,17.442,17.442,0,0,0,65.464,47.747a17.458,17.458,0,0,0,8.858-20.984" fill="#fff"/>
    <path id="Path_450421" data-name="Path 450421" d="M51.392,38.137a1.726,1.726,0,0,0-1.625.819l-9.027-.822,8.375-3.467a1.731,1.731,0,1,0-.587-1.417l-8.376,3.467,5.813-6.972a1.72,1.72,0,1,0-1.186-.974l-5.8,6.961,1.905-8.861a1.73,1.73,0,1,0-1.5-.322l-1.9,8.863-2.432-8.733a1.731,1.731,0,1,0-1.479.412l2.432,8.73-6.219-6.609a1.73,1.73,0,1,0-1.118,1.052l6.221,6.611L26.31,33.916a1.731,1.731,0,1,0-.5,1.45l8.569,2.959-8.963,1.362a1.731,1.731,0,1,0,.231,1.517l8.961-1.362-7.3,5.371a1.731,1.731,0,1,0,.909,1.236l7.3-5.37-3.97,8.148a1.731,1.731,0,1,0,1.381.673L36.9,41.752l.272,9.059a1.73,1.73,0,1,0,1.534-.046l-.271-9.06,4.45,7.9a1.731,1.731,0,1,0,1.337-.754l-4.451-7.9,7.611,4.924a1.731,1.731,0,1,0,.834-1.289L40.6,39.662l9.028.823a1.728,1.728,0,1,0,1.764-2.348" fill="#a0b6df"/>
  </g>
</svg>
