<svg xmlns="http://www.w3.org/2000/svg" width="38.583" height="39.598" viewBox="0 0 38.583 39.598">
  <path id="Path_450422" data-name="Path 450422" d="M3.152,26.154C4.614,27.5,6.253,29,8.383,29.222A9.206,9.206,0,0,0,9.9,35.058a8.289,8.289,0,0,0,4.976,4.3c2.494.7,4.64-.227,6.41-1.224,1.732-.975,3.667-2.069,4.533-4.027a9.228,9.228,0,0,0,6.021.358,8.291,8.291,0,0,0,5.625-3.406c1.433-2.156,1.217-4.483.816-6.474-.392-1.949-.835-4.128-2.429-5.556a9.22,9.22,0,0,0,2.2-5.615,8.288,8.288,0,0,0-1.5-6.4c-1.608-2.03-3.887-2.543-5.905-2.777a11.021,11.021,0,0,0-5.344.252,5.322,5.322,0,0,0-.692.338A9.217,9.217,0,0,0,19.955,1,8.289,8.289,0,0,0,13.4.445L13.251.5A8.29,8.29,0,0,0,8.937,5.2c-.828,1.807-1.751,3.83-1.3,5.924a6.19,6.19,0,0,0-1.286.355,10.82,10.82,0,0,0-3.8,2.893A8.288,8.288,0,0,0,.007,20.436c.107,2.587,1.65,4.342,3.145,5.718M22.3,18.3a5.043,5.043,0,0,0,1.334,1.169,8.771,8.771,0,0,0-1.309,1.522,5.035,5.035,0,0,0-.7,1.628,8.72,8.72,0,0,0-1.852-.773,5.02,5.02,0,0,0-1.765-.162,8.749,8.749,0,0,0,.163-2,5.034,5.034,0,0,0-.391-1.728,8.747,8.747,0,0,0,1.953-.463l.107-.041a5.08,5.08,0,0,0,1.415-.868A8.775,8.775,0,0,0,22.3,18.3" transform="translate(-0.001 0)" fill="#fff"/>
</svg>
