<svg xmlns="http://www.w3.org/2000/svg" width="73.561" height="71.988" viewBox="0 0 73.561 71.988">
  <g id="obj" transform="translate(0 -0.001)">
    <path id="Path_450789" data-name="Path 450789" d="M37.218,34.939h.008c.36-.007.529-.066,1.663-1.252,1.065-1.112,10.39-11.119,10.189-19.869-.1-4.58-1.4-8.136-3.841-10.57A11.678,11.678,0,0,0,36.427.006C27.337.217,24.265,7.574,24.42,14.39c.114,5.009,3.38,10.267,6.1,13.8,1.062,1.378,5.593,6.752,6.7,6.752" transform="translate(-0.348 0.001)" fill="#fff"/>
    <path id="Path_450790" data-name="Path 450790" d="M53.848,43.451c7.271,0,15.354-4.118,17.165-5.094,1.732-.932,1.777-1.081,1.873-1.406.415-1.39-7.87-15.338-16.28-17.876-4.364-1.319-8.274-1.15-11.308.483a11.909,11.909,0,0,0-5.65,7.364c-2.607,8.768,3.391,13.983,9.874,15.942a15,15,0,0,0,4.326.587" transform="translate(-39.024 0.308)" fill="#fff"/>
    <path id="Path_450791" data-name="Path 450791" d="M48.707,71.311a10.566,10.566,0,0,0,1.89-.171c3.4-.618,6.574-2.95,9.177-6.741,4.994-7.271,2.819-23.374,1.634-24.2-.3-.207-.489-.262-2.2.052-2.451.447-14.919,3.034-19.717,10.021-3.849,5.6-5.3,13.449,2.171,18.658a12.308,12.308,0,0,0,7.047,2.381" transform="translate(-26.29 0.677)" fill="#fff"/>
    <path id="Path_450792" data-name="Path 450792" d="M23.264,70.615a12.155,12.155,0,0,0,7.42-2.716C37.91,62.351,36.1,54.582,32,49.161c-5.125-6.772-17.713-8.77-20.184-9.1-1.7-.229-1.889-.165-2.174.056-1.145.879-2.58,17.067,2.738,24.1,2.773,3.666,6.048,5.847,9.472,6.309a10.432,10.432,0,0,0,1.41.095" transform="translate(29.261 0.675)" fill="#fff"/>
    <path id="Path_450793" data-name="Path 450793" d="M18.4,42.464a15.733,15.733,0,0,0,5.237-.809c6.386-2.255,12.139-7.744,9.135-16.381a11.9,11.9,0,0,0-5.977-7.094c-3.106-1.493-7.021-1.48-11.321.039C7.188,21.143-.455,35.458.021,36.828c.112.32.163.467,1.921,1.312,1.775.854,9.426,4.324,16.453,4.324" transform="translate(39.974 0.289)" fill="#fff"/>
  </g>
</svg>
