<svg xmlns="http://www.w3.org/2000/svg" width="42.575" height="43.695" viewBox="0 0 42.575 43.695">
  <path id="Path_450422" data-name="Path 450422" d="M39.1,28.861c-1.613,1.484-3.422,3.143-5.772,3.384.36,2.376-.626,4.573-1.677,6.44a9.147,9.147,0,0,1-5.491,4.742c-2.752.769-5.12-.251-7.073-1.351-1.911-1.076-4.046-2.283-5-4.444-2.15,1.075-4.544.817-6.644.4a9.149,9.149,0,0,1-6.207-3.759C-.35,31.89-.112,29.322.331,27.125c.433-2.151.921-4.555,2.68-6.131C1.324,19.282.829,16.924.582,14.8A9.145,9.145,0,0,1,2.239,7.733c1.774-2.24,4.289-2.806,6.516-3.064,1.912-.223,4.027-.468,5.9.278a5.873,5.873,0,0,1,.764.373C16.523,3.188,18.61,1.991,20.556,1.1a9.146,9.146,0,0,1,7.23-.608l.168.065c2.567,1.024,3.847,3.19,4.76,5.185s1.932,4.226,1.435,6.537a6.831,6.831,0,0,1,1.419.392,11.94,11.94,0,0,1,4.189,3.192,9.146,9.146,0,0,1,2.812,6.688c-.118,2.855-1.821,4.791-3.47,6.31m-21.132-8.67a5.564,5.564,0,0,1-1.472,1.29,9.678,9.678,0,0,1,1.444,1.68,5.556,5.556,0,0,1,.772,1.8,9.622,9.622,0,0,1,2.044-.853,5.54,5.54,0,0,1,1.948-.179,9.654,9.654,0,0,1-.18-2.208,5.555,5.555,0,0,1,.431-1.907A9.652,9.652,0,0,1,20.8,19.3l-.118-.045A5.605,5.605,0,0,1,19.12,18.3a9.683,9.683,0,0,1-1.153,1.895" transform="translate(-0.001 0)" fill="#f2cdce"/>
</svg>
