<svg xmlns="http://www.w3.org/2000/svg" width="64.842" height="63.156" viewBox="0 0 64.842 63.156">
  <g id="Group_206797" data-name="Group 206797" transform="translate(0 -0.001)">
    <path id="Path_450420" data-name="Path 450420" d="M64.113,23.087A15.058,15.058,0,0,0,47.336,12.861,15.046,15.046,0,0,0,17.573,12.8a15.045,15.045,0,0,0-9.26,28.286A15.046,15.046,0,0,0,32.354,58.63,15.046,15.046,0,0,0,56.471,41.188a15.06,15.06,0,0,0,7.641-18.1" fill="#f2cdce"/>
    <path id="Path_450421" data-name="Path 450421" d="M47.392,36.122a1.489,1.489,0,0,0-1.4.707L38.2,36.12l7.225-2.991a1.493,1.493,0,1,0-.506-1.222L37.7,34.9l5.014-6.014a1.484,1.484,0,1,0-1.023-.84l-5.007,6L38.324,26.4a1.493,1.493,0,1,0-1.3-.278l-1.642,7.646-2.1-7.533a1.493,1.493,0,1,0-1.276.355l2.1,7.531-5.365-5.7a1.493,1.493,0,1,0-.964.907l5.366,5.7-7.392-2.553a1.493,1.493,0,1,0-.432,1.251l7.392,2.553-7.732,1.175a1.493,1.493,0,1,0,.2,1.309l7.73-1.175-6.3,4.633a1.493,1.493,0,1,0,.784,1.066l6.3-4.632-3.425,7.029a1.493,1.493,0,1,0,1.191.581l3.424-7.029.235,7.815a1.493,1.493,0,1,0,1.323-.04L36.211,39.2l3.839,6.811a1.493,1.493,0,1,0,1.153-.65l-3.84-6.811L43.929,42.8a1.493,1.493,0,1,0,.719-1.112l-6.566-4.248,7.788.71a1.491,1.491,0,1,0,1.522-2.025" transform="translate(-3.06 -3.223)" fill="#fff"/>
  </g>
</svg>
