<svg xmlns="http://www.w3.org/2000/svg" width="73.3" height="63.55" viewBox="0 0 73.3 63.55">
  <g id="obj" transform="translate(-4.501 -750)">
    <path id="Path_450422" data-name="Path 450422" d="M3.152,26.154C4.614,27.5,6.253,29,8.383,29.221A9.206,9.206,0,0,0,9.9,35.057a8.289,8.289,0,0,0,4.976,4.3c2.494.7,4.64-.227,6.41-1.224,1.732-.975,3.667-2.069,4.533-4.027a9.228,9.228,0,0,0,6.021.358,8.291,8.291,0,0,0,5.625-3.406c1.433-2.156,1.217-4.483.816-6.474-.392-1.949-.835-4.128-2.429-5.556a9.22,9.22,0,0,0,2.2-5.615,8.287,8.287,0,0,0-1.5-6.4c-1.608-2.03-3.887-2.543-5.905-2.777a11.021,11.021,0,0,0-5.344.252,5.322,5.322,0,0,0-.692.338A9.217,9.217,0,0,0,19.955,1,8.289,8.289,0,0,0,13.4.445L13.251.5A8.29,8.29,0,0,0,8.937,5.2c-.828,1.807-1.751,3.83-1.3,5.924a6.19,6.19,0,0,0-1.286.355,10.82,10.82,0,0,0-3.8,2.893A8.288,8.288,0,0,0,.007,20.436c.107,2.587,1.65,4.342,3.145,5.718M22.3,18.3a5.043,5.043,0,0,0,1.334,1.169,8.771,8.771,0,0,0-1.309,1.522,5.034,5.034,0,0,0-.7,1.628,8.72,8.72,0,0,0-1.852-.773,5.02,5.02,0,0,0-1.765-.162,8.748,8.748,0,0,0,.163-2,5.034,5.034,0,0,0-.391-1.728,8.747,8.747,0,0,0,1.953-.463l.107-.041a5.08,5.08,0,0,0,1.415-.868A8.775,8.775,0,0,0,22.3,18.3" transform="translate(4.5 750)" fill="#f2cdce"/>
    <path id="Path_450423" data-name="Path 450423" d="M45.195,52.886c1.16,1.067,2.46,2.259,4.149,2.433a7.315,7.315,0,0,0,1.206,4.629,5.968,5.968,0,0,0,9.033,2.438c1.373-.773,2.908-1.641,3.6-3.194a7.317,7.317,0,0,0,4.776.284,5.969,5.969,0,0,0,5.11-7.838c-.311-1.545-.663-3.273-1.927-4.407a7.3,7.3,0,0,0,1.745-4.454A5.967,5.967,0,0,0,67.008,35.5a8.748,8.748,0,0,0-4.239.2,4.212,4.212,0,0,0-.549.268,7.314,7.314,0,0,0-3.7-3.034,6.574,6.574,0,0,0-5.2-.437l-.121.047a6.58,6.58,0,0,0-3.422,3.727c-.656,1.434-1.388,3.039-1.031,4.7a4.982,4.982,0,0,0-1.02.282,8.583,8.583,0,0,0-3.011,2.295A6.579,6.579,0,0,0,42.7,48.351a6.514,6.514,0,0,0,2.495,4.535m15.191-6.232a4.01,4.01,0,0,0,1.058.928,6.886,6.886,0,0,0-1.038,1.207,3.991,3.991,0,0,0-.555,1.291,6.927,6.927,0,0,0-1.47-.613,4.008,4.008,0,0,0-1.4-.129,6.909,6.909,0,0,0,.13-1.587A4,4,0,0,0,56.8,46.38a6.9,6.9,0,0,0,1.55-.367l.085-.033a3.992,3.992,0,0,0,1.122-.688,6.93,6.93,0,0,0,.829,1.362" transform="translate(4.5 750)" fill="#f2cdce"/>
  </g>
</svg>
