<svg xmlns="http://www.w3.org/2000/svg" width="74.962" height="20" viewBox="0 0 74.962 20">
  <path id="ON-girl" d="M-46.813-6.672A8.175,8.175,0,0,0-41.07-8.826a8.151,8.151,0,0,0,2.3-5.8,6.061,6.061,0,0,0-1.8-4.471,6.241,6.241,0,0,0-4.594-1.723,7.753,7.753,0,0,0-5.62,2.154,7.59,7.59,0,0,0-2.338,5.681,6.34,6.34,0,0,0,1.764,4.533A6.136,6.136,0,0,0-46.813-6.672Zm1.477-12.716a4.847,4.847,0,0,1,3.548,1.395,5.118,5.118,0,0,1,1.436,3.651,6.591,6.591,0,0,1-1.866,4.594,6.321,6.321,0,0,1-4.43,1.641A4.672,4.672,0,0,1-50.136-9.5a5.3,5.3,0,0,1-1.415-3.774,6.049,6.049,0,0,1,1.887-4.492A6.344,6.344,0,0,1-45.336-19.388Zm12.08,12.47,1.292-10.6L-22.673-6.3l1.764-14.3h-1.518L-23.74-9.954l-9.291-11.219L-34.774-6.919ZM-17.3-12.579h4.512L-12.6-14.1h-4.512ZM-1.344-13.9a2.864,2.864,0,0,0-1.066-1A3.98,3.98,0,0,0-4.3-15.32a4.2,4.2,0,0,0-3.158,1.251,5.445,5.445,0,0,0-1.374,3.733A3.992,3.992,0,0,0-7.763-7.444a3.661,3.661,0,0,0,2.81,1.087,3.858,3.858,0,0,0,1.641-.369A3.044,3.044,0,0,0-2.1-7.793l-.123,1.231a4.046,4.046,0,0,1-.943,2.6A2.943,2.943,0,0,1-5.322-3.2a2.524,2.524,0,0,1-1.764-.595A2.427,2.427,0,0,1-7.763-5.7v-.082H-9.219v.123a3.941,3.941,0,0,0,.964,2.769,3.877,3.877,0,0,0,2.871,1A4.424,4.424,0,0,0-2.061-3.116,5.9,5.9,0,0,0-.728-6.808l1-8.306H-1.2Zm-2.789-.1a2.333,2.333,0,0,1,1.784.718,3.151,3.151,0,0,1,.738,2.051A4.051,4.051,0,0,1-2.7-8.408a3.061,3.061,0,0,1-2.092.738,2.377,2.377,0,0,1-1.743-.677,2.942,2.942,0,0,1-.759-2.092,3.765,3.765,0,0,1,1.108-2.789A2.882,2.882,0,0,1-4.133-14.007Zm9.25-1.423L4.071-6.919H5.548L6.594-15.43Zm.082-3.1a.882.882,0,0,0,.246.636.929.929,0,0,0,.7.287,1.1,1.1,0,0,0,.82-.349,1.122,1.122,0,0,0,.328-.82.912.912,0,0,0-.267-.677.866.866,0,0,0-.656-.246,1.121,1.121,0,0,0-.882.39A1.2,1.2,0,0,0,5.2-18.527ZM9.862-1.87h1.477l1.08-9.225a3.94,3.94,0,0,1,.841-2.379,1.53,1.53,0,0,1,1.128-.451,1.384,1.384,0,0,1,.882.287l.861-1.333a2.194,2.194,0,0,0-1.251-.349,2.387,2.387,0,0,0-1.231.308,2.382,2.382,0,0,0-.861.82l.123-.923H11.434Zm10.494-20L18.51-6.919h1.477L21.832-21.87Z" transform="translate(53.13 21.87)" fill="#fff"/>
</svg>
