<svg xmlns="http://www.w3.org/2000/svg" xmlns:xlink="http://www.w3.org/1999/xlink" width="59.03" height="95" viewBox="0 0 59.03 95">
  <defs>
    <clipPath id="clip-path">
      <rect id="Rectangle_109694" data-name="Rectangle 109694" width="59.03" height="95" fill="none" stroke="#fcfbfb" stroke-width="1"/>
    </clipPath>
  </defs>
  <g id="Group_199946" data-name="Group 199946" clip-path="url(#clip-path)">
    <path id="Path_382046" data-name="Path 382046" d="M54,2.747c-2.239-.647-3.885.752-4.87,2.041-5.214,6.823-9.576,12.556-13.918,18.362a6.033,6.033,0,0,1-5.448,2.695c-1.086-.046-2.17-.035-3.319-.022-1.439.016-2.926.033-4.423-.075a6.391,6.391,0,0,1-4.049-2.01,20.768,20.768,0,0,1-4.9-9.147c-.48-2-1.117-3.936-1.792-5.989-.3-.921-.605-1.842-.892-2.767C9.615,3.358,8.088,2,6.169,2a4.667,4.667,0,0,0-1.359.212,3.739,3.739,0,0,0-2.344,1.78,5.741,5.741,0,0,0-.087,4.362q.479,1.57.942,3.148c.817,2.756,1.662,5.606,2.638,8.326a26.65,26.65,0,0,0,2.922,5.811c2.252,3.343,4.72,6.652,7.106,9.851l1.145,1.537c1.393,1.873,1.562,1.786.5,3.823-.613,1.179-1.214,2.4-1.794,3.587-.616,1.255-1.252,2.552-1.917,3.823a15.083,15.083,0,0,0-1.608,9c1.4,11.294,2.692,21.527,3.966,31.283a5.1,5.1,0,0,0,10.14-1.136c-.071-.946-.2-1.891-.342-2.892-.066-.475-.132-.949-.191-1.425L22.7,57.662l3.219-1.736,1.022,1.565q.762,1.168,1.532,2.331c1.382,2.1,2.81,4.26,4.147,6.452a6.588,6.588,0,0,1,.857,3.855c-.223,2.385-.489,4.8-.747,7.132-.374,3.39-.76,6.895-1.014,10.334a4.943,4.943,0,0,0,4.654,5.363c2.985.177,5.138-1.751,5.488-4.9q.195-1.753.385-3.507c.481-4.4.978-8.943,1.575-13.413A13.19,13.19,0,0,0,41.46,60.95a96.048,96.048,0,0,1-6-9.15,9.042,9.042,0,0,1-1.08-5.4c.259-2.015.674-1.935,1.075-3.858.28-1.34.569-2.725.794-4.076a14.961,14.961,0,0,1,3.2-7.089c2.107-2.618,4.173-5.363,6.17-8.018q1.26-1.674,2.525-3.344,1.213-1.593,2.437-3.178c1.822-2.368,3.7-4.816,5.481-7.262a4.6,4.6,0,0,0,.74-4.218A4.1,4.1,0,0,0,54,2.747Z" fill="none" stroke="#fcfbfb" stroke-miterlimit="10" stroke-width="4"/>
    <path id="Path_382047" data-name="Path 382047" d="M26.343,4.964h-.06A7.572,7.572,0,0,0,20.9,7.2,7.777,7.777,0,0,0,18.6,12.8a7.655,7.655,0,0,0,7.683,7.678h.041a7.748,7.748,0,0,0,5.532-2.324A7.552,7.552,0,0,0,34.1,12.706,7.871,7.871,0,0,0,26.343,4.964Z" fill="none" stroke="#fcfbfb" stroke-miterlimit="10" stroke-width="4"/>
  </g>
</svg>
