<svg xmlns="http://www.w3.org/2000/svg" xmlns:xlink="http://www.w3.org/1999/xlink" width="116.682" height="26" viewBox="0 0 116.682 26">
  <defs>
    <linearGradient id="linear-gradient" y1="0.5" x2="1" y2="0.5" gradientUnits="objectBoundingBox">
      <stop offset="0" stop-color="#a0b6df"/>
      <stop offset="1" stop-color="#eeb0b0"/>
    </linearGradient>
  </defs>
  <path id="Path_233450" data-name="Path 233450" d="M30.151,7.81a4.61,4.61,0,0,1,.782-.058h.521c.55.029,1.013.029,1.39.058,1.563.058,1.766.058,2.316.058h.811q-.087,1.824-.087,3.04a11.266,11.266,0,0,0-3.967,2.606,9.217,9.217,0,0,0-2.9,6.6c0,3.243,2,5.443,4.951,5.443,2.461,0,4.922-1.3,7.644-4.053A24.161,24.161,0,0,0,46.8,13.833c1.766.811,2.548,1.853,2.548,3.445,0,1.911-1.245,3.474-3.474,4.372a13.237,13.237,0,0,1-5.154.84,14.624,14.624,0,0,1,1.737,4.053,19.911,19.911,0,0,0,5.878-1.419c3.359-1.563,5.212-4.256,5.212-7.586A6.628,6.628,0,0,0,50.968,12.1a7.711,7.711,0,0,0-2.982-1.535A4.973,4.973,0,0,0,48.3,9.75c.29-.724.29-.724.376-.927l-3.909-1.1A11.141,11.141,0,0,1,44.28,9.75a7.915,7.915,0,0,0-1.013-.087,14.775,14.775,0,0,0-3.619.347c0-.55,0-.84.029-1.187a8.975,8.975,0,0,0,.058-1.071c2.49-.058,7.122-.492,10.134-.927.637-.087.782-.116,1.216-.145l-.2-3.967A51.534,51.534,0,0,1,39.995,4.22a13.8,13.8,0,0,1,.463-3.3l-4.227-.2a5.382,5.382,0,0,1,.029.753c0,.811,0,.869-.029,1.361-.087,1.071-.087,1.071-.116,1.506h-.637a28.824,28.824,0,0,1-5.356-.405Zm5.791,7.036a37.476,37.476,0,0,0,.492,5.993,3.338,3.338,0,0,1-2.085.84c-.927,0-1.448-.724-1.448-1.94A6.045,6.045,0,0,1,35.941,14.846ZM39.59,13.4a7.841,7.841,0,0,1,2.751-.463,2.85,2.85,0,0,1,.811.058,19.8,19.8,0,0,1-3.33,5.241C39.676,16.728,39.618,15.6,39.59,13.4ZM65.647.688a23.176,23.176,0,0,1-.782,4.835c-.55.029-1.1.058-1.274.058a21.579,21.579,0,0,1-4.053-.29V9.229h1.1c.984.058.984.058,1.3.058h.347c.695-.029.695-.029,1.563-.029a38.486,38.486,0,0,1-5.443,11.2l3.967,2.2c.174-.376.174-.376.55-1.1,1.1-2.085,1.361-2.606,2.027-4.024a57.618,57.618,0,0,0,3.156-8.4c2.316-.2,3.5-.318,4.517-.463a6.915,6.915,0,0,1,.9-.116l-.087-4a20.594,20.594,0,0,1-4.372.753c.058-.29.058-.29.174-.724.2-1.013.347-1.65.405-1.911a8.682,8.682,0,0,1,.405-1.563Zm19.283,7.3A44.783,44.783,0,0,0,76.5,4.1L74.449,7.463a37.8,37.8,0,0,1,8.628,4.111Zm-.174,13.145c-.232-.174-.232-.174-.492-.376-.492-.405-.753-.608-1.129-.869a19.88,19.88,0,0,0-4.372-2.519,27.9,27.9,0,0,1-.261-3.909,8.779,8.779,0,0,1,.376-2.866l-4.024-.2a18.211,18.211,0,0,0-.232,3.214,26.381,26.381,0,0,0,.145,2.808,12.494,12.494,0,0,0-2.114-.174,8.578,8.578,0,0,0-3.1.434,5.15,5.15,0,0,0-3.677,4.864c0,3.1,2.606,5.154,6.572,5.154,2.374,0,4.343-.724,5.356-1.969a4.625,4.625,0,0,0,.984-3.1A17.125,17.125,0,0,1,82.9,25.009Zm-9.9-1.042a4.388,4.388,0,0,1,.058.811c0,1.419-.84,2.143-2.577,2.143-1.535,0-2.432-.637-2.432-1.679,0-1.013,1.071-1.708,2.664-1.708A6.132,6.132,0,0,1,74.855,20.087Zm15.229-10.8c.261,0,.347-.029.55-.029l3.1.087h.811a63.784,63.784,0,0,1-5.067,15.316l4.459,1.65c.145-.521.376-1.187.666-2,1.332-3.822,1.65-4.777,2.519-7.933A69.856,69.856,0,0,0,98.8,9.2a32.723,32.723,0,0,0,4.082-.434c1.042-.174,1.042-.174,1.592-.232l-.145-3.967a30.407,30.407,0,0,1-4.835.811c.087-.579.116-.637.232-1.419a20.319,20.319,0,0,1,.579-2.808L95.73.775v.492a32.9,32.9,0,0,1-.492,4.285c-.724.029-.753.029-.955.029a22.823,22.823,0,0,1-4.14-.29Zm23.452.058c-1.824-.029-1.94-.029-2.664-.029a40.962,40.962,0,0,0-9.12.927l.289,3.793a35.2,35.2,0,0,1,7.846-.782,30.934,30.934,0,0,1,3.735.2ZM101.752,15.6c-1.621,2.229-2.229,3.706-2.229,5.269a4.3,4.3,0,0,0,2.143,3.764,11.414,11.414,0,0,0,5.993,1.245,32.783,32.783,0,0,0,5.53-.492c.724-.087.955-.116,1.477-.174l-.29-4.285a21.138,21.138,0,0,1-6.486,1.129c-2.808,0-4.14-.666-4.14-2.027,0-.955.318-1.65,1.477-3.185Zm26.637-4.806a.509.509,0,0,1,.174-.029c.376,0,.376,0,.84.029,1.245.087,3.822.174,4.864.174.637,0,1.129,0,1.969-.029.087,3.069.145,4.372.174,5.356a8.683,8.683,0,0,0-2.085-.232c-3.822,0-6.341,2.056-6.341,5.183s2.432,5.038,6.428,5.038c3.677,0,5.993-1.621,5.993-4.169a3.347,3.347,0,0,0-.029-.492,17.448,17.448,0,0,1,3.735,2.982l1.592-4.169c-.318-.2-.405-.261-.84-.55a23.374,23.374,0,0,0-4.43-2.519c-.232-3.706-.261-4.343-.29-6.688a33.084,33.084,0,0,0,3.677-.579,7.116,7.116,0,0,1,1.129-.174l-.145-3.938a24.529,24.529,0,0,1-4.69.955,32.924,32.924,0,0,1,.2-5.3h-4.285a7.388,7.388,0,0,1,.116,1.506c.029,1.94.029,1.94.029,4.082-.984.029-1.506.029-2.316.029a25.615,25.615,0,0,1-5.414-.434Zm8.107,9.236a2.694,2.694,0,0,1,.029.608c0,1.448-.724,2.085-2.4,2.085-1.419,0-2.287-.579-2.287-1.506,0-.984,1.013-1.621,2.548-1.621A5.215,5.215,0,0,1,136.5,20.029Zm-14.129-18.5a16.164,16.164,0,0,1-.347,2.461c-.579,3.127-.579,3.127-.695,4a51.923,51.923,0,0,0-.55,7.788,58.6,58.6,0,0,0,.782,9.5c.087.608.087.782.116,1.158l4.14-.2c-.029-.521-.058-.811-.058-.927a22.9,22.9,0,0,1,2.606-8.831l-2.461-.984c-.463.927-.666,1.448-1.3,3.011,0-.463.029-1.592.029-2.171A55.427,55.427,0,0,1,125,10.735c.434-3.474,1.3-7.586,1.911-8.8Z" transform="translate(-29.022 -0.688)" fill="url(#linear-gradient)"/>
</svg>
