<svg xmlns="http://www.w3.org/2000/svg" width="90" height="83" viewBox="0 0 90 83">
  <g id="Group_46" data-name="Group 46" transform="translate(-0.295 -0.562)" opacity="0.497">
    <g id="Group_60" data-name="Group 60" transform="translate(0 0)">
      <path id="Path_375" data-name="Path 375" d="M81.889,24.39H70.805V16.316A10.546,10.546,0,0,0,60.195,5.8H13.111A10.546,10.546,0,0,0,2.5,16.316V78.284A10.546,10.546,0,0,0,13.111,88.8H77.247A15.175,15.175,0,0,0,92.5,73.683V34.906A10.546,10.546,0,0,0,81.889,24.39ZM13.111,80.162a1.892,1.892,0,0,1-1.895-1.878V16.316a1.892,1.892,0,0,1,1.895-1.878H60.195a1.892,1.892,0,0,1,1.895,1.878V73.777a14.648,14.648,0,0,0,1.421,6.385Zm70.579-6.385a6.442,6.442,0,0,1-12.884,0V33.029H81.795a1.892,1.892,0,0,1,1.895,1.878Z" transform="translate(-2.205 -5.238)" fill="#fff"/>
      <path id="Path_376" data-name="Path 376" d="M49.615,25.6H25.869A4.358,4.358,0,0,0,21.5,29.969a4.419,4.419,0,0,0,4.369,4.369H49.615a4.358,4.358,0,0,0,4.369-4.369A4.419,4.419,0,0,0,49.615,25.6Z" transform="translate(-3.453 -6.793)" fill="#fff"/>
      <path id="Path_377" data-name="Path 377" d="M49.615,45.4H25.869A4.358,4.358,0,0,0,21.5,49.769a4.419,4.419,0,0,0,4.369,4.369H49.615a4.358,4.358,0,0,0,4.369-4.369A4.419,4.419,0,0,0,49.615,45.4Z" transform="translate(-3.453 -7.787)" fill="#fff"/>
      <path id="Path_378" data-name="Path 378" d="M49.615,65.2H25.869A4.358,4.358,0,0,0,21.5,69.569a4.419,4.419,0,0,0,4.369,4.369H49.615a4.358,4.358,0,0,0,4.369-4.369A4.419,4.419,0,0,0,49.615,65.2Z" transform="translate(-3.453 -8.78)" fill="#fff"/>
    </g>
  </g>
</svg>
