<svg xmlns="http://www.w3.org/2000/svg" xmlns:xlink="http://www.w3.org/1999/xlink" width="198.354" height="131.736" viewBox="0 0 198.354 131.736">
  <defs>
    <filter id="bg" x="0" y="18.322" width="198.354" height="113.414" filterUnits="userSpaceOnUse">
      <feOffset dy="5" input="SourceAlpha"/>
      <feGaussianBlur stdDeviation="5" result="blur"/>
      <feFlood flood-opacity="0.051"/>
      <feComposite operator="in" in2="blur"/>
      <feComposite in="SourceGraphic"/>
    </filter>
    <filter id="Path_233451" x="28.829" y="0" width="161.371" height="45.16" filterUnits="userSpaceOnUse">
      <feOffset dy="1" input="SourceAlpha"/>
      <feGaussianBlur stdDeviation="2" result="blur-2"/>
      <feFlood flood-opacity="0.161"/>
      <feComposite operator="in" in2="blur-2"/>
      <feComposite in="SourceGraphic"/>
    </filter>
  </defs>
  <g id="Group_200277" data-name="Group 200277" transform="translate(-181.645 -25268.973)">
    <g transform="matrix(1, 0, 0, 1, 181.65, 25268.97)" filter="url(#bg)">
      <path id="bg-2" data-name="bg" d="M2413.917-18087.867c25.5-5.2,46.878,6.656,69.141,0s52.4-4.055,58.875,26.988c1.9,20.4-3.914,33.914-15.343,42.123-10.529,7.559-25.388,12.549-35.264,11.039-10.425-1.6-27.727-4.814-45.279-4.57-16.477,1.783-30.608,5.916-44.47,1.428-20.562-5.512-28.071-16.842-27.624-39.145S2388.413-18082.666,2413.917-18087.867Z" transform="translate(-2358.93 18119.18)" fill="#fff"/>
    </g>
    <g transform="matrix(1, 0, 0, 1, 181.65, 25268.97)" filter="url(#Path_233451)">
      <path id="Path_233451-2" data-name="Path 233451" d="M161.419,0l6.949,13.84L161.419,33.16H27.554L19,20.1,27.554,4.579Z" transform="translate(15.83 5)" fill="#fff"/>
    </g>
  </g>
</svg>
