<svg xmlns="http://www.w3.org/2000/svg" xmlns:xlink="http://www.w3.org/1999/xlink" width="355" height="42.57" viewBox="0 0 355 42.57">
  <defs>
    <linearGradient id="linear-gradient" x1="0.5" x2="0.5" y2="1" gradientUnits="objectBoundingBox">
      <stop offset="0" stop-color="#a0b6df"/>
      <stop offset="1" stop-color="#eeb0b0"/>
    </linearGradient>
  </defs>
  <g id="Group_206788" data-name="Group 206788" transform="translate(-10 -24959.623)">
    <path id="arrow" d="M21.413,342.64l-6.132,5.078V7.378l6.132,5.078a2.651,2.651,0,0,0,1.533.479,2.267,2.267,0,0,0,2.012-1.054,2.383,2.383,0,0,0-.287-3.545L16.239,1.15a5.749,5.749,0,0,0-6.9,0L.909,8.336a2.481,2.481,0,0,0-.287,3.545,2.564,2.564,0,0,0,3.545.287L10.3,7.09V347.431l-5.94-4.982a2.383,2.383,0,0,0-3.545.287,2.638,2.638,0,0,0,.287,3.545l8.431,7.186A4.008,4.008,0,0,0,12.885,355a5.692,5.692,0,0,0,3.545-1.246l8.431-7.186a2.481,2.481,0,0,0,.287-3.545,2.829,2.829,0,0,0-3.737-.383" transform="translate(10 24994.129) rotate(-90)" fill="url(#linear-gradient)"/>
    <path id="Path_232634" data-name="Path 232634" d="M57.671,881l7.655,42.571,139.122-4.851,3.129-32.558Z" transform="translate(-22.671 24078.623)" fill="#a0b6df"/>
    <path id="Path_232635" data-name="Path 232635" d="M177.577,881l-7.655,42.571L27.8,918.719l-3.129-32.558Z" transform="translate(166.829 24078.623)" fill="#eeb0b0"/>
  </g>
</svg>
