<svg xmlns="http://www.w3.org/2000/svg" width="241.693" height="163.432" viewBox="0 0 241.693 163.432">
  <g id="Group_206692" data-name="Group 206692" transform="translate(-63.551 -300.192)">
    <path id="Path_450866" data-name="Path 450866" d="M-81.2-19.36a10.964,10.964,0,0,0,.56-1.12A244.438,244.438,0,0,1-66.16-48.16q7.12-10.8,11.2-10.8,3.12,0,3.84,6.8.08,1.04.08,2.16a51.2,51.2,0,0,1-.44,6.48q-.44,3.44-1,7.04A89.736,89.736,0,0,0-53.92-22.8q2.72-4.4,7.24-10.68a109.907,109.907,0,0,1,9.2-11.24q4.68-4.96,7.96-5.28h.08a3.245,3.245,0,0,1,2.84,1.72q1.08,1.72,1.08,5.72a36.7,36.7,0,0,1-.32,4.48q-.4,3.04-1.28,7.6-.8,4.4-1.6,9.36a60.281,60.281,0,0,0-.8,9.6,27.166,27.166,0,0,0,1,7.6,11.257,11.257,0,0,0,3.4,5.52q2.4,2.08,6.8,2.08a23.463,23.463,0,0,0,4.4-.48,1.773,1.773,0,0,1,.56-.08,1.973,1.973,0,0,1,1.32.44,1.363,1.363,0,0,1,.52,1.08,1.546,1.546,0,0,1-.64,1.12,4.862,4.862,0,0,1-2.16.88,20.437,20.437,0,0,1-3.84.4q-5.28,0-8.16-2.68a14.156,14.156,0,0,1-4-7,37.558,37.558,0,0,1-1.12-9.44,76.611,76.611,0,0,1,.72-10.44q.72-5.24,1.52-9.56.56-3.6.88-5.92.24-2.72.24-4.48a8.585,8.585,0,0,0-.44-3.32,1.362,1.362,0,0,0-1.24-.92h-.08q-2.88.32-7.4,5.32a122.905,122.905,0,0,0-8.88,11.12q-4.36,6.12-6.6,9.72a6.584,6.584,0,0,1-1.76,1.96,3.339,3.339,0,0,1-1.92.76q-1.36,0-1.6-2.4-.08-.8-.08-1.6a37.178,37.178,0,0,1,.52-6.2q.52-3.08,1.16-6.12.64-3.12,1.12-6.24a52.7,52.7,0,0,0,.56-7.44,17.993,17.993,0,0,0-.48-4.48q-.48-1.84-1.68-1.84a4.153,4.153,0,0,0-2.48,1.52Q-63.52-48.4-71.4-33.56T-87.52,4.24a2.478,2.478,0,0,1-.96,1.4,2.45,2.45,0,0,1-1.44.52,1.605,1.605,0,0,1-1.12-.44,1.816,1.816,0,0,1-.48-1.4,4.07,4.07,0,0,1,.08-.8,10.8,10.8,0,0,1,.24-1.28q1.04-5.6,2-11.76.56-3.36,1.12-8.68a108.312,108.312,0,0,0,.56-11.32,83.194,83.194,0,0,0-.6-10,38.053,38.053,0,0,0-2.12-8.96,16.056,16.056,0,0,0-4.2-6.4,9.867,9.867,0,0,0-6.84-2.4h-.32q-4.88.16-8.48,5.88t-4.08,15.16l.08.56a2.608,2.608,0,0,1-.64,1.92,1.911,1.911,0,0,1-1.36.64,1.606,1.606,0,0,1-1.16-.52,2.241,2.241,0,0,1-.52-1.64v-.4a32.172,32.172,0,0,1,2.96-12.84,22.363,22.363,0,0,1,6.48-8.28,13.644,13.644,0,0,1,7.6-2.64q5.76,0,9.76,5.36a29.2,29.2,0,0,1,4.44,9.72A56.914,56.914,0,0,1-84.8-29.2q0,4.24-.48,9.2-.56,6.32-.96,9.44-.32,2.56-.32,3.28v.24q.24,0,1.12-2.48Q-84.16-12.72-81.2-19.36ZM-11.68-28q.72-1.68,2-1.68a2.071,2.071,0,0,1,1.4.52,1.853,1.853,0,0,1,.6,1.48,3.442,3.442,0,0,1-.08.64q-1.2,3.28-2.16,5.68a10.44,10.44,0,0,0-.72,3.44q0,1.68,1.36,1.92a6.207,6.207,0,0,0,2.8-1.12A60.212,60.212,0,0,0-.44-21.64q3.08-2.6,5-4.36a1.612,1.612,0,0,1,.96-.48.652.652,0,0,1,.72.64A1.508,1.508,0,0,1,5.6-24.8,55.538,55.538,0,0,0-.32-20.24a61.856,61.856,0,0,1-5.92,4.48,8.129,8.129,0,0,1-3.84,1.36q-3.44,0-3.44-5.12a12.691,12.691,0,0,1,.16-1.92A39.6,39.6,0,0,1-11.68-28Zm3.36-11.52a1.3,1.3,0,0,1,.92.44,3.62,3.62,0,0,1,.72,1.04,4.637,4.637,0,0,1,.36,1A1.936,1.936,0,0,1-6.8-36a6.575,6.575,0,0,1-1.12,1.16,1.9,1.9,0,0,1-1.12.52q-.32,0-.4-.2a1.7,1.7,0,0,1-.08-.6v-.48a1.773,1.773,0,0,0,.08-.56,2.349,2.349,0,0,0-.16-.88,1.773,1.773,0,0,1-.08-.56,2.182,2.182,0,0,1,.44-1.32A1.2,1.2,0,0,1-8.32-39.52ZM13.76-27.36A11.55,11.55,0,0,0,12-25.96,2.629,2.629,0,0,0,11.12-24a2.35,2.35,0,0,0,.08.56,7.235,7.235,0,0,0,1.52,2.24,11.964,11.964,0,0,1,1.6,2,4.359,4.359,0,0,1,.72,2.4,6.361,6.361,0,0,1-1.6,3.68A61.232,61.232,0,0,0,24.88-26.08a.917.917,0,0,1,.72-.4.688.688,0,0,1,.44.16.578.578,0,0,1,.2.48,1.368,1.368,0,0,1-.24.64q-3.04,3.76-6.72,7.76a48.433,48.433,0,0,1-7.92,6.96,5.69,5.69,0,0,1-2.4,1.04q-.72,0-.72-.56,0-.8,2-2.24A6.985,6.985,0,0,0,12.6-14.4a4.061,4.061,0,0,0,.68-2.08,2.974,2.974,0,0,0-.08-.72,10.648,10.648,0,0,0-2.24-3.12,1.428,1.428,0,0,0-.4-.4,10.3,10.3,0,0,1-1.68-2.16,4.233,4.233,0,0,1-.72-2.32q0-2.08,3.12-4.88a3.521,3.521,0,0,1,1.92-.8,1.615,1.615,0,0,1,1.44.72,1.678,1.678,0,0,1,.24.88A2.832,2.832,0,0,1,13.76-27.36Zm20.24,0a11.55,11.55,0,0,0-1.76,1.4A2.629,2.629,0,0,0,31.36-24a2.351,2.351,0,0,0,.08.56,7.235,7.235,0,0,0,1.52,2.24,11.964,11.964,0,0,1,1.6,2,4.359,4.359,0,0,1,.72,2.4,6.361,6.361,0,0,1-1.6,3.68A61.232,61.232,0,0,0,45.12-26.08a.917.917,0,0,1,.72-.4.688.688,0,0,1,.44.16.578.578,0,0,1,.2.48,1.368,1.368,0,0,1-.24.64q-3.04,3.76-6.72,7.76a48.434,48.434,0,0,1-7.92,6.96,5.69,5.69,0,0,1-2.4,1.04q-.72,0-.72-.56,0-.8,2-2.24a6.985,6.985,0,0,0,2.36-2.16,4.061,4.061,0,0,0,.68-2.08,2.974,2.974,0,0,0-.08-.72,10.648,10.648,0,0,0-2.24-3.12,1.428,1.428,0,0,0-.4-.4,10.3,10.3,0,0,1-1.68-2.16,4.233,4.233,0,0,1-.72-2.32q0-2.08,3.12-4.88a3.521,3.521,0,0,1,1.92-.8,1.615,1.615,0,0,1,1.44.72,1.678,1.678,0,0,1,.24.88A2.832,2.832,0,0,1,34-27.36ZM49.52-28q.72-1.68,2-1.68a2.071,2.071,0,0,1,1.4.52,1.853,1.853,0,0,1,.6,1.48,3.442,3.442,0,0,1-.08.64q-1.2,3.28-2.16,5.68a10.44,10.44,0,0,0-.72,3.44q0,1.68,1.36,1.92a6.207,6.207,0,0,0,2.8-1.12,60.212,60.212,0,0,0,6.04-4.52q3.08-2.6,5-4.36a1.612,1.612,0,0,1,.96-.48.652.652,0,0,1,.72.64,1.508,1.508,0,0,1-.64,1.04,55.537,55.537,0,0,0-5.92,4.56,61.857,61.857,0,0,1-5.92,4.48,8.129,8.129,0,0,1-3.84,1.36q-3.44,0-3.44-5.12a12.691,12.691,0,0,1,.16-1.92A39.6,39.6,0,0,1,49.52-28Zm3.36-11.52a1.3,1.3,0,0,1,.92.44,3.621,3.621,0,0,1,.72,1.04,4.637,4.637,0,0,1,.36,1A1.936,1.936,0,0,1,54.4-36a6.575,6.575,0,0,1-1.12,1.16,1.9,1.9,0,0,1-1.12.52q-.32,0-.4-.2a1.7,1.7,0,0,1-.08-.6v-.48a1.773,1.773,0,0,0,.08-.56,2.349,2.349,0,0,0-.16-.88,1.773,1.773,0,0,1-.08-.56,2.183,2.183,0,0,1,.44-1.32A1.2,1.2,0,0,1,52.88-39.52Zm34.8,13.2a2.632,2.632,0,0,1,.8-.16q.48,0,.48.4,0,.48-.8,1.04a15.191,15.191,0,0,1-6.48,1.68,12.689,12.689,0,0,1-3.76-.52,9.972,9.972,0,0,1-2.72-1.24,12,12,0,0,1,.4,2.88A6.838,6.838,0,0,1,74-17.4a4.748,4.748,0,0,1-3.52,1.72A3.52,3.52,0,0,1,69.04-16a3.659,3.659,0,0,1-1.52-3.36,13.947,13.947,0,0,1,1.4-5.84q1.4-3.04,3.24-3.68h.32a3.962,3.962,0,0,1,2.56,1.44,23.808,23.808,0,0,0,2.84,1.92,7.71,7.71,0,0,0,3.96.96A13.021,13.021,0,0,0,87.68-26.32ZM70.64-18.8q.32.64.72.64.64,0,1.28-1.52a7.78,7.78,0,0,0,.64-3.04,2.946,2.946,0,0,0-.96-2.4q-.24,0-.68.8a12.212,12.212,0,0,0-.84,2,7.108,7.108,0,0,0-.4,2.24A3.223,3.223,0,0,0,70.64-18.8Zm34.56,4.16a2.048,2.048,0,0,1-2.12-1.8,15.955,15.955,0,0,1-.44-3.8v-.88a14.455,14.455,0,0,0-.16-2.12q-.16-1.08-.8-1.24a3.292,3.292,0,0,0-1.2.48,14.246,14.246,0,0,0-2.84,2.52q-1.56,1.72-2.6,3a5.223,5.223,0,0,0-.48.56,14.205,14.205,0,0,1-1.72,2.16,2.87,2.87,0,0,1-2.04,1.04q-1.68,0-1.6-3.04a17.223,17.223,0,0,1,.56-4.16,17.313,17.313,0,0,1,1.4-3.84q.84-1.6,1.64-1.68a1.348,1.348,0,0,1,.76.24.981.981,0,0,1,.36.88,3.693,3.693,0,0,1-.4,1.44,21.746,21.746,0,0,0-1.32,3.56,11.82,11.82,0,0,0-.52,2.92q0,.72.24.72.4,0,1.04-.96.16-.24.4-.56a34.483,34.483,0,0,1,4.8-5.52l.32-.32q1.04-.88,2.44-1.92a6.627,6.627,0,0,1,2.68-1.28q1.28,0,1.64.72a5.26,5.26,0,0,1,.36,2.24,13.881,13.881,0,0,1-.16,1.92q-.16,1.6-.16,3.36a6.72,6.72,0,0,0,.32,2.2,1.2,1.2,0,0,0,1.2.92,4.374,4.374,0,0,0,2.4-1.28,53.312,53.312,0,0,0,5.52-4.96q1.68-1.68,3.28-3.2a1.368,1.368,0,0,1,.64-.24.493.493,0,0,1,.28.08.269.269,0,0,1,.12.24.691.691,0,0,1-.24.48q-1.68,1.6-3.44,3.44a63.06,63.06,0,0,1-6.16,5.76Q106.56-14.64,105.2-14.64Z" transform="matrix(0.996, -0.087, 0.087, 0.996, 186.043, 446.348)" fill="#fff"/>
    <path id="Path_450865" data-name="Path 450865" d="M-10.68-57.6a8.082,8.082,0,0,1,5.52,2.04,6.839,6.839,0,0,1,2.32,5.4v.24q-.16,3.44-2.8,8.88Q-11.32-29.68-29.08-9.36A7.255,7.255,0,0,0-31-4.56a4.411,4.411,0,0,0,1.84,3.44Q-25.48,1.6-19.4,1.6q1.04,0,2.08-.08A22.515,22.515,0,0,0-3.68-5.08,41.344,41.344,0,0,0,5.76-19.56,47.231,47.231,0,0,0,9.24-37.28,38.82,38.82,0,0,0,8.2-46.24,23.088,23.088,0,0,0,2.32-57.2,23.241,23.241,0,0,0-7.6-63a43.266,43.266,0,0,0-12.36-1.72,71.87,71.87,0,0,0-19.56,2.76,88.634,88.634,0,0,0-16.6,6.28q-6.8,3.52-8.16,6.08a5.113,5.113,0,0,1-1.32,2,2.262,2.262,0,0,1-1.4.64,1.478,1.478,0,0,1-1.2-.6,2.294,2.294,0,0,1-.48-1.48,3.915,3.915,0,0,1,.4-1.6q1.68-3.28,9.16-7.16a91.648,91.648,0,0,1,18.08-6.76,80.4,80.4,0,0,1,21.16-2.88A49.727,49.727,0,0,1-6.16-65.6,27.255,27.255,0,0,1,4.92-59.52a23.617,23.617,0,0,1,6.64,11.36,38.025,38.025,0,0,1,1.28,9.84,46.955,46.955,0,0,1-4.08,19A47.342,47.342,0,0,1-2.12-3.6a28.553,28.553,0,0,1-15.2,7.76,22.084,22.084,0,0,1-3.28.24A19.932,19.932,0,0,1-31.16,1.48a15.509,15.509,0,0,1-6.72-8.84A26.276,26.276,0,0,1-39-15.2a41.115,41.115,0,0,1,.64-7.04,60.038,60.038,0,0,1,4.8-14.8,49.546,49.546,0,0,1,9.44-14.04A20.019,20.019,0,0,1-11-57.6Zm-.24,3.68a19.357,19.357,0,0,0-12.76,6.24,42.02,42.02,0,0,0-8.96,14.16,44.079,44.079,0,0,0-3.32,16.24,31.578,31.578,0,0,0,.24,3.92q.48,4.4,2,4.4,1.44,0,4.16-3.28a.523.523,0,0,1,.24-.24q6.8-7.36,12.72-15.04,1.12-1.44,3.72-5.36a79.134,79.134,0,0,0,4.92-8.6A18.887,18.887,0,0,0-5.64-49.6a4.486,4.486,0,0,0-1.08-3.12,4.827,4.827,0,0,0-3.72-1.2ZM22.2-26.24a1.877,1.877,0,0,1,.68-.76,1.688,1.688,0,0,1,.92-.28,1.657,1.657,0,0,1,1,.32,1.11,1.11,0,0,1,.44.96,2.12,2.12,0,0,1-.32,1.04,9.822,9.822,0,0,0-1.6,4.24,1.273,1.273,0,0,0,1.44,1.44A5.636,5.636,0,0,0,27.6-20.4a17.789,17.789,0,0,0,3.64-3.36,1.254,1.254,0,0,1,.24-.32,8.325,8.325,0,0,1,1.44-1.68,2.482,2.482,0,0,1,1.52-.8q.72,0,.88,1.2a3.442,3.442,0,0,1-.08.64,10.071,10.071,0,0,1-.4,1.28q-.4,1.2-.84,2.8a10.756,10.756,0,0,0-.44,2.8q0,1.36,1.04,1.6a1.965,1.965,0,0,0,.72-.16,13.476,13.476,0,0,0,3.56-2.72Q41-21.2,42.8-23.32t2.28-2.84a1.1,1.1,0,0,1,.72-.4.543.543,0,0,1,.4.16.543.543,0,0,1,.16.4,1.208,1.208,0,0,1-.32.72,13.954,13.954,0,0,0-1.92,2q-1.84,2.16-4.32,4.64a20.305,20.305,0,0,1-4.4,3.52,3.791,3.791,0,0,1-1.52.4A1.881,1.881,0,0,1,32-16a7.157,7.157,0,0,1-.52-2.72v-.56a16.977,16.977,0,0,1,.28-1.76q.2-.96.36-1.68a20.668,20.668,0,0,1-4.72,4.36,7.445,7.445,0,0,1-3.68,1.32q-3.04,0-3.28-3.76A11.479,11.479,0,0,1,22.2-26.24ZM48.36-31.2q.8-1.12,1.6-1.12a1.446,1.446,0,0,1,1,.4,1.253,1.253,0,0,1,.44.96,1.17,1.17,0,0,1-.24.72,9.378,9.378,0,0,0-.44,1.04,3.107,3.107,0,0,0-.2,1.04V-28q.16,1.04,1.56,1.32A14.86,14.86,0,0,0,55-26.4h1.12a8.053,8.053,0,0,1,1.84.16,1.506,1.506,0,0,1,.8,1.36,6.519,6.519,0,0,1-.96,2.96.071.071,0,0,0-.08.08,8.279,8.279,0,0,0-.88,3.36q0,2.16,1.68,2.4a2.351,2.351,0,0,0,.56-.08,9.081,9.081,0,0,0,3.2-2.28q1.92-1.88,3.76-4.04T68.92-26l.16-.16a.922.922,0,0,1,.64-.32.652.652,0,0,1,.48.16.543.543,0,0,1,.16.4.86.86,0,0,1-.16.48q-.88,1.04-2.72,3.04t-3.92,4.04a30.282,30.282,0,0,1-3.68,3.16,5.25,5.25,0,0,1-2.72.96q-1.76,0-2.56-2.64A15.1,15.1,0,0,1,54.28-20a12.918,12.918,0,0,1,.8-4.8,12.455,12.455,0,0,1-3.12.32,8.824,8.824,0,0,1-4-.88,2.273,2.273,0,0,1-.88-1.84,5.594,5.594,0,0,1,.44-2.12Q47.96-30.4,48.36-31.2Z" transform="matrix(0.996, -0.087, 0.087, 0.996, 180.043, 373.508)" fill="#fff"/>
  </g>
</svg>
