<svg xmlns="http://www.w3.org/2000/svg" xmlns:xlink="http://www.w3.org/1999/xlink" width="52" height="51.996" viewBox="0 0 52 51.996">
  <defs>
    <filter id="Path_233368" x="9.887" y="9.055" width="42.113" height="42.941" filterUnits="userSpaceOnUse">
      <feOffset dx="1" dy="1" input="SourceAlpha"/>
      <feGaussianBlur stdDeviation="1" result="blur"/>
      <feFlood flood-opacity="0.161"/>
      <feComposite operator="in" in2="blur"/>
      <feComposite in="SourceGraphic"/>
    </filter>
  </defs>
  <g id="pointer-icon" transform="translate(0)">
    <g id="Group_206788" data-name="Group 206788">
      <path id="Path_233367" data-name="Path 233367" d="M46.022,34.179,39.741,21.3a2.345,2.345,0,0,0-4.171,2.143l.221.452a.343.343,0,0,1,.008.262.349.349,0,0,1-.322.225.361.361,0,0,1-.326-.228l-1.043-2.141a2.345,2.345,0,0,0-4.316.382,2.312,2.312,0,0,0,.145,1.763l1.021,2.094a.346.346,0,0,1-.171.457.334.334,0,0,1-.142.031.359.359,0,0,1-.326-.226l-1.793-3.679a2.343,2.343,0,0,0-4.377,1.628l.025.088,1.992,4.084a.356.356,0,0,1-.191.468.366.366,0,0,1-.138.028.388.388,0,0,1-.351-.267c-1.507-3.094-1.836-3.778-2.214-4.568-.517-1.076-1.127-2.348-4.922-10.137a2.4,2.4,0,0,0-3.093-1.2l-.1.046a2.361,2.361,0,0,0-1.07,3.156L24.818,38.187a.343.343,0,0,1-.306.5.341.341,0,0,1-.116-.021l-5.31-2.017a2.339,2.339,0,0,0-.877-.169,2.356,2.356,0,0,0-.828,4.557l12.493,4.887a4.976,4.976,0,0,0,1.832.347,5.04,5.04,0,0,0,2.184-.5l9.853-4.8a5.08,5.08,0,0,0,2.279-6.79" transform="translate(-0.253)" fill="gray" stroke="gray" stroke-width="0.5"/>
      <g transform="matrix(1, 0, 0, 1, 0, 0)" filter="url(#Path_233368)">
        <path id="Path_233368-2" data-name="Path 233368" d="M34.468,19.887a4,4,0,0,0-5.613.694l-.016.02a4.006,4.006,0,0,0-5.306.337L19.863,13.4a4.134,4.134,0,0,0-5.358-2.014,4.069,4.069,0,0,0-1.99,5.4c.017.036.034.072.052.108L21.8,35.846l-2.158-.822a4.039,4.039,0,0,0-5.2,2.251,4.151,4.151,0,0,0,2.363,5.374l.014.005L29.3,47.535a6.694,6.694,0,0,0,5.356-.2l9.843-4.8a6.789,6.789,0,0,0,3.049-9.094L41.311,20.648a4.041,4.041,0,0,0-6.843-.761M45.124,34.618A4.075,4.075,0,0,1,43.3,40.075L33.453,44.87a4.011,4.011,0,0,1-3.213.122L17.746,40.1a1.385,1.385,0,0,1-.8-1.788l0-.007a1.367,1.367,0,0,1,1.764-.734L24.041,39.6a1.343,1.343,0,0,0,1.67-1.864L14.985,15.722A1.36,1.36,0,0,1,15.6,13.9l.037-.018a1.406,1.406,0,0,1,1.807.7C24.038,28.119,21.027,22,24.587,29.3a1.357,1.357,0,1,0,2.436-1.187l-1.91-3.92a1.343,1.343,0,0,1,2.509-.933l1.8,3.69a1.345,1.345,0,1,0,2.449-1.111c-.01-.022-.021-.045-.032-.066l-1-2.054a1.345,1.345,0,0,1,2.385-1.243.671.671,0,0,1,.032.066l1,2.05A1.345,1.345,0,0,0,36.7,23.483c-.01-.022-.02-.044-.032-.066l-.2-.41a1.345,1.345,0,1,1,2.385-1.243c.011.021.022.043.032.066Z" transform="translate(-0.25)" fill="#fff"/>
      </g>
      <path id="Path_233369" data-name="Path 233369" d="M9.178,8.375a1.462,1.462,0,0,1-1.837,2.273L4.231,8.124A1.462,1.462,0,0,1,6.017,5.809c.019.014.037.029.054.044Z" fill="#fff" fill-rule="evenodd"/>
      <path id="Path_233370" data-name="Path 233370" d="M14.7,5.257a1.462,1.462,0,0,1-2.909.3L11.37,1.583a1.463,1.463,0,0,1,2.909-.3Z" transform="translate(-0.064)" fill="#fff" fill-rule="evenodd"/>
      <path id="Path_233371" data-name="Path 233371" d="M5.259,13.853a1.462,1.462,0,1,1,.365,2.9l-.061.007-3.98.416a1.462,1.462,0,0,1-.3-2.908Z" fill="#fff" fill-rule="evenodd"/>
      <path id="Path_233372" data-name="Path 233372" d="M7.629,18.807A1.463,1.463,0,0,1,9.9,20.649L7.382,23.757a1.462,1.462,0,1,1-2.315-1.786l.044-.054Z" fill="#fff" fill-rule="evenodd"/>
      <path id="Path_233373" data-name="Path 233373" d="M19.653,3.807a1.462,1.462,0,1,1,2.315,1.786c-.014.018-.028.036-.044.054L19.408,8.756a1.463,1.463,0,0,1-2.273-1.842Z" transform="translate(-0.1)" fill="#fff" fill-rule="evenodd"/>
    </g>
  </g>
</svg>
