<svg xmlns="http://www.w3.org/2000/svg" width="319" height="316" viewBox="0 0 319 316">
  <g id="Group_192756" data-name="Group 192756" transform="translate(-1489 6819.999)">
    <g id="Rectangle_1788" data-name="Rectangle 1788" transform="translate(1489 -6785)" fill="#fff" stroke="#ddd" stroke-width="1">
      <rect width="319" height="268" stroke="none"/>
      <rect x="0.5" y="0.5" width="318" height="267" fill="none"/>
    </g>
    <rect id="Rectangle_22" data-name="Rectangle 22" width="38" height="38" transform="translate(1497 -6777)" fill="#eee"/>
    <rect id="Rectangle_23" data-name="Rectangle 23" width="38" height="38" transform="translate(1541 -6777)" fill="#eee"/>
    <rect id="Rectangle_24" data-name="Rectangle 24" width="38" height="38" transform="translate(1585 -6777)" fill="#eee"/>
    <rect id="Rectangle_25" data-name="Rectangle 25" width="38" height="38" transform="translate(1630 -6777)" fill="#eee"/>
    <rect id="Rectangle_26" data-name="Rectangle 26" width="38" height="38" transform="translate(1674 -6777)" fill="#eee"/>
    <rect id="Rectangle_27" data-name="Rectangle 27" width="38" height="38" transform="translate(1719 -6777)" fill="#eee"/>
    <rect id="Rectangle_28" data-name="Rectangle 28" width="38" height="38" transform="translate(1763 -6777)" fill="#eee"/>
    <rect id="Rectangle_29" data-name="Rectangle 29" width="38" height="38" transform="translate(1497 -6734)" fill="#eee"/>
    <rect id="Rectangle_30" data-name="Rectangle 30" width="38" height="38" transform="translate(1541 -6734)" fill="#eee"/>
    <rect id="Rectangle_32" data-name="Rectangle 32" width="38" height="38" transform="translate(1630 -6734)" fill="#eee"/>
    <rect id="Rectangle_33" data-name="Rectangle 33" width="38" height="38" transform="translate(1674 -6734)" fill="#eee"/>
    <rect id="Rectangle_34" data-name="Rectangle 34" width="38" height="38" transform="translate(1719 -6734)" fill="#eee"/>
    <rect id="Rectangle_35" data-name="Rectangle 35" width="38" height="38" transform="translate(1763 -6734)" fill="#eee"/>
    <text id="月" transform="translate(1516 -6754)" fill="#222" font-size="14" font-family="YuGothicUI-Regular, Yu Gothic UI" letter-spacing="0.1em"><tspan x="-7" y="0">月</tspan></text>
    <text id="火" transform="translate(1560 -6754)" fill="#222" font-size="14" font-family="YuGothicUI-Regular, Yu Gothic UI" letter-spacing="0.1em"><tspan x="-7" y="0">火</tspan></text>
    <text id="水" transform="translate(1604 -6754)" fill="#222" font-size="14" font-family="YuGothicUI-Regular, Yu Gothic UI" letter-spacing="0.1em"><tspan x="-7" y="0">水</tspan></text>
    <text id="木" transform="translate(1649 -6754)" fill="#222" font-size="14" font-family="YuGothicUI-Regular, Yu Gothic UI" letter-spacing="0.1em"><tspan x="-7" y="0">木</tspan></text>
    <text id="金" transform="translate(1693 -6754)" fill="#222" font-size="14" font-family="YuGothicUI-Regular, Yu Gothic UI" letter-spacing="0.1em"><tspan x="-7" y="0">金</tspan></text>
    <text id="土" transform="translate(1738 -6754)" fill="#94ccde" font-size="14" font-family="YuGothicUI-Regular, Yu Gothic UI" letter-spacing="0.1em"><tspan x="-7" y="0">土</tspan></text>
    <text id="月-2" data-name="月" transform="translate(1782 -6754)" fill="#f28d8d" font-size="14" font-family="YuGothicUI-Regular, Yu Gothic UI" letter-spacing="0.1em"><tspan x="-7" y="0">月</tspan></text>
    <text id="_1" data-name="1" transform="translate(1516 -6710)" fill="#222" font-size="13" font-family="SegoeUI, Segoe UI"><tspan x="-3.504" y="0">1</tspan></text>
    <text id="_2" data-name="2" transform="translate(1560 -6710)" fill="#222" font-size="13" font-family="SegoeUI, Segoe UI"><tspan x="-3.504" y="0">2</tspan></text>
    <text id="_4" data-name="4" transform="translate(1649 -6710)" fill="#222" font-size="13" font-family="SegoeUI, Segoe UI"><tspan x="-3.504" y="0">4</tspan></text>
    <text id="_5" data-name="5" transform="translate(1693 -6710)" fill="#222" font-size="13" font-family="SegoeUI, Segoe UI"><tspan x="-3.504" y="0">5</tspan></text>
    <text id="_6" data-name="6" transform="translate(1738 -6710)" fill="#94ccde" font-size="13" font-family="SegoeUI, Segoe UI"><tspan x="-3.504" y="0">6</tspan></text>
    <text id="_7" data-name="7" transform="translate(1782 -6710)" fill="#e6a8a9" font-size="13" font-family="SegoeUI, Segoe UI"><tspan x="-3.504" y="0">7</tspan></text>
    <rect id="Rectangle_36" data-name="Rectangle 36" width="38" height="38" transform="translate(1497 -6691)" fill="#eee"/>
    <rect id="Rectangle_37" data-name="Rectangle 37" width="38" height="38" transform="translate(1541 -6691)" fill="#eee"/>
    <rect id="Rectangle_38" data-name="Rectangle 38" width="38" height="38" transform="translate(1585 -6691)" fill="#eee"/>
    <rect id="Rectangle_39" data-name="Rectangle 39" width="38" height="38" transform="translate(1630 -6691)" fill="#eee"/>
    <rect id="Rectangle_40" data-name="Rectangle 40" width="38" height="38" transform="translate(1674 -6691)" fill="#eee"/>
    <rect id="Rectangle_41" data-name="Rectangle 41" width="38" height="38" transform="translate(1719 -6691)" fill="#eee"/>
    <rect id="Rectangle_42" data-name="Rectangle 42" width="38" height="38" transform="translate(1763 -6691)" fill="#eee"/>
    <text id="_8" data-name="8" transform="translate(1516 -6666)" fill="#222" font-size="13" font-family="SegoeUI, Segoe UI"><tspan x="-3.504" y="0">8</tspan></text>
    <text id="_9" data-name="9" transform="translate(1560 -6666)" fill="#222" font-size="13" font-family="SegoeUI, Segoe UI"><tspan x="-3.504" y="0">9</tspan></text>
    <text id="_10" data-name="10" transform="translate(1604 -6666)" fill="#222" font-size="14" font-family="SegoeUI, Segoe UI"><tspan x="-7.547" y="0">10</tspan></text>
    <text id="_11" data-name="11" transform="translate(1649 -6666)" fill="#222" font-size="14" font-family="SegoeUI, Segoe UI"><tspan x="-7.547" y="0">11</tspan></text>
    <text id="_12" data-name="12" transform="translate(1693 -6666)" fill="#222" font-size="14" font-family="SegoeUI, Segoe UI"><tspan x="-7.547" y="0">12</tspan></text>
    <text id="_13" data-name="13" transform="translate(1738 -6666)" fill="#94ccde" font-size="14" font-family="SegoeUI, Segoe UI"><tspan x="-7.547" y="0">13</tspan></text>
    <text id="_14" data-name="14" transform="translate(1782 -6666)" fill="#e6a8a9" font-size="14" font-family="SegoeUI, Segoe UI"><tspan x="-7.547" y="0">14</tspan></text>
    <rect id="Rectangle_43" data-name="Rectangle 43" width="38" height="38" transform="translate(1497 -6648)" fill="#eee"/>
    <rect id="Rectangle_44" data-name="Rectangle 44" width="38" height="38" transform="translate(1541 -6648)" fill="#eee"/>
    <rect id="Rectangle_45" data-name="Rectangle 45" width="38" height="38" transform="translate(1585 -6648)" fill="#eee"/>
    <rect id="Rectangle_47" data-name="Rectangle 47" width="38" height="38" transform="translate(1674 -6648)" fill="#eee"/>
    <rect id="Rectangle_48" data-name="Rectangle 48" width="38" height="38" transform="translate(1719 -6648)" fill="#eee"/>
    <rect id="Rectangle_49" data-name="Rectangle 49" width="38" height="38" transform="translate(1763 -6648)" fill="#eee"/>
    <text id="_15" data-name="15" transform="translate(1516 -6624)" fill="#222" font-size="14" font-family="SegoeUI, Segoe UI"><tspan x="-7.547" y="0">15</tspan></text>
    <text id="_16" data-name="16" transform="translate(1560 -6624)" fill="#222" font-size="14" font-family="SegoeUI, Segoe UI"><tspan x="-7.547" y="0">16</tspan></text>
    <text id="_17" data-name="17" transform="translate(1604 -6624)" fill="#222" font-size="14" font-family="SegoeUI, Segoe UI"><tspan x="-7.547" y="0">17</tspan></text>
    <text id="_19" data-name="19" transform="translate(1693 -6624)" fill="#222" font-size="14" font-family="SegoeUI, Segoe UI"><tspan x="-7.547" y="0">19</tspan></text>
    <text id="_20" data-name="20" transform="translate(1738 -6624)" fill="#94ccde" font-size="14" font-family="SegoeUI, Segoe UI"><tspan x="-7.547" y="0">20</tspan></text>
    <text id="_21" data-name="21" transform="translate(1782 -6624)" fill="#e6a8a9" font-size="14" font-family="SegoeUI, Segoe UI"><tspan x="-7.547" y="0">21</tspan></text>
    <rect id="Rectangle_50" data-name="Rectangle 50" width="38" height="38" transform="translate(1497 -6605)" fill="#eee"/>
    <rect id="Rectangle_51" data-name="Rectangle 51" width="38" height="38" transform="translate(1541 -6605)" fill="#eee"/>
    <rect id="Rectangle_52" data-name="Rectangle 52" width="38" height="38" transform="translate(1585 -6605)" fill="#eee"/>
    <rect id="Rectangle_53" data-name="Rectangle 53" width="38" height="38" transform="translate(1630 -6605)" fill="#eee"/>
    <rect id="Rectangle_54" data-name="Rectangle 54" width="38" height="37" transform="translate(1675 -6604)" fill="#faf7e3"/>
    <rect id="Rectangle_55" data-name="Rectangle 55" width="38" height="38" transform="translate(1719 -6605)" fill="#eee"/>
    <rect id="Rectangle_56" data-name="Rectangle 56" width="38" height="38" transform="translate(1763 -6605)" fill="#eee"/>
    <text id="_22" data-name="22" transform="translate(1516 -6581)" fill="#222" font-size="14" font-family="SegoeUI, Segoe UI"><tspan x="-7.547" y="0">22</tspan></text>
    <text id="_23" data-name="23" transform="translate(1560 -6581)" fill="#222" font-size="14" font-family="SegoeUI, Segoe UI"><tspan x="-7.547" y="0">23</tspan></text>
    <text id="_24" data-name="24" transform="translate(1604 -6581)" fill="#222" font-size="14" font-family="SegoeUI, Segoe UI"><tspan x="-7.547" y="0">24</tspan></text>
    <text id="_25" data-name="25" transform="translate(1649 -6581)" fill="#222" font-size="14" font-family="SegoeUI, Segoe UI"><tspan x="-7.547" y="0">25</tspan></text>
    <text id="_26" data-name="26" transform="translate(1693 -6581)" fill="#222" font-size="14" font-family="SegoeUI, Segoe UI"><tspan x="-7.547" y="0">26</tspan></text>
    <text id="_27" data-name="27" transform="translate(1738 -6581)" fill="#94ccde" font-size="14" font-family="SegoeUI, Segoe UI"><tspan x="-7.547" y="0">27</tspan></text>
    <text id="_28" data-name="28" transform="translate(1782 -6581)" fill="#e6a8a9" font-size="14" font-family="SegoeUI, Segoe UI"><tspan x="-7.547" y="0">28</tspan></text>
    <rect id="Rectangle_57" data-name="Rectangle 57" width="38" height="38" transform="translate(1497 -6562)" fill="#eee"/>
    <rect id="Rectangle_58" data-name="Rectangle 58" width="38" height="38" transform="translate(1541 -6562)" fill="#eee"/>
    <rect id="Rectangle_59" data-name="Rectangle 59" width="38" height="38" transform="translate(1585 -6562)" fill="#eee"/>
    <rect id="Rectangle_60" data-name="Rectangle 60" width="38" height="38" transform="translate(1630 -6562)" fill="#eee"/>
    <rect id="Rectangle_61" data-name="Rectangle 61" width="38" height="38" transform="translate(1674 -6562)" fill="#eee"/>
    <rect id="Rectangle_62" data-name="Rectangle 62" width="38" height="38" transform="translate(1719 -6562)" fill="#eee"/>
    <rect id="Rectangle_63" data-name="Rectangle 63" width="38" height="38" transform="translate(1763 -6562)" fill="#eee"/>
    <text id="_29" data-name="29" transform="translate(1516 -6537)" fill="#222" font-size="14" font-family="SegoeUI, Segoe UI"><tspan x="-7.547" y="0">29</tspan></text>
    <text id="_30" data-name="30" transform="translate(1560 -6537)" fill="#222" font-size="14" font-family="SegoeUI, Segoe UI"><tspan x="-7.547" y="0">30</tspan></text>
    <text id="_31" data-name="31" transform="translate(1604 -6537)" fill="#222" font-size="14" font-family="SegoeUI, Segoe UI"><tspan x="-7.547" y="0">31</tspan></text>
    <g id="Group_1958" data-name="Group 1958" transform="translate(1)">
      <rect id="Rectangle_31" data-name="Rectangle 31" width="38" height="38" transform="translate(1584 -6734)" fill="#faf7e3"/>
      <g id="_" data-name="○" transform="translate(1579 -6739)" fill="none" stroke="#e6a8a9" stroke-width="5">
        <circle cx="24" cy="24" r="24" stroke="none"/>
        <circle cx="24" cy="24" r="21.5" fill="none"/>
      </g>
    </g>
    <g id="Group_1959" data-name="Group 1959">
      <rect id="Rectangle_46" data-name="Rectangle 46" width="39" height="38" transform="translate(1629 -6648)" fill="#faf7e3"/>
      <text id="_18" data-name="18" transform="translate(1648 -6624)" fill="#222" font-size="14" font-family="SegoeUI, Segoe UI"><tspan x="-7.547" y="0">18</tspan></text>
      <g id="_2-2" data-name="○" transform="translate(1624 -6654)" fill="none" stroke="#e6a8a9" stroke-width="5" opacity="0.503">
        <ellipse cx="24.5" cy="25" rx="24.5" ry="25" stroke="none"/>
        <ellipse cx="24.5" cy="25" rx="22" ry="22.5" fill="none"/>
      </g>
    </g>
    <g id="_3" data-name="○" transform="translate(1670 -6610)" fill="none" stroke="#e6a8a9" stroke-width="5">
      <circle cx="24" cy="24" r="24" stroke="none"/>
      <circle cx="24" cy="24" r="21.5" fill="none"/>
    </g>
    <g id="bubble" transform="translate(1594.932 -6552.872)">
      <rect id="Rectangle_65" data-name="Rectangle 65" width="199" height="41" rx="6" transform="translate(0.067 7.873)" fill="#eeb0b0"/>
      <text id="無料で別日に振替補講_" data-name="無料で別日に振替補講！" transform="translate(95.067 33.872)" fill="#fff" font-size="14" font-family="YuGothicUI-Regular, Yu Gothic UI" letter-spacing="-0.05em"><tspan x="-70.571" y="0">無料で別日に振替補講！</tspan></text>
      <path id="Path_11" data-name="Path 11" d="M8.152,0,0,8.152H16.3Z" transform="translate(90.955)" fill="#e6a8a9"/>
    </g>
    <g id="arrow" transform="translate(1693.625 -6653.731) rotate(71)" fill="#e6a8a9">
      <path d="M 0.8137942552566528 38.43764495849609 L -0.980545699596405 37.66023254394531 C -0.2973357141017914 34.24662399291992 0.7073943018913269 31.04416275024414 2.005744218826294 28.14179420471191 C 3.456164360046387 24.89949417114258 5.287634372711182 22.00274276733398 7.449284076690674 19.53200340270996 C 12.28273677825928 14.0074405670166 18.77623748779297 10.54724597930908 26.75869369506836 9.239370346069336 L 26.75869369506836 3.637085001173546e-06 L 26.75869369506836 -2.414206266403198 L 28.46580505371094 -0.707106351852417 L 46.13126373291016 16.95834350585938 L 46.83836364746094 17.66545295715332 L 46.13126373291016 18.3725643157959 L 28.46580505371094 36.03801345825195 L 26.75869369506836 37.74511337280273 L 26.75869369506836 35.33090209960938 L 26.75869369506836 25.99213981628418 C 14.97796058654785 26.20261001586914 6.716203689575195 30.17256164550781 0.8137942552566528 38.43764495849609 Z" stroke="none"/>
      <path d="M 27.75869369506836 3.814697265625e-06 L 27.75869369506836 10.0977840423584 C 10.09324264526367 12.61882400512695 2.525585174560547 25.2376537322998 -3.814697265625e-06 37.85648345947266 C 6.309413909912109 29.021484375 15.13986396789551 24.98328399658203 27.75869369506836 24.98328399658203 L 27.75869369506836 35.33090209960938 L 45.42414474487305 17.66545295715332 L 27.75869369506836 3.814697265625e-06 M 25.75869369506836 -4.828426361083984 L 48.2525749206543 17.66545295715332 L 25.75869369506836 40.15933227539062 L 25.75869369506836 27.02027130126953 C 14.86107063293457 27.43108367919922 7.158981323242188 31.27323913574219 1.627574920654297 39.01880264282227 L -1.961116790771484 37.46398544311523 C -1.263317108154297 33.97749328613281 -0.2357864379882812 30.70366287231445 1.092914581298828 27.73344421386719 C 2.584022521972656 24.40017318725586 4.469406127929688 21.41927337646484 6.696674346923828 18.87353324890137 C 11.51688385009766 13.36409378051758 17.9233226776123 9.845243453979492 25.75869369506836 8.398496627807617 L 25.75869369506836 -4.828426361083984 Z" stroke="none" fill="#fff"/>
    </g>
    <g id="title" transform="translate(1489 -6820.451)">
      <g id="Rectangle_64" data-name="Rectangle 64" transform="translate(0 0.452)" fill="#fff" stroke="#ddd" stroke-width="1">
        <rect width="319" height="37" stroke="none"/>
        <rect x="0.5" y="0.5" width="318" height="36" fill="none"/>
      </g>
      <text id="LESSON_SCHEDULE" data-name="LESSON SCHEDULE" transform="translate(160 21.452)" fill="#222" font-size="11" font-family="SegoeUI, Segoe UI" letter-spacing="0.3em"><tspan x="-70.102" y="0">LESSON SCHEDULE</tspan></text>
    </g>
    <text id="_3-2" data-name="3" transform="translate(1604 -6710)" fill="#222" font-size="14" font-family="SegoeUI, Segoe UI"><tspan x="-3.773" y="0">3</tspan></text>
  </g>
</svg>
