<svg xmlns="http://www.w3.org/2000/svg" width="300" height="295.365" viewBox="0 0 300 295.365">
  <g id="Group_206789" data-name="Group 206789" transform="translate(-131.479 -1848.542)">
    <path id="bg" d="M73.38,38.248a67.962,67.962,0,0,0,40.447-19.477,57.472,57.472,0,0,1,80.9,0,67.959,67.959,0,0,0,40.447,19.477,57.476,57.476,0,0,1,50.439,63.25,67.979,67.979,0,0,0,9.989,43.768,57.474,57.474,0,0,1-18,78.87,67.96,67.96,0,0,0-27.99,35.1,57.476,57.476,0,0,1-72.889,35.1,67.953,67.953,0,0,0-44.892,0,57.475,57.475,0,0,1-72.887-35.1,67.959,67.959,0,0,0-27.99-35.1,57.476,57.476,0,0,1-18-78.87A67.964,67.964,0,0,0,22.94,101.5a57.478,57.478,0,0,1,50.44-63.25" transform="translate(127.203 1846.416)" fill="#d1e4f7" fill-rule="evenodd"/>
    <g id="lesson" transform="translate(160.082 -4534.412)">
      <g id="calendar" transform="translate(42.397 6463.685)">
        <rect id="Rectangle_22" data-name="Rectangle 22" width="20" height="20" rx="3" transform="translate(0 -0.111)" fill="#fff"/>
        <rect id="Rectangle_23" data-name="Rectangle 23" width="20" height="20" rx="3" transform="translate(23 -0.111)" fill="#fff"/>
        <rect id="Rectangle_24" data-name="Rectangle 24" width="20" height="20" rx="3" transform="translate(46 -0.111)" fill="#fff"/>
        <rect id="Rectangle_25" data-name="Rectangle 25" width="20" height="20" rx="3" transform="translate(69 -0.111)" fill="#fff"/>
        <rect id="Rectangle_26" data-name="Rectangle 26" width="20" height="20" rx="3" transform="translate(92 -0.111)" fill="#fff"/>
        <rect id="Rectangle_27" data-name="Rectangle 27" width="20" height="20" rx="3" transform="translate(115 -0.111)" fill="#fff"/>
        <rect id="Rectangle_28" data-name="Rectangle 28" width="20" height="20" rx="3" transform="translate(138 -0.111)" fill="#fff"/>
        <rect id="Rectangle_29" data-name="Rectangle 29" width="20" height="20" rx="3" transform="translate(0 22.889)" fill="#fff"/>
        <rect id="Rectangle_30" data-name="Rectangle 30" width="20" height="20" rx="3" transform="translate(23 22.889)" fill="#fff"/>
        <rect id="Rectangle_31" data-name="Rectangle 31" width="20" height="20" rx="3" transform="translate(46 22.889)" fill="#fff"/>
        <rect id="Rectangle_32" data-name="Rectangle 32" width="20" height="20" rx="3" transform="translate(69 22.889)" fill="#fff"/>
        <rect id="Rectangle_33" data-name="Rectangle 33" width="20" height="20" rx="3" transform="translate(92 22.889)" fill="#fff"/>
        <rect id="Rectangle_34" data-name="Rectangle 34" width="20" height="20" rx="3" transform="translate(115 22.889)" fill="#fff"/>
        <rect id="Rectangle_35" data-name="Rectangle 35" width="20" height="20" rx="3" transform="translate(138 22.889)" fill="#fff"/>
        <rect id="Rectangle_36" data-name="Rectangle 36" width="20" height="20" rx="3" transform="translate(0 45.889)" fill="#fff"/>
        <rect id="Rectangle_37" data-name="Rectangle 37" width="20" height="20" rx="3" transform="translate(23 45.889)" fill="#fff"/>
        <rect id="Rectangle_38" data-name="Rectangle 38" width="20" height="20" rx="3" transform="translate(46 45.889)" fill="#fff"/>
        <rect id="Rectangle_39" data-name="Rectangle 39" width="20" height="20" rx="3" transform="translate(69 45.889)" fill="#fff"/>
        <rect id="Rectangle_40" data-name="Rectangle 40" width="20" height="20" rx="3" transform="translate(92 45.889)" fill="#fff"/>
        <rect id="Rectangle_41" data-name="Rectangle 41" width="20" height="20" rx="3" transform="translate(115 45.889)" fill="#fff"/>
        <rect id="Rectangle_42" data-name="Rectangle 42" width="20" height="20" rx="3" transform="translate(138 45.889)" fill="#fff"/>
        <rect id="Rectangle_43" data-name="Rectangle 43" width="20" height="20" rx="3" transform="translate(0 68.889)" fill="#fff"/>
        <rect id="Rectangle_44" data-name="Rectangle 44" width="20" height="20" rx="3" transform="translate(23 68.889)" fill="#fff"/>
        <rect id="Rectangle_45" data-name="Rectangle 45" width="20" height="20" rx="3" transform="translate(46 68.889)" fill="#fff"/>
        <rect id="Rectangle_46" data-name="Rectangle 46" width="20" height="20" rx="3" transform="translate(69 68.889)" fill="#fff"/>
        <rect id="Rectangle_47" data-name="Rectangle 47" width="20" height="20" rx="3" transform="translate(92 68.889)" fill="#fff"/>
        <rect id="Rectangle_48" data-name="Rectangle 48" width="20" height="20" rx="3" transform="translate(115 68.889)" fill="#fff"/>
        <rect id="Rectangle_49" data-name="Rectangle 49" width="20" height="20" rx="3" transform="translate(138 68.889)" fill="#fff"/>
        <rect id="Rectangle_50" data-name="Rectangle 50" width="20" height="20" rx="3" transform="translate(0 91.889)" fill="#fff"/>
        <rect id="Rectangle_51" data-name="Rectangle 51" width="20" height="20" rx="3" transform="translate(23 91.889)" fill="#fff"/>
        <rect id="Rectangle_52" data-name="Rectangle 52" width="20" height="20" rx="3" transform="translate(46 91.889)" fill="#fff"/>
        <rect id="Rectangle_53" data-name="Rectangle 53" width="20" height="20" rx="3" transform="translate(69 91.889)" fill="#fff"/>
        <rect id="Rectangle_54" data-name="Rectangle 54" width="20" height="20" rx="3" transform="translate(92 91.889)" fill="#fff"/>
        <rect id="Rectangle_55" data-name="Rectangle 55" width="20" height="20" rx="3" transform="translate(115 91.889)" fill="#fff"/>
        <rect id="Rectangle_56" data-name="Rectangle 56" width="20" height="20" rx="3" transform="translate(138 91.889)" fill="#fff"/>
        <rect id="Rectangle_57" data-name="Rectangle 57" width="20" height="20" rx="3" transform="translate(0 114.889)" fill="#fff"/>
        <rect id="Rectangle_58" data-name="Rectangle 58" width="20" height="20" rx="3" transform="translate(23 114.889)" fill="#fff"/>
        <rect id="Rectangle_59" data-name="Rectangle 59" width="20" height="20" rx="3" transform="translate(46 114.889)" fill="#fff"/>
        <rect id="Rectangle_60" data-name="Rectangle 60" width="20" height="20" rx="3" transform="translate(69 114.889)" fill="#fff" opacity="0.152"/>
        <rect id="Rectangle_61" data-name="Rectangle 61" width="20" height="20" rx="3" transform="translate(92 114.889)" fill="#fff" opacity="0.152"/>
        <rect id="Rectangle_62" data-name="Rectangle 62" width="20" height="20" rx="3" transform="translate(115 114.889)" fill="#fff" opacity="0.152"/>
        <rect id="Rectangle_63" data-name="Rectangle 63" width="20" height="20" rx="3" transform="translate(138 114.889)" fill="#fff" opacity="0.152"/>
        <text id="月" transform="translate(10 14.889)" fill="#222" font-size="11" font-family="YuGothicUI-Regular, Yu Gothic UI" letter-spacing="0.1em"><tspan x="-5.5" y="0">月</tspan></text>
        <text id="火" transform="translate(33 14.889)" fill="#222" font-size="11" font-family="YuGothicUI-Regular, Yu Gothic UI" letter-spacing="0.1em"><tspan x="-5.5" y="0">火</tspan></text>
        <text id="水" transform="translate(56 14.889)" fill="#222" font-size="11" font-family="YuGothicUI-Regular, Yu Gothic UI" letter-spacing="0.1em"><tspan x="-5.5" y="0">水</tspan></text>
        <text id="木" transform="translate(79 14.889)" fill="#222" font-size="11" font-family="YuGothicUI-Regular, Yu Gothic UI" letter-spacing="0.1em"><tspan x="-5.5" y="0">木</tspan></text>
        <text id="金" transform="translate(102 14.889)" fill="#222" font-size="11" font-family="YuGothicUI-Regular, Yu Gothic UI" letter-spacing="0.1em"><tspan x="-5.5" y="0">金</tspan></text>
        <text id="土" transform="translate(125 14.889)" fill="#68d" font-size="11" font-family="YuGothicUI-Regular, Yu Gothic UI" letter-spacing="0.1em"><tspan x="-5.5" y="0">土</tspan></text>
        <text id="日" transform="translate(148 14.889)" fill="#f55" font-size="11" font-family="YuGothicUI-Regular, Yu Gothic UI" letter-spacing="0.1em"><tspan x="-5.5" y="0">日</tspan></text>
        <text id="_1" data-name="1" transform="translate(10 36.889)" fill="#222" font-size="10" font-family="SegoeUI-Bold, Segoe UI" font-weight="700"><tspan x="-2.876" y="0">1</tspan></text>
        <text id="_2" data-name="2" transform="translate(33 36.889)" fill="#222" font-size="10" font-family="SegoeUI-Bold, Segoe UI" font-weight="700"><tspan x="-2.876" y="0">2</tspan></text>
        <text id="_3" data-name="3" transform="translate(56 36.889)" fill="#222" font-size="10" font-family="SegoeUI-Bold, Segoe UI" font-weight="700"><tspan x="-2.876" y="0">3</tspan></text>
        <text id="_4" data-name="4" transform="translate(79 36.889)" fill="#222" font-size="10" font-family="SegoeUI-Bold, Segoe UI" font-weight="700"><tspan x="-2.876" y="0">4</tspan></text>
        <text id="_5" data-name="5" transform="translate(102 36.889)" fill="#222" font-size="10" font-family="SegoeUI-Bold, Segoe UI" font-weight="700"><tspan x="-2.876" y="0">5</tspan></text>
        <text id="_6" data-name="6" transform="translate(125 36.889)" fill="#68d" font-size="10" font-family="SegoeUI-Bold, Segoe UI" font-weight="700"><tspan x="-2.876" y="0">6</tspan></text>
        <text id="_7" data-name="7" transform="translate(148 36.889)" fill="#f55" font-size="10" font-family="SegoeUI-Bold, Segoe UI" font-weight="700"><tspan x="-2.876" y="0">7</tspan></text>
        <text id="_8" data-name="8" transform="translate(10 59.889)" fill="#222" font-size="10" font-family="SegoeUI-Bold, Segoe UI" font-weight="700"><tspan x="-2.876" y="0">8</tspan></text>
        <text id="_9" data-name="9" transform="translate(33 59.889)" fill="#222" font-size="10" font-family="SegoeUI-Bold, Segoe UI" font-weight="700"><tspan x="-2.876" y="0">9</tspan></text>
        <text id="_10" data-name="10" transform="translate(56 59.889)" fill="#222" font-size="10" font-family="SegoeUI-Bold, Segoe UI" font-weight="700"><tspan x="-5.752" y="0">10</tspan></text>
        <text id="_11" data-name="11" transform="translate(79 59.889)" fill="#222" font-size="10" font-family="SegoeUI-Bold, Segoe UI" font-weight="700"><tspan x="-5.752" y="0">11</tspan></text>
        <text id="_12" data-name="12" transform="translate(102 59.889)" fill="#222" font-size="10" font-family="SegoeUI-Bold, Segoe UI" font-weight="700"><tspan x="-5.752" y="0">12</tspan></text>
        <text id="_13" data-name="13" transform="translate(125 59.889)" fill="#68d" font-size="10" font-family="SegoeUI-Bold, Segoe UI" font-weight="700"><tspan x="-5.752" y="0">13</tspan></text>
        <text id="_14" data-name="14" transform="translate(147 59.889)" fill="#f55" font-size="10" font-family="SegoeUI-Bold, Segoe UI" font-weight="700"><tspan x="-5.752" y="0">14</tspan></text>
        <text id="_15" data-name="15" transform="translate(10 82.889)" fill="#222" font-size="10" font-family="SegoeUI-Bold, Segoe UI" font-weight="700"><tspan x="-5.752" y="0">15</tspan></text>
        <text id="_16" data-name="16" transform="translate(33 82.889)" fill="#222" font-size="10" font-family="SegoeUI-Bold, Segoe UI" font-weight="700"><tspan x="-5.752" y="0">16</tspan></text>
        <text id="_17" data-name="17" transform="translate(56 82.889)" fill="#222" font-size="10" font-family="SegoeUI-Bold, Segoe UI" font-weight="700"><tspan x="-5.752" y="0">17</tspan></text>
        <text id="_18" data-name="18" transform="translate(79 82.889)" fill="#222" font-size="10" font-family="SegoeUI-Bold, Segoe UI" font-weight="700"><tspan x="-5.752" y="0">18</tspan></text>
        <text id="_19" data-name="19" transform="translate(102 82.889)" fill="#222" font-size="10" font-family="SegoeUI-Bold, Segoe UI" font-weight="700"><tspan x="-5.752" y="0">19</tspan></text>
        <text id="_20" data-name="20" transform="translate(125 82.889)" fill="#68d" font-size="10" font-family="SegoeUI-Bold, Segoe UI" font-weight="700"><tspan x="-5.752" y="0">20</tspan></text>
        <text id="_21" data-name="21" transform="translate(148 82.889)" fill="#f55" font-size="10" font-family="SegoeUI-Bold, Segoe UI" font-weight="700"><tspan x="-5.752" y="0">21</tspan></text>
        <text id="_22" data-name="22" transform="translate(10 105.888)" fill="#222" font-size="10" font-family="SegoeUI-Bold, Segoe UI" font-weight="700"><tspan x="-5.752" y="0">22</tspan></text>
        <text id="_23" data-name="23" transform="translate(33 105.888)" fill="#222" font-size="10" font-family="SegoeUI-Bold, Segoe UI" font-weight="700"><tspan x="-5.752" y="0">23</tspan></text>
        <text id="_24" data-name="24" transform="translate(56 105.888)" fill="#222" font-size="10" font-family="SegoeUI-Bold, Segoe UI" font-weight="700"><tspan x="-5.752" y="0">24</tspan></text>
        <text id="_25" data-name="25" transform="translate(79 105.888)" fill="#222" font-size="10" font-family="SegoeUI-Bold, Segoe UI" font-weight="700"><tspan x="-5.752" y="0">25</tspan></text>
        <text id="_26" data-name="26" transform="translate(102 105.888)" fill="#222" font-size="10" font-family="SegoeUI-Bold, Segoe UI" font-weight="700"><tspan x="-5.752" y="0">26</tspan></text>
        <text id="_27" data-name="27" transform="translate(125 105.888)" fill="#68d" font-size="10" font-family="SegoeUI-Bold, Segoe UI" font-weight="700"><tspan x="-5.752" y="0">27</tspan></text>
        <text id="_28" data-name="28" transform="translate(148 105.888)" fill="#f55" font-size="10" font-family="SegoeUI-Bold, Segoe UI" font-weight="700"><tspan x="-5.752" y="0">28</tspan></text>
        <text id="_29" data-name="29" transform="translate(10 128.888)" fill="#222" font-size="10" font-family="SegoeUI-Bold, Segoe UI" font-weight="700"><tspan x="-5.752" y="0">29</tspan></text>
        <text id="_30" data-name="30" transform="translate(33 128.888)" fill="#222" font-size="10" font-family="SegoeUI-Bold, Segoe UI" font-weight="700"><tspan x="-5.752" y="0">30</tspan></text>
        <text id="_31" data-name="31" transform="translate(56 128.888)" fill="#222" font-size="10" font-family="SegoeUI-Bold, Segoe UI" font-weight="700"><tspan x="-5.752" y="0">31</tspan></text>
      </g>
      <g id="_" data-name="○" transform="translate(84.397 6482.573)" fill="none" stroke="#f2bfbf" stroke-width="5">
        <circle cx="14" cy="14" r="14" stroke="none"/>
        <circle cx="14" cy="14" r="11.5" fill="none"/>
      </g>
      <g id="_2-2" data-name="○" transform="translate(107.397 6528.573)" fill="none" stroke="#f2bfbf" stroke-width="5" opacity="0.5">
        <circle cx="14" cy="14" r="14" stroke="none"/>
        <circle cx="14" cy="14" r="11.5" fill="none"/>
      </g>
      <g id="_3-2" data-name="○" transform="translate(130.397 6551.573)" fill="none" stroke="#f2bfbf" stroke-width="5">
        <circle cx="14" cy="14" r="14" stroke="none"/>
        <circle cx="14" cy="14" r="11.5" fill="none"/>
      </g>
      <g id="arrow" transform="translate(146.128 6528.206) rotate(71)" fill="#f2bfbf">
        <path d="M 13.43060302734375 20.78129386901855 L 13.43060302734375 18.3670825958252 L 13.43060302734375 14.00551128387451 C 7.730440139770508 14.21135425567627 3.704072952270508 16.21395874023438 0.8137926459312439 20.26118278503418 L -0.9805473685264587 19.48377418518066 C -0.203597366809845 15.60176372528076 1.307652592658997 12.35636329650879 3.511212587356567 9.837723731994629 C 6.017590522766113 6.972984790802002 9.351621627807617 5.145886421203613 13.43060302734375 4.399120807647705 L 13.43060302734375 3.504028427414596e-06 L 13.43060302734375 -2.414206504821777 L 15.1377124786377 -0.7071064710617065 L 24.32125282287598 8.476433753967285 L 25.02835273742676 9.18354320526123 L 24.32125282287598 9.890653610229492 L 15.1377124786377 19.07419395446777 L 13.43060302734375 20.78129386901855 Z" stroke="none"/>
        <path d="M 14.43060302734375 3.814697265625e-06 L 14.43060302734375 5.249423980712891 C 5.247062683105469 6.560013771057129 1.312942504882812 13.12001419067383 1.9073486328125e-06 19.68002319335938 C 3.280002593994141 15.08708381652832 7.870593070983887 12.98778343200684 14.43060302734375 12.98778343200684 L 14.43060302734375 18.36708450317383 L 23.61414337158203 9.18354320526123 L 14.43060302734375 3.814697265625e-06 M 12.43060302734375 -4.828426361083984 L 26.44257354736328 9.18354320526123 L 12.43060302734375 23.19551277160645 L 12.43060302734375 15.0617208480835 C 7.563528060913086 15.43801307678223 4.182891845703125 17.26417350769043 1.627582550048828 20.84234428405762 L -1.96110725402832 19.28752326965332 C -1.149417877197266 15.23199367523193 0.4385223388671875 11.83108329772949 2.758602142333984 9.179263114929199 C 5.24737548828125 6.334636688232422 8.495297431945801 4.456275939941406 12.43060302734375 3.581336975097656 L 12.43060302734375 -4.828426361083984 Z" stroke="none" fill="#fff"/>
      </g>
    </g>
  </g>
</svg>
