<svg xmlns="http://www.w3.org/2000/svg" width="119" height="119" viewBox="0 0 119 119">
  <g id="Group_206787" data-name="Group 206787" transform="translate(-23.485 -9.82)">
    <g id="_" data-name="○" transform="translate(23.485 9.82)" fill="#fff" stroke="#a0b6df" stroke-width="5" opacity="0.503">
      <circle cx="27.5" cy="27.5" r="27.5" stroke="none"/>
      <circle cx="27.5" cy="27.5" r="25" fill="none"/>
    </g>
    <g id="_2" data-name="○" transform="translate(70.485 55.82)" fill="#fff" stroke="#a0b6df" stroke-width="5">
      <ellipse cx="36" cy="36.5" rx="36" ry="36.5" stroke="none"/>
      <ellipse cx="36" cy="36.5" rx="33.5" ry="34" fill="none"/>
    </g>
    <g id="arrow" transform="translate(104.98 13.891) rotate(71)" fill="#a0b6df">
      <path d="M 0.8232205510139465 43.16585540771484 L -0.9789594411849976 42.39410400390625 C -0.1888794451951981 38.60321426391602 0.935480535030365 35.03987503051758 2.362870454788208 31.80307388305664 C 3.956510543823242 28.18929481506348 5.944100379943848 24.94988441467285 8.270430564880371 22.17481422424316 C 13.49651622772217 15.94066905975342 20.44742774963379 11.97189807891846 28.94004821777344 10.37019729614258 L 29.13277053833008 -0.01854536309838295 L 29.17794990539551 -2.453795433044434 L 30.85700988769531 -0.6893553733825684 L 49.17325210571289 18.55817413330078 L 49.82987213134766 19.2481746673584 L 49.1726188659668 19.93756484985352 L 30.12877082824707 39.91271591186523 L 28.3575496673584 41.77055358886719 L 28.40516090393066 39.20413589477539 L 28.59881782531738 28.76476287841797 C 16.10506248474121 29.23786926269531 7.260931491851807 33.83098220825195 0.8232205510139465 43.16585540771484 Z" stroke="none"/>
      <path d="M 30.13260078430176 -3.814697265625e-06 L 29.92464065551758 11.21007537841797 C 11.19268035888672 14.37262535095215 2.930511474609375 28.53729438781738 0 42.59812545776367 C 6.853729248046875 32.65999603271484 16.27452087402344 27.99511337280273 29.61808967590332 27.73524475097656 L 29.40499114990234 39.22268295288086 L 48.4488410949707 19.24753379821777 L 30.13260078430176 -3.814697265625e-06 M 28.22330093383789 -4.907615661621094 L 51.21089935302734 19.24881553649902 L 27.31011962890625 44.31841278076172 L 27.57916259765625 29.81490898132324 C 15.98312377929688 30.4906005859375 7.706398010253906 34.94643020629883 1.646442413330078 43.73357391357422 L -1.957927703857422 42.1900634765625 C -1.153591156005859 38.33075332641602 -0.00769805908203125 34.70031356811523 1.447891235351562 31.39956474304199 C 3.079582214355469 27.69951438903809 5.117172241210938 24.37971496582031 7.504081726074219 21.53238487243652 C 12.71770477294922 15.31310081481934 19.59223937988281 11.28579330444336 27.95516204833984 9.545993804931641 L 28.22330093383789 -4.907615661621094 Z" stroke="none" fill="#fff"/>
    </g>
    <text id="今月" transform="translate(50.485 42.82)" fill="#a0b6df" font-size="12" font-family="YuGothicUI-Regular, Yu Gothic UI"><tspan x="-12" y="0">今月</tspan></text>
    <text id="来月" transform="translate(106.485 99.82)" fill="#a0b6df" font-size="19" font-family="YuGothicUI-Regular, Yu Gothic UI"><tspan x="-19" y="0">来月</tspan></text>
  </g>
</svg>
