<svg xmlns="http://www.w3.org/2000/svg" width="316" height="48.871" viewBox="0 0 316 48.871">
  <g id="Group_200261" data-name="Group 200261" transform="translate(81.442 -0.734)">
    <path id="Path_450799" data-name="Path 450799" d="M-340.143,22473.379l1.8-3.2H-553.033l1.8,3.2-.869.49-2.081-3.693H-560v-1h5.257l-10.525-18.715-2.3,4.1-.874-.486,2.606-4.631-2.606-4.635.874-.486,2.3,4.1,10.525-18.721H-560v-1h5.815l2.081-3.7.869.49-1.8,3.209h214.689l-1.8-3.209.869-.49,2.081,3.7h5.821v1h-5.257l10.519,18.721,2.307-4.1.869.486-2.6,4.635,2.6,4.631-.869.486-2.307-4.1-10.519,18.715h5.257v1h-5.821l-2.081,3.693Zm-224.548-23.943,11.094,19.736H-337.78l11.094-19.736-11.094-19.74H-553.6Zm13,16.5-9.273-16.5,9.273-16.5h212.021l9.272,16.5-9.272,16.5Z" transform="translate(522.747 -22424.264)" fill="#e39597"/>
    <path id="line" d="M29,0H68V1H29Z" transform="translate(-110.442 24.67)" fill="#e39597"/>
    <path id="line-2" data-name="line" d="M0,0H38V1H0Z" transform="translate(196.558 24.67)" fill="#e39597"/>
  </g>
</svg>
