<svg xmlns="http://www.w3.org/2000/svg" xmlns:xlink="http://www.w3.org/1999/xlink" width="337" height="79" viewBox="0 0 337 79">
  <defs>
    <filter id="bg" x="186" y="43" width="30" height="30" filterUnits="userSpaceOnUse">
      <feOffset dy="3" input="SourceAlpha"/>
      <feGaussianBlur stdDeviation="3" result="blur"/>
      <feFlood flood-opacity="0.161"/>
      <feComposite operator="in" in2="blur"/>
      <feComposite in="SourceGraphic"/>
    </filter>
    <filter id="bg-2" x="121" y="43" width="30" height="30" filterUnits="userSpaceOnUse">
      <feOffset dy="3" input="SourceAlpha"/>
      <feGaussianBlur stdDeviation="3" result="blur-2"/>
      <feFlood flood-opacity="0.161"/>
      <feComposite operator="in" in2="blur-2"/>
      <feComposite in="SourceGraphic"/>
    </filter>
    <filter id="bg-3" x="274" y="43" width="30" height="30" filterUnits="userSpaceOnUse">
      <feOffset dy="3" input="SourceAlpha"/>
      <feGaussianBlur stdDeviation="3" result="blur-3"/>
      <feFlood flood-opacity="0.161"/>
      <feComposite operator="in" in2="blur-3"/>
      <feComposite in="SourceGraphic"/>
    </filter>
    <filter id="bg-4" x="26" y="40" width="36" height="36" filterUnits="userSpaceOnUse">
      <feOffset dy="3" input="SourceAlpha"/>
      <feGaussianBlur stdDeviation="3" result="blur-4"/>
      <feFlood flood-opacity="0.161"/>
      <feComposite operator="in" in2="blur-4"/>
      <feComposite in="SourceGraphic"/>
    </filter>
    <filter id="bg-5" x="25" y="41" width="38" height="38" filterUnits="userSpaceOnUse">
      <feOffset dy="5" input="SourceAlpha"/>
      <feGaussianBlur stdDeviation="5" result="blur-5"/>
      <feFlood flood-opacity="0.2"/>
      <feComposite operator="in" in2="blur-5"/>
      <feComposite in="SourceGraphic"/>
    </filter>
  </defs>
  <g id="Group_198935" data-name="Group 198935" transform="translate(-19 -1040)">
    <g id="bar" transform="translate(54 1104) rotate(-90)">
      <rect id="Rectangle_105916" data-name="Rectangle 105916" width="2" height="245" transform="translate(8 9)" fill="#ddd"/>
      <g transform="matrix(0, 1, -1, 0, 64, -35)" filter="url(#bg)">
        <g id="bg-6" data-name="bg" transform="translate(195 61) rotate(-90)" fill="#c7c7c7" stroke="#fff" stroke-linejoin="round" stroke-width="2">
          <rect width="12" height="12" rx="6" stroke="none"/>
          <rect x="1" y="1" width="10" height="10" rx="5" fill="none"/>
        </g>
      </g>
      <g transform="matrix(0, 1, -1, 0, 64, -35)" filter="url(#bg-2)">
        <g id="bg-7" data-name="bg" transform="translate(130 61) rotate(-90)" fill="#c7c7c7" stroke="#fff" stroke-linejoin="round" stroke-width="2">
          <rect width="12" height="12" rx="6" stroke="none"/>
          <rect x="1" y="1" width="10" height="10" rx="5" fill="none"/>
        </g>
      </g>
      <g transform="matrix(0, 1, -1, 0, 64, -35)" filter="url(#bg-3)">
        <g id="bg-8" data-name="bg" transform="translate(283 61) rotate(-90)" fill="#c7c7c7" stroke="#fff" stroke-linejoin="round" stroke-width="2">
          <rect width="12" height="12" rx="6" stroke="none"/>
          <rect x="1" y="1" width="10" height="10" rx="5" fill="none"/>
        </g>
      </g>
      <g id="selected">
        <g transform="matrix(0, 1, -1, 0, 64, -35)" filter="url(#bg-4)">
          <g id="bg-9" data-name="bg" transform="translate(35 64) rotate(-90)" fill="#fff" stroke="#c7c7c7" stroke-linejoin="round" stroke-width="1">
            <rect width="18" height="18" rx="9" stroke="none"/>
            <rect x="0.5" y="0.5" width="17" height="17" rx="8.5" fill="none"/>
          </g>
        </g>
        <g transform="matrix(0, 1, -1, 0, 64, -35)" filter="url(#bg-5)">
          <rect id="bg-10" data-name="bg" width="8" height="8" rx="4" transform="translate(40 59) rotate(-90)" fill="#f2bfbf"/>
        </g>
      </g>
    </g>
    <g id="Union_13" data-name="Union 13" transform="translate(-1156 -1382)" fill="#e39597">
      <path d="M 1218.999633789062 2461.952880859375 L 1218.573974609375 2461.261962890625 L 1212.560424804688 2451.500732421875 L 1186.000244140625 2451.500732421875 C 1183.1953125 2451.500732421875 1180.55859375 2450.40869140625 1178.575561523438 2448.425537109375 C 1176.592529296875 2446.442626953125 1175.500366210938 2443.8056640625 1175.500366210938 2441.000732421875 L 1175.500366210938 2432.999755859375 C 1175.500366210938 2427.2099609375 1180.210571289062 2422.499755859375 1186.000244140625 2422.499755859375 L 1258.000244140625 2422.499755859375 C 1263.789916992188 2422.499755859375 1268.500122070312 2427.2099609375 1268.500122070312 2432.999755859375 L 1268.500122070312 2441.000732421875 C 1268.500122070312 2446.79052734375 1263.789916992188 2451.500732421875 1258.000244140625 2451.500732421875 L 1225.439697265625 2451.500732421875 L 1219.42529296875 2461.261962890625 L 1218.999633789062 2461.952880859375 Z" stroke="none"/>
      <path d="M 1218.999633789062 2460.999755859375 L 1225.160522460938 2451.000732421875 L 1258.000244140625 2451.000732421875 C 1263.522583007812 2451.000732421875 1268.000122070312 2446.524169921875 1268.000122070312 2441.000732421875 L 1268.000122070312 2432.999755859375 C 1268.000122070312 2427.477294921875 1263.522583007812 2422.999755859375 1258.000244140625 2422.999755859375 L 1186.000244140625 2422.999755859375 C 1180.476928710938 2422.999755859375 1176.000366210938 2427.477294921875 1176.000366210938 2432.999755859375 L 1176.000366210938 2441.000732421875 C 1176.000366210938 2446.524169921875 1180.476928710938 2451.000732421875 1186.000244140625 2451.000732421875 L 1212.839721679688 2451.000732421875 L 1218.999633789062 2460.999755859375 M 1218.99951171875 2462.90625 L 1212.28125 2452.000732421875 L 1186.000244140625 2452.000732421875 C 1183.061767578125 2452.000732421875 1180.299438476562 2450.856689453125 1178.221923828125 2448.779052734375 C 1176.14453125 2446.70166015625 1175.000366210938 2443.939208984375 1175.000366210938 2441.000732421875 L 1175.000366210938 2432.999755859375 C 1175.000366210938 2430.0615234375 1176.144409179688 2427.29931640625 1178.221923828125 2425.2216796875 C 1180.299560546875 2423.14404296875 1183.061889648438 2421.999755859375 1186.000244140625 2421.999755859375 L 1258.000244140625 2421.999755859375 C 1264.065551757812 2421.999755859375 1269.000122070312 2426.934326171875 1269.000122070312 2432.999755859375 L 1269.000122070312 2441.000732421875 C 1269.000122070312 2443.939208984375 1267.855834960938 2446.70166015625 1265.778198242188 2448.779052734375 C 1263.700561523438 2450.856689453125 1260.938354492188 2452.000732421875 1258.000244140625 2452.000732421875 L 1225.718994140625 2452.000732421875 L 1218.99951171875 2462.90625 Z" stroke="none" fill="#fff"/>
    </g>
    <text id="サービス選択" transform="translate(66 1060)" fill="#fff" stroke="rgba(0,0,0,0)" stroke-miterlimit="10" stroke-width="1" font-size="12" font-family="YuGothicUI-Regular, Yu Gothic UI"><tspan x="-29.549" y="0">サービス選択</tspan></text>
    <g id="ボタン名_ふきだし" transform="translate(122.526 1041)">
      <g id="Union_13-2" data-name="Union 13" transform="translate(-1165.527 -2423)" fill="#ddd">
        <path d="M 1197.839721679688 2462.0908203125 L 1197.395263671875 2461.22900390625 L 1192.37939453125 2451.500732421875 L 1186.000244140625 2451.500732421875 C 1180.210571289062 2451.500732421875 1175.500366210938 2446.79052734375 1175.500366210938 2441.000732421875 L 1175.500366210938 2432.999755859375 C 1175.500366210938 2427.2099609375 1180.210571289062 2422.499755859375 1186.000244140625 2422.499755859375 L 1210.00048828125 2422.499755859375 C 1215.790161132812 2422.499755859375 1220.50048828125 2427.2099609375 1220.50048828125 2432.999755859375 L 1220.50048828125 2441.000732421875 C 1220.50048828125 2446.79052734375 1215.790161132812 2451.500732421875 1210.00048828125 2451.500732421875 L 1203.300048828125 2451.500732421875 L 1198.284057617188 2461.22900390625 L 1197.839721679688 2462.0908203125 Z" stroke="none"/>
        <path d="M 1197.839721679688 2460.999755859375 L 1202.995361328125 2451.000732421875 L 1210.00048828125 2451.000732421875 C 1215.52294921875 2451.000732421875 1220.00048828125 2446.524169921875 1220.00048828125 2441.000732421875 L 1220.00048828125 2432.999755859375 C 1220.00048828125 2427.477294921875 1215.52294921875 2422.999755859375 1210.00048828125 2422.999755859375 L 1186.000244140625 2422.999755859375 C 1180.477783203125 2422.999755859375 1176.000366210938 2427.477294921875 1176.000366210938 2432.999755859375 L 1176.000366210938 2441.000732421875 C 1176.000366210938 2446.524169921875 1180.477783203125 2451.000732421875 1186.000244140625 2451.000732421875 L 1192.68408203125 2451.000732421875 L 1197.839721679688 2460.999755859375 M 1197.839721679688 2463.181884765625 L 1192.074584960938 2452.000732421875 L 1186.000244140625 2452.000732421875 C 1183.062133789062 2452.000732421875 1180.299926757812 2450.856689453125 1178.222290039062 2448.779052734375 C 1176.144653320312 2446.70166015625 1175.000366210938 2443.939208984375 1175.000366210938 2441.000732421875 L 1175.000366210938 2432.999755859375 C 1175.000366210938 2426.934326171875 1179.934936523438 2421.999755859375 1186.000244140625 2421.999755859375 L 1210.00048828125 2421.999755859375 C 1216.06591796875 2421.999755859375 1221.00048828125 2426.934326171875 1221.00048828125 2432.999755859375 L 1221.00048828125 2441.000732421875 C 1221.00048828125 2443.939208984375 1219.856201171875 2446.70166015625 1217.778442382812 2448.779052734375 C 1215.700927734375 2450.856689453125 1212.938598632812 2452.000732421875 1210.00048828125 2452.000732421875 L 1203.604858398438 2452.000732421875 L 1197.839721679688 2463.181884765625 Z" stroke="none" fill="#fff"/>
      </g>
      <text id="確認" transform="translate(32.474 19)" fill="#aaa" stroke="rgba(0,0,0,0)" stroke-miterlimit="10" stroke-width="1" font-size="12" font-family="YuGothicUI-Regular, Yu Gothic UI"><tspan x="-12" y="0">確認</tspan></text>
    </g>
    <g id="ボタン名_ふきだし-2" data-name="ボタン名_ふきだし" transform="translate(187.526 1041)">
      <g id="Union_13-3" data-name="Union 13" transform="translate(-1165.527 -2423)" fill="#ddd">
        <path d="M 1197.839721679688 2462.0908203125 L 1197.395263671875 2461.22900390625 L 1192.37939453125 2451.500732421875 L 1186.000244140625 2451.500732421875 C 1180.210571289062 2451.500732421875 1175.500366210938 2446.79052734375 1175.500366210938 2441.000732421875 L 1175.500366210938 2432.999755859375 C 1175.500366210938 2427.2099609375 1180.210571289062 2422.499755859375 1186.000244140625 2422.499755859375 L 1210.00048828125 2422.499755859375 C 1215.790161132812 2422.499755859375 1220.50048828125 2427.2099609375 1220.50048828125 2432.999755859375 L 1220.50048828125 2441.000732421875 C 1220.50048828125 2446.79052734375 1215.790161132812 2451.500732421875 1210.00048828125 2451.500732421875 L 1203.300048828125 2451.500732421875 L 1198.284057617188 2461.22900390625 L 1197.839721679688 2462.0908203125 Z" stroke="none"/>
        <path d="M 1197.839721679688 2460.999755859375 L 1202.995361328125 2451.000732421875 L 1210.00048828125 2451.000732421875 C 1215.52294921875 2451.000732421875 1220.00048828125 2446.524169921875 1220.00048828125 2441.000732421875 L 1220.00048828125 2432.999755859375 C 1220.00048828125 2427.477294921875 1215.52294921875 2422.999755859375 1210.00048828125 2422.999755859375 L 1186.000244140625 2422.999755859375 C 1180.477783203125 2422.999755859375 1176.000366210938 2427.477294921875 1176.000366210938 2432.999755859375 L 1176.000366210938 2441.000732421875 C 1176.000366210938 2446.524169921875 1180.477783203125 2451.000732421875 1186.000244140625 2451.000732421875 L 1192.68408203125 2451.000732421875 L 1197.839721679688 2460.999755859375 M 1197.839721679688 2463.181884765625 L 1192.074584960938 2452.000732421875 L 1186.000244140625 2452.000732421875 C 1183.062133789062 2452.000732421875 1180.299926757812 2450.856689453125 1178.222290039062 2448.779052734375 C 1176.144653320312 2446.70166015625 1175.000366210938 2443.939208984375 1175.000366210938 2441.000732421875 L 1175.000366210938 2432.999755859375 C 1175.000366210938 2426.934326171875 1179.934936523438 2421.999755859375 1186.000244140625 2421.999755859375 L 1210.00048828125 2421.999755859375 C 1216.06591796875 2421.999755859375 1221.00048828125 2426.934326171875 1221.00048828125 2432.999755859375 L 1221.00048828125 2441.000732421875 C 1221.00048828125 2443.939208984375 1219.856201171875 2446.70166015625 1217.778442382812 2448.779052734375 C 1215.700927734375 2450.856689453125 1212.938598632812 2452.000732421875 1210.00048828125 2452.000732421875 L 1203.604858398438 2452.000732421875 L 1197.839721679688 2463.181884765625 Z" stroke="none" fill="#fff"/>
      </g>
      <text id="完了" transform="translate(32.474 19)" fill="#aaa" stroke="rgba(0,0,0,0)" stroke-miterlimit="10" stroke-width="1" font-size="12" font-family="YuGothicUI-Regular, Yu Gothic UI"><tspan x="-12" y="0">完了</tspan></text>
    </g>
    <g id="ボタン名_ふきだし-3" data-name="ボタン名_ふきだし" transform="translate(253 1041)">
      <g id="Union_13-4" data-name="Union 13" transform="translate(-1166 -2423)" fill="#ddd">
        <path d="M 1221.000366210938 2461.953125 L 1220.57470703125 2461.261962890625 L 1214.56103515625 2451.500732421875 L 1186.000244140625 2451.500732421875 C 1183.1953125 2451.500732421875 1180.55859375 2450.40869140625 1178.575561523438 2448.425537109375 C 1176.592529296875 2446.442626953125 1175.500366210938 2443.8056640625 1175.500366210938 2441.000732421875 L 1175.500366210938 2432.999755859375 C 1175.500366210938 2427.2099609375 1180.210571289062 2422.499755859375 1186.000244140625 2422.499755859375 L 1258.000244140625 2422.499755859375 C 1263.789916992188 2422.499755859375 1268.500122070312 2427.2099609375 1268.500122070312 2432.999755859375 L 1268.500122070312 2441.000732421875 C 1268.500122070312 2446.79052734375 1263.789916992188 2451.500732421875 1258.000244140625 2451.500732421875 L 1227.439575195312 2451.500732421875 L 1221.426025390625 2461.261962890625 L 1221.000366210938 2461.953125 Z" stroke="none"/>
        <path d="M 1221.000366210938 2460.999755859375 L 1227.160278320312 2451.000732421875 L 1258.000244140625 2451.000732421875 C 1263.522583007812 2451.000732421875 1268.000122070312 2446.524169921875 1268.000122070312 2441.000732421875 L 1268.000122070312 2432.999755859375 C 1268.000122070312 2427.477294921875 1263.522583007812 2422.999755859375 1258.000244140625 2422.999755859375 L 1186.000244140625 2422.999755859375 C 1180.476928710938 2422.999755859375 1176.000366210938 2427.477294921875 1176.000366210938 2432.999755859375 L 1176.000366210938 2441.000732421875 C 1176.000366210938 2446.524169921875 1180.476928710938 2451.000732421875 1186.000244140625 2451.000732421875 L 1214.84033203125 2451.000732421875 L 1221.000366210938 2460.999755859375 M 1221.000366210938 2462.90625 L 1214.281860351562 2452.000732421875 L 1186.000244140625 2452.000732421875 C 1183.061767578125 2452.000732421875 1180.299438476562 2450.856689453125 1178.221923828125 2448.779052734375 C 1176.14453125 2446.70166015625 1175.000366210938 2443.939208984375 1175.000366210938 2441.000732421875 L 1175.000366210938 2432.999755859375 C 1175.000366210938 2430.0615234375 1176.144409179688 2427.29931640625 1178.221923828125 2425.2216796875 C 1180.299560546875 2423.14404296875 1183.061889648438 2421.999755859375 1186.000244140625 2421.999755859375 L 1258.000244140625 2421.999755859375 C 1264.065551757812 2421.999755859375 1269.000122070312 2426.934326171875 1269.000122070312 2432.999755859375 L 1269.000122070312 2441.000732421875 C 1269.000122070312 2443.939208984375 1267.855834960938 2446.70166015625 1265.778198242188 2448.779052734375 C 1263.700561523438 2450.856689453125 1260.938354492188 2452.000732421875 1258.000244140625 2452.000732421875 L 1227.71875 2452.000732421875 L 1221.000366210938 2462.90625 Z" stroke="none" fill="#fff"/>
      </g>
      <text id="体験予約即決" transform="translate(56 19)" fill="#aaa" stroke="rgba(0,0,0,0)" stroke-miterlimit="10" stroke-width="1" font-size="12" font-family="YuGothicUI-Regular, Yu Gothic UI"><tspan x="-36" y="0">体験予約即決</tspan></text>
    </g>
  </g>
</svg>
