<svg xmlns="http://www.w3.org/2000/svg" xmlns:xlink="http://www.w3.org/1999/xlink" width="513" height="79" viewBox="0 0 513 79">
  <defs>
    <filter id="bg" x="309" y="43" width="30" height="30" filterUnits="userSpaceOnUse">
      <feOffset dy="3" input="SourceAlpha"/>
      <feGaussianBlur stdDeviation="3" result="blur"/>
      <feFlood flood-opacity="0.161"/>
      <feComposite operator="in" in2="blur"/>
      <feComposite in="SourceGraphic"/>
    </filter>
    <filter id="bg-2" x="177" y="43" width="30" height="30" filterUnits="userSpaceOnUse">
      <feOffset dy="3" input="SourceAlpha"/>
      <feGaussianBlur stdDeviation="3" result="blur-2"/>
      <feFlood flood-opacity="0.161"/>
      <feComposite operator="in" in2="blur-2"/>
      <feComposite in="SourceGraphic"/>
    </filter>
    <filter id="bg-3" x="441" y="43" width="30" height="30" filterUnits="userSpaceOnUse">
      <feOffset dy="3" input="SourceAlpha"/>
      <feGaussianBlur stdDeviation="3" result="blur-3"/>
      <feFlood flood-opacity="0.161"/>
      <feComposite operator="in" in2="blur-3"/>
      <feComposite in="SourceGraphic"/>
    </filter>
    <filter id="bg-4" x="39" y="40" width="36" height="36" filterUnits="userSpaceOnUse">
      <feOffset dy="3" input="SourceAlpha"/>
      <feGaussianBlur stdDeviation="3" result="blur-4"/>
      <feFlood flood-opacity="0.161"/>
      <feComposite operator="in" in2="blur-4"/>
      <feComposite in="SourceGraphic"/>
    </filter>
    <filter id="bg-5" x="38" y="41" width="38" height="38" filterUnits="userSpaceOnUse">
      <feOffset dy="5" input="SourceAlpha"/>
      <feGaussianBlur stdDeviation="5" result="blur-5"/>
      <feFlood flood-opacity="0.2"/>
      <feComposite operator="in" in2="blur-5"/>
      <feComposite in="SourceGraphic"/>
    </filter>
  </defs>
  <g id="progress-bar" transform="translate(-380 -280)">
    <g id="bar" transform="translate(167.093 598) rotate(-90)">
      <rect id="Rectangle_105916" data-name="Rectangle 105916" width="2" height="399" transform="translate(262 269.907)" fill="#ddd"/>
      <g transform="matrix(0, 1, -1, 0, 318, 212.91)" filter="url(#bg)">
        <g id="bg-6" data-name="bg" transform="translate(318 61) rotate(-90)" fill="#c7c7c7" stroke="#fff" stroke-linejoin="round" stroke-width="2">
          <rect width="12" height="12" rx="6" stroke="none"/>
          <rect x="1" y="1" width="10" height="10" rx="5" fill="none"/>
        </g>
      </g>
      <g transform="matrix(0, 1, -1, 0, 318, 212.91)" filter="url(#bg-2)">
        <g id="bg-7" data-name="bg" transform="translate(186 61) rotate(-90)" fill="#c7c7c7" stroke="#fff" stroke-linejoin="round" stroke-width="2">
          <rect width="12" height="12" rx="6" stroke="none"/>
          <rect x="1" y="1" width="10" height="10" rx="5" fill="none"/>
        </g>
      </g>
      <g transform="matrix(0, 1, -1, 0, 318, 212.91)" filter="url(#bg-3)">
        <g id="bg-8" data-name="bg" transform="translate(450 61) rotate(-90)" fill="#c7c7c7" stroke="#fff" stroke-linejoin="round" stroke-width="2">
          <rect width="12" height="12" rx="6" stroke="none"/>
          <rect x="1" y="1" width="10" height="10" rx="5" fill="none"/>
        </g>
      </g>
      <g id="selected" transform="translate(254 260.907)">
        <g transform="matrix(0, 1, -1, 0, 64, -48)" filter="url(#bg-4)">
          <g id="bg-9" data-name="bg" transform="translate(48 64) rotate(-90)" fill="#fff" stroke="#c7c7c7" stroke-linejoin="round" stroke-width="1">
            <rect width="18" height="18" rx="9" stroke="none"/>
            <rect x="0.5" y="0.5" width="17" height="17" rx="8.5" fill="none"/>
          </g>
        </g>
        <g transform="matrix(0, 1, -1, 0, 64, -48)" filter="url(#bg-5)">
          <rect id="bg-10" data-name="bg" width="8" height="8" rx="4" transform="translate(53 59) rotate(-90)" fill="#f2bfbf"/>
        </g>
      </g>
    </g>
    <g id="ボタン名_ふきだし" transform="translate(109 216)">
      <g id="Union_13" data-name="Union 13" transform="translate(-904 -2358)" fill="#e39597">
        <path d="M 1231.537475585938 2461.8330078125 L 1231.137451171875 2461.2998046875 L 1223.788452148438 2451.500732421875 L 1186.000244140625 2451.500732421875 C 1183.1953125 2451.500732421875 1180.55859375 2450.40869140625 1178.575561523438 2448.425537109375 C 1176.592529296875 2446.442626953125 1175.500366210938 2443.8056640625 1175.500366210938 2441.000732421875 L 1175.500366210938 2432.999755859375 C 1175.500366210938 2427.2099609375 1180.210571289062 2422.499755859375 1186.000244140625 2422.499755859375 L 1278 2422.499755859375 C 1283.789672851562 2422.499755859375 1288.499877929688 2427.2099609375 1288.499877929688 2432.999755859375 L 1288.499877929688 2441.000732421875 C 1288.499877929688 2446.79052734375 1283.789672851562 2451.500732421875 1278 2451.500732421875 L 1239.287475585938 2451.500732421875 L 1231.9375 2461.2998046875 L 1231.537475585938 2461.8330078125 Z" stroke="none"/>
        <path d="M 1231.537475585938 2460.999755859375 L 1239.037475585938 2451.000732421875 L 1278 2451.000732421875 C 1283.5224609375 2451.000732421875 1287.999877929688 2446.524169921875 1287.999877929688 2441.000732421875 L 1287.999877929688 2432.999755859375 C 1287.999877929688 2427.477294921875 1283.5224609375 2422.999755859375 1278 2422.999755859375 L 1186.000244140625 2422.999755859375 C 1180.476928710938 2422.999755859375 1176.000366210938 2427.477294921875 1176.000366210938 2432.999755859375 L 1176.000366210938 2441.000732421875 C 1176.000366210938 2446.524169921875 1180.476928710938 2451.000732421875 1186.000244140625 2451.000732421875 L 1224.038452148438 2451.000732421875 L 1231.537475585938 2460.999755859375 M 1231.537475585938 2462.66650390625 L 1223.538452148438 2452.000732421875 L 1186.000244140625 2452.000732421875 C 1183.061767578125 2452.000732421875 1180.299438476562 2450.856689453125 1178.221923828125 2448.779052734375 C 1176.14453125 2446.70166015625 1175.000366210938 2443.939208984375 1175.000366210938 2441.000732421875 L 1175.000366210938 2432.999755859375 C 1175.000366210938 2430.061767578125 1176.14453125 2427.29931640625 1178.221923828125 2425.2216796875 C 1180.299560546875 2423.14404296875 1183.061889648438 2421.999755859375 1186.000244140625 2421.999755859375 L 1278 2421.999755859375 C 1284.065307617188 2421.999755859375 1288.999877929688 2426.934326171875 1288.999877929688 2432.999755859375 L 1288.999877929688 2441.000732421875 C 1288.999877929688 2443.939208984375 1287.855590820312 2446.70166015625 1285.777954101562 2448.779052734375 C 1283.700317382812 2450.856689453125 1280.938110351562 2452.000732421875 1278 2452.000732421875 L 1239.537475585938 2452.000732421875 L 1231.537475585938 2462.66650390625 Z" stroke="none" fill="#fff"/>
      </g>
      <text id="サービス選択" transform="translate(328 84)" fill="#fff" stroke="rgba(0,0,0,0)" stroke-miterlimit="10" stroke-width="1" font-size="12" font-family="YuGothicUI-Regular, Yu Gothic UI"><tspan x="-29.549" y="0">サービス選択</tspan></text>
    </g>
    <g id="ボタン名_ふきだし-2" data-name="ボタン名_ふきだし" transform="translate(244 216)">
      <g id="Union_13-2" data-name="Union 13" transform="translate(-880 -2358)" fill="#ddd">
        <path d="M 1207.766723632812 2461.8330078125 L 1207.36669921875 2461.2998046875 L 1200.017700195312 2451.500732421875 L 1186.000244140625 2451.500732421875 C 1180.210571289062 2451.500732421875 1175.500366210938 2446.79052734375 1175.500366210938 2441.000732421875 L 1175.500366210938 2432.999755859375 C 1175.500366210938 2427.2099609375 1180.210571289062 2422.499755859375 1186.000244140625 2422.499755859375 L 1230.000366210938 2422.499755859375 C 1235.7900390625 2422.499755859375 1240.500244140625 2427.2099609375 1240.500244140625 2432.999755859375 L 1240.500244140625 2441.000732421875 C 1240.500244140625 2443.8056640625 1239.408081054688 2446.442626953125 1237.425048828125 2448.425537109375 C 1235.442016601562 2450.40869140625 1232.805297851562 2451.500732421875 1230.000366210938 2451.500732421875 L 1215.515747070312 2451.500732421875 L 1208.166748046875 2461.2998046875 L 1207.766723632812 2461.8330078125 Z" stroke="none"/>
        <path d="M 1207.766723632812 2460.999755859375 L 1215.265747070312 2451.000732421875 L 1230.000366210938 2451.000732421875 C 1235.523681640625 2451.000732421875 1240.000244140625 2446.524169921875 1240.000244140625 2441.000732421875 L 1240.000244140625 2432.999755859375 C 1240.000244140625 2427.477294921875 1235.523681640625 2422.999755859375 1230.000366210938 2422.999755859375 L 1186.000244140625 2422.999755859375 C 1180.477783203125 2422.999755859375 1176.000366210938 2427.477294921875 1176.000366210938 2432.999755859375 L 1176.000366210938 2441.000732421875 C 1176.000366210938 2446.524169921875 1180.477783203125 2451.000732421875 1186.000244140625 2451.000732421875 L 1200.267700195312 2451.000732421875 L 1207.766723632812 2460.999755859375 M 1207.766723632812 2462.66650390625 L 1199.767700195312 2452.000732421875 L 1186.000244140625 2452.000732421875 C 1183.062133789062 2452.000732421875 1180.299926757812 2450.856689453125 1178.222290039062 2448.779052734375 C 1176.144653320312 2446.70166015625 1175.000366210938 2443.939208984375 1175.000366210938 2441.000732421875 L 1175.000366210938 2432.999755859375 C 1175.000366210938 2426.934326171875 1179.934936523438 2421.999755859375 1186.000244140625 2421.999755859375 L 1230.000366210938 2421.999755859375 C 1232.938720703125 2421.999755859375 1235.701049804688 2423.14404296875 1237.778686523438 2425.2216796875 C 1239.856079101562 2427.29931640625 1241.000244140625 2430.061767578125 1241.000244140625 2432.999755859375 L 1241.000244140625 2441.000732421875 C 1241.000244140625 2443.939208984375 1239.856079101562 2446.70166015625 1237.778686523438 2448.779052734375 C 1235.701171875 2450.856689453125 1232.938842773438 2452.000732421875 1230.000366210938 2452.000732421875 L 1215.765747070312 2452.000732421875 L 1207.766723632812 2462.66650390625 Z" stroke="none" fill="#fff"/>
      </g>
      <text id="確認" transform="translate(328 84)" fill="#aaa" stroke="rgba(0,0,0,0)" stroke-miterlimit="10" stroke-width="1" font-size="12" font-family="YuGothicUI-Regular, Yu Gothic UI"><tspan x="-12" y="0">確認</tspan></text>
    </g>
    <g id="ボタン名_ふきだし-3" data-name="ボタン名_ふきだし" transform="translate(508 216)">
      <g id="Union_13-3" data-name="Union 13" transform="translate(-904 -2358)" fill="#ddd">
        <path d="M 1231.538452148438 2461.8330078125 L 1231.138427734375 2461.2998046875 L 1223.788452148438 2451.500732421875 L 1186.000244140625 2451.500732421875 C 1183.1953125 2451.500732421875 1180.55859375 2450.40869140625 1178.575561523438 2448.425537109375 C 1176.592529296875 2446.442626953125 1175.500366210938 2443.8056640625 1175.500366210938 2441.000732421875 L 1175.500366210938 2432.999755859375 C 1175.500366210938 2427.2099609375 1180.210571289062 2422.499755859375 1186.000244140625 2422.499755859375 L 1278 2422.499755859375 C 1283.789672851562 2422.499755859375 1288.499877929688 2427.2099609375 1288.499877929688 2432.999755859375 L 1288.499877929688 2441.000732421875 C 1288.499877929688 2443.8056640625 1287.407836914062 2446.442626953125 1285.424682617188 2448.425537109375 C 1283.441650390625 2450.40869140625 1280.804931640625 2451.500732421875 1278 2451.500732421875 L 1239.287475585938 2451.500732421875 L 1231.9384765625 2461.2998046875 L 1231.538452148438 2461.8330078125 Z" stroke="none"/>
        <path d="M 1231.538452148438 2460.999755859375 L 1239.037475585938 2451.000732421875 L 1278 2451.000732421875 C 1283.523315429688 2451.000732421875 1287.999877929688 2446.524169921875 1287.999877929688 2441.000732421875 L 1287.999877929688 2432.999755859375 C 1287.999877929688 2427.477294921875 1283.523315429688 2422.999755859375 1278 2422.999755859375 L 1186.000244140625 2422.999755859375 C 1180.476928710938 2422.999755859375 1176.000366210938 2427.477294921875 1176.000366210938 2432.999755859375 L 1176.000366210938 2441.000732421875 C 1176.000366210938 2446.524169921875 1180.476928710938 2451.000732421875 1186.000244140625 2451.000732421875 L 1224.038452148438 2451.000732421875 L 1231.538452148438 2460.999755859375 M 1231.538452148438 2462.66650390625 L 1223.538452148438 2452.000732421875 L 1186.000244140625 2452.000732421875 C 1183.061767578125 2452.000732421875 1180.299438476562 2450.856689453125 1178.221923828125 2448.779052734375 C 1176.14453125 2446.70166015625 1175.000366210938 2443.939208984375 1175.000366210938 2441.000732421875 L 1175.000366210938 2432.999755859375 C 1175.000366210938 2430.061767578125 1176.14453125 2427.29931640625 1178.221923828125 2425.2216796875 C 1180.299560546875 2423.14404296875 1183.061889648438 2421.999755859375 1186.000244140625 2421.999755859375 L 1278 2421.999755859375 C 1280.938354492188 2421.999755859375 1283.70068359375 2423.14404296875 1285.7783203125 2425.2216796875 C 1287.855712890625 2427.29931640625 1288.999877929688 2430.061767578125 1288.999877929688 2432.999755859375 L 1288.999877929688 2441.000732421875 C 1288.999877929688 2443.939208984375 1287.855712890625 2446.70166015625 1285.7783203125 2448.779052734375 C 1283.700805664062 2450.856689453125 1280.9384765625 2452.000732421875 1278 2452.000732421875 L 1239.537475585938 2452.000732421875 L 1231.538452148438 2462.66650390625 Z" stroke="none" fill="#fff"/>
      </g>
      <text id="体験予約即決" transform="translate(328 84)" fill="#aaa" stroke="rgba(0,0,0,0)" stroke-miterlimit="10" stroke-width="1" font-size="12" font-family="YuGothicUI-Regular, Yu Gothic UI"><tspan x="-36" y="0">体験予約即決</tspan></text>
    </g>
    <g id="ボタン名_ふきだし-4" data-name="ボタン名_ふきだし" transform="translate(375 216)">
      <g id="Union_13-4" data-name="Union 13" transform="translate(-880 -2358)" fill="#ddd">
        <path d="M 1207.766723632812 2461.8330078125 L 1207.36669921875 2461.2998046875 L 1200.017700195312 2451.500732421875 L 1186.000244140625 2451.500732421875 C 1180.210571289062 2451.500732421875 1175.500366210938 2446.79052734375 1175.500366210938 2441.000732421875 L 1175.500366210938 2432.999755859375 C 1175.500366210938 2427.2099609375 1180.210571289062 2422.499755859375 1186.000244140625 2422.499755859375 L 1230.000366210938 2422.499755859375 C 1235.7900390625 2422.499755859375 1240.500244140625 2427.2099609375 1240.500244140625 2432.999755859375 L 1240.500244140625 2441.000732421875 C 1240.500244140625 2443.8056640625 1239.408081054688 2446.442626953125 1237.425048828125 2448.425537109375 C 1235.442016601562 2450.40869140625 1232.805297851562 2451.500732421875 1230.000366210938 2451.500732421875 L 1215.5166015625 2451.500732421875 L 1208.166748046875 2461.2998046875 L 1207.766723632812 2461.8330078125 Z" stroke="none"/>
        <path d="M 1207.766723632812 2460.999755859375 L 1215.2666015625 2451.000732421875 L 1230.000366210938 2451.000732421875 C 1235.523681640625 2451.000732421875 1240.000244140625 2446.524169921875 1240.000244140625 2441.000732421875 L 1240.000244140625 2432.999755859375 C 1240.000244140625 2427.477294921875 1235.523681640625 2422.999755859375 1230.000366210938 2422.999755859375 L 1186.000244140625 2422.999755859375 C 1180.477783203125 2422.999755859375 1176.000366210938 2427.477294921875 1176.000366210938 2432.999755859375 L 1176.000366210938 2441.000732421875 C 1176.000366210938 2446.524169921875 1180.477783203125 2451.000732421875 1186.000244140625 2451.000732421875 L 1200.267700195312 2451.000732421875 L 1207.766723632812 2460.999755859375 M 1207.766723632812 2462.66650390625 L 1199.767700195312 2452.000732421875 L 1186.000244140625 2452.000732421875 C 1183.062133789062 2452.000732421875 1180.299926757812 2450.856689453125 1178.222290039062 2448.779052734375 C 1176.144653320312 2446.70166015625 1175.000366210938 2443.939208984375 1175.000366210938 2441.000732421875 L 1175.000366210938 2432.999755859375 C 1175.000366210938 2426.934326171875 1179.934936523438 2421.999755859375 1186.000244140625 2421.999755859375 L 1230.000366210938 2421.999755859375 C 1232.938720703125 2421.999755859375 1235.701049804688 2423.14404296875 1237.778686523438 2425.2216796875 C 1239.856079101562 2427.29931640625 1241.000244140625 2430.061767578125 1241.000244140625 2432.999755859375 L 1241.000244140625 2441.000732421875 C 1241.000244140625 2443.939208984375 1239.856079101562 2446.70166015625 1237.778686523438 2448.779052734375 C 1235.701171875 2450.856689453125 1232.938842773438 2452.000732421875 1230.000366210938 2452.000732421875 L 1215.7666015625 2452.000732421875 L 1207.766723632812 2462.66650390625 Z" stroke="none" fill="#fff"/>
      </g>
      <text id="完了" transform="translate(328 84)" fill="#aaa" stroke="rgba(0,0,0,0)" stroke-miterlimit="10" stroke-width="1" font-size="12" font-family="YuGothicUI-Regular, Yu Gothic UI"><tspan x="-12" y="0">完了</tspan></text>
    </g>
  </g>
</svg>
