<svg xmlns="http://www.w3.org/2000/svg" width="93.46" height="57.407" viewBox="0 0 93.46 57.407">
  <path id="Path_450869" data-name="Path 450869" d="M-15.93-32.82a2.51,2.51,0,0,1-.9,1.26,2.083,2.083,0,0,1-1.2.42,1.554,1.554,0,0,1-1.05-.39,1.39,1.39,0,0,1-.45-1.11,2.948,2.948,0,0,1,.24-1.08q2.28-6,2.28-8.46,0-2.34-1.44-2.22a4.123,4.123,0,0,0-2.16.84,33.875,33.875,0,0,0-6.36,5.88,74.1,74.1,0,0,0-5.88,7.5,67.8,67.8,0,0,0-6.93,12.24,24.852,24.852,0,0,0-2.19,9.12,11.912,11.912,0,0,0,.3,2.76A8.014,8.014,0,0,0-37.59-.72,14.817,14.817,0,0,0-30.87.78,27.009,27.009,0,0,0-25.68.27q2.61-.51,4.83-1.17,2.46-.72,4.86-1.56a47.344,47.344,0,0,1,9.06-2.4,4.373,4.373,0,0,1,.72-.06,7.447,7.447,0,0,1,2.79.54,3.777,3.777,0,0,1,2.01,1.8,2.023,2.023,0,0,1,.24.9,1.867,1.867,0,0,1-.6,1.41A1.879,1.879,0,0,1-3.09.3,1.671,1.671,0,0,1-4.11-.06a4.506,4.506,0,0,1-.48-.42,5.81,5.81,0,0,0-1.29-.93,4.983,4.983,0,0,0-2.37-.45h-.18A32.8,32.8,0,0,0-17.19,0l-3,.84A33.367,33.367,0,0,1-30.45,2.4,20.14,20.14,0,0,1-38.43.84a9.48,9.48,0,0,1-5.22-5.58,11.187,11.187,0,0,1-.6-3.78,26.3,26.3,0,0,1,2.37-9.78,75.275,75.275,0,0,1,7.35-13.02q7.08-10.2,13.38-14.58a6.957,6.957,0,0,1,3.78-1.5q2.1,0,3.12,3.06a9.242,9.242,0,0,1,.36,2.76A26.245,26.245,0,0,1-15.93-32.82ZM8.97-19.74a1.974,1.974,0,0,1,.6-.12q.36,0,.36.3,0,.36-.6.78a11.393,11.393,0,0,1-4.86,1.26,9.517,9.517,0,0,1-2.82-.39,7.479,7.479,0,0,1-2.04-.93,9,9,0,0,1,.3,2.16,5.129,5.129,0,0,1-1.2,3.63,3.561,3.561,0,0,1-2.64,1.29A2.64,2.64,0,0,1-5.01-12a2.744,2.744,0,0,1-1.14-2.52A10.46,10.46,0,0,1-5.1-18.9a4.781,4.781,0,0,1,2.43-2.76h.24A2.972,2.972,0,0,1-.51-20.58a17.856,17.856,0,0,0,2.13,1.44,5.782,5.782,0,0,0,2.97.72A9.766,9.766,0,0,0,8.97-19.74ZM-3.81-14.1q.24.48.54.48.48,0,.96-1.14a5.835,5.835,0,0,0,.48-2.28,2.209,2.209,0,0,0-.72-1.8q-.18,0-.51.6a9.159,9.159,0,0,0-.63,1.5,5.331,5.331,0,0,0-.3,1.68A2.417,2.417,0,0,0-3.81-14.1Zm29.16-5.64a1.974,1.974,0,0,1,.6-.12q.36,0,.36.3,0,.36-.6.78a11.393,11.393,0,0,1-4.86,1.26,9.517,9.517,0,0,1-2.82-.39,7.479,7.479,0,0,1-2.04-.93,9,9,0,0,1,.3,2.16,5.129,5.129,0,0,1-1.2,3.63,3.561,3.561,0,0,1-2.64,1.29A2.64,2.64,0,0,1,11.37-12a2.744,2.744,0,0,1-1.14-2.52,10.46,10.46,0,0,1,1.05-4.38,4.781,4.781,0,0,1,2.43-2.76h.24a2.972,2.972,0,0,1,1.92,1.08A17.856,17.856,0,0,0,18-19.14a5.782,5.782,0,0,0,2.97.72A9.766,9.766,0,0,0,25.35-19.74ZM12.57-14.1q.24.48.54.48.48,0,.96-1.14a5.835,5.835,0,0,0,.48-2.28,2.209,2.209,0,0,0-.72-1.8q-.18,0-.51.6a9.159,9.159,0,0,0-.63,1.5,5.331,5.331,0,0,0-.3,1.68A2.417,2.417,0,0,0,12.57-14.1ZM36.39-42.42a1.01,1.01,0,0,1,.9.45,1.747,1.747,0,0,1,.3.99,1.514,1.514,0,0,1-.36,1.02,3.386,3.386,0,0,1-.72.54.7.7,0,0,1-.18.12,47.816,47.816,0,0,0-4.2,10.92q-2.16,7.56-2.16,11.58v.36a4.84,4.84,0,0,0,.72,3.03,2.366,2.366,0,0,0,1.92.87,8.031,8.031,0,0,0,3.9-1.29,35.471,35.471,0,0,0,4.29-2.94q2.07-1.65,3.39-2.85a1.166,1.166,0,0,1,.6-.24.385.385,0,0,1,.42.36q0,.24-.36.54a54.371,54.371,0,0,1-5.37,4.47,26.568,26.568,0,0,1-5.55,3.21,6.707,6.707,0,0,1-2.64.66,2.959,2.959,0,0,1-1.44-.36q-1.62-.72-1.8-5.34v-.6a43.58,43.58,0,0,1,.84-7.86q.96-4.8,2.25-9.06a42.8,42.8,0,0,1,2.25-6.18,5.772,5.772,0,0,1,1.05-1.56,2.956,2.956,0,0,1,1.71-.84Z" transform="matrix(0.996, -0.087, 0.087, 0.996, 48.213, 51.16)" fill="#fff"/>
</svg>
