<svg xmlns="http://www.w3.org/2000/svg" width="169.677" height="74.337" viewBox="0 0 169.677 74.337">
  <path id="Path_450867" data-name="Path 450867" d="M-46.74-41.46Q-49.44-30.6-51-21.66a14.586,14.586,0,0,0-.3,2.7,2.524,2.524,0,0,0,.42,1.53,1.993,1.993,0,0,0,1.68.57,8.916,8.916,0,0,0,1.32-.12,38.721,38.721,0,0,0,14.7-5.76,30.362,30.362,0,0,0,7.5-7.5,18.051,18.051,0,0,0,3.48-9.42v-.48a10.749,10.749,0,0,0-2.4-7.17,14.408,14.408,0,0,0-6.42-4.26,26.679,26.679,0,0,0-8.88-1.41,35.847,35.847,0,0,0-6.12.54,50.024,50.024,0,0,0-19.29,7.68q-8.73,5.82-10.83,13.08a3.754,3.754,0,0,1-.72,1.53,1.181,1.181,0,0,1-.84.45h-.24a1.148,1.148,0,0,1-.99-.45,1.826,1.826,0,0,1-.33-1.11,2.265,2.265,0,0,1,.12-.72q2.4-7.62,11.88-13.68A56.2,56.2,0,0,1-46.44-53.7a41.2,41.2,0,0,1,6.54-.54,29.389,29.389,0,0,1,9.63,1.5,15.591,15.591,0,0,1,6.96,4.56,11.509,11.509,0,0,1,2.61,7.74,9.258,9.258,0,0,1-.06,1.02,21.649,21.649,0,0,1-3.72,10.14,29.031,29.031,0,0,1-7.68,7.92,32.825,32.825,0,0,1-7.65,3.78,67.216,67.216,0,0,1-8.13,2.22q-2.94.6-3.75,1.89a9.151,9.151,0,0,0-.93,4.29q-.54,5.7-.72,12.54a1.3,1.3,0,0,1,.6.96,1.389,1.389,0,0,1-.66,1.14,2.236,2.236,0,0,1-1.32.48,1.117,1.117,0,0,1-.72-.24,1.02,1.02,0,0,1-.3-.84,1.763,1.763,0,0,1,.06-.42q1.2-14.46,2.94-26.58,1.5-10.5,2.22-19.32a4.609,4.609,0,0,1,.93-2.64,2.1,2.1,0,0,1,1.53-.84,1.609,1.609,0,0,1,1.17.51,1.906,1.906,0,0,1,.51,1.41A3.984,3.984,0,0,1-46.74-41.46Zm23.4,18.06q.6-.84,1.2-.84a1.084,1.084,0,0,1,.75.3.94.94,0,0,1,.33.72.878.878,0,0,1-.18.54,7.033,7.033,0,0,0-.33.78,2.33,2.33,0,0,0-.15.78V-21q.12.78,1.17.99a11.145,11.145,0,0,0,2.19.21h.84a6.04,6.04,0,0,1,1.38.12,1.13,1.13,0,0,1,.6,1.02,4.889,4.889,0,0,1-.72,2.22.053.053,0,0,0-.06.06,6.209,6.209,0,0,0-.66,2.52q0,1.62,1.26,1.8a1.763,1.763,0,0,0,.42-.06,6.811,6.811,0,0,0,2.4-1.71q1.44-1.41,2.82-3.03t2.16-2.64l.12-.12a.691.691,0,0,1,.48-.24.489.489,0,0,1,.36.12.407.407,0,0,1,.12.3.645.645,0,0,1-.12.36Q-7.62-18.3-9-16.8t-2.94,3.03A22.712,22.712,0,0,1-14.7-11.4a3.937,3.937,0,0,1-2.04.72q-1.32,0-1.92-1.98A11.328,11.328,0,0,1-18.9-15a9.689,9.689,0,0,1,.6-3.6,9.341,9.341,0,0,1-2.34.24,6.618,6.618,0,0,1-3-.66,1.7,1.7,0,0,1-.66-1.38,4.2,4.2,0,0,1,.33-1.59Q-23.64-22.8-23.34-23.4Zm20.1,5.22a4.375,4.375,0,0,0,2.04-.54.963.963,0,0,0,.42-.66.519.519,0,0,0-.24-.42.972.972,0,0,0-.6-.18,1.127,1.127,0,0,0-.72.3A6.224,6.224,0,0,0-3.24-18.18Zm1.5,1.08q-.42.12-.9.3a6.763,6.763,0,0,0-2.16.84q-1.8,1.44-1.8,2.46,0,.96,1.26,1.38a3.263,3.263,0,0,0,.9.12A7.633,7.633,0,0,0-.9-13.02a22.059,22.059,0,0,0,2.94-1.8A40.868,40.868,0,0,0,7.5-19.68a1.166,1.166,0,0,1,.6-.24.37.37,0,0,1,.42.3q0,.24-.42.54-.6.6-1.32,1.26a37,37,0,0,1-4.32,3.84,17.229,17.229,0,0,1-5.94,3.12,7.238,7.238,0,0,1-1.74.24,3.373,3.373,0,0,1-2.13-.63,2.246,2.246,0,0,1-.81-1.89,5.868,5.868,0,0,1,.42-1.98,16.273,16.273,0,0,1,1.23-2.43,12.2,12.2,0,0,1,2.1-2.64A3.752,3.752,0,0,1-1.8-21.36a3.052,3.052,0,0,1,.6.06A3.152,3.152,0,0,1,.6-20.1a2.03,2.03,0,0,1,.3.96,1.444,1.444,0,0,1-.87,1.35A8.761,8.761,0,0,1-1.74-17.1Zm15.9-3.42a8.663,8.663,0,0,0-1.32,1.05A1.972,1.972,0,0,0,12.18-18a1.763,1.763,0,0,0,.06.42,5.426,5.426,0,0,0,1.14,1.68,8.973,8.973,0,0,1,1.2,1.5,3.269,3.269,0,0,1,.54,1.8,4.771,4.771,0,0,1-1.2,2.76,45.924,45.924,0,0,0,8.58-9.72.688.688,0,0,1,.54-.3.516.516,0,0,1,.33.12.433.433,0,0,1,.15.36,1.026,1.026,0,0,1-.18.48q-2.28,2.82-5.04,5.82a36.325,36.325,0,0,1-5.94,5.22,4.267,4.267,0,0,1-1.8.78q-.54,0-.54-.42,0-.6,1.5-1.68a5.239,5.239,0,0,0,1.77-1.62,3.046,3.046,0,0,0,.51-1.56,2.231,2.231,0,0,0-.06-.54,7.986,7.986,0,0,0-1.68-2.34,1.071,1.071,0,0,0-.3-.3,7.722,7.722,0,0,1-1.26-1.62,3.175,3.175,0,0,1-.54-1.74q0-1.56,2.34-3.66a2.641,2.641,0,0,1,1.44-.6,1.211,1.211,0,0,1,1.08.54,1.259,1.259,0,0,1,.18.66A2.124,2.124,0,0,1,14.16-20.52Zm12.96,2.34a4.375,4.375,0,0,0,2.04-.54.963.963,0,0,0,.42-.66.519.519,0,0,0-.24-.42.972.972,0,0,0-.6-.18,1.127,1.127,0,0,0-.72.3A6.224,6.224,0,0,0,27.12-18.18Zm1.5,1.08q-.42.12-.9.3a6.763,6.763,0,0,0-2.16.84q-1.8,1.44-1.8,2.46,0,.96,1.26,1.38a3.263,3.263,0,0,0,.9.12,7.633,7.633,0,0,0,3.54-1.02,22.059,22.059,0,0,0,2.94-1.8,40.868,40.868,0,0,0,5.46-4.86,1.166,1.166,0,0,1,.6-.24.37.37,0,0,1,.42.3q0,.24-.42.54-.6.6-1.32,1.26a37,37,0,0,1-4.32,3.84,17.229,17.229,0,0,1-5.94,3.12,7.238,7.238,0,0,1-1.74.24,3.373,3.373,0,0,1-2.13-.63,2.246,2.246,0,0,1-.81-1.89,5.868,5.868,0,0,1,.42-1.98,16.273,16.273,0,0,1,1.23-2.43,12.2,12.2,0,0,1,2.1-2.64,3.752,3.752,0,0,1,2.61-1.17,3.052,3.052,0,0,1,.6.06,3.152,3.152,0,0,1,1.8,1.2,2.03,2.03,0,0,1,.3.96,1.444,1.444,0,0,1-.87,1.35A8.761,8.761,0,0,1,28.62-17.1Zm22.2,6.12a1.536,1.536,0,0,1-1.59-1.35,11.966,11.966,0,0,1-.33-2.85v-.66a10.841,10.841,0,0,0-.12-1.59q-.12-.81-.6-.93a2.469,2.469,0,0,0-.9.36,10.685,10.685,0,0,0-2.13,1.89q-1.17,1.29-1.95,2.25a3.917,3.917,0,0,0-.36.42,10.654,10.654,0,0,1-1.29,1.62,2.152,2.152,0,0,1-1.53.78q-1.26,0-1.2-2.28a12.917,12.917,0,0,1,.42-3.12,12.985,12.985,0,0,1,1.05-2.88q.63-1.2,1.23-1.26a1.011,1.011,0,0,1,.57.18.736.736,0,0,1,.27.66,2.769,2.769,0,0,1-.3,1.08,16.308,16.308,0,0,0-.99,2.67,8.865,8.865,0,0,0-.39,2.19q0,.54.18.54.3,0,.78-.72.12-.18.3-.42a25.862,25.862,0,0,1,3.6-4.14l.24-.24q.78-.66,1.83-1.44a4.971,4.971,0,0,1,2.01-.96q.96,0,1.23.54a3.945,3.945,0,0,1,.27,1.68A10.411,10.411,0,0,1,51-17.52q-.12,1.2-.12,2.52a5.04,5.04,0,0,0,.24,1.65.9.9,0,0,0,.9.69,3.281,3.281,0,0,0,1.8-.96,39.983,39.983,0,0,0,4.14-3.72q1.26-1.26,2.46-2.4a1.026,1.026,0,0,1,.48-.18.37.37,0,0,1,.21.06.2.2,0,0,1,.09.18.519.519,0,0,1-.18.36q-1.26,1.2-2.58,2.58a47.294,47.294,0,0,1-4.62,4.32A6.08,6.08,0,0,1,50.82-10.98ZM67.14-37.14a18.823,18.823,0,0,1,.66-1.8,10.154,10.154,0,0,1,.63-1.47,4.526,4.526,0,0,1,.99-1.29,3.827,3.827,0,0,1,1.62-.72h.18a1.047,1.047,0,0,1,.96.48,1.893,1.893,0,0,1,.3,1.02,1.514,1.514,0,0,1-.36,1.02,8.609,8.609,0,0,1-.9.6q-.48.84-1.02,1.98,4.44-.24,8.1-.24a24.3,24.3,0,0,1,7.08.78.471.471,0,0,1,.33.24.8.8,0,0,1,.09.36.737.737,0,0,1-.06.27.233.233,0,0,1-.24.15.619.619,0,0,1-.24-.12,20.842,20.842,0,0,0-5.88-.6q-4.32,0-9.66.36-.6,1.5-1.26,3.3l-.42,1.26q-1.32,4.08-2.28,8.34a32.662,32.662,0,0,0-.96,6.78v.36q.12,2.58,1.08,3.42a2.159,2.159,0,0,0,1.5.54,8.332,8.332,0,0,0,4.53-1.83q2.61-1.83,4.95-3.75,1.38-1.08,2.4-1.86a1.043,1.043,0,0,1,.6-.3.385.385,0,0,1,.42.36.819.819,0,0,1-.36.6l-1.08.84q-1.98,1.62-4.26,3.33a34.9,34.9,0,0,1-4.47,2.88,8.442,8.442,0,0,1-3.87,1.17,3.439,3.439,0,0,1-1.44-.3,2.9,2.9,0,0,1-1.32-1.53,10.626,10.626,0,0,1-.6-3.45v-.54a44.549,44.549,0,0,1,.84-7.92q.66-3.54,1.62-7.02l.42-1.32q.48-1.68.96-3.12l-6.54.42h-.36a2.737,2.737,0,0,1-1.47-.3.861.861,0,0,1-.45-.72,1.763,1.763,0,0,1,.54-1.23,1.489,1.489,0,0,1,1.02-.57.486.486,0,0,1,.48.42v.18q0,.42.63.57a6.7,6.7,0,0,0,1.53.15h1.2Q63.9-36.96,67.14-37.14Z" transform="matrix(0.996, -0.087, 0.087, 0.996, 83.686, 61.511)" fill="#fff"/>
</svg>
