<svg xmlns="http://www.w3.org/2000/svg" width="176.596" height="72.748" viewBox="0 0 176.596 72.748">
  <path id="Path_450868" data-name="Path 450868" d="M-81.18,9.66q-1.68,0-2.82-2.46a25.257,25.257,0,0,1-1.62-8.28,3.371,3.371,0,0,0-.06-.66q0-.84-.03-1.44t-.03-1.86a112.122,112.122,0,0,1,2.19-20.97q2.19-11.43,6.09-17.91a1.853,1.853,0,0,1,.78-.63,2.378,2.378,0,0,1,.96-.21,1.963,1.963,0,0,1,1.14.33,1.271,1.271,0,0,1,.54.99,3.966,3.966,0,0,1-.66,1.74q-4.02,6.54-6.75,17.7A86.866,86.866,0,0,0-84.18-3.48V-1.8a24.229,24.229,0,0,0,1.5,8.22,4.128,4.128,0,0,0,.81,1.26,1.462,1.462,0,0,0,1.05.54,1.026,1.026,0,0,0,.48-.18q2.7-1.68,7.32-12.54,3.6-8.34,5.7-13.74,2.58-6.36,3.96-9.18,1.5-3.12,3-3.12a2.554,2.554,0,0,1,1.14.3q2.04,1.32,3.27,5.4A61.9,61.9,0,0,1-54-15.66q.12.66.36,2.22.36,2.58,1.02,6.15a32.414,32.414,0,0,0,1.77,6.3q1.11,2.73,2.73,2.97,1.32,0,2.55-1.8a24.075,24.075,0,0,0,2.28-4.32Q-42.24-6.66-41.52-9t1.02-3.6q1.38-5.28,2.22-9.9a51.555,51.555,0,0,0,.84-9.24V-33.3a45.529,45.529,0,0,0-2.28-12.72l-.12-.6a1.717,1.717,0,0,1,.45-1.17,1.363,1.363,0,0,1,1.05-.51,1.466,1.466,0,0,1,.96.42,2.986,2.986,0,0,1,.78,1.38,30.711,30.711,0,0,1,.96,7.2v1.8q0,2.82-.18,6.12A120.115,120.115,0,0,1-38.94-11.7a53.327,53.327,0,0,1-3.48,9.9q-2.04,4.26-4.92,5.28a3.361,3.361,0,0,1-1.26.24,3.748,3.748,0,0,1-2.91-1.41A13.276,13.276,0,0,1-53.7-1.5a64.8,64.8,0,0,1-2.85-9.6q-1.11-5.1-1.95-10.02l-.36-2.16q-.9-4.86-1.92-4.86-.48,0-1.05,1.17A28.445,28.445,0,0,0-63-24.12l-.84,2.16-1.86,4.5q-.78,1.8-1.62,3.9-1.74,4.2-4.14,9.78-4.86,11.22-7.92,12.9A3.7,3.7,0,0,1-81.18,9.66ZM-26.7-18.18a4.375,4.375,0,0,0,2.04-.54.963.963,0,0,0,.42-.66.519.519,0,0,0-.24-.42.972.972,0,0,0-.6-.18,1.127,1.127,0,0,0-.72.3A6.224,6.224,0,0,0-26.7-18.18Zm1.5,1.08q-.42.12-.9.3a6.763,6.763,0,0,0-2.16.84q-1.8,1.44-1.8,2.46,0,.96,1.26,1.38a3.263,3.263,0,0,0,.9.12,7.633,7.633,0,0,0,3.54-1.02,22.059,22.059,0,0,0,2.94-1.8,40.868,40.868,0,0,0,5.46-4.86,1.166,1.166,0,0,1,.6-.24.37.37,0,0,1,.42.3q0,.24-.42.54-.6.6-1.32,1.26A37,37,0,0,1-21-13.98a17.229,17.229,0,0,1-5.94,3.12,7.238,7.238,0,0,1-1.74.24,3.373,3.373,0,0,1-2.13-.63,2.246,2.246,0,0,1-.81-1.89,5.868,5.868,0,0,1,.42-1.98,16.273,16.273,0,0,1,1.23-2.43,12.2,12.2,0,0,1,2.1-2.64,3.752,3.752,0,0,1,2.61-1.17,3.052,3.052,0,0,1,.6.06,3.152,3.152,0,0,1,1.8,1.2,2.03,2.03,0,0,1,.3.96,1.444,1.444,0,0,1-.87,1.35A8.761,8.761,0,0,1-25.2-17.1ZM-5.1-42.42a1.01,1.01,0,0,1,.9.45,1.747,1.747,0,0,1,.3.99,1.514,1.514,0,0,1-.36,1.02,3.386,3.386,0,0,1-.72.54.7.7,0,0,1-.18.12,47.816,47.816,0,0,0-4.2,10.92q-2.16,7.56-2.16,11.58v.36a4.84,4.84,0,0,0,.72,3.03,2.366,2.366,0,0,0,1.92.87,8.031,8.031,0,0,0,3.9-1.29A35.471,35.471,0,0,0-.69-16.77q2.07-1.65,3.39-2.85a1.166,1.166,0,0,1,.6-.24.385.385,0,0,1,.42.36q0,.24-.36.54a54.371,54.371,0,0,1-5.37,4.47,26.568,26.568,0,0,1-5.55,3.21,6.707,6.707,0,0,1-2.64.66,2.959,2.959,0,0,1-1.44-.36q-1.62-.72-1.8-5.34v-.6a43.579,43.579,0,0,1,.84-7.86q.96-4.8,2.25-9.06A42.8,42.8,0,0,1-8.1-40.02a5.772,5.772,0,0,1,1.05-1.56,2.956,2.956,0,0,1,1.71-.84ZM8.7-22.2a6.036,6.036,0,0,1,1.5-.24q1.74,0,1.74,1.2a1.655,1.655,0,0,1-.54,1.11,3.459,3.459,0,0,1-1.62.87,7.578,7.578,0,0,0-2.97,1.89,4.189,4.189,0,0,0-1.35,3.03,3.045,3.045,0,0,0,.12.84,1.575,1.575,0,0,0,1.68,1.02,12.229,12.229,0,0,0,4.8-1.35,44.7,44.7,0,0,0,5.55-3.03,21.27,21.27,0,0,0,3.75-2.88.741.741,0,0,1,.42-.18.369.369,0,0,1,.3.15.516.516,0,0,1,.12.33.519.519,0,0,1-.18.36,26.894,26.894,0,0,1-3.51,2.7,42.872,42.872,0,0,1-5.61,3.21A12.865,12.865,0,0,1,7.44-11.7a3.6,3.6,0,0,1-3-1.38,4.892,4.892,0,0,1-.42-1.98,6.744,6.744,0,0,1,.24-1.74,9.686,9.686,0,0,1,1.95-3.48A6,6,0,0,1,8.7-22.2Zm28.92,2.46a1.974,1.974,0,0,1,.6-.12q.36,0,.36.3,0,.36-.6.78a11.393,11.393,0,0,1-4.86,1.26,9.517,9.517,0,0,1-2.82-.39,7.479,7.479,0,0,1-2.04-.93,9,9,0,0,1,.3,2.16,5.129,5.129,0,0,1-1.2,3.63,3.561,3.561,0,0,1-2.64,1.29A2.64,2.64,0,0,1,23.64-12a2.744,2.744,0,0,1-1.14-2.52,10.46,10.46,0,0,1,1.05-4.38,4.781,4.781,0,0,1,2.43-2.76h.24a2.972,2.972,0,0,1,1.92,1.08,17.856,17.856,0,0,0,2.13,1.44,5.782,5.782,0,0,0,2.97.72A9.766,9.766,0,0,0,37.62-19.74ZM24.84-14.1q.24.48.54.48.48,0,.96-1.14a5.835,5.835,0,0,0,.48-2.28,2.209,2.209,0,0,0-.72-1.8q-.18,0-.51.6a9.159,9.159,0,0,0-.63,1.5,5.331,5.331,0,0,0-.3,1.68A2.417,2.417,0,0,0,24.84-14.1ZM39.3-10.86a1.139,1.139,0,0,1-.69-.33,1.384,1.384,0,0,1-.39-1.11l.36-1.95a32.187,32.187,0,0,1,2.16-6.09.864.864,0,0,1,.39-.51,1.056,1.056,0,0,1,.51-.15.914.914,0,0,1,.57.21.684.684,0,0,1,.27.57L40.5-14.28a31.353,31.353,0,0,1,2.31-3.45,28.988,28.988,0,0,1,2.43-2.91,3.412,3.412,0,0,1,2.58-1.26,2.59,2.59,0,0,1,2.16,1.32,7.909,7.909,0,0,1,.42,2.82q0,.96.06,1.53t.3.57a.583.583,0,0,0,.3-.12,3.279,3.279,0,0,0,.54-.54,22.247,22.247,0,0,1,3.36-3.66l.12-.12a22.16,22.16,0,0,1,2.01-1.74,3.789,3.789,0,0,1,2.25-.96,1.389,1.389,0,0,1,1.14.66,4.489,4.489,0,0,1,.36,1.98,22.59,22.59,0,0,1-.36,3.78q-.18,1.26-.24,2.28a4.5,4.5,0,0,0,.18,1.35.748.748,0,0,0,.78.57h.21a.483.483,0,0,0,.21-.06,12.653,12.653,0,0,0,3.33-2.34,56.842,56.842,0,0,0,5.07-5.04,2.252,2.252,0,0,1,.24-.21.4.4,0,0,1,.24-.09h.06q.24.06.24.24a.46.46,0,0,1-.06.18.7.7,0,0,1-.12.18.47.47,0,0,0-.09.12l-.03.06q-.3.3-.6.66a48.841,48.841,0,0,1-5.16,5.22l-.48.36a8.97,8.97,0,0,1-2.46,1.68,3.167,3.167,0,0,1-1.32.3q-1.14,0-1.68-1.44a13.523,13.523,0,0,1-.3-2.88,31.75,31.75,0,0,1,.18-3.78q0-1.44-.66-1.38a3.531,3.531,0,0,0-2.07,1.29,29.42,29.42,0,0,0-2.37,2.67q-1.08,1.38-1.38,1.86-1.32,2.34-2.58,2.34t-1.26-2.64a17.6,17.6,0,0,1,.12-1.92v-.18a17.19,17.19,0,0,0,.12-1.86,4.336,4.336,0,0,0-.15-1.26.612.612,0,0,0-.63-.48,2.606,2.606,0,0,0-1.26.6,14.16,14.16,0,0,0-2.28,2.34,30.376,30.376,0,0,0-1.98,2.79,18.862,18.862,0,0,0-1.08,1.89,3.958,3.958,0,0,1-.87,1.5A1.561,1.561,0,0,1,39.3-10.86Zm35.4-7.32a4.375,4.375,0,0,0,2.04-.54.963.963,0,0,0,.42-.66.519.519,0,0,0-.24-.42.972.972,0,0,0-.6-.18,1.127,1.127,0,0,0-.72.3A6.225,6.225,0,0,0,74.7-18.18Zm1.5,1.08q-.42.12-.9.3a6.763,6.763,0,0,0-2.16.84q-1.8,1.44-1.8,2.46,0,.96,1.26,1.38a3.263,3.263,0,0,0,.9.12,7.633,7.633,0,0,0,3.54-1.02,22.059,22.059,0,0,0,2.94-1.8,40.868,40.868,0,0,0,5.46-4.86,1.166,1.166,0,0,1,.6-.24.37.37,0,0,1,.42.3q0,.24-.42.54-.6.6-1.32,1.26a37,37,0,0,1-4.32,3.84,17.229,17.229,0,0,1-5.94,3.12,7.238,7.238,0,0,1-1.74.24,3.373,3.373,0,0,1-2.13-.63,2.246,2.246,0,0,1-.81-1.89,5.868,5.868,0,0,1,.42-1.98,16.274,16.274,0,0,1,1.23-2.43,12.2,12.2,0,0,1,2.1-2.64,3.752,3.752,0,0,1,2.61-1.17,3.052,3.052,0,0,1,.6.06,3.152,3.152,0,0,1,1.8,1.2,2.03,2.03,0,0,1,.3.96,1.444,1.444,0,0,1-.87,1.35A8.761,8.761,0,0,1,76.2-17.1Z" transform="matrix(0.996, -0.087, 0.087, 0.996, 89.623, 55.652)" fill="#fff"/>
</svg>
