<svg xmlns="http://www.w3.org/2000/svg" width="62.531" height="70.476" viewBox="0 0 62.531 70.476">
  <path id="Path_382174" data-name="Path 382174" d="M10.7,55.824a2.634,2.634,0,0,0,3.27.233,3.381,3.381,0,0,0,1.505-3.684c-.7-3.772-4.631-5.364-7.806-6.58l1.056-1.056c.675,2.556,2.4,5.094,5.072,5.824,2.176.6,5.062-.524,5.771-2.8a5.526,5.526,0,0,0-.873-4.286,24.985,24.985,0,0,0-2.561-3.62,30.87,30.87,0,0,0-6.516-5.863,30.731,30.731,0,0,0-8.967-4.1l.969-1.261A27.417,27.417,0,0,0,19.6,39.787a16.65,16.65,0,0,0,6.975-.069,4.639,4.639,0,0,0,3.64-4.893c-.135-2.591-1.9-4.65-3.778-6.264A72.108,72.108,0,0,0,19.66,23.6q-3.633-2.447-7.431-4.638-1.9-1.094-3.832-2.122A15.379,15.379,0,0,0,5.078,15.3c-.587-.148-1.781-.386-2.12.319-.476.991,1.208,1.916,1.866,2.28a78.6,78.6,0,0,0,15.606,6.509,81.016,81.016,0,0,0,8.276,2,32.785,32.785,0,0,0,7.737.854c2.28-.129,4.459-1.136,4.961-3.559.516-2.489-.853-4.84-2.469-6.614A47.565,47.565,0,0,0,26.5,7.729,54.3,54.3,0,0,0,11.876,2.323q-1.853-.395-3.731-.657C7.056,1.511,7.519-.144,8.6.01a55.2,55.2,0,0,1,30.73,15.021c1.986,1.966,3.708,4.341,3.876,7.221a6.049,6.049,0,0,1-3.644,6.072c-2.445,1.028-5.2.682-7.75.324a80.711,80.711,0,0,1-9.357-1.883A82.067,82.067,0,0,1,4.866,19.878a7.958,7.958,0,0,1-3.258-2.492,2.566,2.566,0,0,1,.259-3.156c1.76-1.77,4.691-.283,6.457.636A125.841,125.841,0,0,1,24.867,25.178c2.31,1.7,4.767,3.52,6.107,6.135,1.173,2.29,1.444,5.321-.108,7.511-1.534,2.164-4.217,2.869-6.741,2.973a26.072,26.072,0,0,1-7.872-.983A29.3,29.3,0,0,1,2.609,32.577,28.843,28.843,0,0,1,.135,29.5c-.443-.633.289-1.448.969-1.261A32.448,32.448,0,0,1,17.837,39.245c1.977,2.489,4.571,5.956,3.263,9.309a6.6,6.6,0,0,1-7,3.814c-3.616-.512-6.148-3.835-7.03-7.176-.154-.583.422-1.3,1.056-1.056,4.065,1.557,9.142,3.941,9.138,9.051a4.913,4.913,0,0,1-2.805,4.545,4.278,4.278,0,0,1-4.973-.7c-.757-.8.454-2.02,1.214-1.214Z" transform="translate(22.747) rotate(23)" fill="#666"/>
</svg>
