<svg xmlns="http://www.w3.org/2000/svg" xmlns:xlink="http://www.w3.org/1999/xlink" width="98" height="98" viewBox="0 0 98 98">
  <defs>
    <filter id="bg" x="0" y="0" width="98" height="98" filterUnits="userSpaceOnUse">
      <feOffset dy="3" input="SourceAlpha"/>
      <feGaussianBlur stdDeviation="3" result="blur"/>
      <feFlood flood-opacity="0.161"/>
      <feComposite operator="in" in2="blur"/>
      <feComposite in="SourceGraphic"/>
    </filter>
  </defs>
  <g transform="matrix(1, 0, 0, 1, 0, 0)" filter="url(#bg)">
    <path id="bg-2" data-name="bg" d="M62.79,17.11A28.345,28.345,0,0,0,55.64,6.316c-13.864-12.542-32.6-5.1-38.53,10.894A28.35,28.35,0,0,0,6.316,24.359c-12.542,13.864-5.1,32.6,10.894,38.53a28.35,28.35,0,0,0,7.149,10.794c13.864,12.542,32.6,5.1,38.53-10.894A28.35,28.35,0,0,0,73.684,55.64c12.542-13.864,5.1-32.6-10.894-38.53" transform="translate(9 6)" fill="#eeb0b0"/>
  </g>
</svg>
