<svg xmlns="http://www.w3.org/2000/svg" width="158.186" height="33.827" viewBox="0 0 158.186 33.827">
  <g id="btn" transform="translate(-16.5 -2.173)">
    <g id="txt" transform="translate(55.686 2.173)">
      <text id="_8:00_25:00" data-name="8:00~25:00" transform="translate(48.306 31.827)" fill="#d87e80" font-size="9" font-family="SegoeUI-Bold, Segoe UI" font-weight="700" letter-spacing="0.1em"><tspan x="0" y="0">8:00~25:00</tspan></text>
      <text id="電話受付_" data-name="電話受付：" transform="translate(0.736 31.827)" fill="#d87e80" font-size="9" font-family="YuGothicUI-Regular, Yu Gothic UI" letter-spacing="0.05em"><tspan x="0" y="0">電話受付：</tspan></text>
      <text id="_0120-978-900" data-name="0120-978-900" transform="translate(0 19)" fill="#d87e80" font-size="18" font-family="SegoeUI-Bold, Segoe UI" font-weight="700"><tspan x="0" y="0">0120-978-900</tspan></text>
    </g>
    <path id="freedial" d="M184.009,222.065a3.771,3.771,0,1,0,7.535,0c0-2.057-2.038-3.7-3.767-4.684C186.046,218.365,184.009,220.008,184.009,222.065Zm-3.932-11.577v20h30.644v-20Zm30.64,4.864a15.506,15.506,0,0,0-5.832,1.106c1.894,1.266,3.725,3.185,3.725,5.607a5.691,5.691,0,0,1-5.64,5.646,5.615,5.615,0,0,1-5.549-5.646c0-2.422,1.741-4.341,3.634-5.607a15.041,15.041,0,0,0-11.32,0c1.894,1.266,3.634,3.185,3.634,5.607a5.615,5.615,0,0,1-5.549,5.646,5.727,5.727,0,0,1-5.681-5.646c0-2.422,1.873-4.341,3.766-5.607a15.48,15.48,0,0,0-5.827-1.106V213.6a17.247,17.247,0,0,1,7.742,1.751,17.266,17.266,0,0,1,15.151,0,17.27,17.27,0,0,1,7.747-1.751Zm-11.394,6.669a3.77,3.77,0,1,0,7.533,0c0-2.058-2.036-3.7-3.766-4.685C201.359,218.319,199.323,219.963,199.323,222.021Z" transform="translate(-163.077 -200.488)" fill="#d87e80" stroke="rgba(0,0,0,0)" stroke-miterlimit="10" stroke-width="1"/>
  </g>
</svg>
