<svg xmlns="http://www.w3.org/2000/svg" width="18" height="18" viewBox="0 0 18 18">
  <g id="fb-icon-like" transform="translate(0.216 0.216)">
    <g id="Ellipse_303" data-name="Ellipse 303" transform="translate(0.784 0.784)" fill="#3e6dc1" stroke="#fff" stroke-width="1">
      <circle cx="8" cy="8" r="8" stroke="none"/>
      <circle cx="8" cy="8" r="8.5" fill="none"/>
    </g>
    <rect id="Rectangle_51421" data-name="Rectangle 51421" width="2.303" height="4.74" rx="1.151" transform="translate(4.434 7.902)" fill="#fefefe"/>
    <path id="Path_169808" data-name="Path 169808" d="M87.037,206.761h-.082a.733.733,0,1,0,0-1.465H84.6a3.842,3.842,0,0,0,.683-1.779c0-.942-.516-1.465-.852-1.525a.578.578,0,0,0-.68.4c-.1.284.075.822.008,1.015A17.282,17.282,0,0,1,82.44,205a2.711,2.711,0,0,0-.538,1.757v3.207a.457.457,0,0,0,.456.456h4.366a.531.531,0,1,0,0-1.062H86.8a.65.65,0,1,0,0-1.3h.239a.65.65,0,0,0,0-1.3Z" transform="translate(-74.551 -198.41)" fill="#fefefe"/>
  </g>
</svg>
