<svg xmlns="http://www.w3.org/2000/svg" xmlns:xlink="http://www.w3.org/1999/xlink" width="66" height="66" viewBox="0 0 66 66">
  <defs>
    <clipPath id="clip-path">
      <rect id="Rectangle_919" data-name="Rectangle 919" width="66" height="66" transform="translate(0 0.1)" fill="none"/>
    </clipPath>
  </defs>
  <g id="Group_60647" data-name="Group 60647" transform="translate(0 -0.1)">
    <g id="Group_1102" data-name="Group 1102" clip-path="url(#clip-path)">
      <path id="Path_9603" data-name="Path 9603" d="M65.757,32.878A32.878,32.878,0,1,0,32.878,65.757,32.878,32.878,0,0,0,65.757,32.878" fill="#070707"/>
      <path id="Path_9604" data-name="Path 9604" d="M141.429,261.729a12.1,12.1,0,0,1,7.585-22.559v1.47a12.1,12.1,0,0,0-7.585,21.089" transform="translate(-119.986 -212.15)" fill="#02f3ec"/>
      <path id="Path_9605" data-name="Path 9605" d="M238.017,116.807a8.858,8.858,0,0,0,.122,1.014h-4.272v25.918a5.737,5.737,0,0,1-10.079,3.749,5.737,5.737,0,0,0,7.867-5.328V116.242H238c0,.19.006.379.018.565" transform="translate(-198.606 -103.162)" fill="#02f3ec"/>
      <path id="Path_9606" data-name="Path 9606" d="M397.778,188.132v1.3a8.919,8.919,0,0,1-4.023-2.26,8.878,8.878,0,0,0,4.023.957" transform="translate(-349.447 -166.113)" fill="#02f3ec"/>
      <path id="Path_9607" data-name="Path 9607" d="M185.766,138.939v5.041a15.206,15.206,0,0,1-8.92-2.873v13.508A12.1,12.1,0,0,1,158.877,165.2a12.1,12.1,0,0,1,7.585-21.089v5.032a5.738,5.738,0,0,0-3.845,10.8,5.736,5.736,0,0,0,10.079-3.749V130.277h4.272a8.944,8.944,0,0,0,4.775,6.4,8.919,8.919,0,0,0,4.023,2.26" transform="translate(-137.435 -115.617)" fill="#fff"/>
      <path id="Path_9608" data-name="Path 9608" d="M191.729,263.6a5.74,5.74,0,0,1,7.452-5.476V253.1c.165-.008.33-.011.5-.011a12.212,12.212,0,0,1,1.715.121v6.5a5.737,5.737,0,0,0-6.057,9.225,5.739,5.739,0,0,1-3.608-5.328" transform="translate(-170.154 -224.606)" fill="#ff004e"/>
      <path id="Path_9609" data-name="Path 9609" d="M351.322,130.278h2.072c0,.19.006.379.018.565a8.9,8.9,0,0,0,2.684,5.837,8.945,8.945,0,0,1-4.775-6.4" transform="translate(-311.789 -115.618)" fill="#ff004e"/>
      <path id="Path_9610" data-name="Path 9610" d="M219.653,207.532v6.344a15.205,15.205,0,0,1-8.92-2.873v13.508a12.1,12.1,0,0,1-20.182,9,12.036,12.036,0,0,0,5.87,1.518,12.212,12.212,0,0,0,1.715-.121,12.1,12.1,0,0,0,10.384-11.979V209.424a15.206,15.206,0,0,0,8.92,2.873v-5.041a8.927,8.927,0,0,0,2.212.276" transform="translate(-169.109 -183.934)" fill="#ff004e"/>
    </g>
  </g>
</svg>
