<svg xmlns="http://www.w3.org/2000/svg" width="14" height="16" viewBox="0 0 14 16">
  <path id="train" d="M13.625,2H8.375A4.2,4.2,0,0,0,4,6v8a2.414,2.414,0,0,0,1.6,2.207l-.467.427a.752.752,0,0,0,0,1.131.934.934,0,0,0,1.237,0L7.862,16.4h6.275l1.494,1.366a.934.934,0,0,0,1.237,0,.752.752,0,0,0,0-1.131l-.467-.427A2.414,2.414,0,0,0,18,14V6a4.2,4.2,0,0,0-4.375-4ZM7.5,14a.8.8,0,1,1,.875-.8A.84.84,0,0,1,7.5,14ZM6.625,9.2V6a1.685,1.685,0,0,1,1.75-1.6h5.25A1.685,1.685,0,0,1,15.375,6V9.2a1.685,1.685,0,0,1-1.75,1.6H8.375a1.685,1.685,0,0,1-1.75-1.6ZM14.5,14a.8.8,0,1,1,.875-.8A.84.84,0,0,1,14.5,14Z" transform="translate(-4 -2)" fill="#666"/>
</svg>
