<svg xmlns="http://www.w3.org/2000/svg" width="18" height="18" viewBox="0 0 18 18">
  <path id="icon" d="M17.819,1.933,16.068.183a.624.624,0,0,0-.881,0l-1.2,1.2a.622.622,0,0,0-.48.18l-2.73,2.73a.624.624,0,0,0-.18.48L.183,15.187a.624.624,0,0,0,0,.881l1.75,1.75a.624.624,0,0,0,.881,0L13.228,7.4a.624.624,0,0,0,.48-.18l2.739-2.739a.622.622,0,0,0,.18-.48l1.2-1.2A.624.624,0,0,0,17.819,1.933ZM2.374,16.5l-.867-.867,1.4-1.4.867.864Zm2.281-2.283-.869-.864,1.1-1.1.871.864Zm1.985-1.985-.867-.867,1.068-1.068.867.867Zm1.952-1.952-.867-.864,1.095-1.1.869.864ZM10.563,8.3,9.7,7.442l1.664-1.681.876.871Zm2.7-2.4L12.1,4.734l.48-.48,1.167,1.162ZM14.645,4.53,13.468,3.361l.48-.48,1.176,1.162Zm1.22-1.52-.874-.867.639-.636.867.867Z" transform="translate(0 0)" fill="#7e9dd8"/>
</svg>
