<svg xmlns="http://www.w3.org/2000/svg" width="65.757" height="65.757" viewBox="0 0 65.757 65.757">
  <g id="Group_206790" data-name="Group 206790" transform="translate(0 -0.075)">
    <g id="Group_154023" data-name="Group 154023" transform="translate(17.229 15.208)">
      <path id="Path_28884" data-name="Path 28884" d="M499.678,484.2l-11.426-16.6-1.292-1.877-8.173-11.874-.677-.984H468.067l2.449,3.559,10.867,15.789,1.292,1.875,8.732,12.686.677.983h10.043Zm-6.4,1.288-9.071-13.18-1.292-1.876-10.526-15.294h4.528l8.513,12.368,1.292,1.876,11.085,16.105Z" transform="translate(-468.028 -452.867)" fill="#ccc"/>
      <path id="Path_28885" data-name="Path 28885" d="M481.587,1064.8l1.292,1.876-1.531,1.782-11.75,13.67h-2.9l13.356-15.545Z" transform="translate(-466.7 -1047.231)" fill="#ccc"/>
      <path id="Path_28886" data-name="Path 28886" d="M1088.4,452.867,1075.732,467.6l-1.531,1.781-1.292-1.876,1.531-1.782,8.58-9.986,2.48-2.872Z" transform="translate(-1055.507 -452.867)" fill="#ccc"/>
    </g>
    <path id="パス_28924" data-name="パス 28924" d="M32.878,2.391a30.5,30.5,0,0,0-11.866,58.58A30.5,30.5,0,0,0,44.745,4.786,30.294,30.294,0,0,0,32.878,2.391m0-2.391A32.878,32.878,0,1,1,0,32.878,32.878,32.878,0,0,1,32.878,0Z" transform="translate(0 0.075)" fill="#ccc"/>
  </g>
</svg>
