<svg xmlns="http://www.w3.org/2000/svg" width="16" height="16" viewBox="0 0 16 16">
  <path id="icon" d="M-553.751,17929.494a8,8,0,0,1,8-8,8,8,0,0,1,8,8,8,8,0,0,1-8,8A8,8,0,0,1-553.751,17929.494Zm1.818,0a6.181,6.181,0,0,0,6.181,6.182,6.182,6.182,0,0,0,6.183-6.182,6.182,6.182,0,0,0-6.183-6.182A6.181,6.181,0,0,0-551.932,17929.494Zm.728,0a5.453,5.453,0,0,1,5.453-5.455,5.454,5.454,0,0,1,5.455,5.455,5.453,5.453,0,0,1-5.455,5.453A5.453,5.453,0,0,1-551.2,17929.494Zm3.272,1.816a.365.365,0,0,0,.364.365h1.454v.363a.363.363,0,0,0,.362.363.363.363,0,0,0,.364-.363v-.363h1.454a.365.365,0,0,0,.364-.365.362.362,0,0,0-.364-.361h-1.454v-.729h1.454a.363.363,0,0,0,.364-.365.362.362,0,0,0-.364-.361h-1.454v-.477l1.717-1.818a.364.364,0,0,0-.01-.475.364.364,0,0,0-.513-.027l-1.558,1.633-1.556-1.646a.363.363,0,0,0-.474-.012.363.363,0,0,0-.049.512l1.717,1.82v.49h-1.454a.362.362,0,0,0-.364.361.363.363,0,0,0,.364.365h1.454v.729h-1.454A.362.362,0,0,0-547.932,17931.311Z" transform="translate(553.751 -17921.494)" fill="#ccc"/>
</svg>
