<svg xmlns="http://www.w3.org/2000/svg" width="65.757" height="65.757" viewBox="0 0 65.757 65.757">
  <g id="Group_206788" data-name="Group 206788" transform="translate(0 -0.075)">
    <path id="パス_28924" data-name="パス 28924" d="M32.878,2.391a30.5,30.5,0,0,0-11.866,58.58A30.5,30.5,0,0,0,44.745,4.786,30.294,30.294,0,0,0,32.878,2.391m0-2.391A32.878,32.878,0,1,1,0,32.878,32.878,32.878,0,0,1,32.878,0Z" transform="translate(0 0.075)" fill="#ccc"/>
    <path id="Path_450907" data-name="Path 450907" d="M43.781,18.811a7.9,7.9,0,0,0-7.895-7.895H15.7A7.9,7.9,0,0,0,7.8,18.811v9.395A7.9,7.9,0,0,0,15.7,36.1H35.887a7.9,7.9,0,0,0,7.895-7.895Zm-11.872,5.4-9.053,4.479c-.355.191-1.561-.065-1.561-.468V19.028c0-.409,1.215-.665,1.57-.463l8.666,4.715c.364.206.745.732.377.931" transform="translate(6.698 9.372)" fill="#ccc"/>
  </g>
</svg>
